<?xml version="1.0" encoding="utf-8" standalone="no"?>
<!DOCTYPE svg PUBLIC "-//W3C//DTD SVG 1.1//EN"
  "http://www.w3.org/Graphics/SVG/1.1/DTD/svg11.dtd">
<svg height="325.986375pt" version="1.1" viewBox="0 0 863.630625 325.986375" width="863.630625pt" xmlns="http://www.w3.org/2000/svg" xmlns:xlink="http://www.w3.org/1999/xlink">
 <metadata>
  <rdf:RDF xmlns:cc="http://creativecommons.org/ns#" xmlns:dc="http://purl.org/dc/elements/1.1/" xmlns:rdf="http://www.w3.org/1999/02/22-rdf-syntax-ns#">
   <cc:Work>
    <dc:type rdf:resource="http://purl.org/dc/dcmitype/StillImage"/>
    <dc:date>2021-12-16T18:40:51.233646</dc:date>
    <dc:format>image/svg+xml</dc:format>
    <dc:creator>
     <cc:Agent>
      <dc:title>Matplotlib v3.4.1, https://matplotlib.org/</dc:title>
     </cc:Agent>
    </dc:creator>
   </cc:Work>
  </rdf:RDF>
 </metadata>
 <defs>
  <style type="text/css">*{stroke-linecap:butt;stroke-linejoin:round;}</style>
 </defs>
 <g id="figure_1">
  <g id="patch_1">
   <path d="M 0 325.986375 
L 863.630625 325.986375 
L 863.630625 0 
L 0 0 
z
" style="fill:#ffffff;"/>
  </g>
  <g id="axes_1">
   <g id="patch_2">
    <path d="M 53.328125 288.430125 
L 767.568125 288.430125 
L 767.568125 22.318125 
L 53.328125 22.318125 
z
" style="fill:#ffffff;"/>
   </g>
   <g id="PolyCollection_1">
    <defs>
     <path d="M 85.79358 -66.885166 
L 85.79358 -61.423367 
L 92.928844 -88.873612 
L 100.064109 -103.822931 
L 107.199374 -109.873285 
L 114.334638 -113.169198 
L 121.469903 -129.130833 
L 128.605168 -132.05007 
L 135.740433 -147.587945 
L 142.875697 -150.69552 
L 150.010962 -162.654975 
L 157.146227 -169.576392 
L 164.281492 -175.587901 
L 171.416756 -177.25116 
L 178.552021 -183.04255 
L 185.687286 -204.277645 
L 192.822551 -224.24146 
L 199.957815 -226.548599 
L 207.09308 -231.963313 
L 214.228345 -233.799607 
L 221.36361 -240.815193 
L 228.498874 -243.263585 
L 235.634139 -243.922768 
L 242.769404 -246.747836 
L 249.904668 -247.312849 
L 257.039933 -248.725384 
L 264.175198 -248.631215 
L 271.310463 -248.772468 
L 278.445727 -250.702931 
L 285.580992 -249.515225 
L 292.716257 -251.597536 
L 299.851522 -251.832958 
L 306.986786 -253.386746 
L 314.122051 -253.386746 
L 321.257316 -256.58849 
L 328.392581 -257.107596 
L 335.527845 -257.43601 
L 342.66311 -261.767781 
L 349.798375 -261.909035 
L 356.933639 -261.871367 
L 364.068904 -261.909035 
L 371.204169 -261.873721 
L 378.339434 -264.263258 
L 385.474698 -262.931945 
L 392.609963 -264.259727 
L 399.745228 -265.063694 
L 406.880493 -265.063694 
L 414.015757 -266.429144 
L 421.151022 -262.474048 
L 428.286287 -266.899988 
L 435.421552 -267.135411 
L 442.556816 -267.182495 
L 449.692081 -268.830452 
L 456.827346 -267.20486 
L 463.962611 -267.417918 
L 471.097875 -267.559171 
L 478.23314 -267.559171 
L 485.368405 -267.559171 
L 492.503669 -268.030016 
L 499.638934 -268.030016 
L 506.774199 -267.924076 
L 513.909464 -268.783367 
L 521.044728 -270.666746 
L 528.179993 -272.173449 
L 535.315258 -272.173449 
L 542.450523 -272.173449 
L 549.585787 -272.644294 
L 556.721052 -272.07104 
L 563.856317 -273.303476 
L 570.991582 -273.538899 
L 578.126846 -273.576566 
L 585.262111 -273.680152 
L 592.397376 -273.680152 
L 599.53264 -273.680152 
L 606.667905 -273.680152 
L 613.80317 -274.042702 
L 620.938435 -274.056828 
L 628.073699 -272.67019 
L 635.208964 -274.245166 
L 642.344229 -274.207498 
L 649.479494 -274.281656 
L 656.614758 -274.29225 
L 663.750023 -274.29225 
L 670.885288 -274.29225 
L 678.020553 -274.29225 
L 685.155817 -274.339334 
L 692.291082 -274.339334 
L 699.426347 -274.433503 
L 706.561612 -274.574757 
L 713.696876 -275.092686 
L 720.832141 -275.598844 
L 727.967406 -275.6577 
L 735.10267 -275.704784 
L 735.10267 -291.57225 
L 735.10267 -291.57225 
L 727.967406 -291.289743 
L 720.832141 -291.14849 
L 713.696876 -291.14849 
L 706.561612 -291.14849 
L 699.426347 -291.054321 
L 692.291082 -291.054321 
L 685.155817 -290.72473 
L 678.020553 -290.72473 
L 670.885288 -290.72473 
L 663.750023 -290.112631 
L 656.614758 -290.112631 
L 649.479494 -290.112631 
L 642.344229 -290.018463 
L 635.208964 -289.971378 
L 628.073699 -289.924294 
L 620.938435 -289.688871 
L 613.80317 -289.453449 
L 606.667905 -289.453449 
L 599.53264 -289.076773 
L 592.397376 -288.841351 
L 585.262111 -288.841351 
L 578.126846 -288.841351 
L 570.991582 -288.464675 
L 563.856317 -288.417591 
L 556.721052 -288.135084 
L 549.585787 -287.57007 
L 542.450523 -287.57007 
L 535.315258 -287.906724 
L 528.179993 -287.381732 
L 521.044728 -287.165144 
L 513.909464 -286.910888 
L 506.774199 -286.863803 
L 499.638934 -286.684882 
L 492.503669 -286.392958 
L 485.368405 -286.345874 
L 478.23314 -286.345874 
L 471.097875 -286.29879 
L 463.962611 -286.29879 
L 456.827346 -286.158713 
L 449.692081 -285.922114 
L 442.556816 -284.886255 
L 435.421552 -284.603749 
L 428.286287 -284.521351 
L 421.151022 -284.50958 
L 414.015757 -283.473721 
L 406.880493 -283.473721 
L 399.745228 -282.626201 
L 392.609963 -281.825765 
L 385.474698 -281.543258 
L 378.339434 -281.872849 
L 371.204169 -281.260751 
L 364.068904 -280.460315 
L 356.933639 -279.942386 
L 349.798375 -279.848217 
L 342.66311 -279.518626 
L 335.527845 -280.08364 
L 328.392581 -279.283204 
L 321.257316 -279.332642 
L 314.122051 -279.094866 
L 306.986786 -278.812359 
L 299.851522 -278.529852 
L 292.716257 -275.940206 
L 285.580992 -275.893122 
L 278.445727 -275.469362 
L 271.310463 -275.940206 
L 264.175198 -273.303476 
L 257.039933 -273.585983 
L 249.904668 -272.361787 
L 242.769404 -270.949253 
L 235.634139 -269.254212 
L 228.498874 -265.299116 
L 221.36361 -265.063694 
L 214.228345 -264.310343 
L 207.09308 -261.100359 
L 199.957815 -256.541405 
L 192.822551 -250.7971 
L 185.687286 -250.750016 
L 178.552021 -241.427291 
L 171.416756 -241.0977 
L 164.281492 -239.73225 
L 157.146227 -226.12837 
L 150.010962 -218.685493 
L 142.875697 -206.96146 
L 135.740433 -205.125166 
L 128.605168 -200.181296 
L 121.469903 -174.096501 
L 114.334638 -151.213449 
L 107.199374 -140.148599 
L 100.064109 -122.915683 
L 92.928844 -96.925057 
L 85.79358 -66.885166 
z
" id="m53c74f4870" style="stroke:#d62728;stroke-opacity:0.2;"/>
    </defs>
    <g clip-path="url(#p20d7080e72)">
     <use style="fill:#d62728;fill-opacity:0.2;stroke:#d62728;stroke-opacity:0.2;" x="0" xlink:href="#m53c74f4870" y="325.986375"/>
    </g>
   </g>
   <g id="PolyCollection_2">
    <defs>
     <path d="M 85.79358 -54.92571 
L 85.79358 -49.65225 
L 92.928844 -66.93225 
L 100.064109 -75.172032 
L 107.199374 -96.783803 
L 114.334638 -102.669362 
L 121.469903 -106.671542 
L 128.605168 -107.848653 
L 135.740433 -109.308272 
L 142.875697 -132.135999 
L 150.010962 -138.05334 
L 157.146227 -150.978027 
L 164.281492 -159.170724 
L 171.416756 -164.208762 
L 178.552021 -168.728871 
L 185.687286 -172.024784 
L 192.822551 -176.121133 
L 199.957815 -177.627836 
L 207.09308 -177.816174 
L 214.228345 -178.369416 
L 221.36361 -181.112087 
L 228.498874 -179.04037 
L 235.634139 -179.04037 
L 242.769404 -182.242114 
L 249.904668 -182.430452 
L 257.039933 -182.760043 
L 264.175198 -183.46631 
L 271.310463 -183.513394 
L 278.445727 -182.242114 
L 285.580992 -184.31383 
L 292.716257 -184.549253 
L 299.851522 -185.114266 
L 306.986786 -185.632196 
L 314.122051 -185.820533 
L 321.257316 -186.10304 
L 328.392581 -186.338463 
L 335.527845 -186.573885 
L 342.66311 -187.89225 
L 349.798375 -186.903476 
L 356.933639 -187.562659 
L 364.068904 -187.609743 
L 371.204169 -188.268926 
L 378.339434 -189.116446 
L 385.474698 -188.551433 
L 392.609963 -188.833939 
L 399.745228 -188.964599 
L 406.880493 -189.069362 
L 414.015757 -189.069362 
L 421.151022 -189.493122 
L 428.286287 -189.634375 
L 435.421552 -189.963967 
L 442.556816 -224.288544 
L 449.692081 -217.979225 
L 456.827346 -218.02631 
L 463.962611 -218.308817 
L 471.097875 -218.732577 
L 478.23314 -225.65164 
L 485.368405 -219.202245 
L 492.503669 -219.438844 
L 499.638934 -219.485928 
L 506.774199 -219.768435 
L 513.909464 -220.380533 
L 521.044728 -220.898463 
L 528.179993 -224.053122 
L 535.315258 -223.205601 
L 542.450523 -235.070888 
L 549.585787 -224.053122 
L 556.721052 -224.335629 
L 563.856317 -224.335629 
L 570.991582 -254.846364 
L 578.126846 -267.888762 
L 585.262111 -267.935847 
L 592.397376 -269.677972 
L 599.53264 -269.725057 
L 606.667905 -259.178136 
L 613.80317 -259.460642 
L 620.938435 -270.195901 
L 628.073699 -260.119825 
L 635.208964 -270.242986 
L 642.344229 -270.337155 
L 649.479494 -260.59067 
L 656.614758 -270.949253 
L 663.750023 -271.137591 
L 670.885288 -270.924533 
L 678.020553 -271.23176 
L 685.155817 -271.373013 
L 692.291082 -262.003204 
L 699.426347 -271.985111 
L 706.561612 -271.985111 
L 713.696876 -272.738463 
L 720.832141 -272.785547 
L 727.967406 -273.020969 
L 735.10267 -275.233939 
L 735.10267 -291.525166 
L 735.10267 -291.525166 
L 727.967406 -290.880108 
L 720.832141 -291.242659 
L 713.696876 -290.641155 
L 706.561612 -291.242659 
L 699.426347 -290.960152 
L 692.291082 -290.72473 
L 685.155817 -290.455171 
L 678.020553 -290.2068 
L 670.885288 -290.2068 
L 663.750023 -290.2068 
L 656.614758 -288.794266 
L 649.479494 -289.406364 
L 642.344229 -289.076773 
L 635.208964 -289.502888 
L 628.073699 -288.93552 
L 620.938435 -287.99383 
L 613.80317 -287.475901 
L 606.667905 -286.863803 
L 599.53264 -286.863803 
L 592.397376 -286.392958 
L 585.262111 -286.016283 
L 578.126846 -286.016283 
L 570.991582 -285.686691 
L 563.856317 -285.404185 
L 556.721052 -285.168762 
L 549.585787 -284.93334 
L 542.450523 -284.93334 
L 535.315258 -284.74971 
L 528.179993 -284.93334 
L 521.044728 -284.650833 
L 513.909464 -283.285384 
L 506.774199 -283.850397 
L 499.638934 -283.56789 
L 492.503669 -283.332468 
L 485.368405 -283.097046 
L 478.23314 -282.814539 
L 471.097875 -282.484948 
L 463.962611 -281.967018 
L 456.827346 -281.637427 
L 449.692081 -281.449089 
L 442.556816 -281.402005 
L 435.421552 -280.460315 
L 428.286287 -280.460315 
L 421.151022 -279.989471 
L 414.015757 -279.000697 
L 406.880493 -277.729416 
L 399.745228 -276.881896 
L 392.609963 -276.740642 
L 385.474698 -276.269798 
L 378.339434 -275.57177 
L 371.204169 -275.516446 
L 364.068904 -272.314702 
L 356.933639 -270.855084 
L 349.798375 -270.525493 
L 342.66311 -269.254212 
L 335.527845 -268.218354 
L 328.392581 -267.417918 
L 321.257316 -267.135411 
L 314.122051 -266.429144 
L 306.986786 -265.204948 
L 299.851522 -262.28571 
L 292.716257 -261.344021 
L 285.580992 -260.166909 
L 278.445727 -259.507727 
L 271.310463 -258.471869 
L 264.175198 -257.43601 
L 257.039933 -256.070561 
L 249.904668 -253.43383 
L 242.769404 -251.927127 
L 235.634139 -251.409198 
L 228.498874 -250.514593 
L 221.36361 -247.223389 
L 214.228345 -245.335302 
L 207.09308 -241.474375 
L 199.957815 -237.09552 
L 192.822551 -231.822059 
L 185.687286 -229.609089 
L 178.552021 -228.102386 
L 171.416756 -224.147291 
L 164.281492 -224.947727 
L 157.146227 -208.844839 
L 150.010962 -197.073721 
L 142.875697 -183.183803 
L 135.740433 -169.905983 
L 128.605168 -163.031651 
L 121.469903 -136.806779 
L 114.334638 -119.996446 
L 107.199374 -101.358059 
L 100.064109 -86.048544 
L 92.928844 -74.502255 
L 85.79358 -54.92571 
z
" id="m9e7b83ffd2" style="stroke:#98df8a;stroke-opacity:0.2;"/>
    </defs>
    <g clip-path="url(#p20d7080e72)">
     <use style="fill:#98df8a;fill-opacity:0.2;stroke:#98df8a;stroke-opacity:0.2;" x="0" xlink:href="#m9e7b83ffd2" y="325.986375"/>
    </g>
   </g>
   <g id="PolyCollection_3">
    <defs>
     <path d="M 85.79358 -69.757318 
L 85.79358 -60.387509 
L 92.928844 -73.053231 
L 100.064109 -93.205384 
L 107.199374 -101.021405 
L 114.334638 -107.095302 
L 121.469903 -109.119934 
L 128.605168 -110.485384 
L 135.740433 -114.299225 
L 142.875697 -115.099661 
L 150.010962 -116.841787 
L 157.146227 -117.642223 
L 164.281492 -118.442659 
L 171.416756 -120.796882 
L 178.552021 -122.915683 
L 185.687286 -123.339443 
L 192.822551 -123.480697 
L 199.957815 -123.998626 
L 207.09308 -126.211596 
L 214.228345 -127.953721 
L 221.36361 -128.142059 
L 228.498874 -130.920043 
L 235.634139 -133.41552 
L 242.769404 -133.556773 
L 249.904668 -135.050528 
L 257.039933 -134.545547 
L 264.175198 -134.545547 
L 271.310463 -134.922223 
L 278.445727 -135.534321 
L 285.580992 -136.47601 
L 292.716257 -136.617264 
L 299.851522 -137.794375 
L 306.986786 -138.312304 
L 314.122051 -140.384021 
L 321.257316 -142.173231 
L 328.392581 -140.451116 
L 335.527845 -143.397427 
L 342.66311 -143.727018 
L 349.798375 -142.441612 
L 356.933639 -144.292032 
L 364.068904 -150.401242 
L 371.204169 -152.013885 
L 378.339434 -155.163836 
L 385.474698 -157.664021 
L 392.609963 -160.329002 
L 399.745228 -159.952326 
L 406.880493 -161.054103 
L 414.015757 -162.749144 
L 421.151022 -163.54958 
L 428.286287 -162.937482 
L 435.421552 -162.937482 
L 442.556816 -167.363422 
L 449.692081 -167.363422 
L 456.827346 -166.233394 
L 463.962611 -167.740097 
L 471.097875 -167.928435 
L 478.23314 -167.97552 
L 485.368405 -168.069689 
L 492.503669 -168.446364 
L 499.638934 -170.61225 
L 506.774199 -170.847672 
L 513.909464 -170.659334 
L 521.044728 -170.659334 
L 528.179993 -172.166037 
L 535.315258 -172.307291 
L 542.450523 -172.589798 
L 549.585787 -173.572686 
L 556.721052 -173.107727 
L 563.856317 -173.718648 
L 570.991582 -171.883531 
L 578.126846 -173.813994 
L 585.262111 -174.143585 
L 592.397376 -174.237754 
L 599.53264 -174.567345 
L 606.667905 -174.896937 
L 613.80317 -175.132359 
L 620.938435 -175.273612 
L 628.073699 -175.273612 
L 635.208964 -174.802768 
L 642.344229 -176.210593 
L 649.479494 -176.16704 
L 656.614758 -177.015738 
L 663.750023 -178.522441 
L 670.885288 -178.663694 
L 678.020553 -178.710779 
L 685.155817 -178.710779 
L 692.291082 -180.029144 
L 699.426347 -181.580577 
L 706.561612 -180.876664 
L 713.696876 -180.876664 
L 720.832141 -181.112087 
L 727.967406 -181.206255 
L 735.10267 -180.82958 
L 735.10267 -224.853558 
L 735.10267 -224.853558 
L 727.967406 -224.712304 
L 720.832141 -224.712304 
L 713.696876 -224.712304 
L 706.561612 -224.712304 
L 699.426347 -224.66522 
L 692.291082 -224.429798 
L 685.155817 -217.979225 
L 678.020553 -205.103978 
L 670.885288 -201.687999 
L 663.750023 -204.842659 
L 656.614758 -200.997035 
L 649.479494 -188.692686 
L 642.344229 -188.645601 
L 635.208964 -188.645601 
L 628.073699 -187.138899 
L 620.938435 -189.587291 
L 613.80317 -188.174757 
L 606.667905 -188.174757 
L 599.53264 -188.174757 
L 592.397376 -188.221841 
L 585.262111 -187.845166 
L 578.126846 -186.10304 
L 570.991582 -187.194223 
L 563.856317 -187.185983 
L 556.721052 -187.138899 
L 549.585787 -187.04473 
L 542.450523 -187.04473 
L 535.315258 -186.809307 
L 528.179993 -186.432631 
L 521.044728 -181.347509 
L 513.909464 -181.347509 
L 506.774199 -183.183803 
L 499.638934 -180.735411 
L 492.503669 -180.688326 
L 485.368405 -180.170397 
L 478.23314 -179.793721 
L 471.097875 -182.147945 
L 463.962611 -180.735411 
L 456.827346 -178.804948 
L 449.692081 -180.0468 
L 442.556816 -178.710779 
L 435.421552 -178.004512 
L 428.286287 -177.957427 
L 421.151022 -177.627836 
L 414.015757 -176.874484 
L 406.880493 -176.639062 
L 399.745228 -176.497809 
L 392.609963 -176.40364 
L 385.474698 -176.309471 
L 378.339434 -176.121133 
L 371.204169 -176.074048 
L 364.068904 -176.121133 
L 356.933639 -175.603204 
L 349.798375 -175.085275 
L 342.66311 -174.567345 
L 335.527845 -174.426092 
L 328.392581 -174.896937 
L 321.257316 -174.096501 
L 314.122051 -171.695193 
L 306.986786 -171.665765 
L 299.851522 -171.45977 
L 292.716257 -170.047236 
L 285.580992 -170.000152 
L 278.445727 -169.482223 
L 271.310463 -168.220359 
L 264.175198 -168.540533 
L 257.039933 -167.837798 
L 249.904668 -167.881351 
L 242.769404 -164.632522 
L 235.634139 -164.538354 
L 228.498874 -164.35237 
L 221.36361 -160.39492 
L 214.228345 -160.992893 
L 207.09308 -149.565493 
L 199.957815 -149.565493 
L 192.822551 -148.435465 
L 185.687286 -147.823367 
L 178.552021 -146.222495 
L 171.416756 -141.608217 
L 164.281492 -141.514048 
L 157.146227 -140.996119 
L 150.010962 -140.148599 
L 142.875697 -139.442332 
L 135.740433 -133.321351 
L 128.605168 -131.861732 
L 121.469903 -130.025438 
L 114.334638 -128.471651 
L 107.199374 -120.632087 
L 100.064109 -104.882332 
L 92.928844 -86.331051 
L 85.79358 -69.757318 
z
" id="m3d316d62f7" style="stroke:#1f77b4;stroke-opacity:0.2;"/>
    </defs>
    <g clip-path="url(#p20d7080e72)">
     <use style="fill:#1f77b4;fill-opacity:0.2;stroke:#1f77b4;stroke-opacity:0.2;" x="0" xlink:href="#m3d316d62f7" y="325.986375"/>
    </g>
   </g>
   <g id="matplotlib.axis_1">
    <g id="xtick_1">
     <g id="line2d_1">
      <defs>
       <path d="M 0 0 
L 0 3.5 
" id="m7057fe1343" style="stroke:#000000;stroke-width:0.8;"/>
      </defs>
      <g>
       <use style="stroke:#000000;stroke-width:0.8;" x="85.79358" xlink:href="#m7057fe1343" y="288.430125"/>
      </g>
     </g>
     <g id="text_1">
      <!-- 15m -->
      <g transform="translate(74.560767 303.028562)scale(0.1 -0.1)">
       <defs>
        <path d="M 794 531 
L 1825 531 
L 1825 4091 
L 703 3866 
L 703 4441 
L 1819 4666 
L 2450 4666 
L 2450 531 
L 3481 531 
L 3481 0 
L 794 0 
L 794 531 
z
" id="DejaVuSans-31" transform="scale(0.015625)"/>
        <path d="M 691 4666 
L 3169 4666 
L 3169 4134 
L 1269 4134 
L 1269 2991 
Q 1406 3038 1543 3061 
Q 1681 3084 1819 3084 
Q 2600 3084 3056 2656 
Q 3513 2228 3513 1497 
Q 3513 744 3044 326 
Q 2575 -91 1722 -91 
Q 1428 -91 1123 -41 
Q 819 9 494 109 
L 494 744 
Q 775 591 1075 516 
Q 1375 441 1709 441 
Q 2250 441 2565 725 
Q 2881 1009 2881 1497 
Q 2881 1984 2565 2268 
Q 2250 2553 1709 2553 
Q 1456 2553 1204 2497 
Q 953 2441 691 2322 
L 691 4666 
z
" id="DejaVuSans-35" transform="scale(0.015625)"/>
        <path d="M 3328 2828 
Q 3544 3216 3844 3400 
Q 4144 3584 4550 3584 
Q 5097 3584 5394 3201 
Q 5691 2819 5691 2113 
L 5691 0 
L 5113 0 
L 5113 2094 
Q 5113 2597 4934 2840 
Q 4756 3084 4391 3084 
Q 3944 3084 3684 2787 
Q 3425 2491 3425 1978 
L 3425 0 
L 2847 0 
L 2847 2094 
Q 2847 2600 2669 2842 
Q 2491 3084 2119 3084 
Q 1678 3084 1418 2786 
Q 1159 2488 1159 1978 
L 1159 0 
L 581 0 
L 581 3500 
L 1159 3500 
L 1159 2956 
Q 1356 3278 1631 3431 
Q 1906 3584 2284 3584 
Q 2666 3584 2933 3390 
Q 3200 3197 3328 2828 
z
" id="DejaVuSans-6d" transform="scale(0.015625)"/>
       </defs>
       <use xlink:href="#DejaVuSans-31"/>
       <use x="63.623047" xlink:href="#DejaVuSans-35"/>
       <use x="127.246094" xlink:href="#DejaVuSans-6d"/>
      </g>
     </g>
    </g>
    <g id="xtick_2">
     <g id="line2d_2">
      <g>
       <use style="stroke:#000000;stroke-width:0.8;" x="140.497276" xlink:href="#m7057fe1343" y="288.430125"/>
      </g>
     </g>
     <g id="text_2">
      <!-- 2h:10m -->
      <g transform="translate(121.230088 303.028562)scale(0.1 -0.1)">
       <defs>
        <path d="M 1228 531 
L 3431 531 
L 3431 0 
L 469 0 
L 469 531 
Q 828 903 1448 1529 
Q 2069 2156 2228 2338 
Q 2531 2678 2651 2914 
Q 2772 3150 2772 3378 
Q 2772 3750 2511 3984 
Q 2250 4219 1831 4219 
Q 1534 4219 1204 4116 
Q 875 4013 500 3803 
L 500 4441 
Q 881 4594 1212 4672 
Q 1544 4750 1819 4750 
Q 2544 4750 2975 4387 
Q 3406 4025 3406 3419 
Q 3406 3131 3298 2873 
Q 3191 2616 2906 2266 
Q 2828 2175 2409 1742 
Q 1991 1309 1228 531 
z
" id="DejaVuSans-32" transform="scale(0.015625)"/>
        <path d="M 3513 2113 
L 3513 0 
L 2938 0 
L 2938 2094 
Q 2938 2591 2744 2837 
Q 2550 3084 2163 3084 
Q 1697 3084 1428 2787 
Q 1159 2491 1159 1978 
L 1159 0 
L 581 0 
L 581 4863 
L 1159 4863 
L 1159 2956 
Q 1366 3272 1645 3428 
Q 1925 3584 2291 3584 
Q 2894 3584 3203 3211 
Q 3513 2838 3513 2113 
z
" id="DejaVuSans-68" transform="scale(0.015625)"/>
        <path d="M 750 794 
L 1409 794 
L 1409 0 
L 750 0 
L 750 794 
z
M 750 3309 
L 1409 3309 
L 1409 2516 
L 750 2516 
L 750 3309 
z
" id="DejaVuSans-3a" transform="scale(0.015625)"/>
        <path d="M 2034 4250 
Q 1547 4250 1301 3770 
Q 1056 3291 1056 2328 
Q 1056 1369 1301 889 
Q 1547 409 2034 409 
Q 2525 409 2770 889 
Q 3016 1369 3016 2328 
Q 3016 3291 2770 3770 
Q 2525 4250 2034 4250 
z
M 2034 4750 
Q 2819 4750 3233 4129 
Q 3647 3509 3647 2328 
Q 3647 1150 3233 529 
Q 2819 -91 2034 -91 
Q 1250 -91 836 529 
Q 422 1150 422 2328 
Q 422 3509 836 4129 
Q 1250 4750 2034 4750 
z
" id="DejaVuSans-30" transform="scale(0.015625)"/>
       </defs>
       <use xlink:href="#DejaVuSans-32"/>
       <use x="63.623047" xlink:href="#DejaVuSans-68"/>
       <use x="127.001953" xlink:href="#DejaVuSans-3a"/>
       <use x="160.693359" xlink:href="#DejaVuSans-31"/>
       <use x="224.316406" xlink:href="#DejaVuSans-30"/>
       <use x="287.939453" xlink:href="#DejaVuSans-6d"/>
      </g>
     </g>
    </g>
    <g id="xtick_3">
     <g id="line2d_3">
      <g>
       <use style="stroke:#000000;stroke-width:0.8;" x="195.200972" xlink:href="#m7057fe1343" y="288.430125"/>
      </g>
     </g>
     <g id="text_3">
      <!-- 4h:5m -->
      <g transform="translate(179.115035 303.028562)scale(0.1 -0.1)">
       <defs>
        <path d="M 2419 4116 
L 825 1625 
L 2419 1625 
L 2419 4116 
z
M 2253 4666 
L 3047 4666 
L 3047 1625 
L 3713 1625 
L 3713 1100 
L 3047 1100 
L 3047 0 
L 2419 0 
L 2419 1100 
L 313 1100 
L 313 1709 
L 2253 4666 
z
" id="DejaVuSans-34" transform="scale(0.015625)"/>
       </defs>
       <use xlink:href="#DejaVuSans-34"/>
       <use x="63.623047" xlink:href="#DejaVuSans-68"/>
       <use x="127.001953" xlink:href="#DejaVuSans-3a"/>
       <use x="160.693359" xlink:href="#DejaVuSans-35"/>
       <use x="224.316406" xlink:href="#DejaVuSans-6d"/>
      </g>
     </g>
    </g>
    <g id="xtick_4">
     <g id="line2d_4">
      <g>
       <use style="stroke:#000000;stroke-width:0.8;" x="249.904668" xlink:href="#m7057fe1343" y="288.430125"/>
      </g>
     </g>
     <g id="text_4">
      <!-- 6h -->
      <g transform="translate(243.554668 303.028562)scale(0.1 -0.1)">
       <defs>
        <path d="M 2113 2584 
Q 1688 2584 1439 2293 
Q 1191 2003 1191 1497 
Q 1191 994 1439 701 
Q 1688 409 2113 409 
Q 2538 409 2786 701 
Q 3034 994 3034 1497 
Q 3034 2003 2786 2293 
Q 2538 2584 2113 2584 
z
M 3366 4563 
L 3366 3988 
Q 3128 4100 2886 4159 
Q 2644 4219 2406 4219 
Q 1781 4219 1451 3797 
Q 1122 3375 1075 2522 
Q 1259 2794 1537 2939 
Q 1816 3084 2150 3084 
Q 2853 3084 3261 2657 
Q 3669 2231 3669 1497 
Q 3669 778 3244 343 
Q 2819 -91 2113 -91 
Q 1303 -91 875 529 
Q 447 1150 447 2328 
Q 447 3434 972 4092 
Q 1497 4750 2381 4750 
Q 2619 4750 2861 4703 
Q 3103 4656 3366 4563 
z
" id="DejaVuSans-36" transform="scale(0.015625)"/>
       </defs>
       <use xlink:href="#DejaVuSans-36"/>
       <use x="63.623047" xlink:href="#DejaVuSans-68"/>
      </g>
     </g>
    </g>
    <g id="xtick_5">
     <g id="line2d_5">
      <g>
       <use style="stroke:#000000;stroke-width:0.8;" x="304.608365" xlink:href="#m7057fe1343" y="288.430125"/>
      </g>
     </g>
     <g id="text_5">
      <!-- 7h:55m -->
      <g transform="translate(285.341177 303.028562)scale(0.1 -0.1)">
       <defs>
        <path d="M 525 4666 
L 3525 4666 
L 3525 4397 
L 1831 0 
L 1172 0 
L 2766 4134 
L 525 4134 
L 525 4666 
z
" id="DejaVuSans-37" transform="scale(0.015625)"/>
       </defs>
       <use xlink:href="#DejaVuSans-37"/>
       <use x="63.623047" xlink:href="#DejaVuSans-68"/>
       <use x="127.001953" xlink:href="#DejaVuSans-3a"/>
       <use x="160.693359" xlink:href="#DejaVuSans-35"/>
       <use x="224.316406" xlink:href="#DejaVuSans-35"/>
       <use x="287.939453" xlink:href="#DejaVuSans-6d"/>
      </g>
     </g>
    </g>
    <g id="xtick_6">
     <g id="line2d_6">
      <g>
       <use style="stroke:#000000;stroke-width:0.8;" x="359.312061" xlink:href="#m7057fe1343" y="288.430125"/>
      </g>
     </g>
     <g id="text_6">
      <!-- 9h:50m -->
      <g transform="translate(340.044874 303.028562)scale(0.1 -0.1)">
       <defs>
        <path d="M 703 97 
L 703 672 
Q 941 559 1184 500 
Q 1428 441 1663 441 
Q 2288 441 2617 861 
Q 2947 1281 2994 2138 
Q 2813 1869 2534 1725 
Q 2256 1581 1919 1581 
Q 1219 1581 811 2004 
Q 403 2428 403 3163 
Q 403 3881 828 4315 
Q 1253 4750 1959 4750 
Q 2769 4750 3195 4129 
Q 3622 3509 3622 2328 
Q 3622 1225 3098 567 
Q 2575 -91 1691 -91 
Q 1453 -91 1209 -44 
Q 966 3 703 97 
z
M 1959 2075 
Q 2384 2075 2632 2365 
Q 2881 2656 2881 3163 
Q 2881 3666 2632 3958 
Q 2384 4250 1959 4250 
Q 1534 4250 1286 3958 
Q 1038 3666 1038 3163 
Q 1038 2656 1286 2365 
Q 1534 2075 1959 2075 
z
" id="DejaVuSans-39" transform="scale(0.015625)"/>
       </defs>
       <use xlink:href="#DejaVuSans-39"/>
       <use x="63.623047" xlink:href="#DejaVuSans-68"/>
       <use x="127.001953" xlink:href="#DejaVuSans-3a"/>
       <use x="160.693359" xlink:href="#DejaVuSans-35"/>
       <use x="224.316406" xlink:href="#DejaVuSans-30"/>
       <use x="287.939453" xlink:href="#DejaVuSans-6d"/>
      </g>
     </g>
    </g>
    <g id="xtick_7">
     <g id="line2d_7">
      <g>
       <use style="stroke:#000000;stroke-width:0.8;" x="414.015757" xlink:href="#m7057fe1343" y="288.430125"/>
      </g>
     </g>
     <g id="text_7">
      <!-- 11h:45m -->
      <g transform="translate(391.56732 303.028562)scale(0.1 -0.1)">
       <use xlink:href="#DejaVuSans-31"/>
       <use x="63.623047" xlink:href="#DejaVuSans-31"/>
       <use x="127.246094" xlink:href="#DejaVuSans-68"/>
       <use x="190.625" xlink:href="#DejaVuSans-3a"/>
       <use x="224.316406" xlink:href="#DejaVuSans-34"/>
       <use x="287.939453" xlink:href="#DejaVuSans-35"/>
       <use x="351.5625" xlink:href="#DejaVuSans-6d"/>
      </g>
     </g>
    </g>
    <g id="xtick_8">
     <g id="line2d_8">
      <g>
       <use style="stroke:#000000;stroke-width:0.8;" x="468.719454" xlink:href="#m7057fe1343" y="288.430125"/>
      </g>
     </g>
     <g id="text_8">
      <!-- 13h:40m -->
      <g transform="translate(446.271016 303.028562)scale(0.1 -0.1)">
       <defs>
        <path d="M 2597 2516 
Q 3050 2419 3304 2112 
Q 3559 1806 3559 1356 
Q 3559 666 3084 287 
Q 2609 -91 1734 -91 
Q 1441 -91 1130 -33 
Q 819 25 488 141 
L 488 750 
Q 750 597 1062 519 
Q 1375 441 1716 441 
Q 2309 441 2620 675 
Q 2931 909 2931 1356 
Q 2931 1769 2642 2001 
Q 2353 2234 1838 2234 
L 1294 2234 
L 1294 2753 
L 1863 2753 
Q 2328 2753 2575 2939 
Q 2822 3125 2822 3475 
Q 2822 3834 2567 4026 
Q 2313 4219 1838 4219 
Q 1578 4219 1281 4162 
Q 984 4106 628 3988 
L 628 4550 
Q 988 4650 1302 4700 
Q 1616 4750 1894 4750 
Q 2613 4750 3031 4423 
Q 3450 4097 3450 3541 
Q 3450 3153 3228 2886 
Q 3006 2619 2597 2516 
z
" id="DejaVuSans-33" transform="scale(0.015625)"/>
       </defs>
       <use xlink:href="#DejaVuSans-31"/>
       <use x="63.623047" xlink:href="#DejaVuSans-33"/>
       <use x="127.246094" xlink:href="#DejaVuSans-68"/>
       <use x="190.625" xlink:href="#DejaVuSans-3a"/>
       <use x="224.316406" xlink:href="#DejaVuSans-34"/>
       <use x="287.939453" xlink:href="#DejaVuSans-30"/>
       <use x="351.5625" xlink:href="#DejaVuSans-6d"/>
      </g>
     </g>
    </g>
    <g id="xtick_9">
     <g id="line2d_9">
      <g>
       <use style="stroke:#000000;stroke-width:0.8;" x="523.42315" xlink:href="#m7057fe1343" y="288.430125"/>
      </g>
     </g>
     <g id="text_9">
      <!-- 15h:35m -->
      <g transform="translate(500.974712 303.028562)scale(0.1 -0.1)">
       <use xlink:href="#DejaVuSans-31"/>
       <use x="63.623047" xlink:href="#DejaVuSans-35"/>
       <use x="127.246094" xlink:href="#DejaVuSans-68"/>
       <use x="190.625" xlink:href="#DejaVuSans-3a"/>
       <use x="224.316406" xlink:href="#DejaVuSans-33"/>
       <use x="287.939453" xlink:href="#DejaVuSans-35"/>
       <use x="351.5625" xlink:href="#DejaVuSans-6d"/>
      </g>
     </g>
    </g>
    <g id="xtick_10">
     <g id="line2d_10">
      <g>
       <use style="stroke:#000000;stroke-width:0.8;" x="578.126846" xlink:href="#m7057fe1343" y="288.430125"/>
      </g>
     </g>
     <g id="text_10">
      <!-- 17h:30m -->
      <g transform="translate(555.678409 303.028562)scale(0.1 -0.1)">
       <use xlink:href="#DejaVuSans-31"/>
       <use x="63.623047" xlink:href="#DejaVuSans-37"/>
       <use x="127.246094" xlink:href="#DejaVuSans-68"/>
       <use x="190.625" xlink:href="#DejaVuSans-3a"/>
       <use x="224.316406" xlink:href="#DejaVuSans-33"/>
       <use x="287.939453" xlink:href="#DejaVuSans-30"/>
       <use x="351.5625" xlink:href="#DejaVuSans-6d"/>
      </g>
     </g>
    </g>
    <g id="xtick_11">
     <g id="line2d_11">
      <g>
       <use style="stroke:#000000;stroke-width:0.8;" x="632.830543" xlink:href="#m7057fe1343" y="288.430125"/>
      </g>
     </g>
     <g id="text_11">
      <!-- 19h:25m -->
      <g transform="translate(610.382105 303.028562)scale(0.1 -0.1)">
       <use xlink:href="#DejaVuSans-31"/>
       <use x="63.623047" xlink:href="#DejaVuSans-39"/>
       <use x="127.246094" xlink:href="#DejaVuSans-68"/>
       <use x="190.625" xlink:href="#DejaVuSans-3a"/>
       <use x="224.316406" xlink:href="#DejaVuSans-32"/>
       <use x="287.939453" xlink:href="#DejaVuSans-35"/>
       <use x="351.5625" xlink:href="#DejaVuSans-6d"/>
      </g>
     </g>
    </g>
    <g id="xtick_12">
     <g id="line2d_12">
      <g>
       <use style="stroke:#000000;stroke-width:0.8;" x="687.534239" xlink:href="#m7057fe1343" y="288.430125"/>
      </g>
     </g>
     <g id="text_12">
      <!-- 21h:20m -->
      <g transform="translate(665.085801 303.028562)scale(0.1 -0.1)">
       <use xlink:href="#DejaVuSans-32"/>
       <use x="63.623047" xlink:href="#DejaVuSans-31"/>
       <use x="127.246094" xlink:href="#DejaVuSans-68"/>
       <use x="190.625" xlink:href="#DejaVuSans-3a"/>
       <use x="224.316406" xlink:href="#DejaVuSans-32"/>
       <use x="287.939453" xlink:href="#DejaVuSans-30"/>
       <use x="351.5625" xlink:href="#DejaVuSans-6d"/>
      </g>
     </g>
    </g>
    <g id="text_13">
     <!-- Time (hour:minute) -->
     <g transform="translate(362.041094 316.706687)scale(0.1 -0.1)">
      <defs>
       <path d="M -19 4666 
L 3928 4666 
L 3928 4134 
L 2272 4134 
L 2272 0 
L 1638 0 
L 1638 4134 
L -19 4134 
L -19 4666 
z
" id="DejaVuSans-54" transform="scale(0.015625)"/>
       <path d="M 603 3500 
L 1178 3500 
L 1178 0 
L 603 0 
L 603 3500 
z
M 603 4863 
L 1178 4863 
L 1178 4134 
L 603 4134 
L 603 4863 
z
" id="DejaVuSans-69" transform="scale(0.015625)"/>
       <path d="M 3597 1894 
L 3597 1613 
L 953 1613 
Q 991 1019 1311 708 
Q 1631 397 2203 397 
Q 2534 397 2845 478 
Q 3156 559 3463 722 
L 3463 178 
Q 3153 47 2828 -22 
Q 2503 -91 2169 -91 
Q 1331 -91 842 396 
Q 353 884 353 1716 
Q 353 2575 817 3079 
Q 1281 3584 2069 3584 
Q 2775 3584 3186 3129 
Q 3597 2675 3597 1894 
z
M 3022 2063 
Q 3016 2534 2758 2815 
Q 2500 3097 2075 3097 
Q 1594 3097 1305 2825 
Q 1016 2553 972 2059 
L 3022 2063 
z
" id="DejaVuSans-65" transform="scale(0.015625)"/>
       <path id="DejaVuSans-20" transform="scale(0.015625)"/>
       <path d="M 1984 4856 
Q 1566 4138 1362 3434 
Q 1159 2731 1159 2009 
Q 1159 1288 1364 580 
Q 1569 -128 1984 -844 
L 1484 -844 
Q 1016 -109 783 600 
Q 550 1309 550 2009 
Q 550 2706 781 3412 
Q 1013 4119 1484 4856 
L 1984 4856 
z
" id="DejaVuSans-28" transform="scale(0.015625)"/>
       <path d="M 1959 3097 
Q 1497 3097 1228 2736 
Q 959 2375 959 1747 
Q 959 1119 1226 758 
Q 1494 397 1959 397 
Q 2419 397 2687 759 
Q 2956 1122 2956 1747 
Q 2956 2369 2687 2733 
Q 2419 3097 1959 3097 
z
M 1959 3584 
Q 2709 3584 3137 3096 
Q 3566 2609 3566 1747 
Q 3566 888 3137 398 
Q 2709 -91 1959 -91 
Q 1206 -91 779 398 
Q 353 888 353 1747 
Q 353 2609 779 3096 
Q 1206 3584 1959 3584 
z
" id="DejaVuSans-6f" transform="scale(0.015625)"/>
       <path d="M 544 1381 
L 544 3500 
L 1119 3500 
L 1119 1403 
Q 1119 906 1312 657 
Q 1506 409 1894 409 
Q 2359 409 2629 706 
Q 2900 1003 2900 1516 
L 2900 3500 
L 3475 3500 
L 3475 0 
L 2900 0 
L 2900 538 
Q 2691 219 2414 64 
Q 2138 -91 1772 -91 
Q 1169 -91 856 284 
Q 544 659 544 1381 
z
M 1991 3584 
L 1991 3584 
z
" id="DejaVuSans-75" transform="scale(0.015625)"/>
       <path d="M 2631 2963 
Q 2534 3019 2420 3045 
Q 2306 3072 2169 3072 
Q 1681 3072 1420 2755 
Q 1159 2438 1159 1844 
L 1159 0 
L 581 0 
L 581 3500 
L 1159 3500 
L 1159 2956 
Q 1341 3275 1631 3429 
Q 1922 3584 2338 3584 
Q 2397 3584 2469 3576 
Q 2541 3569 2628 3553 
L 2631 2963 
z
" id="DejaVuSans-72" transform="scale(0.015625)"/>
       <path d="M 3513 2113 
L 3513 0 
L 2938 0 
L 2938 2094 
Q 2938 2591 2744 2837 
Q 2550 3084 2163 3084 
Q 1697 3084 1428 2787 
Q 1159 2491 1159 1978 
L 1159 0 
L 581 0 
L 581 3500 
L 1159 3500 
L 1159 2956 
Q 1366 3272 1645 3428 
Q 1925 3584 2291 3584 
Q 2894 3584 3203 3211 
Q 3513 2838 3513 2113 
z
" id="DejaVuSans-6e" transform="scale(0.015625)"/>
       <path d="M 1172 4494 
L 1172 3500 
L 2356 3500 
L 2356 3053 
L 1172 3053 
L 1172 1153 
Q 1172 725 1289 603 
Q 1406 481 1766 481 
L 2356 481 
L 2356 0 
L 1766 0 
Q 1100 0 847 248 
Q 594 497 594 1153 
L 594 3053 
L 172 3053 
L 172 3500 
L 594 3500 
L 594 4494 
L 1172 4494 
z
" id="DejaVuSans-74" transform="scale(0.015625)"/>
       <path d="M 513 4856 
L 1013 4856 
Q 1481 4119 1714 3412 
Q 1947 2706 1947 2009 
Q 1947 1309 1714 600 
Q 1481 -109 1013 -844 
L 513 -844 
Q 928 -128 1133 580 
Q 1338 1288 1338 2009 
Q 1338 2731 1133 3434 
Q 928 4138 513 4856 
z
" id="DejaVuSans-29" transform="scale(0.015625)"/>
      </defs>
      <use xlink:href="#DejaVuSans-54"/>
      <use x="57.958984" xlink:href="#DejaVuSans-69"/>
      <use x="85.742188" xlink:href="#DejaVuSans-6d"/>
      <use x="183.154297" xlink:href="#DejaVuSans-65"/>
      <use x="244.677734" xlink:href="#DejaVuSans-20"/>
      <use x="276.464844" xlink:href="#DejaVuSans-28"/>
      <use x="315.478516" xlink:href="#DejaVuSans-68"/>
      <use x="378.857422" xlink:href="#DejaVuSans-6f"/>
      <use x="440.039062" xlink:href="#DejaVuSans-75"/>
      <use x="503.417969" xlink:href="#DejaVuSans-72"/>
      <use x="542.78125" xlink:href="#DejaVuSans-3a"/>
      <use x="576.472656" xlink:href="#DejaVuSans-6d"/>
      <use x="673.884766" xlink:href="#DejaVuSans-69"/>
      <use x="701.667969" xlink:href="#DejaVuSans-6e"/>
      <use x="765.046875" xlink:href="#DejaVuSans-75"/>
      <use x="828.425781" xlink:href="#DejaVuSans-74"/>
      <use x="867.634766" xlink:href="#DejaVuSans-65"/>
      <use x="929.158203" xlink:href="#DejaVuSans-29"/>
     </g>
    </g>
   </g>
   <g id="matplotlib.axis_2">
    <g id="ytick_1">
     <g id="line2d_13">
      <defs>
       <path d="M 0 0 
L -3.5 0 
" id="mcb5d93b943" style="stroke:#000000;stroke-width:0.8;"/>
      </defs>
      <g>
       <use style="stroke:#000000;stroke-width:0.8;" x="53.328125" xlink:href="#mcb5d93b943" y="246.67091"/>
      </g>
     </g>
     <g id="text_14">
      <!-- 7000 -->
      <g transform="translate(20.878125 250.470128)scale(0.1 -0.1)">
       <use xlink:href="#DejaVuSans-37"/>
       <use x="63.623047" xlink:href="#DejaVuSans-30"/>
       <use x="127.246094" xlink:href="#DejaVuSans-30"/>
       <use x="190.869141" xlink:href="#DejaVuSans-30"/>
      </g>
     </g>
    </g>
    <g id="ytick_2">
     <g id="line2d_14">
      <g>
       <use style="stroke:#000000;stroke-width:0.8;" x="53.328125" xlink:href="#mcb5d93b943" y="199.586441"/>
      </g>
     </g>
     <g id="text_15">
      <!-- 7500 -->
      <g transform="translate(20.878125 203.38566)scale(0.1 -0.1)">
       <use xlink:href="#DejaVuSans-37"/>
       <use x="63.623047" xlink:href="#DejaVuSans-35"/>
       <use x="127.246094" xlink:href="#DejaVuSans-30"/>
       <use x="190.869141" xlink:href="#DejaVuSans-30"/>
      </g>
     </g>
    </g>
    <g id="ytick_3">
     <g id="line2d_15">
      <g>
       <use style="stroke:#000000;stroke-width:0.8;" x="53.328125" xlink:href="#mcb5d93b943" y="152.501972"/>
      </g>
     </g>
     <g id="text_16">
      <!-- 8000 -->
      <g transform="translate(20.878125 156.301191)scale(0.1 -0.1)">
       <defs>
        <path d="M 2034 2216 
Q 1584 2216 1326 1975 
Q 1069 1734 1069 1313 
Q 1069 891 1326 650 
Q 1584 409 2034 409 
Q 2484 409 2743 651 
Q 3003 894 3003 1313 
Q 3003 1734 2745 1975 
Q 2488 2216 2034 2216 
z
M 1403 2484 
Q 997 2584 770 2862 
Q 544 3141 544 3541 
Q 544 4100 942 4425 
Q 1341 4750 2034 4750 
Q 2731 4750 3128 4425 
Q 3525 4100 3525 3541 
Q 3525 3141 3298 2862 
Q 3072 2584 2669 2484 
Q 3125 2378 3379 2068 
Q 3634 1759 3634 1313 
Q 3634 634 3220 271 
Q 2806 -91 2034 -91 
Q 1263 -91 848 271 
Q 434 634 434 1313 
Q 434 1759 690 2068 
Q 947 2378 1403 2484 
z
M 1172 3481 
Q 1172 3119 1398 2916 
Q 1625 2713 2034 2713 
Q 2441 2713 2670 2916 
Q 2900 3119 2900 3481 
Q 2900 3844 2670 4047 
Q 2441 4250 2034 4250 
Q 1625 4250 1398 4047 
Q 1172 3844 1172 3481 
z
" id="DejaVuSans-38" transform="scale(0.015625)"/>
       </defs>
       <use xlink:href="#DejaVuSans-38"/>
       <use x="63.623047" xlink:href="#DejaVuSans-30"/>
       <use x="127.246094" xlink:href="#DejaVuSans-30"/>
       <use x="190.869141" xlink:href="#DejaVuSans-30"/>
      </g>
     </g>
    </g>
    <g id="ytick_4">
     <g id="line2d_16">
      <g>
       <use style="stroke:#000000;stroke-width:0.8;" x="53.328125" xlink:href="#mcb5d93b943" y="105.417504"/>
      </g>
     </g>
     <g id="text_17">
      <!-- 8500 -->
      <g transform="translate(20.878125 109.216722)scale(0.1 -0.1)">
       <use xlink:href="#DejaVuSans-38"/>
       <use x="63.623047" xlink:href="#DejaVuSans-35"/>
       <use x="127.246094" xlink:href="#DejaVuSans-30"/>
       <use x="190.869141" xlink:href="#DejaVuSans-30"/>
      </g>
     </g>
    </g>
    <g id="ytick_5">
     <g id="line2d_17">
      <g>
       <use style="stroke:#000000;stroke-width:0.8;" x="53.328125" xlink:href="#mcb5d93b943" y="58.333035"/>
      </g>
     </g>
     <g id="text_18">
      <!-- 9000 -->
      <g transform="translate(20.878125 62.132254)scale(0.1 -0.1)">
       <use xlink:href="#DejaVuSans-39"/>
       <use x="63.623047" xlink:href="#DejaVuSans-30"/>
       <use x="127.246094" xlink:href="#DejaVuSans-30"/>
       <use x="190.869141" xlink:href="#DejaVuSans-30"/>
      </g>
     </g>
    </g>
    <g id="text_19">
     <!-- Code region coverage -->
     <g transform="translate(14.798438 210.379594)rotate(-90)scale(0.1 -0.1)">
      <defs>
       <path d="M 4122 4306 
L 4122 3641 
Q 3803 3938 3442 4084 
Q 3081 4231 2675 4231 
Q 1875 4231 1450 3742 
Q 1025 3253 1025 2328 
Q 1025 1406 1450 917 
Q 1875 428 2675 428 
Q 3081 428 3442 575 
Q 3803 722 4122 1019 
L 4122 359 
Q 3791 134 3420 21 
Q 3050 -91 2638 -91 
Q 1578 -91 968 557 
Q 359 1206 359 2328 
Q 359 3453 968 4101 
Q 1578 4750 2638 4750 
Q 3056 4750 3426 4639 
Q 3797 4528 4122 4306 
z
" id="DejaVuSans-43" transform="scale(0.015625)"/>
       <path d="M 2906 2969 
L 2906 4863 
L 3481 4863 
L 3481 0 
L 2906 0 
L 2906 525 
Q 2725 213 2448 61 
Q 2172 -91 1784 -91 
Q 1150 -91 751 415 
Q 353 922 353 1747 
Q 353 2572 751 3078 
Q 1150 3584 1784 3584 
Q 2172 3584 2448 3432 
Q 2725 3281 2906 2969 
z
M 947 1747 
Q 947 1113 1208 752 
Q 1469 391 1925 391 
Q 2381 391 2643 752 
Q 2906 1113 2906 1747 
Q 2906 2381 2643 2742 
Q 2381 3103 1925 3103 
Q 1469 3103 1208 2742 
Q 947 2381 947 1747 
z
" id="DejaVuSans-64" transform="scale(0.015625)"/>
       <path d="M 2906 1791 
Q 2906 2416 2648 2759 
Q 2391 3103 1925 3103 
Q 1463 3103 1205 2759 
Q 947 2416 947 1791 
Q 947 1169 1205 825 
Q 1463 481 1925 481 
Q 2391 481 2648 825 
Q 2906 1169 2906 1791 
z
M 3481 434 
Q 3481 -459 3084 -895 
Q 2688 -1331 1869 -1331 
Q 1566 -1331 1297 -1286 
Q 1028 -1241 775 -1147 
L 775 -588 
Q 1028 -725 1275 -790 
Q 1522 -856 1778 -856 
Q 2344 -856 2625 -561 
Q 2906 -266 2906 331 
L 2906 616 
Q 2728 306 2450 153 
Q 2172 0 1784 0 
Q 1141 0 747 490 
Q 353 981 353 1791 
Q 353 2603 747 3093 
Q 1141 3584 1784 3584 
Q 2172 3584 2450 3431 
Q 2728 3278 2906 2969 
L 2906 3500 
L 3481 3500 
L 3481 434 
z
" id="DejaVuSans-67" transform="scale(0.015625)"/>
       <path d="M 3122 3366 
L 3122 2828 
Q 2878 2963 2633 3030 
Q 2388 3097 2138 3097 
Q 1578 3097 1268 2742 
Q 959 2388 959 1747 
Q 959 1106 1268 751 
Q 1578 397 2138 397 
Q 2388 397 2633 464 
Q 2878 531 3122 666 
L 3122 134 
Q 2881 22 2623 -34 
Q 2366 -91 2075 -91 
Q 1284 -91 818 406 
Q 353 903 353 1747 
Q 353 2603 823 3093 
Q 1294 3584 2113 3584 
Q 2378 3584 2631 3529 
Q 2884 3475 3122 3366 
z
" id="DejaVuSans-63" transform="scale(0.015625)"/>
       <path d="M 191 3500 
L 800 3500 
L 1894 563 
L 2988 3500 
L 3597 3500 
L 2284 0 
L 1503 0 
L 191 3500 
z
" id="DejaVuSans-76" transform="scale(0.015625)"/>
       <path d="M 2194 1759 
Q 1497 1759 1228 1600 
Q 959 1441 959 1056 
Q 959 750 1161 570 
Q 1363 391 1709 391 
Q 2188 391 2477 730 
Q 2766 1069 2766 1631 
L 2766 1759 
L 2194 1759 
z
M 3341 1997 
L 3341 0 
L 2766 0 
L 2766 531 
Q 2569 213 2275 61 
Q 1981 -91 1556 -91 
Q 1019 -91 701 211 
Q 384 513 384 1019 
Q 384 1609 779 1909 
Q 1175 2209 1959 2209 
L 2766 2209 
L 2766 2266 
Q 2766 2663 2505 2880 
Q 2244 3097 1772 3097 
Q 1472 3097 1187 3025 
Q 903 2953 641 2809 
L 641 3341 
Q 956 3463 1253 3523 
Q 1550 3584 1831 3584 
Q 2591 3584 2966 3190 
Q 3341 2797 3341 1997 
z
" id="DejaVuSans-61" transform="scale(0.015625)"/>
      </defs>
      <use xlink:href="#DejaVuSans-43"/>
      <use x="69.824219" xlink:href="#DejaVuSans-6f"/>
      <use x="131.005859" xlink:href="#DejaVuSans-64"/>
      <use x="194.482422" xlink:href="#DejaVuSans-65"/>
      <use x="256.005859" xlink:href="#DejaVuSans-20"/>
      <use x="287.792969" xlink:href="#DejaVuSans-72"/>
      <use x="326.65625" xlink:href="#DejaVuSans-65"/>
      <use x="388.179688" xlink:href="#DejaVuSans-67"/>
      <use x="451.65625" xlink:href="#DejaVuSans-69"/>
      <use x="479.439453" xlink:href="#DejaVuSans-6f"/>
      <use x="540.621094" xlink:href="#DejaVuSans-6e"/>
      <use x="604" xlink:href="#DejaVuSans-20"/>
      <use x="635.787109" xlink:href="#DejaVuSans-63"/>
      <use x="690.767578" xlink:href="#DejaVuSans-6f"/>
      <use x="751.949219" xlink:href="#DejaVuSans-76"/>
      <use x="811.128906" xlink:href="#DejaVuSans-65"/>
      <use x="872.652344" xlink:href="#DejaVuSans-72"/>
      <use x="913.765625" xlink:href="#DejaVuSans-61"/>
      <use x="975.044922" xlink:href="#DejaVuSans-67"/>
      <use x="1038.521484" xlink:href="#DejaVuSans-65"/>
     </g>
    </g>
   </g>
   <g id="line2d_18">
    <path clip-path="url(#p20d7080e72)" d="M 85.79358 262.444207 
L 92.928844 232.87516 
L 100.064109 210.3217 
L 107.199374 201.563989 
L 114.334638 198.079738 
L 121.469903 187.014888 
L 128.605168 167.851509 
L 135.740433 163.048893 
L 142.875697 157.587095 
L 150.010962 144.591782 
L 157.146227 117.800719 
L 164.281492 102.451182 
L 171.416756 101.415324 
L 178.552021 96.471455 
L 185.687286 90.72715 
L 192.822551 89.032109 
L 199.957815 84.93576 
L 207.09308 79.662299 
L 214.228345 78.249765 
L 221.36361 74.577177 
L 228.498874 74.29467 
L 235.634139 74.200501 
L 242.769404 67.232 
L 249.904668 66.149057 
L 257.039933 66.101972 
L 264.175198 66.054888 
L 271.310463 65.395705 
L 278.445727 65.066114 
L 285.580992 64.830692 
L 292.716257 62.853144 
L 299.851522 58.427204 
L 306.986786 57.909275 
L 314.122051 57.909275 
L 321.257316 57.909275 
L 328.392581 57.909275 
L 335.527845 57.203008 
L 342.66311 56.120065 
L 349.798375 56.072981 
L 356.933639 53.577504 
L 364.068904 53.059575 
L 371.204169 51.411618 
L 378.339434 51.270365 
L 385.474698 51.22328 
L 392.609963 51.22328 
L 399.745228 48.58655 
L 406.880493 48.539466 
L 414.015757 48.539466 
L 421.151022 48.539466 
L 428.286287 48.539466 
L 435.421552 48.539466 
L 442.556816 48.492381 
L 449.692081 47.927368 
L 456.827346 47.597776 
L 463.962611 47.550692 
L 471.097875 46.37358 
L 478.23314 46.279411 
L 485.368405 46.185242 
L 492.503669 46.185242 
L 499.638934 45.761482 
L 506.774199 45.761482 
L 513.909464 45.714397 
L 521.044728 45.290637 
L 528.179993 45.102299 
L 535.315258 44.866877 
L 542.450523 44.772708 
L 549.585787 43.972272 
L 556.721052 43.925188 
L 563.856317 43.925188 
L 570.991582 43.783934 
L 578.126846 43.266005 
L 585.262111 43.266005 
L 592.397376 43.266005 
L 599.53264 43.266005 
L 606.667905 43.218921 
L 613.80317 43.030583 
L 620.938435 43.030583 
L 628.073699 43.030583 
L 635.208964 42.889329 
L 642.344229 42.889329 
L 649.479494 42.889329 
L 656.614758 42.418485 
L 663.750023 42.418485 
L 670.885288 42.3714 
L 678.020553 42.088893 
L 685.155817 42.088893 
L 692.291082 42.088893 
L 699.426347 42.088893 
L 706.561612 41.994724 
L 713.696876 41.94764 
L 720.832141 41.94764 
L 727.967406 41.94764 
L 735.10267 41.429711 
" style="fill:none;stroke:#d62728;stroke-linecap:square;stroke-width:1.5;"/>
    <defs>
     <path d="M 0 -3 
L -3 3 
L 3 3 
z
" id="m5eb3679efb" style="stroke:#ffffff;stroke-linejoin:miter;stroke-width:0.75;"/>
    </defs>
    <g clip-path="url(#p20d7080e72)">
     <use style="fill:#d62728;stroke:#ffffff;stroke-linejoin:miter;stroke-width:0.75;" x="85.79358" xlink:href="#m5eb3679efb" y="262.444207"/>
     <use style="fill:#d62728;stroke:#ffffff;stroke-linejoin:miter;stroke-width:0.75;" x="92.928844" xlink:href="#m5eb3679efb" y="232.87516"/>
     <use style="fill:#d62728;stroke:#ffffff;stroke-linejoin:miter;stroke-width:0.75;" x="100.064109" xlink:href="#m5eb3679efb" y="210.3217"/>
     <use style="fill:#d62728;stroke:#ffffff;stroke-linejoin:miter;stroke-width:0.75;" x="107.199374" xlink:href="#m5eb3679efb" y="201.563989"/>
     <use style="fill:#d62728;stroke:#ffffff;stroke-linejoin:miter;stroke-width:0.75;" x="114.334638" xlink:href="#m5eb3679efb" y="198.079738"/>
     <use style="fill:#d62728;stroke:#ffffff;stroke-linejoin:miter;stroke-width:0.75;" x="121.469903" xlink:href="#m5eb3679efb" y="187.014888"/>
     <use style="fill:#d62728;stroke:#ffffff;stroke-linejoin:miter;stroke-width:0.75;" x="128.605168" xlink:href="#m5eb3679efb" y="167.851509"/>
     <use style="fill:#d62728;stroke:#ffffff;stroke-linejoin:miter;stroke-width:0.75;" x="135.740433" xlink:href="#m5eb3679efb" y="163.048893"/>
     <use style="fill:#d62728;stroke:#ffffff;stroke-linejoin:miter;stroke-width:0.75;" x="142.875697" xlink:href="#m5eb3679efb" y="157.587095"/>
     <use style="fill:#d62728;stroke:#ffffff;stroke-linejoin:miter;stroke-width:0.75;" x="150.010962" xlink:href="#m5eb3679efb" y="144.591782"/>
     <use style="fill:#d62728;stroke:#ffffff;stroke-linejoin:miter;stroke-width:0.75;" x="157.146227" xlink:href="#m5eb3679efb" y="117.800719"/>
     <use style="fill:#d62728;stroke:#ffffff;stroke-linejoin:miter;stroke-width:0.75;" x="164.281492" xlink:href="#m5eb3679efb" y="102.451182"/>
     <use style="fill:#d62728;stroke:#ffffff;stroke-linejoin:miter;stroke-width:0.75;" x="171.416756" xlink:href="#m5eb3679efb" y="101.415324"/>
     <use style="fill:#d62728;stroke:#ffffff;stroke-linejoin:miter;stroke-width:0.75;" x="178.552021" xlink:href="#m5eb3679efb" y="96.471455"/>
     <use style="fill:#d62728;stroke:#ffffff;stroke-linejoin:miter;stroke-width:0.75;" x="185.687286" xlink:href="#m5eb3679efb" y="90.72715"/>
     <use style="fill:#d62728;stroke:#ffffff;stroke-linejoin:miter;stroke-width:0.75;" x="192.822551" xlink:href="#m5eb3679efb" y="89.032109"/>
     <use style="fill:#d62728;stroke:#ffffff;stroke-linejoin:miter;stroke-width:0.75;" x="199.957815" xlink:href="#m5eb3679efb" y="84.93576"/>
     <use style="fill:#d62728;stroke:#ffffff;stroke-linejoin:miter;stroke-width:0.75;" x="207.09308" xlink:href="#m5eb3679efb" y="79.662299"/>
     <use style="fill:#d62728;stroke:#ffffff;stroke-linejoin:miter;stroke-width:0.75;" x="214.228345" xlink:href="#m5eb3679efb" y="78.249765"/>
     <use style="fill:#d62728;stroke:#ffffff;stroke-linejoin:miter;stroke-width:0.75;" x="221.36361" xlink:href="#m5eb3679efb" y="74.577177"/>
     <use style="fill:#d62728;stroke:#ffffff;stroke-linejoin:miter;stroke-width:0.75;" x="228.498874" xlink:href="#m5eb3679efb" y="74.29467"/>
     <use style="fill:#d62728;stroke:#ffffff;stroke-linejoin:miter;stroke-width:0.75;" x="235.634139" xlink:href="#m5eb3679efb" y="74.200501"/>
     <use style="fill:#d62728;stroke:#ffffff;stroke-linejoin:miter;stroke-width:0.75;" x="242.769404" xlink:href="#m5eb3679efb" y="67.232"/>
     <use style="fill:#d62728;stroke:#ffffff;stroke-linejoin:miter;stroke-width:0.75;" x="249.904668" xlink:href="#m5eb3679efb" y="66.149057"/>
     <use style="fill:#d62728;stroke:#ffffff;stroke-linejoin:miter;stroke-width:0.75;" x="257.039933" xlink:href="#m5eb3679efb" y="66.101972"/>
     <use style="fill:#d62728;stroke:#ffffff;stroke-linejoin:miter;stroke-width:0.75;" x="264.175198" xlink:href="#m5eb3679efb" y="66.054888"/>
     <use style="fill:#d62728;stroke:#ffffff;stroke-linejoin:miter;stroke-width:0.75;" x="271.310463" xlink:href="#m5eb3679efb" y="65.395705"/>
     <use style="fill:#d62728;stroke:#ffffff;stroke-linejoin:miter;stroke-width:0.75;" x="278.445727" xlink:href="#m5eb3679efb" y="65.066114"/>
     <use style="fill:#d62728;stroke:#ffffff;stroke-linejoin:miter;stroke-width:0.75;" x="285.580992" xlink:href="#m5eb3679efb" y="64.830692"/>
     <use style="fill:#d62728;stroke:#ffffff;stroke-linejoin:miter;stroke-width:0.75;" x="292.716257" xlink:href="#m5eb3679efb" y="62.853144"/>
     <use style="fill:#d62728;stroke:#ffffff;stroke-linejoin:miter;stroke-width:0.75;" x="299.851522" xlink:href="#m5eb3679efb" y="58.427204"/>
     <use style="fill:#d62728;stroke:#ffffff;stroke-linejoin:miter;stroke-width:0.75;" x="306.986786" xlink:href="#m5eb3679efb" y="57.909275"/>
     <use style="fill:#d62728;stroke:#ffffff;stroke-linejoin:miter;stroke-width:0.75;" x="314.122051" xlink:href="#m5eb3679efb" y="57.909275"/>
     <use style="fill:#d62728;stroke:#ffffff;stroke-linejoin:miter;stroke-width:0.75;" x="321.257316" xlink:href="#m5eb3679efb" y="57.909275"/>
     <use style="fill:#d62728;stroke:#ffffff;stroke-linejoin:miter;stroke-width:0.75;" x="328.392581" xlink:href="#m5eb3679efb" y="57.909275"/>
     <use style="fill:#d62728;stroke:#ffffff;stroke-linejoin:miter;stroke-width:0.75;" x="335.527845" xlink:href="#m5eb3679efb" y="57.203008"/>
     <use style="fill:#d62728;stroke:#ffffff;stroke-linejoin:miter;stroke-width:0.75;" x="342.66311" xlink:href="#m5eb3679efb" y="56.120065"/>
     <use style="fill:#d62728;stroke:#ffffff;stroke-linejoin:miter;stroke-width:0.75;" x="349.798375" xlink:href="#m5eb3679efb" y="56.072981"/>
     <use style="fill:#d62728;stroke:#ffffff;stroke-linejoin:miter;stroke-width:0.75;" x="356.933639" xlink:href="#m5eb3679efb" y="53.577504"/>
     <use style="fill:#d62728;stroke:#ffffff;stroke-linejoin:miter;stroke-width:0.75;" x="364.068904" xlink:href="#m5eb3679efb" y="53.059575"/>
     <use style="fill:#d62728;stroke:#ffffff;stroke-linejoin:miter;stroke-width:0.75;" x="371.204169" xlink:href="#m5eb3679efb" y="51.411618"/>
     <use style="fill:#d62728;stroke:#ffffff;stroke-linejoin:miter;stroke-width:0.75;" x="378.339434" xlink:href="#m5eb3679efb" y="51.270365"/>
     <use style="fill:#d62728;stroke:#ffffff;stroke-linejoin:miter;stroke-width:0.75;" x="385.474698" xlink:href="#m5eb3679efb" y="51.22328"/>
     <use style="fill:#d62728;stroke:#ffffff;stroke-linejoin:miter;stroke-width:0.75;" x="392.609963" xlink:href="#m5eb3679efb" y="51.22328"/>
     <use style="fill:#d62728;stroke:#ffffff;stroke-linejoin:miter;stroke-width:0.75;" x="399.745228" xlink:href="#m5eb3679efb" y="48.58655"/>
     <use style="fill:#d62728;stroke:#ffffff;stroke-linejoin:miter;stroke-width:0.75;" x="406.880493" xlink:href="#m5eb3679efb" y="48.539466"/>
     <use style="fill:#d62728;stroke:#ffffff;stroke-linejoin:miter;stroke-width:0.75;" x="414.015757" xlink:href="#m5eb3679efb" y="48.539466"/>
     <use style="fill:#d62728;stroke:#ffffff;stroke-linejoin:miter;stroke-width:0.75;" x="421.151022" xlink:href="#m5eb3679efb" y="48.539466"/>
     <use style="fill:#d62728;stroke:#ffffff;stroke-linejoin:miter;stroke-width:0.75;" x="428.286287" xlink:href="#m5eb3679efb" y="48.539466"/>
     <use style="fill:#d62728;stroke:#ffffff;stroke-linejoin:miter;stroke-width:0.75;" x="435.421552" xlink:href="#m5eb3679efb" y="48.539466"/>
     <use style="fill:#d62728;stroke:#ffffff;stroke-linejoin:miter;stroke-width:0.75;" x="442.556816" xlink:href="#m5eb3679efb" y="48.492381"/>
     <use style="fill:#d62728;stroke:#ffffff;stroke-linejoin:miter;stroke-width:0.75;" x="449.692081" xlink:href="#m5eb3679efb" y="47.927368"/>
     <use style="fill:#d62728;stroke:#ffffff;stroke-linejoin:miter;stroke-width:0.75;" x="456.827346" xlink:href="#m5eb3679efb" y="47.597776"/>
     <use style="fill:#d62728;stroke:#ffffff;stroke-linejoin:miter;stroke-width:0.75;" x="463.962611" xlink:href="#m5eb3679efb" y="47.550692"/>
     <use style="fill:#d62728;stroke:#ffffff;stroke-linejoin:miter;stroke-width:0.75;" x="471.097875" xlink:href="#m5eb3679efb" y="46.37358"/>
     <use style="fill:#d62728;stroke:#ffffff;stroke-linejoin:miter;stroke-width:0.75;" x="478.23314" xlink:href="#m5eb3679efb" y="46.279411"/>
     <use style="fill:#d62728;stroke:#ffffff;stroke-linejoin:miter;stroke-width:0.75;" x="485.368405" xlink:href="#m5eb3679efb" y="46.185242"/>
     <use style="fill:#d62728;stroke:#ffffff;stroke-linejoin:miter;stroke-width:0.75;" x="492.503669" xlink:href="#m5eb3679efb" y="46.185242"/>
     <use style="fill:#d62728;stroke:#ffffff;stroke-linejoin:miter;stroke-width:0.75;" x="499.638934" xlink:href="#m5eb3679efb" y="45.761482"/>
     <use style="fill:#d62728;stroke:#ffffff;stroke-linejoin:miter;stroke-width:0.75;" x="506.774199" xlink:href="#m5eb3679efb" y="45.761482"/>
     <use style="fill:#d62728;stroke:#ffffff;stroke-linejoin:miter;stroke-width:0.75;" x="513.909464" xlink:href="#m5eb3679efb" y="45.714397"/>
     <use style="fill:#d62728;stroke:#ffffff;stroke-linejoin:miter;stroke-width:0.75;" x="521.044728" xlink:href="#m5eb3679efb" y="45.290637"/>
     <use style="fill:#d62728;stroke:#ffffff;stroke-linejoin:miter;stroke-width:0.75;" x="528.179993" xlink:href="#m5eb3679efb" y="45.102299"/>
     <use style="fill:#d62728;stroke:#ffffff;stroke-linejoin:miter;stroke-width:0.75;" x="535.315258" xlink:href="#m5eb3679efb" y="44.866877"/>
     <use style="fill:#d62728;stroke:#ffffff;stroke-linejoin:miter;stroke-width:0.75;" x="542.450523" xlink:href="#m5eb3679efb" y="44.772708"/>
     <use style="fill:#d62728;stroke:#ffffff;stroke-linejoin:miter;stroke-width:0.75;" x="549.585787" xlink:href="#m5eb3679efb" y="43.972272"/>
     <use style="fill:#d62728;stroke:#ffffff;stroke-linejoin:miter;stroke-width:0.75;" x="556.721052" xlink:href="#m5eb3679efb" y="43.925188"/>
     <use style="fill:#d62728;stroke:#ffffff;stroke-linejoin:miter;stroke-width:0.75;" x="563.856317" xlink:href="#m5eb3679efb" y="43.925188"/>
     <use style="fill:#d62728;stroke:#ffffff;stroke-linejoin:miter;stroke-width:0.75;" x="570.991582" xlink:href="#m5eb3679efb" y="43.783934"/>
     <use style="fill:#d62728;stroke:#ffffff;stroke-linejoin:miter;stroke-width:0.75;" x="578.126846" xlink:href="#m5eb3679efb" y="43.266005"/>
     <use style="fill:#d62728;stroke:#ffffff;stroke-linejoin:miter;stroke-width:0.75;" x="585.262111" xlink:href="#m5eb3679efb" y="43.266005"/>
     <use style="fill:#d62728;stroke:#ffffff;stroke-linejoin:miter;stroke-width:0.75;" x="592.397376" xlink:href="#m5eb3679efb" y="43.266005"/>
     <use style="fill:#d62728;stroke:#ffffff;stroke-linejoin:miter;stroke-width:0.75;" x="599.53264" xlink:href="#m5eb3679efb" y="43.266005"/>
     <use style="fill:#d62728;stroke:#ffffff;stroke-linejoin:miter;stroke-width:0.75;" x="606.667905" xlink:href="#m5eb3679efb" y="43.218921"/>
     <use style="fill:#d62728;stroke:#ffffff;stroke-linejoin:miter;stroke-width:0.75;" x="613.80317" xlink:href="#m5eb3679efb" y="43.030583"/>
     <use style="fill:#d62728;stroke:#ffffff;stroke-linejoin:miter;stroke-width:0.75;" x="620.938435" xlink:href="#m5eb3679efb" y="43.030583"/>
     <use style="fill:#d62728;stroke:#ffffff;stroke-linejoin:miter;stroke-width:0.75;" x="628.073699" xlink:href="#m5eb3679efb" y="43.030583"/>
     <use style="fill:#d62728;stroke:#ffffff;stroke-linejoin:miter;stroke-width:0.75;" x="635.208964" xlink:href="#m5eb3679efb" y="42.889329"/>
     <use style="fill:#d62728;stroke:#ffffff;stroke-linejoin:miter;stroke-width:0.75;" x="642.344229" xlink:href="#m5eb3679efb" y="42.889329"/>
     <use style="fill:#d62728;stroke:#ffffff;stroke-linejoin:miter;stroke-width:0.75;" x="649.479494" xlink:href="#m5eb3679efb" y="42.889329"/>
     <use style="fill:#d62728;stroke:#ffffff;stroke-linejoin:miter;stroke-width:0.75;" x="656.614758" xlink:href="#m5eb3679efb" y="42.418485"/>
     <use style="fill:#d62728;stroke:#ffffff;stroke-linejoin:miter;stroke-width:0.75;" x="663.750023" xlink:href="#m5eb3679efb" y="42.418485"/>
     <use style="fill:#d62728;stroke:#ffffff;stroke-linejoin:miter;stroke-width:0.75;" x="670.885288" xlink:href="#m5eb3679efb" y="42.3714"/>
     <use style="fill:#d62728;stroke:#ffffff;stroke-linejoin:miter;stroke-width:0.75;" x="678.020553" xlink:href="#m5eb3679efb" y="42.088893"/>
     <use style="fill:#d62728;stroke:#ffffff;stroke-linejoin:miter;stroke-width:0.75;" x="685.155817" xlink:href="#m5eb3679efb" y="42.088893"/>
     <use style="fill:#d62728;stroke:#ffffff;stroke-linejoin:miter;stroke-width:0.75;" x="692.291082" xlink:href="#m5eb3679efb" y="42.088893"/>
     <use style="fill:#d62728;stroke:#ffffff;stroke-linejoin:miter;stroke-width:0.75;" x="699.426347" xlink:href="#m5eb3679efb" y="42.088893"/>
     <use style="fill:#d62728;stroke:#ffffff;stroke-linejoin:miter;stroke-width:0.75;" x="706.561612" xlink:href="#m5eb3679efb" y="41.994724"/>
     <use style="fill:#d62728;stroke:#ffffff;stroke-linejoin:miter;stroke-width:0.75;" x="713.696876" xlink:href="#m5eb3679efb" y="41.94764"/>
     <use style="fill:#d62728;stroke:#ffffff;stroke-linejoin:miter;stroke-width:0.75;" x="720.832141" xlink:href="#m5eb3679efb" y="41.94764"/>
     <use style="fill:#d62728;stroke:#ffffff;stroke-linejoin:miter;stroke-width:0.75;" x="727.967406" xlink:href="#m5eb3679efb" y="41.94764"/>
     <use style="fill:#d62728;stroke:#ffffff;stroke-linejoin:miter;stroke-width:0.75;" x="735.10267" xlink:href="#m5eb3679efb" y="41.429711"/>
    </g>
   </g>
   <g id="line2d_19">
    <path clip-path="url(#p20d7080e72)" d="M 85.79358 272.944043 
L 92.928844 258.15952 
L 100.064109 248.46012 
L 107.199374 227.884207 
L 114.334638 221.151128 
L 121.469903 200.339793 
L 128.605168 191.582081 
L 135.740433 186.82655 
L 142.875697 166.580229 
L 150.010962 165.12061 
L 157.146227 160.459248 
L 164.281492 157.540011 
L 171.416756 138.188294 
L 178.552021 119.684098 
L 185.687286 118.083226 
L 192.822551 114.222299 
L 199.957815 108.713417 
L 207.09308 106.500447 
L 214.228345 97.507313 
L 221.36361 91.57467 
L 228.498874 90.538812 
L 235.634139 89.926714 
L 242.769404 88.890855 
L 249.904668 87.384152 
L 257.039933 83.099466 
L 264.175198 82.769874 
L 271.310463 81.498594 
L 278.445727 81.498594 
L 285.580992 81.451509 
L 292.716257 80.839411 
L 299.851522 73.87091 
L 306.986786 72.646714 
L 314.122051 71.893362 
L 321.257316 66.431564 
L 328.392581 65.395705 
L 335.527845 62.241046 
L 342.66311 60.59309 
L 349.798375 58.992218 
L 356.933639 58.662626 
L 364.068904 58.191782 
L 371.204169 55.790474 
L 378.339434 54.283771 
L 385.474698 53.294997 
L 392.609963 52.777068 
L 399.745228 52.447476 
L 406.880493 52.259139 
L 414.015757 52.212054 
L 421.151022 51.929547 
L 428.286287 51.176196 
L 435.421552 50.611182 
L 442.556816 48.963226 
L 449.692081 48.774888 
L 456.827346 48.727803 
L 463.962611 48.539466 
L 471.097875 48.539466 
L 478.23314 48.398212 
L 485.368405 48.351128 
L 492.503669 48.16279 
L 499.638934 47.974452 
L 506.774199 47.73903 
L 513.909464 47.268185 
L 521.044728 47.268185 
L 528.179993 47.079847 
L 535.315258 46.750256 
L 542.450523 46.656087 
L 549.585787 46.467749 
L 556.721052 45.714397 
L 563.856317 45.620229 
L 570.991582 45.52606 
L 578.126846 45.52606 
L 585.262111 45.243553 
L 592.397376 44.678539 
L 599.53264 44.066441 
L 606.667905 43.972272 
L 613.80317 43.972272 
L 620.938435 43.972272 
L 628.073699 43.878103 
L 635.208964 43.831019 
L 642.344229 43.783934 
L 649.479494 43.783934 
L 656.614758 43.266005 
L 663.750023 42.183062 
L 670.885288 41.853471 
L 678.020553 41.853471 
L 685.155817 41.618049 
L 692.291082 41.618049 
L 699.426347 41.618049 
L 706.561612 41.570964 
L 713.696876 41.194288 
L 720.832141 41.147204 
L 727.967406 40.864697 
L 735.10267 40.488021 
" style="fill:none;stroke:#98df8a;stroke-linecap:square;stroke-width:1.5;"/>
    <defs>
     <path d="M -0 3 
L 3 -3 
L -3 -3 
z
" id="m617e0cf221" style="stroke:#ffffff;stroke-linejoin:miter;stroke-width:0.75;"/>
    </defs>
    <g clip-path="url(#p20d7080e72)">
     <use style="fill:#98df8a;stroke:#ffffff;stroke-linejoin:miter;stroke-width:0.75;" x="85.79358" xlink:href="#m617e0cf221" y="272.944043"/>
     <use style="fill:#98df8a;stroke:#ffffff;stroke-linejoin:miter;stroke-width:0.75;" x="92.928844" xlink:href="#m617e0cf221" y="258.15952"/>
     <use style="fill:#98df8a;stroke:#ffffff;stroke-linejoin:miter;stroke-width:0.75;" x="100.064109" xlink:href="#m617e0cf221" y="248.46012"/>
     <use style="fill:#98df8a;stroke:#ffffff;stroke-linejoin:miter;stroke-width:0.75;" x="107.199374" xlink:href="#m617e0cf221" y="227.884207"/>
     <use style="fill:#98df8a;stroke:#ffffff;stroke-linejoin:miter;stroke-width:0.75;" x="114.334638" xlink:href="#m617e0cf221" y="221.151128"/>
     <use style="fill:#98df8a;stroke:#ffffff;stroke-linejoin:miter;stroke-width:0.75;" x="121.469903" xlink:href="#m617e0cf221" y="200.339793"/>
     <use style="fill:#98df8a;stroke:#ffffff;stroke-linejoin:miter;stroke-width:0.75;" x="128.605168" xlink:href="#m617e0cf221" y="191.582081"/>
     <use style="fill:#98df8a;stroke:#ffffff;stroke-linejoin:miter;stroke-width:0.75;" x="135.740433" xlink:href="#m617e0cf221" y="186.82655"/>
     <use style="fill:#98df8a;stroke:#ffffff;stroke-linejoin:miter;stroke-width:0.75;" x="142.875697" xlink:href="#m617e0cf221" y="166.580229"/>
     <use style="fill:#98df8a;stroke:#ffffff;stroke-linejoin:miter;stroke-width:0.75;" x="150.010962" xlink:href="#m617e0cf221" y="165.12061"/>
     <use style="fill:#98df8a;stroke:#ffffff;stroke-linejoin:miter;stroke-width:0.75;" x="157.146227" xlink:href="#m617e0cf221" y="160.459248"/>
     <use style="fill:#98df8a;stroke:#ffffff;stroke-linejoin:miter;stroke-width:0.75;" x="164.281492" xlink:href="#m617e0cf221" y="157.540011"/>
     <use style="fill:#98df8a;stroke:#ffffff;stroke-linejoin:miter;stroke-width:0.75;" x="171.416756" xlink:href="#m617e0cf221" y="138.188294"/>
     <use style="fill:#98df8a;stroke:#ffffff;stroke-linejoin:miter;stroke-width:0.75;" x="178.552021" xlink:href="#m617e0cf221" y="119.684098"/>
     <use style="fill:#98df8a;stroke:#ffffff;stroke-linejoin:miter;stroke-width:0.75;" x="185.687286" xlink:href="#m617e0cf221" y="118.083226"/>
     <use style="fill:#98df8a;stroke:#ffffff;stroke-linejoin:miter;stroke-width:0.75;" x="192.822551" xlink:href="#m617e0cf221" y="114.222299"/>
     <use style="fill:#98df8a;stroke:#ffffff;stroke-linejoin:miter;stroke-width:0.75;" x="199.957815" xlink:href="#m617e0cf221" y="108.713417"/>
     <use style="fill:#98df8a;stroke:#ffffff;stroke-linejoin:miter;stroke-width:0.75;" x="207.09308" xlink:href="#m617e0cf221" y="106.500447"/>
     <use style="fill:#98df8a;stroke:#ffffff;stroke-linejoin:miter;stroke-width:0.75;" x="214.228345" xlink:href="#m617e0cf221" y="97.507313"/>
     <use style="fill:#98df8a;stroke:#ffffff;stroke-linejoin:miter;stroke-width:0.75;" x="221.36361" xlink:href="#m617e0cf221" y="91.57467"/>
     <use style="fill:#98df8a;stroke:#ffffff;stroke-linejoin:miter;stroke-width:0.75;" x="228.498874" xlink:href="#m617e0cf221" y="90.538812"/>
     <use style="fill:#98df8a;stroke:#ffffff;stroke-linejoin:miter;stroke-width:0.75;" x="235.634139" xlink:href="#m617e0cf221" y="89.926714"/>
     <use style="fill:#98df8a;stroke:#ffffff;stroke-linejoin:miter;stroke-width:0.75;" x="242.769404" xlink:href="#m617e0cf221" y="88.890855"/>
     <use style="fill:#98df8a;stroke:#ffffff;stroke-linejoin:miter;stroke-width:0.75;" x="249.904668" xlink:href="#m617e0cf221" y="87.384152"/>
     <use style="fill:#98df8a;stroke:#ffffff;stroke-linejoin:miter;stroke-width:0.75;" x="257.039933" xlink:href="#m617e0cf221" y="83.099466"/>
     <use style="fill:#98df8a;stroke:#ffffff;stroke-linejoin:miter;stroke-width:0.75;" x="264.175198" xlink:href="#m617e0cf221" y="82.769874"/>
     <use style="fill:#98df8a;stroke:#ffffff;stroke-linejoin:miter;stroke-width:0.75;" x="271.310463" xlink:href="#m617e0cf221" y="81.498594"/>
     <use style="fill:#98df8a;stroke:#ffffff;stroke-linejoin:miter;stroke-width:0.75;" x="278.445727" xlink:href="#m617e0cf221" y="81.498594"/>
     <use style="fill:#98df8a;stroke:#ffffff;stroke-linejoin:miter;stroke-width:0.75;" x="285.580992" xlink:href="#m617e0cf221" y="81.451509"/>
     <use style="fill:#98df8a;stroke:#ffffff;stroke-linejoin:miter;stroke-width:0.75;" x="292.716257" xlink:href="#m617e0cf221" y="80.839411"/>
     <use style="fill:#98df8a;stroke:#ffffff;stroke-linejoin:miter;stroke-width:0.75;" x="299.851522" xlink:href="#m617e0cf221" y="73.87091"/>
     <use style="fill:#98df8a;stroke:#ffffff;stroke-linejoin:miter;stroke-width:0.75;" x="306.986786" xlink:href="#m617e0cf221" y="72.646714"/>
     <use style="fill:#98df8a;stroke:#ffffff;stroke-linejoin:miter;stroke-width:0.75;" x="314.122051" xlink:href="#m617e0cf221" y="71.893362"/>
     <use style="fill:#98df8a;stroke:#ffffff;stroke-linejoin:miter;stroke-width:0.75;" x="321.257316" xlink:href="#m617e0cf221" y="66.431564"/>
     <use style="fill:#98df8a;stroke:#ffffff;stroke-linejoin:miter;stroke-width:0.75;" x="328.392581" xlink:href="#m617e0cf221" y="65.395705"/>
     <use style="fill:#98df8a;stroke:#ffffff;stroke-linejoin:miter;stroke-width:0.75;" x="335.527845" xlink:href="#m617e0cf221" y="62.241046"/>
     <use style="fill:#98df8a;stroke:#ffffff;stroke-linejoin:miter;stroke-width:0.75;" x="342.66311" xlink:href="#m617e0cf221" y="60.59309"/>
     <use style="fill:#98df8a;stroke:#ffffff;stroke-linejoin:miter;stroke-width:0.75;" x="349.798375" xlink:href="#m617e0cf221" y="58.992218"/>
     <use style="fill:#98df8a;stroke:#ffffff;stroke-linejoin:miter;stroke-width:0.75;" x="356.933639" xlink:href="#m617e0cf221" y="58.662626"/>
     <use style="fill:#98df8a;stroke:#ffffff;stroke-linejoin:miter;stroke-width:0.75;" x="364.068904" xlink:href="#m617e0cf221" y="58.191782"/>
     <use style="fill:#98df8a;stroke:#ffffff;stroke-linejoin:miter;stroke-width:0.75;" x="371.204169" xlink:href="#m617e0cf221" y="55.790474"/>
     <use style="fill:#98df8a;stroke:#ffffff;stroke-linejoin:miter;stroke-width:0.75;" x="378.339434" xlink:href="#m617e0cf221" y="54.283771"/>
     <use style="fill:#98df8a;stroke:#ffffff;stroke-linejoin:miter;stroke-width:0.75;" x="385.474698" xlink:href="#m617e0cf221" y="53.294997"/>
     <use style="fill:#98df8a;stroke:#ffffff;stroke-linejoin:miter;stroke-width:0.75;" x="392.609963" xlink:href="#m617e0cf221" y="52.777068"/>
     <use style="fill:#98df8a;stroke:#ffffff;stroke-linejoin:miter;stroke-width:0.75;" x="399.745228" xlink:href="#m617e0cf221" y="52.447476"/>
     <use style="fill:#98df8a;stroke:#ffffff;stroke-linejoin:miter;stroke-width:0.75;" x="406.880493" xlink:href="#m617e0cf221" y="52.259139"/>
     <use style="fill:#98df8a;stroke:#ffffff;stroke-linejoin:miter;stroke-width:0.75;" x="414.015757" xlink:href="#m617e0cf221" y="52.212054"/>
     <use style="fill:#98df8a;stroke:#ffffff;stroke-linejoin:miter;stroke-width:0.75;" x="421.151022" xlink:href="#m617e0cf221" y="51.929547"/>
     <use style="fill:#98df8a;stroke:#ffffff;stroke-linejoin:miter;stroke-width:0.75;" x="428.286287" xlink:href="#m617e0cf221" y="51.176196"/>
     <use style="fill:#98df8a;stroke:#ffffff;stroke-linejoin:miter;stroke-width:0.75;" x="435.421552" xlink:href="#m617e0cf221" y="50.611182"/>
     <use style="fill:#98df8a;stroke:#ffffff;stroke-linejoin:miter;stroke-width:0.75;" x="442.556816" xlink:href="#m617e0cf221" y="48.963226"/>
     <use style="fill:#98df8a;stroke:#ffffff;stroke-linejoin:miter;stroke-width:0.75;" x="449.692081" xlink:href="#m617e0cf221" y="48.774888"/>
     <use style="fill:#98df8a;stroke:#ffffff;stroke-linejoin:miter;stroke-width:0.75;" x="456.827346" xlink:href="#m617e0cf221" y="48.727803"/>
     <use style="fill:#98df8a;stroke:#ffffff;stroke-linejoin:miter;stroke-width:0.75;" x="463.962611" xlink:href="#m617e0cf221" y="48.539466"/>
     <use style="fill:#98df8a;stroke:#ffffff;stroke-linejoin:miter;stroke-width:0.75;" x="471.097875" xlink:href="#m617e0cf221" y="48.539466"/>
     <use style="fill:#98df8a;stroke:#ffffff;stroke-linejoin:miter;stroke-width:0.75;" x="478.23314" xlink:href="#m617e0cf221" y="48.398212"/>
     <use style="fill:#98df8a;stroke:#ffffff;stroke-linejoin:miter;stroke-width:0.75;" x="485.368405" xlink:href="#m617e0cf221" y="48.351128"/>
     <use style="fill:#98df8a;stroke:#ffffff;stroke-linejoin:miter;stroke-width:0.75;" x="492.503669" xlink:href="#m617e0cf221" y="48.16279"/>
     <use style="fill:#98df8a;stroke:#ffffff;stroke-linejoin:miter;stroke-width:0.75;" x="499.638934" xlink:href="#m617e0cf221" y="47.974452"/>
     <use style="fill:#98df8a;stroke:#ffffff;stroke-linejoin:miter;stroke-width:0.75;" x="506.774199" xlink:href="#m617e0cf221" y="47.73903"/>
     <use style="fill:#98df8a;stroke:#ffffff;stroke-linejoin:miter;stroke-width:0.75;" x="513.909464" xlink:href="#m617e0cf221" y="47.268185"/>
     <use style="fill:#98df8a;stroke:#ffffff;stroke-linejoin:miter;stroke-width:0.75;" x="521.044728" xlink:href="#m617e0cf221" y="47.268185"/>
     <use style="fill:#98df8a;stroke:#ffffff;stroke-linejoin:miter;stroke-width:0.75;" x="528.179993" xlink:href="#m617e0cf221" y="47.079847"/>
     <use style="fill:#98df8a;stroke:#ffffff;stroke-linejoin:miter;stroke-width:0.75;" x="535.315258" xlink:href="#m617e0cf221" y="46.750256"/>
     <use style="fill:#98df8a;stroke:#ffffff;stroke-linejoin:miter;stroke-width:0.75;" x="542.450523" xlink:href="#m617e0cf221" y="46.656087"/>
     <use style="fill:#98df8a;stroke:#ffffff;stroke-linejoin:miter;stroke-width:0.75;" x="549.585787" xlink:href="#m617e0cf221" y="46.467749"/>
     <use style="fill:#98df8a;stroke:#ffffff;stroke-linejoin:miter;stroke-width:0.75;" x="556.721052" xlink:href="#m617e0cf221" y="45.714397"/>
     <use style="fill:#98df8a;stroke:#ffffff;stroke-linejoin:miter;stroke-width:0.75;" x="563.856317" xlink:href="#m617e0cf221" y="45.620229"/>
     <use style="fill:#98df8a;stroke:#ffffff;stroke-linejoin:miter;stroke-width:0.75;" x="570.991582" xlink:href="#m617e0cf221" y="45.52606"/>
     <use style="fill:#98df8a;stroke:#ffffff;stroke-linejoin:miter;stroke-width:0.75;" x="578.126846" xlink:href="#m617e0cf221" y="45.52606"/>
     <use style="fill:#98df8a;stroke:#ffffff;stroke-linejoin:miter;stroke-width:0.75;" x="585.262111" xlink:href="#m617e0cf221" y="45.243553"/>
     <use style="fill:#98df8a;stroke:#ffffff;stroke-linejoin:miter;stroke-width:0.75;" x="592.397376" xlink:href="#m617e0cf221" y="44.678539"/>
     <use style="fill:#98df8a;stroke:#ffffff;stroke-linejoin:miter;stroke-width:0.75;" x="599.53264" xlink:href="#m617e0cf221" y="44.066441"/>
     <use style="fill:#98df8a;stroke:#ffffff;stroke-linejoin:miter;stroke-width:0.75;" x="606.667905" xlink:href="#m617e0cf221" y="43.972272"/>
     <use style="fill:#98df8a;stroke:#ffffff;stroke-linejoin:miter;stroke-width:0.75;" x="613.80317" xlink:href="#m617e0cf221" y="43.972272"/>
     <use style="fill:#98df8a;stroke:#ffffff;stroke-linejoin:miter;stroke-width:0.75;" x="620.938435" xlink:href="#m617e0cf221" y="43.972272"/>
     <use style="fill:#98df8a;stroke:#ffffff;stroke-linejoin:miter;stroke-width:0.75;" x="628.073699" xlink:href="#m617e0cf221" y="43.878103"/>
     <use style="fill:#98df8a;stroke:#ffffff;stroke-linejoin:miter;stroke-width:0.75;" x="635.208964" xlink:href="#m617e0cf221" y="43.831019"/>
     <use style="fill:#98df8a;stroke:#ffffff;stroke-linejoin:miter;stroke-width:0.75;" x="642.344229" xlink:href="#m617e0cf221" y="43.783934"/>
     <use style="fill:#98df8a;stroke:#ffffff;stroke-linejoin:miter;stroke-width:0.75;" x="649.479494" xlink:href="#m617e0cf221" y="43.783934"/>
     <use style="fill:#98df8a;stroke:#ffffff;stroke-linejoin:miter;stroke-width:0.75;" x="656.614758" xlink:href="#m617e0cf221" y="43.266005"/>
     <use style="fill:#98df8a;stroke:#ffffff;stroke-linejoin:miter;stroke-width:0.75;" x="663.750023" xlink:href="#m617e0cf221" y="42.183062"/>
     <use style="fill:#98df8a;stroke:#ffffff;stroke-linejoin:miter;stroke-width:0.75;" x="670.885288" xlink:href="#m617e0cf221" y="41.853471"/>
     <use style="fill:#98df8a;stroke:#ffffff;stroke-linejoin:miter;stroke-width:0.75;" x="678.020553" xlink:href="#m617e0cf221" y="41.853471"/>
     <use style="fill:#98df8a;stroke:#ffffff;stroke-linejoin:miter;stroke-width:0.75;" x="685.155817" xlink:href="#m617e0cf221" y="41.618049"/>
     <use style="fill:#98df8a;stroke:#ffffff;stroke-linejoin:miter;stroke-width:0.75;" x="692.291082" xlink:href="#m617e0cf221" y="41.618049"/>
     <use style="fill:#98df8a;stroke:#ffffff;stroke-linejoin:miter;stroke-width:0.75;" x="699.426347" xlink:href="#m617e0cf221" y="41.618049"/>
     <use style="fill:#98df8a;stroke:#ffffff;stroke-linejoin:miter;stroke-width:0.75;" x="706.561612" xlink:href="#m617e0cf221" y="41.570964"/>
     <use style="fill:#98df8a;stroke:#ffffff;stroke-linejoin:miter;stroke-width:0.75;" x="713.696876" xlink:href="#m617e0cf221" y="41.194288"/>
     <use style="fill:#98df8a;stroke:#ffffff;stroke-linejoin:miter;stroke-width:0.75;" x="720.832141" xlink:href="#m617e0cf221" y="41.147204"/>
     <use style="fill:#98df8a;stroke:#ffffff;stroke-linejoin:miter;stroke-width:0.75;" x="727.967406" xlink:href="#m617e0cf221" y="40.864697"/>
     <use style="fill:#98df8a;stroke:#ffffff;stroke-linejoin:miter;stroke-width:0.75;" x="735.10267" xlink:href="#m617e0cf221" y="40.488021"/>
    </g>
   </g>
   <g id="line2d_20">
    <path clip-path="url(#p20d7080e72)" d="M 85.79358 262.632545 
L 92.928844 249.213471 
L 100.064109 227.413362 
L 107.199374 220.821536 
L 114.334638 217.101863 
L 121.469903 213.193853 
L 128.605168 210.886714 
L 135.740433 207.167041 
L 142.875697 205.283662 
L 150.010962 204.059466 
L 157.146227 203.965297 
L 164.281492 203.776959 
L 171.416756 199.868948 
L 178.552021 196.478866 
L 185.687286 195.301754 
L 192.822551 194.454234 
L 199.957815 193.512545 
L 207.09308 191.017068 
L 214.228345 187.862408 
L 221.36361 187.768239 
L 228.498874 180.046387 
L 235.634139 171.477013 
L 242.769404 171.382844 
L 249.904668 168.604861 
L 257.039933 167.851509 
L 264.175198 167.710256 
L 271.310463 166.533144 
L 278.445727 166.109384 
L 285.580992 166.015215 
L 292.716257 165.826877 
L 299.851522 164.037667 
L 306.986786 163.75516 
L 314.122051 162.436795 
L 321.257316 159.423389 
L 328.392581 159.423389 
L 335.527845 159.423389 
L 342.66311 159.282136 
L 349.798375 158.811291 
L 356.933639 158.575869 
L 364.068904 158.340447 
L 371.204169 158.199193 
L 378.339434 157.634179 
L 385.474698 157.634179 
L 392.609963 157.587095 
L 399.745228 157.257504 
L 406.880493 155.939139 
L 414.015757 155.939139 
L 421.151022 155.327041 
L 428.286287 155.185787 
L 435.421552 155.044534 
L 442.556816 155.044534 
L 449.692081 153.208239 
L 456.827346 153.114071 
L 463.962611 153.114071 
L 471.097875 153.019902 
L 478.23314 152.407803 
L 485.368405 152.407803 
L 492.503669 152.313635 
L 499.638934 152.219466 
L 506.774199 151.701536 
L 513.909464 150.9011 
L 521.044728 150.9011 
L 528.179993 149.111891 
L 535.315258 149.017722 
L 542.450523 149.017722 
L 549.585787 148.593962 
L 556.721052 148.546877 
L 563.856317 148.217286 
L 570.991582 147.463934 
L 578.126846 147.087259 
L 585.262111 147.040174 
L 592.397376 146.145569 
L 599.53264 146.098485 
L 606.667905 144.968457 
L 613.80317 144.968457 
L 620.938435 144.921373 
L 628.073699 144.497613 
L 635.208964 144.497613 
L 642.344229 144.120937 
L 649.479494 143.697177 
L 656.614758 142.708403 
L 663.750023 142.708403 
L 670.885288 142.425896 
L 678.020553 142.190474 
L 685.155817 141.013362 
L 692.291082 138.706223 
L 699.426347 138.470801 
L 706.561612 138.470801 
L 713.696876 138.423716 
L 720.832141 138.094125 
L 727.967406 137.387858 
L 735.10267 137.105351 
" style="fill:none;stroke:#1f77b4;stroke-linecap:square;stroke-width:1.5;"/>
    <defs>
     <path d="M 0 3 
C 0.795609 3 1.55874 2.683901 2.12132 2.12132 
C 2.683901 1.55874 3 0.795609 3 0 
C 3 -0.795609 2.683901 -1.55874 2.12132 -2.12132 
C 1.55874 -2.683901 0.795609 -3 0 -3 
C -0.795609 -3 -1.55874 -2.683901 -2.12132 -2.12132 
C -2.683901 -1.55874 -3 -0.795609 -3 0 
C -3 0.795609 -2.683901 1.55874 -2.12132 2.12132 
C -1.55874 2.683901 -0.795609 3 0 3 
z
" id="m98e7d8a749" style="stroke:#ffffff;stroke-width:0.75;"/>
    </defs>
    <g clip-path="url(#p20d7080e72)">
     <use style="fill:#1f77b4;stroke:#ffffff;stroke-width:0.75;" x="85.79358" xlink:href="#m98e7d8a749" y="262.632545"/>
     <use style="fill:#1f77b4;stroke:#ffffff;stroke-width:0.75;" x="92.928844" xlink:href="#m98e7d8a749" y="249.213471"/>
     <use style="fill:#1f77b4;stroke:#ffffff;stroke-width:0.75;" x="100.064109" xlink:href="#m98e7d8a749" y="227.413362"/>
     <use style="fill:#1f77b4;stroke:#ffffff;stroke-width:0.75;" x="107.199374" xlink:href="#m98e7d8a749" y="220.821536"/>
     <use style="fill:#1f77b4;stroke:#ffffff;stroke-width:0.75;" x="114.334638" xlink:href="#m98e7d8a749" y="217.101863"/>
     <use style="fill:#1f77b4;stroke:#ffffff;stroke-width:0.75;" x="121.469903" xlink:href="#m98e7d8a749" y="213.193853"/>
     <use style="fill:#1f77b4;stroke:#ffffff;stroke-width:0.75;" x="128.605168" xlink:href="#m98e7d8a749" y="210.886714"/>
     <use style="fill:#1f77b4;stroke:#ffffff;stroke-width:0.75;" x="135.740433" xlink:href="#m98e7d8a749" y="207.167041"/>
     <use style="fill:#1f77b4;stroke:#ffffff;stroke-width:0.75;" x="142.875697" xlink:href="#m98e7d8a749" y="205.283662"/>
     <use style="fill:#1f77b4;stroke:#ffffff;stroke-width:0.75;" x="150.010962" xlink:href="#m98e7d8a749" y="204.059466"/>
     <use style="fill:#1f77b4;stroke:#ffffff;stroke-width:0.75;" x="157.146227" xlink:href="#m98e7d8a749" y="203.965297"/>
     <use style="fill:#1f77b4;stroke:#ffffff;stroke-width:0.75;" x="164.281492" xlink:href="#m98e7d8a749" y="203.776959"/>
     <use style="fill:#1f77b4;stroke:#ffffff;stroke-width:0.75;" x="171.416756" xlink:href="#m98e7d8a749" y="199.868948"/>
     <use style="fill:#1f77b4;stroke:#ffffff;stroke-width:0.75;" x="178.552021" xlink:href="#m98e7d8a749" y="196.478866"/>
     <use style="fill:#1f77b4;stroke:#ffffff;stroke-width:0.75;" x="185.687286" xlink:href="#m98e7d8a749" y="195.301754"/>
     <use style="fill:#1f77b4;stroke:#ffffff;stroke-width:0.75;" x="192.822551" xlink:href="#m98e7d8a749" y="194.454234"/>
     <use style="fill:#1f77b4;stroke:#ffffff;stroke-width:0.75;" x="199.957815" xlink:href="#m98e7d8a749" y="193.512545"/>
     <use style="fill:#1f77b4;stroke:#ffffff;stroke-width:0.75;" x="207.09308" xlink:href="#m98e7d8a749" y="191.017068"/>
     <use style="fill:#1f77b4;stroke:#ffffff;stroke-width:0.75;" x="214.228345" xlink:href="#m98e7d8a749" y="187.862408"/>
     <use style="fill:#1f77b4;stroke:#ffffff;stroke-width:0.75;" x="221.36361" xlink:href="#m98e7d8a749" y="187.768239"/>
     <use style="fill:#1f77b4;stroke:#ffffff;stroke-width:0.75;" x="228.498874" xlink:href="#m98e7d8a749" y="180.046387"/>
     <use style="fill:#1f77b4;stroke:#ffffff;stroke-width:0.75;" x="235.634139" xlink:href="#m98e7d8a749" y="171.477013"/>
     <use style="fill:#1f77b4;stroke:#ffffff;stroke-width:0.75;" x="242.769404" xlink:href="#m98e7d8a749" y="171.382844"/>
     <use style="fill:#1f77b4;stroke:#ffffff;stroke-width:0.75;" x="249.904668" xlink:href="#m98e7d8a749" y="168.604861"/>
     <use style="fill:#1f77b4;stroke:#ffffff;stroke-width:0.75;" x="257.039933" xlink:href="#m98e7d8a749" y="167.851509"/>
     <use style="fill:#1f77b4;stroke:#ffffff;stroke-width:0.75;" x="264.175198" xlink:href="#m98e7d8a749" y="167.710256"/>
     <use style="fill:#1f77b4;stroke:#ffffff;stroke-width:0.75;" x="271.310463" xlink:href="#m98e7d8a749" y="166.533144"/>
     <use style="fill:#1f77b4;stroke:#ffffff;stroke-width:0.75;" x="278.445727" xlink:href="#m98e7d8a749" y="166.109384"/>
     <use style="fill:#1f77b4;stroke:#ffffff;stroke-width:0.75;" x="285.580992" xlink:href="#m98e7d8a749" y="166.015215"/>
     <use style="fill:#1f77b4;stroke:#ffffff;stroke-width:0.75;" x="292.716257" xlink:href="#m98e7d8a749" y="165.826877"/>
     <use style="fill:#1f77b4;stroke:#ffffff;stroke-width:0.75;" x="299.851522" xlink:href="#m98e7d8a749" y="164.037667"/>
     <use style="fill:#1f77b4;stroke:#ffffff;stroke-width:0.75;" x="306.986786" xlink:href="#m98e7d8a749" y="163.75516"/>
     <use style="fill:#1f77b4;stroke:#ffffff;stroke-width:0.75;" x="314.122051" xlink:href="#m98e7d8a749" y="162.436795"/>
     <use style="fill:#1f77b4;stroke:#ffffff;stroke-width:0.75;" x="321.257316" xlink:href="#m98e7d8a749" y="159.423389"/>
     <use style="fill:#1f77b4;stroke:#ffffff;stroke-width:0.75;" x="328.392581" xlink:href="#m98e7d8a749" y="159.423389"/>
     <use style="fill:#1f77b4;stroke:#ffffff;stroke-width:0.75;" x="335.527845" xlink:href="#m98e7d8a749" y="159.423389"/>
     <use style="fill:#1f77b4;stroke:#ffffff;stroke-width:0.75;" x="342.66311" xlink:href="#m98e7d8a749" y="159.282136"/>
     <use style="fill:#1f77b4;stroke:#ffffff;stroke-width:0.75;" x="349.798375" xlink:href="#m98e7d8a749" y="158.811291"/>
     <use style="fill:#1f77b4;stroke:#ffffff;stroke-width:0.75;" x="356.933639" xlink:href="#m98e7d8a749" y="158.575869"/>
     <use style="fill:#1f77b4;stroke:#ffffff;stroke-width:0.75;" x="364.068904" xlink:href="#m98e7d8a749" y="158.340447"/>
     <use style="fill:#1f77b4;stroke:#ffffff;stroke-width:0.75;" x="371.204169" xlink:href="#m98e7d8a749" y="158.199193"/>
     <use style="fill:#1f77b4;stroke:#ffffff;stroke-width:0.75;" x="378.339434" xlink:href="#m98e7d8a749" y="157.634179"/>
     <use style="fill:#1f77b4;stroke:#ffffff;stroke-width:0.75;" x="385.474698" xlink:href="#m98e7d8a749" y="157.634179"/>
     <use style="fill:#1f77b4;stroke:#ffffff;stroke-width:0.75;" x="392.609963" xlink:href="#m98e7d8a749" y="157.587095"/>
     <use style="fill:#1f77b4;stroke:#ffffff;stroke-width:0.75;" x="399.745228" xlink:href="#m98e7d8a749" y="157.257504"/>
     <use style="fill:#1f77b4;stroke:#ffffff;stroke-width:0.75;" x="406.880493" xlink:href="#m98e7d8a749" y="155.939139"/>
     <use style="fill:#1f77b4;stroke:#ffffff;stroke-width:0.75;" x="414.015757" xlink:href="#m98e7d8a749" y="155.939139"/>
     <use style="fill:#1f77b4;stroke:#ffffff;stroke-width:0.75;" x="421.151022" xlink:href="#m98e7d8a749" y="155.327041"/>
     <use style="fill:#1f77b4;stroke:#ffffff;stroke-width:0.75;" x="428.286287" xlink:href="#m98e7d8a749" y="155.185787"/>
     <use style="fill:#1f77b4;stroke:#ffffff;stroke-width:0.75;" x="435.421552" xlink:href="#m98e7d8a749" y="155.044534"/>
     <use style="fill:#1f77b4;stroke:#ffffff;stroke-width:0.75;" x="442.556816" xlink:href="#m98e7d8a749" y="155.044534"/>
     <use style="fill:#1f77b4;stroke:#ffffff;stroke-width:0.75;" x="449.692081" xlink:href="#m98e7d8a749" y="153.208239"/>
     <use style="fill:#1f77b4;stroke:#ffffff;stroke-width:0.75;" x="456.827346" xlink:href="#m98e7d8a749" y="153.114071"/>
     <use style="fill:#1f77b4;stroke:#ffffff;stroke-width:0.75;" x="463.962611" xlink:href="#m98e7d8a749" y="153.114071"/>
     <use style="fill:#1f77b4;stroke:#ffffff;stroke-width:0.75;" x="471.097875" xlink:href="#m98e7d8a749" y="153.019902"/>
     <use style="fill:#1f77b4;stroke:#ffffff;stroke-width:0.75;" x="478.23314" xlink:href="#m98e7d8a749" y="152.407803"/>
     <use style="fill:#1f77b4;stroke:#ffffff;stroke-width:0.75;" x="485.368405" xlink:href="#m98e7d8a749" y="152.407803"/>
     <use style="fill:#1f77b4;stroke:#ffffff;stroke-width:0.75;" x="492.503669" xlink:href="#m98e7d8a749" y="152.313635"/>
     <use style="fill:#1f77b4;stroke:#ffffff;stroke-width:0.75;" x="499.638934" xlink:href="#m98e7d8a749" y="152.219466"/>
     <use style="fill:#1f77b4;stroke:#ffffff;stroke-width:0.75;" x="506.774199" xlink:href="#m98e7d8a749" y="151.701536"/>
     <use style="fill:#1f77b4;stroke:#ffffff;stroke-width:0.75;" x="513.909464" xlink:href="#m98e7d8a749" y="150.9011"/>
     <use style="fill:#1f77b4;stroke:#ffffff;stroke-width:0.75;" x="521.044728" xlink:href="#m98e7d8a749" y="150.9011"/>
     <use style="fill:#1f77b4;stroke:#ffffff;stroke-width:0.75;" x="528.179993" xlink:href="#m98e7d8a749" y="149.111891"/>
     <use style="fill:#1f77b4;stroke:#ffffff;stroke-width:0.75;" x="535.315258" xlink:href="#m98e7d8a749" y="149.017722"/>
     <use style="fill:#1f77b4;stroke:#ffffff;stroke-width:0.75;" x="542.450523" xlink:href="#m98e7d8a749" y="149.017722"/>
     <use style="fill:#1f77b4;stroke:#ffffff;stroke-width:0.75;" x="549.585787" xlink:href="#m98e7d8a749" y="148.593962"/>
     <use style="fill:#1f77b4;stroke:#ffffff;stroke-width:0.75;" x="556.721052" xlink:href="#m98e7d8a749" y="148.546877"/>
     <use style="fill:#1f77b4;stroke:#ffffff;stroke-width:0.75;" x="563.856317" xlink:href="#m98e7d8a749" y="148.217286"/>
     <use style="fill:#1f77b4;stroke:#ffffff;stroke-width:0.75;" x="570.991582" xlink:href="#m98e7d8a749" y="147.463934"/>
     <use style="fill:#1f77b4;stroke:#ffffff;stroke-width:0.75;" x="578.126846" xlink:href="#m98e7d8a749" y="147.087259"/>
     <use style="fill:#1f77b4;stroke:#ffffff;stroke-width:0.75;" x="585.262111" xlink:href="#m98e7d8a749" y="147.040174"/>
     <use style="fill:#1f77b4;stroke:#ffffff;stroke-width:0.75;" x="592.397376" xlink:href="#m98e7d8a749" y="146.145569"/>
     <use style="fill:#1f77b4;stroke:#ffffff;stroke-width:0.75;" x="599.53264" xlink:href="#m98e7d8a749" y="146.098485"/>
     <use style="fill:#1f77b4;stroke:#ffffff;stroke-width:0.75;" x="606.667905" xlink:href="#m98e7d8a749" y="144.968457"/>
     <use style="fill:#1f77b4;stroke:#ffffff;stroke-width:0.75;" x="613.80317" xlink:href="#m98e7d8a749" y="144.968457"/>
     <use style="fill:#1f77b4;stroke:#ffffff;stroke-width:0.75;" x="620.938435" xlink:href="#m98e7d8a749" y="144.921373"/>
     <use style="fill:#1f77b4;stroke:#ffffff;stroke-width:0.75;" x="628.073699" xlink:href="#m98e7d8a749" y="144.497613"/>
     <use style="fill:#1f77b4;stroke:#ffffff;stroke-width:0.75;" x="635.208964" xlink:href="#m98e7d8a749" y="144.497613"/>
     <use style="fill:#1f77b4;stroke:#ffffff;stroke-width:0.75;" x="642.344229" xlink:href="#m98e7d8a749" y="144.120937"/>
     <use style="fill:#1f77b4;stroke:#ffffff;stroke-width:0.75;" x="649.479494" xlink:href="#m98e7d8a749" y="143.697177"/>
     <use style="fill:#1f77b4;stroke:#ffffff;stroke-width:0.75;" x="656.614758" xlink:href="#m98e7d8a749" y="142.708403"/>
     <use style="fill:#1f77b4;stroke:#ffffff;stroke-width:0.75;" x="663.750023" xlink:href="#m98e7d8a749" y="142.708403"/>
     <use style="fill:#1f77b4;stroke:#ffffff;stroke-width:0.75;" x="670.885288" xlink:href="#m98e7d8a749" y="142.425896"/>
     <use style="fill:#1f77b4;stroke:#ffffff;stroke-width:0.75;" x="678.020553" xlink:href="#m98e7d8a749" y="142.190474"/>
     <use style="fill:#1f77b4;stroke:#ffffff;stroke-width:0.75;" x="685.155817" xlink:href="#m98e7d8a749" y="141.013362"/>
     <use style="fill:#1f77b4;stroke:#ffffff;stroke-width:0.75;" x="692.291082" xlink:href="#m98e7d8a749" y="138.706223"/>
     <use style="fill:#1f77b4;stroke:#ffffff;stroke-width:0.75;" x="699.426347" xlink:href="#m98e7d8a749" y="138.470801"/>
     <use style="fill:#1f77b4;stroke:#ffffff;stroke-width:0.75;" x="706.561612" xlink:href="#m98e7d8a749" y="138.470801"/>
     <use style="fill:#1f77b4;stroke:#ffffff;stroke-width:0.75;" x="713.696876" xlink:href="#m98e7d8a749" y="138.423716"/>
     <use style="fill:#1f77b4;stroke:#ffffff;stroke-width:0.75;" x="720.832141" xlink:href="#m98e7d8a749" y="138.094125"/>
     <use style="fill:#1f77b4;stroke:#ffffff;stroke-width:0.75;" x="727.967406" xlink:href="#m98e7d8a749" y="137.387858"/>
     <use style="fill:#1f77b4;stroke:#ffffff;stroke-width:0.75;" x="735.10267" xlink:href="#m98e7d8a749" y="137.105351"/>
    </g>
   </g>
   <g id="line2d_21"/>
   <g id="line2d_22"/>
   <g id="line2d_23"/>
   <g id="line2d_24">
    <path clip-path="url(#p20d7080e72)" d="M 735.10267 288.430125 
L 735.10267 22.318125 
" style="fill:none;stroke:#ff0000;stroke-linecap:square;stroke-width:1.5;"/>
   </g>
   <g id="patch_3">
    <path d="M 53.328125 246.67091 
L 53.328125 58.333035 
" style="fill:none;stroke:#000000;stroke-linecap:square;stroke-linejoin:miter;stroke-width:0.8;"/>
   </g>
   <g id="patch_4">
    <path d="M 85.79358 288.430125 
L 687.534239 288.430125 
" style="fill:none;stroke:#000000;stroke-linecap:square;stroke-linejoin:miter;stroke-width:0.8;"/>
   </g>
   <g id="text_20">
    <!-- bloaty_fuzz_target (23h, 20 trials/fuzzer) -->
    <g transform="translate(288.534688 16.318125)scale(0.12 -0.12)">
     <defs>
      <path d="M 3116 1747 
Q 3116 2381 2855 2742 
Q 2594 3103 2138 3103 
Q 1681 3103 1420 2742 
Q 1159 2381 1159 1747 
Q 1159 1113 1420 752 
Q 1681 391 2138 391 
Q 2594 391 2855 752 
Q 3116 1113 3116 1747 
z
M 1159 2969 
Q 1341 3281 1617 3432 
Q 1894 3584 2278 3584 
Q 2916 3584 3314 3078 
Q 3713 2572 3713 1747 
Q 3713 922 3314 415 
Q 2916 -91 2278 -91 
Q 1894 -91 1617 61 
Q 1341 213 1159 525 
L 1159 0 
L 581 0 
L 581 4863 
L 1159 4863 
L 1159 2969 
z
" id="DejaVuSans-62" transform="scale(0.015625)"/>
      <path d="M 603 4863 
L 1178 4863 
L 1178 0 
L 603 0 
L 603 4863 
z
" id="DejaVuSans-6c" transform="scale(0.015625)"/>
      <path d="M 2059 -325 
Q 1816 -950 1584 -1140 
Q 1353 -1331 966 -1331 
L 506 -1331 
L 506 -850 
L 844 -850 
Q 1081 -850 1212 -737 
Q 1344 -625 1503 -206 
L 1606 56 
L 191 3500 
L 800 3500 
L 1894 763 
L 2988 3500 
L 3597 3500 
L 2059 -325 
z
" id="DejaVuSans-79" transform="scale(0.015625)"/>
      <path d="M 3263 -1063 
L 3263 -1509 
L -63 -1509 
L -63 -1063 
L 3263 -1063 
z
" id="DejaVuSans-5f" transform="scale(0.015625)"/>
      <path d="M 2375 4863 
L 2375 4384 
L 1825 4384 
Q 1516 4384 1395 4259 
Q 1275 4134 1275 3809 
L 1275 3500 
L 2222 3500 
L 2222 3053 
L 1275 3053 
L 1275 0 
L 697 0 
L 697 3053 
L 147 3053 
L 147 3500 
L 697 3500 
L 697 3744 
Q 697 4328 969 4595 
Q 1241 4863 1831 4863 
L 2375 4863 
z
" id="DejaVuSans-66" transform="scale(0.015625)"/>
      <path d="M 353 3500 
L 3084 3500 
L 3084 2975 
L 922 459 
L 3084 459 
L 3084 0 
L 275 0 
L 275 525 
L 2438 3041 
L 353 3041 
L 353 3500 
z
" id="DejaVuSans-7a" transform="scale(0.015625)"/>
      <path d="M 750 794 
L 1409 794 
L 1409 256 
L 897 -744 
L 494 -744 
L 750 256 
L 750 794 
z
" id="DejaVuSans-2c" transform="scale(0.015625)"/>
      <path d="M 2834 3397 
L 2834 2853 
Q 2591 2978 2328 3040 
Q 2066 3103 1784 3103 
Q 1356 3103 1142 2972 
Q 928 2841 928 2578 
Q 928 2378 1081 2264 
Q 1234 2150 1697 2047 
L 1894 2003 
Q 2506 1872 2764 1633 
Q 3022 1394 3022 966 
Q 3022 478 2636 193 
Q 2250 -91 1575 -91 
Q 1294 -91 989 -36 
Q 684 19 347 128 
L 347 722 
Q 666 556 975 473 
Q 1284 391 1588 391 
Q 1994 391 2212 530 
Q 2431 669 2431 922 
Q 2431 1156 2273 1281 
Q 2116 1406 1581 1522 
L 1381 1569 
Q 847 1681 609 1914 
Q 372 2147 372 2553 
Q 372 3047 722 3315 
Q 1072 3584 1716 3584 
Q 2034 3584 2315 3537 
Q 2597 3491 2834 3397 
z
" id="DejaVuSans-73" transform="scale(0.015625)"/>
      <path d="M 1625 4666 
L 2156 4666 
L 531 -594 
L 0 -594 
L 1625 4666 
z
" id="DejaVuSans-2f" transform="scale(0.015625)"/>
     </defs>
     <use xlink:href="#DejaVuSans-62"/>
     <use x="63.476562" xlink:href="#DejaVuSans-6c"/>
     <use x="91.259766" xlink:href="#DejaVuSans-6f"/>
     <use x="152.441406" xlink:href="#DejaVuSans-61"/>
     <use x="213.720703" xlink:href="#DejaVuSans-74"/>
     <use x="252.929688" xlink:href="#DejaVuSans-79"/>
     <use x="312.109375" xlink:href="#DejaVuSans-5f"/>
     <use x="362.109375" xlink:href="#DejaVuSans-66"/>
     <use x="397.314453" xlink:href="#DejaVuSans-75"/>
     <use x="460.693359" xlink:href="#DejaVuSans-7a"/>
     <use x="513.183594" xlink:href="#DejaVuSans-7a"/>
     <use x="565.673828" xlink:href="#DejaVuSans-5f"/>
     <use x="615.673828" xlink:href="#DejaVuSans-74"/>
     <use x="654.882812" xlink:href="#DejaVuSans-61"/>
     <use x="716.162109" xlink:href="#DejaVuSans-72"/>
     <use x="755.525391" xlink:href="#DejaVuSans-67"/>
     <use x="819.001953" xlink:href="#DejaVuSans-65"/>
     <use x="880.525391" xlink:href="#DejaVuSans-74"/>
     <use x="919.734375" xlink:href="#DejaVuSans-20"/>
     <use x="951.521484" xlink:href="#DejaVuSans-28"/>
     <use x="990.535156" xlink:href="#DejaVuSans-32"/>
     <use x="1054.158203" xlink:href="#DejaVuSans-33"/>
     <use x="1117.78125" xlink:href="#DejaVuSans-68"/>
     <use x="1181.160156" xlink:href="#DejaVuSans-2c"/>
     <use x="1212.947266" xlink:href="#DejaVuSans-20"/>
     <use x="1244.734375" xlink:href="#DejaVuSans-32"/>
     <use x="1308.357422" xlink:href="#DejaVuSans-30"/>
     <use x="1371.980469" xlink:href="#DejaVuSans-20"/>
     <use x="1403.767578" xlink:href="#DejaVuSans-74"/>
     <use x="1442.976562" xlink:href="#DejaVuSans-72"/>
     <use x="1484.089844" xlink:href="#DejaVuSans-69"/>
     <use x="1511.873047" xlink:href="#DejaVuSans-61"/>
     <use x="1573.152344" xlink:href="#DejaVuSans-6c"/>
     <use x="1600.935547" xlink:href="#DejaVuSans-73"/>
     <use x="1653.035156" xlink:href="#DejaVuSans-2f"/>
     <use x="1686.726562" xlink:href="#DejaVuSans-66"/>
     <use x="1721.931641" xlink:href="#DejaVuSans-75"/>
     <use x="1785.310547" xlink:href="#DejaVuSans-7a"/>
     <use x="1837.800781" xlink:href="#DejaVuSans-7a"/>
     <use x="1890.291016" xlink:href="#DejaVuSans-65"/>
     <use x="1951.814453" xlink:href="#DejaVuSans-72"/>
     <use x="1992.927734" xlink:href="#DejaVuSans-29"/>
    </g>
   </g>
   <g id="legend_1">
    <g id="line2d_25">
     <path d="M 771.568125 30.416562 
L 791.568125 30.416562 
" style="fill:none;stroke:#d62728;stroke-linecap:square;stroke-width:1.5;"/>
    </g>
    <g id="line2d_26">
     <defs>
      <path d="M 0 -3 
L -3 3 
L 3 3 
z
" id="m053fdb6ab5" style="stroke:#d62728;stroke-linejoin:miter;"/>
     </defs>
     <g>
      <use style="fill:#d62728;stroke:#d62728;stroke-linejoin:miter;" x="781.568125" xlink:href="#m053fdb6ab5" y="30.416562"/>
     </g>
    </g>
    <g id="text_21">
     <!-- mopt -->
     <g transform="translate(799.568125 33.916562)scale(0.1 -0.1)">
      <defs>
       <path d="M 1159 525 
L 1159 -1331 
L 581 -1331 
L 581 3500 
L 1159 3500 
L 1159 2969 
Q 1341 3281 1617 3432 
Q 1894 3584 2278 3584 
Q 2916 3584 3314 3078 
Q 3713 2572 3713 1747 
Q 3713 922 3314 415 
Q 2916 -91 2278 -91 
Q 1894 -91 1617 61 
Q 1341 213 1159 525 
z
M 3116 1747 
Q 3116 2381 2855 2742 
Q 2594 3103 2138 3103 
Q 1681 3103 1420 2742 
Q 1159 2381 1159 1747 
Q 1159 1113 1420 752 
Q 1681 391 2138 391 
Q 2594 391 2855 752 
Q 3116 1113 3116 1747 
z
" id="DejaVuSans-70" transform="scale(0.015625)"/>
      </defs>
      <use xlink:href="#DejaVuSans-6d"/>
      <use x="97.412109" xlink:href="#DejaVuSans-6f"/>
      <use x="158.59375" xlink:href="#DejaVuSans-70"/>
      <use x="222.070312" xlink:href="#DejaVuSans-74"/>
     </g>
    </g>
    <g id="line2d_27">
     <path d="M 771.568125 45.094688 
L 791.568125 45.094688 
" style="fill:none;stroke:#98df8a;stroke-linecap:square;stroke-width:1.5;"/>
    </g>
    <g id="line2d_28">
     <defs>
      <path d="M -0 3 
L 3 -3 
L -3 -3 
z
" id="ma3fbcc56af" style="stroke:#98df8a;stroke-linejoin:miter;"/>
     </defs>
     <g>
      <use style="fill:#98df8a;stroke:#98df8a;stroke-linejoin:miter;" x="781.568125" xlink:href="#ma3fbcc56af" y="45.094688"/>
     </g>
    </g>
    <g id="text_22">
     <!-- fafuzz -->
     <g transform="translate(799.568125 48.594688)scale(0.1 -0.1)">
      <use xlink:href="#DejaVuSans-66"/>
      <use x="35.205078" xlink:href="#DejaVuSans-61"/>
      <use x="96.484375" xlink:href="#DejaVuSans-66"/>
      <use x="131.689453" xlink:href="#DejaVuSans-75"/>
      <use x="195.068359" xlink:href="#DejaVuSans-7a"/>
      <use x="247.558594" xlink:href="#DejaVuSans-7a"/>
     </g>
    </g>
    <g id="line2d_29">
     <path d="M 771.568125 59.772812 
L 791.568125 59.772812 
" style="fill:none;stroke:#1f77b4;stroke-linecap:square;stroke-width:1.5;"/>
    </g>
    <g id="line2d_30">
     <defs>
      <path d="M 0 3 
C 0.795609 3 1.55874 2.683901 2.12132 2.12132 
C 2.683901 1.55874 3 0.795609 3 0 
C 3 -0.795609 2.683901 -1.55874 2.12132 -2.12132 
C 1.55874 -2.683901 0.795609 -3 0 -3 
C -0.795609 -3 -1.55874 -2.683901 -2.12132 -2.12132 
C -2.683901 -1.55874 -3 -0.795609 -3 0 
C -3 0.795609 -2.683901 1.55874 -2.12132 2.12132 
C -1.55874 2.683901 -0.795609 3 0 3 
z
" id="m3dcce5f337" style="stroke:#1f77b4;"/>
     </defs>
     <g>
      <use style="fill:#1f77b4;stroke:#1f77b4;" x="781.568125" xlink:href="#m3dcce5f337" y="59.772812"/>
     </g>
    </g>
    <g id="text_23">
     <!-- afl_2_52_b -->
     <g transform="translate(799.568125 63.272812)scale(0.1 -0.1)">
      <use xlink:href="#DejaVuSans-61"/>
      <use x="61.279297" xlink:href="#DejaVuSans-66"/>
      <use x="96.484375" xlink:href="#DejaVuSans-6c"/>
      <use x="124.267578" xlink:href="#DejaVuSans-5f"/>
      <use x="174.267578" xlink:href="#DejaVuSans-32"/>
      <use x="237.890625" xlink:href="#DejaVuSans-5f"/>
      <use x="287.890625" xlink:href="#DejaVuSans-35"/>
      <use x="351.513672" xlink:href="#DejaVuSans-32"/>
      <use x="415.136719" xlink:href="#DejaVuSans-5f"/>
      <use x="465.136719" xlink:href="#DejaVuSans-62"/>
     </g>
    </g>
   </g>
  </g>
 </g>
 <defs>
  <clipPath id="p20d7080e72">
   <rect height="266.112" width="714.24" x="53.328125" y="22.318125"/>
  </clipPath>
 </defs>
</svg>
