<?xml version="1.0" encoding="utf-8" standalone="no"?>
<!DOCTYPE svg PUBLIC "-//W3C//DTD SVG 1.1//EN"
  "http://www.w3.org/Graphics/SVG/1.1/DTD/svg11.dtd">
<svg height="325.986375pt" version="1.1" viewBox="0 0 869.993125 325.986375" width="869.993125pt" xmlns="http://www.w3.org/2000/svg" xmlns:xlink="http://www.w3.org/1999/xlink">
 <metadata>
  <rdf:RDF xmlns:cc="http://creativecommons.org/ns#" xmlns:dc="http://purl.org/dc/elements/1.1/" xmlns:rdf="http://www.w3.org/1999/02/22-rdf-syntax-ns#">
   <cc:Work>
    <dc:type rdf:resource="http://purl.org/dc/dcmitype/StillImage"/>
    <dc:date>2021-12-16T18:41:25.383609</dc:date>
    <dc:format>image/svg+xml</dc:format>
    <dc:creator>
     <cc:Agent>
      <dc:title>Matplotlib v3.4.1, https://matplotlib.org/</dc:title>
     </cc:Agent>
    </dc:creator>
   </cc:Work>
  </rdf:RDF>
 </metadata>
 <defs>
  <style type="text/css">*{stroke-linecap:butt;stroke-linejoin:round;}</style>
 </defs>
 <g id="figure_1">
  <g id="patch_1">
   <path d="M 0 325.986375 
L 869.993125 325.986375 
L 869.993125 0 
L 0 0 
z
" style="fill:#ffffff;"/>
  </g>
  <g id="axes_1">
   <g id="patch_2">
    <path d="M 59.690625 288.430125 
L 773.930625 288.430125 
L 773.930625 22.318125 
L 59.690625 22.318125 
z
" style="fill:#ffffff;"/>
   </g>
   <g id="PolyCollection_1">
    <defs>
     <path d="M 92.15608 -109.235528 
L 92.15608 -81.914748 
L 99.291344 -118.660856 
L 106.426609 -129.285062 
L 113.561874 -141.078906 
L 120.697138 -153.944917 
L 127.832403 -165.153942 
L 134.967668 -166.518519 
L 142.102933 -166.713459 
L 149.238197 -169.735022 
L 156.373462 -173.32922 
L 163.508727 -179.57947 
L 170.643992 -195.20875 
L 177.779256 -196.831621 
L 184.914521 -197.31897 
L 192.049786 -209.210284 
L 199.185051 -215.04385 
L 206.320315 -218.859792 
L 213.45558 -220.516779 
L 220.590845 -219.542081 
L 227.72611 -223.245933 
L 234.861374 -223.928221 
L 241.996639 -230.251573 
L 249.131904 -230.848576 
L 256.267168 -231.433394 
L 263.402433 -232.213152 
L 270.537698 -234.065078 
L 277.672963 -237.184111 
L 284.808227 -238.743628 
L 291.943492 -243.909526 
L 299.078757 -244.494345 
L 306.214022 -246.63868 
L 313.349286 -247.808318 
L 320.484551 -251.997082 
L 327.619816 -252.681807 
L 334.755081 -255.70337 
L 341.890345 -256.190719 
L 349.02561 -256.288189 
L 356.160875 -256.678068 
L 363.296139 -256.970477 
L 370.431404 -257.455389 
L 377.566669 -257.750235 
L 384.701934 -260.18698 
L 391.837198 -261.064208 
L 398.972463 -263.988302 
L 406.107728 -264.085771 
L 413.242993 -264.57312 
L 420.378257 -264.57312 
L 427.513522 -263.988302 
L 434.648787 -264.86553 
L 441.784052 -265.450348 
L 448.919316 -265.645288 
L 456.054581 -266.127763 
L 463.189846 -266.027857 
L 470.325111 -265.937697 
L 477.460375 -266.327576 
L 484.59564 -266.522516 
L 491.730905 -266.522516 
L 498.866169 -266.522516 
L 506.001434 -266.522516 
L 513.136699 -266.619986 
L 520.271964 -267.58981 
L 527.407228 -267.594684 
L 534.542493 -267.692153 
L 541.677758 -268.569381 
L 548.813023 -268.569381 
L 555.948287 -270.226368 
L 563.083552 -271.201065 
L 570.218817 -271.493475 
L 577.354082 -271.493475 
L 584.489346 -271.676231 
L 591.624611 -273.44287 
L 598.759876 -272.858052 
L 605.89514 -272.858052 
L 613.030405 -274.125159 
L 620.16567 -274.612508 
L 627.300935 -274.807447 
L 634.436199 -274.99995 
L 641.571464 -275.197327 
L 648.706729 -275.197327 
L 655.841994 -278.408956 
L 662.977258 -278.21889 
L 670.112523 -278.21889 
L 677.247788 -278.21889 
L 684.383053 -278.31636 
L 691.518317 -275.489736 
L 698.653582 -278.413829 
L 705.788847 -278.413829 
L 712.924112 -278.413829 
L 720.059376 -278.413829 
L 727.194641 -278.413829 
L 734.329906 -278.413829 
L 741.46517 -278.413829 
L 741.46517 -291.57225 
L 741.46517 -291.57225 
L 734.329906 -291.37731 
L 727.194641 -290.987431 
L 720.059376 -290.987431 
L 712.924112 -290.987431 
L 705.788847 -291.57225 
L 698.653582 -291.279841 
L 691.518317 -291.182371 
L 684.383053 -290.402613 
L 677.247788 -290.402613 
L 670.112523 -290.012733 
L 662.977258 -290.012733 
L 655.841994 -289.330445 
L 648.706729 -288.745626 
L 641.571464 -288.745626 
L 634.436199 -288.745626 
L 627.300935 -288.75781 
L 620.16567 -288.745626 
L 613.030405 -287.683206 
L 605.89514 -285.724063 
L 598.759876 -285.626593 
L 591.624611 -285.626593 
L 584.489346 -285.529123 
L 577.354082 -286.796231 
L 570.218817 -285.529123 
L 563.083552 -285.529123 
L 555.948287 -285.529123 
L 548.813023 -285.560801 
L 541.677758 -284.846835 
L 534.542493 -284.846835 
L 527.407228 -284.262016 
L 520.271964 -284.067077 
L 513.136699 -284.262016 
L 506.001434 -284.651895 
L 498.866169 -283.189849 
L 491.730905 -283.189849 
L 484.59564 -281.045513 
L 477.460375 -280.363225 
L 470.325111 -280.070816 
L 463.189846 -279.973346 
L 456.054581 -280.363225 
L 448.919316 -279.593214 
L 441.784052 -279.388527 
L 434.648787 -279.096118 
L 427.513522 -277.829011 
L 420.378257 -276.464434 
L 413.242993 -275.699296 
L 406.107728 -271.890664 
L 398.972463 -271.688414 
L 391.837198 -271.688414 
L 384.701934 -270.713717 
L 377.566669 -270.713717 
L 370.431404 -270.616247 
L 363.296139 -270.421307 
L 356.160875 -270.421307 
L 349.02561 -270.128898 
L 341.890345 -266.327576 
L 334.755081 -263.988302 
L 327.619816 -263.988302 
L 320.484551 -262.428785 
L 313.349286 -262.038906 
L 306.214022 -261.843966 
L 299.078757 -258.140115 
L 291.943492 -256.288189 
L 284.808227 -254.533733 
L 277.672963 -253.559035 
L 270.537698 -250.147592 
L 263.402433 -248.880485 
L 256.267168 -246.151331 
L 249.131904 -244.981694 
L 241.996639 -245.274103 
L 234.861374 -244.591815 
L 227.72611 -242.837359 
L 220.590845 -240.205675 
L 213.45558 -237.115883 
L 206.320315 -236.989172 
L 199.185051 -234.454957 
L 192.049786 -232.992911 
L 184.914521 -232.603032 
L 177.779256 -227.144724 
L 170.643992 -226.949784 
L 163.508727 -223.733281 
L 156.373462 -220.02943 
L 149.238197 -208.235586 
L 142.102933 -205.603902 
L 134.967668 -198.391138 
L 127.832403 -194.589816 
L 120.697138 -189.813797 
L 113.561874 -170.61225 
L 106.426609 -166.615989 
L 99.291344 -138.447222 
L 92.15608 -109.235528 
z
" id="mfd9e99f3da" style="stroke:#1f77b4;stroke-opacity:0.2;"/>
    </defs>
    <g clip-path="url(#p625f7cc877)">
     <use style="fill:#1f77b4;fill-opacity:0.2;stroke:#1f77b4;stroke-opacity:0.2;" x="0" xlink:href="#mfd9e99f3da" y="325.986375"/>
    </g>
   </g>
   <g id="PolyCollection_2">
    <defs>
     <path d="M 92.15608 -67.48922 
L 92.15608 -51.796585 
L 99.291344 -89.517391 
L 106.426609 -105.107683 
L 113.561874 -119.733024 
L 120.697138 -128.895183 
L 127.832403 -134.83353 
L 134.967668 -144.295409 
L 142.102933 -150.436005 
L 149.238197 -154.237327 
L 156.373462 -160.865272 
L 163.508727 -165.153942 
L 170.643992 -166.810928 
L 177.779256 -171.781887 
L 184.914521 -173.536343 
L 192.049786 -178.312363 
L 199.185051 -178.312363 
L 206.320315 -180.359228 
L 213.45558 -186.792234 
L 220.590845 -198.001259 
L 227.72611 -204.434265 
L 234.861374 -205.506432 
L 241.996639 -210.7698 
L 249.131904 -212.329317 
L 256.267168 -212.322007 
L 263.402433 -221.59382 
L 270.537698 -227.924482 
L 277.672963 -228.216891 
L 284.808227 -227.047254 
L 291.943492 -228.70424 
L 299.078757 -230.556166 
L 306.214022 -235.039776 
L 313.349286 -236.014474 
L 320.484551 -236.014474 
L 327.619816 -239.036037 
L 334.755081 -239.425916 
L 341.890345 -239.425916 
L 349.02561 -240.010735 
L 356.160875 -240.205675 
L 363.296139 -240.790493 
L 370.431404 -241.277842 
L 377.566669 -241.375312 
L 384.701934 -244.104466 
L 391.837198 -244.104466 
L 398.972463 -246.93109 
L 406.107728 -248.003257 
L 413.242993 -248.003257 
L 420.378257 -248.003257 
L 427.513522 -248.977955 
L 434.648787 -250.245062 
L 441.784052 -253.559035 
L 448.919316 -255.995779 
L 456.054581 -256.775538 
L 463.189846 -256.970477 
L 470.325111 -257.457826 
L 477.460375 -257.457826 
L 484.59564 -257.652766 
L 491.730905 -257.945175 
L 498.866169 -257.945175 
L 506.001434 -257.945175 
L 513.136699 -258.432524 
L 520.271964 -258.432524 
L 527.407228 -258.529994 
L 534.542493 -258.529994 
L 541.677758 -258.529994 
L 548.813023 -259.309752 
L 555.948287 -261.649027 
L 563.083552 -260.576859 
L 570.218817 -261.746497 
L 577.354082 -261.843966 
L 584.489346 -261.843966 
L 591.624611 -261.941436 
L 598.759876 -265.645288 
L 605.89514 -265.840227 
L 613.030405 -265.937697 
L 620.16567 -267.497214 
L 627.300935 -268.95926 
L 634.436199 -269.739019 
L 641.571464 -271.201065 
L 648.706729 -272.370703 
L 655.841994 -272.370703 
L 662.977258 -272.370703 
L 670.112523 -273.54034 
L 677.247788 -273.54034 
L 684.383053 -274.027689 
L 691.518317 -274.017942 
L 698.653582 -274.709978 
L 705.788847 -274.515038 
L 712.924112 -274.515038 
L 720.059376 -274.709978 
L 727.194641 -274.707541 
L 734.329906 -274.904917 
L 741.46517 -275.489736 
L 741.46517 -280.265755 
L 741.46517 -280.265755 
L 734.329906 -280.168285 
L 727.194641 -280.558165 
L 720.059376 -280.070816 
L 712.924112 -280.070816 
L 705.788847 -279.79059 
L 698.653582 -279.778406 
L 691.518317 -280.558165 
L 684.383053 -280.558165 
L 677.247788 -279.485997 
L 670.112523 -279.485997 
L 662.977258 -279.485997 
L 655.841994 -279.485997 
L 648.706729 -279.388527 
L 641.571464 -279.388527 
L 634.436199 -279.388527 
L 627.300935 -279.388527 
L 620.16567 -279.291057 
L 613.030405 -279.193588 
L 605.89514 -278.803709 
L 598.759876 -277.439132 
L 591.624611 -277.439132 
L 584.489346 -277.244192 
L 577.354082 -276.854313 
L 570.218817 -276.464434 
L 563.083552 -276.269494 
L 555.948287 -276.269494 
L 548.813023 -276.464434 
L 541.677758 -275.879615 
L 534.542493 -275.879615 
L 527.407228 -272.760582 
L 520.271964 -272.663112 
L 513.136699 -272.663112 
L 506.001434 -272.663112 
L 498.866169 -272.565642 
L 491.730905 -271.201065 
L 484.59564 -270.421307 
L 477.460375 -270.323837 
L 470.325111 -270.031428 
L 463.189846 -268.179502 
L 456.054581 -268.179502 
L 448.919316 -268.082032 
L 441.784052 -268.082032 
L 434.648787 -266.425046 
L 427.513522 -266.425046 
L 420.378257 -264.280711 
L 413.242993 -264.280711 
L 406.107728 -264.397675 
L 398.972463 -264.280711 
L 391.837198 -263.023351 
L 384.701934 -262.038906 
L 377.566669 -261.746497 
L 370.431404 -261.843966 
L 363.296139 -261.649027 
L 356.160875 -261.649027 
L 349.02561 -260.771799 
L 341.890345 -260.674329 
L 334.755081 -260.481826 
L 327.619816 -258.140115 
L 320.484551 -258.140115 
L 313.349286 -255.313491 
L 306.214022 -253.071686 
L 299.078757 -251.31723 
L 291.943492 -250.245062 
L 284.808227 -250.050123 
L 277.672963 -247.710848 
L 270.537698 -246.63868 
L 263.402433 -243.032298 
L 256.267168 -242.084405 
L 249.131904 -241.570252 
L 241.996639 -240.693024 
L 234.861374 -235.429655 
L 227.72611 -234.552427 
L 220.590845 -231.248202 
L 213.45558 -226.30892 
L 206.320315 -222.76102 
L 199.185051 -220.809188 
L 192.049786 -218.080034 
L 184.914521 -216.130638 
L 177.779256 -210.282451 
L 170.643992 -208.235586 
L 163.508727 -205.214023 
L 156.373462 -200.535473 
L 149.238197 -199.560775 
L 142.102933 -186.987173 
L 134.967668 -173.750777 
L 127.832403 -153.457568 
L 120.697138 -143.51565 
L 113.561874 -135.725378 
L 106.426609 -124.996392 
L 99.291344 -105.404966 
L 92.15608 -67.48922 
z
" id="m0ce79c1931" style="stroke:#98df8a;stroke-opacity:0.2;"/>
    </defs>
    <g clip-path="url(#p625f7cc877)">
     <use style="fill:#98df8a;fill-opacity:0.2;stroke:#98df8a;stroke-opacity:0.2;" x="0" xlink:href="#m0ce79c1931" y="325.986375"/>
    </g>
   </g>
   <g id="PolyCollection_3">
    <defs>
     <path d="M 92.15608 -89.224982 
L 92.15608 -49.65225 
L 99.291344 -98.582081 
L 106.426609 -109.011348 
L 113.561874 -130.4547 
L 120.697138 -135.718068 
L 127.832403 -140.883966 
L 134.967668 -150.923354 
L 142.102933 -163.594426 
L 149.238197 -171.879357 
L 156.373462 -178.409833 
L 163.508727 -179.38453 
L 170.643992 -181.041517 
L 177.779256 -185.135248 
L 184.914521 -189.521388 
L 192.049786 -189.813797 
L 199.185051 -201.217762 
L 206.320315 -203.751976 
L 213.45558 -204.434265 
L 220.590845 -204.529298 
L 227.72611 -205.993781 
L 234.861374 -208.040646 
L 241.996639 -208.333056 
L 249.131904 -208.333056 
L 256.267168 -217.982564 
L 263.402433 -220.906658 
L 270.537698 -220.906658 
L 277.672963 -223.635812 
L 284.808227 -225.195328 
L 291.943492 -226.559905 
L 299.078757 -230.068817 
L 306.214022 -230.263757 
L 313.349286 -230.263757 
L 320.484551 -231.238455 
L 327.619816 -231.238455 
L 334.755081 -232.895441 
L 341.890345 -232.895441 
L 349.02561 -236.577362 
L 356.160875 -235.039776 
L 363.296139 -239.230977 
L 370.431404 -239.206609 
L 377.566669 -240.108205 
L 384.701934 -241.358255 
L 391.837198 -241.960131 
L 398.972463 -244.104466 
L 406.107728 -243.129768 
L 413.242993 -245.079164 
L 420.378257 -245.079164 
L 427.513522 -245.371573 
L 434.648787 -246.248801 
L 441.784052 -246.248801 
L 448.919316 -245.858922 
L 456.054581 -249.367834 
L 463.189846 -249.562774 
L 470.325111 -251.609639 
L 477.460375 -252.876746 
L 484.59564 -253.656505 
L 491.730905 -253.656505 
L 498.866169 -253.656505 
L 506.001434 -258.724933 
L 513.136699 -261.161678 
L 520.271964 -261.161678 
L 527.407228 -261.843966 
L 534.542493 -261.843966 
L 541.677758 -261.843966 
L 548.813023 -262.038906 
L 555.948287 -262.038906 
L 563.083552 -262.136376 
L 570.218817 -262.133939 
L 577.354082 -262.233845 
L 584.489346 -262.818664 
L 591.624611 -263.111074 
L 598.759876 -262.526255 
L 605.89514 -262.818664 
L 613.030405 -263.403483 
L 620.16567 -263.403483 
L 627.300935 -263.988302 
L 634.436199 -264.378181 
L 641.571464 -264.57312 
L 648.706729 -264.67059 
L 655.841994 -264.86553 
L 662.977258 -265.157939 
L 670.112523 -265.450348 
L 677.247788 -265.450348 
L 684.383053 -266.035167 
L 691.518317 -266.425046 
L 698.653582 -267.107335 
L 705.788847 -267.107335 
L 712.924112 -267.107335 
L 720.059376 -267.107335 
L 727.194641 -268.842297 
L 734.329906 -270.031428 
L 741.46517 -270.031428 
L 741.46517 -277.731541 
L 741.46517 -277.731541 
L 734.329906 -277.439132 
L 727.194641 -277.256376 
L 720.059376 -277.244192 
L 712.924112 -277.244192 
L 705.788847 -277.244192 
L 698.653582 -277.244192 
L 691.518317 -277.146722 
L 684.383053 -277.049252 
L 677.247788 -276.561904 
L 670.112523 -276.561904 
L 662.977258 -276.074555 
L 655.841994 -276.074555 
L 648.706729 -275.099857 
L 641.571464 -275.002387 
L 634.436199 -274.904917 
L 627.300935 -274.807447 
L 620.16567 -274.125159 
L 613.030405 -273.83275 
L 605.89514 -273.83275 
L 598.759876 -273.83275 
L 591.624611 -272.955522 
L 584.489346 -271.396005 
L 577.354082 -269.544079 
L 570.218817 -269.544079 
L 563.083552 -270.031428 
L 555.948287 -268.986065 
L 548.813023 -268.764321 
L 541.677758 -268.764321 
L 534.542493 -268.764321 
L 527.407228 -268.764321 
L 520.271964 -268.881285 
L 513.136699 -267.887093 
L 506.001434 -267.887093 
L 498.866169 -266.522516 
L 491.730905 -265.547818 
L 484.59564 -265.547818 
L 477.460375 -264.962999 
L 470.325111 -263.695892 
L 463.189846 -263.695892 
L 456.054581 -263.695892 
L 448.919316 -263.695892 
L 441.784052 -263.306013 
L 434.648787 -263.306013 
L 427.513522 -261.649027 
L 420.378257 -262.038906 
L 413.242993 -261.356617 
L 406.107728 -261.166551 
L 398.972463 -261.166551 
L 391.837198 -259.894571 
L 384.701934 -258.529994 
L 377.566669 -255.608337 
L 370.431404 -255.216021 
L 363.296139 -254.923612 
L 356.160875 -254.923612 
L 349.02561 -254.826142 
L 341.890345 -253.666252 
L 334.755081 -252.584337 
L 327.619816 -252.681807 
L 320.484551 -252.486867 
L 313.349286 -248.393136 
L 306.214022 -245.079164 
L 299.078757 -245.079164 
L 291.943492 -245.079164 
L 284.808227 -245.079164 
L 277.672963 -243.617117 
L 270.537698 -240.205675 
L 263.402433 -239.718326 
L 256.267168 -238.646158 
L 249.131904 -234.357488 
L 241.996639 -233.675199 
L 234.861374 -232.603032 
L 227.72611 -230.848576 
L 220.590845 -229.483999 
L 213.45558 -227.339663 
L 206.320315 -227.144724 
L 199.185051 -225.975086 
L 192.049786 -223.830751 
L 184.914521 -221.588946 
L 177.779256 -217.397746 
L 170.643992 -216.715457 
L 163.508727 -213.109075 
L 156.373462 -209.892572 
L 149.238197 -207.845707 
L 142.102933 -205.116553 
L 134.967668 -196.154206 
L 127.832403 -192.737891 
L 120.697138 -182.308624 
L 113.561874 -172.756585 
L 106.426609 -146.147335 
L 99.291344 -133.476263 
L 92.15608 -89.224982 
z
" id="m1c800ae662" style="stroke:#d62728;stroke-opacity:0.2;"/>
    </defs>
    <g clip-path="url(#p625f7cc877)">
     <use style="fill:#d62728;fill-opacity:0.2;stroke:#d62728;stroke-opacity:0.2;" x="0" xlink:href="#m1c800ae662" y="325.986375"/>
    </g>
   </g>
   <g id="matplotlib.axis_1">
    <g id="xtick_1">
     <g id="line2d_1">
      <defs>
       <path d="M 0 0 
L 0 3.5 
" id="m4d329202a4" style="stroke:#000000;stroke-width:0.8;"/>
      </defs>
      <g>
       <use style="stroke:#000000;stroke-width:0.8;" x="92.15608" xlink:href="#m4d329202a4" y="288.430125"/>
      </g>
     </g>
     <g id="text_1">
      <!-- 15m -->
      <g transform="translate(80.923267 303.028562)scale(0.1 -0.1)">
       <defs>
        <path d="M 794 531 
L 1825 531 
L 1825 4091 
L 703 3866 
L 703 4441 
L 1819 4666 
L 2450 4666 
L 2450 531 
L 3481 531 
L 3481 0 
L 794 0 
L 794 531 
z
" id="DejaVuSans-31" transform="scale(0.015625)"/>
        <path d="M 691 4666 
L 3169 4666 
L 3169 4134 
L 1269 4134 
L 1269 2991 
Q 1406 3038 1543 3061 
Q 1681 3084 1819 3084 
Q 2600 3084 3056 2656 
Q 3513 2228 3513 1497 
Q 3513 744 3044 326 
Q 2575 -91 1722 -91 
Q 1428 -91 1123 -41 
Q 819 9 494 109 
L 494 744 
Q 775 591 1075 516 
Q 1375 441 1709 441 
Q 2250 441 2565 725 
Q 2881 1009 2881 1497 
Q 2881 1984 2565 2268 
Q 2250 2553 1709 2553 
Q 1456 2553 1204 2497 
Q 953 2441 691 2322 
L 691 4666 
z
" id="DejaVuSans-35" transform="scale(0.015625)"/>
        <path d="M 3328 2828 
Q 3544 3216 3844 3400 
Q 4144 3584 4550 3584 
Q 5097 3584 5394 3201 
Q 5691 2819 5691 2113 
L 5691 0 
L 5113 0 
L 5113 2094 
Q 5113 2597 4934 2840 
Q 4756 3084 4391 3084 
Q 3944 3084 3684 2787 
Q 3425 2491 3425 1978 
L 3425 0 
L 2847 0 
L 2847 2094 
Q 2847 2600 2669 2842 
Q 2491 3084 2119 3084 
Q 1678 3084 1418 2786 
Q 1159 2488 1159 1978 
L 1159 0 
L 581 0 
L 581 3500 
L 1159 3500 
L 1159 2956 
Q 1356 3278 1631 3431 
Q 1906 3584 2284 3584 
Q 2666 3584 2933 3390 
Q 3200 3197 3328 2828 
z
" id="DejaVuSans-6d" transform="scale(0.015625)"/>
       </defs>
       <use xlink:href="#DejaVuSans-31"/>
       <use x="63.623047" xlink:href="#DejaVuSans-35"/>
       <use x="127.246094" xlink:href="#DejaVuSans-6d"/>
      </g>
     </g>
    </g>
    <g id="xtick_2">
     <g id="line2d_2">
      <g>
       <use style="stroke:#000000;stroke-width:0.8;" x="146.859776" xlink:href="#m4d329202a4" y="288.430125"/>
      </g>
     </g>
     <g id="text_2">
      <!-- 2h:10m -->
      <g transform="translate(127.592588 303.028562)scale(0.1 -0.1)">
       <defs>
        <path d="M 1228 531 
L 3431 531 
L 3431 0 
L 469 0 
L 469 531 
Q 828 903 1448 1529 
Q 2069 2156 2228 2338 
Q 2531 2678 2651 2914 
Q 2772 3150 2772 3378 
Q 2772 3750 2511 3984 
Q 2250 4219 1831 4219 
Q 1534 4219 1204 4116 
Q 875 4013 500 3803 
L 500 4441 
Q 881 4594 1212 4672 
Q 1544 4750 1819 4750 
Q 2544 4750 2975 4387 
Q 3406 4025 3406 3419 
Q 3406 3131 3298 2873 
Q 3191 2616 2906 2266 
Q 2828 2175 2409 1742 
Q 1991 1309 1228 531 
z
" id="DejaVuSans-32" transform="scale(0.015625)"/>
        <path d="M 3513 2113 
L 3513 0 
L 2938 0 
L 2938 2094 
Q 2938 2591 2744 2837 
Q 2550 3084 2163 3084 
Q 1697 3084 1428 2787 
Q 1159 2491 1159 1978 
L 1159 0 
L 581 0 
L 581 4863 
L 1159 4863 
L 1159 2956 
Q 1366 3272 1645 3428 
Q 1925 3584 2291 3584 
Q 2894 3584 3203 3211 
Q 3513 2838 3513 2113 
z
" id="DejaVuSans-68" transform="scale(0.015625)"/>
        <path d="M 750 794 
L 1409 794 
L 1409 0 
L 750 0 
L 750 794 
z
M 750 3309 
L 1409 3309 
L 1409 2516 
L 750 2516 
L 750 3309 
z
" id="DejaVuSans-3a" transform="scale(0.015625)"/>
        <path d="M 2034 4250 
Q 1547 4250 1301 3770 
Q 1056 3291 1056 2328 
Q 1056 1369 1301 889 
Q 1547 409 2034 409 
Q 2525 409 2770 889 
Q 3016 1369 3016 2328 
Q 3016 3291 2770 3770 
Q 2525 4250 2034 4250 
z
M 2034 4750 
Q 2819 4750 3233 4129 
Q 3647 3509 3647 2328 
Q 3647 1150 3233 529 
Q 2819 -91 2034 -91 
Q 1250 -91 836 529 
Q 422 1150 422 2328 
Q 422 3509 836 4129 
Q 1250 4750 2034 4750 
z
" id="DejaVuSans-30" transform="scale(0.015625)"/>
       </defs>
       <use xlink:href="#DejaVuSans-32"/>
       <use x="63.623047" xlink:href="#DejaVuSans-68"/>
       <use x="127.001953" xlink:href="#DejaVuSans-3a"/>
       <use x="160.693359" xlink:href="#DejaVuSans-31"/>
       <use x="224.316406" xlink:href="#DejaVuSans-30"/>
       <use x="287.939453" xlink:href="#DejaVuSans-6d"/>
      </g>
     </g>
    </g>
    <g id="xtick_3">
     <g id="line2d_3">
      <g>
       <use style="stroke:#000000;stroke-width:0.8;" x="201.563472" xlink:href="#m4d329202a4" y="288.430125"/>
      </g>
     </g>
     <g id="text_3">
      <!-- 4h:5m -->
      <g transform="translate(185.477535 303.028562)scale(0.1 -0.1)">
       <defs>
        <path d="M 2419 4116 
L 825 1625 
L 2419 1625 
L 2419 4116 
z
M 2253 4666 
L 3047 4666 
L 3047 1625 
L 3713 1625 
L 3713 1100 
L 3047 1100 
L 3047 0 
L 2419 0 
L 2419 1100 
L 313 1100 
L 313 1709 
L 2253 4666 
z
" id="DejaVuSans-34" transform="scale(0.015625)"/>
       </defs>
       <use xlink:href="#DejaVuSans-34"/>
       <use x="63.623047" xlink:href="#DejaVuSans-68"/>
       <use x="127.001953" xlink:href="#DejaVuSans-3a"/>
       <use x="160.693359" xlink:href="#DejaVuSans-35"/>
       <use x="224.316406" xlink:href="#DejaVuSans-6d"/>
      </g>
     </g>
    </g>
    <g id="xtick_4">
     <g id="line2d_4">
      <g>
       <use style="stroke:#000000;stroke-width:0.8;" x="256.267168" xlink:href="#m4d329202a4" y="288.430125"/>
      </g>
     </g>
     <g id="text_4">
      <!-- 6h -->
      <g transform="translate(249.917168 303.028562)scale(0.1 -0.1)">
       <defs>
        <path d="M 2113 2584 
Q 1688 2584 1439 2293 
Q 1191 2003 1191 1497 
Q 1191 994 1439 701 
Q 1688 409 2113 409 
Q 2538 409 2786 701 
Q 3034 994 3034 1497 
Q 3034 2003 2786 2293 
Q 2538 2584 2113 2584 
z
M 3366 4563 
L 3366 3988 
Q 3128 4100 2886 4159 
Q 2644 4219 2406 4219 
Q 1781 4219 1451 3797 
Q 1122 3375 1075 2522 
Q 1259 2794 1537 2939 
Q 1816 3084 2150 3084 
Q 2853 3084 3261 2657 
Q 3669 2231 3669 1497 
Q 3669 778 3244 343 
Q 2819 -91 2113 -91 
Q 1303 -91 875 529 
Q 447 1150 447 2328 
Q 447 3434 972 4092 
Q 1497 4750 2381 4750 
Q 2619 4750 2861 4703 
Q 3103 4656 3366 4563 
z
" id="DejaVuSans-36" transform="scale(0.015625)"/>
       </defs>
       <use xlink:href="#DejaVuSans-36"/>
       <use x="63.623047" xlink:href="#DejaVuSans-68"/>
      </g>
     </g>
    </g>
    <g id="xtick_5">
     <g id="line2d_5">
      <g>
       <use style="stroke:#000000;stroke-width:0.8;" x="310.970865" xlink:href="#m4d329202a4" y="288.430125"/>
      </g>
     </g>
     <g id="text_5">
      <!-- 7h:55m -->
      <g transform="translate(291.703677 303.028562)scale(0.1 -0.1)">
       <defs>
        <path d="M 525 4666 
L 3525 4666 
L 3525 4397 
L 1831 0 
L 1172 0 
L 2766 4134 
L 525 4134 
L 525 4666 
z
" id="DejaVuSans-37" transform="scale(0.015625)"/>
       </defs>
       <use xlink:href="#DejaVuSans-37"/>
       <use x="63.623047" xlink:href="#DejaVuSans-68"/>
       <use x="127.001953" xlink:href="#DejaVuSans-3a"/>
       <use x="160.693359" xlink:href="#DejaVuSans-35"/>
       <use x="224.316406" xlink:href="#DejaVuSans-35"/>
       <use x="287.939453" xlink:href="#DejaVuSans-6d"/>
      </g>
     </g>
    </g>
    <g id="xtick_6">
     <g id="line2d_6">
      <g>
       <use style="stroke:#000000;stroke-width:0.8;" x="365.674561" xlink:href="#m4d329202a4" y="288.430125"/>
      </g>
     </g>
     <g id="text_6">
      <!-- 9h:50m -->
      <g transform="translate(346.407374 303.028562)scale(0.1 -0.1)">
       <defs>
        <path d="M 703 97 
L 703 672 
Q 941 559 1184 500 
Q 1428 441 1663 441 
Q 2288 441 2617 861 
Q 2947 1281 2994 2138 
Q 2813 1869 2534 1725 
Q 2256 1581 1919 1581 
Q 1219 1581 811 2004 
Q 403 2428 403 3163 
Q 403 3881 828 4315 
Q 1253 4750 1959 4750 
Q 2769 4750 3195 4129 
Q 3622 3509 3622 2328 
Q 3622 1225 3098 567 
Q 2575 -91 1691 -91 
Q 1453 -91 1209 -44 
Q 966 3 703 97 
z
M 1959 2075 
Q 2384 2075 2632 2365 
Q 2881 2656 2881 3163 
Q 2881 3666 2632 3958 
Q 2384 4250 1959 4250 
Q 1534 4250 1286 3958 
Q 1038 3666 1038 3163 
Q 1038 2656 1286 2365 
Q 1534 2075 1959 2075 
z
" id="DejaVuSans-39" transform="scale(0.015625)"/>
       </defs>
       <use xlink:href="#DejaVuSans-39"/>
       <use x="63.623047" xlink:href="#DejaVuSans-68"/>
       <use x="127.001953" xlink:href="#DejaVuSans-3a"/>
       <use x="160.693359" xlink:href="#DejaVuSans-35"/>
       <use x="224.316406" xlink:href="#DejaVuSans-30"/>
       <use x="287.939453" xlink:href="#DejaVuSans-6d"/>
      </g>
     </g>
    </g>
    <g id="xtick_7">
     <g id="line2d_7">
      <g>
       <use style="stroke:#000000;stroke-width:0.8;" x="420.378257" xlink:href="#m4d329202a4" y="288.430125"/>
      </g>
     </g>
     <g id="text_7">
      <!-- 11h:45m -->
      <g transform="translate(397.92982 303.028562)scale(0.1 -0.1)">
       <use xlink:href="#DejaVuSans-31"/>
       <use x="63.623047" xlink:href="#DejaVuSans-31"/>
       <use x="127.246094" xlink:href="#DejaVuSans-68"/>
       <use x="190.625" xlink:href="#DejaVuSans-3a"/>
       <use x="224.316406" xlink:href="#DejaVuSans-34"/>
       <use x="287.939453" xlink:href="#DejaVuSans-35"/>
       <use x="351.5625" xlink:href="#DejaVuSans-6d"/>
      </g>
     </g>
    </g>
    <g id="xtick_8">
     <g id="line2d_8">
      <g>
       <use style="stroke:#000000;stroke-width:0.8;" x="475.081954" xlink:href="#m4d329202a4" y="288.430125"/>
      </g>
     </g>
     <g id="text_8">
      <!-- 13h:40m -->
      <g transform="translate(452.633516 303.028562)scale(0.1 -0.1)">
       <defs>
        <path d="M 2597 2516 
Q 3050 2419 3304 2112 
Q 3559 1806 3559 1356 
Q 3559 666 3084 287 
Q 2609 -91 1734 -91 
Q 1441 -91 1130 -33 
Q 819 25 488 141 
L 488 750 
Q 750 597 1062 519 
Q 1375 441 1716 441 
Q 2309 441 2620 675 
Q 2931 909 2931 1356 
Q 2931 1769 2642 2001 
Q 2353 2234 1838 2234 
L 1294 2234 
L 1294 2753 
L 1863 2753 
Q 2328 2753 2575 2939 
Q 2822 3125 2822 3475 
Q 2822 3834 2567 4026 
Q 2313 4219 1838 4219 
Q 1578 4219 1281 4162 
Q 984 4106 628 3988 
L 628 4550 
Q 988 4650 1302 4700 
Q 1616 4750 1894 4750 
Q 2613 4750 3031 4423 
Q 3450 4097 3450 3541 
Q 3450 3153 3228 2886 
Q 3006 2619 2597 2516 
z
" id="DejaVuSans-33" transform="scale(0.015625)"/>
       </defs>
       <use xlink:href="#DejaVuSans-31"/>
       <use x="63.623047" xlink:href="#DejaVuSans-33"/>
       <use x="127.246094" xlink:href="#DejaVuSans-68"/>
       <use x="190.625" xlink:href="#DejaVuSans-3a"/>
       <use x="224.316406" xlink:href="#DejaVuSans-34"/>
       <use x="287.939453" xlink:href="#DejaVuSans-30"/>
       <use x="351.5625" xlink:href="#DejaVuSans-6d"/>
      </g>
     </g>
    </g>
    <g id="xtick_9">
     <g id="line2d_9">
      <g>
       <use style="stroke:#000000;stroke-width:0.8;" x="529.78565" xlink:href="#m4d329202a4" y="288.430125"/>
      </g>
     </g>
     <g id="text_9">
      <!-- 15h:35m -->
      <g transform="translate(507.337212 303.028562)scale(0.1 -0.1)">
       <use xlink:href="#DejaVuSans-31"/>
       <use x="63.623047" xlink:href="#DejaVuSans-35"/>
       <use x="127.246094" xlink:href="#DejaVuSans-68"/>
       <use x="190.625" xlink:href="#DejaVuSans-3a"/>
       <use x="224.316406" xlink:href="#DejaVuSans-33"/>
       <use x="287.939453" xlink:href="#DejaVuSans-35"/>
       <use x="351.5625" xlink:href="#DejaVuSans-6d"/>
      </g>
     </g>
    </g>
    <g id="xtick_10">
     <g id="line2d_10">
      <g>
       <use style="stroke:#000000;stroke-width:0.8;" x="584.489346" xlink:href="#m4d329202a4" y="288.430125"/>
      </g>
     </g>
     <g id="text_10">
      <!-- 17h:30m -->
      <g transform="translate(562.040909 303.028562)scale(0.1 -0.1)">
       <use xlink:href="#DejaVuSans-31"/>
       <use x="63.623047" xlink:href="#DejaVuSans-37"/>
       <use x="127.246094" xlink:href="#DejaVuSans-68"/>
       <use x="190.625" xlink:href="#DejaVuSans-3a"/>
       <use x="224.316406" xlink:href="#DejaVuSans-33"/>
       <use x="287.939453" xlink:href="#DejaVuSans-30"/>
       <use x="351.5625" xlink:href="#DejaVuSans-6d"/>
      </g>
     </g>
    </g>
    <g id="xtick_11">
     <g id="line2d_11">
      <g>
       <use style="stroke:#000000;stroke-width:0.8;" x="639.193043" xlink:href="#m4d329202a4" y="288.430125"/>
      </g>
     </g>
     <g id="text_11">
      <!-- 19h:25m -->
      <g transform="translate(616.744605 303.028562)scale(0.1 -0.1)">
       <use xlink:href="#DejaVuSans-31"/>
       <use x="63.623047" xlink:href="#DejaVuSans-39"/>
       <use x="127.246094" xlink:href="#DejaVuSans-68"/>
       <use x="190.625" xlink:href="#DejaVuSans-3a"/>
       <use x="224.316406" xlink:href="#DejaVuSans-32"/>
       <use x="287.939453" xlink:href="#DejaVuSans-35"/>
       <use x="351.5625" xlink:href="#DejaVuSans-6d"/>
      </g>
     </g>
    </g>
    <g id="xtick_12">
     <g id="line2d_12">
      <g>
       <use style="stroke:#000000;stroke-width:0.8;" x="693.896739" xlink:href="#m4d329202a4" y="288.430125"/>
      </g>
     </g>
     <g id="text_12">
      <!-- 21h:20m -->
      <g transform="translate(671.448301 303.028562)scale(0.1 -0.1)">
       <use xlink:href="#DejaVuSans-32"/>
       <use x="63.623047" xlink:href="#DejaVuSans-31"/>
       <use x="127.246094" xlink:href="#DejaVuSans-68"/>
       <use x="190.625" xlink:href="#DejaVuSans-3a"/>
       <use x="224.316406" xlink:href="#DejaVuSans-32"/>
       <use x="287.939453" xlink:href="#DejaVuSans-30"/>
       <use x="351.5625" xlink:href="#DejaVuSans-6d"/>
      </g>
     </g>
    </g>
    <g id="text_13">
     <!-- Time (hour:minute) -->
     <g transform="translate(368.403594 316.706687)scale(0.1 -0.1)">
      <defs>
       <path d="M -19 4666 
L 3928 4666 
L 3928 4134 
L 2272 4134 
L 2272 0 
L 1638 0 
L 1638 4134 
L -19 4134 
L -19 4666 
z
" id="DejaVuSans-54" transform="scale(0.015625)"/>
       <path d="M 603 3500 
L 1178 3500 
L 1178 0 
L 603 0 
L 603 3500 
z
M 603 4863 
L 1178 4863 
L 1178 4134 
L 603 4134 
L 603 4863 
z
" id="DejaVuSans-69" transform="scale(0.015625)"/>
       <path d="M 3597 1894 
L 3597 1613 
L 953 1613 
Q 991 1019 1311 708 
Q 1631 397 2203 397 
Q 2534 397 2845 478 
Q 3156 559 3463 722 
L 3463 178 
Q 3153 47 2828 -22 
Q 2503 -91 2169 -91 
Q 1331 -91 842 396 
Q 353 884 353 1716 
Q 353 2575 817 3079 
Q 1281 3584 2069 3584 
Q 2775 3584 3186 3129 
Q 3597 2675 3597 1894 
z
M 3022 2063 
Q 3016 2534 2758 2815 
Q 2500 3097 2075 3097 
Q 1594 3097 1305 2825 
Q 1016 2553 972 2059 
L 3022 2063 
z
" id="DejaVuSans-65" transform="scale(0.015625)"/>
       <path id="DejaVuSans-20" transform="scale(0.015625)"/>
       <path d="M 1984 4856 
Q 1566 4138 1362 3434 
Q 1159 2731 1159 2009 
Q 1159 1288 1364 580 
Q 1569 -128 1984 -844 
L 1484 -844 
Q 1016 -109 783 600 
Q 550 1309 550 2009 
Q 550 2706 781 3412 
Q 1013 4119 1484 4856 
L 1984 4856 
z
" id="DejaVuSans-28" transform="scale(0.015625)"/>
       <path d="M 1959 3097 
Q 1497 3097 1228 2736 
Q 959 2375 959 1747 
Q 959 1119 1226 758 
Q 1494 397 1959 397 
Q 2419 397 2687 759 
Q 2956 1122 2956 1747 
Q 2956 2369 2687 2733 
Q 2419 3097 1959 3097 
z
M 1959 3584 
Q 2709 3584 3137 3096 
Q 3566 2609 3566 1747 
Q 3566 888 3137 398 
Q 2709 -91 1959 -91 
Q 1206 -91 779 398 
Q 353 888 353 1747 
Q 353 2609 779 3096 
Q 1206 3584 1959 3584 
z
" id="DejaVuSans-6f" transform="scale(0.015625)"/>
       <path d="M 544 1381 
L 544 3500 
L 1119 3500 
L 1119 1403 
Q 1119 906 1312 657 
Q 1506 409 1894 409 
Q 2359 409 2629 706 
Q 2900 1003 2900 1516 
L 2900 3500 
L 3475 3500 
L 3475 0 
L 2900 0 
L 2900 538 
Q 2691 219 2414 64 
Q 2138 -91 1772 -91 
Q 1169 -91 856 284 
Q 544 659 544 1381 
z
M 1991 3584 
L 1991 3584 
z
" id="DejaVuSans-75" transform="scale(0.015625)"/>
       <path d="M 2631 2963 
Q 2534 3019 2420 3045 
Q 2306 3072 2169 3072 
Q 1681 3072 1420 2755 
Q 1159 2438 1159 1844 
L 1159 0 
L 581 0 
L 581 3500 
L 1159 3500 
L 1159 2956 
Q 1341 3275 1631 3429 
Q 1922 3584 2338 3584 
Q 2397 3584 2469 3576 
Q 2541 3569 2628 3553 
L 2631 2963 
z
" id="DejaVuSans-72" transform="scale(0.015625)"/>
       <path d="M 3513 2113 
L 3513 0 
L 2938 0 
L 2938 2094 
Q 2938 2591 2744 2837 
Q 2550 3084 2163 3084 
Q 1697 3084 1428 2787 
Q 1159 2491 1159 1978 
L 1159 0 
L 581 0 
L 581 3500 
L 1159 3500 
L 1159 2956 
Q 1366 3272 1645 3428 
Q 1925 3584 2291 3584 
Q 2894 3584 3203 3211 
Q 3513 2838 3513 2113 
z
" id="DejaVuSans-6e" transform="scale(0.015625)"/>
       <path d="M 1172 4494 
L 1172 3500 
L 2356 3500 
L 2356 3053 
L 1172 3053 
L 1172 1153 
Q 1172 725 1289 603 
Q 1406 481 1766 481 
L 2356 481 
L 2356 0 
L 1766 0 
Q 1100 0 847 248 
Q 594 497 594 1153 
L 594 3053 
L 172 3053 
L 172 3500 
L 594 3500 
L 594 4494 
L 1172 4494 
z
" id="DejaVuSans-74" transform="scale(0.015625)"/>
       <path d="M 513 4856 
L 1013 4856 
Q 1481 4119 1714 3412 
Q 1947 2706 1947 2009 
Q 1947 1309 1714 600 
Q 1481 -109 1013 -844 
L 513 -844 
Q 928 -128 1133 580 
Q 1338 1288 1338 2009 
Q 1338 2731 1133 3434 
Q 928 4138 513 4856 
z
" id="DejaVuSans-29" transform="scale(0.015625)"/>
      </defs>
      <use xlink:href="#DejaVuSans-54"/>
      <use x="57.958984" xlink:href="#DejaVuSans-69"/>
      <use x="85.742188" xlink:href="#DejaVuSans-6d"/>
      <use x="183.154297" xlink:href="#DejaVuSans-65"/>
      <use x="244.677734" xlink:href="#DejaVuSans-20"/>
      <use x="276.464844" xlink:href="#DejaVuSans-28"/>
      <use x="315.478516" xlink:href="#DejaVuSans-68"/>
      <use x="378.857422" xlink:href="#DejaVuSans-6f"/>
      <use x="440.039062" xlink:href="#DejaVuSans-75"/>
      <use x="503.417969" xlink:href="#DejaVuSans-72"/>
      <use x="542.78125" xlink:href="#DejaVuSans-3a"/>
      <use x="576.472656" xlink:href="#DejaVuSans-6d"/>
      <use x="673.884766" xlink:href="#DejaVuSans-69"/>
      <use x="701.667969" xlink:href="#DejaVuSans-6e"/>
      <use x="765.046875" xlink:href="#DejaVuSans-75"/>
      <use x="828.425781" xlink:href="#DejaVuSans-74"/>
      <use x="867.634766" xlink:href="#DejaVuSans-65"/>
      <use x="929.158203" xlink:href="#DejaVuSans-29"/>
     </g>
    </g>
   </g>
   <g id="matplotlib.axis_2">
    <g id="ytick_1">
     <g id="line2d_13">
      <defs>
       <path d="M 0 0 
L -3.5 0 
" id="m19f5a3a3fd" style="stroke:#000000;stroke-width:0.8;"/>
      </defs>
      <g>
       <use style="stroke:#000000;stroke-width:0.8;" x="59.690625" xlink:href="#m19f5a3a3fd" y="274.09232"/>
      </g>
     </g>
     <g id="text_14">
      <!-- 16400 -->
      <g transform="translate(20.878125 277.891539)scale(0.1 -0.1)">
       <use xlink:href="#DejaVuSans-31"/>
       <use x="63.623047" xlink:href="#DejaVuSans-36"/>
       <use x="127.246094" xlink:href="#DejaVuSans-34"/>
       <use x="190.869141" xlink:href="#DejaVuSans-30"/>
       <use x="254.492188" xlink:href="#DejaVuSans-30"/>
      </g>
     </g>
    </g>
    <g id="ytick_2">
     <g id="line2d_14">
      <g>
       <use style="stroke:#000000;stroke-width:0.8;" x="59.690625" xlink:href="#m19f5a3a3fd" y="235.104407"/>
      </g>
     </g>
     <g id="text_15">
      <!-- 16600 -->
      <g transform="translate(20.878125 238.903626)scale(0.1 -0.1)">
       <use xlink:href="#DejaVuSans-31"/>
       <use x="63.623047" xlink:href="#DejaVuSans-36"/>
       <use x="127.246094" xlink:href="#DejaVuSans-36"/>
       <use x="190.869141" xlink:href="#DejaVuSans-30"/>
       <use x="254.492188" xlink:href="#DejaVuSans-30"/>
      </g>
     </g>
    </g>
    <g id="ytick_3">
     <g id="line2d_15">
      <g>
       <use style="stroke:#000000;stroke-width:0.8;" x="59.690625" xlink:href="#m19f5a3a3fd" y="196.116494"/>
      </g>
     </g>
     <g id="text_16">
      <!-- 16800 -->
      <g transform="translate(20.878125 199.915713)scale(0.1 -0.1)">
       <defs>
        <path d="M 2034 2216 
Q 1584 2216 1326 1975 
Q 1069 1734 1069 1313 
Q 1069 891 1326 650 
Q 1584 409 2034 409 
Q 2484 409 2743 651 
Q 3003 894 3003 1313 
Q 3003 1734 2745 1975 
Q 2488 2216 2034 2216 
z
M 1403 2484 
Q 997 2584 770 2862 
Q 544 3141 544 3541 
Q 544 4100 942 4425 
Q 1341 4750 2034 4750 
Q 2731 4750 3128 4425 
Q 3525 4100 3525 3541 
Q 3525 3141 3298 2862 
Q 3072 2584 2669 2484 
Q 3125 2378 3379 2068 
Q 3634 1759 3634 1313 
Q 3634 634 3220 271 
Q 2806 -91 2034 -91 
Q 1263 -91 848 271 
Q 434 634 434 1313 
Q 434 1759 690 2068 
Q 947 2378 1403 2484 
z
M 1172 3481 
Q 1172 3119 1398 2916 
Q 1625 2713 2034 2713 
Q 2441 2713 2670 2916 
Q 2900 3119 2900 3481 
Q 2900 3844 2670 4047 
Q 2441 4250 2034 4250 
Q 1625 4250 1398 4047 
Q 1172 3844 1172 3481 
z
" id="DejaVuSans-38" transform="scale(0.015625)"/>
       </defs>
       <use xlink:href="#DejaVuSans-31"/>
       <use x="63.623047" xlink:href="#DejaVuSans-36"/>
       <use x="127.246094" xlink:href="#DejaVuSans-38"/>
       <use x="190.869141" xlink:href="#DejaVuSans-30"/>
       <use x="254.492188" xlink:href="#DejaVuSans-30"/>
      </g>
     </g>
    </g>
    <g id="ytick_4">
     <g id="line2d_16">
      <g>
       <use style="stroke:#000000;stroke-width:0.8;" x="59.690625" xlink:href="#m19f5a3a3fd" y="157.128581"/>
      </g>
     </g>
     <g id="text_17">
      <!-- 17000 -->
      <g transform="translate(20.878125 160.9278)scale(0.1 -0.1)">
       <use xlink:href="#DejaVuSans-31"/>
       <use x="63.623047" xlink:href="#DejaVuSans-37"/>
       <use x="127.246094" xlink:href="#DejaVuSans-30"/>
       <use x="190.869141" xlink:href="#DejaVuSans-30"/>
       <use x="254.492188" xlink:href="#DejaVuSans-30"/>
      </g>
     </g>
    </g>
    <g id="ytick_5">
     <g id="line2d_17">
      <g>
       <use style="stroke:#000000;stroke-width:0.8;" x="59.690625" xlink:href="#m19f5a3a3fd" y="118.140668"/>
      </g>
     </g>
     <g id="text_18">
      <!-- 17200 -->
      <g transform="translate(20.878125 121.939887)scale(0.1 -0.1)">
       <use xlink:href="#DejaVuSans-31"/>
       <use x="63.623047" xlink:href="#DejaVuSans-37"/>
       <use x="127.246094" xlink:href="#DejaVuSans-32"/>
       <use x="190.869141" xlink:href="#DejaVuSans-30"/>
       <use x="254.492188" xlink:href="#DejaVuSans-30"/>
      </g>
     </g>
    </g>
    <g id="ytick_6">
     <g id="line2d_18">
      <g>
       <use style="stroke:#000000;stroke-width:0.8;" x="59.690625" xlink:href="#m19f5a3a3fd" y="79.152755"/>
      </g>
     </g>
     <g id="text_19">
      <!-- 17400 -->
      <g transform="translate(20.878125 82.951974)scale(0.1 -0.1)">
       <use xlink:href="#DejaVuSans-31"/>
       <use x="63.623047" xlink:href="#DejaVuSans-37"/>
       <use x="127.246094" xlink:href="#DejaVuSans-34"/>
       <use x="190.869141" xlink:href="#DejaVuSans-30"/>
       <use x="254.492188" xlink:href="#DejaVuSans-30"/>
      </g>
     </g>
    </g>
    <g id="ytick_7">
     <g id="line2d_19">
      <g>
       <use style="stroke:#000000;stroke-width:0.8;" x="59.690625" xlink:href="#m19f5a3a3fd" y="40.164842"/>
      </g>
     </g>
     <g id="text_20">
      <!-- 17600 -->
      <g transform="translate(20.878125 43.964061)scale(0.1 -0.1)">
       <use xlink:href="#DejaVuSans-31"/>
       <use x="63.623047" xlink:href="#DejaVuSans-37"/>
       <use x="127.246094" xlink:href="#DejaVuSans-36"/>
       <use x="190.869141" xlink:href="#DejaVuSans-30"/>
       <use x="254.492188" xlink:href="#DejaVuSans-30"/>
      </g>
     </g>
    </g>
    <g id="text_21">
     <!-- Code region coverage -->
     <g transform="translate(14.798438 210.379594)rotate(-90)scale(0.1 -0.1)">
      <defs>
       <path d="M 4122 4306 
L 4122 3641 
Q 3803 3938 3442 4084 
Q 3081 4231 2675 4231 
Q 1875 4231 1450 3742 
Q 1025 3253 1025 2328 
Q 1025 1406 1450 917 
Q 1875 428 2675 428 
Q 3081 428 3442 575 
Q 3803 722 4122 1019 
L 4122 359 
Q 3791 134 3420 21 
Q 3050 -91 2638 -91 
Q 1578 -91 968 557 
Q 359 1206 359 2328 
Q 359 3453 968 4101 
Q 1578 4750 2638 4750 
Q 3056 4750 3426 4639 
Q 3797 4528 4122 4306 
z
" id="DejaVuSans-43" transform="scale(0.015625)"/>
       <path d="M 2906 2969 
L 2906 4863 
L 3481 4863 
L 3481 0 
L 2906 0 
L 2906 525 
Q 2725 213 2448 61 
Q 2172 -91 1784 -91 
Q 1150 -91 751 415 
Q 353 922 353 1747 
Q 353 2572 751 3078 
Q 1150 3584 1784 3584 
Q 2172 3584 2448 3432 
Q 2725 3281 2906 2969 
z
M 947 1747 
Q 947 1113 1208 752 
Q 1469 391 1925 391 
Q 2381 391 2643 752 
Q 2906 1113 2906 1747 
Q 2906 2381 2643 2742 
Q 2381 3103 1925 3103 
Q 1469 3103 1208 2742 
Q 947 2381 947 1747 
z
" id="DejaVuSans-64" transform="scale(0.015625)"/>
       <path d="M 2906 1791 
Q 2906 2416 2648 2759 
Q 2391 3103 1925 3103 
Q 1463 3103 1205 2759 
Q 947 2416 947 1791 
Q 947 1169 1205 825 
Q 1463 481 1925 481 
Q 2391 481 2648 825 
Q 2906 1169 2906 1791 
z
M 3481 434 
Q 3481 -459 3084 -895 
Q 2688 -1331 1869 -1331 
Q 1566 -1331 1297 -1286 
Q 1028 -1241 775 -1147 
L 775 -588 
Q 1028 -725 1275 -790 
Q 1522 -856 1778 -856 
Q 2344 -856 2625 -561 
Q 2906 -266 2906 331 
L 2906 616 
Q 2728 306 2450 153 
Q 2172 0 1784 0 
Q 1141 0 747 490 
Q 353 981 353 1791 
Q 353 2603 747 3093 
Q 1141 3584 1784 3584 
Q 2172 3584 2450 3431 
Q 2728 3278 2906 2969 
L 2906 3500 
L 3481 3500 
L 3481 434 
z
" id="DejaVuSans-67" transform="scale(0.015625)"/>
       <path d="M 3122 3366 
L 3122 2828 
Q 2878 2963 2633 3030 
Q 2388 3097 2138 3097 
Q 1578 3097 1268 2742 
Q 959 2388 959 1747 
Q 959 1106 1268 751 
Q 1578 397 2138 397 
Q 2388 397 2633 464 
Q 2878 531 3122 666 
L 3122 134 
Q 2881 22 2623 -34 
Q 2366 -91 2075 -91 
Q 1284 -91 818 406 
Q 353 903 353 1747 
Q 353 2603 823 3093 
Q 1294 3584 2113 3584 
Q 2378 3584 2631 3529 
Q 2884 3475 3122 3366 
z
" id="DejaVuSans-63" transform="scale(0.015625)"/>
       <path d="M 191 3500 
L 800 3500 
L 1894 563 
L 2988 3500 
L 3597 3500 
L 2284 0 
L 1503 0 
L 191 3500 
z
" id="DejaVuSans-76" transform="scale(0.015625)"/>
       <path d="M 2194 1759 
Q 1497 1759 1228 1600 
Q 959 1441 959 1056 
Q 959 750 1161 570 
Q 1363 391 1709 391 
Q 2188 391 2477 730 
Q 2766 1069 2766 1631 
L 2766 1759 
L 2194 1759 
z
M 3341 1997 
L 3341 0 
L 2766 0 
L 2766 531 
Q 2569 213 2275 61 
Q 1981 -91 1556 -91 
Q 1019 -91 701 211 
Q 384 513 384 1019 
Q 384 1609 779 1909 
Q 1175 2209 1959 2209 
L 2766 2209 
L 2766 2266 
Q 2766 2663 2505 2880 
Q 2244 3097 1772 3097 
Q 1472 3097 1187 3025 
Q 903 2953 641 2809 
L 641 3341 
Q 956 3463 1253 3523 
Q 1550 3584 1831 3584 
Q 2591 3584 2966 3190 
Q 3341 2797 3341 1997 
z
" id="DejaVuSans-61" transform="scale(0.015625)"/>
      </defs>
      <use xlink:href="#DejaVuSans-43"/>
      <use x="69.824219" xlink:href="#DejaVuSans-6f"/>
      <use x="131.005859" xlink:href="#DejaVuSans-64"/>
      <use x="194.482422" xlink:href="#DejaVuSans-65"/>
      <use x="256.005859" xlink:href="#DejaVuSans-20"/>
      <use x="287.792969" xlink:href="#DejaVuSans-72"/>
      <use x="326.65625" xlink:href="#DejaVuSans-65"/>
      <use x="388.179688" xlink:href="#DejaVuSans-67"/>
      <use x="451.65625" xlink:href="#DejaVuSans-69"/>
      <use x="479.439453" xlink:href="#DejaVuSans-6f"/>
      <use x="540.621094" xlink:href="#DejaVuSans-6e"/>
      <use x="604" xlink:href="#DejaVuSans-20"/>
      <use x="635.787109" xlink:href="#DejaVuSans-63"/>
      <use x="690.767578" xlink:href="#DejaVuSans-6f"/>
      <use x="751.949219" xlink:href="#DejaVuSans-76"/>
      <use x="811.128906" xlink:href="#DejaVuSans-65"/>
      <use x="872.652344" xlink:href="#DejaVuSans-72"/>
      <use x="913.765625" xlink:href="#DejaVuSans-61"/>
      <use x="975.044922" xlink:href="#DejaVuSans-67"/>
      <use x="1038.521484" xlink:href="#DejaVuSans-65"/>
     </g>
    </g>
   </g>
   <g id="line2d_20">
    <path clip-path="url(#p625f7cc877)" d="M 92.15608 239.295608 
L 99.291344 198.06589 
L 106.426609 187.734093 
L 113.561874 176.330128 
L 120.697138 165.803392 
L 127.832403 158.883037 
L 134.967668 153.03485 
L 142.102933 152.352562 
L 149.238197 129.642102 
L 156.373462 121.259701 
L 163.508727 116.971031 
L 170.643992 113.072239 
L 177.779256 109.660797 
L 184.914521 108.881039 
L 192.049786 102.350563 
L 199.185051 96.209967 
L 206.320315 94.065632 
L 213.45558 92.603585 
L 220.590845 91.726357 
L 227.72611 90.55672 
L 234.861374 90.36178 
L 241.996639 89.192143 
L 249.131904 87.047808 
L 256.267168 85.488291 
L 263.402433 81.49203 
L 270.537698 81.39456 
L 277.672963 79.055285 
L 284.808227 77.593239 
L 291.943492 75.643843 
L 299.078757 74.766615 
L 306.214022 73.694447 
L 313.349286 70.477945 
L 320.484551 68.918428 
L 327.619816 68.13867 
L 334.755081 64.922167 
L 341.890345 63.849999 
L 349.02561 62.680362 
L 356.160875 62.680362 
L 363.296139 61.608194 
L 370.431404 61.608194 
L 377.566669 61.608194 
L 384.701934 60.730966 
L 391.837198 60.730966 
L 398.972463 59.463859 
L 406.107728 59.07398 
L 413.242993 57.806873 
L 420.378257 57.806873 
L 427.513522 57.806873 
L 434.648787 57.027115 
L 441.784052 56.539766 
L 448.919316 56.344826 
L 456.054581 56.247356 
L 463.189846 56.247356 
L 470.325111 53.908081 
L 477.460375 53.908081 
L 484.59564 53.420733 
L 491.730905 53.225793 
L 498.866169 53.128323 
L 506.001434 53.128323 
L 513.136699 52.348565 
L 520.271964 52.348565 
L 527.407228 52.348565 
L 534.542493 52.348565 
L 541.677758 52.251095 
L 548.813023 51.958686 
L 555.948287 51.958686 
L 563.083552 49.132062 
L 570.218817 48.644713 
L 577.354082 48.157364 
L 584.489346 47.670015 
L 591.624611 44.745922 
L 598.759876 44.648452 
L 605.89514 44.648452 
L 613.030405 44.648452 
L 620.16567 44.550982 
L 627.300935 43.966164 
L 634.436199 43.868694 
L 641.571464 43.478815 
L 648.706729 43.478815 
L 655.841994 43.088936 
L 662.977258 41.431949 
L 670.112523 41.431949 
L 677.247788 41.23701 
L 684.383053 41.23701 
L 691.518317 41.23701 
L 698.653582 40.457252 
L 705.788847 40.262312 
L 712.924112 40.262312 
L 720.059376 40.262312 
L 727.194641 40.262312 
L 734.329906 40.067372 
L 741.46517 40.067372 
" style="fill:none;stroke:#1f77b4;stroke-linecap:square;stroke-width:1.5;"/>
    <defs>
     <path d="M 0 3 
C 0.795609 3 1.55874 2.683901 2.12132 2.12132 
C 2.683901 1.55874 3 0.795609 3 0 
C 3 -0.795609 2.683901 -1.55874 2.12132 -2.12132 
C 1.55874 -2.683901 0.795609 -3 0 -3 
C -0.795609 -3 -1.55874 -2.683901 -2.12132 -2.12132 
C -2.683901 -1.55874 -3 -0.795609 -3 0 
C -3 0.795609 -2.683901 1.55874 -2.12132 2.12132 
C -1.55874 2.683901 -0.795609 3 0 3 
z
" id="m41815fbb52" style="stroke:#ffffff;stroke-width:0.75;"/>
    </defs>
    <g clip-path="url(#p625f7cc877)">
     <use style="fill:#1f77b4;stroke:#ffffff;stroke-width:0.75;" x="92.15608" xlink:href="#m41815fbb52" y="239.295608"/>
     <use style="fill:#1f77b4;stroke:#ffffff;stroke-width:0.75;" x="99.291344" xlink:href="#m41815fbb52" y="198.06589"/>
     <use style="fill:#1f77b4;stroke:#ffffff;stroke-width:0.75;" x="106.426609" xlink:href="#m41815fbb52" y="187.734093"/>
     <use style="fill:#1f77b4;stroke:#ffffff;stroke-width:0.75;" x="113.561874" xlink:href="#m41815fbb52" y="176.330128"/>
     <use style="fill:#1f77b4;stroke:#ffffff;stroke-width:0.75;" x="120.697138" xlink:href="#m41815fbb52" y="165.803392"/>
     <use style="fill:#1f77b4;stroke:#ffffff;stroke-width:0.75;" x="127.832403" xlink:href="#m41815fbb52" y="158.883037"/>
     <use style="fill:#1f77b4;stroke:#ffffff;stroke-width:0.75;" x="134.967668" xlink:href="#m41815fbb52" y="153.03485"/>
     <use style="fill:#1f77b4;stroke:#ffffff;stroke-width:0.75;" x="142.102933" xlink:href="#m41815fbb52" y="152.352562"/>
     <use style="fill:#1f77b4;stroke:#ffffff;stroke-width:0.75;" x="149.238197" xlink:href="#m41815fbb52" y="129.642102"/>
     <use style="fill:#1f77b4;stroke:#ffffff;stroke-width:0.75;" x="156.373462" xlink:href="#m41815fbb52" y="121.259701"/>
     <use style="fill:#1f77b4;stroke:#ffffff;stroke-width:0.75;" x="163.508727" xlink:href="#m41815fbb52" y="116.971031"/>
     <use style="fill:#1f77b4;stroke:#ffffff;stroke-width:0.75;" x="170.643992" xlink:href="#m41815fbb52" y="113.072239"/>
     <use style="fill:#1f77b4;stroke:#ffffff;stroke-width:0.75;" x="177.779256" xlink:href="#m41815fbb52" y="109.660797"/>
     <use style="fill:#1f77b4;stroke:#ffffff;stroke-width:0.75;" x="184.914521" xlink:href="#m41815fbb52" y="108.881039"/>
     <use style="fill:#1f77b4;stroke:#ffffff;stroke-width:0.75;" x="192.049786" xlink:href="#m41815fbb52" y="102.350563"/>
     <use style="fill:#1f77b4;stroke:#ffffff;stroke-width:0.75;" x="199.185051" xlink:href="#m41815fbb52" y="96.209967"/>
     <use style="fill:#1f77b4;stroke:#ffffff;stroke-width:0.75;" x="206.320315" xlink:href="#m41815fbb52" y="94.065632"/>
     <use style="fill:#1f77b4;stroke:#ffffff;stroke-width:0.75;" x="213.45558" xlink:href="#m41815fbb52" y="92.603585"/>
     <use style="fill:#1f77b4;stroke:#ffffff;stroke-width:0.75;" x="220.590845" xlink:href="#m41815fbb52" y="91.726357"/>
     <use style="fill:#1f77b4;stroke:#ffffff;stroke-width:0.75;" x="227.72611" xlink:href="#m41815fbb52" y="90.55672"/>
     <use style="fill:#1f77b4;stroke:#ffffff;stroke-width:0.75;" x="234.861374" xlink:href="#m41815fbb52" y="90.36178"/>
     <use style="fill:#1f77b4;stroke:#ffffff;stroke-width:0.75;" x="241.996639" xlink:href="#m41815fbb52" y="89.192143"/>
     <use style="fill:#1f77b4;stroke:#ffffff;stroke-width:0.75;" x="249.131904" xlink:href="#m41815fbb52" y="87.047808"/>
     <use style="fill:#1f77b4;stroke:#ffffff;stroke-width:0.75;" x="256.267168" xlink:href="#m41815fbb52" y="85.488291"/>
     <use style="fill:#1f77b4;stroke:#ffffff;stroke-width:0.75;" x="263.402433" xlink:href="#m41815fbb52" y="81.49203"/>
     <use style="fill:#1f77b4;stroke:#ffffff;stroke-width:0.75;" x="270.537698" xlink:href="#m41815fbb52" y="81.39456"/>
     <use style="fill:#1f77b4;stroke:#ffffff;stroke-width:0.75;" x="277.672963" xlink:href="#m41815fbb52" y="79.055285"/>
     <use style="fill:#1f77b4;stroke:#ffffff;stroke-width:0.75;" x="284.808227" xlink:href="#m41815fbb52" y="77.593239"/>
     <use style="fill:#1f77b4;stroke:#ffffff;stroke-width:0.75;" x="291.943492" xlink:href="#m41815fbb52" y="75.643843"/>
     <use style="fill:#1f77b4;stroke:#ffffff;stroke-width:0.75;" x="299.078757" xlink:href="#m41815fbb52" y="74.766615"/>
     <use style="fill:#1f77b4;stroke:#ffffff;stroke-width:0.75;" x="306.214022" xlink:href="#m41815fbb52" y="73.694447"/>
     <use style="fill:#1f77b4;stroke:#ffffff;stroke-width:0.75;" x="313.349286" xlink:href="#m41815fbb52" y="70.477945"/>
     <use style="fill:#1f77b4;stroke:#ffffff;stroke-width:0.75;" x="320.484551" xlink:href="#m41815fbb52" y="68.918428"/>
     <use style="fill:#1f77b4;stroke:#ffffff;stroke-width:0.75;" x="327.619816" xlink:href="#m41815fbb52" y="68.13867"/>
     <use style="fill:#1f77b4;stroke:#ffffff;stroke-width:0.75;" x="334.755081" xlink:href="#m41815fbb52" y="64.922167"/>
     <use style="fill:#1f77b4;stroke:#ffffff;stroke-width:0.75;" x="341.890345" xlink:href="#m41815fbb52" y="63.849999"/>
     <use style="fill:#1f77b4;stroke:#ffffff;stroke-width:0.75;" x="349.02561" xlink:href="#m41815fbb52" y="62.680362"/>
     <use style="fill:#1f77b4;stroke:#ffffff;stroke-width:0.75;" x="356.160875" xlink:href="#m41815fbb52" y="62.680362"/>
     <use style="fill:#1f77b4;stroke:#ffffff;stroke-width:0.75;" x="363.296139" xlink:href="#m41815fbb52" y="61.608194"/>
     <use style="fill:#1f77b4;stroke:#ffffff;stroke-width:0.75;" x="370.431404" xlink:href="#m41815fbb52" y="61.608194"/>
     <use style="fill:#1f77b4;stroke:#ffffff;stroke-width:0.75;" x="377.566669" xlink:href="#m41815fbb52" y="61.608194"/>
     <use style="fill:#1f77b4;stroke:#ffffff;stroke-width:0.75;" x="384.701934" xlink:href="#m41815fbb52" y="60.730966"/>
     <use style="fill:#1f77b4;stroke:#ffffff;stroke-width:0.75;" x="391.837198" xlink:href="#m41815fbb52" y="60.730966"/>
     <use style="fill:#1f77b4;stroke:#ffffff;stroke-width:0.75;" x="398.972463" xlink:href="#m41815fbb52" y="59.463859"/>
     <use style="fill:#1f77b4;stroke:#ffffff;stroke-width:0.75;" x="406.107728" xlink:href="#m41815fbb52" y="59.07398"/>
     <use style="fill:#1f77b4;stroke:#ffffff;stroke-width:0.75;" x="413.242993" xlink:href="#m41815fbb52" y="57.806873"/>
     <use style="fill:#1f77b4;stroke:#ffffff;stroke-width:0.75;" x="420.378257" xlink:href="#m41815fbb52" y="57.806873"/>
     <use style="fill:#1f77b4;stroke:#ffffff;stroke-width:0.75;" x="427.513522" xlink:href="#m41815fbb52" y="57.806873"/>
     <use style="fill:#1f77b4;stroke:#ffffff;stroke-width:0.75;" x="434.648787" xlink:href="#m41815fbb52" y="57.027115"/>
     <use style="fill:#1f77b4;stroke:#ffffff;stroke-width:0.75;" x="441.784052" xlink:href="#m41815fbb52" y="56.539766"/>
     <use style="fill:#1f77b4;stroke:#ffffff;stroke-width:0.75;" x="448.919316" xlink:href="#m41815fbb52" y="56.344826"/>
     <use style="fill:#1f77b4;stroke:#ffffff;stroke-width:0.75;" x="456.054581" xlink:href="#m41815fbb52" y="56.247356"/>
     <use style="fill:#1f77b4;stroke:#ffffff;stroke-width:0.75;" x="463.189846" xlink:href="#m41815fbb52" y="56.247356"/>
     <use style="fill:#1f77b4;stroke:#ffffff;stroke-width:0.75;" x="470.325111" xlink:href="#m41815fbb52" y="53.908081"/>
     <use style="fill:#1f77b4;stroke:#ffffff;stroke-width:0.75;" x="477.460375" xlink:href="#m41815fbb52" y="53.908081"/>
     <use style="fill:#1f77b4;stroke:#ffffff;stroke-width:0.75;" x="484.59564" xlink:href="#m41815fbb52" y="53.420733"/>
     <use style="fill:#1f77b4;stroke:#ffffff;stroke-width:0.75;" x="491.730905" xlink:href="#m41815fbb52" y="53.225793"/>
     <use style="fill:#1f77b4;stroke:#ffffff;stroke-width:0.75;" x="498.866169" xlink:href="#m41815fbb52" y="53.128323"/>
     <use style="fill:#1f77b4;stroke:#ffffff;stroke-width:0.75;" x="506.001434" xlink:href="#m41815fbb52" y="53.128323"/>
     <use style="fill:#1f77b4;stroke:#ffffff;stroke-width:0.75;" x="513.136699" xlink:href="#m41815fbb52" y="52.348565"/>
     <use style="fill:#1f77b4;stroke:#ffffff;stroke-width:0.75;" x="520.271964" xlink:href="#m41815fbb52" y="52.348565"/>
     <use style="fill:#1f77b4;stroke:#ffffff;stroke-width:0.75;" x="527.407228" xlink:href="#m41815fbb52" y="52.348565"/>
     <use style="fill:#1f77b4;stroke:#ffffff;stroke-width:0.75;" x="534.542493" xlink:href="#m41815fbb52" y="52.348565"/>
     <use style="fill:#1f77b4;stroke:#ffffff;stroke-width:0.75;" x="541.677758" xlink:href="#m41815fbb52" y="52.251095"/>
     <use style="fill:#1f77b4;stroke:#ffffff;stroke-width:0.75;" x="548.813023" xlink:href="#m41815fbb52" y="51.958686"/>
     <use style="fill:#1f77b4;stroke:#ffffff;stroke-width:0.75;" x="555.948287" xlink:href="#m41815fbb52" y="51.958686"/>
     <use style="fill:#1f77b4;stroke:#ffffff;stroke-width:0.75;" x="563.083552" xlink:href="#m41815fbb52" y="49.132062"/>
     <use style="fill:#1f77b4;stroke:#ffffff;stroke-width:0.75;" x="570.218817" xlink:href="#m41815fbb52" y="48.644713"/>
     <use style="fill:#1f77b4;stroke:#ffffff;stroke-width:0.75;" x="577.354082" xlink:href="#m41815fbb52" y="48.157364"/>
     <use style="fill:#1f77b4;stroke:#ffffff;stroke-width:0.75;" x="584.489346" xlink:href="#m41815fbb52" y="47.670015"/>
     <use style="fill:#1f77b4;stroke:#ffffff;stroke-width:0.75;" x="591.624611" xlink:href="#m41815fbb52" y="44.745922"/>
     <use style="fill:#1f77b4;stroke:#ffffff;stroke-width:0.75;" x="598.759876" xlink:href="#m41815fbb52" y="44.648452"/>
     <use style="fill:#1f77b4;stroke:#ffffff;stroke-width:0.75;" x="605.89514" xlink:href="#m41815fbb52" y="44.648452"/>
     <use style="fill:#1f77b4;stroke:#ffffff;stroke-width:0.75;" x="613.030405" xlink:href="#m41815fbb52" y="44.648452"/>
     <use style="fill:#1f77b4;stroke:#ffffff;stroke-width:0.75;" x="620.16567" xlink:href="#m41815fbb52" y="44.550982"/>
     <use style="fill:#1f77b4;stroke:#ffffff;stroke-width:0.75;" x="627.300935" xlink:href="#m41815fbb52" y="43.966164"/>
     <use style="fill:#1f77b4;stroke:#ffffff;stroke-width:0.75;" x="634.436199" xlink:href="#m41815fbb52" y="43.868694"/>
     <use style="fill:#1f77b4;stroke:#ffffff;stroke-width:0.75;" x="641.571464" xlink:href="#m41815fbb52" y="43.478815"/>
     <use style="fill:#1f77b4;stroke:#ffffff;stroke-width:0.75;" x="648.706729" xlink:href="#m41815fbb52" y="43.478815"/>
     <use style="fill:#1f77b4;stroke:#ffffff;stroke-width:0.75;" x="655.841994" xlink:href="#m41815fbb52" y="43.088936"/>
     <use style="fill:#1f77b4;stroke:#ffffff;stroke-width:0.75;" x="662.977258" xlink:href="#m41815fbb52" y="41.431949"/>
     <use style="fill:#1f77b4;stroke:#ffffff;stroke-width:0.75;" x="670.112523" xlink:href="#m41815fbb52" y="41.431949"/>
     <use style="fill:#1f77b4;stroke:#ffffff;stroke-width:0.75;" x="677.247788" xlink:href="#m41815fbb52" y="41.23701"/>
     <use style="fill:#1f77b4;stroke:#ffffff;stroke-width:0.75;" x="684.383053" xlink:href="#m41815fbb52" y="41.23701"/>
     <use style="fill:#1f77b4;stroke:#ffffff;stroke-width:0.75;" x="691.518317" xlink:href="#m41815fbb52" y="41.23701"/>
     <use style="fill:#1f77b4;stroke:#ffffff;stroke-width:0.75;" x="698.653582" xlink:href="#m41815fbb52" y="40.457252"/>
     <use style="fill:#1f77b4;stroke:#ffffff;stroke-width:0.75;" x="705.788847" xlink:href="#m41815fbb52" y="40.262312"/>
     <use style="fill:#1f77b4;stroke:#ffffff;stroke-width:0.75;" x="712.924112" xlink:href="#m41815fbb52" y="40.262312"/>
     <use style="fill:#1f77b4;stroke:#ffffff;stroke-width:0.75;" x="720.059376" xlink:href="#m41815fbb52" y="40.262312"/>
     <use style="fill:#1f77b4;stroke:#ffffff;stroke-width:0.75;" x="727.194641" xlink:href="#m41815fbb52" y="40.262312"/>
     <use style="fill:#1f77b4;stroke:#ffffff;stroke-width:0.75;" x="734.329906" xlink:href="#m41815fbb52" y="40.067372"/>
     <use style="fill:#1f77b4;stroke:#ffffff;stroke-width:0.75;" x="741.46517" xlink:href="#m41815fbb52" y="40.067372"/>
    </g>
   </g>
   <g id="line2d_21">
    <path clip-path="url(#p625f7cc877)" d="M 92.15608 267.659314 
L 99.291344 225.162489 
L 106.426609 213.368646 
L 113.561874 196.993722 
L 120.697138 190.463247 
L 127.832403 179.351691 
L 134.967668 174.185793 
L 142.102933 166.68062 
L 149.238197 160.345084 
L 156.373462 156.446293 
L 163.508727 152.060152 
L 170.643992 149.038589 
L 177.779256 146.114496 
L 184.914521 143.97016 
L 192.049786 124.768613 
L 199.185051 122.916687 
L 206.320315 121.94199 
L 213.45558 113.072239 
L 220.590845 102.155624 
L 227.72611 100.303698 
L 234.861374 100.206228 
L 241.996639 94.358041 
L 249.131904 94.163102 
L 256.267168 91.336478 
L 263.402433 91.336478 
L 270.537698 88.802264 
L 277.672963 88.314915 
L 284.808227 87.437687 
L 291.943492 83.441426 
L 299.078757 83.441426 
L 306.214022 80.517332 
L 313.349286 77.788178 
L 320.484551 77.788178 
L 327.619816 76.91095 
L 334.755081 76.131192 
L 341.890345 76.033722 
L 349.02561 75.936252 
L 356.160875 75.448903 
L 363.296139 75.448903 
L 370.431404 75.448903 
L 377.566669 73.791917 
L 384.701934 73.791917 
L 391.837198 73.694447 
L 398.972463 73.499508 
L 406.107728 72.62228 
L 413.242993 72.037461 
L 420.378257 70.185535 
L 427.513522 70.088065 
L 434.648787 70.088065 
L 441.784052 67.163972 
L 448.919316 65.409516 
L 456.054581 65.019637 
L 463.189846 64.922167 
L 470.325111 64.922167 
L 477.460375 62.777832 
L 484.59564 62.680362 
L 491.730905 62.387953 
L 498.866169 59.951208 
L 506.001434 59.463859 
L 513.136699 59.366389 
L 520.271964 59.26892 
L 527.407228 59.07398 
L 534.542493 59.07398 
L 541.677758 58.781571 
L 548.813023 58.391691 
L 555.948287 58.196752 
L 563.083552 58.196752 
L 570.218817 54.297961 
L 577.354082 54.005551 
L 584.489346 54.005551 
L 591.624611 53.030853 
L 598.759876 52.251095 
L 605.89514 52.251095 
L 613.030405 51.958686 
L 620.16567 51.861216 
L 627.300935 51.861216 
L 634.436199 51.861216 
L 641.571464 51.178928 
L 648.706729 50.10676 
L 655.841994 49.716881 
L 662.977258 49.716881 
L 670.112523 49.716881 
L 677.247788 49.716881 
L 684.383053 49.716881 
L 691.518317 49.716881 
L 698.653582 49.716881 
L 705.788847 49.716881 
L 712.924112 49.521941 
L 720.059376 49.229532 
L 727.194641 49.132062 
L 734.329906 49.132062 
L 741.46517 47.864955 
" style="fill:none;stroke:#98df8a;stroke-linecap:square;stroke-width:1.5;"/>
    <defs>
     <path d="M -0 3 
L 3 -3 
L -3 -3 
z
" id="mc6b0d2f647" style="stroke:#ffffff;stroke-linejoin:miter;stroke-width:0.75;"/>
    </defs>
    <g clip-path="url(#p625f7cc877)">
     <use style="fill:#98df8a;stroke:#ffffff;stroke-linejoin:miter;stroke-width:0.75;" x="92.15608" xlink:href="#mc6b0d2f647" y="267.659314"/>
     <use style="fill:#98df8a;stroke:#ffffff;stroke-linejoin:miter;stroke-width:0.75;" x="99.291344" xlink:href="#mc6b0d2f647" y="225.162489"/>
     <use style="fill:#98df8a;stroke:#ffffff;stroke-linejoin:miter;stroke-width:0.75;" x="106.426609" xlink:href="#mc6b0d2f647" y="213.368646"/>
     <use style="fill:#98df8a;stroke:#ffffff;stroke-linejoin:miter;stroke-width:0.75;" x="113.561874" xlink:href="#mc6b0d2f647" y="196.993722"/>
     <use style="fill:#98df8a;stroke:#ffffff;stroke-linejoin:miter;stroke-width:0.75;" x="120.697138" xlink:href="#mc6b0d2f647" y="190.463247"/>
     <use style="fill:#98df8a;stroke:#ffffff;stroke-linejoin:miter;stroke-width:0.75;" x="127.832403" xlink:href="#mc6b0d2f647" y="179.351691"/>
     <use style="fill:#98df8a;stroke:#ffffff;stroke-linejoin:miter;stroke-width:0.75;" x="134.967668" xlink:href="#mc6b0d2f647" y="174.185793"/>
     <use style="fill:#98df8a;stroke:#ffffff;stroke-linejoin:miter;stroke-width:0.75;" x="142.102933" xlink:href="#mc6b0d2f647" y="166.68062"/>
     <use style="fill:#98df8a;stroke:#ffffff;stroke-linejoin:miter;stroke-width:0.75;" x="149.238197" xlink:href="#mc6b0d2f647" y="160.345084"/>
     <use style="fill:#98df8a;stroke:#ffffff;stroke-linejoin:miter;stroke-width:0.75;" x="156.373462" xlink:href="#mc6b0d2f647" y="156.446293"/>
     <use style="fill:#98df8a;stroke:#ffffff;stroke-linejoin:miter;stroke-width:0.75;" x="163.508727" xlink:href="#mc6b0d2f647" y="152.060152"/>
     <use style="fill:#98df8a;stroke:#ffffff;stroke-linejoin:miter;stroke-width:0.75;" x="170.643992" xlink:href="#mc6b0d2f647" y="149.038589"/>
     <use style="fill:#98df8a;stroke:#ffffff;stroke-linejoin:miter;stroke-width:0.75;" x="177.779256" xlink:href="#mc6b0d2f647" y="146.114496"/>
     <use style="fill:#98df8a;stroke:#ffffff;stroke-linejoin:miter;stroke-width:0.75;" x="184.914521" xlink:href="#mc6b0d2f647" y="143.97016"/>
     <use style="fill:#98df8a;stroke:#ffffff;stroke-linejoin:miter;stroke-width:0.75;" x="192.049786" xlink:href="#mc6b0d2f647" y="124.768613"/>
     <use style="fill:#98df8a;stroke:#ffffff;stroke-linejoin:miter;stroke-width:0.75;" x="199.185051" xlink:href="#mc6b0d2f647" y="122.916687"/>
     <use style="fill:#98df8a;stroke:#ffffff;stroke-linejoin:miter;stroke-width:0.75;" x="206.320315" xlink:href="#mc6b0d2f647" y="121.94199"/>
     <use style="fill:#98df8a;stroke:#ffffff;stroke-linejoin:miter;stroke-width:0.75;" x="213.45558" xlink:href="#mc6b0d2f647" y="113.072239"/>
     <use style="fill:#98df8a;stroke:#ffffff;stroke-linejoin:miter;stroke-width:0.75;" x="220.590845" xlink:href="#mc6b0d2f647" y="102.155624"/>
     <use style="fill:#98df8a;stroke:#ffffff;stroke-linejoin:miter;stroke-width:0.75;" x="227.72611" xlink:href="#mc6b0d2f647" y="100.303698"/>
     <use style="fill:#98df8a;stroke:#ffffff;stroke-linejoin:miter;stroke-width:0.75;" x="234.861374" xlink:href="#mc6b0d2f647" y="100.206228"/>
     <use style="fill:#98df8a;stroke:#ffffff;stroke-linejoin:miter;stroke-width:0.75;" x="241.996639" xlink:href="#mc6b0d2f647" y="94.358041"/>
     <use style="fill:#98df8a;stroke:#ffffff;stroke-linejoin:miter;stroke-width:0.75;" x="249.131904" xlink:href="#mc6b0d2f647" y="94.163102"/>
     <use style="fill:#98df8a;stroke:#ffffff;stroke-linejoin:miter;stroke-width:0.75;" x="256.267168" xlink:href="#mc6b0d2f647" y="91.336478"/>
     <use style="fill:#98df8a;stroke:#ffffff;stroke-linejoin:miter;stroke-width:0.75;" x="263.402433" xlink:href="#mc6b0d2f647" y="91.336478"/>
     <use style="fill:#98df8a;stroke:#ffffff;stroke-linejoin:miter;stroke-width:0.75;" x="270.537698" xlink:href="#mc6b0d2f647" y="88.802264"/>
     <use style="fill:#98df8a;stroke:#ffffff;stroke-linejoin:miter;stroke-width:0.75;" x="277.672963" xlink:href="#mc6b0d2f647" y="88.314915"/>
     <use style="fill:#98df8a;stroke:#ffffff;stroke-linejoin:miter;stroke-width:0.75;" x="284.808227" xlink:href="#mc6b0d2f647" y="87.437687"/>
     <use style="fill:#98df8a;stroke:#ffffff;stroke-linejoin:miter;stroke-width:0.75;" x="291.943492" xlink:href="#mc6b0d2f647" y="83.441426"/>
     <use style="fill:#98df8a;stroke:#ffffff;stroke-linejoin:miter;stroke-width:0.75;" x="299.078757" xlink:href="#mc6b0d2f647" y="83.441426"/>
     <use style="fill:#98df8a;stroke:#ffffff;stroke-linejoin:miter;stroke-width:0.75;" x="306.214022" xlink:href="#mc6b0d2f647" y="80.517332"/>
     <use style="fill:#98df8a;stroke:#ffffff;stroke-linejoin:miter;stroke-width:0.75;" x="313.349286" xlink:href="#mc6b0d2f647" y="77.788178"/>
     <use style="fill:#98df8a;stroke:#ffffff;stroke-linejoin:miter;stroke-width:0.75;" x="320.484551" xlink:href="#mc6b0d2f647" y="77.788178"/>
     <use style="fill:#98df8a;stroke:#ffffff;stroke-linejoin:miter;stroke-width:0.75;" x="327.619816" xlink:href="#mc6b0d2f647" y="76.91095"/>
     <use style="fill:#98df8a;stroke:#ffffff;stroke-linejoin:miter;stroke-width:0.75;" x="334.755081" xlink:href="#mc6b0d2f647" y="76.131192"/>
     <use style="fill:#98df8a;stroke:#ffffff;stroke-linejoin:miter;stroke-width:0.75;" x="341.890345" xlink:href="#mc6b0d2f647" y="76.033722"/>
     <use style="fill:#98df8a;stroke:#ffffff;stroke-linejoin:miter;stroke-width:0.75;" x="349.02561" xlink:href="#mc6b0d2f647" y="75.936252"/>
     <use style="fill:#98df8a;stroke:#ffffff;stroke-linejoin:miter;stroke-width:0.75;" x="356.160875" xlink:href="#mc6b0d2f647" y="75.448903"/>
     <use style="fill:#98df8a;stroke:#ffffff;stroke-linejoin:miter;stroke-width:0.75;" x="363.296139" xlink:href="#mc6b0d2f647" y="75.448903"/>
     <use style="fill:#98df8a;stroke:#ffffff;stroke-linejoin:miter;stroke-width:0.75;" x="370.431404" xlink:href="#mc6b0d2f647" y="75.448903"/>
     <use style="fill:#98df8a;stroke:#ffffff;stroke-linejoin:miter;stroke-width:0.75;" x="377.566669" xlink:href="#mc6b0d2f647" y="73.791917"/>
     <use style="fill:#98df8a;stroke:#ffffff;stroke-linejoin:miter;stroke-width:0.75;" x="384.701934" xlink:href="#mc6b0d2f647" y="73.791917"/>
     <use style="fill:#98df8a;stroke:#ffffff;stroke-linejoin:miter;stroke-width:0.75;" x="391.837198" xlink:href="#mc6b0d2f647" y="73.694447"/>
     <use style="fill:#98df8a;stroke:#ffffff;stroke-linejoin:miter;stroke-width:0.75;" x="398.972463" xlink:href="#mc6b0d2f647" y="73.499508"/>
     <use style="fill:#98df8a;stroke:#ffffff;stroke-linejoin:miter;stroke-width:0.75;" x="406.107728" xlink:href="#mc6b0d2f647" y="72.62228"/>
     <use style="fill:#98df8a;stroke:#ffffff;stroke-linejoin:miter;stroke-width:0.75;" x="413.242993" xlink:href="#mc6b0d2f647" y="72.037461"/>
     <use style="fill:#98df8a;stroke:#ffffff;stroke-linejoin:miter;stroke-width:0.75;" x="420.378257" xlink:href="#mc6b0d2f647" y="70.185535"/>
     <use style="fill:#98df8a;stroke:#ffffff;stroke-linejoin:miter;stroke-width:0.75;" x="427.513522" xlink:href="#mc6b0d2f647" y="70.088065"/>
     <use style="fill:#98df8a;stroke:#ffffff;stroke-linejoin:miter;stroke-width:0.75;" x="434.648787" xlink:href="#mc6b0d2f647" y="70.088065"/>
     <use style="fill:#98df8a;stroke:#ffffff;stroke-linejoin:miter;stroke-width:0.75;" x="441.784052" xlink:href="#mc6b0d2f647" y="67.163972"/>
     <use style="fill:#98df8a;stroke:#ffffff;stroke-linejoin:miter;stroke-width:0.75;" x="448.919316" xlink:href="#mc6b0d2f647" y="65.409516"/>
     <use style="fill:#98df8a;stroke:#ffffff;stroke-linejoin:miter;stroke-width:0.75;" x="456.054581" xlink:href="#mc6b0d2f647" y="65.019637"/>
     <use style="fill:#98df8a;stroke:#ffffff;stroke-linejoin:miter;stroke-width:0.75;" x="463.189846" xlink:href="#mc6b0d2f647" y="64.922167"/>
     <use style="fill:#98df8a;stroke:#ffffff;stroke-linejoin:miter;stroke-width:0.75;" x="470.325111" xlink:href="#mc6b0d2f647" y="64.922167"/>
     <use style="fill:#98df8a;stroke:#ffffff;stroke-linejoin:miter;stroke-width:0.75;" x="477.460375" xlink:href="#mc6b0d2f647" y="62.777832"/>
     <use style="fill:#98df8a;stroke:#ffffff;stroke-linejoin:miter;stroke-width:0.75;" x="484.59564" xlink:href="#mc6b0d2f647" y="62.680362"/>
     <use style="fill:#98df8a;stroke:#ffffff;stroke-linejoin:miter;stroke-width:0.75;" x="491.730905" xlink:href="#mc6b0d2f647" y="62.387953"/>
     <use style="fill:#98df8a;stroke:#ffffff;stroke-linejoin:miter;stroke-width:0.75;" x="498.866169" xlink:href="#mc6b0d2f647" y="59.951208"/>
     <use style="fill:#98df8a;stroke:#ffffff;stroke-linejoin:miter;stroke-width:0.75;" x="506.001434" xlink:href="#mc6b0d2f647" y="59.463859"/>
     <use style="fill:#98df8a;stroke:#ffffff;stroke-linejoin:miter;stroke-width:0.75;" x="513.136699" xlink:href="#mc6b0d2f647" y="59.366389"/>
     <use style="fill:#98df8a;stroke:#ffffff;stroke-linejoin:miter;stroke-width:0.75;" x="520.271964" xlink:href="#mc6b0d2f647" y="59.26892"/>
     <use style="fill:#98df8a;stroke:#ffffff;stroke-linejoin:miter;stroke-width:0.75;" x="527.407228" xlink:href="#mc6b0d2f647" y="59.07398"/>
     <use style="fill:#98df8a;stroke:#ffffff;stroke-linejoin:miter;stroke-width:0.75;" x="534.542493" xlink:href="#mc6b0d2f647" y="59.07398"/>
     <use style="fill:#98df8a;stroke:#ffffff;stroke-linejoin:miter;stroke-width:0.75;" x="541.677758" xlink:href="#mc6b0d2f647" y="58.781571"/>
     <use style="fill:#98df8a;stroke:#ffffff;stroke-linejoin:miter;stroke-width:0.75;" x="548.813023" xlink:href="#mc6b0d2f647" y="58.391691"/>
     <use style="fill:#98df8a;stroke:#ffffff;stroke-linejoin:miter;stroke-width:0.75;" x="555.948287" xlink:href="#mc6b0d2f647" y="58.196752"/>
     <use style="fill:#98df8a;stroke:#ffffff;stroke-linejoin:miter;stroke-width:0.75;" x="563.083552" xlink:href="#mc6b0d2f647" y="58.196752"/>
     <use style="fill:#98df8a;stroke:#ffffff;stroke-linejoin:miter;stroke-width:0.75;" x="570.218817" xlink:href="#mc6b0d2f647" y="54.297961"/>
     <use style="fill:#98df8a;stroke:#ffffff;stroke-linejoin:miter;stroke-width:0.75;" x="577.354082" xlink:href="#mc6b0d2f647" y="54.005551"/>
     <use style="fill:#98df8a;stroke:#ffffff;stroke-linejoin:miter;stroke-width:0.75;" x="584.489346" xlink:href="#mc6b0d2f647" y="54.005551"/>
     <use style="fill:#98df8a;stroke:#ffffff;stroke-linejoin:miter;stroke-width:0.75;" x="591.624611" xlink:href="#mc6b0d2f647" y="53.030853"/>
     <use style="fill:#98df8a;stroke:#ffffff;stroke-linejoin:miter;stroke-width:0.75;" x="598.759876" xlink:href="#mc6b0d2f647" y="52.251095"/>
     <use style="fill:#98df8a;stroke:#ffffff;stroke-linejoin:miter;stroke-width:0.75;" x="605.89514" xlink:href="#mc6b0d2f647" y="52.251095"/>
     <use style="fill:#98df8a;stroke:#ffffff;stroke-linejoin:miter;stroke-width:0.75;" x="613.030405" xlink:href="#mc6b0d2f647" y="51.958686"/>
     <use style="fill:#98df8a;stroke:#ffffff;stroke-linejoin:miter;stroke-width:0.75;" x="620.16567" xlink:href="#mc6b0d2f647" y="51.861216"/>
     <use style="fill:#98df8a;stroke:#ffffff;stroke-linejoin:miter;stroke-width:0.75;" x="627.300935" xlink:href="#mc6b0d2f647" y="51.861216"/>
     <use style="fill:#98df8a;stroke:#ffffff;stroke-linejoin:miter;stroke-width:0.75;" x="634.436199" xlink:href="#mc6b0d2f647" y="51.861216"/>
     <use style="fill:#98df8a;stroke:#ffffff;stroke-linejoin:miter;stroke-width:0.75;" x="641.571464" xlink:href="#mc6b0d2f647" y="51.178928"/>
     <use style="fill:#98df8a;stroke:#ffffff;stroke-linejoin:miter;stroke-width:0.75;" x="648.706729" xlink:href="#mc6b0d2f647" y="50.10676"/>
     <use style="fill:#98df8a;stroke:#ffffff;stroke-linejoin:miter;stroke-width:0.75;" x="655.841994" xlink:href="#mc6b0d2f647" y="49.716881"/>
     <use style="fill:#98df8a;stroke:#ffffff;stroke-linejoin:miter;stroke-width:0.75;" x="662.977258" xlink:href="#mc6b0d2f647" y="49.716881"/>
     <use style="fill:#98df8a;stroke:#ffffff;stroke-linejoin:miter;stroke-width:0.75;" x="670.112523" xlink:href="#mc6b0d2f647" y="49.716881"/>
     <use style="fill:#98df8a;stroke:#ffffff;stroke-linejoin:miter;stroke-width:0.75;" x="677.247788" xlink:href="#mc6b0d2f647" y="49.716881"/>
     <use style="fill:#98df8a;stroke:#ffffff;stroke-linejoin:miter;stroke-width:0.75;" x="684.383053" xlink:href="#mc6b0d2f647" y="49.716881"/>
     <use style="fill:#98df8a;stroke:#ffffff;stroke-linejoin:miter;stroke-width:0.75;" x="691.518317" xlink:href="#mc6b0d2f647" y="49.716881"/>
     <use style="fill:#98df8a;stroke:#ffffff;stroke-linejoin:miter;stroke-width:0.75;" x="698.653582" xlink:href="#mc6b0d2f647" y="49.716881"/>
     <use style="fill:#98df8a;stroke:#ffffff;stroke-linejoin:miter;stroke-width:0.75;" x="705.788847" xlink:href="#mc6b0d2f647" y="49.716881"/>
     <use style="fill:#98df8a;stroke:#ffffff;stroke-linejoin:miter;stroke-width:0.75;" x="712.924112" xlink:href="#mc6b0d2f647" y="49.521941"/>
     <use style="fill:#98df8a;stroke:#ffffff;stroke-linejoin:miter;stroke-width:0.75;" x="720.059376" xlink:href="#mc6b0d2f647" y="49.229532"/>
     <use style="fill:#98df8a;stroke:#ffffff;stroke-linejoin:miter;stroke-width:0.75;" x="727.194641" xlink:href="#mc6b0d2f647" y="49.132062"/>
     <use style="fill:#98df8a;stroke:#ffffff;stroke-linejoin:miter;stroke-width:0.75;" x="734.329906" xlink:href="#mc6b0d2f647" y="49.132062"/>
     <use style="fill:#98df8a;stroke:#ffffff;stroke-linejoin:miter;stroke-width:0.75;" x="741.46517" xlink:href="#mc6b0d2f647" y="47.864955"/>
    </g>
   </g>
   <g id="line2d_22">
    <path clip-path="url(#p625f7cc877)" d="M 92.15608 257.327517 
L 99.291344 218.534544 
L 106.426609 208.202747 
L 113.561874 170.87182 
L 120.697138 152.352562 
L 127.832403 146.796784 
L 134.967668 141.923295 
L 142.102933 130.324391 
L 149.238197 128.959814 
L 156.373462 123.891385 
L 163.508727 121.357171 
L 170.643992 119.310305 
L 177.779256 118.725487 
L 184.914521 117.068501 
L 192.049786 116.971031 
L 199.185051 111.902602 
L 206.320315 103.520201 
L 213.45558 103.032852 
L 220.590845 103.032852 
L 227.72611 98.841651 
L 234.861374 97.769484 
L 241.996639 97.672014 
L 249.131904 95.917558 
L 256.267168 92.798525 
L 263.402433 92.798525 
L 270.537698 91.531418 
L 277.672963 91.044069 
L 284.808227 90.36178 
L 291.943492 90.166841 
L 299.078757 88.802264 
L 306.214022 83.831305 
L 313.349286 83.441426 
L 320.484551 83.441426 
L 327.619816 83.149016 
L 334.755081 82.271788 
L 341.890345 81.102151 
L 349.02561 77.593239 
L 356.160875 77.593239 
L 363.296139 77.495769 
L 370.431404 77.398299 
L 377.566669 74.084326 
L 384.701934 72.037461 
L 391.837198 70.770354 
L 398.972463 70.477945 
L 406.107728 70.477945 
L 413.242993 69.795656 
L 420.378257 69.698186 
L 427.513522 69.698186 
L 434.648787 67.651321 
L 441.784052 65.799395 
L 448.919316 65.604455 
L 456.054581 64.727227 
L 463.189846 64.727227 
L 470.325111 64.727227 
L 477.460375 63.75253 
L 484.59564 63.65506 
L 491.730905 63.070241 
L 498.866169 63.070241 
L 506.001434 62.680362 
L 513.136699 62.290483 
L 520.271964 62.290483 
L 527.407228 62.290483 
L 534.542493 62.290483 
L 541.677758 62.290483 
L 548.813023 62.290483 
L 555.948287 61.510725 
L 563.083552 61.510725 
L 570.218817 61.510725 
L 577.354082 61.510725 
L 584.489346 60.828436 
L 591.624611 60.730966 
L 598.759876 60.633496 
L 605.89514 60.536027 
L 613.030405 60.341087 
L 620.16567 60.243617 
L 627.300935 56.344826 
L 634.436199 56.344826 
L 641.571464 54.68784 
L 648.706729 54.4929 
L 655.841994 54.4929 
L 662.977258 54.4929 
L 670.112523 54.4929 
L 677.247788 53.420733 
L 684.383053 53.420733 
L 691.518317 53.420733 
L 698.653582 52.738444 
L 705.788847 52.543505 
L 712.924112 52.543505 
L 720.059376 52.543505 
L 727.194641 52.543505 
L 734.329906 52.153625 
L 741.46517 52.153625 
" style="fill:none;stroke:#d62728;stroke-linecap:square;stroke-width:1.5;"/>
    <defs>
     <path d="M 0 -3 
L -3 3 
L 3 3 
z
" id="m5e5ef50458" style="stroke:#ffffff;stroke-linejoin:miter;stroke-width:0.75;"/>
    </defs>
    <g clip-path="url(#p625f7cc877)">
     <use style="fill:#d62728;stroke:#ffffff;stroke-linejoin:miter;stroke-width:0.75;" x="92.15608" xlink:href="#m5e5ef50458" y="257.327517"/>
     <use style="fill:#d62728;stroke:#ffffff;stroke-linejoin:miter;stroke-width:0.75;" x="99.291344" xlink:href="#m5e5ef50458" y="218.534544"/>
     <use style="fill:#d62728;stroke:#ffffff;stroke-linejoin:miter;stroke-width:0.75;" x="106.426609" xlink:href="#m5e5ef50458" y="208.202747"/>
     <use style="fill:#d62728;stroke:#ffffff;stroke-linejoin:miter;stroke-width:0.75;" x="113.561874" xlink:href="#m5e5ef50458" y="170.87182"/>
     <use style="fill:#d62728;stroke:#ffffff;stroke-linejoin:miter;stroke-width:0.75;" x="120.697138" xlink:href="#m5e5ef50458" y="152.352562"/>
     <use style="fill:#d62728;stroke:#ffffff;stroke-linejoin:miter;stroke-width:0.75;" x="127.832403" xlink:href="#m5e5ef50458" y="146.796784"/>
     <use style="fill:#d62728;stroke:#ffffff;stroke-linejoin:miter;stroke-width:0.75;" x="134.967668" xlink:href="#m5e5ef50458" y="141.923295"/>
     <use style="fill:#d62728;stroke:#ffffff;stroke-linejoin:miter;stroke-width:0.75;" x="142.102933" xlink:href="#m5e5ef50458" y="130.324391"/>
     <use style="fill:#d62728;stroke:#ffffff;stroke-linejoin:miter;stroke-width:0.75;" x="149.238197" xlink:href="#m5e5ef50458" y="128.959814"/>
     <use style="fill:#d62728;stroke:#ffffff;stroke-linejoin:miter;stroke-width:0.75;" x="156.373462" xlink:href="#m5e5ef50458" y="123.891385"/>
     <use style="fill:#d62728;stroke:#ffffff;stroke-linejoin:miter;stroke-width:0.75;" x="163.508727" xlink:href="#m5e5ef50458" y="121.357171"/>
     <use style="fill:#d62728;stroke:#ffffff;stroke-linejoin:miter;stroke-width:0.75;" x="170.643992" xlink:href="#m5e5ef50458" y="119.310305"/>
     <use style="fill:#d62728;stroke:#ffffff;stroke-linejoin:miter;stroke-width:0.75;" x="177.779256" xlink:href="#m5e5ef50458" y="118.725487"/>
     <use style="fill:#d62728;stroke:#ffffff;stroke-linejoin:miter;stroke-width:0.75;" x="184.914521" xlink:href="#m5e5ef50458" y="117.068501"/>
     <use style="fill:#d62728;stroke:#ffffff;stroke-linejoin:miter;stroke-width:0.75;" x="192.049786" xlink:href="#m5e5ef50458" y="116.971031"/>
     <use style="fill:#d62728;stroke:#ffffff;stroke-linejoin:miter;stroke-width:0.75;" x="199.185051" xlink:href="#m5e5ef50458" y="111.902602"/>
     <use style="fill:#d62728;stroke:#ffffff;stroke-linejoin:miter;stroke-width:0.75;" x="206.320315" xlink:href="#m5e5ef50458" y="103.520201"/>
     <use style="fill:#d62728;stroke:#ffffff;stroke-linejoin:miter;stroke-width:0.75;" x="213.45558" xlink:href="#m5e5ef50458" y="103.032852"/>
     <use style="fill:#d62728;stroke:#ffffff;stroke-linejoin:miter;stroke-width:0.75;" x="220.590845" xlink:href="#m5e5ef50458" y="103.032852"/>
     <use style="fill:#d62728;stroke:#ffffff;stroke-linejoin:miter;stroke-width:0.75;" x="227.72611" xlink:href="#m5e5ef50458" y="98.841651"/>
     <use style="fill:#d62728;stroke:#ffffff;stroke-linejoin:miter;stroke-width:0.75;" x="234.861374" xlink:href="#m5e5ef50458" y="97.769484"/>
     <use style="fill:#d62728;stroke:#ffffff;stroke-linejoin:miter;stroke-width:0.75;" x="241.996639" xlink:href="#m5e5ef50458" y="97.672014"/>
     <use style="fill:#d62728;stroke:#ffffff;stroke-linejoin:miter;stroke-width:0.75;" x="249.131904" xlink:href="#m5e5ef50458" y="95.917558"/>
     <use style="fill:#d62728;stroke:#ffffff;stroke-linejoin:miter;stroke-width:0.75;" x="256.267168" xlink:href="#m5e5ef50458" y="92.798525"/>
     <use style="fill:#d62728;stroke:#ffffff;stroke-linejoin:miter;stroke-width:0.75;" x="263.402433" xlink:href="#m5e5ef50458" y="92.798525"/>
     <use style="fill:#d62728;stroke:#ffffff;stroke-linejoin:miter;stroke-width:0.75;" x="270.537698" xlink:href="#m5e5ef50458" y="91.531418"/>
     <use style="fill:#d62728;stroke:#ffffff;stroke-linejoin:miter;stroke-width:0.75;" x="277.672963" xlink:href="#m5e5ef50458" y="91.044069"/>
     <use style="fill:#d62728;stroke:#ffffff;stroke-linejoin:miter;stroke-width:0.75;" x="284.808227" xlink:href="#m5e5ef50458" y="90.36178"/>
     <use style="fill:#d62728;stroke:#ffffff;stroke-linejoin:miter;stroke-width:0.75;" x="291.943492" xlink:href="#m5e5ef50458" y="90.166841"/>
     <use style="fill:#d62728;stroke:#ffffff;stroke-linejoin:miter;stroke-width:0.75;" x="299.078757" xlink:href="#m5e5ef50458" y="88.802264"/>
     <use style="fill:#d62728;stroke:#ffffff;stroke-linejoin:miter;stroke-width:0.75;" x="306.214022" xlink:href="#m5e5ef50458" y="83.831305"/>
     <use style="fill:#d62728;stroke:#ffffff;stroke-linejoin:miter;stroke-width:0.75;" x="313.349286" xlink:href="#m5e5ef50458" y="83.441426"/>
     <use style="fill:#d62728;stroke:#ffffff;stroke-linejoin:miter;stroke-width:0.75;" x="320.484551" xlink:href="#m5e5ef50458" y="83.441426"/>
     <use style="fill:#d62728;stroke:#ffffff;stroke-linejoin:miter;stroke-width:0.75;" x="327.619816" xlink:href="#m5e5ef50458" y="83.149016"/>
     <use style="fill:#d62728;stroke:#ffffff;stroke-linejoin:miter;stroke-width:0.75;" x="334.755081" xlink:href="#m5e5ef50458" y="82.271788"/>
     <use style="fill:#d62728;stroke:#ffffff;stroke-linejoin:miter;stroke-width:0.75;" x="341.890345" xlink:href="#m5e5ef50458" y="81.102151"/>
     <use style="fill:#d62728;stroke:#ffffff;stroke-linejoin:miter;stroke-width:0.75;" x="349.02561" xlink:href="#m5e5ef50458" y="77.593239"/>
     <use style="fill:#d62728;stroke:#ffffff;stroke-linejoin:miter;stroke-width:0.75;" x="356.160875" xlink:href="#m5e5ef50458" y="77.593239"/>
     <use style="fill:#d62728;stroke:#ffffff;stroke-linejoin:miter;stroke-width:0.75;" x="363.296139" xlink:href="#m5e5ef50458" y="77.495769"/>
     <use style="fill:#d62728;stroke:#ffffff;stroke-linejoin:miter;stroke-width:0.75;" x="370.431404" xlink:href="#m5e5ef50458" y="77.398299"/>
     <use style="fill:#d62728;stroke:#ffffff;stroke-linejoin:miter;stroke-width:0.75;" x="377.566669" xlink:href="#m5e5ef50458" y="74.084326"/>
     <use style="fill:#d62728;stroke:#ffffff;stroke-linejoin:miter;stroke-width:0.75;" x="384.701934" xlink:href="#m5e5ef50458" y="72.037461"/>
     <use style="fill:#d62728;stroke:#ffffff;stroke-linejoin:miter;stroke-width:0.75;" x="391.837198" xlink:href="#m5e5ef50458" y="70.770354"/>
     <use style="fill:#d62728;stroke:#ffffff;stroke-linejoin:miter;stroke-width:0.75;" x="398.972463" xlink:href="#m5e5ef50458" y="70.477945"/>
     <use style="fill:#d62728;stroke:#ffffff;stroke-linejoin:miter;stroke-width:0.75;" x="406.107728" xlink:href="#m5e5ef50458" y="70.477945"/>
     <use style="fill:#d62728;stroke:#ffffff;stroke-linejoin:miter;stroke-width:0.75;" x="413.242993" xlink:href="#m5e5ef50458" y="69.795656"/>
     <use style="fill:#d62728;stroke:#ffffff;stroke-linejoin:miter;stroke-width:0.75;" x="420.378257" xlink:href="#m5e5ef50458" y="69.698186"/>
     <use style="fill:#d62728;stroke:#ffffff;stroke-linejoin:miter;stroke-width:0.75;" x="427.513522" xlink:href="#m5e5ef50458" y="69.698186"/>
     <use style="fill:#d62728;stroke:#ffffff;stroke-linejoin:miter;stroke-width:0.75;" x="434.648787" xlink:href="#m5e5ef50458" y="67.651321"/>
     <use style="fill:#d62728;stroke:#ffffff;stroke-linejoin:miter;stroke-width:0.75;" x="441.784052" xlink:href="#m5e5ef50458" y="65.799395"/>
     <use style="fill:#d62728;stroke:#ffffff;stroke-linejoin:miter;stroke-width:0.75;" x="448.919316" xlink:href="#m5e5ef50458" y="65.604455"/>
     <use style="fill:#d62728;stroke:#ffffff;stroke-linejoin:miter;stroke-width:0.75;" x="456.054581" xlink:href="#m5e5ef50458" y="64.727227"/>
     <use style="fill:#d62728;stroke:#ffffff;stroke-linejoin:miter;stroke-width:0.75;" x="463.189846" xlink:href="#m5e5ef50458" y="64.727227"/>
     <use style="fill:#d62728;stroke:#ffffff;stroke-linejoin:miter;stroke-width:0.75;" x="470.325111" xlink:href="#m5e5ef50458" y="64.727227"/>
     <use style="fill:#d62728;stroke:#ffffff;stroke-linejoin:miter;stroke-width:0.75;" x="477.460375" xlink:href="#m5e5ef50458" y="63.75253"/>
     <use style="fill:#d62728;stroke:#ffffff;stroke-linejoin:miter;stroke-width:0.75;" x="484.59564" xlink:href="#m5e5ef50458" y="63.65506"/>
     <use style="fill:#d62728;stroke:#ffffff;stroke-linejoin:miter;stroke-width:0.75;" x="491.730905" xlink:href="#m5e5ef50458" y="63.070241"/>
     <use style="fill:#d62728;stroke:#ffffff;stroke-linejoin:miter;stroke-width:0.75;" x="498.866169" xlink:href="#m5e5ef50458" y="63.070241"/>
     <use style="fill:#d62728;stroke:#ffffff;stroke-linejoin:miter;stroke-width:0.75;" x="506.001434" xlink:href="#m5e5ef50458" y="62.680362"/>
     <use style="fill:#d62728;stroke:#ffffff;stroke-linejoin:miter;stroke-width:0.75;" x="513.136699" xlink:href="#m5e5ef50458" y="62.290483"/>
     <use style="fill:#d62728;stroke:#ffffff;stroke-linejoin:miter;stroke-width:0.75;" x="520.271964" xlink:href="#m5e5ef50458" y="62.290483"/>
     <use style="fill:#d62728;stroke:#ffffff;stroke-linejoin:miter;stroke-width:0.75;" x="527.407228" xlink:href="#m5e5ef50458" y="62.290483"/>
     <use style="fill:#d62728;stroke:#ffffff;stroke-linejoin:miter;stroke-width:0.75;" x="534.542493" xlink:href="#m5e5ef50458" y="62.290483"/>
     <use style="fill:#d62728;stroke:#ffffff;stroke-linejoin:miter;stroke-width:0.75;" x="541.677758" xlink:href="#m5e5ef50458" y="62.290483"/>
     <use style="fill:#d62728;stroke:#ffffff;stroke-linejoin:miter;stroke-width:0.75;" x="548.813023" xlink:href="#m5e5ef50458" y="62.290483"/>
     <use style="fill:#d62728;stroke:#ffffff;stroke-linejoin:miter;stroke-width:0.75;" x="555.948287" xlink:href="#m5e5ef50458" y="61.510725"/>
     <use style="fill:#d62728;stroke:#ffffff;stroke-linejoin:miter;stroke-width:0.75;" x="563.083552" xlink:href="#m5e5ef50458" y="61.510725"/>
     <use style="fill:#d62728;stroke:#ffffff;stroke-linejoin:miter;stroke-width:0.75;" x="570.218817" xlink:href="#m5e5ef50458" y="61.510725"/>
     <use style="fill:#d62728;stroke:#ffffff;stroke-linejoin:miter;stroke-width:0.75;" x="577.354082" xlink:href="#m5e5ef50458" y="61.510725"/>
     <use style="fill:#d62728;stroke:#ffffff;stroke-linejoin:miter;stroke-width:0.75;" x="584.489346" xlink:href="#m5e5ef50458" y="60.828436"/>
     <use style="fill:#d62728;stroke:#ffffff;stroke-linejoin:miter;stroke-width:0.75;" x="591.624611" xlink:href="#m5e5ef50458" y="60.730966"/>
     <use style="fill:#d62728;stroke:#ffffff;stroke-linejoin:miter;stroke-width:0.75;" x="598.759876" xlink:href="#m5e5ef50458" y="60.633496"/>
     <use style="fill:#d62728;stroke:#ffffff;stroke-linejoin:miter;stroke-width:0.75;" x="605.89514" xlink:href="#m5e5ef50458" y="60.536027"/>
     <use style="fill:#d62728;stroke:#ffffff;stroke-linejoin:miter;stroke-width:0.75;" x="613.030405" xlink:href="#m5e5ef50458" y="60.341087"/>
     <use style="fill:#d62728;stroke:#ffffff;stroke-linejoin:miter;stroke-width:0.75;" x="620.16567" xlink:href="#m5e5ef50458" y="60.243617"/>
     <use style="fill:#d62728;stroke:#ffffff;stroke-linejoin:miter;stroke-width:0.75;" x="627.300935" xlink:href="#m5e5ef50458" y="56.344826"/>
     <use style="fill:#d62728;stroke:#ffffff;stroke-linejoin:miter;stroke-width:0.75;" x="634.436199" xlink:href="#m5e5ef50458" y="56.344826"/>
     <use style="fill:#d62728;stroke:#ffffff;stroke-linejoin:miter;stroke-width:0.75;" x="641.571464" xlink:href="#m5e5ef50458" y="54.68784"/>
     <use style="fill:#d62728;stroke:#ffffff;stroke-linejoin:miter;stroke-width:0.75;" x="648.706729" xlink:href="#m5e5ef50458" y="54.4929"/>
     <use style="fill:#d62728;stroke:#ffffff;stroke-linejoin:miter;stroke-width:0.75;" x="655.841994" xlink:href="#m5e5ef50458" y="54.4929"/>
     <use style="fill:#d62728;stroke:#ffffff;stroke-linejoin:miter;stroke-width:0.75;" x="662.977258" xlink:href="#m5e5ef50458" y="54.4929"/>
     <use style="fill:#d62728;stroke:#ffffff;stroke-linejoin:miter;stroke-width:0.75;" x="670.112523" xlink:href="#m5e5ef50458" y="54.4929"/>
     <use style="fill:#d62728;stroke:#ffffff;stroke-linejoin:miter;stroke-width:0.75;" x="677.247788" xlink:href="#m5e5ef50458" y="53.420733"/>
     <use style="fill:#d62728;stroke:#ffffff;stroke-linejoin:miter;stroke-width:0.75;" x="684.383053" xlink:href="#m5e5ef50458" y="53.420733"/>
     <use style="fill:#d62728;stroke:#ffffff;stroke-linejoin:miter;stroke-width:0.75;" x="691.518317" xlink:href="#m5e5ef50458" y="53.420733"/>
     <use style="fill:#d62728;stroke:#ffffff;stroke-linejoin:miter;stroke-width:0.75;" x="698.653582" xlink:href="#m5e5ef50458" y="52.738444"/>
     <use style="fill:#d62728;stroke:#ffffff;stroke-linejoin:miter;stroke-width:0.75;" x="705.788847" xlink:href="#m5e5ef50458" y="52.543505"/>
     <use style="fill:#d62728;stroke:#ffffff;stroke-linejoin:miter;stroke-width:0.75;" x="712.924112" xlink:href="#m5e5ef50458" y="52.543505"/>
     <use style="fill:#d62728;stroke:#ffffff;stroke-linejoin:miter;stroke-width:0.75;" x="720.059376" xlink:href="#m5e5ef50458" y="52.543505"/>
     <use style="fill:#d62728;stroke:#ffffff;stroke-linejoin:miter;stroke-width:0.75;" x="727.194641" xlink:href="#m5e5ef50458" y="52.543505"/>
     <use style="fill:#d62728;stroke:#ffffff;stroke-linejoin:miter;stroke-width:0.75;" x="734.329906" xlink:href="#m5e5ef50458" y="52.153625"/>
     <use style="fill:#d62728;stroke:#ffffff;stroke-linejoin:miter;stroke-width:0.75;" x="741.46517" xlink:href="#m5e5ef50458" y="52.153625"/>
    </g>
   </g>
   <g id="line2d_23"/>
   <g id="line2d_24"/>
   <g id="line2d_25"/>
   <g id="line2d_26">
    <path clip-path="url(#p625f7cc877)" d="M 741.46517 288.430125 
L 741.46517 22.318125 
" style="fill:none;stroke:#ff0000;stroke-linecap:square;stroke-width:1.5;"/>
   </g>
   <g id="patch_3">
    <path d="M 59.690625 274.09232 
L 59.690625 40.164842 
" style="fill:none;stroke:#000000;stroke-linecap:square;stroke-linejoin:miter;stroke-width:0.8;"/>
   </g>
   <g id="patch_4">
    <path d="M 92.15608 288.430125 
L 693.896739 288.430125 
" style="fill:none;stroke:#000000;stroke-linecap:square;stroke-linejoin:miter;stroke-width:0.8;"/>
   </g>
   <g id="text_22">
    <!-- curl_curl_fuzzer_http (23h, 20 trials/fuzzer) -->
    <g transform="translate(287.924062 16.318125)scale(0.12 -0.12)">
     <defs>
      <path d="M 603 4863 
L 1178 4863 
L 1178 0 
L 603 0 
L 603 4863 
z
" id="DejaVuSans-6c" transform="scale(0.015625)"/>
      <path d="M 3263 -1063 
L 3263 -1509 
L -63 -1509 
L -63 -1063 
L 3263 -1063 
z
" id="DejaVuSans-5f" transform="scale(0.015625)"/>
      <path d="M 2375 4863 
L 2375 4384 
L 1825 4384 
Q 1516 4384 1395 4259 
Q 1275 4134 1275 3809 
L 1275 3500 
L 2222 3500 
L 2222 3053 
L 1275 3053 
L 1275 0 
L 697 0 
L 697 3053 
L 147 3053 
L 147 3500 
L 697 3500 
L 697 3744 
Q 697 4328 969 4595 
Q 1241 4863 1831 4863 
L 2375 4863 
z
" id="DejaVuSans-66" transform="scale(0.015625)"/>
      <path d="M 353 3500 
L 3084 3500 
L 3084 2975 
L 922 459 
L 3084 459 
L 3084 0 
L 275 0 
L 275 525 
L 2438 3041 
L 353 3041 
L 353 3500 
z
" id="DejaVuSans-7a" transform="scale(0.015625)"/>
      <path d="M 1159 525 
L 1159 -1331 
L 581 -1331 
L 581 3500 
L 1159 3500 
L 1159 2969 
Q 1341 3281 1617 3432 
Q 1894 3584 2278 3584 
Q 2916 3584 3314 3078 
Q 3713 2572 3713 1747 
Q 3713 922 3314 415 
Q 2916 -91 2278 -91 
Q 1894 -91 1617 61 
Q 1341 213 1159 525 
z
M 3116 1747 
Q 3116 2381 2855 2742 
Q 2594 3103 2138 3103 
Q 1681 3103 1420 2742 
Q 1159 2381 1159 1747 
Q 1159 1113 1420 752 
Q 1681 391 2138 391 
Q 2594 391 2855 752 
Q 3116 1113 3116 1747 
z
" id="DejaVuSans-70" transform="scale(0.015625)"/>
      <path d="M 750 794 
L 1409 794 
L 1409 256 
L 897 -744 
L 494 -744 
L 750 256 
L 750 794 
z
" id="DejaVuSans-2c" transform="scale(0.015625)"/>
      <path d="M 2834 3397 
L 2834 2853 
Q 2591 2978 2328 3040 
Q 2066 3103 1784 3103 
Q 1356 3103 1142 2972 
Q 928 2841 928 2578 
Q 928 2378 1081 2264 
Q 1234 2150 1697 2047 
L 1894 2003 
Q 2506 1872 2764 1633 
Q 3022 1394 3022 966 
Q 3022 478 2636 193 
Q 2250 -91 1575 -91 
Q 1294 -91 989 -36 
Q 684 19 347 128 
L 347 722 
Q 666 556 975 473 
Q 1284 391 1588 391 
Q 1994 391 2212 530 
Q 2431 669 2431 922 
Q 2431 1156 2273 1281 
Q 2116 1406 1581 1522 
L 1381 1569 
Q 847 1681 609 1914 
Q 372 2147 372 2553 
Q 372 3047 722 3315 
Q 1072 3584 1716 3584 
Q 2034 3584 2315 3537 
Q 2597 3491 2834 3397 
z
" id="DejaVuSans-73" transform="scale(0.015625)"/>
      <path d="M 1625 4666 
L 2156 4666 
L 531 -594 
L 0 -594 
L 1625 4666 
z
" id="DejaVuSans-2f" transform="scale(0.015625)"/>
     </defs>
     <use xlink:href="#DejaVuSans-63"/>
     <use x="54.980469" xlink:href="#DejaVuSans-75"/>
     <use x="118.359375" xlink:href="#DejaVuSans-72"/>
     <use x="159.472656" xlink:href="#DejaVuSans-6c"/>
     <use x="187.255859" xlink:href="#DejaVuSans-5f"/>
     <use x="237.255859" xlink:href="#DejaVuSans-63"/>
     <use x="292.236328" xlink:href="#DejaVuSans-75"/>
     <use x="355.615234" xlink:href="#DejaVuSans-72"/>
     <use x="396.728516" xlink:href="#DejaVuSans-6c"/>
     <use x="424.511719" xlink:href="#DejaVuSans-5f"/>
     <use x="474.511719" xlink:href="#DejaVuSans-66"/>
     <use x="509.716797" xlink:href="#DejaVuSans-75"/>
     <use x="573.095703" xlink:href="#DejaVuSans-7a"/>
     <use x="625.585938" xlink:href="#DejaVuSans-7a"/>
     <use x="678.076172" xlink:href="#DejaVuSans-65"/>
     <use x="739.599609" xlink:href="#DejaVuSans-72"/>
     <use x="780.712891" xlink:href="#DejaVuSans-5f"/>
     <use x="830.712891" xlink:href="#DejaVuSans-68"/>
     <use x="894.091797" xlink:href="#DejaVuSans-74"/>
     <use x="933.300781" xlink:href="#DejaVuSans-74"/>
     <use x="972.509766" xlink:href="#DejaVuSans-70"/>
     <use x="1035.986328" xlink:href="#DejaVuSans-20"/>
     <use x="1067.773438" xlink:href="#DejaVuSans-28"/>
     <use x="1106.787109" xlink:href="#DejaVuSans-32"/>
     <use x="1170.410156" xlink:href="#DejaVuSans-33"/>
     <use x="1234.033203" xlink:href="#DejaVuSans-68"/>
     <use x="1297.412109" xlink:href="#DejaVuSans-2c"/>
     <use x="1329.199219" xlink:href="#DejaVuSans-20"/>
     <use x="1360.986328" xlink:href="#DejaVuSans-32"/>
     <use x="1424.609375" xlink:href="#DejaVuSans-30"/>
     <use x="1488.232422" xlink:href="#DejaVuSans-20"/>
     <use x="1520.019531" xlink:href="#DejaVuSans-74"/>
     <use x="1559.228516" xlink:href="#DejaVuSans-72"/>
     <use x="1600.341797" xlink:href="#DejaVuSans-69"/>
     <use x="1628.125" xlink:href="#DejaVuSans-61"/>
     <use x="1689.404297" xlink:href="#DejaVuSans-6c"/>
     <use x="1717.1875" xlink:href="#DejaVuSans-73"/>
     <use x="1769.287109" xlink:href="#DejaVuSans-2f"/>
     <use x="1802.978516" xlink:href="#DejaVuSans-66"/>
     <use x="1838.183594" xlink:href="#DejaVuSans-75"/>
     <use x="1901.5625" xlink:href="#DejaVuSans-7a"/>
     <use x="1954.052734" xlink:href="#DejaVuSans-7a"/>
     <use x="2006.542969" xlink:href="#DejaVuSans-65"/>
     <use x="2068.066406" xlink:href="#DejaVuSans-72"/>
     <use x="2109.179688" xlink:href="#DejaVuSans-29"/>
    </g>
   </g>
   <g id="legend_1">
    <g id="line2d_27">
     <path d="M 777.930625 30.416562 
L 797.930625 30.416562 
" style="fill:none;stroke:#1f77b4;stroke-linecap:square;stroke-width:1.5;"/>
    </g>
    <g id="line2d_28">
     <defs>
      <path d="M 0 3 
C 0.795609 3 1.55874 2.683901 2.12132 2.12132 
C 2.683901 1.55874 3 0.795609 3 0 
C 3 -0.795609 2.683901 -1.55874 2.12132 -2.12132 
C 1.55874 -2.683901 0.795609 -3 0 -3 
C -0.795609 -3 -1.55874 -2.683901 -2.12132 -2.12132 
C -2.683901 -1.55874 -3 -0.795609 -3 0 
C -3 0.795609 -2.683901 1.55874 -2.12132 2.12132 
C -1.55874 2.683901 -0.795609 3 0 3 
z
" id="m4097a1c4cc" style="stroke:#1f77b4;"/>
     </defs>
     <g>
      <use style="fill:#1f77b4;stroke:#1f77b4;" x="787.930625" xlink:href="#m4097a1c4cc" y="30.416562"/>
     </g>
    </g>
    <g id="text_23">
     <!-- afl_2_52_b -->
     <g transform="translate(805.930625 33.916562)scale(0.1 -0.1)">
      <defs>
       <path d="M 3116 1747 
Q 3116 2381 2855 2742 
Q 2594 3103 2138 3103 
Q 1681 3103 1420 2742 
Q 1159 2381 1159 1747 
Q 1159 1113 1420 752 
Q 1681 391 2138 391 
Q 2594 391 2855 752 
Q 3116 1113 3116 1747 
z
M 1159 2969 
Q 1341 3281 1617 3432 
Q 1894 3584 2278 3584 
Q 2916 3584 3314 3078 
Q 3713 2572 3713 1747 
Q 3713 922 3314 415 
Q 2916 -91 2278 -91 
Q 1894 -91 1617 61 
Q 1341 213 1159 525 
L 1159 0 
L 581 0 
L 581 4863 
L 1159 4863 
L 1159 2969 
z
" id="DejaVuSans-62" transform="scale(0.015625)"/>
      </defs>
      <use xlink:href="#DejaVuSans-61"/>
      <use x="61.279297" xlink:href="#DejaVuSans-66"/>
      <use x="96.484375" xlink:href="#DejaVuSans-6c"/>
      <use x="124.267578" xlink:href="#DejaVuSans-5f"/>
      <use x="174.267578" xlink:href="#DejaVuSans-32"/>
      <use x="237.890625" xlink:href="#DejaVuSans-5f"/>
      <use x="287.890625" xlink:href="#DejaVuSans-35"/>
      <use x="351.513672" xlink:href="#DejaVuSans-32"/>
      <use x="415.136719" xlink:href="#DejaVuSans-5f"/>
      <use x="465.136719" xlink:href="#DejaVuSans-62"/>
     </g>
    </g>
    <g id="line2d_29">
     <path d="M 777.930625 45.372813 
L 797.930625 45.372813 
" style="fill:none;stroke:#98df8a;stroke-linecap:square;stroke-width:1.5;"/>
    </g>
    <g id="line2d_30">
     <defs>
      <path d="M -0 3 
L 3 -3 
L -3 -3 
z
" id="mac27657011" style="stroke:#98df8a;stroke-linejoin:miter;"/>
     </defs>
     <g>
      <use style="fill:#98df8a;stroke:#98df8a;stroke-linejoin:miter;" x="787.930625" xlink:href="#mac27657011" y="45.372813"/>
     </g>
    </g>
    <g id="text_24">
     <!-- fafuzz -->
     <g transform="translate(805.930625 48.872813)scale(0.1 -0.1)">
      <use xlink:href="#DejaVuSans-66"/>
      <use x="35.205078" xlink:href="#DejaVuSans-61"/>
      <use x="96.484375" xlink:href="#DejaVuSans-66"/>
      <use x="131.689453" xlink:href="#DejaVuSans-75"/>
      <use x="195.068359" xlink:href="#DejaVuSans-7a"/>
      <use x="247.558594" xlink:href="#DejaVuSans-7a"/>
     </g>
    </g>
    <g id="line2d_31">
     <path d="M 777.930625 60.050937 
L 797.930625 60.050937 
" style="fill:none;stroke:#d62728;stroke-linecap:square;stroke-width:1.5;"/>
    </g>
    <g id="line2d_32">
     <defs>
      <path d="M 0 -3 
L -3 3 
L 3 3 
z
" id="m36a8130f32" style="stroke:#d62728;stroke-linejoin:miter;"/>
     </defs>
     <g>
      <use style="fill:#d62728;stroke:#d62728;stroke-linejoin:miter;" x="787.930625" xlink:href="#m36a8130f32" y="60.050937"/>
     </g>
    </g>
    <g id="text_25">
     <!-- mopt -->
     <g transform="translate(805.930625 63.550937)scale(0.1 -0.1)">
      <use xlink:href="#DejaVuSans-6d"/>
      <use x="97.412109" xlink:href="#DejaVuSans-6f"/>
      <use x="158.59375" xlink:href="#DejaVuSans-70"/>
      <use x="222.070312" xlink:href="#DejaVuSans-74"/>
     </g>
    </g>
   </g>
  </g>
 </g>
 <defs>
  <clipPath id="p625f7cc877">
   <rect height="266.112" width="714.24" x="59.690625" y="22.318125"/>
  </clipPath>
 </defs>
</svg>
