<?xml version="1.0" encoding="utf-8" standalone="no"?>
<!DOCTYPE svg PUBLIC "-//W3C//DTD SVG 1.1//EN"
  "http://www.w3.org/Graphics/SVG/1.1/DTD/svg11.dtd">
<svg height="325.986375pt" version="1.1" viewBox="0 0 863.630625 325.986375" width="863.630625pt" xmlns="http://www.w3.org/2000/svg" xmlns:xlink="http://www.w3.org/1999/xlink">
 <metadata>
  <rdf:RDF xmlns:cc="http://creativecommons.org/ns#" xmlns:dc="http://purl.org/dc/elements/1.1/" xmlns:rdf="http://www.w3.org/1999/02/22-rdf-syntax-ns#">
   <cc:Work>
    <dc:type rdf:resource="http://purl.org/dc/dcmitype/StillImage"/>
    <dc:date>2021-12-16T18:42:50.177339</dc:date>
    <dc:format>image/svg+xml</dc:format>
    <dc:creator>
     <cc:Agent>
      <dc:title>Matplotlib v3.4.1, https://matplotlib.org/</dc:title>
     </cc:Agent>
    </dc:creator>
   </cc:Work>
  </rdf:RDF>
 </metadata>
 <defs>
  <style type="text/css">*{stroke-linecap:butt;stroke-linejoin:round;}</style>
 </defs>
 <g id="figure_1">
  <g id="patch_1">
   <path d="M 0 325.986375 
L 863.630625 325.986375 
L 863.630625 0 
L 0 0 
z
" style="fill:#ffffff;"/>
  </g>
  <g id="axes_1">
   <g id="patch_2">
    <path d="M 53.328125 288.430125 
L 767.568125 288.430125 
L 767.568125 22.318125 
L 53.328125 22.318125 
z
" style="fill:#ffffff;"/>
   </g>
   <g id="PolyCollection_1">
    <defs>
     <path d="M 85.79358 -86.779886 
L 85.79358 -49.65225 
L 185.326487 -135.45251 
L 243.549506 -158.411296 
L 284.859395 -185.568259 
L 316.901835 -193.308649 
L 343.082414 -199.34353 
L 365.217778 -199.730549 
L 384.392303 -204.460059 
L 401.305433 -205.903183 
L 416.434742 -206.952727 
L 430.120868 -209.576588 
L 442.615322 -210.49166 
L 454.109105 -214.693118 
L 464.750686 -218.366523 
L 474.657761 -220.203226 
L 483.925211 -223.089473 
L 492.630642 -225.188562 
L 500.83834 -225.844528 
L 508.602157 -226.894072 
L 515.96765 -227.812424 
L 522.973705 -228.861968 
L 529.653776 -228.861968 
L 536.036855 -230.042706 
L 542.14823 -230.961057 
L 548.01009 -232.535374 
L 553.642013 -232.535374 
L 559.061359 -233.322532 
L 564.283594 -233.322532 
L 569.322554 -233.322532 
L 574.190669 -233.191339 
L 578.899144 -233.322532 
L 583.458119 -233.322532 
L 587.876794 -234.10969 
L 592.16355 -234.10969 
L 596.326033 -234.765656 
L 600.371248 -234.765656 
L 604.305621 -234.765656 
L 608.135065 -234.765656 
L 611.865031 -235.159235 
L 615.500558 -235.290428 
L 619.046309 -236.339972 
L 622.506613 -236.599079 
L 625.885489 -236.602358 
L 629.186684 -236.602358 
L 632.413688 -237.389517 
L 635.569763 -237.389517 
L 638.65796 -237.389517 
L 641.681137 -237.389517 
L 644.641977 -238.045482 
L 647.542997 -238.307868 
L 650.386568 -239.095027 
L 653.174921 -239.619799 
L 655.910158 -239.619799 
L 658.594267 -240.013378 
L 661.229123 -240.144571 
L 663.816502 -240.013378 
L 666.358084 -240.275764 
L 668.855462 -240.013378 
L 671.310148 -240.275764 
L 673.723577 -240.013378 
L 676.097112 -240.275764 
L 678.432052 -240.275764 
L 680.729631 -241.456502 
L 682.991027 -241.587695 
L 685.21736 -241.718888 
L 687.409702 -241.850081 
L 689.569076 -243.030818 
L 691.696457 -243.030818 
L 693.792781 -243.030818 
L 695.858941 -243.030818 
L 697.895793 -243.162011 
L 699.904156 -243.162011 
L 701.884817 -245.129907 
L 703.838529 -245.65468 
L 705.766016 -245.65468 
L 707.667973 -244.211556 
L 709.545067 -245.65468 
L 711.397939 -245.65468 
L 713.227208 -245.63828 
L 715.033466 -245.785873 
L 716.817286 -246.179452 
L 718.579217 -246.441838 
L 720.319792 -246.441838 
L 722.03952 -246.441838 
L 723.738897 -246.573031 
L 725.418397 -246.573031 
L 727.078481 -246.573031 
L 728.719591 -248.147348 
L 730.342158 -244.998714 
L 731.946595 -247.228996 
L 733.533304 -247.228996 
L 735.10267 -247.228996 
L 735.10267 -291.57225 
L 735.10267 -291.57225 
L 733.533304 -291.57225 
L 731.946595 -288.817196 
L 730.342158 -288.817196 
L 728.719591 -288.817196 
L 727.078481 -288.817196 
L 725.418397 -288.423617 
L 723.738897 -289.079582 
L 722.03952 -287.898844 
L 720.319792 -287.898844 
L 718.579217 -287.928363 
L 716.817286 -287.898844 
L 715.033466 -287.898844 
L 713.227208 -287.898844 
L 711.397939 -287.242879 
L 709.545067 -287.767651 
L 707.667973 -287.767651 
L 705.766016 -286.980493 
L 703.838529 -286.193335 
L 701.884817 -286.206454 
L 699.904156 -286.206454 
L 697.895793 -286.718107 
L 695.858941 -286.718107 
L 693.792781 -286.718107 
L 691.696457 -286.718107 
L 689.569076 -286.718107 
L 687.409702 -286.718107 
L 685.21736 -286.718107 
L 682.991027 -285.14379 
L 680.729631 -285.14379 
L 678.432052 -285.14379 
L 676.097112 -285.14379 
L 673.723577 -284.225439 
L 671.310148 -283.83186 
L 668.855462 -283.83186 
L 666.358084 -280.945612 
L 663.816502 -280.945612 
L 661.229123 -280.945612 
L 658.594267 -280.945612 
L 655.910158 -280.945612 
L 653.174921 -280.945612 
L 650.386568 -280.945612 
L 647.542997 -280.945612 
L 644.641977 -280.552033 
L 641.681137 -276.747434 
L 638.65796 -279.633682 
L 635.569763 -279.961664 
L 632.413688 -279.633682 
L 629.186684 -279.633682 
L 625.885489 -279.502489 
L 622.506613 -279.240102 
L 619.046309 -279.512328 
L 615.500558 -277.928172 
L 611.865031 -277.928172 
L 608.135065 -276.485048 
L 604.305621 -274.910732 
L 600.371248 -274.910732 
L 596.326033 -274.910732 
L 592.16355 -273.598801 
L 587.876794 -273.598801 
L 583.458119 -273.861187 
L 578.899144 -267.039148 
L 574.190669 -267.039148 
L 569.322554 -266.25199 
L 564.283594 -264.940059 
L 559.061359 -264.677673 
L 553.642013 -264.152901 
L 548.01009 -259.167565 
L 542.14823 -251.558367 
L 536.036855 -250.246437 
L 529.653776 -249.065699 
L 522.973705 -249.065699 
L 515.96765 -248.934506 
L 508.602157 -246.310645 
L 500.83834 -246.310645 
L 492.630642 -242.374853 
L 483.925211 -242.374853 
L 474.657761 -232.928953 
L 464.750686 -231.748215 
L 454.109105 -228.599582 
L 442.615322 -226.894072 
L 430.120868 -225.713335 
L 416.434742 -223.489612 
L 401.305433 -221.777543 
L 384.392303 -220.465612 
L 365.217778 -217.448172 
L 343.082414 -212.987608 
L 316.901835 -208.527044 
L 284.859395 -199.737109 
L 243.549506 -185.17468 
L 185.326487 -158.804875 
L 85.79358 -86.779886 
z
" id="md8442e9e9a" style="stroke:#98df8a;stroke-opacity:0.2;"/>
    </defs>
    <g clip-path="url(#p969de4ba2e)">
     <use style="fill:#98df8a;fill-opacity:0.2;stroke:#98df8a;stroke-opacity:0.2;" x="0" xlink:href="#md8442e9e9a" y="325.986375"/>
    </g>
   </g>
   <g id="PolyCollection_2">
    <defs>
     <path d="M 85.79358 -167.070037 
L 85.79358 -150.933291 
L 185.326487 -168.119582 
L 243.549506 -181.76366 
L 284.859395 -187.142575 
L 316.901835 -194.62058 
L 343.082414 -196.457283 
L 365.217778 -199.868302 
L 384.392303 -203.279322 
L 401.305433 -205.77199 
L 416.434742 -205.77199 
L 430.120868 -208.78943 
L 442.615322 -209.051816 
L 454.109105 -210.363747 
L 464.750686 -211.80687 
L 474.657761 -211.938063 
L 483.925211 -214.299539 
L 492.630642 -217.841751 
L 500.83834 -217.841751 
L 508.602157 -217.972944 
L 515.96765 -219.153682 
L 522.973705 -221.383964 
L 529.653776 -222.039929 
L 536.036855 -222.433508 
L 542.14823 -222.433508 
L 548.01009 -222.695894 
L 553.642013 -223.220666 
L 559.061359 -226.762879 
L 564.283594 -225.975721 
L 569.322554 -227.025265 
L 574.190669 -227.025265 
L 578.899144 -227.68123 
L 583.458119 -227.550037 
L 587.876794 -228.993161 
L 592.16355 -229.121074 
L 596.326033 -229.38674 
L 600.371248 -229.911512 
L 604.305621 -230.829864 
L 608.135065 -231.09225 
L 611.865031 -231.223443 
L 615.500558 -231.879408 
L 619.046309 -232.010601 
L 622.506613 -232.141794 
L 625.885489 -232.141794 
L 629.186684 -234.896849 
L 632.413688 -235.290428 
L 635.569763 -235.290428 
L 638.65796 -235.8152 
L 641.681137 -235.8152 
L 644.641977 -235.8152 
L 647.542997 -236.864745 
L 650.386568 -236.995938 
L 653.174921 -236.995938 
L 655.910158 -237.127131 
L 658.594267 -237.127131 
L 661.229123 -236.864745 
L 663.816502 -239.095027 
L 666.358084 -239.095027 
L 668.855462 -239.22294 
L 671.310148 -239.22622 
L 673.723577 -239.22622 
L 676.097112 -239.619799 
L 678.432052 -240.141291 
L 680.729631 -240.144571 
L 682.991027 -240.406957 
L 685.21736 -240.275764 
L 687.409702 -240.275764 
L 689.569076 -240.406957 
L 691.696457 -240.406957 
L 693.792781 -240.406957 
L 695.858941 -240.406957 
L 697.895793 -241.194116 
L 699.904156 -241.194116 
L 701.884817 -241.325309 
L 703.838529 -241.456502 
L 705.766016 -241.456502 
L 707.667973 -241.456502 
L 709.545067 -241.718888 
L 711.397939 -241.587695 
L 713.227208 -241.718888 
L 715.033466 -241.850081 
L 716.817286 -242.24366 
L 718.579217 -242.24366 
L 720.319792 -242.374853 
L 722.03952 -242.374853 
L 723.738897 -242.374853 
L 725.418397 -244.605135 
L 727.078481 -244.080363 
L 728.719591 -244.080363 
L 730.342158 -244.080363 
L 731.946595 -244.473942 
L 733.533304 -244.473942 
L 735.10267 -244.339469 
L 735.10267 -262.185005 
L 735.10267 -262.185005 
L 733.533304 -261.660233 
L 731.946595 -261.660233 
L 730.342158 -261.660233 
L 728.719591 -270.450168 
L 727.078481 -261.660233 
L 725.418397 -261.660233 
L 723.738897 -261.660233 
L 722.03952 -261.52904 
L 720.319792 -261.266653 
L 718.579217 -269.925395 
L 716.817286 -261.473283 
L 715.033466 -261.266653 
L 713.227208 -260.741881 
L 711.397939 -260.741881 
L 709.545067 -269.400623 
L 707.667973 -256.806089 
L 705.766016 -256.806089 
L 703.838529 -256.806089 
L 701.884817 -256.78969 
L 699.904156 -254.877552 
L 697.895793 -261.266653 
L 695.858941 -261.004267 
L 693.792781 -256.150124 
L 691.696457 -256.150124 
L 689.569076 -255.10058 
L 687.409702 -254.313421 
L 685.21736 -254.182228 
L 682.991027 -254.182228 
L 680.729631 -253.919842 
L 678.432052 -247.586497 
L 676.097112 -246.704224 
L 673.723577 -246.573031 
L 671.310148 -246.573031 
L 668.855462 -242.899625 
L 666.358084 -242.899625 
L 663.816502 -242.899625 
L 661.229123 -241.587695 
L 658.594267 -241.587695 
L 655.910158 -241.613933 
L 653.174921 -242.637239 
L 650.386568 -241.331868 
L 647.542997 -241.613933 
L 644.641977 -241.194116 
L 641.681137 -241.210515 
L 638.65796 -241.062922 
L 635.569763 -240.800536 
L 632.413688 -241.062922 
L 629.186684 -239.619799 
L 625.885489 -239.22622 
L 622.506613 -239.22622 
L 619.046309 -239.22622 
L 615.500558 -238.701447 
L 611.865031 -239.629638 
L 608.135065 -238.606332 
L 604.305621 -239.623079 
L 600.371248 -237.651903 
L 596.326033 -239.095027 
L 592.16355 -238.701447 
L 587.876794 -237.419035 
L 583.458119 -236.471165 
L 578.899144 -236.471165 
L 574.190669 -236.339972 
L 569.322554 -235.946393 
L 564.283594 -236.339972 
L 559.061359 -235.8152 
L 553.642013 -233.716111 
L 548.01009 -233.453725 
L 542.14823 -232.013881 
L 536.036855 -231.879408 
L 529.653776 -231.879408 
L 522.973705 -231.748215 
L 515.96765 -231.748215 
L 508.602157 -230.698671 
L 500.83834 -230.305092 
L 492.630642 -227.68123 
L 483.925211 -225.450948 
L 474.657761 -224.401404 
L 464.750686 -224.794983 
L 454.109105 -222.827087 
L 442.615322 -222.433508 
L 430.120868 -220.727998 
L 416.434742 -216.661014 
L 401.305433 -213.118801 
L 384.392303 -212.594029 
L 365.217778 -212.069257 
L 343.082414 -209.183009 
L 316.901835 -207.739886 
L 284.859395 -202.492163 
L 243.549506 -194.358194 
L 185.326487 -183.600363 
L 85.79358 -167.070037 
z
" id="me9db601270" style="stroke:#1f77b4;stroke-opacity:0.2;"/>
    </defs>
    <g clip-path="url(#p969de4ba2e)">
     <use style="fill:#1f77b4;fill-opacity:0.2;stroke:#1f77b4;stroke-opacity:0.2;" x="0" xlink:href="#me9db601270" y="325.986375"/>
    </g>
   </g>
   <g id="PolyCollection_3">
    <defs>
     <path d="M 85.79358 -146.341534 
L 85.79358 -108.295547 
L 185.326487 -147.653465 
L 243.549506 -178.221447 
L 284.859395 -182.944398 
L 316.901835 -187.142575 
L 343.082414 -189.635243 
L 365.217778 -194.358194 
L 384.392303 -194.227001 
L 401.305433 -203.148129 
L 416.434742 -203.935287 
L 430.120868 -205.640797 
L 442.615322 -206.559148 
L 454.109105 -206.946168 
L 464.750686 -211.80687 
L 474.657761 -213.118801 
L 483.925211 -213.905959 
L 492.630642 -214.168345 
L 500.83834 -215.21789 
L 508.602157 -217.448172 
L 515.96765 -217.972944 
L 522.973705 -218.62563 
L 529.653776 -220.859191 
L 536.036855 -221.64635 
L 542.14823 -221.64635 
L 548.01009 -222.302315 
L 553.642013 -222.564701 
L 559.061359 -225.057369 
L 564.283594 -227.68123 
L 569.322554 -228.337196 
L 574.190669 -228.861968 
L 578.899144 -229.38674 
L 583.458119 -229.255547 
L 587.876794 -230.170619 
L 592.16355 -230.698671 
L 596.326033 -231.879408 
L 600.371248 -231.879408 
L 604.305621 -231.879408 
L 608.135065 -231.879408 
L 611.865031 -231.879408 
L 615.500558 -231.879408 
L 619.046309 -232.272988 
L 622.506613 -232.528814 
L 625.885489 -232.272988 
L 629.186684 -232.666567 
L 632.413688 -232.928953 
L 635.569763 -233.191339 
L 638.65796 -233.191339 
L 641.681137 -233.322532 
L 644.641977 -233.322532 
L 647.542997 -233.847304 
L 650.386568 -234.240883 
L 653.174921 -234.240883 
L 655.910158 -234.240883 
L 658.594267 -235.028042 
L 661.229123 -235.290428 
L 663.816502 -236.077586 
L 666.358084 -236.077586 
L 668.855462 -236.077586 
L 671.310148 -236.208779 
L 673.723577 -236.995938 
L 676.097112 -236.864745 
L 678.432052 -237.127131 
L 680.729631 -237.651903 
L 682.991027 -237.651903 
L 685.21736 -237.783096 
L 687.409702 -237.911009 
L 689.569076 -237.783096 
L 691.696457 -237.783096 
L 693.792781 -237.914289 
L 695.858941 -238.176675 
L 697.895793 -238.307868 
L 699.904156 -238.307868 
L 701.884817 -238.176675 
L 703.838529 -238.307868 
L 705.766016 -238.701447 
L 707.667973 -239.22622 
L 709.545067 -239.22622 
L 711.397939 -239.22622 
L 713.227208 -239.22622 
L 715.033466 -239.22622 
L 716.817286 -239.619799 
L 718.579217 -239.619799 
L 720.319792 -239.619799 
L 722.03952 -239.619799 
L 723.738897 -239.488606 
L 725.418397 -239.619799 
L 727.078481 -239.619799 
L 728.719591 -239.488606 
L 730.342158 -239.488606 
L 731.946595 -239.619799 
L 733.533304 -239.619799 
L 735.10267 -239.619799 
L 735.10267 -278.71861 
L 735.10267 -278.71861 
L 733.533304 -278.846523 
L 731.946595 -278.846523 
L 730.342158 -278.71533 
L 728.719591 -278.71533 
L 727.078481 -274.648345 
L 725.418397 -274.648345 
L 723.738897 -274.517152 
L 722.03952 -273.074029 
L 720.319792 -273.074029 
L 718.579217 -273.106827 
L 716.817286 -273.074029 
L 715.033466 -273.074029 
L 713.227208 -265.071252 
L 711.397939 -265.071252 
L 709.545067 -265.071252 
L 707.667973 -265.071252 
L 705.766016 -266.25199 
L 703.838529 -249.065699 
L 701.884817 -248.67212 
L 699.904156 -254.707001 
L 697.895793 -248.67212 
L 695.858941 -249.98405 
L 693.792781 -248.409734 
L 691.696457 -245.523486 
L 689.569076 -245.326697 
L 687.409702 -244.365708 
L 685.21736 -245.2611 
L 682.991027 -244.867521 
L 680.729631 -244.867521 
L 678.432052 -244.867521 
L 676.097112 -243.162011 
L 673.723577 -243.260406 
L 671.310148 -243.162011 
L 668.855462 -243.260406 
L 666.358084 -239.095027 
L 663.816502 -239.095027 
L 661.229123 -239.095027 
L 658.594267 -239.095027 
L 655.910158 -239.095027 
L 653.174921 -238.967113 
L 650.386568 -238.963834 
L 647.542997 -238.963834 
L 644.641977 -238.452181 
L 641.681137 -238.439061 
L 638.65796 -238.439061 
L 635.569763 -238.452181 
L 632.413688 -238.439061 
L 629.186684 -238.439061 
L 625.885489 -238.452181 
L 622.506613 -238.452181 
L 619.046309 -238.963834 
L 615.500558 -238.963834 
L 611.865031 -237.389517 
L 608.135065 -237.389517 
L 604.305621 -237.127131 
L 600.371248 -237.127131 
L 596.326033 -238.176675 
L 592.16355 -238.176675 
L 587.876794 -236.208779 
L 583.458119 -237.651903 
L 578.899144 -236.077586 
L 574.190669 -235.949673 
L 569.322554 -235.946393 
L 564.283594 -235.159235 
L 559.061359 -233.453725 
L 553.642013 -232.928953 
L 548.01009 -232.141794 
L 542.14823 -232.141794 
L 536.036855 -232.141794 
L 529.653776 -231.09225 
L 522.973705 -230.305092 
L 515.96765 -228.861968 
L 508.602157 -229.124354 
L 500.83834 -227.68123 
L 492.630642 -224.532597 
L 483.925211 -223.35186 
L 474.657761 -223.35186 
L 464.750686 -222.171122 
L 454.109105 -220.203226 
L 442.615322 -214.955504 
L 430.120868 -212.987608 
L 416.434742 -212.987608 
L 401.305433 -211.938063 
L 384.392303 -207.477499 
L 365.217778 -207.349586 
L 343.082414 -204.460059 
L 316.901835 -196.719669 
L 284.859395 -192.783877 
L 243.549506 -187.011382 
L 185.326487 -180.582922 
L 85.79358 -146.341534 
z
" id="m1dbe07eb5a" style="stroke:#d62728;stroke-opacity:0.2;"/>
    </defs>
    <g clip-path="url(#p969de4ba2e)">
     <use style="fill:#d62728;fill-opacity:0.2;stroke:#d62728;stroke-opacity:0.2;" x="0" xlink:href="#m1dbe07eb5a" y="325.986375"/>
    </g>
   </g>
   <g id="matplotlib.axis_1">
    <g id="xtick_1">
     <g id="line2d_1">
      <defs>
       <path d="M 0 0 
L 0 3.5 
" id="me8c5465435" style="stroke:#000000;stroke-width:0.8;"/>
      </defs>
      <g>
       <use style="stroke:#000000;stroke-width:0.8;" x="85.79358" xlink:href="#me8c5465435" y="288.430125"/>
      </g>
     </g>
     <g id="text_1">
      <!-- 14m -->
      <g transform="translate(74.560767 303.028562)scale(0.1 -0.1)">
       <defs>
        <path d="M 794 531 
L 1825 531 
L 1825 4091 
L 703 3866 
L 703 4441 
L 1819 4666 
L 2450 4666 
L 2450 531 
L 3481 531 
L 3481 0 
L 794 0 
L 794 531 
z
" id="DejaVuSans-31" transform="scale(0.015625)"/>
        <path d="M 2419 4116 
L 825 1625 
L 2419 1625 
L 2419 4116 
z
M 2253 4666 
L 3047 4666 
L 3047 1625 
L 3713 1625 
L 3713 1100 
L 3047 1100 
L 3047 0 
L 2419 0 
L 2419 1100 
L 313 1100 
L 313 1709 
L 2253 4666 
z
" id="DejaVuSans-34" transform="scale(0.015625)"/>
        <path d="M 3328 2828 
Q 3544 3216 3844 3400 
Q 4144 3584 4550 3584 
Q 5097 3584 5394 3201 
Q 5691 2819 5691 2113 
L 5691 0 
L 5113 0 
L 5113 2094 
Q 5113 2597 4934 2840 
Q 4756 3084 4391 3084 
Q 3944 3084 3684 2787 
Q 3425 2491 3425 1978 
L 3425 0 
L 2847 0 
L 2847 2094 
Q 2847 2600 2669 2842 
Q 2491 3084 2119 3084 
Q 1678 3084 1418 2786 
Q 1159 2488 1159 1978 
L 1159 0 
L 581 0 
L 581 3500 
L 1159 3500 
L 1159 2956 
Q 1356 3278 1631 3431 
Q 1906 3584 2284 3584 
Q 2666 3584 2933 3390 
Q 3200 3197 3328 2828 
z
" id="DejaVuSans-6d" transform="scale(0.015625)"/>
       </defs>
       <use xlink:href="#DejaVuSans-31"/>
       <use x="63.623047" xlink:href="#DejaVuSans-34"/>
       <use x="127.246094" xlink:href="#DejaVuSans-6d"/>
      </g>
     </g>
    </g>
    <g id="xtick_2">
     <g id="line2d_2">
      <g>
       <use style="stroke:#000000;stroke-width:0.8;" x="144.821836" xlink:href="#me8c5465435" y="288.430125"/>
      </g>
     </g>
     <g id="text_2">
      <!-- 22m -->
      <g transform="translate(133.589024 303.028562)scale(0.1 -0.1)">
       <defs>
        <path d="M 1228 531 
L 3431 531 
L 3431 0 
L 469 0 
L 469 531 
Q 828 903 1448 1529 
Q 2069 2156 2228 2338 
Q 2531 2678 2651 2914 
Q 2772 3150 2772 3378 
Q 2772 3750 2511 3984 
Q 2250 4219 1831 4219 
Q 1534 4219 1204 4116 
Q 875 4013 500 3803 
L 500 4441 
Q 881 4594 1212 4672 
Q 1544 4750 1819 4750 
Q 2544 4750 2975 4387 
Q 3406 4025 3406 3419 
Q 3406 3131 3298 2873 
Q 3191 2616 2906 2266 
Q 2828 2175 2409 1742 
Q 1991 1309 1228 531 
z
" id="DejaVuSans-32" transform="scale(0.015625)"/>
       </defs>
       <use xlink:href="#DejaVuSans-32"/>
       <use x="63.623047" xlink:href="#DejaVuSans-32"/>
       <use x="127.246094" xlink:href="#DejaVuSans-6d"/>
      </g>
     </g>
    </g>
    <g id="xtick_3">
     <g id="line2d_3">
      <g>
       <use style="stroke:#000000;stroke-width:0.8;" x="203.850093" xlink:href="#me8c5465435" y="288.430125"/>
      </g>
     </g>
     <g id="text_3">
      <!-- 34m -->
      <g transform="translate(192.617281 303.028562)scale(0.1 -0.1)">
       <defs>
        <path d="M 2597 2516 
Q 3050 2419 3304 2112 
Q 3559 1806 3559 1356 
Q 3559 666 3084 287 
Q 2609 -91 1734 -91 
Q 1441 -91 1130 -33 
Q 819 25 488 141 
L 488 750 
Q 750 597 1062 519 
Q 1375 441 1716 441 
Q 2309 441 2620 675 
Q 2931 909 2931 1356 
Q 2931 1769 2642 2001 
Q 2353 2234 1838 2234 
L 1294 2234 
L 1294 2753 
L 1863 2753 
Q 2328 2753 2575 2939 
Q 2822 3125 2822 3475 
Q 2822 3834 2567 4026 
Q 2313 4219 1838 4219 
Q 1578 4219 1281 4162 
Q 984 4106 628 3988 
L 628 4550 
Q 988 4650 1302 4700 
Q 1616 4750 1894 4750 
Q 2613 4750 3031 4423 
Q 3450 4097 3450 3541 
Q 3450 3153 3228 2886 
Q 3006 2619 2597 2516 
z
" id="DejaVuSans-33" transform="scale(0.015625)"/>
       </defs>
       <use xlink:href="#DejaVuSans-33"/>
       <use x="63.623047" xlink:href="#DejaVuSans-34"/>
       <use x="127.246094" xlink:href="#DejaVuSans-6d"/>
      </g>
     </g>
    </g>
    <g id="xtick_4">
     <g id="line2d_4">
      <g>
       <use style="stroke:#000000;stroke-width:0.8;" x="262.87835" xlink:href="#me8c5465435" y="288.430125"/>
      </g>
     </g>
     <g id="text_4">
      <!-- 51m -->
      <g transform="translate(251.645538 303.028562)scale(0.1 -0.1)">
       <defs>
        <path d="M 691 4666 
L 3169 4666 
L 3169 4134 
L 1269 4134 
L 1269 2991 
Q 1406 3038 1543 3061 
Q 1681 3084 1819 3084 
Q 2600 3084 3056 2656 
Q 3513 2228 3513 1497 
Q 3513 744 3044 326 
Q 2575 -91 1722 -91 
Q 1428 -91 1123 -41 
Q 819 9 494 109 
L 494 744 
Q 775 591 1075 516 
Q 1375 441 1709 441 
Q 2250 441 2565 725 
Q 2881 1009 2881 1497 
Q 2881 1984 2565 2268 
Q 2250 2553 1709 2553 
Q 1456 2553 1204 2497 
Q 953 2441 691 2322 
L 691 4666 
z
" id="DejaVuSans-35" transform="scale(0.015625)"/>
       </defs>
       <use xlink:href="#DejaVuSans-35"/>
       <use x="63.623047" xlink:href="#DejaVuSans-31"/>
       <use x="127.246094" xlink:href="#DejaVuSans-6d"/>
      </g>
     </g>
    </g>
    <g id="xtick_5">
     <g id="line2d_5">
      <g>
       <use style="stroke:#000000;stroke-width:0.8;" x="321.906607" xlink:href="#me8c5465435" y="288.430125"/>
      </g>
     </g>
     <g id="text_5">
      <!-- 1h:17m -->
      <g transform="translate(302.639419 303.028562)scale(0.1 -0.1)">
       <defs>
        <path d="M 3513 2113 
L 3513 0 
L 2938 0 
L 2938 2094 
Q 2938 2591 2744 2837 
Q 2550 3084 2163 3084 
Q 1697 3084 1428 2787 
Q 1159 2491 1159 1978 
L 1159 0 
L 581 0 
L 581 4863 
L 1159 4863 
L 1159 2956 
Q 1366 3272 1645 3428 
Q 1925 3584 2291 3584 
Q 2894 3584 3203 3211 
Q 3513 2838 3513 2113 
z
" id="DejaVuSans-68" transform="scale(0.015625)"/>
        <path d="M 750 794 
L 1409 794 
L 1409 0 
L 750 0 
L 750 794 
z
M 750 3309 
L 1409 3309 
L 1409 2516 
L 750 2516 
L 750 3309 
z
" id="DejaVuSans-3a" transform="scale(0.015625)"/>
        <path d="M 525 4666 
L 3525 4666 
L 3525 4397 
L 1831 0 
L 1172 0 
L 2766 4134 
L 525 4134 
L 525 4666 
z
" id="DejaVuSans-37" transform="scale(0.015625)"/>
       </defs>
       <use xlink:href="#DejaVuSans-31"/>
       <use x="63.623047" xlink:href="#DejaVuSans-68"/>
       <use x="127.001953" xlink:href="#DejaVuSans-3a"/>
       <use x="160.693359" xlink:href="#DejaVuSans-31"/>
       <use x="224.316406" xlink:href="#DejaVuSans-37"/>
       <use x="287.939453" xlink:href="#DejaVuSans-6d"/>
      </g>
     </g>
    </g>
    <g id="xtick_6">
     <g id="line2d_6">
      <g>
       <use style="stroke:#000000;stroke-width:0.8;" x="380.934864" xlink:href="#me8c5465435" y="288.430125"/>
      </g>
     </g>
     <g id="text_6">
      <!-- 1h:57m -->
      <g transform="translate(361.667676 303.028562)scale(0.1 -0.1)">
       <use xlink:href="#DejaVuSans-31"/>
       <use x="63.623047" xlink:href="#DejaVuSans-68"/>
       <use x="127.001953" xlink:href="#DejaVuSans-3a"/>
       <use x="160.693359" xlink:href="#DejaVuSans-35"/>
       <use x="224.316406" xlink:href="#DejaVuSans-37"/>
       <use x="287.939453" xlink:href="#DejaVuSans-6d"/>
      </g>
     </g>
    </g>
    <g id="xtick_7">
     <g id="line2d_7">
      <g>
       <use style="stroke:#000000;stroke-width:0.8;" x="439.963121" xlink:href="#me8c5465435" y="288.430125"/>
      </g>
     </g>
     <g id="text_7">
      <!-- 2h:56m -->
      <g transform="translate(420.695933 303.028562)scale(0.1 -0.1)">
       <defs>
        <path d="M 2113 2584 
Q 1688 2584 1439 2293 
Q 1191 2003 1191 1497 
Q 1191 994 1439 701 
Q 1688 409 2113 409 
Q 2538 409 2786 701 
Q 3034 994 3034 1497 
Q 3034 2003 2786 2293 
Q 2538 2584 2113 2584 
z
M 3366 4563 
L 3366 3988 
Q 3128 4100 2886 4159 
Q 2644 4219 2406 4219 
Q 1781 4219 1451 3797 
Q 1122 3375 1075 2522 
Q 1259 2794 1537 2939 
Q 1816 3084 2150 3084 
Q 2853 3084 3261 2657 
Q 3669 2231 3669 1497 
Q 3669 778 3244 343 
Q 2819 -91 2113 -91 
Q 1303 -91 875 529 
Q 447 1150 447 2328 
Q 447 3434 972 4092 
Q 1497 4750 2381 4750 
Q 2619 4750 2861 4703 
Q 3103 4656 3366 4563 
z
" id="DejaVuSans-36" transform="scale(0.015625)"/>
       </defs>
       <use xlink:href="#DejaVuSans-32"/>
       <use x="63.623047" xlink:href="#DejaVuSans-68"/>
       <use x="127.001953" xlink:href="#DejaVuSans-3a"/>
       <use x="160.693359" xlink:href="#DejaVuSans-35"/>
       <use x="224.316406" xlink:href="#DejaVuSans-36"/>
       <use x="287.939453" xlink:href="#DejaVuSans-6d"/>
      </g>
     </g>
    </g>
    <g id="xtick_8">
     <g id="line2d_8">
      <g>
       <use style="stroke:#000000;stroke-width:0.8;" x="498.991377" xlink:href="#me8c5465435" y="288.430125"/>
      </g>
     </g>
     <g id="text_8">
      <!-- 4h:26m -->
      <g transform="translate(479.72419 303.028562)scale(0.1 -0.1)">
       <use xlink:href="#DejaVuSans-34"/>
       <use x="63.623047" xlink:href="#DejaVuSans-68"/>
       <use x="127.001953" xlink:href="#DejaVuSans-3a"/>
       <use x="160.693359" xlink:href="#DejaVuSans-32"/>
       <use x="224.316406" xlink:href="#DejaVuSans-36"/>
       <use x="287.939453" xlink:href="#DejaVuSans-6d"/>
      </g>
     </g>
    </g>
    <g id="xtick_9">
     <g id="line2d_9">
      <g>
       <use style="stroke:#000000;stroke-width:0.8;" x="558.019634" xlink:href="#me8c5465435" y="288.430125"/>
      </g>
     </g>
     <g id="text_9">
      <!-- 6h:42m -->
      <g transform="translate(538.752447 303.028562)scale(0.1 -0.1)">
       <use xlink:href="#DejaVuSans-36"/>
       <use x="63.623047" xlink:href="#DejaVuSans-68"/>
       <use x="127.001953" xlink:href="#DejaVuSans-3a"/>
       <use x="160.693359" xlink:href="#DejaVuSans-34"/>
       <use x="224.316406" xlink:href="#DejaVuSans-32"/>
       <use x="287.939453" xlink:href="#DejaVuSans-6d"/>
      </g>
     </g>
    </g>
    <g id="xtick_10">
     <g id="line2d_10">
      <g>
       <use style="stroke:#000000;stroke-width:0.8;" x="617.047891" xlink:href="#me8c5465435" y="288.430125"/>
      </g>
     </g>
     <g id="text_10">
      <!-- 10h:6m -->
      <g transform="translate(597.780704 303.028562)scale(0.1 -0.1)">
       <defs>
        <path d="M 2034 4250 
Q 1547 4250 1301 3770 
Q 1056 3291 1056 2328 
Q 1056 1369 1301 889 
Q 1547 409 2034 409 
Q 2525 409 2770 889 
Q 3016 1369 3016 2328 
Q 3016 3291 2770 3770 
Q 2525 4250 2034 4250 
z
M 2034 4750 
Q 2819 4750 3233 4129 
Q 3647 3509 3647 2328 
Q 3647 1150 3233 529 
Q 2819 -91 2034 -91 
Q 1250 -91 836 529 
Q 422 1150 422 2328 
Q 422 3509 836 4129 
Q 1250 4750 2034 4750 
z
" id="DejaVuSans-30" transform="scale(0.015625)"/>
       </defs>
       <use xlink:href="#DejaVuSans-31"/>
       <use x="63.623047" xlink:href="#DejaVuSans-30"/>
       <use x="127.246094" xlink:href="#DejaVuSans-68"/>
       <use x="190.625" xlink:href="#DejaVuSans-3a"/>
       <use x="224.316406" xlink:href="#DejaVuSans-36"/>
       <use x="287.939453" xlink:href="#DejaVuSans-6d"/>
      </g>
     </g>
    </g>
    <g id="xtick_11">
     <g id="line2d_11">
      <g>
       <use style="stroke:#000000;stroke-width:0.8;" x="676.076148" xlink:href="#me8c5465435" y="288.430125"/>
      </g>
     </g>
     <g id="text_11">
      <!-- 15h:14m -->
      <g transform="translate(653.62771 303.028562)scale(0.1 -0.1)">
       <use xlink:href="#DejaVuSans-31"/>
       <use x="63.623047" xlink:href="#DejaVuSans-35"/>
       <use x="127.246094" xlink:href="#DejaVuSans-68"/>
       <use x="190.625" xlink:href="#DejaVuSans-3a"/>
       <use x="224.316406" xlink:href="#DejaVuSans-31"/>
       <use x="287.939453" xlink:href="#DejaVuSans-34"/>
       <use x="351.5625" xlink:href="#DejaVuSans-6d"/>
      </g>
     </g>
    </g>
    <g id="xtick_12">
     <g id="line2d_12">
      <g>
       <use style="stroke:#000000;stroke-width:0.8;" x="735.104405" xlink:href="#me8c5465435" y="288.430125"/>
      </g>
     </g>
     <g id="text_12">
      <!-- 23h -->
      <g transform="translate(725.573155 303.028562)scale(0.1 -0.1)">
       <use xlink:href="#DejaVuSans-32"/>
       <use x="63.623047" xlink:href="#DejaVuSans-33"/>
       <use x="127.246094" xlink:href="#DejaVuSans-68"/>
      </g>
     </g>
    </g>
    <g id="xtick_13">
     <g id="line2d_13">
      <defs>
       <path d="M 0 0 
L 0 2 
" id="m3218674ab8" style="stroke:#000000;stroke-width:0.6;"/>
      </defs>
      <g>
       <use style="stroke:#000000;stroke-width:0.6;" x="68.88045" xlink:href="#m3218674ab8" y="288.430125"/>
      </g>
     </g>
    </g>
    <g id="xtick_14">
     <g id="line2d_14">
      <g>
       <use style="stroke:#000000;stroke-width:0.6;" x="200.455797" xlink:href="#m3218674ab8" y="288.430125"/>
      </g>
     </g>
    </g>
    <g id="xtick_15">
     <g id="line2d_15">
      <g>
       <use style="stroke:#000000;stroke-width:0.6;" x="258.678816" xlink:href="#m3218674ab8" y="288.430125"/>
      </g>
     </g>
    </g>
    <g id="xtick_16">
     <g id="line2d_16">
      <g>
       <use style="stroke:#000000;stroke-width:0.6;" x="299.988705" xlink:href="#m3218674ab8" y="288.430125"/>
      </g>
     </g>
    </g>
    <g id="xtick_17">
     <g id="line2d_17">
      <g>
       <use style="stroke:#000000;stroke-width:0.6;" x="332.031144" xlink:href="#m3218674ab8" y="288.430125"/>
      </g>
     </g>
    </g>
    <g id="xtick_18">
     <g id="line2d_18">
      <g>
       <use style="stroke:#000000;stroke-width:0.6;" x="358.211724" xlink:href="#m3218674ab8" y="288.430125"/>
      </g>
     </g>
    </g>
    <g id="xtick_19">
     <g id="line2d_19">
      <g>
       <use style="stroke:#000000;stroke-width:0.6;" x="380.347088" xlink:href="#m3218674ab8" y="288.430125"/>
      </g>
     </g>
    </g>
    <g id="xtick_20">
     <g id="line2d_20">
      <g>
       <use style="stroke:#000000;stroke-width:0.6;" x="399.521613" xlink:href="#m3218674ab8" y="288.430125"/>
      </g>
     </g>
    </g>
    <g id="xtick_21">
     <g id="line2d_21">
      <g>
       <use style="stroke:#000000;stroke-width:0.6;" x="416.434742" xlink:href="#m3218674ab8" y="288.430125"/>
      </g>
     </g>
    </g>
    <g id="xtick_22">
     <g id="line2d_22">
      <g>
       <use style="stroke:#000000;stroke-width:0.6;" x="531.09696" xlink:href="#m3218674ab8" y="288.430125"/>
      </g>
     </g>
    </g>
    <g id="xtick_23">
     <g id="line2d_23">
      <g>
       <use style="stroke:#000000;stroke-width:0.6;" x="589.319979" xlink:href="#m3218674ab8" y="288.430125"/>
      </g>
     </g>
    </g>
    <g id="xtick_24">
     <g id="line2d_24">
      <g>
       <use style="stroke:#000000;stroke-width:0.6;" x="630.629868" xlink:href="#m3218674ab8" y="288.430125"/>
      </g>
     </g>
    </g>
    <g id="xtick_25">
     <g id="line2d_25">
      <g>
       <use style="stroke:#000000;stroke-width:0.6;" x="662.672307" xlink:href="#m3218674ab8" y="288.430125"/>
      </g>
     </g>
    </g>
    <g id="xtick_26">
     <g id="line2d_26">
      <g>
       <use style="stroke:#000000;stroke-width:0.6;" x="688.852887" xlink:href="#m3218674ab8" y="288.430125"/>
      </g>
     </g>
    </g>
    <g id="xtick_27">
     <g id="line2d_27">
      <g>
       <use style="stroke:#000000;stroke-width:0.6;" x="710.988251" xlink:href="#m3218674ab8" y="288.430125"/>
      </g>
     </g>
    </g>
    <g id="xtick_28">
     <g id="line2d_28">
      <g>
       <use style="stroke:#000000;stroke-width:0.6;" x="730.162776" xlink:href="#m3218674ab8" y="288.430125"/>
      </g>
     </g>
    </g>
    <g id="xtick_29">
     <g id="line2d_29">
      <g>
       <use style="stroke:#000000;stroke-width:0.6;" x="747.075905" xlink:href="#m3218674ab8" y="288.430125"/>
      </g>
     </g>
    </g>
    <g id="text_13">
     <!-- Time (hour:minute) -->
     <g transform="translate(362.041094 316.706687)scale(0.1 -0.1)">
      <defs>
       <path d="M -19 4666 
L 3928 4666 
L 3928 4134 
L 2272 4134 
L 2272 0 
L 1638 0 
L 1638 4134 
L -19 4134 
L -19 4666 
z
" id="DejaVuSans-54" transform="scale(0.015625)"/>
       <path d="M 603 3500 
L 1178 3500 
L 1178 0 
L 603 0 
L 603 3500 
z
M 603 4863 
L 1178 4863 
L 1178 4134 
L 603 4134 
L 603 4863 
z
" id="DejaVuSans-69" transform="scale(0.015625)"/>
       <path d="M 3597 1894 
L 3597 1613 
L 953 1613 
Q 991 1019 1311 708 
Q 1631 397 2203 397 
Q 2534 397 2845 478 
Q 3156 559 3463 722 
L 3463 178 
Q 3153 47 2828 -22 
Q 2503 -91 2169 -91 
Q 1331 -91 842 396 
Q 353 884 353 1716 
Q 353 2575 817 3079 
Q 1281 3584 2069 3584 
Q 2775 3584 3186 3129 
Q 3597 2675 3597 1894 
z
M 3022 2063 
Q 3016 2534 2758 2815 
Q 2500 3097 2075 3097 
Q 1594 3097 1305 2825 
Q 1016 2553 972 2059 
L 3022 2063 
z
" id="DejaVuSans-65" transform="scale(0.015625)"/>
       <path id="DejaVuSans-20" transform="scale(0.015625)"/>
       <path d="M 1984 4856 
Q 1566 4138 1362 3434 
Q 1159 2731 1159 2009 
Q 1159 1288 1364 580 
Q 1569 -128 1984 -844 
L 1484 -844 
Q 1016 -109 783 600 
Q 550 1309 550 2009 
Q 550 2706 781 3412 
Q 1013 4119 1484 4856 
L 1984 4856 
z
" id="DejaVuSans-28" transform="scale(0.015625)"/>
       <path d="M 1959 3097 
Q 1497 3097 1228 2736 
Q 959 2375 959 1747 
Q 959 1119 1226 758 
Q 1494 397 1959 397 
Q 2419 397 2687 759 
Q 2956 1122 2956 1747 
Q 2956 2369 2687 2733 
Q 2419 3097 1959 3097 
z
M 1959 3584 
Q 2709 3584 3137 3096 
Q 3566 2609 3566 1747 
Q 3566 888 3137 398 
Q 2709 -91 1959 -91 
Q 1206 -91 779 398 
Q 353 888 353 1747 
Q 353 2609 779 3096 
Q 1206 3584 1959 3584 
z
" id="DejaVuSans-6f" transform="scale(0.015625)"/>
       <path d="M 544 1381 
L 544 3500 
L 1119 3500 
L 1119 1403 
Q 1119 906 1312 657 
Q 1506 409 1894 409 
Q 2359 409 2629 706 
Q 2900 1003 2900 1516 
L 2900 3500 
L 3475 3500 
L 3475 0 
L 2900 0 
L 2900 538 
Q 2691 219 2414 64 
Q 2138 -91 1772 -91 
Q 1169 -91 856 284 
Q 544 659 544 1381 
z
M 1991 3584 
L 1991 3584 
z
" id="DejaVuSans-75" transform="scale(0.015625)"/>
       <path d="M 2631 2963 
Q 2534 3019 2420 3045 
Q 2306 3072 2169 3072 
Q 1681 3072 1420 2755 
Q 1159 2438 1159 1844 
L 1159 0 
L 581 0 
L 581 3500 
L 1159 3500 
L 1159 2956 
Q 1341 3275 1631 3429 
Q 1922 3584 2338 3584 
Q 2397 3584 2469 3576 
Q 2541 3569 2628 3553 
L 2631 2963 
z
" id="DejaVuSans-72" transform="scale(0.015625)"/>
       <path d="M 3513 2113 
L 3513 0 
L 2938 0 
L 2938 2094 
Q 2938 2591 2744 2837 
Q 2550 3084 2163 3084 
Q 1697 3084 1428 2787 
Q 1159 2491 1159 1978 
L 1159 0 
L 581 0 
L 581 3500 
L 1159 3500 
L 1159 2956 
Q 1366 3272 1645 3428 
Q 1925 3584 2291 3584 
Q 2894 3584 3203 3211 
Q 3513 2838 3513 2113 
z
" id="DejaVuSans-6e" transform="scale(0.015625)"/>
       <path d="M 1172 4494 
L 1172 3500 
L 2356 3500 
L 2356 3053 
L 1172 3053 
L 1172 1153 
Q 1172 725 1289 603 
Q 1406 481 1766 481 
L 2356 481 
L 2356 0 
L 1766 0 
Q 1100 0 847 248 
Q 594 497 594 1153 
L 594 3053 
L 172 3053 
L 172 3500 
L 594 3500 
L 594 4494 
L 1172 4494 
z
" id="DejaVuSans-74" transform="scale(0.015625)"/>
       <path d="M 513 4856 
L 1013 4856 
Q 1481 4119 1714 3412 
Q 1947 2706 1947 2009 
Q 1947 1309 1714 600 
Q 1481 -109 1013 -844 
L 513 -844 
Q 928 -128 1133 580 
Q 1338 1288 1338 2009 
Q 1338 2731 1133 3434 
Q 928 4138 513 4856 
z
" id="DejaVuSans-29" transform="scale(0.015625)"/>
      </defs>
      <use xlink:href="#DejaVuSans-54"/>
      <use x="57.958984" xlink:href="#DejaVuSans-69"/>
      <use x="85.742188" xlink:href="#DejaVuSans-6d"/>
      <use x="183.154297" xlink:href="#DejaVuSans-65"/>
      <use x="244.677734" xlink:href="#DejaVuSans-20"/>
      <use x="276.464844" xlink:href="#DejaVuSans-28"/>
      <use x="315.478516" xlink:href="#DejaVuSans-68"/>
      <use x="378.857422" xlink:href="#DejaVuSans-6f"/>
      <use x="440.039062" xlink:href="#DejaVuSans-75"/>
      <use x="503.417969" xlink:href="#DejaVuSans-72"/>
      <use x="542.78125" xlink:href="#DejaVuSans-3a"/>
      <use x="576.472656" xlink:href="#DejaVuSans-6d"/>
      <use x="673.884766" xlink:href="#DejaVuSans-69"/>
      <use x="701.667969" xlink:href="#DejaVuSans-6e"/>
      <use x="765.046875" xlink:href="#DejaVuSans-75"/>
      <use x="828.425781" xlink:href="#DejaVuSans-74"/>
      <use x="867.634766" xlink:href="#DejaVuSans-65"/>
      <use x="929.158203" xlink:href="#DejaVuSans-29"/>
     </g>
    </g>
   </g>
   <g id="matplotlib.axis_2">
    <g id="ytick_1">
     <g id="line2d_30">
      <defs>
       <path d="M 0 0 
L -3.5 0 
" id="m941ca2049d" style="stroke:#000000;stroke-width:0.8;"/>
      </defs>
      <g>
       <use style="stroke:#000000;stroke-width:0.8;" x="53.328125" xlink:href="#m941ca2049d" y="274.628615"/>
      </g>
     </g>
     <g id="text_14">
      <!-- 7600 -->
      <g transform="translate(20.878125 278.427834)scale(0.1 -0.1)">
       <use xlink:href="#DejaVuSans-37"/>
       <use x="63.623047" xlink:href="#DejaVuSans-36"/>
       <use x="127.246094" xlink:href="#DejaVuSans-30"/>
       <use x="190.869141" xlink:href="#DejaVuSans-30"/>
      </g>
     </g>
    </g>
    <g id="ytick_2">
     <g id="line2d_31">
      <g>
       <use style="stroke:#000000;stroke-width:0.8;" x="53.328125" xlink:href="#m941ca2049d" y="222.151392"/>
      </g>
     </g>
     <g id="text_15">
      <!-- 7800 -->
      <g transform="translate(20.878125 225.950611)scale(0.1 -0.1)">
       <defs>
        <path d="M 2034 2216 
Q 1584 2216 1326 1975 
Q 1069 1734 1069 1313 
Q 1069 891 1326 650 
Q 1584 409 2034 409 
Q 2484 409 2743 651 
Q 3003 894 3003 1313 
Q 3003 1734 2745 1975 
Q 2488 2216 2034 2216 
z
M 1403 2484 
Q 997 2584 770 2862 
Q 544 3141 544 3541 
Q 544 4100 942 4425 
Q 1341 4750 2034 4750 
Q 2731 4750 3128 4425 
Q 3525 4100 3525 3541 
Q 3525 3141 3298 2862 
Q 3072 2584 2669 2484 
Q 3125 2378 3379 2068 
Q 3634 1759 3634 1313 
Q 3634 634 3220 271 
Q 2806 -91 2034 -91 
Q 1263 -91 848 271 
Q 434 634 434 1313 
Q 434 1759 690 2068 
Q 947 2378 1403 2484 
z
M 1172 3481 
Q 1172 3119 1398 2916 
Q 1625 2713 2034 2713 
Q 2441 2713 2670 2916 
Q 2900 3119 2900 3481 
Q 2900 3844 2670 4047 
Q 2441 4250 2034 4250 
Q 1625 4250 1398 4047 
Q 1172 3844 1172 3481 
z
" id="DejaVuSans-38" transform="scale(0.015625)"/>
       </defs>
       <use xlink:href="#DejaVuSans-37"/>
       <use x="63.623047" xlink:href="#DejaVuSans-38"/>
       <use x="127.246094" xlink:href="#DejaVuSans-30"/>
       <use x="190.869141" xlink:href="#DejaVuSans-30"/>
      </g>
     </g>
    </g>
    <g id="ytick_3">
     <g id="line2d_32">
      <g>
       <use style="stroke:#000000;stroke-width:0.8;" x="53.328125" xlink:href="#m941ca2049d" y="169.674168"/>
      </g>
     </g>
     <g id="text_16">
      <!-- 8000 -->
      <g transform="translate(20.878125 173.473387)scale(0.1 -0.1)">
       <use xlink:href="#DejaVuSans-38"/>
       <use x="63.623047" xlink:href="#DejaVuSans-30"/>
       <use x="127.246094" xlink:href="#DejaVuSans-30"/>
       <use x="190.869141" xlink:href="#DejaVuSans-30"/>
      </g>
     </g>
    </g>
    <g id="ytick_4">
     <g id="line2d_33">
      <g>
       <use style="stroke:#000000;stroke-width:0.8;" x="53.328125" xlink:href="#m941ca2049d" y="117.196945"/>
      </g>
     </g>
     <g id="text_17">
      <!-- 8200 -->
      <g transform="translate(20.878125 120.996164)scale(0.1 -0.1)">
       <use xlink:href="#DejaVuSans-38"/>
       <use x="63.623047" xlink:href="#DejaVuSans-32"/>
       <use x="127.246094" xlink:href="#DejaVuSans-30"/>
       <use x="190.869141" xlink:href="#DejaVuSans-30"/>
      </g>
     </g>
    </g>
    <g id="ytick_5">
     <g id="line2d_34">
      <g>
       <use style="stroke:#000000;stroke-width:0.8;" x="53.328125" xlink:href="#m941ca2049d" y="64.719722"/>
      </g>
     </g>
     <g id="text_18">
      <!-- 8400 -->
      <g transform="translate(20.878125 68.51894)scale(0.1 -0.1)">
       <use xlink:href="#DejaVuSans-38"/>
       <use x="63.623047" xlink:href="#DejaVuSans-34"/>
       <use x="127.246094" xlink:href="#DejaVuSans-30"/>
       <use x="190.869141" xlink:href="#DejaVuSans-30"/>
      </g>
     </g>
    </g>
    <g id="text_19">
     <!-- Code region coverage -->
     <g transform="translate(14.798438 210.379594)rotate(-90)scale(0.1 -0.1)">
      <defs>
       <path d="M 4122 4306 
L 4122 3641 
Q 3803 3938 3442 4084 
Q 3081 4231 2675 4231 
Q 1875 4231 1450 3742 
Q 1025 3253 1025 2328 
Q 1025 1406 1450 917 
Q 1875 428 2675 428 
Q 3081 428 3442 575 
Q 3803 722 4122 1019 
L 4122 359 
Q 3791 134 3420 21 
Q 3050 -91 2638 -91 
Q 1578 -91 968 557 
Q 359 1206 359 2328 
Q 359 3453 968 4101 
Q 1578 4750 2638 4750 
Q 3056 4750 3426 4639 
Q 3797 4528 4122 4306 
z
" id="DejaVuSans-43" transform="scale(0.015625)"/>
       <path d="M 2906 2969 
L 2906 4863 
L 3481 4863 
L 3481 0 
L 2906 0 
L 2906 525 
Q 2725 213 2448 61 
Q 2172 -91 1784 -91 
Q 1150 -91 751 415 
Q 353 922 353 1747 
Q 353 2572 751 3078 
Q 1150 3584 1784 3584 
Q 2172 3584 2448 3432 
Q 2725 3281 2906 2969 
z
M 947 1747 
Q 947 1113 1208 752 
Q 1469 391 1925 391 
Q 2381 391 2643 752 
Q 2906 1113 2906 1747 
Q 2906 2381 2643 2742 
Q 2381 3103 1925 3103 
Q 1469 3103 1208 2742 
Q 947 2381 947 1747 
z
" id="DejaVuSans-64" transform="scale(0.015625)"/>
       <path d="M 2906 1791 
Q 2906 2416 2648 2759 
Q 2391 3103 1925 3103 
Q 1463 3103 1205 2759 
Q 947 2416 947 1791 
Q 947 1169 1205 825 
Q 1463 481 1925 481 
Q 2391 481 2648 825 
Q 2906 1169 2906 1791 
z
M 3481 434 
Q 3481 -459 3084 -895 
Q 2688 -1331 1869 -1331 
Q 1566 -1331 1297 -1286 
Q 1028 -1241 775 -1147 
L 775 -588 
Q 1028 -725 1275 -790 
Q 1522 -856 1778 -856 
Q 2344 -856 2625 -561 
Q 2906 -266 2906 331 
L 2906 616 
Q 2728 306 2450 153 
Q 2172 0 1784 0 
Q 1141 0 747 490 
Q 353 981 353 1791 
Q 353 2603 747 3093 
Q 1141 3584 1784 3584 
Q 2172 3584 2450 3431 
Q 2728 3278 2906 2969 
L 2906 3500 
L 3481 3500 
L 3481 434 
z
" id="DejaVuSans-67" transform="scale(0.015625)"/>
       <path d="M 3122 3366 
L 3122 2828 
Q 2878 2963 2633 3030 
Q 2388 3097 2138 3097 
Q 1578 3097 1268 2742 
Q 959 2388 959 1747 
Q 959 1106 1268 751 
Q 1578 397 2138 397 
Q 2388 397 2633 464 
Q 2878 531 3122 666 
L 3122 134 
Q 2881 22 2623 -34 
Q 2366 -91 2075 -91 
Q 1284 -91 818 406 
Q 353 903 353 1747 
Q 353 2603 823 3093 
Q 1294 3584 2113 3584 
Q 2378 3584 2631 3529 
Q 2884 3475 3122 3366 
z
" id="DejaVuSans-63" transform="scale(0.015625)"/>
       <path d="M 191 3500 
L 800 3500 
L 1894 563 
L 2988 3500 
L 3597 3500 
L 2284 0 
L 1503 0 
L 191 3500 
z
" id="DejaVuSans-76" transform="scale(0.015625)"/>
       <path d="M 2194 1759 
Q 1497 1759 1228 1600 
Q 959 1441 959 1056 
Q 959 750 1161 570 
Q 1363 391 1709 391 
Q 2188 391 2477 730 
Q 2766 1069 2766 1631 
L 2766 1759 
L 2194 1759 
z
M 3341 1997 
L 3341 0 
L 2766 0 
L 2766 531 
Q 2569 213 2275 61 
Q 1981 -91 1556 -91 
Q 1019 -91 701 211 
Q 384 513 384 1019 
Q 384 1609 779 1909 
Q 1175 2209 1959 2209 
L 2766 2209 
L 2766 2266 
Q 2766 2663 2505 2880 
Q 2244 3097 1772 3097 
Q 1472 3097 1187 3025 
Q 903 2953 641 2809 
L 641 3341 
Q 956 3463 1253 3523 
Q 1550 3584 1831 3584 
Q 2591 3584 2966 3190 
Q 3341 2797 3341 1997 
z
" id="DejaVuSans-61" transform="scale(0.015625)"/>
      </defs>
      <use xlink:href="#DejaVuSans-43"/>
      <use x="69.824219" xlink:href="#DejaVuSans-6f"/>
      <use x="131.005859" xlink:href="#DejaVuSans-64"/>
      <use x="194.482422" xlink:href="#DejaVuSans-65"/>
      <use x="256.005859" xlink:href="#DejaVuSans-20"/>
      <use x="287.792969" xlink:href="#DejaVuSans-72"/>
      <use x="326.65625" xlink:href="#DejaVuSans-65"/>
      <use x="388.179688" xlink:href="#DejaVuSans-67"/>
      <use x="451.65625" xlink:href="#DejaVuSans-69"/>
      <use x="479.439453" xlink:href="#DejaVuSans-6f"/>
      <use x="540.621094" xlink:href="#DejaVuSans-6e"/>
      <use x="604" xlink:href="#DejaVuSans-20"/>
      <use x="635.787109" xlink:href="#DejaVuSans-63"/>
      <use x="690.767578" xlink:href="#DejaVuSans-6f"/>
      <use x="751.949219" xlink:href="#DejaVuSans-76"/>
      <use x="811.128906" xlink:href="#DejaVuSans-65"/>
      <use x="872.652344" xlink:href="#DejaVuSans-72"/>
      <use x="913.765625" xlink:href="#DejaVuSans-61"/>
      <use x="975.044922" xlink:href="#DejaVuSans-67"/>
      <use x="1038.521484" xlink:href="#DejaVuSans-65"/>
     </g>
    </g>
   </g>
   <g id="line2d_35">
    <path clip-path="url(#p969de4ba2e)" d="M 85.79358 249.701934 
L 185.326487 180.563192 
L 243.549506 156.03009 
L 284.859395 133.596077 
L 316.901835 127.823583 
L 343.082414 117.328138 
L 365.217778 114.83547 
L 384.392303 111.162064 
L 401.305433 111.030871 
L 416.434742 107.095079 
L 430.120868 104.340025 
L 442.615322 102.896902 
L 454.109105 102.240936 
L 464.750686 101.584971 
L 474.657761 99.223496 
L 483.925211 95.681283 
L 492.630642 95.55009 
L 500.83834 95.025318 
L 508.602157 95.025318 
L 515.96765 92.270264 
L 522.973705 92.270264 
L 529.653776 92.270264 
L 536.036855 88.990437 
L 542.14823 88.859244 
L 548.01009 84.529873 
L 553.642013 84.005101 
L 559.061359 82.824364 
L 564.283594 82.693171 
L 569.322554 82.693171 
L 574.190669 82.430784 
L 578.899144 82.430784 
L 583.458119 82.430784 
L 587.876794 82.430784 
L 592.16355 81.906012 
L 596.326033 81.774819 
L 600.371248 81.774819 
L 604.305621 80.856468 
L 608.135065 80.594082 
L 611.865031 80.594082 
L 615.500558 78.888572 
L 619.046309 78.888572 
L 622.506613 78.888572 
L 625.885489 78.888572 
L 629.186684 78.888572 
L 632.413688 78.3638 
L 635.569763 78.3638 
L 638.65796 78.101414 
L 641.681137 78.101414 
L 644.641977 77.97022 
L 647.542997 77.97022 
L 650.386568 77.97022 
L 653.174921 77.97022 
L 655.910158 75.608745 
L 658.594267 75.608745 
L 661.229123 75.608745 
L 663.816502 75.608745 
L 666.358084 75.608745 
L 668.855462 75.608745 
L 671.310148 75.608745 
L 673.723577 75.608745 
L 676.097112 75.477552 
L 678.432052 75.477552 
L 680.729631 72.328919 
L 682.991027 72.197726 
L 685.21736 72.197726 
L 687.409702 72.197726 
L 689.569076 72.197726 
L 691.696457 72.197726 
L 693.792781 71.804147 
L 695.858941 71.804147 
L 697.895793 71.804147 
L 699.904156 71.672954 
L 701.884817 71.672954 
L 703.838529 71.541761 
L 705.766016 71.016988 
L 707.667973 71.016988 
L 709.545067 71.016988 
L 711.397939 70.361023 
L 713.227208 70.361023 
L 715.033466 68.917899 
L 716.817286 68.917899 
L 718.579217 68.917899 
L 720.319792 68.917899 
L 722.03952 68.917899 
L 723.738897 68.786706 
L 725.418397 68.786706 
L 727.078481 63.276598 
L 728.719591 63.276598 
L 730.342158 63.145405 
L 731.946595 62.227053 
L 733.533304 62.227053 
L 735.10267 62.227053 
" style="fill:none;stroke:#98df8a;stroke-linecap:square;stroke-width:1.5;"/>
    <defs>
     <path d="M -0 3 
L 3 -3 
L -3 -3 
z
" id="m8d70154767" style="stroke:#ffffff;stroke-linejoin:miter;stroke-width:0.75;"/>
    </defs>
    <g clip-path="url(#p969de4ba2e)">
     <use style="fill:#98df8a;stroke:#ffffff;stroke-linejoin:miter;stroke-width:0.75;" x="85.79358" xlink:href="#m8d70154767" y="249.701934"/>
     <use style="fill:#98df8a;stroke:#ffffff;stroke-linejoin:miter;stroke-width:0.75;" x="185.326487" xlink:href="#m8d70154767" y="180.563192"/>
     <use style="fill:#98df8a;stroke:#ffffff;stroke-linejoin:miter;stroke-width:0.75;" x="243.549506" xlink:href="#m8d70154767" y="156.03009"/>
     <use style="fill:#98df8a;stroke:#ffffff;stroke-linejoin:miter;stroke-width:0.75;" x="284.859395" xlink:href="#m8d70154767" y="133.596077"/>
     <use style="fill:#98df8a;stroke:#ffffff;stroke-linejoin:miter;stroke-width:0.75;" x="316.901835" xlink:href="#m8d70154767" y="127.823583"/>
     <use style="fill:#98df8a;stroke:#ffffff;stroke-linejoin:miter;stroke-width:0.75;" x="343.082414" xlink:href="#m8d70154767" y="117.328138"/>
     <use style="fill:#98df8a;stroke:#ffffff;stroke-linejoin:miter;stroke-width:0.75;" x="365.217778" xlink:href="#m8d70154767" y="114.83547"/>
     <use style="fill:#98df8a;stroke:#ffffff;stroke-linejoin:miter;stroke-width:0.75;" x="384.392303" xlink:href="#m8d70154767" y="111.162064"/>
     <use style="fill:#98df8a;stroke:#ffffff;stroke-linejoin:miter;stroke-width:0.75;" x="401.305433" xlink:href="#m8d70154767" y="111.030871"/>
     <use style="fill:#98df8a;stroke:#ffffff;stroke-linejoin:miter;stroke-width:0.75;" x="416.434742" xlink:href="#m8d70154767" y="107.095079"/>
     <use style="fill:#98df8a;stroke:#ffffff;stroke-linejoin:miter;stroke-width:0.75;" x="430.120868" xlink:href="#m8d70154767" y="104.340025"/>
     <use style="fill:#98df8a;stroke:#ffffff;stroke-linejoin:miter;stroke-width:0.75;" x="442.615322" xlink:href="#m8d70154767" y="102.896902"/>
     <use style="fill:#98df8a;stroke:#ffffff;stroke-linejoin:miter;stroke-width:0.75;" x="454.109105" xlink:href="#m8d70154767" y="102.240936"/>
     <use style="fill:#98df8a;stroke:#ffffff;stroke-linejoin:miter;stroke-width:0.75;" x="464.750686" xlink:href="#m8d70154767" y="101.584971"/>
     <use style="fill:#98df8a;stroke:#ffffff;stroke-linejoin:miter;stroke-width:0.75;" x="474.657761" xlink:href="#m8d70154767" y="99.223496"/>
     <use style="fill:#98df8a;stroke:#ffffff;stroke-linejoin:miter;stroke-width:0.75;" x="483.925211" xlink:href="#m8d70154767" y="95.681283"/>
     <use style="fill:#98df8a;stroke:#ffffff;stroke-linejoin:miter;stroke-width:0.75;" x="492.630642" xlink:href="#m8d70154767" y="95.55009"/>
     <use style="fill:#98df8a;stroke:#ffffff;stroke-linejoin:miter;stroke-width:0.75;" x="500.83834" xlink:href="#m8d70154767" y="95.025318"/>
     <use style="fill:#98df8a;stroke:#ffffff;stroke-linejoin:miter;stroke-width:0.75;" x="508.602157" xlink:href="#m8d70154767" y="95.025318"/>
     <use style="fill:#98df8a;stroke:#ffffff;stroke-linejoin:miter;stroke-width:0.75;" x="515.96765" xlink:href="#m8d70154767" y="92.270264"/>
     <use style="fill:#98df8a;stroke:#ffffff;stroke-linejoin:miter;stroke-width:0.75;" x="522.973705" xlink:href="#m8d70154767" y="92.270264"/>
     <use style="fill:#98df8a;stroke:#ffffff;stroke-linejoin:miter;stroke-width:0.75;" x="529.653776" xlink:href="#m8d70154767" y="92.270264"/>
     <use style="fill:#98df8a;stroke:#ffffff;stroke-linejoin:miter;stroke-width:0.75;" x="536.036855" xlink:href="#m8d70154767" y="88.990437"/>
     <use style="fill:#98df8a;stroke:#ffffff;stroke-linejoin:miter;stroke-width:0.75;" x="542.14823" xlink:href="#m8d70154767" y="88.859244"/>
     <use style="fill:#98df8a;stroke:#ffffff;stroke-linejoin:miter;stroke-width:0.75;" x="548.01009" xlink:href="#m8d70154767" y="84.529873"/>
     <use style="fill:#98df8a;stroke:#ffffff;stroke-linejoin:miter;stroke-width:0.75;" x="553.642013" xlink:href="#m8d70154767" y="84.005101"/>
     <use style="fill:#98df8a;stroke:#ffffff;stroke-linejoin:miter;stroke-width:0.75;" x="559.061359" xlink:href="#m8d70154767" y="82.824364"/>
     <use style="fill:#98df8a;stroke:#ffffff;stroke-linejoin:miter;stroke-width:0.75;" x="564.283594" xlink:href="#m8d70154767" y="82.693171"/>
     <use style="fill:#98df8a;stroke:#ffffff;stroke-linejoin:miter;stroke-width:0.75;" x="569.322554" xlink:href="#m8d70154767" y="82.693171"/>
     <use style="fill:#98df8a;stroke:#ffffff;stroke-linejoin:miter;stroke-width:0.75;" x="574.190669" xlink:href="#m8d70154767" y="82.430784"/>
     <use style="fill:#98df8a;stroke:#ffffff;stroke-linejoin:miter;stroke-width:0.75;" x="578.899144" xlink:href="#m8d70154767" y="82.430784"/>
     <use style="fill:#98df8a;stroke:#ffffff;stroke-linejoin:miter;stroke-width:0.75;" x="583.458119" xlink:href="#m8d70154767" y="82.430784"/>
     <use style="fill:#98df8a;stroke:#ffffff;stroke-linejoin:miter;stroke-width:0.75;" x="587.876794" xlink:href="#m8d70154767" y="82.430784"/>
     <use style="fill:#98df8a;stroke:#ffffff;stroke-linejoin:miter;stroke-width:0.75;" x="592.16355" xlink:href="#m8d70154767" y="81.906012"/>
     <use style="fill:#98df8a;stroke:#ffffff;stroke-linejoin:miter;stroke-width:0.75;" x="596.326033" xlink:href="#m8d70154767" y="81.774819"/>
     <use style="fill:#98df8a;stroke:#ffffff;stroke-linejoin:miter;stroke-width:0.75;" x="600.371248" xlink:href="#m8d70154767" y="81.774819"/>
     <use style="fill:#98df8a;stroke:#ffffff;stroke-linejoin:miter;stroke-width:0.75;" x="604.305621" xlink:href="#m8d70154767" y="80.856468"/>
     <use style="fill:#98df8a;stroke:#ffffff;stroke-linejoin:miter;stroke-width:0.75;" x="608.135065" xlink:href="#m8d70154767" y="80.594082"/>
     <use style="fill:#98df8a;stroke:#ffffff;stroke-linejoin:miter;stroke-width:0.75;" x="611.865031" xlink:href="#m8d70154767" y="80.594082"/>
     <use style="fill:#98df8a;stroke:#ffffff;stroke-linejoin:miter;stroke-width:0.75;" x="615.500558" xlink:href="#m8d70154767" y="78.888572"/>
     <use style="fill:#98df8a;stroke:#ffffff;stroke-linejoin:miter;stroke-width:0.75;" x="619.046309" xlink:href="#m8d70154767" y="78.888572"/>
     <use style="fill:#98df8a;stroke:#ffffff;stroke-linejoin:miter;stroke-width:0.75;" x="622.506613" xlink:href="#m8d70154767" y="78.888572"/>
     <use style="fill:#98df8a;stroke:#ffffff;stroke-linejoin:miter;stroke-width:0.75;" x="625.885489" xlink:href="#m8d70154767" y="78.888572"/>
     <use style="fill:#98df8a;stroke:#ffffff;stroke-linejoin:miter;stroke-width:0.75;" x="629.186684" xlink:href="#m8d70154767" y="78.888572"/>
     <use style="fill:#98df8a;stroke:#ffffff;stroke-linejoin:miter;stroke-width:0.75;" x="632.413688" xlink:href="#m8d70154767" y="78.3638"/>
     <use style="fill:#98df8a;stroke:#ffffff;stroke-linejoin:miter;stroke-width:0.75;" x="635.569763" xlink:href="#m8d70154767" y="78.3638"/>
     <use style="fill:#98df8a;stroke:#ffffff;stroke-linejoin:miter;stroke-width:0.75;" x="638.65796" xlink:href="#m8d70154767" y="78.101414"/>
     <use style="fill:#98df8a;stroke:#ffffff;stroke-linejoin:miter;stroke-width:0.75;" x="641.681137" xlink:href="#m8d70154767" y="78.101414"/>
     <use style="fill:#98df8a;stroke:#ffffff;stroke-linejoin:miter;stroke-width:0.75;" x="644.641977" xlink:href="#m8d70154767" y="77.97022"/>
     <use style="fill:#98df8a;stroke:#ffffff;stroke-linejoin:miter;stroke-width:0.75;" x="647.542997" xlink:href="#m8d70154767" y="77.97022"/>
     <use style="fill:#98df8a;stroke:#ffffff;stroke-linejoin:miter;stroke-width:0.75;" x="650.386568" xlink:href="#m8d70154767" y="77.97022"/>
     <use style="fill:#98df8a;stroke:#ffffff;stroke-linejoin:miter;stroke-width:0.75;" x="653.174921" xlink:href="#m8d70154767" y="77.97022"/>
     <use style="fill:#98df8a;stroke:#ffffff;stroke-linejoin:miter;stroke-width:0.75;" x="655.910158" xlink:href="#m8d70154767" y="75.608745"/>
     <use style="fill:#98df8a;stroke:#ffffff;stroke-linejoin:miter;stroke-width:0.75;" x="658.594267" xlink:href="#m8d70154767" y="75.608745"/>
     <use style="fill:#98df8a;stroke:#ffffff;stroke-linejoin:miter;stroke-width:0.75;" x="661.229123" xlink:href="#m8d70154767" y="75.608745"/>
     <use style="fill:#98df8a;stroke:#ffffff;stroke-linejoin:miter;stroke-width:0.75;" x="663.816502" xlink:href="#m8d70154767" y="75.608745"/>
     <use style="fill:#98df8a;stroke:#ffffff;stroke-linejoin:miter;stroke-width:0.75;" x="666.358084" xlink:href="#m8d70154767" y="75.608745"/>
     <use style="fill:#98df8a;stroke:#ffffff;stroke-linejoin:miter;stroke-width:0.75;" x="668.855462" xlink:href="#m8d70154767" y="75.608745"/>
     <use style="fill:#98df8a;stroke:#ffffff;stroke-linejoin:miter;stroke-width:0.75;" x="671.310148" xlink:href="#m8d70154767" y="75.608745"/>
     <use style="fill:#98df8a;stroke:#ffffff;stroke-linejoin:miter;stroke-width:0.75;" x="673.723577" xlink:href="#m8d70154767" y="75.608745"/>
     <use style="fill:#98df8a;stroke:#ffffff;stroke-linejoin:miter;stroke-width:0.75;" x="676.097112" xlink:href="#m8d70154767" y="75.477552"/>
     <use style="fill:#98df8a;stroke:#ffffff;stroke-linejoin:miter;stroke-width:0.75;" x="678.432052" xlink:href="#m8d70154767" y="75.477552"/>
     <use style="fill:#98df8a;stroke:#ffffff;stroke-linejoin:miter;stroke-width:0.75;" x="680.729631" xlink:href="#m8d70154767" y="72.328919"/>
     <use style="fill:#98df8a;stroke:#ffffff;stroke-linejoin:miter;stroke-width:0.75;" x="682.991027" xlink:href="#m8d70154767" y="72.197726"/>
     <use style="fill:#98df8a;stroke:#ffffff;stroke-linejoin:miter;stroke-width:0.75;" x="685.21736" xlink:href="#m8d70154767" y="72.197726"/>
     <use style="fill:#98df8a;stroke:#ffffff;stroke-linejoin:miter;stroke-width:0.75;" x="687.409702" xlink:href="#m8d70154767" y="72.197726"/>
     <use style="fill:#98df8a;stroke:#ffffff;stroke-linejoin:miter;stroke-width:0.75;" x="689.569076" xlink:href="#m8d70154767" y="72.197726"/>
     <use style="fill:#98df8a;stroke:#ffffff;stroke-linejoin:miter;stroke-width:0.75;" x="691.696457" xlink:href="#m8d70154767" y="72.197726"/>
     <use style="fill:#98df8a;stroke:#ffffff;stroke-linejoin:miter;stroke-width:0.75;" x="693.792781" xlink:href="#m8d70154767" y="71.804147"/>
     <use style="fill:#98df8a;stroke:#ffffff;stroke-linejoin:miter;stroke-width:0.75;" x="695.858941" xlink:href="#m8d70154767" y="71.804147"/>
     <use style="fill:#98df8a;stroke:#ffffff;stroke-linejoin:miter;stroke-width:0.75;" x="697.895793" xlink:href="#m8d70154767" y="71.804147"/>
     <use style="fill:#98df8a;stroke:#ffffff;stroke-linejoin:miter;stroke-width:0.75;" x="699.904156" xlink:href="#m8d70154767" y="71.672954"/>
     <use style="fill:#98df8a;stroke:#ffffff;stroke-linejoin:miter;stroke-width:0.75;" x="701.884817" xlink:href="#m8d70154767" y="71.672954"/>
     <use style="fill:#98df8a;stroke:#ffffff;stroke-linejoin:miter;stroke-width:0.75;" x="703.838529" xlink:href="#m8d70154767" y="71.541761"/>
     <use style="fill:#98df8a;stroke:#ffffff;stroke-linejoin:miter;stroke-width:0.75;" x="705.766016" xlink:href="#m8d70154767" y="71.016988"/>
     <use style="fill:#98df8a;stroke:#ffffff;stroke-linejoin:miter;stroke-width:0.75;" x="707.667973" xlink:href="#m8d70154767" y="71.016988"/>
     <use style="fill:#98df8a;stroke:#ffffff;stroke-linejoin:miter;stroke-width:0.75;" x="709.545067" xlink:href="#m8d70154767" y="71.016988"/>
     <use style="fill:#98df8a;stroke:#ffffff;stroke-linejoin:miter;stroke-width:0.75;" x="711.397939" xlink:href="#m8d70154767" y="70.361023"/>
     <use style="fill:#98df8a;stroke:#ffffff;stroke-linejoin:miter;stroke-width:0.75;" x="713.227208" xlink:href="#m8d70154767" y="70.361023"/>
     <use style="fill:#98df8a;stroke:#ffffff;stroke-linejoin:miter;stroke-width:0.75;" x="715.033466" xlink:href="#m8d70154767" y="68.917899"/>
     <use style="fill:#98df8a;stroke:#ffffff;stroke-linejoin:miter;stroke-width:0.75;" x="716.817286" xlink:href="#m8d70154767" y="68.917899"/>
     <use style="fill:#98df8a;stroke:#ffffff;stroke-linejoin:miter;stroke-width:0.75;" x="718.579217" xlink:href="#m8d70154767" y="68.917899"/>
     <use style="fill:#98df8a;stroke:#ffffff;stroke-linejoin:miter;stroke-width:0.75;" x="720.319792" xlink:href="#m8d70154767" y="68.917899"/>
     <use style="fill:#98df8a;stroke:#ffffff;stroke-linejoin:miter;stroke-width:0.75;" x="722.03952" xlink:href="#m8d70154767" y="68.917899"/>
     <use style="fill:#98df8a;stroke:#ffffff;stroke-linejoin:miter;stroke-width:0.75;" x="723.738897" xlink:href="#m8d70154767" y="68.786706"/>
     <use style="fill:#98df8a;stroke:#ffffff;stroke-linejoin:miter;stroke-width:0.75;" x="725.418397" xlink:href="#m8d70154767" y="68.786706"/>
     <use style="fill:#98df8a;stroke:#ffffff;stroke-linejoin:miter;stroke-width:0.75;" x="727.078481" xlink:href="#m8d70154767" y="63.276598"/>
     <use style="fill:#98df8a;stroke:#ffffff;stroke-linejoin:miter;stroke-width:0.75;" x="728.719591" xlink:href="#m8d70154767" y="63.276598"/>
     <use style="fill:#98df8a;stroke:#ffffff;stroke-linejoin:miter;stroke-width:0.75;" x="730.342158" xlink:href="#m8d70154767" y="63.145405"/>
     <use style="fill:#98df8a;stroke:#ffffff;stroke-linejoin:miter;stroke-width:0.75;" x="731.946595" xlink:href="#m8d70154767" y="62.227053"/>
     <use style="fill:#98df8a;stroke:#ffffff;stroke-linejoin:miter;stroke-width:0.75;" x="733.533304" xlink:href="#m8d70154767" y="62.227053"/>
     <use style="fill:#98df8a;stroke:#ffffff;stroke-linejoin:miter;stroke-width:0.75;" x="735.10267" xlink:href="#m8d70154767" y="62.227053"/>
    </g>
   </g>
   <g id="line2d_36">
    <path clip-path="url(#p969de4ba2e)" d="M 85.79358 164.295253 
L 185.326487 147.108962 
L 243.549506 137.794255 
L 284.859395 129.135513 
L 316.901835 124.543756 
L 343.082414 122.313474 
L 365.217778 119.296034 
L 384.392303 117.85291 
L 401.305433 117.85291 
L 416.434742 116.803366 
L 430.120868 113.392346 
L 442.615322 110.11252 
L 454.109105 109.062975 
L 464.750686 107.095079 
L 474.657761 104.208832 
L 483.925211 103.159288 
L 492.630642 102.503322 
L 500.83834 102.503322 
L 508.602157 101.716164 
L 515.96765 101.322585 
L 522.973705 100.535427 
L 529.653776 99.748268 
L 536.036855 98.042758 
L 542.14823 98.042758 
L 548.01009 97.386793 
L 553.642013 97.386793 
L 559.061359 95.812476 
L 564.283594 95.55009 
L 569.322554 95.55009 
L 574.190669 95.55009 
L 578.899144 94.369353 
L 583.458119 94.369353 
L 587.876794 94.369353 
L 592.16355 92.663843 
L 596.326033 92.663843 
L 600.371248 92.663843 
L 604.305621 91.089526 
L 608.135065 90.82714 
L 611.865031 90.695947 
L 615.500558 90.564754 
L 619.046309 90.171175 
L 622.506613 89.908789 
L 625.885489 89.51521 
L 629.186684 89.384017 
L 632.413688 89.384017 
L 635.569763 88.859244 
L 638.65796 88.859244 
L 641.681137 88.728051 
L 644.641977 87.940893 
L 647.542997 87.940893 
L 650.386568 87.940893 
L 653.174921 87.678507 
L 655.910158 87.547314 
L 658.594267 87.547314 
L 661.229123 86.891348 
L 663.816502 85.841804 
L 666.358084 85.710611 
L 668.855462 85.579418 
L 671.310148 84.923453 
L 673.723577 84.39868 
L 676.097112 84.136294 
L 678.432052 84.005101 
L 680.729631 83.349136 
L 682.991027 83.349136 
L 685.21736 83.349136 
L 687.409702 83.349136 
L 689.569076 83.349136 
L 691.696457 83.217943 
L 693.792781 81.906012 
L 695.858941 81.906012 
L 697.895793 80.594082 
L 699.904156 80.462889 
L 701.884817 79.938116 
L 703.838529 79.938116 
L 705.766016 79.938116 
L 707.667973 79.544537 
L 709.545067 79.150958 
L 711.397939 78.888572 
L 713.227208 78.888572 
L 715.033466 77.183062 
L 716.817286 77.183062 
L 718.579217 77.183062 
L 720.319792 77.183062 
L 722.03952 77.183062 
L 723.738897 77.183062 
L 725.418397 77.183062 
L 727.078481 77.183062 
L 728.719591 76.65829 
L 730.342158 76.65829 
L 731.946595 76.527097 
L 733.533304 76.395904 
L 735.10267 76.395904 
" style="fill:none;stroke:#1f77b4;stroke-linecap:square;stroke-width:1.5;"/>
    <defs>
     <path d="M 0 3 
C 0.795609 3 1.55874 2.683901 2.12132 2.12132 
C 2.683901 1.55874 3 0.795609 3 0 
C 3 -0.795609 2.683901 -1.55874 2.12132 -2.12132 
C 1.55874 -2.683901 0.795609 -3 0 -3 
C -0.795609 -3 -1.55874 -2.683901 -2.12132 -2.12132 
C -2.683901 -1.55874 -3 -0.795609 -3 0 
C -3 0.795609 -2.683901 1.55874 -2.12132 2.12132 
C -1.55874 2.683901 -0.795609 3 0 3 
z
" id="mb771f5eaab" style="stroke:#ffffff;stroke-width:0.75;"/>
    </defs>
    <g clip-path="url(#p969de4ba2e)">
     <use style="fill:#1f77b4;stroke:#ffffff;stroke-width:0.75;" x="85.79358" xlink:href="#mb771f5eaab" y="164.295253"/>
     <use style="fill:#1f77b4;stroke:#ffffff;stroke-width:0.75;" x="185.326487" xlink:href="#mb771f5eaab" y="147.108962"/>
     <use style="fill:#1f77b4;stroke:#ffffff;stroke-width:0.75;" x="243.549506" xlink:href="#mb771f5eaab" y="137.794255"/>
     <use style="fill:#1f77b4;stroke:#ffffff;stroke-width:0.75;" x="284.859395" xlink:href="#mb771f5eaab" y="129.135513"/>
     <use style="fill:#1f77b4;stroke:#ffffff;stroke-width:0.75;" x="316.901835" xlink:href="#mb771f5eaab" y="124.543756"/>
     <use style="fill:#1f77b4;stroke:#ffffff;stroke-width:0.75;" x="343.082414" xlink:href="#mb771f5eaab" y="122.313474"/>
     <use style="fill:#1f77b4;stroke:#ffffff;stroke-width:0.75;" x="365.217778" xlink:href="#mb771f5eaab" y="119.296034"/>
     <use style="fill:#1f77b4;stroke:#ffffff;stroke-width:0.75;" x="384.392303" xlink:href="#mb771f5eaab" y="117.85291"/>
     <use style="fill:#1f77b4;stroke:#ffffff;stroke-width:0.75;" x="401.305433" xlink:href="#mb771f5eaab" y="117.85291"/>
     <use style="fill:#1f77b4;stroke:#ffffff;stroke-width:0.75;" x="416.434742" xlink:href="#mb771f5eaab" y="116.803366"/>
     <use style="fill:#1f77b4;stroke:#ffffff;stroke-width:0.75;" x="430.120868" xlink:href="#mb771f5eaab" y="113.392346"/>
     <use style="fill:#1f77b4;stroke:#ffffff;stroke-width:0.75;" x="442.615322" xlink:href="#mb771f5eaab" y="110.11252"/>
     <use style="fill:#1f77b4;stroke:#ffffff;stroke-width:0.75;" x="454.109105" xlink:href="#mb771f5eaab" y="109.062975"/>
     <use style="fill:#1f77b4;stroke:#ffffff;stroke-width:0.75;" x="464.750686" xlink:href="#mb771f5eaab" y="107.095079"/>
     <use style="fill:#1f77b4;stroke:#ffffff;stroke-width:0.75;" x="474.657761" xlink:href="#mb771f5eaab" y="104.208832"/>
     <use style="fill:#1f77b4;stroke:#ffffff;stroke-width:0.75;" x="483.925211" xlink:href="#mb771f5eaab" y="103.159288"/>
     <use style="fill:#1f77b4;stroke:#ffffff;stroke-width:0.75;" x="492.630642" xlink:href="#mb771f5eaab" y="102.503322"/>
     <use style="fill:#1f77b4;stroke:#ffffff;stroke-width:0.75;" x="500.83834" xlink:href="#mb771f5eaab" y="102.503322"/>
     <use style="fill:#1f77b4;stroke:#ffffff;stroke-width:0.75;" x="508.602157" xlink:href="#mb771f5eaab" y="101.716164"/>
     <use style="fill:#1f77b4;stroke:#ffffff;stroke-width:0.75;" x="515.96765" xlink:href="#mb771f5eaab" y="101.322585"/>
     <use style="fill:#1f77b4;stroke:#ffffff;stroke-width:0.75;" x="522.973705" xlink:href="#mb771f5eaab" y="100.535427"/>
     <use style="fill:#1f77b4;stroke:#ffffff;stroke-width:0.75;" x="529.653776" xlink:href="#mb771f5eaab" y="99.748268"/>
     <use style="fill:#1f77b4;stroke:#ffffff;stroke-width:0.75;" x="536.036855" xlink:href="#mb771f5eaab" y="98.042758"/>
     <use style="fill:#1f77b4;stroke:#ffffff;stroke-width:0.75;" x="542.14823" xlink:href="#mb771f5eaab" y="98.042758"/>
     <use style="fill:#1f77b4;stroke:#ffffff;stroke-width:0.75;" x="548.01009" xlink:href="#mb771f5eaab" y="97.386793"/>
     <use style="fill:#1f77b4;stroke:#ffffff;stroke-width:0.75;" x="553.642013" xlink:href="#mb771f5eaab" y="97.386793"/>
     <use style="fill:#1f77b4;stroke:#ffffff;stroke-width:0.75;" x="559.061359" xlink:href="#mb771f5eaab" y="95.812476"/>
     <use style="fill:#1f77b4;stroke:#ffffff;stroke-width:0.75;" x="564.283594" xlink:href="#mb771f5eaab" y="95.55009"/>
     <use style="fill:#1f77b4;stroke:#ffffff;stroke-width:0.75;" x="569.322554" xlink:href="#mb771f5eaab" y="95.55009"/>
     <use style="fill:#1f77b4;stroke:#ffffff;stroke-width:0.75;" x="574.190669" xlink:href="#mb771f5eaab" y="95.55009"/>
     <use style="fill:#1f77b4;stroke:#ffffff;stroke-width:0.75;" x="578.899144" xlink:href="#mb771f5eaab" y="94.369353"/>
     <use style="fill:#1f77b4;stroke:#ffffff;stroke-width:0.75;" x="583.458119" xlink:href="#mb771f5eaab" y="94.369353"/>
     <use style="fill:#1f77b4;stroke:#ffffff;stroke-width:0.75;" x="587.876794" xlink:href="#mb771f5eaab" y="94.369353"/>
     <use style="fill:#1f77b4;stroke:#ffffff;stroke-width:0.75;" x="592.16355" xlink:href="#mb771f5eaab" y="92.663843"/>
     <use style="fill:#1f77b4;stroke:#ffffff;stroke-width:0.75;" x="596.326033" xlink:href="#mb771f5eaab" y="92.663843"/>
     <use style="fill:#1f77b4;stroke:#ffffff;stroke-width:0.75;" x="600.371248" xlink:href="#mb771f5eaab" y="92.663843"/>
     <use style="fill:#1f77b4;stroke:#ffffff;stroke-width:0.75;" x="604.305621" xlink:href="#mb771f5eaab" y="91.089526"/>
     <use style="fill:#1f77b4;stroke:#ffffff;stroke-width:0.75;" x="608.135065" xlink:href="#mb771f5eaab" y="90.82714"/>
     <use style="fill:#1f77b4;stroke:#ffffff;stroke-width:0.75;" x="611.865031" xlink:href="#mb771f5eaab" y="90.695947"/>
     <use style="fill:#1f77b4;stroke:#ffffff;stroke-width:0.75;" x="615.500558" xlink:href="#mb771f5eaab" y="90.564754"/>
     <use style="fill:#1f77b4;stroke:#ffffff;stroke-width:0.75;" x="619.046309" xlink:href="#mb771f5eaab" y="90.171175"/>
     <use style="fill:#1f77b4;stroke:#ffffff;stroke-width:0.75;" x="622.506613" xlink:href="#mb771f5eaab" y="89.908789"/>
     <use style="fill:#1f77b4;stroke:#ffffff;stroke-width:0.75;" x="625.885489" xlink:href="#mb771f5eaab" y="89.51521"/>
     <use style="fill:#1f77b4;stroke:#ffffff;stroke-width:0.75;" x="629.186684" xlink:href="#mb771f5eaab" y="89.384017"/>
     <use style="fill:#1f77b4;stroke:#ffffff;stroke-width:0.75;" x="632.413688" xlink:href="#mb771f5eaab" y="89.384017"/>
     <use style="fill:#1f77b4;stroke:#ffffff;stroke-width:0.75;" x="635.569763" xlink:href="#mb771f5eaab" y="88.859244"/>
     <use style="fill:#1f77b4;stroke:#ffffff;stroke-width:0.75;" x="638.65796" xlink:href="#mb771f5eaab" y="88.859244"/>
     <use style="fill:#1f77b4;stroke:#ffffff;stroke-width:0.75;" x="641.681137" xlink:href="#mb771f5eaab" y="88.728051"/>
     <use style="fill:#1f77b4;stroke:#ffffff;stroke-width:0.75;" x="644.641977" xlink:href="#mb771f5eaab" y="87.940893"/>
     <use style="fill:#1f77b4;stroke:#ffffff;stroke-width:0.75;" x="647.542997" xlink:href="#mb771f5eaab" y="87.940893"/>
     <use style="fill:#1f77b4;stroke:#ffffff;stroke-width:0.75;" x="650.386568" xlink:href="#mb771f5eaab" y="87.940893"/>
     <use style="fill:#1f77b4;stroke:#ffffff;stroke-width:0.75;" x="653.174921" xlink:href="#mb771f5eaab" y="87.678507"/>
     <use style="fill:#1f77b4;stroke:#ffffff;stroke-width:0.75;" x="655.910158" xlink:href="#mb771f5eaab" y="87.547314"/>
     <use style="fill:#1f77b4;stroke:#ffffff;stroke-width:0.75;" x="658.594267" xlink:href="#mb771f5eaab" y="87.547314"/>
     <use style="fill:#1f77b4;stroke:#ffffff;stroke-width:0.75;" x="661.229123" xlink:href="#mb771f5eaab" y="86.891348"/>
     <use style="fill:#1f77b4;stroke:#ffffff;stroke-width:0.75;" x="663.816502" xlink:href="#mb771f5eaab" y="85.841804"/>
     <use style="fill:#1f77b4;stroke:#ffffff;stroke-width:0.75;" x="666.358084" xlink:href="#mb771f5eaab" y="85.710611"/>
     <use style="fill:#1f77b4;stroke:#ffffff;stroke-width:0.75;" x="668.855462" xlink:href="#mb771f5eaab" y="85.579418"/>
     <use style="fill:#1f77b4;stroke:#ffffff;stroke-width:0.75;" x="671.310148" xlink:href="#mb771f5eaab" y="84.923453"/>
     <use style="fill:#1f77b4;stroke:#ffffff;stroke-width:0.75;" x="673.723577" xlink:href="#mb771f5eaab" y="84.39868"/>
     <use style="fill:#1f77b4;stroke:#ffffff;stroke-width:0.75;" x="676.097112" xlink:href="#mb771f5eaab" y="84.136294"/>
     <use style="fill:#1f77b4;stroke:#ffffff;stroke-width:0.75;" x="678.432052" xlink:href="#mb771f5eaab" y="84.005101"/>
     <use style="fill:#1f77b4;stroke:#ffffff;stroke-width:0.75;" x="680.729631" xlink:href="#mb771f5eaab" y="83.349136"/>
     <use style="fill:#1f77b4;stroke:#ffffff;stroke-width:0.75;" x="682.991027" xlink:href="#mb771f5eaab" y="83.349136"/>
     <use style="fill:#1f77b4;stroke:#ffffff;stroke-width:0.75;" x="685.21736" xlink:href="#mb771f5eaab" y="83.349136"/>
     <use style="fill:#1f77b4;stroke:#ffffff;stroke-width:0.75;" x="687.409702" xlink:href="#mb771f5eaab" y="83.349136"/>
     <use style="fill:#1f77b4;stroke:#ffffff;stroke-width:0.75;" x="689.569076" xlink:href="#mb771f5eaab" y="83.349136"/>
     <use style="fill:#1f77b4;stroke:#ffffff;stroke-width:0.75;" x="691.696457" xlink:href="#mb771f5eaab" y="83.217943"/>
     <use style="fill:#1f77b4;stroke:#ffffff;stroke-width:0.75;" x="693.792781" xlink:href="#mb771f5eaab" y="81.906012"/>
     <use style="fill:#1f77b4;stroke:#ffffff;stroke-width:0.75;" x="695.858941" xlink:href="#mb771f5eaab" y="81.906012"/>
     <use style="fill:#1f77b4;stroke:#ffffff;stroke-width:0.75;" x="697.895793" xlink:href="#mb771f5eaab" y="80.594082"/>
     <use style="fill:#1f77b4;stroke:#ffffff;stroke-width:0.75;" x="699.904156" xlink:href="#mb771f5eaab" y="80.462889"/>
     <use style="fill:#1f77b4;stroke:#ffffff;stroke-width:0.75;" x="701.884817" xlink:href="#mb771f5eaab" y="79.938116"/>
     <use style="fill:#1f77b4;stroke:#ffffff;stroke-width:0.75;" x="703.838529" xlink:href="#mb771f5eaab" y="79.938116"/>
     <use style="fill:#1f77b4;stroke:#ffffff;stroke-width:0.75;" x="705.766016" xlink:href="#mb771f5eaab" y="79.938116"/>
     <use style="fill:#1f77b4;stroke:#ffffff;stroke-width:0.75;" x="707.667973" xlink:href="#mb771f5eaab" y="79.544537"/>
     <use style="fill:#1f77b4;stroke:#ffffff;stroke-width:0.75;" x="709.545067" xlink:href="#mb771f5eaab" y="79.150958"/>
     <use style="fill:#1f77b4;stroke:#ffffff;stroke-width:0.75;" x="711.397939" xlink:href="#mb771f5eaab" y="78.888572"/>
     <use style="fill:#1f77b4;stroke:#ffffff;stroke-width:0.75;" x="713.227208" xlink:href="#mb771f5eaab" y="78.888572"/>
     <use style="fill:#1f77b4;stroke:#ffffff;stroke-width:0.75;" x="715.033466" xlink:href="#mb771f5eaab" y="77.183062"/>
     <use style="fill:#1f77b4;stroke:#ffffff;stroke-width:0.75;" x="716.817286" xlink:href="#mb771f5eaab" y="77.183062"/>
     <use style="fill:#1f77b4;stroke:#ffffff;stroke-width:0.75;" x="718.579217" xlink:href="#mb771f5eaab" y="77.183062"/>
     <use style="fill:#1f77b4;stroke:#ffffff;stroke-width:0.75;" x="720.319792" xlink:href="#mb771f5eaab" y="77.183062"/>
     <use style="fill:#1f77b4;stroke:#ffffff;stroke-width:0.75;" x="722.03952" xlink:href="#mb771f5eaab" y="77.183062"/>
     <use style="fill:#1f77b4;stroke:#ffffff;stroke-width:0.75;" x="723.738897" xlink:href="#mb771f5eaab" y="77.183062"/>
     <use style="fill:#1f77b4;stroke:#ffffff;stroke-width:0.75;" x="725.418397" xlink:href="#mb771f5eaab" y="77.183062"/>
     <use style="fill:#1f77b4;stroke:#ffffff;stroke-width:0.75;" x="727.078481" xlink:href="#mb771f5eaab" y="77.183062"/>
     <use style="fill:#1f77b4;stroke:#ffffff;stroke-width:0.75;" x="728.719591" xlink:href="#mb771f5eaab" y="76.65829"/>
     <use style="fill:#1f77b4;stroke:#ffffff;stroke-width:0.75;" x="730.342158" xlink:href="#mb771f5eaab" y="76.65829"/>
     <use style="fill:#1f77b4;stroke:#ffffff;stroke-width:0.75;" x="731.946595" xlink:href="#mb771f5eaab" y="76.527097"/>
     <use style="fill:#1f77b4;stroke:#ffffff;stroke-width:0.75;" x="733.533304" xlink:href="#mb771f5eaab" y="76.395904"/>
     <use style="fill:#1f77b4;stroke:#ffffff;stroke-width:0.75;" x="735.10267" xlink:href="#mb771f5eaab" y="76.395904"/>
    </g>
   </g>
   <g id="line2d_37">
    <path clip-path="url(#p969de4ba2e)" d="M 85.79358 188.565969 
L 185.326487 160.097075 
L 243.549506 144.616294 
L 284.859395 137.531869 
L 316.901835 133.464884 
L 343.082414 127.036424 
L 365.217778 126.642845 
L 384.392303 124.018984 
L 401.305433 121.395123 
L 416.434742 117.984103 
L 430.120868 116.803366 
L 442.615322 115.360242 
L 454.109105 113.785925 
L 464.750686 111.686836 
L 474.657761 109.194168 
L 483.925211 107.095079 
L 492.630642 106.963886 
L 500.83834 105.783149 
L 508.602157 101.453778 
L 515.96765 99.617075 
L 522.973705 99.617075 
L 529.653776 98.96111 
L 536.036855 98.567531 
L 542.14823 98.173951 
L 548.01009 97.780372 
L 553.642013 97.2556 
L 559.061359 97.2556 
L 564.283594 95.287704 
L 569.322554 93.713387 
L 574.190669 93.582194 
L 578.899144 93.319808 
L 583.458119 93.319808 
L 587.876794 93.319808 
L 592.16355 93.188615 
L 596.326033 93.188615 
L 600.371248 92.926229 
L 604.305621 91.876685 
L 608.135065 91.876685 
L 611.865031 91.876685 
L 615.500558 91.876685 
L 619.046309 91.483105 
L 622.506613 91.220719 
L 625.885489 90.433561 
L 629.186684 90.433561 
L 632.413688 90.433561 
L 635.569763 90.433561 
L 638.65796 90.433561 
L 641.681137 89.646403 
L 644.641977 89.646403 
L 647.542997 89.646403 
L 650.386568 89.51521 
L 653.174921 89.51521 
L 655.910158 88.859244 
L 658.594267 88.859244 
L 661.229123 88.728051 
L 663.816502 88.596858 
L 666.358084 88.596858 
L 668.855462 88.334472 
L 671.310148 88.072086 
L 673.723577 88.072086 
L 676.097112 88.072086 
L 678.432052 87.8097 
L 680.729631 87.547314 
L 682.991027 87.284928 
L 685.21736 87.284928 
L 687.409702 87.153735 
L 689.569076 86.628962 
L 691.696457 86.628962 
L 693.792781 86.628962 
L 695.858941 86.628962 
L 697.895793 86.366576 
L 699.904156 86.10419 
L 701.884817 86.10419 
L 703.838529 85.448225 
L 705.766016 84.661066 
L 707.667973 84.661066 
L 709.545067 84.136294 
L 711.397939 84.136294 
L 713.227208 84.136294 
L 715.033466 82.824364 
L 716.817286 82.824364 
L 718.579217 82.824364 
L 720.319792 82.693171 
L 722.03952 82.693171 
L 723.738897 82.693171 
L 725.418397 82.561977 
L 727.078481 82.037205 
L 728.719591 77.051869 
L 730.342158 76.527097 
L 731.946595 76.527097 
L 733.533304 76.527097 
L 735.10267 76.527097 
" style="fill:none;stroke:#d62728;stroke-linecap:square;stroke-width:1.5;"/>
    <defs>
     <path d="M 0 -3 
L -3 3 
L 3 3 
z
" id="m407e2b34ba" style="stroke:#ffffff;stroke-linejoin:miter;stroke-width:0.75;"/>
    </defs>
    <g clip-path="url(#p969de4ba2e)">
     <use style="fill:#d62728;stroke:#ffffff;stroke-linejoin:miter;stroke-width:0.75;" x="85.79358" xlink:href="#m407e2b34ba" y="188.565969"/>
     <use style="fill:#d62728;stroke:#ffffff;stroke-linejoin:miter;stroke-width:0.75;" x="185.326487" xlink:href="#m407e2b34ba" y="160.097075"/>
     <use style="fill:#d62728;stroke:#ffffff;stroke-linejoin:miter;stroke-width:0.75;" x="243.549506" xlink:href="#m407e2b34ba" y="144.616294"/>
     <use style="fill:#d62728;stroke:#ffffff;stroke-linejoin:miter;stroke-width:0.75;" x="284.859395" xlink:href="#m407e2b34ba" y="137.531869"/>
     <use style="fill:#d62728;stroke:#ffffff;stroke-linejoin:miter;stroke-width:0.75;" x="316.901835" xlink:href="#m407e2b34ba" y="133.464884"/>
     <use style="fill:#d62728;stroke:#ffffff;stroke-linejoin:miter;stroke-width:0.75;" x="343.082414" xlink:href="#m407e2b34ba" y="127.036424"/>
     <use style="fill:#d62728;stroke:#ffffff;stroke-linejoin:miter;stroke-width:0.75;" x="365.217778" xlink:href="#m407e2b34ba" y="126.642845"/>
     <use style="fill:#d62728;stroke:#ffffff;stroke-linejoin:miter;stroke-width:0.75;" x="384.392303" xlink:href="#m407e2b34ba" y="124.018984"/>
     <use style="fill:#d62728;stroke:#ffffff;stroke-linejoin:miter;stroke-width:0.75;" x="401.305433" xlink:href="#m407e2b34ba" y="121.395123"/>
     <use style="fill:#d62728;stroke:#ffffff;stroke-linejoin:miter;stroke-width:0.75;" x="416.434742" xlink:href="#m407e2b34ba" y="117.984103"/>
     <use style="fill:#d62728;stroke:#ffffff;stroke-linejoin:miter;stroke-width:0.75;" x="430.120868" xlink:href="#m407e2b34ba" y="116.803366"/>
     <use style="fill:#d62728;stroke:#ffffff;stroke-linejoin:miter;stroke-width:0.75;" x="442.615322" xlink:href="#m407e2b34ba" y="115.360242"/>
     <use style="fill:#d62728;stroke:#ffffff;stroke-linejoin:miter;stroke-width:0.75;" x="454.109105" xlink:href="#m407e2b34ba" y="113.785925"/>
     <use style="fill:#d62728;stroke:#ffffff;stroke-linejoin:miter;stroke-width:0.75;" x="464.750686" xlink:href="#m407e2b34ba" y="111.686836"/>
     <use style="fill:#d62728;stroke:#ffffff;stroke-linejoin:miter;stroke-width:0.75;" x="474.657761" xlink:href="#m407e2b34ba" y="109.194168"/>
     <use style="fill:#d62728;stroke:#ffffff;stroke-linejoin:miter;stroke-width:0.75;" x="483.925211" xlink:href="#m407e2b34ba" y="107.095079"/>
     <use style="fill:#d62728;stroke:#ffffff;stroke-linejoin:miter;stroke-width:0.75;" x="492.630642" xlink:href="#m407e2b34ba" y="106.963886"/>
     <use style="fill:#d62728;stroke:#ffffff;stroke-linejoin:miter;stroke-width:0.75;" x="500.83834" xlink:href="#m407e2b34ba" y="105.783149"/>
     <use style="fill:#d62728;stroke:#ffffff;stroke-linejoin:miter;stroke-width:0.75;" x="508.602157" xlink:href="#m407e2b34ba" y="101.453778"/>
     <use style="fill:#d62728;stroke:#ffffff;stroke-linejoin:miter;stroke-width:0.75;" x="515.96765" xlink:href="#m407e2b34ba" y="99.617075"/>
     <use style="fill:#d62728;stroke:#ffffff;stroke-linejoin:miter;stroke-width:0.75;" x="522.973705" xlink:href="#m407e2b34ba" y="99.617075"/>
     <use style="fill:#d62728;stroke:#ffffff;stroke-linejoin:miter;stroke-width:0.75;" x="529.653776" xlink:href="#m407e2b34ba" y="98.96111"/>
     <use style="fill:#d62728;stroke:#ffffff;stroke-linejoin:miter;stroke-width:0.75;" x="536.036855" xlink:href="#m407e2b34ba" y="98.567531"/>
     <use style="fill:#d62728;stroke:#ffffff;stroke-linejoin:miter;stroke-width:0.75;" x="542.14823" xlink:href="#m407e2b34ba" y="98.173951"/>
     <use style="fill:#d62728;stroke:#ffffff;stroke-linejoin:miter;stroke-width:0.75;" x="548.01009" xlink:href="#m407e2b34ba" y="97.780372"/>
     <use style="fill:#d62728;stroke:#ffffff;stroke-linejoin:miter;stroke-width:0.75;" x="553.642013" xlink:href="#m407e2b34ba" y="97.2556"/>
     <use style="fill:#d62728;stroke:#ffffff;stroke-linejoin:miter;stroke-width:0.75;" x="559.061359" xlink:href="#m407e2b34ba" y="97.2556"/>
     <use style="fill:#d62728;stroke:#ffffff;stroke-linejoin:miter;stroke-width:0.75;" x="564.283594" xlink:href="#m407e2b34ba" y="95.287704"/>
     <use style="fill:#d62728;stroke:#ffffff;stroke-linejoin:miter;stroke-width:0.75;" x="569.322554" xlink:href="#m407e2b34ba" y="93.713387"/>
     <use style="fill:#d62728;stroke:#ffffff;stroke-linejoin:miter;stroke-width:0.75;" x="574.190669" xlink:href="#m407e2b34ba" y="93.582194"/>
     <use style="fill:#d62728;stroke:#ffffff;stroke-linejoin:miter;stroke-width:0.75;" x="578.899144" xlink:href="#m407e2b34ba" y="93.319808"/>
     <use style="fill:#d62728;stroke:#ffffff;stroke-linejoin:miter;stroke-width:0.75;" x="583.458119" xlink:href="#m407e2b34ba" y="93.319808"/>
     <use style="fill:#d62728;stroke:#ffffff;stroke-linejoin:miter;stroke-width:0.75;" x="587.876794" xlink:href="#m407e2b34ba" y="93.319808"/>
     <use style="fill:#d62728;stroke:#ffffff;stroke-linejoin:miter;stroke-width:0.75;" x="592.16355" xlink:href="#m407e2b34ba" y="93.188615"/>
     <use style="fill:#d62728;stroke:#ffffff;stroke-linejoin:miter;stroke-width:0.75;" x="596.326033" xlink:href="#m407e2b34ba" y="93.188615"/>
     <use style="fill:#d62728;stroke:#ffffff;stroke-linejoin:miter;stroke-width:0.75;" x="600.371248" xlink:href="#m407e2b34ba" y="92.926229"/>
     <use style="fill:#d62728;stroke:#ffffff;stroke-linejoin:miter;stroke-width:0.75;" x="604.305621" xlink:href="#m407e2b34ba" y="91.876685"/>
     <use style="fill:#d62728;stroke:#ffffff;stroke-linejoin:miter;stroke-width:0.75;" x="608.135065" xlink:href="#m407e2b34ba" y="91.876685"/>
     <use style="fill:#d62728;stroke:#ffffff;stroke-linejoin:miter;stroke-width:0.75;" x="611.865031" xlink:href="#m407e2b34ba" y="91.876685"/>
     <use style="fill:#d62728;stroke:#ffffff;stroke-linejoin:miter;stroke-width:0.75;" x="615.500558" xlink:href="#m407e2b34ba" y="91.876685"/>
     <use style="fill:#d62728;stroke:#ffffff;stroke-linejoin:miter;stroke-width:0.75;" x="619.046309" xlink:href="#m407e2b34ba" y="91.483105"/>
     <use style="fill:#d62728;stroke:#ffffff;stroke-linejoin:miter;stroke-width:0.75;" x="622.506613" xlink:href="#m407e2b34ba" y="91.220719"/>
     <use style="fill:#d62728;stroke:#ffffff;stroke-linejoin:miter;stroke-width:0.75;" x="625.885489" xlink:href="#m407e2b34ba" y="90.433561"/>
     <use style="fill:#d62728;stroke:#ffffff;stroke-linejoin:miter;stroke-width:0.75;" x="629.186684" xlink:href="#m407e2b34ba" y="90.433561"/>
     <use style="fill:#d62728;stroke:#ffffff;stroke-linejoin:miter;stroke-width:0.75;" x="632.413688" xlink:href="#m407e2b34ba" y="90.433561"/>
     <use style="fill:#d62728;stroke:#ffffff;stroke-linejoin:miter;stroke-width:0.75;" x="635.569763" xlink:href="#m407e2b34ba" y="90.433561"/>
     <use style="fill:#d62728;stroke:#ffffff;stroke-linejoin:miter;stroke-width:0.75;" x="638.65796" xlink:href="#m407e2b34ba" y="90.433561"/>
     <use style="fill:#d62728;stroke:#ffffff;stroke-linejoin:miter;stroke-width:0.75;" x="641.681137" xlink:href="#m407e2b34ba" y="89.646403"/>
     <use style="fill:#d62728;stroke:#ffffff;stroke-linejoin:miter;stroke-width:0.75;" x="644.641977" xlink:href="#m407e2b34ba" y="89.646403"/>
     <use style="fill:#d62728;stroke:#ffffff;stroke-linejoin:miter;stroke-width:0.75;" x="647.542997" xlink:href="#m407e2b34ba" y="89.646403"/>
     <use style="fill:#d62728;stroke:#ffffff;stroke-linejoin:miter;stroke-width:0.75;" x="650.386568" xlink:href="#m407e2b34ba" y="89.51521"/>
     <use style="fill:#d62728;stroke:#ffffff;stroke-linejoin:miter;stroke-width:0.75;" x="653.174921" xlink:href="#m407e2b34ba" y="89.51521"/>
     <use style="fill:#d62728;stroke:#ffffff;stroke-linejoin:miter;stroke-width:0.75;" x="655.910158" xlink:href="#m407e2b34ba" y="88.859244"/>
     <use style="fill:#d62728;stroke:#ffffff;stroke-linejoin:miter;stroke-width:0.75;" x="658.594267" xlink:href="#m407e2b34ba" y="88.859244"/>
     <use style="fill:#d62728;stroke:#ffffff;stroke-linejoin:miter;stroke-width:0.75;" x="661.229123" xlink:href="#m407e2b34ba" y="88.728051"/>
     <use style="fill:#d62728;stroke:#ffffff;stroke-linejoin:miter;stroke-width:0.75;" x="663.816502" xlink:href="#m407e2b34ba" y="88.596858"/>
     <use style="fill:#d62728;stroke:#ffffff;stroke-linejoin:miter;stroke-width:0.75;" x="666.358084" xlink:href="#m407e2b34ba" y="88.596858"/>
     <use style="fill:#d62728;stroke:#ffffff;stroke-linejoin:miter;stroke-width:0.75;" x="668.855462" xlink:href="#m407e2b34ba" y="88.334472"/>
     <use style="fill:#d62728;stroke:#ffffff;stroke-linejoin:miter;stroke-width:0.75;" x="671.310148" xlink:href="#m407e2b34ba" y="88.072086"/>
     <use style="fill:#d62728;stroke:#ffffff;stroke-linejoin:miter;stroke-width:0.75;" x="673.723577" xlink:href="#m407e2b34ba" y="88.072086"/>
     <use style="fill:#d62728;stroke:#ffffff;stroke-linejoin:miter;stroke-width:0.75;" x="676.097112" xlink:href="#m407e2b34ba" y="88.072086"/>
     <use style="fill:#d62728;stroke:#ffffff;stroke-linejoin:miter;stroke-width:0.75;" x="678.432052" xlink:href="#m407e2b34ba" y="87.8097"/>
     <use style="fill:#d62728;stroke:#ffffff;stroke-linejoin:miter;stroke-width:0.75;" x="680.729631" xlink:href="#m407e2b34ba" y="87.547314"/>
     <use style="fill:#d62728;stroke:#ffffff;stroke-linejoin:miter;stroke-width:0.75;" x="682.991027" xlink:href="#m407e2b34ba" y="87.284928"/>
     <use style="fill:#d62728;stroke:#ffffff;stroke-linejoin:miter;stroke-width:0.75;" x="685.21736" xlink:href="#m407e2b34ba" y="87.284928"/>
     <use style="fill:#d62728;stroke:#ffffff;stroke-linejoin:miter;stroke-width:0.75;" x="687.409702" xlink:href="#m407e2b34ba" y="87.153735"/>
     <use style="fill:#d62728;stroke:#ffffff;stroke-linejoin:miter;stroke-width:0.75;" x="689.569076" xlink:href="#m407e2b34ba" y="86.628962"/>
     <use style="fill:#d62728;stroke:#ffffff;stroke-linejoin:miter;stroke-width:0.75;" x="691.696457" xlink:href="#m407e2b34ba" y="86.628962"/>
     <use style="fill:#d62728;stroke:#ffffff;stroke-linejoin:miter;stroke-width:0.75;" x="693.792781" xlink:href="#m407e2b34ba" y="86.628962"/>
     <use style="fill:#d62728;stroke:#ffffff;stroke-linejoin:miter;stroke-width:0.75;" x="695.858941" xlink:href="#m407e2b34ba" y="86.628962"/>
     <use style="fill:#d62728;stroke:#ffffff;stroke-linejoin:miter;stroke-width:0.75;" x="697.895793" xlink:href="#m407e2b34ba" y="86.366576"/>
     <use style="fill:#d62728;stroke:#ffffff;stroke-linejoin:miter;stroke-width:0.75;" x="699.904156" xlink:href="#m407e2b34ba" y="86.10419"/>
     <use style="fill:#d62728;stroke:#ffffff;stroke-linejoin:miter;stroke-width:0.75;" x="701.884817" xlink:href="#m407e2b34ba" y="86.10419"/>
     <use style="fill:#d62728;stroke:#ffffff;stroke-linejoin:miter;stroke-width:0.75;" x="703.838529" xlink:href="#m407e2b34ba" y="85.448225"/>
     <use style="fill:#d62728;stroke:#ffffff;stroke-linejoin:miter;stroke-width:0.75;" x="705.766016" xlink:href="#m407e2b34ba" y="84.661066"/>
     <use style="fill:#d62728;stroke:#ffffff;stroke-linejoin:miter;stroke-width:0.75;" x="707.667973" xlink:href="#m407e2b34ba" y="84.661066"/>
     <use style="fill:#d62728;stroke:#ffffff;stroke-linejoin:miter;stroke-width:0.75;" x="709.545067" xlink:href="#m407e2b34ba" y="84.136294"/>
     <use style="fill:#d62728;stroke:#ffffff;stroke-linejoin:miter;stroke-width:0.75;" x="711.397939" xlink:href="#m407e2b34ba" y="84.136294"/>
     <use style="fill:#d62728;stroke:#ffffff;stroke-linejoin:miter;stroke-width:0.75;" x="713.227208" xlink:href="#m407e2b34ba" y="84.136294"/>
     <use style="fill:#d62728;stroke:#ffffff;stroke-linejoin:miter;stroke-width:0.75;" x="715.033466" xlink:href="#m407e2b34ba" y="82.824364"/>
     <use style="fill:#d62728;stroke:#ffffff;stroke-linejoin:miter;stroke-width:0.75;" x="716.817286" xlink:href="#m407e2b34ba" y="82.824364"/>
     <use style="fill:#d62728;stroke:#ffffff;stroke-linejoin:miter;stroke-width:0.75;" x="718.579217" xlink:href="#m407e2b34ba" y="82.824364"/>
     <use style="fill:#d62728;stroke:#ffffff;stroke-linejoin:miter;stroke-width:0.75;" x="720.319792" xlink:href="#m407e2b34ba" y="82.693171"/>
     <use style="fill:#d62728;stroke:#ffffff;stroke-linejoin:miter;stroke-width:0.75;" x="722.03952" xlink:href="#m407e2b34ba" y="82.693171"/>
     <use style="fill:#d62728;stroke:#ffffff;stroke-linejoin:miter;stroke-width:0.75;" x="723.738897" xlink:href="#m407e2b34ba" y="82.693171"/>
     <use style="fill:#d62728;stroke:#ffffff;stroke-linejoin:miter;stroke-width:0.75;" x="725.418397" xlink:href="#m407e2b34ba" y="82.561977"/>
     <use style="fill:#d62728;stroke:#ffffff;stroke-linejoin:miter;stroke-width:0.75;" x="727.078481" xlink:href="#m407e2b34ba" y="82.037205"/>
     <use style="fill:#d62728;stroke:#ffffff;stroke-linejoin:miter;stroke-width:0.75;" x="728.719591" xlink:href="#m407e2b34ba" y="77.051869"/>
     <use style="fill:#d62728;stroke:#ffffff;stroke-linejoin:miter;stroke-width:0.75;" x="730.342158" xlink:href="#m407e2b34ba" y="76.527097"/>
     <use style="fill:#d62728;stroke:#ffffff;stroke-linejoin:miter;stroke-width:0.75;" x="731.946595" xlink:href="#m407e2b34ba" y="76.527097"/>
     <use style="fill:#d62728;stroke:#ffffff;stroke-linejoin:miter;stroke-width:0.75;" x="733.533304" xlink:href="#m407e2b34ba" y="76.527097"/>
     <use style="fill:#d62728;stroke:#ffffff;stroke-linejoin:miter;stroke-width:0.75;" x="735.10267" xlink:href="#m407e2b34ba" y="76.527097"/>
    </g>
   </g>
   <g id="line2d_38"/>
   <g id="line2d_39"/>
   <g id="line2d_40"/>
   <g id="line2d_41">
    <path clip-path="url(#p969de4ba2e)" d="M 735.10267 288.430125 
L 735.10267 22.318125 
" style="fill:none;stroke:#ff0000;stroke-linecap:square;stroke-width:1.5;"/>
   </g>
   <g id="patch_3">
    <path d="M 53.328125 274.628615 
L 53.328125 64.719722 
" style="fill:none;stroke:#000000;stroke-linecap:square;stroke-linejoin:miter;stroke-width:0.8;"/>
   </g>
   <g id="patch_4">
    <path d="M 85.79358 288.430125 
L 735.104405 288.430125 
" style="fill:none;stroke:#000000;stroke-linecap:square;stroke-linejoin:miter;stroke-width:0.8;"/>
   </g>
   <g id="text_20">
    <!-- harfbuzz-1.3.2 (23h, 20 trials/fuzzer) -->
    <g transform="translate(300.32 16.318125)scale(0.12 -0.12)">
     <defs>
      <path d="M 2375 4863 
L 2375 4384 
L 1825 4384 
Q 1516 4384 1395 4259 
Q 1275 4134 1275 3809 
L 1275 3500 
L 2222 3500 
L 2222 3053 
L 1275 3053 
L 1275 0 
L 697 0 
L 697 3053 
L 147 3053 
L 147 3500 
L 697 3500 
L 697 3744 
Q 697 4328 969 4595 
Q 1241 4863 1831 4863 
L 2375 4863 
z
" id="DejaVuSans-66" transform="scale(0.015625)"/>
      <path d="M 3116 1747 
Q 3116 2381 2855 2742 
Q 2594 3103 2138 3103 
Q 1681 3103 1420 2742 
Q 1159 2381 1159 1747 
Q 1159 1113 1420 752 
Q 1681 391 2138 391 
Q 2594 391 2855 752 
Q 3116 1113 3116 1747 
z
M 1159 2969 
Q 1341 3281 1617 3432 
Q 1894 3584 2278 3584 
Q 2916 3584 3314 3078 
Q 3713 2572 3713 1747 
Q 3713 922 3314 415 
Q 2916 -91 2278 -91 
Q 1894 -91 1617 61 
Q 1341 213 1159 525 
L 1159 0 
L 581 0 
L 581 4863 
L 1159 4863 
L 1159 2969 
z
" id="DejaVuSans-62" transform="scale(0.015625)"/>
      <path d="M 353 3500 
L 3084 3500 
L 3084 2975 
L 922 459 
L 3084 459 
L 3084 0 
L 275 0 
L 275 525 
L 2438 3041 
L 353 3041 
L 353 3500 
z
" id="DejaVuSans-7a" transform="scale(0.015625)"/>
      <path d="M 313 2009 
L 1997 2009 
L 1997 1497 
L 313 1497 
L 313 2009 
z
" id="DejaVuSans-2d" transform="scale(0.015625)"/>
      <path d="M 684 794 
L 1344 794 
L 1344 0 
L 684 0 
L 684 794 
z
" id="DejaVuSans-2e" transform="scale(0.015625)"/>
      <path d="M 750 794 
L 1409 794 
L 1409 256 
L 897 -744 
L 494 -744 
L 750 256 
L 750 794 
z
" id="DejaVuSans-2c" transform="scale(0.015625)"/>
      <path d="M 603 4863 
L 1178 4863 
L 1178 0 
L 603 0 
L 603 4863 
z
" id="DejaVuSans-6c" transform="scale(0.015625)"/>
      <path d="M 2834 3397 
L 2834 2853 
Q 2591 2978 2328 3040 
Q 2066 3103 1784 3103 
Q 1356 3103 1142 2972 
Q 928 2841 928 2578 
Q 928 2378 1081 2264 
Q 1234 2150 1697 2047 
L 1894 2003 
Q 2506 1872 2764 1633 
Q 3022 1394 3022 966 
Q 3022 478 2636 193 
Q 2250 -91 1575 -91 
Q 1294 -91 989 -36 
Q 684 19 347 128 
L 347 722 
Q 666 556 975 473 
Q 1284 391 1588 391 
Q 1994 391 2212 530 
Q 2431 669 2431 922 
Q 2431 1156 2273 1281 
Q 2116 1406 1581 1522 
L 1381 1569 
Q 847 1681 609 1914 
Q 372 2147 372 2553 
Q 372 3047 722 3315 
Q 1072 3584 1716 3584 
Q 2034 3584 2315 3537 
Q 2597 3491 2834 3397 
z
" id="DejaVuSans-73" transform="scale(0.015625)"/>
      <path d="M 1625 4666 
L 2156 4666 
L 531 -594 
L 0 -594 
L 1625 4666 
z
" id="DejaVuSans-2f" transform="scale(0.015625)"/>
     </defs>
     <use xlink:href="#DejaVuSans-68"/>
     <use x="63.378906" xlink:href="#DejaVuSans-61"/>
     <use x="124.658203" xlink:href="#DejaVuSans-72"/>
     <use x="165.771484" xlink:href="#DejaVuSans-66"/>
     <use x="200.976562" xlink:href="#DejaVuSans-62"/>
     <use x="264.453125" xlink:href="#DejaVuSans-75"/>
     <use x="327.832031" xlink:href="#DejaVuSans-7a"/>
     <use x="380.322266" xlink:href="#DejaVuSans-7a"/>
     <use x="432.8125" xlink:href="#DejaVuSans-2d"/>
     <use x="468.896484" xlink:href="#DejaVuSans-31"/>
     <use x="532.519531" xlink:href="#DejaVuSans-2e"/>
     <use x="564.306641" xlink:href="#DejaVuSans-33"/>
     <use x="627.929688" xlink:href="#DejaVuSans-2e"/>
     <use x="659.716797" xlink:href="#DejaVuSans-32"/>
     <use x="723.339844" xlink:href="#DejaVuSans-20"/>
     <use x="755.126953" xlink:href="#DejaVuSans-28"/>
     <use x="794.140625" xlink:href="#DejaVuSans-32"/>
     <use x="857.763672" xlink:href="#DejaVuSans-33"/>
     <use x="921.386719" xlink:href="#DejaVuSans-68"/>
     <use x="984.765625" xlink:href="#DejaVuSans-2c"/>
     <use x="1016.552734" xlink:href="#DejaVuSans-20"/>
     <use x="1048.339844" xlink:href="#DejaVuSans-32"/>
     <use x="1111.962891" xlink:href="#DejaVuSans-30"/>
     <use x="1175.585938" xlink:href="#DejaVuSans-20"/>
     <use x="1207.373047" xlink:href="#DejaVuSans-74"/>
     <use x="1246.582031" xlink:href="#DejaVuSans-72"/>
     <use x="1287.695312" xlink:href="#DejaVuSans-69"/>
     <use x="1315.478516" xlink:href="#DejaVuSans-61"/>
     <use x="1376.757812" xlink:href="#DejaVuSans-6c"/>
     <use x="1404.541016" xlink:href="#DejaVuSans-73"/>
     <use x="1456.640625" xlink:href="#DejaVuSans-2f"/>
     <use x="1490.332031" xlink:href="#DejaVuSans-66"/>
     <use x="1525.537109" xlink:href="#DejaVuSans-75"/>
     <use x="1588.916016" xlink:href="#DejaVuSans-7a"/>
     <use x="1641.40625" xlink:href="#DejaVuSans-7a"/>
     <use x="1693.896484" xlink:href="#DejaVuSans-65"/>
     <use x="1755.419922" xlink:href="#DejaVuSans-72"/>
     <use x="1796.533203" xlink:href="#DejaVuSans-29"/>
    </g>
   </g>
   <g id="legend_1">
    <g id="line2d_42">
     <path d="M 771.568125 30.416562 
L 791.568125 30.416562 
" style="fill:none;stroke:#98df8a;stroke-linecap:square;stroke-width:1.5;"/>
    </g>
    <g id="line2d_43">
     <defs>
      <path d="M -0 3 
L 3 -3 
L -3 -3 
z
" id="m6b3001fd21" style="stroke:#98df8a;stroke-linejoin:miter;"/>
     </defs>
     <g>
      <use style="fill:#98df8a;stroke:#98df8a;stroke-linejoin:miter;" x="781.568125" xlink:href="#m6b3001fd21" y="30.416562"/>
     </g>
    </g>
    <g id="text_21">
     <!-- fafuzz -->
     <g transform="translate(799.568125 33.916562)scale(0.1 -0.1)">
      <use xlink:href="#DejaVuSans-66"/>
      <use x="35.205078" xlink:href="#DejaVuSans-61"/>
      <use x="96.484375" xlink:href="#DejaVuSans-66"/>
      <use x="131.689453" xlink:href="#DejaVuSans-75"/>
      <use x="195.068359" xlink:href="#DejaVuSans-7a"/>
      <use x="247.558594" xlink:href="#DejaVuSans-7a"/>
     </g>
    </g>
    <g id="line2d_44">
     <path d="M 771.568125 45.094688 
L 791.568125 45.094688 
" style="fill:none;stroke:#1f77b4;stroke-linecap:square;stroke-width:1.5;"/>
    </g>
    <g id="line2d_45">
     <defs>
      <path d="M 0 3 
C 0.795609 3 1.55874 2.683901 2.12132 2.12132 
C 2.683901 1.55874 3 0.795609 3 0 
C 3 -0.795609 2.683901 -1.55874 2.12132 -2.12132 
C 1.55874 -2.683901 0.795609 -3 0 -3 
C -0.795609 -3 -1.55874 -2.683901 -2.12132 -2.12132 
C -2.683901 -1.55874 -3 -0.795609 -3 0 
C -3 0.795609 -2.683901 1.55874 -2.12132 2.12132 
C -1.55874 2.683901 -0.795609 3 0 3 
z
" id="m487e2d0419" style="stroke:#1f77b4;"/>
     </defs>
     <g>
      <use style="fill:#1f77b4;stroke:#1f77b4;" x="781.568125" xlink:href="#m487e2d0419" y="45.094688"/>
     </g>
    </g>
    <g id="text_22">
     <!-- afl_2_52_b -->
     <g transform="translate(799.568125 48.594688)scale(0.1 -0.1)">
      <defs>
       <path d="M 3263 -1063 
L 3263 -1509 
L -63 -1509 
L -63 -1063 
L 3263 -1063 
z
" id="DejaVuSans-5f" transform="scale(0.015625)"/>
      </defs>
      <use xlink:href="#DejaVuSans-61"/>
      <use x="61.279297" xlink:href="#DejaVuSans-66"/>
      <use x="96.484375" xlink:href="#DejaVuSans-6c"/>
      <use x="124.267578" xlink:href="#DejaVuSans-5f"/>
      <use x="174.267578" xlink:href="#DejaVuSans-32"/>
      <use x="237.890625" xlink:href="#DejaVuSans-5f"/>
      <use x="287.890625" xlink:href="#DejaVuSans-35"/>
      <use x="351.513672" xlink:href="#DejaVuSans-32"/>
      <use x="415.136719" xlink:href="#DejaVuSans-5f"/>
      <use x="465.136719" xlink:href="#DejaVuSans-62"/>
     </g>
    </g>
    <g id="line2d_46">
     <path d="M 771.568125 60.050937 
L 791.568125 60.050937 
" style="fill:none;stroke:#d62728;stroke-linecap:square;stroke-width:1.5;"/>
    </g>
    <g id="line2d_47">
     <defs>
      <path d="M 0 -3 
L -3 3 
L 3 3 
z
" id="mddfb13c1b9" style="stroke:#d62728;stroke-linejoin:miter;"/>
     </defs>
     <g>
      <use style="fill:#d62728;stroke:#d62728;stroke-linejoin:miter;" x="781.568125" xlink:href="#mddfb13c1b9" y="60.050937"/>
     </g>
    </g>
    <g id="text_23">
     <!-- mopt -->
     <g transform="translate(799.568125 63.550937)scale(0.1 -0.1)">
      <defs>
       <path d="M 1159 525 
L 1159 -1331 
L 581 -1331 
L 581 3500 
L 1159 3500 
L 1159 2969 
Q 1341 3281 1617 3432 
Q 1894 3584 2278 3584 
Q 2916 3584 3314 3078 
Q 3713 2572 3713 1747 
Q 3713 922 3314 415 
Q 2916 -91 2278 -91 
Q 1894 -91 1617 61 
Q 1341 213 1159 525 
z
M 3116 1747 
Q 3116 2381 2855 2742 
Q 2594 3103 2138 3103 
Q 1681 3103 1420 2742 
Q 1159 2381 1159 1747 
Q 1159 1113 1420 752 
Q 1681 391 2138 391 
Q 2594 391 2855 752 
Q 3116 1113 3116 1747 
z
" id="DejaVuSans-70" transform="scale(0.015625)"/>
      </defs>
      <use xlink:href="#DejaVuSans-6d"/>
      <use x="97.412109" xlink:href="#DejaVuSans-6f"/>
      <use x="158.59375" xlink:href="#DejaVuSans-70"/>
      <use x="222.070312" xlink:href="#DejaVuSans-74"/>
     </g>
    </g>
   </g>
  </g>
 </g>
 <defs>
  <clipPath id="p969de4ba2e">
   <rect height="266.112" width="714.24" x="53.328125" y="22.318125"/>
  </clipPath>
 </defs>
</svg>
