<?xml version="1.0" encoding="utf-8" standalone="no"?>
<!DOCTYPE svg PUBLIC "-//W3C//DTD SVG 1.1//EN"
  "http://www.w3.org/Graphics/SVG/1.1/DTD/svg11.dtd">
<svg height="325.986375pt" version="1.1" viewBox="0 0 863.630625 325.986375" width="863.630625pt" xmlns="http://www.w3.org/2000/svg" xmlns:xlink="http://www.w3.org/1999/xlink">
 <metadata>
  <rdf:RDF xmlns:cc="http://creativecommons.org/ns#" xmlns:dc="http://purl.org/dc/elements/1.1/" xmlns:rdf="http://www.w3.org/1999/02/22-rdf-syntax-ns#">
   <cc:Work>
    <dc:type rdf:resource="http://purl.org/dc/dcmitype/StillImage"/>
    <dc:date>2021-12-16T18:47:12.627732</dc:date>
    <dc:format>image/svg+xml</dc:format>
    <dc:creator>
     <cc:Agent>
      <dc:title>Matplotlib v3.4.1, https://matplotlib.org/</dc:title>
     </cc:Agent>
    </dc:creator>
   </cc:Work>
  </rdf:RDF>
 </metadata>
 <defs>
  <style type="text/css">*{stroke-linecap:butt;stroke-linejoin:round;}</style>
 </defs>
 <g id="figure_1">
  <g id="patch_1">
   <path d="M 0 325.986375 
L 863.630625 325.986375 
L 863.630625 0 
L 0 0 
z
" style="fill:#ffffff;"/>
  </g>
  <g id="axes_1">
   <g id="patch_2">
    <path d="M 53.328125 288.430125 
L 767.568125 288.430125 
L 767.568125 22.318125 
L 53.328125 22.318125 
z
" style="fill:#ffffff;"/>
   </g>
   <g id="PolyCollection_1">
    <defs>
     <path d="M 85.79358 -113.745341 
L 85.79358 -72.037705 
L 92.928844 -113.080323 
L 100.064109 -163.386068 
L 107.199374 -174.906068 
L 114.334638 -194.385341 
L 121.469903 -203.182432 
L 128.605168 -213.026795 
L 135.740433 -216.378068 
L 142.875697 -221.404977 
L 150.010962 -222.242795 
L 157.146227 -224.546795 
L 164.281492 -227.898068 
L 171.416756 -230.620977 
L 178.552021 -230.620977 
L 185.687286 -233.762795 
L 192.822551 -233.762795 
L 199.957815 -237.066941 
L 207.09308 -240.674795 
L 214.228345 -240.88425 
L 221.36361 -240.88425 
L 228.498874 -243.397705 
L 235.634139 -243.397705 
L 242.769404 -243.397705 
L 249.904668 -244.654432 
L 257.039933 -246.748977 
L 264.175198 -248.005705 
L 271.310463 -248.005705 
L 278.445727 -252.613705 
L 285.580992 -252.40425 
L 292.716257 -252.613705 
L 299.851522 -252.613705 
L 306.986786 -252.608468 
L 314.122051 -253.032614 
L 321.257316 -254.273632 
L 328.392581 -255.127159 
L 335.527845 -255.127159 
L 342.66311 -257.01225 
L 349.798375 -257.01225 
L 356.933639 -257.431159 
L 364.068904 -257.850068 
L 371.204169 -257.640614 
L 378.339434 -258.268977 
L 385.474698 -258.478432 
L 392.609963 -258.478432 
L 399.745228 -259.106795 
L 406.880493 -260.572977 
L 414.015757 -260.572977 
L 421.151022 -259.735159 
L 428.286287 -260.572977 
L 435.421552 -260.572977 
L 442.556816 -261.410795 
L 449.692081 -262.039159 
L 456.827346 -262.039159 
L 463.962611 -261.62025 
L 471.097875 -262.028686 
L 478.23314 -262.039159 
L 485.368405 -261.62025 
L 492.503669 -262.039159 
L 499.638934 -262.039159 
L 506.774199 -262.039159 
L 513.909464 -262.039159 
L 521.044728 -262.028686 
L 528.179993 -262.667523 
L 535.315258 -262.667523 
L 542.450523 -262.667523 
L 549.585787 -262.667523 
L 556.721052 -262.667523 
L 563.856317 -262.667523 
L 570.991582 -262.667523 
L 578.126846 -262.667523 
L 585.262111 -262.646577 
L 592.397376 -262.667523 
L 599.53264 -263.086432 
L 606.667905 -263.086432 
L 613.80317 -263.086432 
L 620.938435 -263.086432 
L 628.073699 -263.699086 
L 635.208964 -263.086432 
L 642.344229 -263.086432 
L 649.479494 -263.086432 
L 656.614758 -262.667523 
L 663.750023 -263.086432 
L 670.885288 -262.667523 
L 678.020553 -263.086432 
L 685.155817 -263.086432 
L 692.291082 -263.086432 
L 699.426347 -264.971523 
L 706.561612 -264.971523 
L 713.696876 -264.971523 
L 720.832141 -265.809341 
L 727.967406 -265.599886 
L 735.10267 -271.045705 
L 735.10267 -291.57225 
L 735.10267 -291.57225 
L 727.967406 -291.57225 
L 720.832141 -290.315523 
L 713.696876 -289.26825 
L 706.561612 -285.498068 
L 699.426347 -286.545341 
L 692.291082 -282.35625 
L 685.155817 -282.35625 
L 678.020553 -282.35625 
L 670.885288 -282.35625 
L 663.750023 -282.35625 
L 656.614758 -281.727886 
L 649.479494 -281.727886 
L 642.344229 -281.727886 
L 635.208964 -281.727886 
L 628.073699 -281.727886 
L 620.938435 -281.727886 
L 613.80317 -281.099523 
L 606.667905 -281.099523 
L 599.53264 -280.890068 
L 592.397376 -281.099523 
L 585.262111 -281.099523 
L 578.126846 -280.471159 
L 570.991582 -280.471159 
L 563.856317 -280.471159 
L 556.721052 -280.471159 
L 549.585787 -280.471159 
L 542.450523 -280.471159 
L 535.315258 -280.471159 
L 528.179993 -280.471159 
L 521.044728 -280.471159 
L 513.909464 -280.471159 
L 506.774199 -279.214432 
L 499.638934 -279.214432 
L 492.503669 -279.214432 
L 485.368405 -279.214432 
L 478.23314 -279.214432 
L 471.097875 -275.653705 
L 463.962611 -276.303014 
L 456.827346 -276.282068 
L 449.692081 -275.653705 
L 442.556816 -273.14025 
L 435.421552 -271.46985 
L 428.286287 -271.045705 
L 421.151022 -270.626795 
L 414.015757 -270.83625 
L 406.880493 -270.207886 
L 399.745228 -270.213123 
L 392.609963 -270.417341 
L 385.474698 -270.207886 
L 378.339434 -270.207886 
L 371.204169 -268.951159 
L 364.068904 -267.903886 
L 356.933639 -265.809341 
L 349.798375 -265.390432 
L 342.66311 -267.066068 
L 335.527845 -264.552614 
L 328.392581 -263.086432 
L 321.257316 -263.086432 
L 314.122051 -262.039159 
L 306.986786 -259.525705 
L 299.851522 -258.897341 
L 292.716257 -258.897341 
L 285.580992 -258.478432 
L 278.445727 -258.059523 
L 271.310463 -258.059523 
L 264.175198 -258.268977 
L 257.039933 -257.850068 
L 249.904668 -256.593341 
L 242.769404 -255.964977 
L 235.634139 -255.336614 
L 228.498874 -253.451523 
L 221.36361 -252.40425 
L 214.228345 -252.194795 
L 207.09308 -251.985341 
L 199.957815 -248.424614 
L 192.822551 -247.586795 
L 185.687286 -246.539523 
L 178.552021 -244.654432 
L 171.416756 -244.654432 
L 164.281492 -243.607159 
L 157.146227 -236.695159 
L 150.010962 -235.228977 
L 142.875697 -232.930214 
L 135.740433 -231.458795 
L 128.605168 -231.877705 
L 121.469903 -222.033341 
L 114.334638 -216.802214 
L 107.199374 -206.114795 
L 100.064109 -191.452977 
L 92.928844 -155.63625 
L 85.79358 -113.745341 
z
" id="mf185daa725" style="stroke:#1f77b4;stroke-opacity:0.2;"/>
    </defs>
    <g clip-path="url(#p0d9991be82)">
     <use style="fill:#1f77b4;fill-opacity:0.2;stroke:#1f77b4;stroke-opacity:0.2;" x="0" xlink:href="#mf185daa725" y="325.986375"/>
    </g>
   </g>
   <g id="PolyCollection_2">
    <defs>
     <path d="M 85.79358 -108.927886 
L 85.79358 -49.65225 
L 92.928844 -122.961341 
L 100.064109 -135.738068 
L 107.199374 -172.811523 
L 114.334638 -181.608614 
L 121.469903 -193.338068 
L 128.605168 -210.890359 
L 135.740433 -215.749705 
L 142.875697 -219.100977 
L 150.010962 -221.195523 
L 157.146227 -222.45225 
L 164.281492 -226.012977 
L 171.416756 -228.945341 
L 178.552021 -230.830432 
L 185.687286 -231.249341 
L 192.822551 -233.762795 
L 199.957815 -235.647886 
L 207.09308 -237.114068 
L 214.228345 -237.114068 
L 221.36361 -237.114068 
L 228.498874 -239.627523 
L 235.634139 -242.140977 
L 242.769404 -240.674795 
L 249.904668 -242.769341 
L 257.039933 -244.235523 
L 264.175198 -243.607159 
L 271.310463 -244.235523 
L 278.445727 -243.811377 
L 285.580992 -244.230286 
L 292.716257 -244.026068 
L 299.851522 -244.863886 
L 306.986786 -245.073341 
L 314.122051 -245.701705 
L 321.257316 -246.539523 
L 328.392581 -249.890795 
L 335.527845 -249.890795 
L 342.66311 -250.10025 
L 349.798375 -250.10025 
L 356.933639 -254.917705 
L 364.068904 -258.059523 
L 371.204169 -257.01225 
L 378.339434 -258.059523 
L 385.474698 -258.059523 
L 392.609963 -259.106795 
L 399.745228 -259.934141 
L 406.880493 -259.944614 
L 414.015757 -259.106795 
L 421.151022 -260.154068 
L 428.286287 -260.154068 
L 435.421552 -260.572977 
L 442.556816 -259.944614 
L 449.692081 -260.572977 
L 456.827346 -260.572977 
L 463.962611 -260.572977 
L 471.097875 -260.572977 
L 478.23314 -260.572977 
L 485.368405 -260.991886 
L 492.503669 -259.944614 
L 499.638934 -262.039159 
L 506.774199 -262.039159 
L 513.909464 -262.039159 
L 521.044728 -262.039159 
L 528.179993 -262.876977 
L 535.315258 -262.039159 
L 542.450523 -262.039159 
L 549.585787 -262.039159 
L 556.721052 -262.876977 
L 563.856317 -263.69385 
L 570.991582 -262.876977 
L 578.126846 -262.876977 
L 585.262111 -263.295886 
L 592.397376 -262.039159 
L 599.53264 -263.269705 
L 606.667905 -263.295886 
L 613.80317 -263.295886 
L 620.938435 -263.295886 
L 628.073699 -263.295886 
L 635.208964 -263.295886 
L 642.344229 -264.552614 
L 649.479494 -265.809341 
L 656.614758 -265.804105 
L 663.750023 -265.809341 
L 670.885288 -265.809341 
L 678.020553 -265.804105 
L 685.155817 -266.22825 
L 692.291082 -266.22825 
L 699.426347 -265.809341 
L 706.561612 -266.217777 
L 713.696876 -266.22825 
L 720.832141 -267.066068 
L 727.967406 -267.066068 
L 735.10267 -267.066068 
L 735.10267 -285.079159 
L 735.10267 -285.079159 
L 727.967406 -285.079159 
L 720.832141 -285.079159 
L 713.696876 -285.079159 
L 706.561612 -284.466505 
L 699.426347 -283.612977 
L 692.291082 -283.612977 
L 685.155817 -283.612977 
L 678.020553 -282.984614 
L 670.885288 -282.984614 
L 663.750023 -282.984614 
L 656.614758 -282.984614 
L 649.479494 -282.984614 
L 642.344229 -282.984614 
L 635.208964 -284.450795 
L 628.073699 -282.35625 
L 620.938435 -282.35625 
L 613.80317 -281.727886 
L 606.667905 -282.35625 
L 599.53264 -281.937341 
L 592.397376 -281.937341 
L 585.262111 -281.727886 
L 578.126846 -281.727886 
L 570.991582 -281.099523 
L 563.856317 -281.099523 
L 556.721052 -281.727886 
L 549.585787 -281.099523 
L 542.450523 -281.099523 
L 535.315258 -281.099523 
L 528.179993 -281.104759 
L 521.044728 -280.471159 
L 513.909464 -280.471159 
L 506.774199 -279.633341 
L 499.638934 -279.643814 
L 492.503669 -279.633341 
L 485.368405 -278.795523 
L 478.23314 -278.795523 
L 471.097875 -276.910432 
L 463.962611 -277.538795 
L 456.827346 -276.282068 
L 449.692081 -276.282068 
L 442.556816 -276.496759 
L 435.421552 -275.863159 
L 428.286287 -275.863159 
L 421.151022 -275.234795 
L 414.015757 -275.234795 
L 406.880493 -272.302432 
L 399.745228 -271.883523 
L 392.609963 -271.883523 
L 385.474698 -271.883523 
L 378.339434 -271.883523 
L 371.204169 -272.930795 
L 364.068904 -268.951159 
L 356.933639 -265.180977 
L 349.798375 -265.416614 
L 342.66311 -264.971523 
L 335.527845 -264.981995 
L 328.392581 -266.044977 
L 321.257316 -263.92425 
L 314.122051 -260.363523 
L 306.986786 -260.363523 
L 299.851522 -260.782432 
L 292.716257 -260.782432 
L 285.580992 -260.363523 
L 278.445727 -260.363523 
L 271.310463 -260.782432 
L 264.175198 -260.363523 
L 257.039933 -259.735159 
L 249.904668 -259.735159 
L 242.769404 -259.525705 
L 235.634139 -259.106795 
L 228.498874 -257.640614 
L 221.36361 -257.01225 
L 214.228345 -258.687886 
L 207.09308 -254.70825 
L 199.957815 -251.566432 
L 192.822551 -247.586795 
L 185.687286 -246.120614 
L 178.552021 -245.282795 
L 171.416756 -244.654432 
L 164.281492 -241.303159 
L 157.146227 -236.485705 
L 150.010962 -233.134432 
L 142.875697 -230.620977 
L 135.740433 -225.384614 
L 128.605168 -221.195523 
L 121.469903 -216.378068 
L 114.334638 -209.675523 
L 107.199374 -197.317705 
L 100.064109 -169.250795 
L 92.928844 -155.217341 
L 85.79358 -108.927886 
z
" id="mfd4f151c88" style="stroke:#d62728;stroke-opacity:0.2;"/>
    </defs>
    <g clip-path="url(#p0d9991be82)">
     <use style="fill:#d62728;fill-opacity:0.2;stroke:#d62728;stroke-opacity:0.2;" x="0" xlink:href="#mfd4f151c88" y="325.986375"/>
    </g>
   </g>
   <g id="PolyCollection_3">
    <defs>
     <path d="M 85.79358 -144.954068 
L 85.79358 -102.64425 
L 92.928844 -147.886432 
L 100.064109 -185.169341 
L 107.199374 -190.604686 
L 114.334638 -201.71625 
L 121.469903 -203.983595 
L 128.605168 -211.979523 
L 135.740433 -215.959159 
L 142.875697 -222.661705 
L 150.010962 -224.546795 
L 157.146227 -228.945341 
L 164.281492 -233.134432 
L 171.416756 -237.742432 
L 178.552021 -241.512614 
L 185.687286 -241.722068 
L 192.822551 -242.559886 
L 199.957815 -244.863886 
L 207.09308 -245.476541 
L 214.228345 -248.424614 
L 221.36361 -248.424614 
L 228.498874 -248.424614 
L 235.634139 -250.519159 
L 242.769404 -250.519159 
L 249.904668 -250.519159 
L 257.039933 -250.519159 
L 264.175198 -251.566432 
L 271.310463 -251.566432 
L 278.445727 -251.566432 
L 285.580992 -253.660977 
L 292.716257 -254.289341 
L 299.851522 -254.70825 
L 306.986786 -255.755523 
L 314.122051 -255.964977 
L 321.257316 -256.593341 
L 328.392581 -257.01225 
L 335.527845 -257.01225 
L 342.66311 -257.01225 
L 349.798375 -257.01225 
L 356.933639 -257.221705 
L 364.068904 -257.850068 
L 371.204169 -259.31625 
L 378.339434 -259.31625 
L 385.474698 -259.31625 
L 392.609963 -259.944614 
L 399.745228 -260.363523 
L 406.880493 -260.363523 
L 414.015757 -260.363523 
L 421.151022 -260.363523 
L 428.286287 -260.363523 
L 435.421552 -260.363523 
L 442.556816 -260.363523 
L 449.692081 -260.363523 
L 456.827346 -260.363523 
L 463.962611 -260.363523 
L 471.097875 -260.363523 
L 478.23314 -260.363523 
L 485.368405 -260.363523 
L 492.503669 -260.363523 
L 499.638934 -260.363523 
L 506.774199 -260.363523 
L 513.909464 -260.363523 
L 521.044728 -260.363523 
L 528.179993 -260.363523 
L 535.315258 -260.363523 
L 542.450523 -260.363523 
L 549.585787 -260.363523 
L 556.721052 -260.363523 
L 563.856317 -260.363523 
L 570.991582 -260.363523 
L 578.126846 -260.363523 
L 585.262111 -260.363523 
L 592.397376 -260.363523 
L 599.53264 -260.363523 
L 606.667905 -260.363523 
L 613.80317 -261.410795 
L 620.938435 -261.62025 
L 628.073699 -261.62025 
L 635.208964 -262.458068 
L 642.344229 -262.458068 
L 649.479494 -262.876977 
L 656.614758 -262.458068 
L 663.750023 -262.876977 
L 670.885288 -262.458068 
L 678.020553 -262.458068 
L 685.155817 -262.458068 
L 692.291082 -262.458068 
L 699.426347 -262.876977 
L 706.561612 -263.505341 
L 713.696876 -263.505341 
L 720.832141 -262.876977 
L 727.967406 -263.92425 
L 735.10267 -263.92425 
L 735.10267 -282.146795 
L 735.10267 -282.146795 
L 727.967406 -282.146795 
L 720.832141 -282.146795 
L 713.696876 -280.471159 
L 706.561612 -282.146795 
L 699.426347 -282.146795 
L 692.291082 -282.775159 
L 685.155817 -282.146795 
L 678.020553 -282.146795 
L 670.885288 -282.146795 
L 663.750023 -282.146795 
L 656.614758 -282.146795 
L 649.479494 -281.937341 
L 642.344229 -282.146795 
L 635.208964 -281.937341 
L 628.073699 -281.937341 
L 620.938435 -281.308977 
L 613.80317 -281.308977 
L 606.667905 -279.842795 
L 599.53264 -279.842795 
L 592.397376 -279.842795 
L 585.262111 -279.214432 
L 578.126846 -279.004977 
L 570.991582 -279.004977 
L 563.856317 -276.491523 
L 556.721052 -274.396977 
L 549.585787 -274.396977 
L 542.450523 -274.396977 
L 535.315258 -274.606432 
L 528.179993 -274.606432 
L 521.044728 -274.396977 
L 513.909464 -274.396977 
L 506.774199 -274.402214 
L 499.638934 -274.187523 
L 492.503669 -274.187523 
L 485.368405 -274.187523 
L 478.23314 -274.187523 
L 471.097875 -274.187523 
L 463.962611 -274.606432 
L 456.827346 -274.606432 
L 449.692081 -274.187523 
L 442.556816 -274.187523 
L 435.421552 -274.187523 
L 428.286287 -274.187523 
L 421.151022 -274.187523 
L 414.015757 -274.187523 
L 406.880493 -274.187523 
L 399.745228 -274.197995 
L 392.609963 -274.187523 
L 385.474698 -273.768614 
L 378.339434 -274.187523 
L 371.204169 -274.606432 
L 364.068904 -272.302432 
L 356.933639 -270.626795 
L 349.798375 -270.626795 
L 342.66311 -270.626795 
L 335.527845 -270.626795 
L 328.392581 -270.626795 
L 321.257316 -271.045705 
L 314.122051 -270.417341 
L 306.986786 -270.417341 
L 299.851522 -267.484977 
L 292.716257 -263.295886 
L 285.580992 -261.62025 
L 278.445727 -260.572977 
L 271.310463 -260.154068 
L 264.175198 -258.478432 
L 257.039933 -258.478432 
L 249.904668 -259.525705 
L 242.769404 -258.478432 
L 235.634139 -258.478432 
L 228.498874 -257.640614 
L 221.36361 -257.640614 
L 214.228345 -257.431159 
L 207.09308 -257.431159 
L 199.957815 -257.01225 
L 192.822551 -252.40425 
L 185.687286 -249.262432 
L 178.552021 -249.262432 
L 171.416756 -247.79625 
L 164.281492 -246.330068 
L 157.146227 -242.978795 
L 150.010962 -242.140977 
L 142.875697 -240.465341 
L 135.740433 -236.066795 
L 128.605168 -227.898068 
L 121.469903 -224.546795 
L 114.334638 -220.357705 
L 107.199374 -209.466068 
L 100.064109 -200.250068 
L 92.928844 -186.635523 
L 85.79358 -144.954068 
z
" id="ma7ebbd7f14" style="stroke:#98df8a;stroke-opacity:0.2;"/>
    </defs>
    <g clip-path="url(#p0d9991be82)">
     <use style="fill:#98df8a;fill-opacity:0.2;stroke:#98df8a;stroke-opacity:0.2;" x="0" xlink:href="#ma7ebbd7f14" y="325.986375"/>
    </g>
   </g>
   <g id="matplotlib.axis_1">
    <g id="xtick_1">
     <g id="line2d_1">
      <defs>
       <path d="M 0 0 
L 0 3.5 
" id="m0b75ad4f32" style="stroke:#000000;stroke-width:0.8;"/>
      </defs>
      <g>
       <use style="stroke:#000000;stroke-width:0.8;" x="85.79358" xlink:href="#m0b75ad4f32" y="288.430125"/>
      </g>
     </g>
     <g id="text_1">
      <!-- 15m -->
      <g transform="translate(74.560767 303.028562)scale(0.1 -0.1)">
       <defs>
        <path d="M 794 531 
L 1825 531 
L 1825 4091 
L 703 3866 
L 703 4441 
L 1819 4666 
L 2450 4666 
L 2450 531 
L 3481 531 
L 3481 0 
L 794 0 
L 794 531 
z
" id="DejaVuSans-31" transform="scale(0.015625)"/>
        <path d="M 691 4666 
L 3169 4666 
L 3169 4134 
L 1269 4134 
L 1269 2991 
Q 1406 3038 1543 3061 
Q 1681 3084 1819 3084 
Q 2600 3084 3056 2656 
Q 3513 2228 3513 1497 
Q 3513 744 3044 326 
Q 2575 -91 1722 -91 
Q 1428 -91 1123 -41 
Q 819 9 494 109 
L 494 744 
Q 775 591 1075 516 
Q 1375 441 1709 441 
Q 2250 441 2565 725 
Q 2881 1009 2881 1497 
Q 2881 1984 2565 2268 
Q 2250 2553 1709 2553 
Q 1456 2553 1204 2497 
Q 953 2441 691 2322 
L 691 4666 
z
" id="DejaVuSans-35" transform="scale(0.015625)"/>
        <path d="M 3328 2828 
Q 3544 3216 3844 3400 
Q 4144 3584 4550 3584 
Q 5097 3584 5394 3201 
Q 5691 2819 5691 2113 
L 5691 0 
L 5113 0 
L 5113 2094 
Q 5113 2597 4934 2840 
Q 4756 3084 4391 3084 
Q 3944 3084 3684 2787 
Q 3425 2491 3425 1978 
L 3425 0 
L 2847 0 
L 2847 2094 
Q 2847 2600 2669 2842 
Q 2491 3084 2119 3084 
Q 1678 3084 1418 2786 
Q 1159 2488 1159 1978 
L 1159 0 
L 581 0 
L 581 3500 
L 1159 3500 
L 1159 2956 
Q 1356 3278 1631 3431 
Q 1906 3584 2284 3584 
Q 2666 3584 2933 3390 
Q 3200 3197 3328 2828 
z
" id="DejaVuSans-6d" transform="scale(0.015625)"/>
       </defs>
       <use xlink:href="#DejaVuSans-31"/>
       <use x="63.623047" xlink:href="#DejaVuSans-35"/>
       <use x="127.246094" xlink:href="#DejaVuSans-6d"/>
      </g>
     </g>
    </g>
    <g id="xtick_2">
     <g id="line2d_2">
      <g>
       <use style="stroke:#000000;stroke-width:0.8;" x="140.497276" xlink:href="#m0b75ad4f32" y="288.430125"/>
      </g>
     </g>
     <g id="text_2">
      <!-- 2h:10m -->
      <g transform="translate(121.230088 303.028562)scale(0.1 -0.1)">
       <defs>
        <path d="M 1228 531 
L 3431 531 
L 3431 0 
L 469 0 
L 469 531 
Q 828 903 1448 1529 
Q 2069 2156 2228 2338 
Q 2531 2678 2651 2914 
Q 2772 3150 2772 3378 
Q 2772 3750 2511 3984 
Q 2250 4219 1831 4219 
Q 1534 4219 1204 4116 
Q 875 4013 500 3803 
L 500 4441 
Q 881 4594 1212 4672 
Q 1544 4750 1819 4750 
Q 2544 4750 2975 4387 
Q 3406 4025 3406 3419 
Q 3406 3131 3298 2873 
Q 3191 2616 2906 2266 
Q 2828 2175 2409 1742 
Q 1991 1309 1228 531 
z
" id="DejaVuSans-32" transform="scale(0.015625)"/>
        <path d="M 3513 2113 
L 3513 0 
L 2938 0 
L 2938 2094 
Q 2938 2591 2744 2837 
Q 2550 3084 2163 3084 
Q 1697 3084 1428 2787 
Q 1159 2491 1159 1978 
L 1159 0 
L 581 0 
L 581 4863 
L 1159 4863 
L 1159 2956 
Q 1366 3272 1645 3428 
Q 1925 3584 2291 3584 
Q 2894 3584 3203 3211 
Q 3513 2838 3513 2113 
z
" id="DejaVuSans-68" transform="scale(0.015625)"/>
        <path d="M 750 794 
L 1409 794 
L 1409 0 
L 750 0 
L 750 794 
z
M 750 3309 
L 1409 3309 
L 1409 2516 
L 750 2516 
L 750 3309 
z
" id="DejaVuSans-3a" transform="scale(0.015625)"/>
        <path d="M 2034 4250 
Q 1547 4250 1301 3770 
Q 1056 3291 1056 2328 
Q 1056 1369 1301 889 
Q 1547 409 2034 409 
Q 2525 409 2770 889 
Q 3016 1369 3016 2328 
Q 3016 3291 2770 3770 
Q 2525 4250 2034 4250 
z
M 2034 4750 
Q 2819 4750 3233 4129 
Q 3647 3509 3647 2328 
Q 3647 1150 3233 529 
Q 2819 -91 2034 -91 
Q 1250 -91 836 529 
Q 422 1150 422 2328 
Q 422 3509 836 4129 
Q 1250 4750 2034 4750 
z
" id="DejaVuSans-30" transform="scale(0.015625)"/>
       </defs>
       <use xlink:href="#DejaVuSans-32"/>
       <use x="63.623047" xlink:href="#DejaVuSans-68"/>
       <use x="127.001953" xlink:href="#DejaVuSans-3a"/>
       <use x="160.693359" xlink:href="#DejaVuSans-31"/>
       <use x="224.316406" xlink:href="#DejaVuSans-30"/>
       <use x="287.939453" xlink:href="#DejaVuSans-6d"/>
      </g>
     </g>
    </g>
    <g id="xtick_3">
     <g id="line2d_3">
      <g>
       <use style="stroke:#000000;stroke-width:0.8;" x="195.200972" xlink:href="#m0b75ad4f32" y="288.430125"/>
      </g>
     </g>
     <g id="text_3">
      <!-- 4h:5m -->
      <g transform="translate(179.115035 303.028562)scale(0.1 -0.1)">
       <defs>
        <path d="M 2419 4116 
L 825 1625 
L 2419 1625 
L 2419 4116 
z
M 2253 4666 
L 3047 4666 
L 3047 1625 
L 3713 1625 
L 3713 1100 
L 3047 1100 
L 3047 0 
L 2419 0 
L 2419 1100 
L 313 1100 
L 313 1709 
L 2253 4666 
z
" id="DejaVuSans-34" transform="scale(0.015625)"/>
       </defs>
       <use xlink:href="#DejaVuSans-34"/>
       <use x="63.623047" xlink:href="#DejaVuSans-68"/>
       <use x="127.001953" xlink:href="#DejaVuSans-3a"/>
       <use x="160.693359" xlink:href="#DejaVuSans-35"/>
       <use x="224.316406" xlink:href="#DejaVuSans-6d"/>
      </g>
     </g>
    </g>
    <g id="xtick_4">
     <g id="line2d_4">
      <g>
       <use style="stroke:#000000;stroke-width:0.8;" x="249.904668" xlink:href="#m0b75ad4f32" y="288.430125"/>
      </g>
     </g>
     <g id="text_4">
      <!-- 6h -->
      <g transform="translate(243.554668 303.028562)scale(0.1 -0.1)">
       <defs>
        <path d="M 2113 2584 
Q 1688 2584 1439 2293 
Q 1191 2003 1191 1497 
Q 1191 994 1439 701 
Q 1688 409 2113 409 
Q 2538 409 2786 701 
Q 3034 994 3034 1497 
Q 3034 2003 2786 2293 
Q 2538 2584 2113 2584 
z
M 3366 4563 
L 3366 3988 
Q 3128 4100 2886 4159 
Q 2644 4219 2406 4219 
Q 1781 4219 1451 3797 
Q 1122 3375 1075 2522 
Q 1259 2794 1537 2939 
Q 1816 3084 2150 3084 
Q 2853 3084 3261 2657 
Q 3669 2231 3669 1497 
Q 3669 778 3244 343 
Q 2819 -91 2113 -91 
Q 1303 -91 875 529 
Q 447 1150 447 2328 
Q 447 3434 972 4092 
Q 1497 4750 2381 4750 
Q 2619 4750 2861 4703 
Q 3103 4656 3366 4563 
z
" id="DejaVuSans-36" transform="scale(0.015625)"/>
       </defs>
       <use xlink:href="#DejaVuSans-36"/>
       <use x="63.623047" xlink:href="#DejaVuSans-68"/>
      </g>
     </g>
    </g>
    <g id="xtick_5">
     <g id="line2d_5">
      <g>
       <use style="stroke:#000000;stroke-width:0.8;" x="304.608365" xlink:href="#m0b75ad4f32" y="288.430125"/>
      </g>
     </g>
     <g id="text_5">
      <!-- 7h:55m -->
      <g transform="translate(285.341177 303.028562)scale(0.1 -0.1)">
       <defs>
        <path d="M 525 4666 
L 3525 4666 
L 3525 4397 
L 1831 0 
L 1172 0 
L 2766 4134 
L 525 4134 
L 525 4666 
z
" id="DejaVuSans-37" transform="scale(0.015625)"/>
       </defs>
       <use xlink:href="#DejaVuSans-37"/>
       <use x="63.623047" xlink:href="#DejaVuSans-68"/>
       <use x="127.001953" xlink:href="#DejaVuSans-3a"/>
       <use x="160.693359" xlink:href="#DejaVuSans-35"/>
       <use x="224.316406" xlink:href="#DejaVuSans-35"/>
       <use x="287.939453" xlink:href="#DejaVuSans-6d"/>
      </g>
     </g>
    </g>
    <g id="xtick_6">
     <g id="line2d_6">
      <g>
       <use style="stroke:#000000;stroke-width:0.8;" x="359.312061" xlink:href="#m0b75ad4f32" y="288.430125"/>
      </g>
     </g>
     <g id="text_6">
      <!-- 9h:50m -->
      <g transform="translate(340.044874 303.028562)scale(0.1 -0.1)">
       <defs>
        <path d="M 703 97 
L 703 672 
Q 941 559 1184 500 
Q 1428 441 1663 441 
Q 2288 441 2617 861 
Q 2947 1281 2994 2138 
Q 2813 1869 2534 1725 
Q 2256 1581 1919 1581 
Q 1219 1581 811 2004 
Q 403 2428 403 3163 
Q 403 3881 828 4315 
Q 1253 4750 1959 4750 
Q 2769 4750 3195 4129 
Q 3622 3509 3622 2328 
Q 3622 1225 3098 567 
Q 2575 -91 1691 -91 
Q 1453 -91 1209 -44 
Q 966 3 703 97 
z
M 1959 2075 
Q 2384 2075 2632 2365 
Q 2881 2656 2881 3163 
Q 2881 3666 2632 3958 
Q 2384 4250 1959 4250 
Q 1534 4250 1286 3958 
Q 1038 3666 1038 3163 
Q 1038 2656 1286 2365 
Q 1534 2075 1959 2075 
z
" id="DejaVuSans-39" transform="scale(0.015625)"/>
       </defs>
       <use xlink:href="#DejaVuSans-39"/>
       <use x="63.623047" xlink:href="#DejaVuSans-68"/>
       <use x="127.001953" xlink:href="#DejaVuSans-3a"/>
       <use x="160.693359" xlink:href="#DejaVuSans-35"/>
       <use x="224.316406" xlink:href="#DejaVuSans-30"/>
       <use x="287.939453" xlink:href="#DejaVuSans-6d"/>
      </g>
     </g>
    </g>
    <g id="xtick_7">
     <g id="line2d_7">
      <g>
       <use style="stroke:#000000;stroke-width:0.8;" x="414.015757" xlink:href="#m0b75ad4f32" y="288.430125"/>
      </g>
     </g>
     <g id="text_7">
      <!-- 11h:45m -->
      <g transform="translate(391.56732 303.028562)scale(0.1 -0.1)">
       <use xlink:href="#DejaVuSans-31"/>
       <use x="63.623047" xlink:href="#DejaVuSans-31"/>
       <use x="127.246094" xlink:href="#DejaVuSans-68"/>
       <use x="190.625" xlink:href="#DejaVuSans-3a"/>
       <use x="224.316406" xlink:href="#DejaVuSans-34"/>
       <use x="287.939453" xlink:href="#DejaVuSans-35"/>
       <use x="351.5625" xlink:href="#DejaVuSans-6d"/>
      </g>
     </g>
    </g>
    <g id="xtick_8">
     <g id="line2d_8">
      <g>
       <use style="stroke:#000000;stroke-width:0.8;" x="468.719454" xlink:href="#m0b75ad4f32" y="288.430125"/>
      </g>
     </g>
     <g id="text_8">
      <!-- 13h:40m -->
      <g transform="translate(446.271016 303.028562)scale(0.1 -0.1)">
       <defs>
        <path d="M 2597 2516 
Q 3050 2419 3304 2112 
Q 3559 1806 3559 1356 
Q 3559 666 3084 287 
Q 2609 -91 1734 -91 
Q 1441 -91 1130 -33 
Q 819 25 488 141 
L 488 750 
Q 750 597 1062 519 
Q 1375 441 1716 441 
Q 2309 441 2620 675 
Q 2931 909 2931 1356 
Q 2931 1769 2642 2001 
Q 2353 2234 1838 2234 
L 1294 2234 
L 1294 2753 
L 1863 2753 
Q 2328 2753 2575 2939 
Q 2822 3125 2822 3475 
Q 2822 3834 2567 4026 
Q 2313 4219 1838 4219 
Q 1578 4219 1281 4162 
Q 984 4106 628 3988 
L 628 4550 
Q 988 4650 1302 4700 
Q 1616 4750 1894 4750 
Q 2613 4750 3031 4423 
Q 3450 4097 3450 3541 
Q 3450 3153 3228 2886 
Q 3006 2619 2597 2516 
z
" id="DejaVuSans-33" transform="scale(0.015625)"/>
       </defs>
       <use xlink:href="#DejaVuSans-31"/>
       <use x="63.623047" xlink:href="#DejaVuSans-33"/>
       <use x="127.246094" xlink:href="#DejaVuSans-68"/>
       <use x="190.625" xlink:href="#DejaVuSans-3a"/>
       <use x="224.316406" xlink:href="#DejaVuSans-34"/>
       <use x="287.939453" xlink:href="#DejaVuSans-30"/>
       <use x="351.5625" xlink:href="#DejaVuSans-6d"/>
      </g>
     </g>
    </g>
    <g id="xtick_9">
     <g id="line2d_9">
      <g>
       <use style="stroke:#000000;stroke-width:0.8;" x="523.42315" xlink:href="#m0b75ad4f32" y="288.430125"/>
      </g>
     </g>
     <g id="text_9">
      <!-- 15h:35m -->
      <g transform="translate(500.974712 303.028562)scale(0.1 -0.1)">
       <use xlink:href="#DejaVuSans-31"/>
       <use x="63.623047" xlink:href="#DejaVuSans-35"/>
       <use x="127.246094" xlink:href="#DejaVuSans-68"/>
       <use x="190.625" xlink:href="#DejaVuSans-3a"/>
       <use x="224.316406" xlink:href="#DejaVuSans-33"/>
       <use x="287.939453" xlink:href="#DejaVuSans-35"/>
       <use x="351.5625" xlink:href="#DejaVuSans-6d"/>
      </g>
     </g>
    </g>
    <g id="xtick_10">
     <g id="line2d_10">
      <g>
       <use style="stroke:#000000;stroke-width:0.8;" x="578.126846" xlink:href="#m0b75ad4f32" y="288.430125"/>
      </g>
     </g>
     <g id="text_10">
      <!-- 17h:30m -->
      <g transform="translate(555.678409 303.028562)scale(0.1 -0.1)">
       <use xlink:href="#DejaVuSans-31"/>
       <use x="63.623047" xlink:href="#DejaVuSans-37"/>
       <use x="127.246094" xlink:href="#DejaVuSans-68"/>
       <use x="190.625" xlink:href="#DejaVuSans-3a"/>
       <use x="224.316406" xlink:href="#DejaVuSans-33"/>
       <use x="287.939453" xlink:href="#DejaVuSans-30"/>
       <use x="351.5625" xlink:href="#DejaVuSans-6d"/>
      </g>
     </g>
    </g>
    <g id="xtick_11">
     <g id="line2d_11">
      <g>
       <use style="stroke:#000000;stroke-width:0.8;" x="632.830543" xlink:href="#m0b75ad4f32" y="288.430125"/>
      </g>
     </g>
     <g id="text_11">
      <!-- 19h:25m -->
      <g transform="translate(610.382105 303.028562)scale(0.1 -0.1)">
       <use xlink:href="#DejaVuSans-31"/>
       <use x="63.623047" xlink:href="#DejaVuSans-39"/>
       <use x="127.246094" xlink:href="#DejaVuSans-68"/>
       <use x="190.625" xlink:href="#DejaVuSans-3a"/>
       <use x="224.316406" xlink:href="#DejaVuSans-32"/>
       <use x="287.939453" xlink:href="#DejaVuSans-35"/>
       <use x="351.5625" xlink:href="#DejaVuSans-6d"/>
      </g>
     </g>
    </g>
    <g id="xtick_12">
     <g id="line2d_12">
      <g>
       <use style="stroke:#000000;stroke-width:0.8;" x="687.534239" xlink:href="#m0b75ad4f32" y="288.430125"/>
      </g>
     </g>
     <g id="text_12">
      <!-- 21h:20m -->
      <g transform="translate(665.085801 303.028562)scale(0.1 -0.1)">
       <use xlink:href="#DejaVuSans-32"/>
       <use x="63.623047" xlink:href="#DejaVuSans-31"/>
       <use x="127.246094" xlink:href="#DejaVuSans-68"/>
       <use x="190.625" xlink:href="#DejaVuSans-3a"/>
       <use x="224.316406" xlink:href="#DejaVuSans-32"/>
       <use x="287.939453" xlink:href="#DejaVuSans-30"/>
       <use x="351.5625" xlink:href="#DejaVuSans-6d"/>
      </g>
     </g>
    </g>
    <g id="text_13">
     <!-- Time (hour:minute) -->
     <g transform="translate(362.041094 316.706687)scale(0.1 -0.1)">
      <defs>
       <path d="M -19 4666 
L 3928 4666 
L 3928 4134 
L 2272 4134 
L 2272 0 
L 1638 0 
L 1638 4134 
L -19 4134 
L -19 4666 
z
" id="DejaVuSans-54" transform="scale(0.015625)"/>
       <path d="M 603 3500 
L 1178 3500 
L 1178 0 
L 603 0 
L 603 3500 
z
M 603 4863 
L 1178 4863 
L 1178 4134 
L 603 4134 
L 603 4863 
z
" id="DejaVuSans-69" transform="scale(0.015625)"/>
       <path d="M 3597 1894 
L 3597 1613 
L 953 1613 
Q 991 1019 1311 708 
Q 1631 397 2203 397 
Q 2534 397 2845 478 
Q 3156 559 3463 722 
L 3463 178 
Q 3153 47 2828 -22 
Q 2503 -91 2169 -91 
Q 1331 -91 842 396 
Q 353 884 353 1716 
Q 353 2575 817 3079 
Q 1281 3584 2069 3584 
Q 2775 3584 3186 3129 
Q 3597 2675 3597 1894 
z
M 3022 2063 
Q 3016 2534 2758 2815 
Q 2500 3097 2075 3097 
Q 1594 3097 1305 2825 
Q 1016 2553 972 2059 
L 3022 2063 
z
" id="DejaVuSans-65" transform="scale(0.015625)"/>
       <path id="DejaVuSans-20" transform="scale(0.015625)"/>
       <path d="M 1984 4856 
Q 1566 4138 1362 3434 
Q 1159 2731 1159 2009 
Q 1159 1288 1364 580 
Q 1569 -128 1984 -844 
L 1484 -844 
Q 1016 -109 783 600 
Q 550 1309 550 2009 
Q 550 2706 781 3412 
Q 1013 4119 1484 4856 
L 1984 4856 
z
" id="DejaVuSans-28" transform="scale(0.015625)"/>
       <path d="M 1959 3097 
Q 1497 3097 1228 2736 
Q 959 2375 959 1747 
Q 959 1119 1226 758 
Q 1494 397 1959 397 
Q 2419 397 2687 759 
Q 2956 1122 2956 1747 
Q 2956 2369 2687 2733 
Q 2419 3097 1959 3097 
z
M 1959 3584 
Q 2709 3584 3137 3096 
Q 3566 2609 3566 1747 
Q 3566 888 3137 398 
Q 2709 -91 1959 -91 
Q 1206 -91 779 398 
Q 353 888 353 1747 
Q 353 2609 779 3096 
Q 1206 3584 1959 3584 
z
" id="DejaVuSans-6f" transform="scale(0.015625)"/>
       <path d="M 544 1381 
L 544 3500 
L 1119 3500 
L 1119 1403 
Q 1119 906 1312 657 
Q 1506 409 1894 409 
Q 2359 409 2629 706 
Q 2900 1003 2900 1516 
L 2900 3500 
L 3475 3500 
L 3475 0 
L 2900 0 
L 2900 538 
Q 2691 219 2414 64 
Q 2138 -91 1772 -91 
Q 1169 -91 856 284 
Q 544 659 544 1381 
z
M 1991 3584 
L 1991 3584 
z
" id="DejaVuSans-75" transform="scale(0.015625)"/>
       <path d="M 2631 2963 
Q 2534 3019 2420 3045 
Q 2306 3072 2169 3072 
Q 1681 3072 1420 2755 
Q 1159 2438 1159 1844 
L 1159 0 
L 581 0 
L 581 3500 
L 1159 3500 
L 1159 2956 
Q 1341 3275 1631 3429 
Q 1922 3584 2338 3584 
Q 2397 3584 2469 3576 
Q 2541 3569 2628 3553 
L 2631 2963 
z
" id="DejaVuSans-72" transform="scale(0.015625)"/>
       <path d="M 3513 2113 
L 3513 0 
L 2938 0 
L 2938 2094 
Q 2938 2591 2744 2837 
Q 2550 3084 2163 3084 
Q 1697 3084 1428 2787 
Q 1159 2491 1159 1978 
L 1159 0 
L 581 0 
L 581 3500 
L 1159 3500 
L 1159 2956 
Q 1366 3272 1645 3428 
Q 1925 3584 2291 3584 
Q 2894 3584 3203 3211 
Q 3513 2838 3513 2113 
z
" id="DejaVuSans-6e" transform="scale(0.015625)"/>
       <path d="M 1172 4494 
L 1172 3500 
L 2356 3500 
L 2356 3053 
L 1172 3053 
L 1172 1153 
Q 1172 725 1289 603 
Q 1406 481 1766 481 
L 2356 481 
L 2356 0 
L 1766 0 
Q 1100 0 847 248 
Q 594 497 594 1153 
L 594 3053 
L 172 3053 
L 172 3500 
L 594 3500 
L 594 4494 
L 1172 4494 
z
" id="DejaVuSans-74" transform="scale(0.015625)"/>
       <path d="M 513 4856 
L 1013 4856 
Q 1481 4119 1714 3412 
Q 1947 2706 1947 2009 
Q 1947 1309 1714 600 
Q 1481 -109 1013 -844 
L 513 -844 
Q 928 -128 1133 580 
Q 1338 1288 1338 2009 
Q 1338 2731 1133 3434 
Q 928 4138 513 4856 
z
" id="DejaVuSans-29" transform="scale(0.015625)"/>
      </defs>
      <use xlink:href="#DejaVuSans-54"/>
      <use x="57.958984" xlink:href="#DejaVuSans-69"/>
      <use x="85.742188" xlink:href="#DejaVuSans-6d"/>
      <use x="183.154297" xlink:href="#DejaVuSans-65"/>
      <use x="244.677734" xlink:href="#DejaVuSans-20"/>
      <use x="276.464844" xlink:href="#DejaVuSans-28"/>
      <use x="315.478516" xlink:href="#DejaVuSans-68"/>
      <use x="378.857422" xlink:href="#DejaVuSans-6f"/>
      <use x="440.039062" xlink:href="#DejaVuSans-75"/>
      <use x="503.417969" xlink:href="#DejaVuSans-72"/>
      <use x="542.78125" xlink:href="#DejaVuSans-3a"/>
      <use x="576.472656" xlink:href="#DejaVuSans-6d"/>
      <use x="673.884766" xlink:href="#DejaVuSans-69"/>
      <use x="701.667969" xlink:href="#DejaVuSans-6e"/>
      <use x="765.046875" xlink:href="#DejaVuSans-75"/>
      <use x="828.425781" xlink:href="#DejaVuSans-74"/>
      <use x="867.634766" xlink:href="#DejaVuSans-65"/>
      <use x="929.158203" xlink:href="#DejaVuSans-29"/>
     </g>
    </g>
   </g>
   <g id="matplotlib.axis_2">
    <g id="ytick_1">
     <g id="line2d_13">
      <defs>
       <path d="M 0 0 
L -3.5 0 
" id="mda89ad4681" style="stroke:#000000;stroke-width:0.8;"/>
      </defs>
      <g>
       <use style="stroke:#000000;stroke-width:0.8;" x="53.328125" xlink:href="#mda89ad4681" y="280.523216"/>
      </g>
     </g>
     <g id="text_14">
      <!-- 7700 -->
      <g transform="translate(20.878125 284.322435)scale(0.1 -0.1)">
       <use xlink:href="#DejaVuSans-37"/>
       <use x="63.623047" xlink:href="#DejaVuSans-37"/>
       <use x="127.246094" xlink:href="#DejaVuSans-30"/>
       <use x="190.869141" xlink:href="#DejaVuSans-30"/>
      </g>
     </g>
    </g>
    <g id="ytick_2">
     <g id="line2d_14">
      <g>
       <use style="stroke:#000000;stroke-width:0.8;" x="53.328125" xlink:href="#mda89ad4681" y="238.632307"/>
      </g>
     </g>
     <g id="text_15">
      <!-- 7800 -->
      <g transform="translate(20.878125 242.431526)scale(0.1 -0.1)">
       <defs>
        <path d="M 2034 2216 
Q 1584 2216 1326 1975 
Q 1069 1734 1069 1313 
Q 1069 891 1326 650 
Q 1584 409 2034 409 
Q 2484 409 2743 651 
Q 3003 894 3003 1313 
Q 3003 1734 2745 1975 
Q 2488 2216 2034 2216 
z
M 1403 2484 
Q 997 2584 770 2862 
Q 544 3141 544 3541 
Q 544 4100 942 4425 
Q 1341 4750 2034 4750 
Q 2731 4750 3128 4425 
Q 3525 4100 3525 3541 
Q 3525 3141 3298 2862 
Q 3072 2584 2669 2484 
Q 3125 2378 3379 2068 
Q 3634 1759 3634 1313 
Q 3634 634 3220 271 
Q 2806 -91 2034 -91 
Q 1263 -91 848 271 
Q 434 634 434 1313 
Q 434 1759 690 2068 
Q 947 2378 1403 2484 
z
M 1172 3481 
Q 1172 3119 1398 2916 
Q 1625 2713 2034 2713 
Q 2441 2713 2670 2916 
Q 2900 3119 2900 3481 
Q 2900 3844 2670 4047 
Q 2441 4250 2034 4250 
Q 1625 4250 1398 4047 
Q 1172 3844 1172 3481 
z
" id="DejaVuSans-38" transform="scale(0.015625)"/>
       </defs>
       <use xlink:href="#DejaVuSans-37"/>
       <use x="63.623047" xlink:href="#DejaVuSans-38"/>
       <use x="127.246094" xlink:href="#DejaVuSans-30"/>
       <use x="190.869141" xlink:href="#DejaVuSans-30"/>
      </g>
     </g>
    </g>
    <g id="ytick_3">
     <g id="line2d_15">
      <g>
       <use style="stroke:#000000;stroke-width:0.8;" x="53.328125" xlink:href="#mda89ad4681" y="196.741398"/>
      </g>
     </g>
     <g id="text_16">
      <!-- 7900 -->
      <g transform="translate(20.878125 200.540616)scale(0.1 -0.1)">
       <use xlink:href="#DejaVuSans-37"/>
       <use x="63.623047" xlink:href="#DejaVuSans-39"/>
       <use x="127.246094" xlink:href="#DejaVuSans-30"/>
       <use x="190.869141" xlink:href="#DejaVuSans-30"/>
      </g>
     </g>
    </g>
    <g id="ytick_4">
     <g id="line2d_16">
      <g>
       <use style="stroke:#000000;stroke-width:0.8;" x="53.328125" xlink:href="#mda89ad4681" y="154.850489"/>
      </g>
     </g>
     <g id="text_17">
      <!-- 8000 -->
      <g transform="translate(20.878125 158.649707)scale(0.1 -0.1)">
       <use xlink:href="#DejaVuSans-38"/>
       <use x="63.623047" xlink:href="#DejaVuSans-30"/>
       <use x="127.246094" xlink:href="#DejaVuSans-30"/>
       <use x="190.869141" xlink:href="#DejaVuSans-30"/>
      </g>
     </g>
    </g>
    <g id="ytick_5">
     <g id="line2d_17">
      <g>
       <use style="stroke:#000000;stroke-width:0.8;" x="53.328125" xlink:href="#mda89ad4681" y="112.95958"/>
      </g>
     </g>
     <g id="text_18">
      <!-- 8100 -->
      <g transform="translate(20.878125 116.758798)scale(0.1 -0.1)">
       <use xlink:href="#DejaVuSans-38"/>
       <use x="63.623047" xlink:href="#DejaVuSans-31"/>
       <use x="127.246094" xlink:href="#DejaVuSans-30"/>
       <use x="190.869141" xlink:href="#DejaVuSans-30"/>
      </g>
     </g>
    </g>
    <g id="ytick_6">
     <g id="line2d_18">
      <g>
       <use style="stroke:#000000;stroke-width:0.8;" x="53.328125" xlink:href="#mda89ad4681" y="71.06867"/>
      </g>
     </g>
     <g id="text_19">
      <!-- 8200 -->
      <g transform="translate(20.878125 74.867889)scale(0.1 -0.1)">
       <use xlink:href="#DejaVuSans-38"/>
       <use x="63.623047" xlink:href="#DejaVuSans-32"/>
       <use x="127.246094" xlink:href="#DejaVuSans-30"/>
       <use x="190.869141" xlink:href="#DejaVuSans-30"/>
      </g>
     </g>
    </g>
    <g id="ytick_7">
     <g id="line2d_19">
      <g>
       <use style="stroke:#000000;stroke-width:0.8;" x="53.328125" xlink:href="#mda89ad4681" y="29.177761"/>
      </g>
     </g>
     <g id="text_20">
      <!-- 8300 -->
      <g transform="translate(20.878125 32.97698)scale(0.1 -0.1)">
       <use xlink:href="#DejaVuSans-38"/>
       <use x="63.623047" xlink:href="#DejaVuSans-33"/>
       <use x="127.246094" xlink:href="#DejaVuSans-30"/>
       <use x="190.869141" xlink:href="#DejaVuSans-30"/>
      </g>
     </g>
    </g>
    <g id="text_21">
     <!-- Code region coverage -->
     <g transform="translate(14.798438 210.379594)rotate(-90)scale(0.1 -0.1)">
      <defs>
       <path d="M 4122 4306 
L 4122 3641 
Q 3803 3938 3442 4084 
Q 3081 4231 2675 4231 
Q 1875 4231 1450 3742 
Q 1025 3253 1025 2328 
Q 1025 1406 1450 917 
Q 1875 428 2675 428 
Q 3081 428 3442 575 
Q 3803 722 4122 1019 
L 4122 359 
Q 3791 134 3420 21 
Q 3050 -91 2638 -91 
Q 1578 -91 968 557 
Q 359 1206 359 2328 
Q 359 3453 968 4101 
Q 1578 4750 2638 4750 
Q 3056 4750 3426 4639 
Q 3797 4528 4122 4306 
z
" id="DejaVuSans-43" transform="scale(0.015625)"/>
       <path d="M 2906 2969 
L 2906 4863 
L 3481 4863 
L 3481 0 
L 2906 0 
L 2906 525 
Q 2725 213 2448 61 
Q 2172 -91 1784 -91 
Q 1150 -91 751 415 
Q 353 922 353 1747 
Q 353 2572 751 3078 
Q 1150 3584 1784 3584 
Q 2172 3584 2448 3432 
Q 2725 3281 2906 2969 
z
M 947 1747 
Q 947 1113 1208 752 
Q 1469 391 1925 391 
Q 2381 391 2643 752 
Q 2906 1113 2906 1747 
Q 2906 2381 2643 2742 
Q 2381 3103 1925 3103 
Q 1469 3103 1208 2742 
Q 947 2381 947 1747 
z
" id="DejaVuSans-64" transform="scale(0.015625)"/>
       <path d="M 2906 1791 
Q 2906 2416 2648 2759 
Q 2391 3103 1925 3103 
Q 1463 3103 1205 2759 
Q 947 2416 947 1791 
Q 947 1169 1205 825 
Q 1463 481 1925 481 
Q 2391 481 2648 825 
Q 2906 1169 2906 1791 
z
M 3481 434 
Q 3481 -459 3084 -895 
Q 2688 -1331 1869 -1331 
Q 1566 -1331 1297 -1286 
Q 1028 -1241 775 -1147 
L 775 -588 
Q 1028 -725 1275 -790 
Q 1522 -856 1778 -856 
Q 2344 -856 2625 -561 
Q 2906 -266 2906 331 
L 2906 616 
Q 2728 306 2450 153 
Q 2172 0 1784 0 
Q 1141 0 747 490 
Q 353 981 353 1791 
Q 353 2603 747 3093 
Q 1141 3584 1784 3584 
Q 2172 3584 2450 3431 
Q 2728 3278 2906 2969 
L 2906 3500 
L 3481 3500 
L 3481 434 
z
" id="DejaVuSans-67" transform="scale(0.015625)"/>
       <path d="M 3122 3366 
L 3122 2828 
Q 2878 2963 2633 3030 
Q 2388 3097 2138 3097 
Q 1578 3097 1268 2742 
Q 959 2388 959 1747 
Q 959 1106 1268 751 
Q 1578 397 2138 397 
Q 2388 397 2633 464 
Q 2878 531 3122 666 
L 3122 134 
Q 2881 22 2623 -34 
Q 2366 -91 2075 -91 
Q 1284 -91 818 406 
Q 353 903 353 1747 
Q 353 2603 823 3093 
Q 1294 3584 2113 3584 
Q 2378 3584 2631 3529 
Q 2884 3475 3122 3366 
z
" id="DejaVuSans-63" transform="scale(0.015625)"/>
       <path d="M 191 3500 
L 800 3500 
L 1894 563 
L 2988 3500 
L 3597 3500 
L 2284 0 
L 1503 0 
L 191 3500 
z
" id="DejaVuSans-76" transform="scale(0.015625)"/>
       <path d="M 2194 1759 
Q 1497 1759 1228 1600 
Q 959 1441 959 1056 
Q 959 750 1161 570 
Q 1363 391 1709 391 
Q 2188 391 2477 730 
Q 2766 1069 2766 1631 
L 2766 1759 
L 2194 1759 
z
M 3341 1997 
L 3341 0 
L 2766 0 
L 2766 531 
Q 2569 213 2275 61 
Q 1981 -91 1556 -91 
Q 1019 -91 701 211 
Q 384 513 384 1019 
Q 384 1609 779 1909 
Q 1175 2209 1959 2209 
L 2766 2209 
L 2766 2266 
Q 2766 2663 2505 2880 
Q 2244 3097 1772 3097 
Q 1472 3097 1187 3025 
Q 903 2953 641 2809 
L 641 3341 
Q 956 3463 1253 3523 
Q 1550 3584 1831 3584 
Q 2591 3584 2966 3190 
Q 3341 2797 3341 1997 
z
" id="DejaVuSans-61" transform="scale(0.015625)"/>
      </defs>
      <use xlink:href="#DejaVuSans-43"/>
      <use x="69.824219" xlink:href="#DejaVuSans-6f"/>
      <use x="131.005859" xlink:href="#DejaVuSans-64"/>
      <use x="194.482422" xlink:href="#DejaVuSans-65"/>
      <use x="256.005859" xlink:href="#DejaVuSans-20"/>
      <use x="287.792969" xlink:href="#DejaVuSans-72"/>
      <use x="326.65625" xlink:href="#DejaVuSans-65"/>
      <use x="388.179688" xlink:href="#DejaVuSans-67"/>
      <use x="451.65625" xlink:href="#DejaVuSans-69"/>
      <use x="479.439453" xlink:href="#DejaVuSans-6f"/>
      <use x="540.621094" xlink:href="#DejaVuSans-6e"/>
      <use x="604" xlink:href="#DejaVuSans-20"/>
      <use x="635.787109" xlink:href="#DejaVuSans-63"/>
      <use x="690.767578" xlink:href="#DejaVuSans-6f"/>
      <use x="751.949219" xlink:href="#DejaVuSans-76"/>
      <use x="811.128906" xlink:href="#DejaVuSans-65"/>
      <use x="872.652344" xlink:href="#DejaVuSans-72"/>
      <use x="913.765625" xlink:href="#DejaVuSans-61"/>
      <use x="975.044922" xlink:href="#DejaVuSans-67"/>
      <use x="1038.521484" xlink:href="#DejaVuSans-65"/>
     </g>
    </g>
   </g>
   <g id="line2d_20">
    <path clip-path="url(#p0d9991be82)" d="M 85.79358 235.699943 
L 92.928844 193.809034 
L 100.064109 146.891216 
L 107.199374 129.297034 
L 114.334638 116.310852 
L 121.469903 111.493398 
L 128.605168 105.209761 
L 135.740433 101.230125 
L 142.875697 99.554489 
L 150.010962 96.83158 
L 157.146227 95.155943 
L 164.281492 92.22358 
L 171.416756 88.034489 
L 178.552021 86.987216 
L 185.687286 83.635943 
L 192.822551 82.798125 
L 199.957815 80.913034 
L 207.09308 78.818489 
L 214.228345 77.98067 
L 221.36361 77.98067 
L 228.498874 74.838852 
L 235.634139 73.37267 
L 242.769404 73.163216 
L 249.904668 73.163216 
L 257.039933 72.953761 
L 264.175198 72.325398 
L 271.310463 72.325398 
L 278.445727 72.325398 
L 285.580992 72.115943 
L 292.716257 72.115943 
L 299.851522 70.440307 
L 306.986786 70.440307 
L 314.122051 68.76467 
L 321.257316 68.76467 
L 328.392581 68.76467 
L 335.527845 67.926852 
L 342.66311 66.87958 
L 349.798375 63.947216 
L 356.933639 63.737761 
L 364.068904 63.737761 
L 371.204169 63.737761 
L 378.339434 63.737761 
L 385.474698 63.737761 
L 392.609963 63.737761 
L 399.745228 63.737761 
L 406.880493 62.690489 
L 414.015757 62.690489 
L 421.151022 62.690489 
L 428.286287 61.433761 
L 435.421552 61.014852 
L 442.556816 59.96758 
L 449.692081 59.96758 
L 456.827346 59.96758 
L 463.962611 59.758125 
L 471.097875 59.758125 
L 478.23314 56.406852 
L 485.368405 56.406852 
L 492.503669 56.406852 
L 499.638934 56.406852 
L 506.774199 55.987943 
L 513.909464 55.987943 
L 521.044728 54.102852 
L 528.179993 54.102852 
L 535.315258 54.102852 
L 542.450523 53.683943 
L 549.585787 53.683943 
L 556.721052 53.683943 
L 563.856317 52.63667 
L 570.991582 52.63667 
L 578.126846 52.63667 
L 585.262111 52.63667 
L 592.397376 52.63667 
L 599.53264 51.379943 
L 606.667905 51.379943 
L 613.80317 51.379943 
L 620.938435 50.542125 
L 628.073699 50.542125 
L 635.208964 50.542125 
L 642.344229 50.542125 
L 649.479494 50.542125 
L 656.614758 50.542125 
L 663.750023 50.123216 
L 670.885288 50.123216 
L 678.020553 50.123216 
L 685.155817 50.123216 
L 692.291082 50.123216 
L 699.426347 47.190852 
L 706.561612 47.190852 
L 713.696876 47.190852 
L 720.832141 46.14358 
L 727.967406 45.305761 
L 735.10267 45.305761 
" style="fill:none;stroke:#1f77b4;stroke-linecap:square;stroke-width:1.5;"/>
    <defs>
     <path d="M 0 3 
C 0.795609 3 1.55874 2.683901 2.12132 2.12132 
C 2.683901 1.55874 3 0.795609 3 0 
C 3 -0.795609 2.683901 -1.55874 2.12132 -2.12132 
C 1.55874 -2.683901 0.795609 -3 0 -3 
C -0.795609 -3 -1.55874 -2.683901 -2.12132 -2.12132 
C -2.683901 -1.55874 -3 -0.795609 -3 0 
C -3 0.795609 -2.683901 1.55874 -2.12132 2.12132 
C -1.55874 2.683901 -0.795609 3 0 3 
z
" id="m8059353bba" style="stroke:#ffffff;stroke-width:0.75;"/>
    </defs>
    <g clip-path="url(#p0d9991be82)">
     <use style="fill:#1f77b4;stroke:#ffffff;stroke-width:0.75;" x="85.79358" xlink:href="#m8059353bba" y="235.699943"/>
     <use style="fill:#1f77b4;stroke:#ffffff;stroke-width:0.75;" x="92.928844" xlink:href="#m8059353bba" y="193.809034"/>
     <use style="fill:#1f77b4;stroke:#ffffff;stroke-width:0.75;" x="100.064109" xlink:href="#m8059353bba" y="146.891216"/>
     <use style="fill:#1f77b4;stroke:#ffffff;stroke-width:0.75;" x="107.199374" xlink:href="#m8059353bba" y="129.297034"/>
     <use style="fill:#1f77b4;stroke:#ffffff;stroke-width:0.75;" x="114.334638" xlink:href="#m8059353bba" y="116.310852"/>
     <use style="fill:#1f77b4;stroke:#ffffff;stroke-width:0.75;" x="121.469903" xlink:href="#m8059353bba" y="111.493398"/>
     <use style="fill:#1f77b4;stroke:#ffffff;stroke-width:0.75;" x="128.605168" xlink:href="#m8059353bba" y="105.209761"/>
     <use style="fill:#1f77b4;stroke:#ffffff;stroke-width:0.75;" x="135.740433" xlink:href="#m8059353bba" y="101.230125"/>
     <use style="fill:#1f77b4;stroke:#ffffff;stroke-width:0.75;" x="142.875697" xlink:href="#m8059353bba" y="99.554489"/>
     <use style="fill:#1f77b4;stroke:#ffffff;stroke-width:0.75;" x="150.010962" xlink:href="#m8059353bba" y="96.83158"/>
     <use style="fill:#1f77b4;stroke:#ffffff;stroke-width:0.75;" x="157.146227" xlink:href="#m8059353bba" y="95.155943"/>
     <use style="fill:#1f77b4;stroke:#ffffff;stroke-width:0.75;" x="164.281492" xlink:href="#m8059353bba" y="92.22358"/>
     <use style="fill:#1f77b4;stroke:#ffffff;stroke-width:0.75;" x="171.416756" xlink:href="#m8059353bba" y="88.034489"/>
     <use style="fill:#1f77b4;stroke:#ffffff;stroke-width:0.75;" x="178.552021" xlink:href="#m8059353bba" y="86.987216"/>
     <use style="fill:#1f77b4;stroke:#ffffff;stroke-width:0.75;" x="185.687286" xlink:href="#m8059353bba" y="83.635943"/>
     <use style="fill:#1f77b4;stroke:#ffffff;stroke-width:0.75;" x="192.822551" xlink:href="#m8059353bba" y="82.798125"/>
     <use style="fill:#1f77b4;stroke:#ffffff;stroke-width:0.75;" x="199.957815" xlink:href="#m8059353bba" y="80.913034"/>
     <use style="fill:#1f77b4;stroke:#ffffff;stroke-width:0.75;" x="207.09308" xlink:href="#m8059353bba" y="78.818489"/>
     <use style="fill:#1f77b4;stroke:#ffffff;stroke-width:0.75;" x="214.228345" xlink:href="#m8059353bba" y="77.98067"/>
     <use style="fill:#1f77b4;stroke:#ffffff;stroke-width:0.75;" x="221.36361" xlink:href="#m8059353bba" y="77.98067"/>
     <use style="fill:#1f77b4;stroke:#ffffff;stroke-width:0.75;" x="228.498874" xlink:href="#m8059353bba" y="74.838852"/>
     <use style="fill:#1f77b4;stroke:#ffffff;stroke-width:0.75;" x="235.634139" xlink:href="#m8059353bba" y="73.37267"/>
     <use style="fill:#1f77b4;stroke:#ffffff;stroke-width:0.75;" x="242.769404" xlink:href="#m8059353bba" y="73.163216"/>
     <use style="fill:#1f77b4;stroke:#ffffff;stroke-width:0.75;" x="249.904668" xlink:href="#m8059353bba" y="73.163216"/>
     <use style="fill:#1f77b4;stroke:#ffffff;stroke-width:0.75;" x="257.039933" xlink:href="#m8059353bba" y="72.953761"/>
     <use style="fill:#1f77b4;stroke:#ffffff;stroke-width:0.75;" x="264.175198" xlink:href="#m8059353bba" y="72.325398"/>
     <use style="fill:#1f77b4;stroke:#ffffff;stroke-width:0.75;" x="271.310463" xlink:href="#m8059353bba" y="72.325398"/>
     <use style="fill:#1f77b4;stroke:#ffffff;stroke-width:0.75;" x="278.445727" xlink:href="#m8059353bba" y="72.325398"/>
     <use style="fill:#1f77b4;stroke:#ffffff;stroke-width:0.75;" x="285.580992" xlink:href="#m8059353bba" y="72.115943"/>
     <use style="fill:#1f77b4;stroke:#ffffff;stroke-width:0.75;" x="292.716257" xlink:href="#m8059353bba" y="72.115943"/>
     <use style="fill:#1f77b4;stroke:#ffffff;stroke-width:0.75;" x="299.851522" xlink:href="#m8059353bba" y="70.440307"/>
     <use style="fill:#1f77b4;stroke:#ffffff;stroke-width:0.75;" x="306.986786" xlink:href="#m8059353bba" y="70.440307"/>
     <use style="fill:#1f77b4;stroke:#ffffff;stroke-width:0.75;" x="314.122051" xlink:href="#m8059353bba" y="68.76467"/>
     <use style="fill:#1f77b4;stroke:#ffffff;stroke-width:0.75;" x="321.257316" xlink:href="#m8059353bba" y="68.76467"/>
     <use style="fill:#1f77b4;stroke:#ffffff;stroke-width:0.75;" x="328.392581" xlink:href="#m8059353bba" y="68.76467"/>
     <use style="fill:#1f77b4;stroke:#ffffff;stroke-width:0.75;" x="335.527845" xlink:href="#m8059353bba" y="67.926852"/>
     <use style="fill:#1f77b4;stroke:#ffffff;stroke-width:0.75;" x="342.66311" xlink:href="#m8059353bba" y="66.87958"/>
     <use style="fill:#1f77b4;stroke:#ffffff;stroke-width:0.75;" x="349.798375" xlink:href="#m8059353bba" y="63.947216"/>
     <use style="fill:#1f77b4;stroke:#ffffff;stroke-width:0.75;" x="356.933639" xlink:href="#m8059353bba" y="63.737761"/>
     <use style="fill:#1f77b4;stroke:#ffffff;stroke-width:0.75;" x="364.068904" xlink:href="#m8059353bba" y="63.737761"/>
     <use style="fill:#1f77b4;stroke:#ffffff;stroke-width:0.75;" x="371.204169" xlink:href="#m8059353bba" y="63.737761"/>
     <use style="fill:#1f77b4;stroke:#ffffff;stroke-width:0.75;" x="378.339434" xlink:href="#m8059353bba" y="63.737761"/>
     <use style="fill:#1f77b4;stroke:#ffffff;stroke-width:0.75;" x="385.474698" xlink:href="#m8059353bba" y="63.737761"/>
     <use style="fill:#1f77b4;stroke:#ffffff;stroke-width:0.75;" x="392.609963" xlink:href="#m8059353bba" y="63.737761"/>
     <use style="fill:#1f77b4;stroke:#ffffff;stroke-width:0.75;" x="399.745228" xlink:href="#m8059353bba" y="63.737761"/>
     <use style="fill:#1f77b4;stroke:#ffffff;stroke-width:0.75;" x="406.880493" xlink:href="#m8059353bba" y="62.690489"/>
     <use style="fill:#1f77b4;stroke:#ffffff;stroke-width:0.75;" x="414.015757" xlink:href="#m8059353bba" y="62.690489"/>
     <use style="fill:#1f77b4;stroke:#ffffff;stroke-width:0.75;" x="421.151022" xlink:href="#m8059353bba" y="62.690489"/>
     <use style="fill:#1f77b4;stroke:#ffffff;stroke-width:0.75;" x="428.286287" xlink:href="#m8059353bba" y="61.433761"/>
     <use style="fill:#1f77b4;stroke:#ffffff;stroke-width:0.75;" x="435.421552" xlink:href="#m8059353bba" y="61.014852"/>
     <use style="fill:#1f77b4;stroke:#ffffff;stroke-width:0.75;" x="442.556816" xlink:href="#m8059353bba" y="59.96758"/>
     <use style="fill:#1f77b4;stroke:#ffffff;stroke-width:0.75;" x="449.692081" xlink:href="#m8059353bba" y="59.96758"/>
     <use style="fill:#1f77b4;stroke:#ffffff;stroke-width:0.75;" x="456.827346" xlink:href="#m8059353bba" y="59.96758"/>
     <use style="fill:#1f77b4;stroke:#ffffff;stroke-width:0.75;" x="463.962611" xlink:href="#m8059353bba" y="59.758125"/>
     <use style="fill:#1f77b4;stroke:#ffffff;stroke-width:0.75;" x="471.097875" xlink:href="#m8059353bba" y="59.758125"/>
     <use style="fill:#1f77b4;stroke:#ffffff;stroke-width:0.75;" x="478.23314" xlink:href="#m8059353bba" y="56.406852"/>
     <use style="fill:#1f77b4;stroke:#ffffff;stroke-width:0.75;" x="485.368405" xlink:href="#m8059353bba" y="56.406852"/>
     <use style="fill:#1f77b4;stroke:#ffffff;stroke-width:0.75;" x="492.503669" xlink:href="#m8059353bba" y="56.406852"/>
     <use style="fill:#1f77b4;stroke:#ffffff;stroke-width:0.75;" x="499.638934" xlink:href="#m8059353bba" y="56.406852"/>
     <use style="fill:#1f77b4;stroke:#ffffff;stroke-width:0.75;" x="506.774199" xlink:href="#m8059353bba" y="55.987943"/>
     <use style="fill:#1f77b4;stroke:#ffffff;stroke-width:0.75;" x="513.909464" xlink:href="#m8059353bba" y="55.987943"/>
     <use style="fill:#1f77b4;stroke:#ffffff;stroke-width:0.75;" x="521.044728" xlink:href="#m8059353bba" y="54.102852"/>
     <use style="fill:#1f77b4;stroke:#ffffff;stroke-width:0.75;" x="528.179993" xlink:href="#m8059353bba" y="54.102852"/>
     <use style="fill:#1f77b4;stroke:#ffffff;stroke-width:0.75;" x="535.315258" xlink:href="#m8059353bba" y="54.102852"/>
     <use style="fill:#1f77b4;stroke:#ffffff;stroke-width:0.75;" x="542.450523" xlink:href="#m8059353bba" y="53.683943"/>
     <use style="fill:#1f77b4;stroke:#ffffff;stroke-width:0.75;" x="549.585787" xlink:href="#m8059353bba" y="53.683943"/>
     <use style="fill:#1f77b4;stroke:#ffffff;stroke-width:0.75;" x="556.721052" xlink:href="#m8059353bba" y="53.683943"/>
     <use style="fill:#1f77b4;stroke:#ffffff;stroke-width:0.75;" x="563.856317" xlink:href="#m8059353bba" y="52.63667"/>
     <use style="fill:#1f77b4;stroke:#ffffff;stroke-width:0.75;" x="570.991582" xlink:href="#m8059353bba" y="52.63667"/>
     <use style="fill:#1f77b4;stroke:#ffffff;stroke-width:0.75;" x="578.126846" xlink:href="#m8059353bba" y="52.63667"/>
     <use style="fill:#1f77b4;stroke:#ffffff;stroke-width:0.75;" x="585.262111" xlink:href="#m8059353bba" y="52.63667"/>
     <use style="fill:#1f77b4;stroke:#ffffff;stroke-width:0.75;" x="592.397376" xlink:href="#m8059353bba" y="52.63667"/>
     <use style="fill:#1f77b4;stroke:#ffffff;stroke-width:0.75;" x="599.53264" xlink:href="#m8059353bba" y="51.379943"/>
     <use style="fill:#1f77b4;stroke:#ffffff;stroke-width:0.75;" x="606.667905" xlink:href="#m8059353bba" y="51.379943"/>
     <use style="fill:#1f77b4;stroke:#ffffff;stroke-width:0.75;" x="613.80317" xlink:href="#m8059353bba" y="51.379943"/>
     <use style="fill:#1f77b4;stroke:#ffffff;stroke-width:0.75;" x="620.938435" xlink:href="#m8059353bba" y="50.542125"/>
     <use style="fill:#1f77b4;stroke:#ffffff;stroke-width:0.75;" x="628.073699" xlink:href="#m8059353bba" y="50.542125"/>
     <use style="fill:#1f77b4;stroke:#ffffff;stroke-width:0.75;" x="635.208964" xlink:href="#m8059353bba" y="50.542125"/>
     <use style="fill:#1f77b4;stroke:#ffffff;stroke-width:0.75;" x="642.344229" xlink:href="#m8059353bba" y="50.542125"/>
     <use style="fill:#1f77b4;stroke:#ffffff;stroke-width:0.75;" x="649.479494" xlink:href="#m8059353bba" y="50.542125"/>
     <use style="fill:#1f77b4;stroke:#ffffff;stroke-width:0.75;" x="656.614758" xlink:href="#m8059353bba" y="50.542125"/>
     <use style="fill:#1f77b4;stroke:#ffffff;stroke-width:0.75;" x="663.750023" xlink:href="#m8059353bba" y="50.123216"/>
     <use style="fill:#1f77b4;stroke:#ffffff;stroke-width:0.75;" x="670.885288" xlink:href="#m8059353bba" y="50.123216"/>
     <use style="fill:#1f77b4;stroke:#ffffff;stroke-width:0.75;" x="678.020553" xlink:href="#m8059353bba" y="50.123216"/>
     <use style="fill:#1f77b4;stroke:#ffffff;stroke-width:0.75;" x="685.155817" xlink:href="#m8059353bba" y="50.123216"/>
     <use style="fill:#1f77b4;stroke:#ffffff;stroke-width:0.75;" x="692.291082" xlink:href="#m8059353bba" y="50.123216"/>
     <use style="fill:#1f77b4;stroke:#ffffff;stroke-width:0.75;" x="699.426347" xlink:href="#m8059353bba" y="47.190852"/>
     <use style="fill:#1f77b4;stroke:#ffffff;stroke-width:0.75;" x="706.561612" xlink:href="#m8059353bba" y="47.190852"/>
     <use style="fill:#1f77b4;stroke:#ffffff;stroke-width:0.75;" x="713.696876" xlink:href="#m8059353bba" y="47.190852"/>
     <use style="fill:#1f77b4;stroke:#ffffff;stroke-width:0.75;" x="720.832141" xlink:href="#m8059353bba" y="46.14358"/>
     <use style="fill:#1f77b4;stroke:#ffffff;stroke-width:0.75;" x="727.967406" xlink:href="#m8059353bba" y="45.305761"/>
     <use style="fill:#1f77b4;stroke:#ffffff;stroke-width:0.75;" x="735.10267" xlink:href="#m8059353bba" y="45.305761"/>
    </g>
   </g>
   <g id="line2d_21">
    <path clip-path="url(#p0d9991be82)" d="M 85.79358 245.544307 
L 92.928844 183.336307 
L 100.064109 173.282489 
L 107.199374 148.147943 
L 114.334638 124.898489 
L 121.469903 117.358125 
L 128.605168 110.446125 
L 135.740433 106.466489 
L 142.875697 105.209761 
L 150.010962 99.763943 
L 157.146227 98.71667 
L 164.281492 94.10867 
L 171.416756 92.851943 
L 178.552021 90.129034 
L 185.687286 88.872307 
L 192.822551 86.568307 
L 199.957815 84.683216 
L 207.09308 76.723943 
L 214.228345 76.305034 
L 221.36361 76.305034 
L 228.498874 76.305034 
L 235.634139 74.001034 
L 242.769404 74.001034 
L 249.904668 74.001034 
L 257.039933 74.001034 
L 264.175198 72.744307 
L 271.310463 72.115943 
L 278.445727 72.115943 
L 285.580992 70.440307 
L 292.716257 70.440307 
L 299.851522 70.440307 
L 306.986786 70.440307 
L 314.122051 69.811943 
L 321.257316 67.089034 
L 328.392581 66.670125 
L 335.527845 66.670125 
L 342.66311 66.251216 
L 349.798375 66.251216 
L 356.933639 66.251216 
L 364.068904 64.57558 
L 371.204169 64.15667 
L 378.339434 64.15667 
L 385.474698 64.15667 
L 392.609963 63.318852 
L 399.745228 63.318852 
L 406.880493 63.318852 
L 414.015757 62.481034 
L 421.151022 62.481034 
L 428.286287 62.481034 
L 435.421552 62.481034 
L 442.556816 62.481034 
L 449.692081 62.481034 
L 456.827346 61.85267 
L 463.962611 60.386489 
L 471.097875 60.386489 
L 478.23314 57.66358 
L 485.368405 57.66358 
L 492.503669 54.521761 
L 499.638934 54.521761 
L 506.774199 53.265034 
L 513.909464 53.265034 
L 521.044728 53.265034 
L 528.179993 53.265034 
L 535.315258 53.265034 
L 542.450523 53.265034 
L 549.585787 53.265034 
L 556.721052 53.265034 
L 563.856317 53.265034 
L 570.991582 51.170489 
L 578.126846 51.170489 
L 585.262111 51.170489 
L 592.397376 51.170489 
L 599.53264 51.170489 
L 606.667905 50.75158 
L 613.80317 50.75158 
L 620.938435 50.75158 
L 628.073699 50.75158 
L 635.208964 50.75158 
L 642.344229 50.75158 
L 649.479494 50.33267 
L 656.614758 50.33267 
L 663.750023 50.33267 
L 670.885288 50.33267 
L 678.020553 50.33267 
L 685.155817 50.33267 
L 692.291082 50.33267 
L 699.426347 50.33267 
L 706.561612 50.33267 
L 713.696876 50.33267 
L 720.832141 50.33267 
L 727.967406 49.704307 
L 735.10267 49.704307 
" style="fill:none;stroke:#d62728;stroke-linecap:square;stroke-width:1.5;"/>
    <defs>
     <path d="M 0 -3 
L -3 3 
L 3 3 
z
" id="m2b614eb3f0" style="stroke:#ffffff;stroke-linejoin:miter;stroke-width:0.75;"/>
    </defs>
    <g clip-path="url(#p0d9991be82)">
     <use style="fill:#d62728;stroke:#ffffff;stroke-linejoin:miter;stroke-width:0.75;" x="85.79358" xlink:href="#m2b614eb3f0" y="245.544307"/>
     <use style="fill:#d62728;stroke:#ffffff;stroke-linejoin:miter;stroke-width:0.75;" x="92.928844" xlink:href="#m2b614eb3f0" y="183.336307"/>
     <use style="fill:#d62728;stroke:#ffffff;stroke-linejoin:miter;stroke-width:0.75;" x="100.064109" xlink:href="#m2b614eb3f0" y="173.282489"/>
     <use style="fill:#d62728;stroke:#ffffff;stroke-linejoin:miter;stroke-width:0.75;" x="107.199374" xlink:href="#m2b614eb3f0" y="148.147943"/>
     <use style="fill:#d62728;stroke:#ffffff;stroke-linejoin:miter;stroke-width:0.75;" x="114.334638" xlink:href="#m2b614eb3f0" y="124.898489"/>
     <use style="fill:#d62728;stroke:#ffffff;stroke-linejoin:miter;stroke-width:0.75;" x="121.469903" xlink:href="#m2b614eb3f0" y="117.358125"/>
     <use style="fill:#d62728;stroke:#ffffff;stroke-linejoin:miter;stroke-width:0.75;" x="128.605168" xlink:href="#m2b614eb3f0" y="110.446125"/>
     <use style="fill:#d62728;stroke:#ffffff;stroke-linejoin:miter;stroke-width:0.75;" x="135.740433" xlink:href="#m2b614eb3f0" y="106.466489"/>
     <use style="fill:#d62728;stroke:#ffffff;stroke-linejoin:miter;stroke-width:0.75;" x="142.875697" xlink:href="#m2b614eb3f0" y="105.209761"/>
     <use style="fill:#d62728;stroke:#ffffff;stroke-linejoin:miter;stroke-width:0.75;" x="150.010962" xlink:href="#m2b614eb3f0" y="99.763943"/>
     <use style="fill:#d62728;stroke:#ffffff;stroke-linejoin:miter;stroke-width:0.75;" x="157.146227" xlink:href="#m2b614eb3f0" y="98.71667"/>
     <use style="fill:#d62728;stroke:#ffffff;stroke-linejoin:miter;stroke-width:0.75;" x="164.281492" xlink:href="#m2b614eb3f0" y="94.10867"/>
     <use style="fill:#d62728;stroke:#ffffff;stroke-linejoin:miter;stroke-width:0.75;" x="171.416756" xlink:href="#m2b614eb3f0" y="92.851943"/>
     <use style="fill:#d62728;stroke:#ffffff;stroke-linejoin:miter;stroke-width:0.75;" x="178.552021" xlink:href="#m2b614eb3f0" y="90.129034"/>
     <use style="fill:#d62728;stroke:#ffffff;stroke-linejoin:miter;stroke-width:0.75;" x="185.687286" xlink:href="#m2b614eb3f0" y="88.872307"/>
     <use style="fill:#d62728;stroke:#ffffff;stroke-linejoin:miter;stroke-width:0.75;" x="192.822551" xlink:href="#m2b614eb3f0" y="86.568307"/>
     <use style="fill:#d62728;stroke:#ffffff;stroke-linejoin:miter;stroke-width:0.75;" x="199.957815" xlink:href="#m2b614eb3f0" y="84.683216"/>
     <use style="fill:#d62728;stroke:#ffffff;stroke-linejoin:miter;stroke-width:0.75;" x="207.09308" xlink:href="#m2b614eb3f0" y="76.723943"/>
     <use style="fill:#d62728;stroke:#ffffff;stroke-linejoin:miter;stroke-width:0.75;" x="214.228345" xlink:href="#m2b614eb3f0" y="76.305034"/>
     <use style="fill:#d62728;stroke:#ffffff;stroke-linejoin:miter;stroke-width:0.75;" x="221.36361" xlink:href="#m2b614eb3f0" y="76.305034"/>
     <use style="fill:#d62728;stroke:#ffffff;stroke-linejoin:miter;stroke-width:0.75;" x="228.498874" xlink:href="#m2b614eb3f0" y="76.305034"/>
     <use style="fill:#d62728;stroke:#ffffff;stroke-linejoin:miter;stroke-width:0.75;" x="235.634139" xlink:href="#m2b614eb3f0" y="74.001034"/>
     <use style="fill:#d62728;stroke:#ffffff;stroke-linejoin:miter;stroke-width:0.75;" x="242.769404" xlink:href="#m2b614eb3f0" y="74.001034"/>
     <use style="fill:#d62728;stroke:#ffffff;stroke-linejoin:miter;stroke-width:0.75;" x="249.904668" xlink:href="#m2b614eb3f0" y="74.001034"/>
     <use style="fill:#d62728;stroke:#ffffff;stroke-linejoin:miter;stroke-width:0.75;" x="257.039933" xlink:href="#m2b614eb3f0" y="74.001034"/>
     <use style="fill:#d62728;stroke:#ffffff;stroke-linejoin:miter;stroke-width:0.75;" x="264.175198" xlink:href="#m2b614eb3f0" y="72.744307"/>
     <use style="fill:#d62728;stroke:#ffffff;stroke-linejoin:miter;stroke-width:0.75;" x="271.310463" xlink:href="#m2b614eb3f0" y="72.115943"/>
     <use style="fill:#d62728;stroke:#ffffff;stroke-linejoin:miter;stroke-width:0.75;" x="278.445727" xlink:href="#m2b614eb3f0" y="72.115943"/>
     <use style="fill:#d62728;stroke:#ffffff;stroke-linejoin:miter;stroke-width:0.75;" x="285.580992" xlink:href="#m2b614eb3f0" y="70.440307"/>
     <use style="fill:#d62728;stroke:#ffffff;stroke-linejoin:miter;stroke-width:0.75;" x="292.716257" xlink:href="#m2b614eb3f0" y="70.440307"/>
     <use style="fill:#d62728;stroke:#ffffff;stroke-linejoin:miter;stroke-width:0.75;" x="299.851522" xlink:href="#m2b614eb3f0" y="70.440307"/>
     <use style="fill:#d62728;stroke:#ffffff;stroke-linejoin:miter;stroke-width:0.75;" x="306.986786" xlink:href="#m2b614eb3f0" y="70.440307"/>
     <use style="fill:#d62728;stroke:#ffffff;stroke-linejoin:miter;stroke-width:0.75;" x="314.122051" xlink:href="#m2b614eb3f0" y="69.811943"/>
     <use style="fill:#d62728;stroke:#ffffff;stroke-linejoin:miter;stroke-width:0.75;" x="321.257316" xlink:href="#m2b614eb3f0" y="67.089034"/>
     <use style="fill:#d62728;stroke:#ffffff;stroke-linejoin:miter;stroke-width:0.75;" x="328.392581" xlink:href="#m2b614eb3f0" y="66.670125"/>
     <use style="fill:#d62728;stroke:#ffffff;stroke-linejoin:miter;stroke-width:0.75;" x="335.527845" xlink:href="#m2b614eb3f0" y="66.670125"/>
     <use style="fill:#d62728;stroke:#ffffff;stroke-linejoin:miter;stroke-width:0.75;" x="342.66311" xlink:href="#m2b614eb3f0" y="66.251216"/>
     <use style="fill:#d62728;stroke:#ffffff;stroke-linejoin:miter;stroke-width:0.75;" x="349.798375" xlink:href="#m2b614eb3f0" y="66.251216"/>
     <use style="fill:#d62728;stroke:#ffffff;stroke-linejoin:miter;stroke-width:0.75;" x="356.933639" xlink:href="#m2b614eb3f0" y="66.251216"/>
     <use style="fill:#d62728;stroke:#ffffff;stroke-linejoin:miter;stroke-width:0.75;" x="364.068904" xlink:href="#m2b614eb3f0" y="64.57558"/>
     <use style="fill:#d62728;stroke:#ffffff;stroke-linejoin:miter;stroke-width:0.75;" x="371.204169" xlink:href="#m2b614eb3f0" y="64.15667"/>
     <use style="fill:#d62728;stroke:#ffffff;stroke-linejoin:miter;stroke-width:0.75;" x="378.339434" xlink:href="#m2b614eb3f0" y="64.15667"/>
     <use style="fill:#d62728;stroke:#ffffff;stroke-linejoin:miter;stroke-width:0.75;" x="385.474698" xlink:href="#m2b614eb3f0" y="64.15667"/>
     <use style="fill:#d62728;stroke:#ffffff;stroke-linejoin:miter;stroke-width:0.75;" x="392.609963" xlink:href="#m2b614eb3f0" y="63.318852"/>
     <use style="fill:#d62728;stroke:#ffffff;stroke-linejoin:miter;stroke-width:0.75;" x="399.745228" xlink:href="#m2b614eb3f0" y="63.318852"/>
     <use style="fill:#d62728;stroke:#ffffff;stroke-linejoin:miter;stroke-width:0.75;" x="406.880493" xlink:href="#m2b614eb3f0" y="63.318852"/>
     <use style="fill:#d62728;stroke:#ffffff;stroke-linejoin:miter;stroke-width:0.75;" x="414.015757" xlink:href="#m2b614eb3f0" y="62.481034"/>
     <use style="fill:#d62728;stroke:#ffffff;stroke-linejoin:miter;stroke-width:0.75;" x="421.151022" xlink:href="#m2b614eb3f0" y="62.481034"/>
     <use style="fill:#d62728;stroke:#ffffff;stroke-linejoin:miter;stroke-width:0.75;" x="428.286287" xlink:href="#m2b614eb3f0" y="62.481034"/>
     <use style="fill:#d62728;stroke:#ffffff;stroke-linejoin:miter;stroke-width:0.75;" x="435.421552" xlink:href="#m2b614eb3f0" y="62.481034"/>
     <use style="fill:#d62728;stroke:#ffffff;stroke-linejoin:miter;stroke-width:0.75;" x="442.556816" xlink:href="#m2b614eb3f0" y="62.481034"/>
     <use style="fill:#d62728;stroke:#ffffff;stroke-linejoin:miter;stroke-width:0.75;" x="449.692081" xlink:href="#m2b614eb3f0" y="62.481034"/>
     <use style="fill:#d62728;stroke:#ffffff;stroke-linejoin:miter;stroke-width:0.75;" x="456.827346" xlink:href="#m2b614eb3f0" y="61.85267"/>
     <use style="fill:#d62728;stroke:#ffffff;stroke-linejoin:miter;stroke-width:0.75;" x="463.962611" xlink:href="#m2b614eb3f0" y="60.386489"/>
     <use style="fill:#d62728;stroke:#ffffff;stroke-linejoin:miter;stroke-width:0.75;" x="471.097875" xlink:href="#m2b614eb3f0" y="60.386489"/>
     <use style="fill:#d62728;stroke:#ffffff;stroke-linejoin:miter;stroke-width:0.75;" x="478.23314" xlink:href="#m2b614eb3f0" y="57.66358"/>
     <use style="fill:#d62728;stroke:#ffffff;stroke-linejoin:miter;stroke-width:0.75;" x="485.368405" xlink:href="#m2b614eb3f0" y="57.66358"/>
     <use style="fill:#d62728;stroke:#ffffff;stroke-linejoin:miter;stroke-width:0.75;" x="492.503669" xlink:href="#m2b614eb3f0" y="54.521761"/>
     <use style="fill:#d62728;stroke:#ffffff;stroke-linejoin:miter;stroke-width:0.75;" x="499.638934" xlink:href="#m2b614eb3f0" y="54.521761"/>
     <use style="fill:#d62728;stroke:#ffffff;stroke-linejoin:miter;stroke-width:0.75;" x="506.774199" xlink:href="#m2b614eb3f0" y="53.265034"/>
     <use style="fill:#d62728;stroke:#ffffff;stroke-linejoin:miter;stroke-width:0.75;" x="513.909464" xlink:href="#m2b614eb3f0" y="53.265034"/>
     <use style="fill:#d62728;stroke:#ffffff;stroke-linejoin:miter;stroke-width:0.75;" x="521.044728" xlink:href="#m2b614eb3f0" y="53.265034"/>
     <use style="fill:#d62728;stroke:#ffffff;stroke-linejoin:miter;stroke-width:0.75;" x="528.179993" xlink:href="#m2b614eb3f0" y="53.265034"/>
     <use style="fill:#d62728;stroke:#ffffff;stroke-linejoin:miter;stroke-width:0.75;" x="535.315258" xlink:href="#m2b614eb3f0" y="53.265034"/>
     <use style="fill:#d62728;stroke:#ffffff;stroke-linejoin:miter;stroke-width:0.75;" x="542.450523" xlink:href="#m2b614eb3f0" y="53.265034"/>
     <use style="fill:#d62728;stroke:#ffffff;stroke-linejoin:miter;stroke-width:0.75;" x="549.585787" xlink:href="#m2b614eb3f0" y="53.265034"/>
     <use style="fill:#d62728;stroke:#ffffff;stroke-linejoin:miter;stroke-width:0.75;" x="556.721052" xlink:href="#m2b614eb3f0" y="53.265034"/>
     <use style="fill:#d62728;stroke:#ffffff;stroke-linejoin:miter;stroke-width:0.75;" x="563.856317" xlink:href="#m2b614eb3f0" y="53.265034"/>
     <use style="fill:#d62728;stroke:#ffffff;stroke-linejoin:miter;stroke-width:0.75;" x="570.991582" xlink:href="#m2b614eb3f0" y="51.170489"/>
     <use style="fill:#d62728;stroke:#ffffff;stroke-linejoin:miter;stroke-width:0.75;" x="578.126846" xlink:href="#m2b614eb3f0" y="51.170489"/>
     <use style="fill:#d62728;stroke:#ffffff;stroke-linejoin:miter;stroke-width:0.75;" x="585.262111" xlink:href="#m2b614eb3f0" y="51.170489"/>
     <use style="fill:#d62728;stroke:#ffffff;stroke-linejoin:miter;stroke-width:0.75;" x="592.397376" xlink:href="#m2b614eb3f0" y="51.170489"/>
     <use style="fill:#d62728;stroke:#ffffff;stroke-linejoin:miter;stroke-width:0.75;" x="599.53264" xlink:href="#m2b614eb3f0" y="51.170489"/>
     <use style="fill:#d62728;stroke:#ffffff;stroke-linejoin:miter;stroke-width:0.75;" x="606.667905" xlink:href="#m2b614eb3f0" y="50.75158"/>
     <use style="fill:#d62728;stroke:#ffffff;stroke-linejoin:miter;stroke-width:0.75;" x="613.80317" xlink:href="#m2b614eb3f0" y="50.75158"/>
     <use style="fill:#d62728;stroke:#ffffff;stroke-linejoin:miter;stroke-width:0.75;" x="620.938435" xlink:href="#m2b614eb3f0" y="50.75158"/>
     <use style="fill:#d62728;stroke:#ffffff;stroke-linejoin:miter;stroke-width:0.75;" x="628.073699" xlink:href="#m2b614eb3f0" y="50.75158"/>
     <use style="fill:#d62728;stroke:#ffffff;stroke-linejoin:miter;stroke-width:0.75;" x="635.208964" xlink:href="#m2b614eb3f0" y="50.75158"/>
     <use style="fill:#d62728;stroke:#ffffff;stroke-linejoin:miter;stroke-width:0.75;" x="642.344229" xlink:href="#m2b614eb3f0" y="50.75158"/>
     <use style="fill:#d62728;stroke:#ffffff;stroke-linejoin:miter;stroke-width:0.75;" x="649.479494" xlink:href="#m2b614eb3f0" y="50.33267"/>
     <use style="fill:#d62728;stroke:#ffffff;stroke-linejoin:miter;stroke-width:0.75;" x="656.614758" xlink:href="#m2b614eb3f0" y="50.33267"/>
     <use style="fill:#d62728;stroke:#ffffff;stroke-linejoin:miter;stroke-width:0.75;" x="663.750023" xlink:href="#m2b614eb3f0" y="50.33267"/>
     <use style="fill:#d62728;stroke:#ffffff;stroke-linejoin:miter;stroke-width:0.75;" x="670.885288" xlink:href="#m2b614eb3f0" y="50.33267"/>
     <use style="fill:#d62728;stroke:#ffffff;stroke-linejoin:miter;stroke-width:0.75;" x="678.020553" xlink:href="#m2b614eb3f0" y="50.33267"/>
     <use style="fill:#d62728;stroke:#ffffff;stroke-linejoin:miter;stroke-width:0.75;" x="685.155817" xlink:href="#m2b614eb3f0" y="50.33267"/>
     <use style="fill:#d62728;stroke:#ffffff;stroke-linejoin:miter;stroke-width:0.75;" x="692.291082" xlink:href="#m2b614eb3f0" y="50.33267"/>
     <use style="fill:#d62728;stroke:#ffffff;stroke-linejoin:miter;stroke-width:0.75;" x="699.426347" xlink:href="#m2b614eb3f0" y="50.33267"/>
     <use style="fill:#d62728;stroke:#ffffff;stroke-linejoin:miter;stroke-width:0.75;" x="706.561612" xlink:href="#m2b614eb3f0" y="50.33267"/>
     <use style="fill:#d62728;stroke:#ffffff;stroke-linejoin:miter;stroke-width:0.75;" x="713.696876" xlink:href="#m2b614eb3f0" y="50.33267"/>
     <use style="fill:#d62728;stroke:#ffffff;stroke-linejoin:miter;stroke-width:0.75;" x="720.832141" xlink:href="#m2b614eb3f0" y="50.33267"/>
     <use style="fill:#d62728;stroke:#ffffff;stroke-linejoin:miter;stroke-width:0.75;" x="727.967406" xlink:href="#m2b614eb3f0" y="49.704307"/>
     <use style="fill:#d62728;stroke:#ffffff;stroke-linejoin:miter;stroke-width:0.75;" x="735.10267" xlink:href="#m2b614eb3f0" y="49.704307"/>
    </g>
   </g>
   <g id="line2d_22">
    <path clip-path="url(#p0d9991be82)" d="M 85.79358 198.20758 
L 92.928844 158.830125 
L 100.064109 130.134852 
L 107.199374 126.155216 
L 114.334638 114.216307 
L 121.469903 112.121761 
L 128.605168 107.304307 
L 135.740433 101.230125 
L 142.875697 98.926125 
L 150.010962 94.318125 
L 157.146227 92.642489 
L 164.281492 84.89267 
L 171.416756 83.845398 
L 178.552021 79.027943 
L 185.687286 79.027943 
L 192.822551 77.352307 
L 199.957815 76.514489 
L 207.09308 75.886125 
L 214.228345 75.467216 
L 221.36361 74.419943 
L 228.498874 74.419943 
L 235.634139 71.06867 
L 242.769404 71.06867 
L 249.904668 71.06867 
L 257.039933 69.602489 
L 264.175198 69.602489 
L 271.310463 69.602489 
L 278.445727 69.393034 
L 285.580992 68.974125 
L 292.716257 68.555216 
L 299.851522 67.298489 
L 306.986786 65.203943 
L 314.122051 65.203943 
L 321.257316 64.57558 
L 328.392581 64.57558 
L 335.527845 64.57558 
L 342.66311 64.57558 
L 349.798375 64.57558 
L 356.933639 64.366125 
L 364.068904 64.366125 
L 371.204169 64.366125 
L 378.339434 64.366125 
L 385.474698 64.15667 
L 392.609963 64.15667 
L 399.745228 64.15667 
L 406.880493 62.27158 
L 414.015757 61.643216 
L 421.151022 61.643216 
L 428.286287 61.643216 
L 435.421552 61.643216 
L 442.556816 61.643216 
L 449.692081 61.643216 
L 456.827346 61.643216 
L 463.962611 61.643216 
L 471.097875 61.643216 
L 478.23314 61.643216 
L 485.368405 61.643216 
L 492.503669 60.595943 
L 499.638934 60.595943 
L 506.774199 60.595943 
L 513.909464 60.595943 
L 521.044728 58.501398 
L 528.179993 57.24467 
L 535.315258 57.24467 
L 542.450523 57.24467 
L 549.585787 57.24467 
L 556.721052 57.24467 
L 563.856317 57.24467 
L 570.991582 57.24467 
L 578.126846 57.24467 
L 585.262111 57.24467 
L 592.397376 57.24467 
L 599.53264 57.24467 
L 606.667905 57.24467 
L 613.80317 57.24467 
L 620.938435 55.778489 
L 628.073699 55.778489 
L 635.208964 55.778489 
L 642.344229 55.778489 
L 649.479494 55.778489 
L 656.614758 55.778489 
L 663.750023 55.778489 
L 670.885288 55.778489 
L 678.020553 55.778489 
L 685.155817 55.778489 
L 692.291082 55.35958 
L 699.426347 55.35958 
L 706.561612 55.35958 
L 713.696876 55.35958 
L 720.832141 55.35958 
L 727.967406 55.35958 
L 735.10267 55.35958 
" style="fill:none;stroke:#98df8a;stroke-linecap:square;stroke-width:1.5;"/>
    <defs>
     <path d="M -0 3 
L 3 -3 
L -3 -3 
z
" id="m1ebc7bb858" style="stroke:#ffffff;stroke-linejoin:miter;stroke-width:0.75;"/>
    </defs>
    <g clip-path="url(#p0d9991be82)">
     <use style="fill:#98df8a;stroke:#ffffff;stroke-linejoin:miter;stroke-width:0.75;" x="85.79358" xlink:href="#m1ebc7bb858" y="198.20758"/>
     <use style="fill:#98df8a;stroke:#ffffff;stroke-linejoin:miter;stroke-width:0.75;" x="92.928844" xlink:href="#m1ebc7bb858" y="158.830125"/>
     <use style="fill:#98df8a;stroke:#ffffff;stroke-linejoin:miter;stroke-width:0.75;" x="100.064109" xlink:href="#m1ebc7bb858" y="130.134852"/>
     <use style="fill:#98df8a;stroke:#ffffff;stroke-linejoin:miter;stroke-width:0.75;" x="107.199374" xlink:href="#m1ebc7bb858" y="126.155216"/>
     <use style="fill:#98df8a;stroke:#ffffff;stroke-linejoin:miter;stroke-width:0.75;" x="114.334638" xlink:href="#m1ebc7bb858" y="114.216307"/>
     <use style="fill:#98df8a;stroke:#ffffff;stroke-linejoin:miter;stroke-width:0.75;" x="121.469903" xlink:href="#m1ebc7bb858" y="112.121761"/>
     <use style="fill:#98df8a;stroke:#ffffff;stroke-linejoin:miter;stroke-width:0.75;" x="128.605168" xlink:href="#m1ebc7bb858" y="107.304307"/>
     <use style="fill:#98df8a;stroke:#ffffff;stroke-linejoin:miter;stroke-width:0.75;" x="135.740433" xlink:href="#m1ebc7bb858" y="101.230125"/>
     <use style="fill:#98df8a;stroke:#ffffff;stroke-linejoin:miter;stroke-width:0.75;" x="142.875697" xlink:href="#m1ebc7bb858" y="98.926125"/>
     <use style="fill:#98df8a;stroke:#ffffff;stroke-linejoin:miter;stroke-width:0.75;" x="150.010962" xlink:href="#m1ebc7bb858" y="94.318125"/>
     <use style="fill:#98df8a;stroke:#ffffff;stroke-linejoin:miter;stroke-width:0.75;" x="157.146227" xlink:href="#m1ebc7bb858" y="92.642489"/>
     <use style="fill:#98df8a;stroke:#ffffff;stroke-linejoin:miter;stroke-width:0.75;" x="164.281492" xlink:href="#m1ebc7bb858" y="84.89267"/>
     <use style="fill:#98df8a;stroke:#ffffff;stroke-linejoin:miter;stroke-width:0.75;" x="171.416756" xlink:href="#m1ebc7bb858" y="83.845398"/>
     <use style="fill:#98df8a;stroke:#ffffff;stroke-linejoin:miter;stroke-width:0.75;" x="178.552021" xlink:href="#m1ebc7bb858" y="79.027943"/>
     <use style="fill:#98df8a;stroke:#ffffff;stroke-linejoin:miter;stroke-width:0.75;" x="185.687286" xlink:href="#m1ebc7bb858" y="79.027943"/>
     <use style="fill:#98df8a;stroke:#ffffff;stroke-linejoin:miter;stroke-width:0.75;" x="192.822551" xlink:href="#m1ebc7bb858" y="77.352307"/>
     <use style="fill:#98df8a;stroke:#ffffff;stroke-linejoin:miter;stroke-width:0.75;" x="199.957815" xlink:href="#m1ebc7bb858" y="76.514489"/>
     <use style="fill:#98df8a;stroke:#ffffff;stroke-linejoin:miter;stroke-width:0.75;" x="207.09308" xlink:href="#m1ebc7bb858" y="75.886125"/>
     <use style="fill:#98df8a;stroke:#ffffff;stroke-linejoin:miter;stroke-width:0.75;" x="214.228345" xlink:href="#m1ebc7bb858" y="75.467216"/>
     <use style="fill:#98df8a;stroke:#ffffff;stroke-linejoin:miter;stroke-width:0.75;" x="221.36361" xlink:href="#m1ebc7bb858" y="74.419943"/>
     <use style="fill:#98df8a;stroke:#ffffff;stroke-linejoin:miter;stroke-width:0.75;" x="228.498874" xlink:href="#m1ebc7bb858" y="74.419943"/>
     <use style="fill:#98df8a;stroke:#ffffff;stroke-linejoin:miter;stroke-width:0.75;" x="235.634139" xlink:href="#m1ebc7bb858" y="71.06867"/>
     <use style="fill:#98df8a;stroke:#ffffff;stroke-linejoin:miter;stroke-width:0.75;" x="242.769404" xlink:href="#m1ebc7bb858" y="71.06867"/>
     <use style="fill:#98df8a;stroke:#ffffff;stroke-linejoin:miter;stroke-width:0.75;" x="249.904668" xlink:href="#m1ebc7bb858" y="71.06867"/>
     <use style="fill:#98df8a;stroke:#ffffff;stroke-linejoin:miter;stroke-width:0.75;" x="257.039933" xlink:href="#m1ebc7bb858" y="69.602489"/>
     <use style="fill:#98df8a;stroke:#ffffff;stroke-linejoin:miter;stroke-width:0.75;" x="264.175198" xlink:href="#m1ebc7bb858" y="69.602489"/>
     <use style="fill:#98df8a;stroke:#ffffff;stroke-linejoin:miter;stroke-width:0.75;" x="271.310463" xlink:href="#m1ebc7bb858" y="69.602489"/>
     <use style="fill:#98df8a;stroke:#ffffff;stroke-linejoin:miter;stroke-width:0.75;" x="278.445727" xlink:href="#m1ebc7bb858" y="69.393034"/>
     <use style="fill:#98df8a;stroke:#ffffff;stroke-linejoin:miter;stroke-width:0.75;" x="285.580992" xlink:href="#m1ebc7bb858" y="68.974125"/>
     <use style="fill:#98df8a;stroke:#ffffff;stroke-linejoin:miter;stroke-width:0.75;" x="292.716257" xlink:href="#m1ebc7bb858" y="68.555216"/>
     <use style="fill:#98df8a;stroke:#ffffff;stroke-linejoin:miter;stroke-width:0.75;" x="299.851522" xlink:href="#m1ebc7bb858" y="67.298489"/>
     <use style="fill:#98df8a;stroke:#ffffff;stroke-linejoin:miter;stroke-width:0.75;" x="306.986786" xlink:href="#m1ebc7bb858" y="65.203943"/>
     <use style="fill:#98df8a;stroke:#ffffff;stroke-linejoin:miter;stroke-width:0.75;" x="314.122051" xlink:href="#m1ebc7bb858" y="65.203943"/>
     <use style="fill:#98df8a;stroke:#ffffff;stroke-linejoin:miter;stroke-width:0.75;" x="321.257316" xlink:href="#m1ebc7bb858" y="64.57558"/>
     <use style="fill:#98df8a;stroke:#ffffff;stroke-linejoin:miter;stroke-width:0.75;" x="328.392581" xlink:href="#m1ebc7bb858" y="64.57558"/>
     <use style="fill:#98df8a;stroke:#ffffff;stroke-linejoin:miter;stroke-width:0.75;" x="335.527845" xlink:href="#m1ebc7bb858" y="64.57558"/>
     <use style="fill:#98df8a;stroke:#ffffff;stroke-linejoin:miter;stroke-width:0.75;" x="342.66311" xlink:href="#m1ebc7bb858" y="64.57558"/>
     <use style="fill:#98df8a;stroke:#ffffff;stroke-linejoin:miter;stroke-width:0.75;" x="349.798375" xlink:href="#m1ebc7bb858" y="64.57558"/>
     <use style="fill:#98df8a;stroke:#ffffff;stroke-linejoin:miter;stroke-width:0.75;" x="356.933639" xlink:href="#m1ebc7bb858" y="64.366125"/>
     <use style="fill:#98df8a;stroke:#ffffff;stroke-linejoin:miter;stroke-width:0.75;" x="364.068904" xlink:href="#m1ebc7bb858" y="64.366125"/>
     <use style="fill:#98df8a;stroke:#ffffff;stroke-linejoin:miter;stroke-width:0.75;" x="371.204169" xlink:href="#m1ebc7bb858" y="64.366125"/>
     <use style="fill:#98df8a;stroke:#ffffff;stroke-linejoin:miter;stroke-width:0.75;" x="378.339434" xlink:href="#m1ebc7bb858" y="64.366125"/>
     <use style="fill:#98df8a;stroke:#ffffff;stroke-linejoin:miter;stroke-width:0.75;" x="385.474698" xlink:href="#m1ebc7bb858" y="64.15667"/>
     <use style="fill:#98df8a;stroke:#ffffff;stroke-linejoin:miter;stroke-width:0.75;" x="392.609963" xlink:href="#m1ebc7bb858" y="64.15667"/>
     <use style="fill:#98df8a;stroke:#ffffff;stroke-linejoin:miter;stroke-width:0.75;" x="399.745228" xlink:href="#m1ebc7bb858" y="64.15667"/>
     <use style="fill:#98df8a;stroke:#ffffff;stroke-linejoin:miter;stroke-width:0.75;" x="406.880493" xlink:href="#m1ebc7bb858" y="62.27158"/>
     <use style="fill:#98df8a;stroke:#ffffff;stroke-linejoin:miter;stroke-width:0.75;" x="414.015757" xlink:href="#m1ebc7bb858" y="61.643216"/>
     <use style="fill:#98df8a;stroke:#ffffff;stroke-linejoin:miter;stroke-width:0.75;" x="421.151022" xlink:href="#m1ebc7bb858" y="61.643216"/>
     <use style="fill:#98df8a;stroke:#ffffff;stroke-linejoin:miter;stroke-width:0.75;" x="428.286287" xlink:href="#m1ebc7bb858" y="61.643216"/>
     <use style="fill:#98df8a;stroke:#ffffff;stroke-linejoin:miter;stroke-width:0.75;" x="435.421552" xlink:href="#m1ebc7bb858" y="61.643216"/>
     <use style="fill:#98df8a;stroke:#ffffff;stroke-linejoin:miter;stroke-width:0.75;" x="442.556816" xlink:href="#m1ebc7bb858" y="61.643216"/>
     <use style="fill:#98df8a;stroke:#ffffff;stroke-linejoin:miter;stroke-width:0.75;" x="449.692081" xlink:href="#m1ebc7bb858" y="61.643216"/>
     <use style="fill:#98df8a;stroke:#ffffff;stroke-linejoin:miter;stroke-width:0.75;" x="456.827346" xlink:href="#m1ebc7bb858" y="61.643216"/>
     <use style="fill:#98df8a;stroke:#ffffff;stroke-linejoin:miter;stroke-width:0.75;" x="463.962611" xlink:href="#m1ebc7bb858" y="61.643216"/>
     <use style="fill:#98df8a;stroke:#ffffff;stroke-linejoin:miter;stroke-width:0.75;" x="471.097875" xlink:href="#m1ebc7bb858" y="61.643216"/>
     <use style="fill:#98df8a;stroke:#ffffff;stroke-linejoin:miter;stroke-width:0.75;" x="478.23314" xlink:href="#m1ebc7bb858" y="61.643216"/>
     <use style="fill:#98df8a;stroke:#ffffff;stroke-linejoin:miter;stroke-width:0.75;" x="485.368405" xlink:href="#m1ebc7bb858" y="61.643216"/>
     <use style="fill:#98df8a;stroke:#ffffff;stroke-linejoin:miter;stroke-width:0.75;" x="492.503669" xlink:href="#m1ebc7bb858" y="60.595943"/>
     <use style="fill:#98df8a;stroke:#ffffff;stroke-linejoin:miter;stroke-width:0.75;" x="499.638934" xlink:href="#m1ebc7bb858" y="60.595943"/>
     <use style="fill:#98df8a;stroke:#ffffff;stroke-linejoin:miter;stroke-width:0.75;" x="506.774199" xlink:href="#m1ebc7bb858" y="60.595943"/>
     <use style="fill:#98df8a;stroke:#ffffff;stroke-linejoin:miter;stroke-width:0.75;" x="513.909464" xlink:href="#m1ebc7bb858" y="60.595943"/>
     <use style="fill:#98df8a;stroke:#ffffff;stroke-linejoin:miter;stroke-width:0.75;" x="521.044728" xlink:href="#m1ebc7bb858" y="58.501398"/>
     <use style="fill:#98df8a;stroke:#ffffff;stroke-linejoin:miter;stroke-width:0.75;" x="528.179993" xlink:href="#m1ebc7bb858" y="57.24467"/>
     <use style="fill:#98df8a;stroke:#ffffff;stroke-linejoin:miter;stroke-width:0.75;" x="535.315258" xlink:href="#m1ebc7bb858" y="57.24467"/>
     <use style="fill:#98df8a;stroke:#ffffff;stroke-linejoin:miter;stroke-width:0.75;" x="542.450523" xlink:href="#m1ebc7bb858" y="57.24467"/>
     <use style="fill:#98df8a;stroke:#ffffff;stroke-linejoin:miter;stroke-width:0.75;" x="549.585787" xlink:href="#m1ebc7bb858" y="57.24467"/>
     <use style="fill:#98df8a;stroke:#ffffff;stroke-linejoin:miter;stroke-width:0.75;" x="556.721052" xlink:href="#m1ebc7bb858" y="57.24467"/>
     <use style="fill:#98df8a;stroke:#ffffff;stroke-linejoin:miter;stroke-width:0.75;" x="563.856317" xlink:href="#m1ebc7bb858" y="57.24467"/>
     <use style="fill:#98df8a;stroke:#ffffff;stroke-linejoin:miter;stroke-width:0.75;" x="570.991582" xlink:href="#m1ebc7bb858" y="57.24467"/>
     <use style="fill:#98df8a;stroke:#ffffff;stroke-linejoin:miter;stroke-width:0.75;" x="578.126846" xlink:href="#m1ebc7bb858" y="57.24467"/>
     <use style="fill:#98df8a;stroke:#ffffff;stroke-linejoin:miter;stroke-width:0.75;" x="585.262111" xlink:href="#m1ebc7bb858" y="57.24467"/>
     <use style="fill:#98df8a;stroke:#ffffff;stroke-linejoin:miter;stroke-width:0.75;" x="592.397376" xlink:href="#m1ebc7bb858" y="57.24467"/>
     <use style="fill:#98df8a;stroke:#ffffff;stroke-linejoin:miter;stroke-width:0.75;" x="599.53264" xlink:href="#m1ebc7bb858" y="57.24467"/>
     <use style="fill:#98df8a;stroke:#ffffff;stroke-linejoin:miter;stroke-width:0.75;" x="606.667905" xlink:href="#m1ebc7bb858" y="57.24467"/>
     <use style="fill:#98df8a;stroke:#ffffff;stroke-linejoin:miter;stroke-width:0.75;" x="613.80317" xlink:href="#m1ebc7bb858" y="57.24467"/>
     <use style="fill:#98df8a;stroke:#ffffff;stroke-linejoin:miter;stroke-width:0.75;" x="620.938435" xlink:href="#m1ebc7bb858" y="55.778489"/>
     <use style="fill:#98df8a;stroke:#ffffff;stroke-linejoin:miter;stroke-width:0.75;" x="628.073699" xlink:href="#m1ebc7bb858" y="55.778489"/>
     <use style="fill:#98df8a;stroke:#ffffff;stroke-linejoin:miter;stroke-width:0.75;" x="635.208964" xlink:href="#m1ebc7bb858" y="55.778489"/>
     <use style="fill:#98df8a;stroke:#ffffff;stroke-linejoin:miter;stroke-width:0.75;" x="642.344229" xlink:href="#m1ebc7bb858" y="55.778489"/>
     <use style="fill:#98df8a;stroke:#ffffff;stroke-linejoin:miter;stroke-width:0.75;" x="649.479494" xlink:href="#m1ebc7bb858" y="55.778489"/>
     <use style="fill:#98df8a;stroke:#ffffff;stroke-linejoin:miter;stroke-width:0.75;" x="656.614758" xlink:href="#m1ebc7bb858" y="55.778489"/>
     <use style="fill:#98df8a;stroke:#ffffff;stroke-linejoin:miter;stroke-width:0.75;" x="663.750023" xlink:href="#m1ebc7bb858" y="55.778489"/>
     <use style="fill:#98df8a;stroke:#ffffff;stroke-linejoin:miter;stroke-width:0.75;" x="670.885288" xlink:href="#m1ebc7bb858" y="55.778489"/>
     <use style="fill:#98df8a;stroke:#ffffff;stroke-linejoin:miter;stroke-width:0.75;" x="678.020553" xlink:href="#m1ebc7bb858" y="55.778489"/>
     <use style="fill:#98df8a;stroke:#ffffff;stroke-linejoin:miter;stroke-width:0.75;" x="685.155817" xlink:href="#m1ebc7bb858" y="55.778489"/>
     <use style="fill:#98df8a;stroke:#ffffff;stroke-linejoin:miter;stroke-width:0.75;" x="692.291082" xlink:href="#m1ebc7bb858" y="55.35958"/>
     <use style="fill:#98df8a;stroke:#ffffff;stroke-linejoin:miter;stroke-width:0.75;" x="699.426347" xlink:href="#m1ebc7bb858" y="55.35958"/>
     <use style="fill:#98df8a;stroke:#ffffff;stroke-linejoin:miter;stroke-width:0.75;" x="706.561612" xlink:href="#m1ebc7bb858" y="55.35958"/>
     <use style="fill:#98df8a;stroke:#ffffff;stroke-linejoin:miter;stroke-width:0.75;" x="713.696876" xlink:href="#m1ebc7bb858" y="55.35958"/>
     <use style="fill:#98df8a;stroke:#ffffff;stroke-linejoin:miter;stroke-width:0.75;" x="720.832141" xlink:href="#m1ebc7bb858" y="55.35958"/>
     <use style="fill:#98df8a;stroke:#ffffff;stroke-linejoin:miter;stroke-width:0.75;" x="727.967406" xlink:href="#m1ebc7bb858" y="55.35958"/>
     <use style="fill:#98df8a;stroke:#ffffff;stroke-linejoin:miter;stroke-width:0.75;" x="735.10267" xlink:href="#m1ebc7bb858" y="55.35958"/>
    </g>
   </g>
   <g id="line2d_23"/>
   <g id="line2d_24"/>
   <g id="line2d_25"/>
   <g id="line2d_26">
    <path clip-path="url(#p0d9991be82)" d="M 735.10267 288.430125 
L 735.10267 22.318125 
" style="fill:none;stroke:#ff0000;stroke-linecap:square;stroke-width:1.5;"/>
   </g>
   <g id="patch_3">
    <path d="M 53.328125 280.523216 
L 53.328125 29.177761 
" style="fill:none;stroke:#000000;stroke-linecap:square;stroke-linejoin:miter;stroke-width:0.8;"/>
   </g>
   <g id="patch_4">
    <path d="M 85.79358 288.430125 
L 687.534239 288.430125 
" style="fill:none;stroke:#000000;stroke-linecap:square;stroke-linejoin:miter;stroke-width:0.8;"/>
   </g>
   <g id="text_22">
    <!-- mbedtls_fuzz_dtlsclient (23h, 20 trials/fuzzer) -->
    <g transform="translate(273.77375 16.318125)scale(0.12 -0.12)">
     <defs>
      <path d="M 3116 1747 
Q 3116 2381 2855 2742 
Q 2594 3103 2138 3103 
Q 1681 3103 1420 2742 
Q 1159 2381 1159 1747 
Q 1159 1113 1420 752 
Q 1681 391 2138 391 
Q 2594 391 2855 752 
Q 3116 1113 3116 1747 
z
M 1159 2969 
Q 1341 3281 1617 3432 
Q 1894 3584 2278 3584 
Q 2916 3584 3314 3078 
Q 3713 2572 3713 1747 
Q 3713 922 3314 415 
Q 2916 -91 2278 -91 
Q 1894 -91 1617 61 
Q 1341 213 1159 525 
L 1159 0 
L 581 0 
L 581 4863 
L 1159 4863 
L 1159 2969 
z
" id="DejaVuSans-62" transform="scale(0.015625)"/>
      <path d="M 603 4863 
L 1178 4863 
L 1178 0 
L 603 0 
L 603 4863 
z
" id="DejaVuSans-6c" transform="scale(0.015625)"/>
      <path d="M 2834 3397 
L 2834 2853 
Q 2591 2978 2328 3040 
Q 2066 3103 1784 3103 
Q 1356 3103 1142 2972 
Q 928 2841 928 2578 
Q 928 2378 1081 2264 
Q 1234 2150 1697 2047 
L 1894 2003 
Q 2506 1872 2764 1633 
Q 3022 1394 3022 966 
Q 3022 478 2636 193 
Q 2250 -91 1575 -91 
Q 1294 -91 989 -36 
Q 684 19 347 128 
L 347 722 
Q 666 556 975 473 
Q 1284 391 1588 391 
Q 1994 391 2212 530 
Q 2431 669 2431 922 
Q 2431 1156 2273 1281 
Q 2116 1406 1581 1522 
L 1381 1569 
Q 847 1681 609 1914 
Q 372 2147 372 2553 
Q 372 3047 722 3315 
Q 1072 3584 1716 3584 
Q 2034 3584 2315 3537 
Q 2597 3491 2834 3397 
z
" id="DejaVuSans-73" transform="scale(0.015625)"/>
      <path d="M 3263 -1063 
L 3263 -1509 
L -63 -1509 
L -63 -1063 
L 3263 -1063 
z
" id="DejaVuSans-5f" transform="scale(0.015625)"/>
      <path d="M 2375 4863 
L 2375 4384 
L 1825 4384 
Q 1516 4384 1395 4259 
Q 1275 4134 1275 3809 
L 1275 3500 
L 2222 3500 
L 2222 3053 
L 1275 3053 
L 1275 0 
L 697 0 
L 697 3053 
L 147 3053 
L 147 3500 
L 697 3500 
L 697 3744 
Q 697 4328 969 4595 
Q 1241 4863 1831 4863 
L 2375 4863 
z
" id="DejaVuSans-66" transform="scale(0.015625)"/>
      <path d="M 353 3500 
L 3084 3500 
L 3084 2975 
L 922 459 
L 3084 459 
L 3084 0 
L 275 0 
L 275 525 
L 2438 3041 
L 353 3041 
L 353 3500 
z
" id="DejaVuSans-7a" transform="scale(0.015625)"/>
      <path d="M 750 794 
L 1409 794 
L 1409 256 
L 897 -744 
L 494 -744 
L 750 256 
L 750 794 
z
" id="DejaVuSans-2c" transform="scale(0.015625)"/>
      <path d="M 1625 4666 
L 2156 4666 
L 531 -594 
L 0 -594 
L 1625 4666 
z
" id="DejaVuSans-2f" transform="scale(0.015625)"/>
     </defs>
     <use xlink:href="#DejaVuSans-6d"/>
     <use x="97.412109" xlink:href="#DejaVuSans-62"/>
     <use x="160.888672" xlink:href="#DejaVuSans-65"/>
     <use x="222.412109" xlink:href="#DejaVuSans-64"/>
     <use x="285.888672" xlink:href="#DejaVuSans-74"/>
     <use x="325.097656" xlink:href="#DejaVuSans-6c"/>
     <use x="352.880859" xlink:href="#DejaVuSans-73"/>
     <use x="404.980469" xlink:href="#DejaVuSans-5f"/>
     <use x="454.980469" xlink:href="#DejaVuSans-66"/>
     <use x="490.185547" xlink:href="#DejaVuSans-75"/>
     <use x="553.564453" xlink:href="#DejaVuSans-7a"/>
     <use x="606.054688" xlink:href="#DejaVuSans-7a"/>
     <use x="658.544922" xlink:href="#DejaVuSans-5f"/>
     <use x="708.544922" xlink:href="#DejaVuSans-64"/>
     <use x="772.021484" xlink:href="#DejaVuSans-74"/>
     <use x="811.230469" xlink:href="#DejaVuSans-6c"/>
     <use x="839.013672" xlink:href="#DejaVuSans-73"/>
     <use x="891.113281" xlink:href="#DejaVuSans-63"/>
     <use x="946.09375" xlink:href="#DejaVuSans-6c"/>
     <use x="973.876953" xlink:href="#DejaVuSans-69"/>
     <use x="1001.660156" xlink:href="#DejaVuSans-65"/>
     <use x="1063.183594" xlink:href="#DejaVuSans-6e"/>
     <use x="1126.5625" xlink:href="#DejaVuSans-74"/>
     <use x="1165.771484" xlink:href="#DejaVuSans-20"/>
     <use x="1197.558594" xlink:href="#DejaVuSans-28"/>
     <use x="1236.572266" xlink:href="#DejaVuSans-32"/>
     <use x="1300.195312" xlink:href="#DejaVuSans-33"/>
     <use x="1363.818359" xlink:href="#DejaVuSans-68"/>
     <use x="1427.197266" xlink:href="#DejaVuSans-2c"/>
     <use x="1458.984375" xlink:href="#DejaVuSans-20"/>
     <use x="1490.771484" xlink:href="#DejaVuSans-32"/>
     <use x="1554.394531" xlink:href="#DejaVuSans-30"/>
     <use x="1618.017578" xlink:href="#DejaVuSans-20"/>
     <use x="1649.804688" xlink:href="#DejaVuSans-74"/>
     <use x="1689.013672" xlink:href="#DejaVuSans-72"/>
     <use x="1730.126953" xlink:href="#DejaVuSans-69"/>
     <use x="1757.910156" xlink:href="#DejaVuSans-61"/>
     <use x="1819.189453" xlink:href="#DejaVuSans-6c"/>
     <use x="1846.972656" xlink:href="#DejaVuSans-73"/>
     <use x="1899.072266" xlink:href="#DejaVuSans-2f"/>
     <use x="1932.763672" xlink:href="#DejaVuSans-66"/>
     <use x="1967.96875" xlink:href="#DejaVuSans-75"/>
     <use x="2031.347656" xlink:href="#DejaVuSans-7a"/>
     <use x="2083.837891" xlink:href="#DejaVuSans-7a"/>
     <use x="2136.328125" xlink:href="#DejaVuSans-65"/>
     <use x="2197.851562" xlink:href="#DejaVuSans-72"/>
     <use x="2238.964844" xlink:href="#DejaVuSans-29"/>
    </g>
   </g>
   <g id="legend_1">
    <g id="line2d_27">
     <path d="M 771.568125 30.416562 
L 791.568125 30.416562 
" style="fill:none;stroke:#1f77b4;stroke-linecap:square;stroke-width:1.5;"/>
    </g>
    <g id="line2d_28">
     <defs>
      <path d="M 0 3 
C 0.795609 3 1.55874 2.683901 2.12132 2.12132 
C 2.683901 1.55874 3 0.795609 3 0 
C 3 -0.795609 2.683901 -1.55874 2.12132 -2.12132 
C 1.55874 -2.683901 0.795609 -3 0 -3 
C -0.795609 -3 -1.55874 -2.683901 -2.12132 -2.12132 
C -2.683901 -1.55874 -3 -0.795609 -3 0 
C -3 0.795609 -2.683901 1.55874 -2.12132 2.12132 
C -1.55874 2.683901 -0.795609 3 0 3 
z
" id="m547bd00a42" style="stroke:#1f77b4;"/>
     </defs>
     <g>
      <use style="fill:#1f77b4;stroke:#1f77b4;" x="781.568125" xlink:href="#m547bd00a42" y="30.416562"/>
     </g>
    </g>
    <g id="text_23">
     <!-- afl_2_52_b -->
     <g transform="translate(799.568125 33.916562)scale(0.1 -0.1)">
      <use xlink:href="#DejaVuSans-61"/>
      <use x="61.279297" xlink:href="#DejaVuSans-66"/>
      <use x="96.484375" xlink:href="#DejaVuSans-6c"/>
      <use x="124.267578" xlink:href="#DejaVuSans-5f"/>
      <use x="174.267578" xlink:href="#DejaVuSans-32"/>
      <use x="237.890625" xlink:href="#DejaVuSans-5f"/>
      <use x="287.890625" xlink:href="#DejaVuSans-35"/>
      <use x="351.513672" xlink:href="#DejaVuSans-32"/>
      <use x="415.136719" xlink:href="#DejaVuSans-5f"/>
      <use x="465.136719" xlink:href="#DejaVuSans-62"/>
     </g>
    </g>
    <g id="line2d_29">
     <path d="M 771.568125 45.372813 
L 791.568125 45.372813 
" style="fill:none;stroke:#d62728;stroke-linecap:square;stroke-width:1.5;"/>
    </g>
    <g id="line2d_30">
     <defs>
      <path d="M 0 -3 
L -3 3 
L 3 3 
z
" id="m4fa9dbceb8" style="stroke:#d62728;stroke-linejoin:miter;"/>
     </defs>
     <g>
      <use style="fill:#d62728;stroke:#d62728;stroke-linejoin:miter;" x="781.568125" xlink:href="#m4fa9dbceb8" y="45.372813"/>
     </g>
    </g>
    <g id="text_24">
     <!-- mopt -->
     <g transform="translate(799.568125 48.872813)scale(0.1 -0.1)">
      <defs>
       <path d="M 1159 525 
L 1159 -1331 
L 581 -1331 
L 581 3500 
L 1159 3500 
L 1159 2969 
Q 1341 3281 1617 3432 
Q 1894 3584 2278 3584 
Q 2916 3584 3314 3078 
Q 3713 2572 3713 1747 
Q 3713 922 3314 415 
Q 2916 -91 2278 -91 
Q 1894 -91 1617 61 
Q 1341 213 1159 525 
z
M 3116 1747 
Q 3116 2381 2855 2742 
Q 2594 3103 2138 3103 
Q 1681 3103 1420 2742 
Q 1159 2381 1159 1747 
Q 1159 1113 1420 752 
Q 1681 391 2138 391 
Q 2594 391 2855 752 
Q 3116 1113 3116 1747 
z
" id="DejaVuSans-70" transform="scale(0.015625)"/>
      </defs>
      <use xlink:href="#DejaVuSans-6d"/>
      <use x="97.412109" xlink:href="#DejaVuSans-6f"/>
      <use x="158.59375" xlink:href="#DejaVuSans-70"/>
      <use x="222.070312" xlink:href="#DejaVuSans-74"/>
     </g>
    </g>
    <g id="line2d_31">
     <path d="M 771.568125 60.050937 
L 791.568125 60.050937 
" style="fill:none;stroke:#98df8a;stroke-linecap:square;stroke-width:1.5;"/>
    </g>
    <g id="line2d_32">
     <defs>
      <path d="M -0 3 
L 3 -3 
L -3 -3 
z
" id="m6866128a07" style="stroke:#98df8a;stroke-linejoin:miter;"/>
     </defs>
     <g>
      <use style="fill:#98df8a;stroke:#98df8a;stroke-linejoin:miter;" x="781.568125" xlink:href="#m6866128a07" y="60.050937"/>
     </g>
    </g>
    <g id="text_25">
     <!-- fafuzz -->
     <g transform="translate(799.568125 63.550937)scale(0.1 -0.1)">
      <use xlink:href="#DejaVuSans-66"/>
      <use x="35.205078" xlink:href="#DejaVuSans-61"/>
      <use x="96.484375" xlink:href="#DejaVuSans-66"/>
      <use x="131.689453" xlink:href="#DejaVuSans-75"/>
      <use x="195.068359" xlink:href="#DejaVuSans-7a"/>
      <use x="247.558594" xlink:href="#DejaVuSans-7a"/>
     </g>
    </g>
   </g>
  </g>
 </g>
 <defs>
  <clipPath id="p0d9991be82">
   <rect height="266.112" width="714.24" x="53.328125" y="22.318125"/>
  </clipPath>
 </defs>
</svg>
