<?xml version="1.0" encoding="utf-8" standalone="no"?>
<!DOCTYPE svg PUBLIC "-//W3C//DTD SVG 1.1//EN"
  "http://www.w3.org/Graphics/SVG/1.1/DTD/svg11.dtd">
<svg height="325.986375pt" version="1.1" viewBox="0 0 869.993125 325.986375" width="869.993125pt" xmlns="http://www.w3.org/2000/svg" xmlns:xlink="http://www.w3.org/1999/xlink">
 <metadata>
  <rdf:RDF xmlns:cc="http://creativecommons.org/ns#" xmlns:dc="http://purl.org/dc/elements/1.1/" xmlns:rdf="http://www.w3.org/1999/02/22-rdf-syntax-ns#">
   <cc:Work>
    <dc:type rdf:resource="http://purl.org/dc/dcmitype/StillImage"/>
    <dc:date>2021-12-16T18:47:47.206520</dc:date>
    <dc:format>image/svg+xml</dc:format>
    <dc:creator>
     <cc:Agent>
      <dc:title>Matplotlib v3.4.1, https://matplotlib.org/</dc:title>
     </cc:Agent>
    </dc:creator>
   </cc:Work>
  </rdf:RDF>
 </metadata>
 <defs>
  <style type="text/css">*{stroke-linecap:butt;stroke-linejoin:round;}</style>
 </defs>
 <g id="figure_1">
  <g id="patch_1">
   <path d="M 0 325.986375 
L 869.993125 325.986375 
L 869.993125 0 
L 0 0 
z
" style="fill:#ffffff;"/>
  </g>
  <g id="axes_1">
   <g id="patch_2">
    <path d="M 59.690625 288.430125 
L 773.930625 288.430125 
L 773.930625 22.318125 
L 59.690625 22.318125 
z
" style="fill:#ffffff;"/>
   </g>
   <g id="PolyCollection_1">
    <defs>
     <path d="M 92.15608 -112.761815 
L 92.15608 -76.699207 
L 99.291344 -93.227902 
L 106.426609 -130.79312 
L 113.561874 -159.342685 
L 120.697138 -169.860946 
L 127.832403 -177.373989 
L 134.967668 -178.839033 
L 142.102933 -201.415728 
L 149.238197 -204.420946 
L 156.373462 -205.923554 
L 163.508727 -207.426163 
L 170.643992 -216.441815 
L 177.779256 -219.447033 
L 184.914521 -219.447033 
L 192.049786 -225.457467 
L 199.185051 -257.01225 
L 206.320315 -263.022685 
L 213.45558 -273.540946 
L 220.590845 -279.55138 
L 227.72611 -279.55138 
L 234.861374 -279.55138 
L 241.996639 -279.55138 
L 249.131904 -279.55138 
L 256.267168 -279.55138 
L 263.402433 -279.55138 
L 270.537698 -279.55138 
L 277.672963 -279.55138 
L 284.808227 -279.55138 
L 291.943492 -279.55138 
L 299.078757 -279.55138 
L 306.214022 -279.55138 
L 313.349286 -282.556598 
L 320.484551 -285.561815 
L 327.619816 -285.561815 
L 334.755081 -285.561815 
L 341.890345 -285.561815 
L 349.02561 -285.561815 
L 356.160875 -285.561815 
L 363.296139 -285.561815 
L 370.431404 -285.561815 
L 377.566669 -285.561815 
L 384.701934 -285.561815 
L 391.837198 -285.561815 
L 398.972463 -285.561815 
L 406.107728 -285.561815 
L 413.242993 -285.561815 
L 420.378257 -285.561815 
L 427.513522 -285.561815 
L 434.648787 -285.561815 
L 441.784052 -285.561815 
L 448.919316 -285.561815 
L 456.054581 -285.561815 
L 463.189846 -285.561815 
L 470.325111 -285.561815 
L 477.460375 -285.561815 
L 484.59564 -285.561815 
L 491.730905 -285.561815 
L 498.866169 -285.561815 
L 506.001434 -285.561815 
L 513.136699 -285.561815 
L 520.271964 -285.561815 
L 527.407228 -285.561815 
L 534.542493 -285.561815 
L 541.677758 -285.561815 
L 548.813023 -285.561815 
L 555.948287 -285.561815 
L 563.083552 -285.561815 
L 570.218817 -285.561815 
L 577.354082 -285.561815 
L 584.489346 -285.561815 
L 591.624611 -285.561815 
L 598.759876 -285.561815 
L 605.89514 -285.561815 
L 613.030405 -285.561815 
L 620.16567 -285.561815 
L 627.300935 -285.561815 
L 634.436199 -285.561815 
L 641.571464 -285.561815 
L 648.706729 -285.561815 
L 655.841994 -285.561815 
L 662.977258 -285.561815 
L 670.112523 -285.561815 
L 677.247788 -285.561815 
L 684.383053 -285.561815 
L 691.518317 -285.561815 
L 698.653582 -285.561815 
L 705.788847 -285.561815 
L 712.924112 -285.561815 
L 720.059376 -285.561815 
L 727.194641 -285.561815 
L 734.329906 -285.561815 
L 741.46517 -285.561815 
L 741.46517 -291.57225 
L 741.46517 -291.57225 
L 734.329906 -291.57225 
L 727.194641 -291.57225 
L 720.059376 -291.57225 
L 712.924112 -291.57225 
L 705.788847 -291.57225 
L 698.653582 -291.57225 
L 691.518317 -291.57225 
L 684.383053 -291.57225 
L 677.247788 -291.57225 
L 670.112523 -291.57225 
L 662.977258 -291.57225 
L 655.841994 -291.57225 
L 648.706729 -291.57225 
L 641.571464 -291.57225 
L 634.436199 -291.57225 
L 627.300935 -291.57225 
L 620.16567 -291.57225 
L 613.030405 -291.57225 
L 605.89514 -291.57225 
L 598.759876 -291.57225 
L 591.624611 -291.57225 
L 584.489346 -291.57225 
L 577.354082 -291.57225 
L 570.218817 -291.57225 
L 563.083552 -291.57225 
L 555.948287 -291.57225 
L 548.813023 -291.57225 
L 541.677758 -291.57225 
L 534.542493 -291.57225 
L 527.407228 -291.57225 
L 520.271964 -291.57225 
L 513.136699 -291.57225 
L 506.001434 -291.57225 
L 498.866169 -291.57225 
L 491.730905 -291.57225 
L 484.59564 -291.57225 
L 477.460375 -291.57225 
L 470.325111 -291.57225 
L 463.189846 -291.57225 
L 456.054581 -291.57225 
L 448.919316 -291.57225 
L 441.784052 -291.57225 
L 434.648787 -291.57225 
L 427.513522 -288.567033 
L 420.378257 -287.064424 
L 413.242993 -288.567033 
L 406.107728 -288.567033 
L 398.972463 -287.064424 
L 391.837198 -287.101989 
L 384.701934 -287.101989 
L 377.566669 -287.064424 
L 370.431404 -287.064424 
L 363.296139 -285.561815 
L 356.160875 -285.561815 
L 349.02561 -285.561815 
L 341.890345 -285.561815 
L 334.755081 -285.561815 
L 327.619816 -285.561815 
L 320.484551 -285.561815 
L 313.349286 -285.561815 
L 306.214022 -285.561815 
L 299.078757 -285.561815 
L 291.943492 -285.561815 
L 284.808227 -285.561815 
L 277.672963 -285.561815 
L 270.537698 -285.561815 
L 263.402433 -285.561815 
L 256.267168 -285.561815 
L 249.131904 -285.561815 
L 241.996639 -285.561815 
L 234.861374 -285.561815 
L 227.72611 -285.561815 
L 220.590845 -285.561815 
L 213.45558 -285.561815 
L 206.320315 -285.561815 
L 199.185051 -279.55138 
L 192.049786 -279.55138 
L 184.914521 -279.55138 
L 177.779256 -279.55138 
L 170.643992 -278.048772 
L 163.508727 -269.03312 
L 156.373462 -269.03312 
L 149.238197 -266.027902 
L 142.102933 -266.027902 
L 134.967668 -252.504424 
L 127.832403 -240.558685 
L 120.697138 -217.944424 
L 113.561874 -210.43138 
L 106.426609 -195.405293 
L 99.291344 -147.321815 
L 92.15608 -112.761815 
z
" id="ma88bd396a3" style="stroke:#1f77b4;stroke-opacity:0.2;"/>
    </defs>
    <g clip-path="url(#pdb06d48b92)">
     <use style="fill:#1f77b4;fill-opacity:0.2;stroke:#1f77b4;stroke-opacity:0.2;" x="0" xlink:href="#ma88bd396a3" y="325.986375"/>
    </g>
   </g>
   <g id="PolyCollection_2">
    <defs>
     <path d="M 92.15608 -78.201815 
L 92.15608 -49.65225 
L 99.291344 -90.222685 
L 106.426609 -108.253989 
L 113.561874 -109.756598 
L 120.697138 -129.290511 
L 127.832403 -132.295728 
L 134.967668 -132.295728 
L 142.102933 -132.295728 
L 149.238197 -172.866163 
L 156.373462 -172.866163 
L 163.508727 -189.394859 
L 170.643992 -189.394859 
L 177.779256 -204.420946 
L 184.914521 -204.420946 
L 192.049786 -204.420946 
L 199.185051 -204.420946 
L 206.320315 -204.420946 
L 213.45558 -225.457467 
L 220.590845 -225.457467 
L 227.72611 -225.457467 
L 234.861374 -228.462685 
L 241.996639 -251.001815 
L 249.131904 -251.001815 
L 256.267168 -249.499207 
L 263.402433 -255.509641 
L 270.537698 -255.509641 
L 277.672963 -255.509641 
L 284.808227 -255.509641 
L 291.943492 -266.027902 
L 299.078757 -267.530511 
L 306.214022 -279.55138 
L 313.349286 -279.55138 
L 320.484551 -279.55138 
L 327.619816 -279.55138 
L 334.755081 -279.55138 
L 341.890345 -279.55138 
L 349.02561 -279.55138 
L 356.160875 -279.55138 
L 363.296139 -279.55138 
L 370.431404 -279.55138 
L 377.566669 -279.55138 
L 384.701934 -279.55138 
L 391.837198 -279.55138 
L 398.972463 -279.55138 
L 406.107728 -279.55138 
L 413.242993 -279.55138 
L 420.378257 -279.55138 
L 427.513522 -279.55138 
L 434.648787 -279.55138 
L 441.784052 -279.55138 
L 448.919316 -279.55138 
L 456.054581 -279.55138 
L 463.189846 -279.55138 
L 470.325111 -279.55138 
L 477.460375 -279.55138 
L 484.59564 -279.55138 
L 491.730905 -279.55138 
L 498.866169 -279.55138 
L 506.001434 -279.55138 
L 513.136699 -279.55138 
L 520.271964 -282.556598 
L 527.407228 -282.556598 
L 534.542493 -282.556598 
L 541.677758 -282.556598 
L 548.813023 -285.561815 
L 555.948287 -285.561815 
L 563.083552 -285.561815 
L 570.218817 -285.561815 
L 577.354082 -285.561815 
L 584.489346 -285.561815 
L 591.624611 -285.561815 
L 598.759876 -285.561815 
L 605.89514 -285.561815 
L 613.030405 -285.561815 
L 620.16567 -285.561815 
L 627.300935 -285.561815 
L 634.436199 -285.561815 
L 641.571464 -285.561815 
L 648.706729 -285.561815 
L 655.841994 -285.561815 
L 662.977258 -285.561815 
L 670.112523 -285.561815 
L 677.247788 -285.561815 
L 684.383053 -285.561815 
L 691.518317 -285.561815 
L 698.653582 -285.561815 
L 705.788847 -285.561815 
L 712.924112 -285.561815 
L 720.059376 -285.561815 
L 727.194641 -285.561815 
L 734.329906 -285.561815 
L 741.46517 -285.561815 
L 741.46517 -288.567033 
L 741.46517 -288.567033 
L 734.329906 -288.567033 
L 727.194641 -288.567033 
L 720.059376 -288.567033 
L 712.924112 -288.567033 
L 705.788847 -288.567033 
L 698.653582 -288.567033 
L 691.518317 -288.567033 
L 684.383053 -288.567033 
L 677.247788 -285.561815 
L 670.112523 -285.561815 
L 662.977258 -285.561815 
L 655.841994 -285.561815 
L 648.706729 -285.561815 
L 641.571464 -285.561815 
L 634.436199 -285.561815 
L 627.300935 -285.561815 
L 620.16567 -285.561815 
L 613.030405 -285.561815 
L 605.89514 -285.561815 
L 598.759876 -285.561815 
L 591.624611 -285.561815 
L 584.489346 -285.561815 
L 577.354082 -285.561815 
L 570.218817 -285.561815 
L 563.083552 -285.561815 
L 555.948287 -285.561815 
L 548.813023 -285.561815 
L 541.677758 -285.561815 
L 534.542493 -285.561815 
L 527.407228 -285.561815 
L 520.271964 -285.561815 
L 513.136699 -285.561815 
L 506.001434 -285.561815 
L 498.866169 -285.561815 
L 491.730905 -285.561815 
L 484.59564 -285.561815 
L 477.460375 -285.561815 
L 470.325111 -285.561815 
L 463.189846 -285.561815 
L 456.054581 -285.561815 
L 448.919316 -285.561815 
L 441.784052 -285.561815 
L 434.648787 -285.561815 
L 427.513522 -285.561815 
L 420.378257 -285.561815 
L 413.242993 -285.561815 
L 406.107728 -285.561815 
L 398.972463 -285.561815 
L 391.837198 -285.561815 
L 384.701934 -285.561815 
L 377.566669 -285.561815 
L 370.431404 -285.561815 
L 363.296139 -285.561815 
L 356.160875 -285.561815 
L 349.02561 -285.561815 
L 341.890345 -285.561815 
L 334.755081 -285.561815 
L 327.619816 -285.561815 
L 320.484551 -285.561815 
L 313.349286 -285.561815 
L 306.214022 -285.561815 
L 299.078757 -285.561815 
L 291.943492 -285.561815 
L 284.808227 -285.561815 
L 277.672963 -282.556598 
L 270.537698 -282.556598 
L 263.402433 -282.556598 
L 256.267168 -282.556598 
L 249.131904 -282.556598 
L 241.996639 -279.55138 
L 234.861374 -279.55138 
L 227.72611 -279.55138 
L 220.590845 -279.55138 
L 213.45558 -279.55138 
L 206.320315 -279.55138 
L 199.185051 -279.55138 
L 192.049786 -279.55138 
L 184.914521 -279.55138 
L 177.779256 -269.296076 
L 170.643992 -269.03312 
L 163.508727 -225.457467 
L 156.373462 -222.489815 
L 149.238197 -217.944424 
L 142.102933 -217.944424 
L 134.967668 -181.881815 
L 127.832403 -177.373989 
L 120.697138 -151.829641 
L 113.561874 -150.327033 
L 106.426609 -139.808772 
L 99.291344 -120.274859 
L 92.15608 -78.201815 
z
" id="m00e176df22" style="stroke:#d62728;stroke-opacity:0.2;"/>
    </defs>
    <g clip-path="url(#pdb06d48b92)">
     <use style="fill:#d62728;fill-opacity:0.2;stroke:#d62728;stroke-opacity:0.2;" x="0" xlink:href="#m00e176df22" y="325.986375"/>
    </g>
   </g>
   <g id="PolyCollection_3">
    <defs>
     <path d="M 92.15608 -112.761815 
L 92.15608 -55.662685 
L 99.291344 -93.227902 
L 106.426609 -129.290511 
L 113.561874 -129.290511 
L 120.697138 -150.327033 
L 127.832403 -150.327033 
L 134.967668 -150.327033 
L 142.102933 -153.33225 
L 149.238197 -153.33225 
L 156.373462 -153.33225 
L 163.508727 -153.33225 
L 170.643992 -156.337467 
L 177.779256 -166.855728 
L 184.914521 -166.855728 
L 192.049786 -180.379207 
L 199.185051 -189.394859 
L 206.320315 -189.394859 
L 213.45558 -189.394859 
L 220.590845 -196.832772 
L 227.72611 -196.907902 
L 234.861374 -210.43138 
L 241.996639 -210.43138 
L 249.131904 -210.43138 
L 256.267168 -210.43138 
L 263.402433 -210.43138 
L 270.537698 -219.447033 
L 277.672963 -219.371902 
L 284.808227 -219.447033 
L 291.943492 -219.447033 
L 299.078757 -238.980946 
L 306.214022 -255.509641 
L 313.349286 -255.509641 
L 320.484551 -255.509641 
L 327.619816 -255.509641 
L 334.755081 -255.509641 
L 341.890345 -260.017467 
L 349.02561 -267.530511 
L 356.160875 -267.530511 
L 363.296139 -267.530511 
L 370.431404 -273.540946 
L 377.566669 -273.540946 
L 384.701934 -273.540946 
L 391.837198 -279.55138 
L 398.972463 -279.55138 
L 406.107728 -279.55138 
L 413.242993 -279.55138 
L 420.378257 -279.55138 
L 427.513522 -279.55138 
L 434.648787 -279.55138 
L 441.784052 -279.55138 
L 448.919316 -279.55138 
L 456.054581 -279.55138 
L 463.189846 -279.55138 
L 470.325111 -279.55138 
L 477.460375 -279.55138 
L 484.59564 -279.55138 
L 491.730905 -279.55138 
L 498.866169 -279.55138 
L 506.001434 -279.55138 
L 513.136699 -279.55138 
L 520.271964 -279.55138 
L 527.407228 -279.55138 
L 534.542493 -279.55138 
L 541.677758 -279.55138 
L 548.813023 -279.55138 
L 555.948287 -279.55138 
L 563.083552 -279.55138 
L 570.218817 -279.55138 
L 577.354082 -279.55138 
L 584.489346 -279.55138 
L 591.624611 -279.55138 
L 598.759876 -279.55138 
L 605.89514 -279.55138 
L 613.030405 -279.55138 
L 620.16567 -279.55138 
L 627.300935 -279.55138 
L 634.436199 -279.55138 
L 641.571464 -279.55138 
L 648.706729 -279.55138 
L 655.841994 -279.55138 
L 662.977258 -279.55138 
L 670.112523 -279.55138 
L 677.247788 -279.55138 
L 684.383053 -279.55138 
L 691.518317 -279.55138 
L 698.653582 -279.55138 
L 705.788847 -279.55138 
L 712.924112 -279.55138 
L 720.059376 -279.55138 
L 727.194641 -279.55138 
L 734.329906 -279.55138 
L 741.46517 -279.55138 
L 741.46517 -285.561815 
L 741.46517 -285.561815 
L 734.329906 -285.561815 
L 727.194641 -285.561815 
L 720.059376 -285.561815 
L 712.924112 -285.561815 
L 705.788847 -285.561815 
L 698.653582 -285.561815 
L 691.518317 -285.561815 
L 684.383053 -285.561815 
L 677.247788 -285.561815 
L 670.112523 -285.561815 
L 662.977258 -285.561815 
L 655.841994 -285.561815 
L 648.706729 -285.561815 
L 641.571464 -285.561815 
L 634.436199 -285.561815 
L 627.300935 -285.561815 
L 620.16567 -285.561815 
L 613.030405 -285.561815 
L 605.89514 -285.561815 
L 598.759876 -285.561815 
L 591.624611 -285.561815 
L 584.489346 -285.561815 
L 577.354082 -285.561815 
L 570.218817 -285.561815 
L 563.083552 -285.561815 
L 555.948287 -285.561815 
L 548.813023 -285.561815 
L 541.677758 -285.561815 
L 534.542493 -285.561815 
L 527.407228 -285.561815 
L 520.271964 -285.561815 
L 513.136699 -285.561815 
L 506.001434 -285.561815 
L 498.866169 -285.561815 
L 491.730905 -285.561815 
L 484.59564 -285.561815 
L 477.460375 -285.561815 
L 470.325111 -285.561815 
L 463.189846 -285.561815 
L 456.054581 -285.561815 
L 448.919316 -285.561815 
L 441.784052 -285.561815 
L 434.648787 -285.561815 
L 427.513522 -285.561815 
L 420.378257 -285.561815 
L 413.242993 -285.561815 
L 406.107728 -285.561815 
L 398.972463 -285.561815 
L 391.837198 -285.561815 
L 384.701934 -282.556598 
L 377.566669 -282.556598 
L 370.431404 -282.556598 
L 363.296139 -282.556598 
L 356.160875 -282.556598 
L 349.02561 -279.55138 
L 341.890345 -279.55138 
L 334.755081 -279.55138 
L 327.619816 -279.55138 
L 320.484551 -279.55138 
L 313.349286 -279.55138 
L 306.214022 -279.55138 
L 299.078757 -279.55138 
L 291.943492 -279.55138 
L 284.808227 -273.540946 
L 277.672963 -273.540946 
L 270.537698 -273.540946 
L 263.402433 -261.520076 
L 256.267168 -266.027902 
L 249.131904 -260.017467 
L 241.996639 -258.514859 
L 234.861374 -258.514859 
L 227.72611 -252.504424 
L 220.590845 -241.986163 
L 213.45558 -225.457467 
L 206.320315 -225.457467 
L 199.185051 -225.457467 
L 192.049786 -225.457467 
L 184.914521 -220.949641 
L 177.779256 -216.441815 
L 170.643992 -216.441815 
L 163.508727 -208.928772 
L 156.373462 -205.923554 
L 149.238197 -204.420946 
L 142.102933 -204.420946 
L 134.967668 -195.405293 
L 127.832403 -195.405293 
L 120.697138 -160.845293 
L 113.561874 -159.492946 
L 106.426609 -150.327033 
L 99.291344 -150.327033 
L 92.15608 -112.761815 
z
" id="m448aeabdbe" style="stroke:#98df8a;stroke-opacity:0.2;"/>
    </defs>
    <g clip-path="url(#pdb06d48b92)">
     <use style="fill:#98df8a;fill-opacity:0.2;stroke:#98df8a;stroke-opacity:0.2;" x="0" xlink:href="#m448aeabdbe" y="325.986375"/>
    </g>
   </g>
   <g id="matplotlib.axis_1">
    <g id="xtick_1">
     <g id="line2d_1">
      <defs>
       <path d="M 0 0 
L 0 3.5 
" id="m13b036b1cd" style="stroke:#000000;stroke-width:0.8;"/>
      </defs>
      <g>
       <use style="stroke:#000000;stroke-width:0.8;" x="92.15608" xlink:href="#m13b036b1cd" y="288.430125"/>
      </g>
     </g>
     <g id="text_1">
      <!-- 15m -->
      <g transform="translate(80.923267 303.028562)scale(0.1 -0.1)">
       <defs>
        <path d="M 794 531 
L 1825 531 
L 1825 4091 
L 703 3866 
L 703 4441 
L 1819 4666 
L 2450 4666 
L 2450 531 
L 3481 531 
L 3481 0 
L 794 0 
L 794 531 
z
" id="DejaVuSans-31" transform="scale(0.015625)"/>
        <path d="M 691 4666 
L 3169 4666 
L 3169 4134 
L 1269 4134 
L 1269 2991 
Q 1406 3038 1543 3061 
Q 1681 3084 1819 3084 
Q 2600 3084 3056 2656 
Q 3513 2228 3513 1497 
Q 3513 744 3044 326 
Q 2575 -91 1722 -91 
Q 1428 -91 1123 -41 
Q 819 9 494 109 
L 494 744 
Q 775 591 1075 516 
Q 1375 441 1709 441 
Q 2250 441 2565 725 
Q 2881 1009 2881 1497 
Q 2881 1984 2565 2268 
Q 2250 2553 1709 2553 
Q 1456 2553 1204 2497 
Q 953 2441 691 2322 
L 691 4666 
z
" id="DejaVuSans-35" transform="scale(0.015625)"/>
        <path d="M 3328 2828 
Q 3544 3216 3844 3400 
Q 4144 3584 4550 3584 
Q 5097 3584 5394 3201 
Q 5691 2819 5691 2113 
L 5691 0 
L 5113 0 
L 5113 2094 
Q 5113 2597 4934 2840 
Q 4756 3084 4391 3084 
Q 3944 3084 3684 2787 
Q 3425 2491 3425 1978 
L 3425 0 
L 2847 0 
L 2847 2094 
Q 2847 2600 2669 2842 
Q 2491 3084 2119 3084 
Q 1678 3084 1418 2786 
Q 1159 2488 1159 1978 
L 1159 0 
L 581 0 
L 581 3500 
L 1159 3500 
L 1159 2956 
Q 1356 3278 1631 3431 
Q 1906 3584 2284 3584 
Q 2666 3584 2933 3390 
Q 3200 3197 3328 2828 
z
" id="DejaVuSans-6d" transform="scale(0.015625)"/>
       </defs>
       <use xlink:href="#DejaVuSans-31"/>
       <use x="63.623047" xlink:href="#DejaVuSans-35"/>
       <use x="127.246094" xlink:href="#DejaVuSans-6d"/>
      </g>
     </g>
    </g>
    <g id="xtick_2">
     <g id="line2d_2">
      <g>
       <use style="stroke:#000000;stroke-width:0.8;" x="146.859776" xlink:href="#m13b036b1cd" y="288.430125"/>
      </g>
     </g>
     <g id="text_2">
      <!-- 2h:10m -->
      <g transform="translate(127.592588 303.028562)scale(0.1 -0.1)">
       <defs>
        <path d="M 1228 531 
L 3431 531 
L 3431 0 
L 469 0 
L 469 531 
Q 828 903 1448 1529 
Q 2069 2156 2228 2338 
Q 2531 2678 2651 2914 
Q 2772 3150 2772 3378 
Q 2772 3750 2511 3984 
Q 2250 4219 1831 4219 
Q 1534 4219 1204 4116 
Q 875 4013 500 3803 
L 500 4441 
Q 881 4594 1212 4672 
Q 1544 4750 1819 4750 
Q 2544 4750 2975 4387 
Q 3406 4025 3406 3419 
Q 3406 3131 3298 2873 
Q 3191 2616 2906 2266 
Q 2828 2175 2409 1742 
Q 1991 1309 1228 531 
z
" id="DejaVuSans-32" transform="scale(0.015625)"/>
        <path d="M 3513 2113 
L 3513 0 
L 2938 0 
L 2938 2094 
Q 2938 2591 2744 2837 
Q 2550 3084 2163 3084 
Q 1697 3084 1428 2787 
Q 1159 2491 1159 1978 
L 1159 0 
L 581 0 
L 581 4863 
L 1159 4863 
L 1159 2956 
Q 1366 3272 1645 3428 
Q 1925 3584 2291 3584 
Q 2894 3584 3203 3211 
Q 3513 2838 3513 2113 
z
" id="DejaVuSans-68" transform="scale(0.015625)"/>
        <path d="M 750 794 
L 1409 794 
L 1409 0 
L 750 0 
L 750 794 
z
M 750 3309 
L 1409 3309 
L 1409 2516 
L 750 2516 
L 750 3309 
z
" id="DejaVuSans-3a" transform="scale(0.015625)"/>
        <path d="M 2034 4250 
Q 1547 4250 1301 3770 
Q 1056 3291 1056 2328 
Q 1056 1369 1301 889 
Q 1547 409 2034 409 
Q 2525 409 2770 889 
Q 3016 1369 3016 2328 
Q 3016 3291 2770 3770 
Q 2525 4250 2034 4250 
z
M 2034 4750 
Q 2819 4750 3233 4129 
Q 3647 3509 3647 2328 
Q 3647 1150 3233 529 
Q 2819 -91 2034 -91 
Q 1250 -91 836 529 
Q 422 1150 422 2328 
Q 422 3509 836 4129 
Q 1250 4750 2034 4750 
z
" id="DejaVuSans-30" transform="scale(0.015625)"/>
       </defs>
       <use xlink:href="#DejaVuSans-32"/>
       <use x="63.623047" xlink:href="#DejaVuSans-68"/>
       <use x="127.001953" xlink:href="#DejaVuSans-3a"/>
       <use x="160.693359" xlink:href="#DejaVuSans-31"/>
       <use x="224.316406" xlink:href="#DejaVuSans-30"/>
       <use x="287.939453" xlink:href="#DejaVuSans-6d"/>
      </g>
     </g>
    </g>
    <g id="xtick_3">
     <g id="line2d_3">
      <g>
       <use style="stroke:#000000;stroke-width:0.8;" x="201.563472" xlink:href="#m13b036b1cd" y="288.430125"/>
      </g>
     </g>
     <g id="text_3">
      <!-- 4h:5m -->
      <g transform="translate(185.477535 303.028562)scale(0.1 -0.1)">
       <defs>
        <path d="M 2419 4116 
L 825 1625 
L 2419 1625 
L 2419 4116 
z
M 2253 4666 
L 3047 4666 
L 3047 1625 
L 3713 1625 
L 3713 1100 
L 3047 1100 
L 3047 0 
L 2419 0 
L 2419 1100 
L 313 1100 
L 313 1709 
L 2253 4666 
z
" id="DejaVuSans-34" transform="scale(0.015625)"/>
       </defs>
       <use xlink:href="#DejaVuSans-34"/>
       <use x="63.623047" xlink:href="#DejaVuSans-68"/>
       <use x="127.001953" xlink:href="#DejaVuSans-3a"/>
       <use x="160.693359" xlink:href="#DejaVuSans-35"/>
       <use x="224.316406" xlink:href="#DejaVuSans-6d"/>
      </g>
     </g>
    </g>
    <g id="xtick_4">
     <g id="line2d_4">
      <g>
       <use style="stroke:#000000;stroke-width:0.8;" x="256.267168" xlink:href="#m13b036b1cd" y="288.430125"/>
      </g>
     </g>
     <g id="text_4">
      <!-- 6h -->
      <g transform="translate(249.917168 303.028562)scale(0.1 -0.1)">
       <defs>
        <path d="M 2113 2584 
Q 1688 2584 1439 2293 
Q 1191 2003 1191 1497 
Q 1191 994 1439 701 
Q 1688 409 2113 409 
Q 2538 409 2786 701 
Q 3034 994 3034 1497 
Q 3034 2003 2786 2293 
Q 2538 2584 2113 2584 
z
M 3366 4563 
L 3366 3988 
Q 3128 4100 2886 4159 
Q 2644 4219 2406 4219 
Q 1781 4219 1451 3797 
Q 1122 3375 1075 2522 
Q 1259 2794 1537 2939 
Q 1816 3084 2150 3084 
Q 2853 3084 3261 2657 
Q 3669 2231 3669 1497 
Q 3669 778 3244 343 
Q 2819 -91 2113 -91 
Q 1303 -91 875 529 
Q 447 1150 447 2328 
Q 447 3434 972 4092 
Q 1497 4750 2381 4750 
Q 2619 4750 2861 4703 
Q 3103 4656 3366 4563 
z
" id="DejaVuSans-36" transform="scale(0.015625)"/>
       </defs>
       <use xlink:href="#DejaVuSans-36"/>
       <use x="63.623047" xlink:href="#DejaVuSans-68"/>
      </g>
     </g>
    </g>
    <g id="xtick_5">
     <g id="line2d_5">
      <g>
       <use style="stroke:#000000;stroke-width:0.8;" x="310.970865" xlink:href="#m13b036b1cd" y="288.430125"/>
      </g>
     </g>
     <g id="text_5">
      <!-- 7h:55m -->
      <g transform="translate(291.703677 303.028562)scale(0.1 -0.1)">
       <defs>
        <path d="M 525 4666 
L 3525 4666 
L 3525 4397 
L 1831 0 
L 1172 0 
L 2766 4134 
L 525 4134 
L 525 4666 
z
" id="DejaVuSans-37" transform="scale(0.015625)"/>
       </defs>
       <use xlink:href="#DejaVuSans-37"/>
       <use x="63.623047" xlink:href="#DejaVuSans-68"/>
       <use x="127.001953" xlink:href="#DejaVuSans-3a"/>
       <use x="160.693359" xlink:href="#DejaVuSans-35"/>
       <use x="224.316406" xlink:href="#DejaVuSans-35"/>
       <use x="287.939453" xlink:href="#DejaVuSans-6d"/>
      </g>
     </g>
    </g>
    <g id="xtick_6">
     <g id="line2d_6">
      <g>
       <use style="stroke:#000000;stroke-width:0.8;" x="365.674561" xlink:href="#m13b036b1cd" y="288.430125"/>
      </g>
     </g>
     <g id="text_6">
      <!-- 9h:50m -->
      <g transform="translate(346.407374 303.028562)scale(0.1 -0.1)">
       <defs>
        <path d="M 703 97 
L 703 672 
Q 941 559 1184 500 
Q 1428 441 1663 441 
Q 2288 441 2617 861 
Q 2947 1281 2994 2138 
Q 2813 1869 2534 1725 
Q 2256 1581 1919 1581 
Q 1219 1581 811 2004 
Q 403 2428 403 3163 
Q 403 3881 828 4315 
Q 1253 4750 1959 4750 
Q 2769 4750 3195 4129 
Q 3622 3509 3622 2328 
Q 3622 1225 3098 567 
Q 2575 -91 1691 -91 
Q 1453 -91 1209 -44 
Q 966 3 703 97 
z
M 1959 2075 
Q 2384 2075 2632 2365 
Q 2881 2656 2881 3163 
Q 2881 3666 2632 3958 
Q 2384 4250 1959 4250 
Q 1534 4250 1286 3958 
Q 1038 3666 1038 3163 
Q 1038 2656 1286 2365 
Q 1534 2075 1959 2075 
z
" id="DejaVuSans-39" transform="scale(0.015625)"/>
       </defs>
       <use xlink:href="#DejaVuSans-39"/>
       <use x="63.623047" xlink:href="#DejaVuSans-68"/>
       <use x="127.001953" xlink:href="#DejaVuSans-3a"/>
       <use x="160.693359" xlink:href="#DejaVuSans-35"/>
       <use x="224.316406" xlink:href="#DejaVuSans-30"/>
       <use x="287.939453" xlink:href="#DejaVuSans-6d"/>
      </g>
     </g>
    </g>
    <g id="xtick_7">
     <g id="line2d_7">
      <g>
       <use style="stroke:#000000;stroke-width:0.8;" x="420.378257" xlink:href="#m13b036b1cd" y="288.430125"/>
      </g>
     </g>
     <g id="text_7">
      <!-- 11h:45m -->
      <g transform="translate(397.92982 303.028562)scale(0.1 -0.1)">
       <use xlink:href="#DejaVuSans-31"/>
       <use x="63.623047" xlink:href="#DejaVuSans-31"/>
       <use x="127.246094" xlink:href="#DejaVuSans-68"/>
       <use x="190.625" xlink:href="#DejaVuSans-3a"/>
       <use x="224.316406" xlink:href="#DejaVuSans-34"/>
       <use x="287.939453" xlink:href="#DejaVuSans-35"/>
       <use x="351.5625" xlink:href="#DejaVuSans-6d"/>
      </g>
     </g>
    </g>
    <g id="xtick_8">
     <g id="line2d_8">
      <g>
       <use style="stroke:#000000;stroke-width:0.8;" x="475.081954" xlink:href="#m13b036b1cd" y="288.430125"/>
      </g>
     </g>
     <g id="text_8">
      <!-- 13h:40m -->
      <g transform="translate(452.633516 303.028562)scale(0.1 -0.1)">
       <defs>
        <path d="M 2597 2516 
Q 3050 2419 3304 2112 
Q 3559 1806 3559 1356 
Q 3559 666 3084 287 
Q 2609 -91 1734 -91 
Q 1441 -91 1130 -33 
Q 819 25 488 141 
L 488 750 
Q 750 597 1062 519 
Q 1375 441 1716 441 
Q 2309 441 2620 675 
Q 2931 909 2931 1356 
Q 2931 1769 2642 2001 
Q 2353 2234 1838 2234 
L 1294 2234 
L 1294 2753 
L 1863 2753 
Q 2328 2753 2575 2939 
Q 2822 3125 2822 3475 
Q 2822 3834 2567 4026 
Q 2313 4219 1838 4219 
Q 1578 4219 1281 4162 
Q 984 4106 628 3988 
L 628 4550 
Q 988 4650 1302 4700 
Q 1616 4750 1894 4750 
Q 2613 4750 3031 4423 
Q 3450 4097 3450 3541 
Q 3450 3153 3228 2886 
Q 3006 2619 2597 2516 
z
" id="DejaVuSans-33" transform="scale(0.015625)"/>
       </defs>
       <use xlink:href="#DejaVuSans-31"/>
       <use x="63.623047" xlink:href="#DejaVuSans-33"/>
       <use x="127.246094" xlink:href="#DejaVuSans-68"/>
       <use x="190.625" xlink:href="#DejaVuSans-3a"/>
       <use x="224.316406" xlink:href="#DejaVuSans-34"/>
       <use x="287.939453" xlink:href="#DejaVuSans-30"/>
       <use x="351.5625" xlink:href="#DejaVuSans-6d"/>
      </g>
     </g>
    </g>
    <g id="xtick_9">
     <g id="line2d_9">
      <g>
       <use style="stroke:#000000;stroke-width:0.8;" x="529.78565" xlink:href="#m13b036b1cd" y="288.430125"/>
      </g>
     </g>
     <g id="text_9">
      <!-- 15h:35m -->
      <g transform="translate(507.337212 303.028562)scale(0.1 -0.1)">
       <use xlink:href="#DejaVuSans-31"/>
       <use x="63.623047" xlink:href="#DejaVuSans-35"/>
       <use x="127.246094" xlink:href="#DejaVuSans-68"/>
       <use x="190.625" xlink:href="#DejaVuSans-3a"/>
       <use x="224.316406" xlink:href="#DejaVuSans-33"/>
       <use x="287.939453" xlink:href="#DejaVuSans-35"/>
       <use x="351.5625" xlink:href="#DejaVuSans-6d"/>
      </g>
     </g>
    </g>
    <g id="xtick_10">
     <g id="line2d_10">
      <g>
       <use style="stroke:#000000;stroke-width:0.8;" x="584.489346" xlink:href="#m13b036b1cd" y="288.430125"/>
      </g>
     </g>
     <g id="text_10">
      <!-- 17h:30m -->
      <g transform="translate(562.040909 303.028562)scale(0.1 -0.1)">
       <use xlink:href="#DejaVuSans-31"/>
       <use x="63.623047" xlink:href="#DejaVuSans-37"/>
       <use x="127.246094" xlink:href="#DejaVuSans-68"/>
       <use x="190.625" xlink:href="#DejaVuSans-3a"/>
       <use x="224.316406" xlink:href="#DejaVuSans-33"/>
       <use x="287.939453" xlink:href="#DejaVuSans-30"/>
       <use x="351.5625" xlink:href="#DejaVuSans-6d"/>
      </g>
     </g>
    </g>
    <g id="xtick_11">
     <g id="line2d_11">
      <g>
       <use style="stroke:#000000;stroke-width:0.8;" x="639.193043" xlink:href="#m13b036b1cd" y="288.430125"/>
      </g>
     </g>
     <g id="text_11">
      <!-- 19h:25m -->
      <g transform="translate(616.744605 303.028562)scale(0.1 -0.1)">
       <use xlink:href="#DejaVuSans-31"/>
       <use x="63.623047" xlink:href="#DejaVuSans-39"/>
       <use x="127.246094" xlink:href="#DejaVuSans-68"/>
       <use x="190.625" xlink:href="#DejaVuSans-3a"/>
       <use x="224.316406" xlink:href="#DejaVuSans-32"/>
       <use x="287.939453" xlink:href="#DejaVuSans-35"/>
       <use x="351.5625" xlink:href="#DejaVuSans-6d"/>
      </g>
     </g>
    </g>
    <g id="xtick_12">
     <g id="line2d_12">
      <g>
       <use style="stroke:#000000;stroke-width:0.8;" x="693.896739" xlink:href="#m13b036b1cd" y="288.430125"/>
      </g>
     </g>
     <g id="text_12">
      <!-- 21h:20m -->
      <g transform="translate(671.448301 303.028562)scale(0.1 -0.1)">
       <use xlink:href="#DejaVuSans-32"/>
       <use x="63.623047" xlink:href="#DejaVuSans-31"/>
       <use x="127.246094" xlink:href="#DejaVuSans-68"/>
       <use x="190.625" xlink:href="#DejaVuSans-3a"/>
       <use x="224.316406" xlink:href="#DejaVuSans-32"/>
       <use x="287.939453" xlink:href="#DejaVuSans-30"/>
       <use x="351.5625" xlink:href="#DejaVuSans-6d"/>
      </g>
     </g>
    </g>
    <g id="text_13">
     <!-- Time (hour:minute) -->
     <g transform="translate(368.403594 316.706687)scale(0.1 -0.1)">
      <defs>
       <path d="M -19 4666 
L 3928 4666 
L 3928 4134 
L 2272 4134 
L 2272 0 
L 1638 0 
L 1638 4134 
L -19 4134 
L -19 4666 
z
" id="DejaVuSans-54" transform="scale(0.015625)"/>
       <path d="M 603 3500 
L 1178 3500 
L 1178 0 
L 603 0 
L 603 3500 
z
M 603 4863 
L 1178 4863 
L 1178 4134 
L 603 4134 
L 603 4863 
z
" id="DejaVuSans-69" transform="scale(0.015625)"/>
       <path d="M 3597 1894 
L 3597 1613 
L 953 1613 
Q 991 1019 1311 708 
Q 1631 397 2203 397 
Q 2534 397 2845 478 
Q 3156 559 3463 722 
L 3463 178 
Q 3153 47 2828 -22 
Q 2503 -91 2169 -91 
Q 1331 -91 842 396 
Q 353 884 353 1716 
Q 353 2575 817 3079 
Q 1281 3584 2069 3584 
Q 2775 3584 3186 3129 
Q 3597 2675 3597 1894 
z
M 3022 2063 
Q 3016 2534 2758 2815 
Q 2500 3097 2075 3097 
Q 1594 3097 1305 2825 
Q 1016 2553 972 2059 
L 3022 2063 
z
" id="DejaVuSans-65" transform="scale(0.015625)"/>
       <path id="DejaVuSans-20" transform="scale(0.015625)"/>
       <path d="M 1984 4856 
Q 1566 4138 1362 3434 
Q 1159 2731 1159 2009 
Q 1159 1288 1364 580 
Q 1569 -128 1984 -844 
L 1484 -844 
Q 1016 -109 783 600 
Q 550 1309 550 2009 
Q 550 2706 781 3412 
Q 1013 4119 1484 4856 
L 1984 4856 
z
" id="DejaVuSans-28" transform="scale(0.015625)"/>
       <path d="M 1959 3097 
Q 1497 3097 1228 2736 
Q 959 2375 959 1747 
Q 959 1119 1226 758 
Q 1494 397 1959 397 
Q 2419 397 2687 759 
Q 2956 1122 2956 1747 
Q 2956 2369 2687 2733 
Q 2419 3097 1959 3097 
z
M 1959 3584 
Q 2709 3584 3137 3096 
Q 3566 2609 3566 1747 
Q 3566 888 3137 398 
Q 2709 -91 1959 -91 
Q 1206 -91 779 398 
Q 353 888 353 1747 
Q 353 2609 779 3096 
Q 1206 3584 1959 3584 
z
" id="DejaVuSans-6f" transform="scale(0.015625)"/>
       <path d="M 544 1381 
L 544 3500 
L 1119 3500 
L 1119 1403 
Q 1119 906 1312 657 
Q 1506 409 1894 409 
Q 2359 409 2629 706 
Q 2900 1003 2900 1516 
L 2900 3500 
L 3475 3500 
L 3475 0 
L 2900 0 
L 2900 538 
Q 2691 219 2414 64 
Q 2138 -91 1772 -91 
Q 1169 -91 856 284 
Q 544 659 544 1381 
z
M 1991 3584 
L 1991 3584 
z
" id="DejaVuSans-75" transform="scale(0.015625)"/>
       <path d="M 2631 2963 
Q 2534 3019 2420 3045 
Q 2306 3072 2169 3072 
Q 1681 3072 1420 2755 
Q 1159 2438 1159 1844 
L 1159 0 
L 581 0 
L 581 3500 
L 1159 3500 
L 1159 2956 
Q 1341 3275 1631 3429 
Q 1922 3584 2338 3584 
Q 2397 3584 2469 3576 
Q 2541 3569 2628 3553 
L 2631 2963 
z
" id="DejaVuSans-72" transform="scale(0.015625)"/>
       <path d="M 3513 2113 
L 3513 0 
L 2938 0 
L 2938 2094 
Q 2938 2591 2744 2837 
Q 2550 3084 2163 3084 
Q 1697 3084 1428 2787 
Q 1159 2491 1159 1978 
L 1159 0 
L 581 0 
L 581 3500 
L 1159 3500 
L 1159 2956 
Q 1366 3272 1645 3428 
Q 1925 3584 2291 3584 
Q 2894 3584 3203 3211 
Q 3513 2838 3513 2113 
z
" id="DejaVuSans-6e" transform="scale(0.015625)"/>
       <path d="M 1172 4494 
L 1172 3500 
L 2356 3500 
L 2356 3053 
L 1172 3053 
L 1172 1153 
Q 1172 725 1289 603 
Q 1406 481 1766 481 
L 2356 481 
L 2356 0 
L 1766 0 
Q 1100 0 847 248 
Q 594 497 594 1153 
L 594 3053 
L 172 3053 
L 172 3500 
L 594 3500 
L 594 4494 
L 1172 4494 
z
" id="DejaVuSans-74" transform="scale(0.015625)"/>
       <path d="M 513 4856 
L 1013 4856 
Q 1481 4119 1714 3412 
Q 1947 2706 1947 2009 
Q 1947 1309 1714 600 
Q 1481 -109 1013 -844 
L 513 -844 
Q 928 -128 1133 580 
Q 1338 1288 1338 2009 
Q 1338 2731 1133 3434 
Q 928 4138 513 4856 
z
" id="DejaVuSans-29" transform="scale(0.015625)"/>
      </defs>
      <use xlink:href="#DejaVuSans-54"/>
      <use x="57.958984" xlink:href="#DejaVuSans-69"/>
      <use x="85.742188" xlink:href="#DejaVuSans-6d"/>
      <use x="183.154297" xlink:href="#DejaVuSans-65"/>
      <use x="244.677734" xlink:href="#DejaVuSans-20"/>
      <use x="276.464844" xlink:href="#DejaVuSans-28"/>
      <use x="315.478516" xlink:href="#DejaVuSans-68"/>
      <use x="378.857422" xlink:href="#DejaVuSans-6f"/>
      <use x="440.039062" xlink:href="#DejaVuSans-75"/>
      <use x="503.417969" xlink:href="#DejaVuSans-72"/>
      <use x="542.78125" xlink:href="#DejaVuSans-3a"/>
      <use x="576.472656" xlink:href="#DejaVuSans-6d"/>
      <use x="673.884766" xlink:href="#DejaVuSans-69"/>
      <use x="701.667969" xlink:href="#DejaVuSans-6e"/>
      <use x="765.046875" xlink:href="#DejaVuSans-75"/>
      <use x="828.425781" xlink:href="#DejaVuSans-74"/>
      <use x="867.634766" xlink:href="#DejaVuSans-65"/>
      <use x="929.158203" xlink:href="#DejaVuSans-29"/>
     </g>
    </g>
   </g>
   <g id="matplotlib.axis_2">
    <g id="ytick_1">
     <g id="line2d_13">
      <defs>
       <path d="M 0 0 
L -3.5 0 
" id="m396ffd32c5" style="stroke:#000000;stroke-width:0.8;"/>
      </defs>
      <g>
       <use style="stroke:#000000;stroke-width:0.8;" x="59.690625" xlink:href="#m396ffd32c5" y="271.826299"/>
      </g>
     </g>
     <g id="text_14">
      <!-- 13700 -->
      <g transform="translate(20.878125 275.625518)scale(0.1 -0.1)">
       <use xlink:href="#DejaVuSans-31"/>
       <use x="63.623047" xlink:href="#DejaVuSans-33"/>
       <use x="127.246094" xlink:href="#DejaVuSans-37"/>
       <use x="190.869141" xlink:href="#DejaVuSans-30"/>
       <use x="254.492188" xlink:href="#DejaVuSans-30"/>
      </g>
     </g>
    </g>
    <g id="ytick_2">
     <g id="line2d_14">
      <g>
       <use style="stroke:#000000;stroke-width:0.8;" x="59.690625" xlink:href="#m396ffd32c5" y="241.774125"/>
      </g>
     </g>
     <g id="text_15">
      <!-- 13710 -->
      <g transform="translate(20.878125 245.573344)scale(0.1 -0.1)">
       <use xlink:href="#DejaVuSans-31"/>
       <use x="63.623047" xlink:href="#DejaVuSans-33"/>
       <use x="127.246094" xlink:href="#DejaVuSans-37"/>
       <use x="190.869141" xlink:href="#DejaVuSans-31"/>
       <use x="254.492188" xlink:href="#DejaVuSans-30"/>
      </g>
     </g>
    </g>
    <g id="ytick_3">
     <g id="line2d_15">
      <g>
       <use style="stroke:#000000;stroke-width:0.8;" x="59.690625" xlink:href="#m396ffd32c5" y="211.721951"/>
      </g>
     </g>
     <g id="text_16">
      <!-- 13720 -->
      <g transform="translate(20.878125 215.52117)scale(0.1 -0.1)">
       <use xlink:href="#DejaVuSans-31"/>
       <use x="63.623047" xlink:href="#DejaVuSans-33"/>
       <use x="127.246094" xlink:href="#DejaVuSans-37"/>
       <use x="190.869141" xlink:href="#DejaVuSans-32"/>
       <use x="254.492188" xlink:href="#DejaVuSans-30"/>
      </g>
     </g>
    </g>
    <g id="ytick_4">
     <g id="line2d_16">
      <g>
       <use style="stroke:#000000;stroke-width:0.8;" x="59.690625" xlink:href="#m396ffd32c5" y="181.669777"/>
      </g>
     </g>
     <g id="text_17">
      <!-- 13730 -->
      <g transform="translate(20.878125 185.468996)scale(0.1 -0.1)">
       <use xlink:href="#DejaVuSans-31"/>
       <use x="63.623047" xlink:href="#DejaVuSans-33"/>
       <use x="127.246094" xlink:href="#DejaVuSans-37"/>
       <use x="190.869141" xlink:href="#DejaVuSans-33"/>
       <use x="254.492188" xlink:href="#DejaVuSans-30"/>
      </g>
     </g>
    </g>
    <g id="ytick_5">
     <g id="line2d_17">
      <g>
       <use style="stroke:#000000;stroke-width:0.8;" x="59.690625" xlink:href="#m396ffd32c5" y="151.617603"/>
      </g>
     </g>
     <g id="text_18">
      <!-- 13740 -->
      <g transform="translate(20.878125 155.416822)scale(0.1 -0.1)">
       <use xlink:href="#DejaVuSans-31"/>
       <use x="63.623047" xlink:href="#DejaVuSans-33"/>
       <use x="127.246094" xlink:href="#DejaVuSans-37"/>
       <use x="190.869141" xlink:href="#DejaVuSans-34"/>
       <use x="254.492188" xlink:href="#DejaVuSans-30"/>
      </g>
     </g>
    </g>
    <g id="ytick_6">
     <g id="line2d_18">
      <g>
       <use style="stroke:#000000;stroke-width:0.8;" x="59.690625" xlink:href="#m396ffd32c5" y="121.565429"/>
      </g>
     </g>
     <g id="text_19">
      <!-- 13750 -->
      <g transform="translate(20.878125 125.364648)scale(0.1 -0.1)">
       <use xlink:href="#DejaVuSans-31"/>
       <use x="63.623047" xlink:href="#DejaVuSans-33"/>
       <use x="127.246094" xlink:href="#DejaVuSans-37"/>
       <use x="190.869141" xlink:href="#DejaVuSans-35"/>
       <use x="254.492188" xlink:href="#DejaVuSans-30"/>
      </g>
     </g>
    </g>
    <g id="ytick_7">
     <g id="line2d_19">
      <g>
       <use style="stroke:#000000;stroke-width:0.8;" x="59.690625" xlink:href="#m396ffd32c5" y="91.513255"/>
      </g>
     </g>
     <g id="text_20">
      <!-- 13760 -->
      <g transform="translate(20.878125 95.312474)scale(0.1 -0.1)">
       <use xlink:href="#DejaVuSans-31"/>
       <use x="63.623047" xlink:href="#DejaVuSans-33"/>
       <use x="127.246094" xlink:href="#DejaVuSans-37"/>
       <use x="190.869141" xlink:href="#DejaVuSans-36"/>
       <use x="254.492188" xlink:href="#DejaVuSans-30"/>
      </g>
     </g>
    </g>
    <g id="ytick_8">
     <g id="line2d_20">
      <g>
       <use style="stroke:#000000;stroke-width:0.8;" x="59.690625" xlink:href="#m396ffd32c5" y="61.461082"/>
      </g>
     </g>
     <g id="text_21">
      <!-- 13770 -->
      <g transform="translate(20.878125 65.2603)scale(0.1 -0.1)">
       <use xlink:href="#DejaVuSans-31"/>
       <use x="63.623047" xlink:href="#DejaVuSans-33"/>
       <use x="127.246094" xlink:href="#DejaVuSans-37"/>
       <use x="190.869141" xlink:href="#DejaVuSans-37"/>
       <use x="254.492188" xlink:href="#DejaVuSans-30"/>
      </g>
     </g>
    </g>
    <g id="ytick_9">
     <g id="line2d_21">
      <g>
       <use style="stroke:#000000;stroke-width:0.8;" x="59.690625" xlink:href="#m396ffd32c5" y="31.408908"/>
      </g>
     </g>
     <g id="text_22">
      <!-- 13780 -->
      <g transform="translate(20.878125 35.208126)scale(0.1 -0.1)">
       <defs>
        <path d="M 2034 2216 
Q 1584 2216 1326 1975 
Q 1069 1734 1069 1313 
Q 1069 891 1326 650 
Q 1584 409 2034 409 
Q 2484 409 2743 651 
Q 3003 894 3003 1313 
Q 3003 1734 2745 1975 
Q 2488 2216 2034 2216 
z
M 1403 2484 
Q 997 2584 770 2862 
Q 544 3141 544 3541 
Q 544 4100 942 4425 
Q 1341 4750 2034 4750 
Q 2731 4750 3128 4425 
Q 3525 4100 3525 3541 
Q 3525 3141 3298 2862 
Q 3072 2584 2669 2484 
Q 3125 2378 3379 2068 
Q 3634 1759 3634 1313 
Q 3634 634 3220 271 
Q 2806 -91 2034 -91 
Q 1263 -91 848 271 
Q 434 634 434 1313 
Q 434 1759 690 2068 
Q 947 2378 1403 2484 
z
M 1172 3481 
Q 1172 3119 1398 2916 
Q 1625 2713 2034 2713 
Q 2441 2713 2670 2916 
Q 2900 3119 2900 3481 
Q 2900 3844 2670 4047 
Q 2441 4250 2034 4250 
Q 1625 4250 1398 4047 
Q 1172 3844 1172 3481 
z
" id="DejaVuSans-38" transform="scale(0.015625)"/>
       </defs>
       <use xlink:href="#DejaVuSans-31"/>
       <use x="63.623047" xlink:href="#DejaVuSans-33"/>
       <use x="127.246094" xlink:href="#DejaVuSans-37"/>
       <use x="190.869141" xlink:href="#DejaVuSans-38"/>
       <use x="254.492188" xlink:href="#DejaVuSans-30"/>
      </g>
     </g>
    </g>
    <g id="text_23">
     <!-- Code region coverage -->
     <g transform="translate(14.798438 210.379594)rotate(-90)scale(0.1 -0.1)">
      <defs>
       <path d="M 4122 4306 
L 4122 3641 
Q 3803 3938 3442 4084 
Q 3081 4231 2675 4231 
Q 1875 4231 1450 3742 
Q 1025 3253 1025 2328 
Q 1025 1406 1450 917 
Q 1875 428 2675 428 
Q 3081 428 3442 575 
Q 3803 722 4122 1019 
L 4122 359 
Q 3791 134 3420 21 
Q 3050 -91 2638 -91 
Q 1578 -91 968 557 
Q 359 1206 359 2328 
Q 359 3453 968 4101 
Q 1578 4750 2638 4750 
Q 3056 4750 3426 4639 
Q 3797 4528 4122 4306 
z
" id="DejaVuSans-43" transform="scale(0.015625)"/>
       <path d="M 2906 2969 
L 2906 4863 
L 3481 4863 
L 3481 0 
L 2906 0 
L 2906 525 
Q 2725 213 2448 61 
Q 2172 -91 1784 -91 
Q 1150 -91 751 415 
Q 353 922 353 1747 
Q 353 2572 751 3078 
Q 1150 3584 1784 3584 
Q 2172 3584 2448 3432 
Q 2725 3281 2906 2969 
z
M 947 1747 
Q 947 1113 1208 752 
Q 1469 391 1925 391 
Q 2381 391 2643 752 
Q 2906 1113 2906 1747 
Q 2906 2381 2643 2742 
Q 2381 3103 1925 3103 
Q 1469 3103 1208 2742 
Q 947 2381 947 1747 
z
" id="DejaVuSans-64" transform="scale(0.015625)"/>
       <path d="M 2906 1791 
Q 2906 2416 2648 2759 
Q 2391 3103 1925 3103 
Q 1463 3103 1205 2759 
Q 947 2416 947 1791 
Q 947 1169 1205 825 
Q 1463 481 1925 481 
Q 2391 481 2648 825 
Q 2906 1169 2906 1791 
z
M 3481 434 
Q 3481 -459 3084 -895 
Q 2688 -1331 1869 -1331 
Q 1566 -1331 1297 -1286 
Q 1028 -1241 775 -1147 
L 775 -588 
Q 1028 -725 1275 -790 
Q 1522 -856 1778 -856 
Q 2344 -856 2625 -561 
Q 2906 -266 2906 331 
L 2906 616 
Q 2728 306 2450 153 
Q 2172 0 1784 0 
Q 1141 0 747 490 
Q 353 981 353 1791 
Q 353 2603 747 3093 
Q 1141 3584 1784 3584 
Q 2172 3584 2450 3431 
Q 2728 3278 2906 2969 
L 2906 3500 
L 3481 3500 
L 3481 434 
z
" id="DejaVuSans-67" transform="scale(0.015625)"/>
       <path d="M 3122 3366 
L 3122 2828 
Q 2878 2963 2633 3030 
Q 2388 3097 2138 3097 
Q 1578 3097 1268 2742 
Q 959 2388 959 1747 
Q 959 1106 1268 751 
Q 1578 397 2138 397 
Q 2388 397 2633 464 
Q 2878 531 3122 666 
L 3122 134 
Q 2881 22 2623 -34 
Q 2366 -91 2075 -91 
Q 1284 -91 818 406 
Q 353 903 353 1747 
Q 353 2603 823 3093 
Q 1294 3584 2113 3584 
Q 2378 3584 2631 3529 
Q 2884 3475 3122 3366 
z
" id="DejaVuSans-63" transform="scale(0.015625)"/>
       <path d="M 191 3500 
L 800 3500 
L 1894 563 
L 2988 3500 
L 3597 3500 
L 2284 0 
L 1503 0 
L 191 3500 
z
" id="DejaVuSans-76" transform="scale(0.015625)"/>
       <path d="M 2194 1759 
Q 1497 1759 1228 1600 
Q 959 1441 959 1056 
Q 959 750 1161 570 
Q 1363 391 1709 391 
Q 2188 391 2477 730 
Q 2766 1069 2766 1631 
L 2766 1759 
L 2194 1759 
z
M 3341 1997 
L 3341 0 
L 2766 0 
L 2766 531 
Q 2569 213 2275 61 
Q 1981 -91 1556 -91 
Q 1019 -91 701 211 
Q 384 513 384 1019 
Q 384 1609 779 1909 
Q 1175 2209 1959 2209 
L 2766 2209 
L 2766 2266 
Q 2766 2663 2505 2880 
Q 2244 3097 1772 3097 
Q 1472 3097 1187 3025 
Q 903 2953 641 2809 
L 641 3341 
Q 956 3463 1253 3523 
Q 1550 3584 1831 3584 
Q 2591 3584 2966 3190 
Q 3341 2797 3341 1997 
z
" id="DejaVuSans-61" transform="scale(0.015625)"/>
      </defs>
      <use xlink:href="#DejaVuSans-43"/>
      <use x="69.824219" xlink:href="#DejaVuSans-6f"/>
      <use x="131.005859" xlink:href="#DejaVuSans-64"/>
      <use x="194.482422" xlink:href="#DejaVuSans-65"/>
      <use x="256.005859" xlink:href="#DejaVuSans-20"/>
      <use x="287.792969" xlink:href="#DejaVuSans-72"/>
      <use x="326.65625" xlink:href="#DejaVuSans-65"/>
      <use x="388.179688" xlink:href="#DejaVuSans-67"/>
      <use x="451.65625" xlink:href="#DejaVuSans-69"/>
      <use x="479.439453" xlink:href="#DejaVuSans-6f"/>
      <use x="540.621094" xlink:href="#DejaVuSans-6e"/>
      <use x="604" xlink:href="#DejaVuSans-20"/>
      <use x="635.787109" xlink:href="#DejaVuSans-63"/>
      <use x="690.767578" xlink:href="#DejaVuSans-6f"/>
      <use x="751.949219" xlink:href="#DejaVuSans-76"/>
      <use x="811.128906" xlink:href="#DejaVuSans-65"/>
      <use x="872.652344" xlink:href="#DejaVuSans-72"/>
      <use x="913.765625" xlink:href="#DejaVuSans-61"/>
      <use x="975.044922" xlink:href="#DejaVuSans-67"/>
      <use x="1038.521484" xlink:href="#DejaVuSans-65"/>
     </g>
    </g>
   </g>
   <g id="line2d_22">
    <path clip-path="url(#pdb06d48b92)" d="M 92.15608 232.758473 
L 99.291344 211.721951 
L 106.426609 178.66456 
L 113.561874 136.591516 
L 120.697138 120.062821 
L 127.832403 120.062821 
L 134.967668 108.041951 
L 142.102933 94.518473 
L 149.238197 85.502821 
L 156.373462 85.502821 
L 163.508727 76.487168 
L 170.643992 71.979342 
L 177.779256 59.958473 
L 184.914521 56.953255 
L 192.049786 56.953255 
L 199.185051 46.434995 
L 206.320315 46.434995 
L 213.45558 46.434995 
L 220.590845 46.434995 
L 227.72611 46.434995 
L 234.861374 46.434995 
L 241.996639 43.429777 
L 249.131904 40.42456 
L 256.267168 40.42456 
L 263.402433 40.42456 
L 270.537698 40.42456 
L 277.672963 40.42456 
L 284.808227 40.42456 
L 291.943492 40.42456 
L 299.078757 40.42456 
L 306.214022 40.42456 
L 313.349286 40.42456 
L 320.484551 40.42456 
L 327.619816 40.42456 
L 334.755081 40.42456 
L 341.890345 40.42456 
L 349.02561 40.42456 
L 356.160875 40.42456 
L 363.296139 40.42456 
L 370.431404 40.42456 
L 377.566669 40.42456 
L 384.701934 40.42456 
L 391.837198 40.42456 
L 398.972463 40.42456 
L 406.107728 40.42456 
L 413.242993 40.42456 
L 420.378257 40.42456 
L 427.513522 40.42456 
L 434.648787 40.42456 
L 441.784052 40.42456 
L 448.919316 40.42456 
L 456.054581 40.42456 
L 463.189846 40.42456 
L 470.325111 40.42456 
L 477.460375 40.42456 
L 484.59564 40.42456 
L 491.730905 40.42456 
L 498.866169 40.42456 
L 506.001434 40.42456 
L 513.136699 40.42456 
L 520.271964 40.42456 
L 527.407228 40.42456 
L 534.542493 40.42456 
L 541.677758 40.42456 
L 548.813023 40.42456 
L 555.948287 40.42456 
L 563.083552 40.42456 
L 570.218817 40.42456 
L 577.354082 40.42456 
L 584.489346 40.42456 
L 591.624611 38.921951 
L 598.759876 38.921951 
L 605.89514 38.921951 
L 613.030405 38.921951 
L 620.16567 35.916734 
L 627.300935 35.916734 
L 634.436199 35.916734 
L 641.571464 35.916734 
L 648.706729 35.916734 
L 655.841994 35.916734 
L 662.977258 35.916734 
L 670.112523 35.916734 
L 677.247788 35.916734 
L 684.383053 35.916734 
L 691.518317 35.916734 
L 698.653582 35.916734 
L 705.788847 35.916734 
L 712.924112 35.916734 
L 720.059376 35.916734 
L 727.194641 35.916734 
L 734.329906 35.916734 
L 741.46517 35.916734 
" style="fill:none;stroke:#1f77b4;stroke-linecap:square;stroke-width:1.5;"/>
    <defs>
     <path d="M 0 3 
C 0.795609 3 1.55874 2.683901 2.12132 2.12132 
C 2.683901 1.55874 3 0.795609 3 0 
C 3 -0.795609 2.683901 -1.55874 2.12132 -2.12132 
C 1.55874 -2.683901 0.795609 -3 0 -3 
C -0.795609 -3 -1.55874 -2.683901 -2.12132 -2.12132 
C -2.683901 -1.55874 -3 -0.795609 -3 0 
C -3 0.795609 -2.683901 1.55874 -2.12132 2.12132 
C -1.55874 2.683901 -0.795609 3 0 3 
z
" id="m4ecf982e58" style="stroke:#ffffff;stroke-width:0.75;"/>
    </defs>
    <g clip-path="url(#pdb06d48b92)">
     <use style="fill:#1f77b4;stroke:#ffffff;stroke-width:0.75;" x="92.15608" xlink:href="#m4ecf982e58" y="232.758473"/>
     <use style="fill:#1f77b4;stroke:#ffffff;stroke-width:0.75;" x="99.291344" xlink:href="#m4ecf982e58" y="211.721951"/>
     <use style="fill:#1f77b4;stroke:#ffffff;stroke-width:0.75;" x="106.426609" xlink:href="#m4ecf982e58" y="178.66456"/>
     <use style="fill:#1f77b4;stroke:#ffffff;stroke-width:0.75;" x="113.561874" xlink:href="#m4ecf982e58" y="136.591516"/>
     <use style="fill:#1f77b4;stroke:#ffffff;stroke-width:0.75;" x="120.697138" xlink:href="#m4ecf982e58" y="120.062821"/>
     <use style="fill:#1f77b4;stroke:#ffffff;stroke-width:0.75;" x="127.832403" xlink:href="#m4ecf982e58" y="120.062821"/>
     <use style="fill:#1f77b4;stroke:#ffffff;stroke-width:0.75;" x="134.967668" xlink:href="#m4ecf982e58" y="108.041951"/>
     <use style="fill:#1f77b4;stroke:#ffffff;stroke-width:0.75;" x="142.102933" xlink:href="#m4ecf982e58" y="94.518473"/>
     <use style="fill:#1f77b4;stroke:#ffffff;stroke-width:0.75;" x="149.238197" xlink:href="#m4ecf982e58" y="85.502821"/>
     <use style="fill:#1f77b4;stroke:#ffffff;stroke-width:0.75;" x="156.373462" xlink:href="#m4ecf982e58" y="85.502821"/>
     <use style="fill:#1f77b4;stroke:#ffffff;stroke-width:0.75;" x="163.508727" xlink:href="#m4ecf982e58" y="76.487168"/>
     <use style="fill:#1f77b4;stroke:#ffffff;stroke-width:0.75;" x="170.643992" xlink:href="#m4ecf982e58" y="71.979342"/>
     <use style="fill:#1f77b4;stroke:#ffffff;stroke-width:0.75;" x="177.779256" xlink:href="#m4ecf982e58" y="59.958473"/>
     <use style="fill:#1f77b4;stroke:#ffffff;stroke-width:0.75;" x="184.914521" xlink:href="#m4ecf982e58" y="56.953255"/>
     <use style="fill:#1f77b4;stroke:#ffffff;stroke-width:0.75;" x="192.049786" xlink:href="#m4ecf982e58" y="56.953255"/>
     <use style="fill:#1f77b4;stroke:#ffffff;stroke-width:0.75;" x="199.185051" xlink:href="#m4ecf982e58" y="46.434995"/>
     <use style="fill:#1f77b4;stroke:#ffffff;stroke-width:0.75;" x="206.320315" xlink:href="#m4ecf982e58" y="46.434995"/>
     <use style="fill:#1f77b4;stroke:#ffffff;stroke-width:0.75;" x="213.45558" xlink:href="#m4ecf982e58" y="46.434995"/>
     <use style="fill:#1f77b4;stroke:#ffffff;stroke-width:0.75;" x="220.590845" xlink:href="#m4ecf982e58" y="46.434995"/>
     <use style="fill:#1f77b4;stroke:#ffffff;stroke-width:0.75;" x="227.72611" xlink:href="#m4ecf982e58" y="46.434995"/>
     <use style="fill:#1f77b4;stroke:#ffffff;stroke-width:0.75;" x="234.861374" xlink:href="#m4ecf982e58" y="46.434995"/>
     <use style="fill:#1f77b4;stroke:#ffffff;stroke-width:0.75;" x="241.996639" xlink:href="#m4ecf982e58" y="43.429777"/>
     <use style="fill:#1f77b4;stroke:#ffffff;stroke-width:0.75;" x="249.131904" xlink:href="#m4ecf982e58" y="40.42456"/>
     <use style="fill:#1f77b4;stroke:#ffffff;stroke-width:0.75;" x="256.267168" xlink:href="#m4ecf982e58" y="40.42456"/>
     <use style="fill:#1f77b4;stroke:#ffffff;stroke-width:0.75;" x="263.402433" xlink:href="#m4ecf982e58" y="40.42456"/>
     <use style="fill:#1f77b4;stroke:#ffffff;stroke-width:0.75;" x="270.537698" xlink:href="#m4ecf982e58" y="40.42456"/>
     <use style="fill:#1f77b4;stroke:#ffffff;stroke-width:0.75;" x="277.672963" xlink:href="#m4ecf982e58" y="40.42456"/>
     <use style="fill:#1f77b4;stroke:#ffffff;stroke-width:0.75;" x="284.808227" xlink:href="#m4ecf982e58" y="40.42456"/>
     <use style="fill:#1f77b4;stroke:#ffffff;stroke-width:0.75;" x="291.943492" xlink:href="#m4ecf982e58" y="40.42456"/>
     <use style="fill:#1f77b4;stroke:#ffffff;stroke-width:0.75;" x="299.078757" xlink:href="#m4ecf982e58" y="40.42456"/>
     <use style="fill:#1f77b4;stroke:#ffffff;stroke-width:0.75;" x="306.214022" xlink:href="#m4ecf982e58" y="40.42456"/>
     <use style="fill:#1f77b4;stroke:#ffffff;stroke-width:0.75;" x="313.349286" xlink:href="#m4ecf982e58" y="40.42456"/>
     <use style="fill:#1f77b4;stroke:#ffffff;stroke-width:0.75;" x="320.484551" xlink:href="#m4ecf982e58" y="40.42456"/>
     <use style="fill:#1f77b4;stroke:#ffffff;stroke-width:0.75;" x="327.619816" xlink:href="#m4ecf982e58" y="40.42456"/>
     <use style="fill:#1f77b4;stroke:#ffffff;stroke-width:0.75;" x="334.755081" xlink:href="#m4ecf982e58" y="40.42456"/>
     <use style="fill:#1f77b4;stroke:#ffffff;stroke-width:0.75;" x="341.890345" xlink:href="#m4ecf982e58" y="40.42456"/>
     <use style="fill:#1f77b4;stroke:#ffffff;stroke-width:0.75;" x="349.02561" xlink:href="#m4ecf982e58" y="40.42456"/>
     <use style="fill:#1f77b4;stroke:#ffffff;stroke-width:0.75;" x="356.160875" xlink:href="#m4ecf982e58" y="40.42456"/>
     <use style="fill:#1f77b4;stroke:#ffffff;stroke-width:0.75;" x="363.296139" xlink:href="#m4ecf982e58" y="40.42456"/>
     <use style="fill:#1f77b4;stroke:#ffffff;stroke-width:0.75;" x="370.431404" xlink:href="#m4ecf982e58" y="40.42456"/>
     <use style="fill:#1f77b4;stroke:#ffffff;stroke-width:0.75;" x="377.566669" xlink:href="#m4ecf982e58" y="40.42456"/>
     <use style="fill:#1f77b4;stroke:#ffffff;stroke-width:0.75;" x="384.701934" xlink:href="#m4ecf982e58" y="40.42456"/>
     <use style="fill:#1f77b4;stroke:#ffffff;stroke-width:0.75;" x="391.837198" xlink:href="#m4ecf982e58" y="40.42456"/>
     <use style="fill:#1f77b4;stroke:#ffffff;stroke-width:0.75;" x="398.972463" xlink:href="#m4ecf982e58" y="40.42456"/>
     <use style="fill:#1f77b4;stroke:#ffffff;stroke-width:0.75;" x="406.107728" xlink:href="#m4ecf982e58" y="40.42456"/>
     <use style="fill:#1f77b4;stroke:#ffffff;stroke-width:0.75;" x="413.242993" xlink:href="#m4ecf982e58" y="40.42456"/>
     <use style="fill:#1f77b4;stroke:#ffffff;stroke-width:0.75;" x="420.378257" xlink:href="#m4ecf982e58" y="40.42456"/>
     <use style="fill:#1f77b4;stroke:#ffffff;stroke-width:0.75;" x="427.513522" xlink:href="#m4ecf982e58" y="40.42456"/>
     <use style="fill:#1f77b4;stroke:#ffffff;stroke-width:0.75;" x="434.648787" xlink:href="#m4ecf982e58" y="40.42456"/>
     <use style="fill:#1f77b4;stroke:#ffffff;stroke-width:0.75;" x="441.784052" xlink:href="#m4ecf982e58" y="40.42456"/>
     <use style="fill:#1f77b4;stroke:#ffffff;stroke-width:0.75;" x="448.919316" xlink:href="#m4ecf982e58" y="40.42456"/>
     <use style="fill:#1f77b4;stroke:#ffffff;stroke-width:0.75;" x="456.054581" xlink:href="#m4ecf982e58" y="40.42456"/>
     <use style="fill:#1f77b4;stroke:#ffffff;stroke-width:0.75;" x="463.189846" xlink:href="#m4ecf982e58" y="40.42456"/>
     <use style="fill:#1f77b4;stroke:#ffffff;stroke-width:0.75;" x="470.325111" xlink:href="#m4ecf982e58" y="40.42456"/>
     <use style="fill:#1f77b4;stroke:#ffffff;stroke-width:0.75;" x="477.460375" xlink:href="#m4ecf982e58" y="40.42456"/>
     <use style="fill:#1f77b4;stroke:#ffffff;stroke-width:0.75;" x="484.59564" xlink:href="#m4ecf982e58" y="40.42456"/>
     <use style="fill:#1f77b4;stroke:#ffffff;stroke-width:0.75;" x="491.730905" xlink:href="#m4ecf982e58" y="40.42456"/>
     <use style="fill:#1f77b4;stroke:#ffffff;stroke-width:0.75;" x="498.866169" xlink:href="#m4ecf982e58" y="40.42456"/>
     <use style="fill:#1f77b4;stroke:#ffffff;stroke-width:0.75;" x="506.001434" xlink:href="#m4ecf982e58" y="40.42456"/>
     <use style="fill:#1f77b4;stroke:#ffffff;stroke-width:0.75;" x="513.136699" xlink:href="#m4ecf982e58" y="40.42456"/>
     <use style="fill:#1f77b4;stroke:#ffffff;stroke-width:0.75;" x="520.271964" xlink:href="#m4ecf982e58" y="40.42456"/>
     <use style="fill:#1f77b4;stroke:#ffffff;stroke-width:0.75;" x="527.407228" xlink:href="#m4ecf982e58" y="40.42456"/>
     <use style="fill:#1f77b4;stroke:#ffffff;stroke-width:0.75;" x="534.542493" xlink:href="#m4ecf982e58" y="40.42456"/>
     <use style="fill:#1f77b4;stroke:#ffffff;stroke-width:0.75;" x="541.677758" xlink:href="#m4ecf982e58" y="40.42456"/>
     <use style="fill:#1f77b4;stroke:#ffffff;stroke-width:0.75;" x="548.813023" xlink:href="#m4ecf982e58" y="40.42456"/>
     <use style="fill:#1f77b4;stroke:#ffffff;stroke-width:0.75;" x="555.948287" xlink:href="#m4ecf982e58" y="40.42456"/>
     <use style="fill:#1f77b4;stroke:#ffffff;stroke-width:0.75;" x="563.083552" xlink:href="#m4ecf982e58" y="40.42456"/>
     <use style="fill:#1f77b4;stroke:#ffffff;stroke-width:0.75;" x="570.218817" xlink:href="#m4ecf982e58" y="40.42456"/>
     <use style="fill:#1f77b4;stroke:#ffffff;stroke-width:0.75;" x="577.354082" xlink:href="#m4ecf982e58" y="40.42456"/>
     <use style="fill:#1f77b4;stroke:#ffffff;stroke-width:0.75;" x="584.489346" xlink:href="#m4ecf982e58" y="40.42456"/>
     <use style="fill:#1f77b4;stroke:#ffffff;stroke-width:0.75;" x="591.624611" xlink:href="#m4ecf982e58" y="38.921951"/>
     <use style="fill:#1f77b4;stroke:#ffffff;stroke-width:0.75;" x="598.759876" xlink:href="#m4ecf982e58" y="38.921951"/>
     <use style="fill:#1f77b4;stroke:#ffffff;stroke-width:0.75;" x="605.89514" xlink:href="#m4ecf982e58" y="38.921951"/>
     <use style="fill:#1f77b4;stroke:#ffffff;stroke-width:0.75;" x="613.030405" xlink:href="#m4ecf982e58" y="38.921951"/>
     <use style="fill:#1f77b4;stroke:#ffffff;stroke-width:0.75;" x="620.16567" xlink:href="#m4ecf982e58" y="35.916734"/>
     <use style="fill:#1f77b4;stroke:#ffffff;stroke-width:0.75;" x="627.300935" xlink:href="#m4ecf982e58" y="35.916734"/>
     <use style="fill:#1f77b4;stroke:#ffffff;stroke-width:0.75;" x="634.436199" xlink:href="#m4ecf982e58" y="35.916734"/>
     <use style="fill:#1f77b4;stroke:#ffffff;stroke-width:0.75;" x="641.571464" xlink:href="#m4ecf982e58" y="35.916734"/>
     <use style="fill:#1f77b4;stroke:#ffffff;stroke-width:0.75;" x="648.706729" xlink:href="#m4ecf982e58" y="35.916734"/>
     <use style="fill:#1f77b4;stroke:#ffffff;stroke-width:0.75;" x="655.841994" xlink:href="#m4ecf982e58" y="35.916734"/>
     <use style="fill:#1f77b4;stroke:#ffffff;stroke-width:0.75;" x="662.977258" xlink:href="#m4ecf982e58" y="35.916734"/>
     <use style="fill:#1f77b4;stroke:#ffffff;stroke-width:0.75;" x="670.112523" xlink:href="#m4ecf982e58" y="35.916734"/>
     <use style="fill:#1f77b4;stroke:#ffffff;stroke-width:0.75;" x="677.247788" xlink:href="#m4ecf982e58" y="35.916734"/>
     <use style="fill:#1f77b4;stroke:#ffffff;stroke-width:0.75;" x="684.383053" xlink:href="#m4ecf982e58" y="35.916734"/>
     <use style="fill:#1f77b4;stroke:#ffffff;stroke-width:0.75;" x="691.518317" xlink:href="#m4ecf982e58" y="35.916734"/>
     <use style="fill:#1f77b4;stroke:#ffffff;stroke-width:0.75;" x="698.653582" xlink:href="#m4ecf982e58" y="35.916734"/>
     <use style="fill:#1f77b4;stroke:#ffffff;stroke-width:0.75;" x="705.788847" xlink:href="#m4ecf982e58" y="35.916734"/>
     <use style="fill:#1f77b4;stroke:#ffffff;stroke-width:0.75;" x="712.924112" xlink:href="#m4ecf982e58" y="35.916734"/>
     <use style="fill:#1f77b4;stroke:#ffffff;stroke-width:0.75;" x="720.059376" xlink:href="#m4ecf982e58" y="35.916734"/>
     <use style="fill:#1f77b4;stroke:#ffffff;stroke-width:0.75;" x="727.194641" xlink:href="#m4ecf982e58" y="35.916734"/>
     <use style="fill:#1f77b4;stroke:#ffffff;stroke-width:0.75;" x="734.329906" xlink:href="#m4ecf982e58" y="35.916734"/>
     <use style="fill:#1f77b4;stroke:#ffffff;stroke-width:0.75;" x="741.46517" xlink:href="#m4ecf982e58" y="35.916734"/>
    </g>
   </g>
   <g id="line2d_23">
    <path clip-path="url(#pdb06d48b92)" d="M 92.15608 250.789777 
L 99.291344 232.758473 
L 106.426609 196.695864 
L 113.561874 190.685429 
L 120.697138 187.680212 
L 127.832403 178.66456 
L 134.967668 178.66456 
L 142.102933 144.10456 
L 149.238197 121.565429 
L 156.373462 120.062821 
L 163.508727 118.560212 
L 170.643992 115.554995 
L 177.779256 115.554995 
L 184.914521 108.041951 
L 192.049786 100.528908 
L 199.185051 100.528908 
L 206.320315 94.518473 
L 213.45558 94.518473 
L 220.590845 94.518473 
L 227.72611 85.502821 
L 234.861374 71.979342 
L 241.996639 68.974125 
L 249.131904 67.471516 
L 256.267168 56.953255 
L 263.402433 46.434995 
L 270.537698 46.434995 
L 277.672963 46.434995 
L 284.808227 46.434995 
L 291.943492 46.434995 
L 299.078757 46.434995 
L 306.214022 46.434995 
L 313.349286 46.434995 
L 320.484551 46.434995 
L 327.619816 46.434995 
L 334.755081 46.434995 
L 341.890345 46.434995 
L 349.02561 46.434995 
L 356.160875 46.434995 
L 363.296139 46.434995 
L 370.431404 46.434995 
L 377.566669 46.434995 
L 384.701934 43.429777 
L 391.837198 43.429777 
L 398.972463 43.429777 
L 406.107728 43.429777 
L 413.242993 43.429777 
L 420.378257 43.429777 
L 427.513522 43.429777 
L 434.648787 40.42456 
L 441.784052 40.42456 
L 448.919316 40.42456 
L 456.054581 40.42456 
L 463.189846 40.42456 
L 470.325111 40.42456 
L 477.460375 40.42456 
L 484.59564 40.42456 
L 491.730905 40.42456 
L 498.866169 40.42456 
L 506.001434 40.42456 
L 513.136699 40.42456 
L 520.271964 40.42456 
L 527.407228 40.42456 
L 534.542493 40.42456 
L 541.677758 40.42456 
L 548.813023 40.42456 
L 555.948287 40.42456 
L 563.083552 40.42456 
L 570.218817 40.42456 
L 577.354082 40.42456 
L 584.489346 40.42456 
L 591.624611 40.42456 
L 598.759876 40.42456 
L 605.89514 40.42456 
L 613.030405 40.42456 
L 620.16567 40.42456 
L 627.300935 40.42456 
L 634.436199 40.42456 
L 641.571464 40.42456 
L 648.706729 40.42456 
L 655.841994 40.42456 
L 662.977258 40.42456 
L 670.112523 40.42456 
L 677.247788 40.42456 
L 684.383053 40.42456 
L 691.518317 40.42456 
L 698.653582 40.42456 
L 705.788847 40.42456 
L 712.924112 40.42456 
L 720.059376 40.42456 
L 727.194641 40.42456 
L 734.329906 40.42456 
L 741.46517 40.42456 
" style="fill:none;stroke:#d62728;stroke-linecap:square;stroke-width:1.5;"/>
    <defs>
     <path d="M 0 -3 
L -3 3 
L 3 3 
z
" id="mc722738e23" style="stroke:#ffffff;stroke-linejoin:miter;stroke-width:0.75;"/>
    </defs>
    <g clip-path="url(#pdb06d48b92)">
     <use style="fill:#d62728;stroke:#ffffff;stroke-linejoin:miter;stroke-width:0.75;" x="92.15608" xlink:href="#mc722738e23" y="250.789777"/>
     <use style="fill:#d62728;stroke:#ffffff;stroke-linejoin:miter;stroke-width:0.75;" x="99.291344" xlink:href="#mc722738e23" y="232.758473"/>
     <use style="fill:#d62728;stroke:#ffffff;stroke-linejoin:miter;stroke-width:0.75;" x="106.426609" xlink:href="#mc722738e23" y="196.695864"/>
     <use style="fill:#d62728;stroke:#ffffff;stroke-linejoin:miter;stroke-width:0.75;" x="113.561874" xlink:href="#mc722738e23" y="190.685429"/>
     <use style="fill:#d62728;stroke:#ffffff;stroke-linejoin:miter;stroke-width:0.75;" x="120.697138" xlink:href="#mc722738e23" y="187.680212"/>
     <use style="fill:#d62728;stroke:#ffffff;stroke-linejoin:miter;stroke-width:0.75;" x="127.832403" xlink:href="#mc722738e23" y="178.66456"/>
     <use style="fill:#d62728;stroke:#ffffff;stroke-linejoin:miter;stroke-width:0.75;" x="134.967668" xlink:href="#mc722738e23" y="178.66456"/>
     <use style="fill:#d62728;stroke:#ffffff;stroke-linejoin:miter;stroke-width:0.75;" x="142.102933" xlink:href="#mc722738e23" y="144.10456"/>
     <use style="fill:#d62728;stroke:#ffffff;stroke-linejoin:miter;stroke-width:0.75;" x="149.238197" xlink:href="#mc722738e23" y="121.565429"/>
     <use style="fill:#d62728;stroke:#ffffff;stroke-linejoin:miter;stroke-width:0.75;" x="156.373462" xlink:href="#mc722738e23" y="120.062821"/>
     <use style="fill:#d62728;stroke:#ffffff;stroke-linejoin:miter;stroke-width:0.75;" x="163.508727" xlink:href="#mc722738e23" y="118.560212"/>
     <use style="fill:#d62728;stroke:#ffffff;stroke-linejoin:miter;stroke-width:0.75;" x="170.643992" xlink:href="#mc722738e23" y="115.554995"/>
     <use style="fill:#d62728;stroke:#ffffff;stroke-linejoin:miter;stroke-width:0.75;" x="177.779256" xlink:href="#mc722738e23" y="115.554995"/>
     <use style="fill:#d62728;stroke:#ffffff;stroke-linejoin:miter;stroke-width:0.75;" x="184.914521" xlink:href="#mc722738e23" y="108.041951"/>
     <use style="fill:#d62728;stroke:#ffffff;stroke-linejoin:miter;stroke-width:0.75;" x="192.049786" xlink:href="#mc722738e23" y="100.528908"/>
     <use style="fill:#d62728;stroke:#ffffff;stroke-linejoin:miter;stroke-width:0.75;" x="199.185051" xlink:href="#mc722738e23" y="100.528908"/>
     <use style="fill:#d62728;stroke:#ffffff;stroke-linejoin:miter;stroke-width:0.75;" x="206.320315" xlink:href="#mc722738e23" y="94.518473"/>
     <use style="fill:#d62728;stroke:#ffffff;stroke-linejoin:miter;stroke-width:0.75;" x="213.45558" xlink:href="#mc722738e23" y="94.518473"/>
     <use style="fill:#d62728;stroke:#ffffff;stroke-linejoin:miter;stroke-width:0.75;" x="220.590845" xlink:href="#mc722738e23" y="94.518473"/>
     <use style="fill:#d62728;stroke:#ffffff;stroke-linejoin:miter;stroke-width:0.75;" x="227.72611" xlink:href="#mc722738e23" y="85.502821"/>
     <use style="fill:#d62728;stroke:#ffffff;stroke-linejoin:miter;stroke-width:0.75;" x="234.861374" xlink:href="#mc722738e23" y="71.979342"/>
     <use style="fill:#d62728;stroke:#ffffff;stroke-linejoin:miter;stroke-width:0.75;" x="241.996639" xlink:href="#mc722738e23" y="68.974125"/>
     <use style="fill:#d62728;stroke:#ffffff;stroke-linejoin:miter;stroke-width:0.75;" x="249.131904" xlink:href="#mc722738e23" y="67.471516"/>
     <use style="fill:#d62728;stroke:#ffffff;stroke-linejoin:miter;stroke-width:0.75;" x="256.267168" xlink:href="#mc722738e23" y="56.953255"/>
     <use style="fill:#d62728;stroke:#ffffff;stroke-linejoin:miter;stroke-width:0.75;" x="263.402433" xlink:href="#mc722738e23" y="46.434995"/>
     <use style="fill:#d62728;stroke:#ffffff;stroke-linejoin:miter;stroke-width:0.75;" x="270.537698" xlink:href="#mc722738e23" y="46.434995"/>
     <use style="fill:#d62728;stroke:#ffffff;stroke-linejoin:miter;stroke-width:0.75;" x="277.672963" xlink:href="#mc722738e23" y="46.434995"/>
     <use style="fill:#d62728;stroke:#ffffff;stroke-linejoin:miter;stroke-width:0.75;" x="284.808227" xlink:href="#mc722738e23" y="46.434995"/>
     <use style="fill:#d62728;stroke:#ffffff;stroke-linejoin:miter;stroke-width:0.75;" x="291.943492" xlink:href="#mc722738e23" y="46.434995"/>
     <use style="fill:#d62728;stroke:#ffffff;stroke-linejoin:miter;stroke-width:0.75;" x="299.078757" xlink:href="#mc722738e23" y="46.434995"/>
     <use style="fill:#d62728;stroke:#ffffff;stroke-linejoin:miter;stroke-width:0.75;" x="306.214022" xlink:href="#mc722738e23" y="46.434995"/>
     <use style="fill:#d62728;stroke:#ffffff;stroke-linejoin:miter;stroke-width:0.75;" x="313.349286" xlink:href="#mc722738e23" y="46.434995"/>
     <use style="fill:#d62728;stroke:#ffffff;stroke-linejoin:miter;stroke-width:0.75;" x="320.484551" xlink:href="#mc722738e23" y="46.434995"/>
     <use style="fill:#d62728;stroke:#ffffff;stroke-linejoin:miter;stroke-width:0.75;" x="327.619816" xlink:href="#mc722738e23" y="46.434995"/>
     <use style="fill:#d62728;stroke:#ffffff;stroke-linejoin:miter;stroke-width:0.75;" x="334.755081" xlink:href="#mc722738e23" y="46.434995"/>
     <use style="fill:#d62728;stroke:#ffffff;stroke-linejoin:miter;stroke-width:0.75;" x="341.890345" xlink:href="#mc722738e23" y="46.434995"/>
     <use style="fill:#d62728;stroke:#ffffff;stroke-linejoin:miter;stroke-width:0.75;" x="349.02561" xlink:href="#mc722738e23" y="46.434995"/>
     <use style="fill:#d62728;stroke:#ffffff;stroke-linejoin:miter;stroke-width:0.75;" x="356.160875" xlink:href="#mc722738e23" y="46.434995"/>
     <use style="fill:#d62728;stroke:#ffffff;stroke-linejoin:miter;stroke-width:0.75;" x="363.296139" xlink:href="#mc722738e23" y="46.434995"/>
     <use style="fill:#d62728;stroke:#ffffff;stroke-linejoin:miter;stroke-width:0.75;" x="370.431404" xlink:href="#mc722738e23" y="46.434995"/>
     <use style="fill:#d62728;stroke:#ffffff;stroke-linejoin:miter;stroke-width:0.75;" x="377.566669" xlink:href="#mc722738e23" y="46.434995"/>
     <use style="fill:#d62728;stroke:#ffffff;stroke-linejoin:miter;stroke-width:0.75;" x="384.701934" xlink:href="#mc722738e23" y="43.429777"/>
     <use style="fill:#d62728;stroke:#ffffff;stroke-linejoin:miter;stroke-width:0.75;" x="391.837198" xlink:href="#mc722738e23" y="43.429777"/>
     <use style="fill:#d62728;stroke:#ffffff;stroke-linejoin:miter;stroke-width:0.75;" x="398.972463" xlink:href="#mc722738e23" y="43.429777"/>
     <use style="fill:#d62728;stroke:#ffffff;stroke-linejoin:miter;stroke-width:0.75;" x="406.107728" xlink:href="#mc722738e23" y="43.429777"/>
     <use style="fill:#d62728;stroke:#ffffff;stroke-linejoin:miter;stroke-width:0.75;" x="413.242993" xlink:href="#mc722738e23" y="43.429777"/>
     <use style="fill:#d62728;stroke:#ffffff;stroke-linejoin:miter;stroke-width:0.75;" x="420.378257" xlink:href="#mc722738e23" y="43.429777"/>
     <use style="fill:#d62728;stroke:#ffffff;stroke-linejoin:miter;stroke-width:0.75;" x="427.513522" xlink:href="#mc722738e23" y="43.429777"/>
     <use style="fill:#d62728;stroke:#ffffff;stroke-linejoin:miter;stroke-width:0.75;" x="434.648787" xlink:href="#mc722738e23" y="40.42456"/>
     <use style="fill:#d62728;stroke:#ffffff;stroke-linejoin:miter;stroke-width:0.75;" x="441.784052" xlink:href="#mc722738e23" y="40.42456"/>
     <use style="fill:#d62728;stroke:#ffffff;stroke-linejoin:miter;stroke-width:0.75;" x="448.919316" xlink:href="#mc722738e23" y="40.42456"/>
     <use style="fill:#d62728;stroke:#ffffff;stroke-linejoin:miter;stroke-width:0.75;" x="456.054581" xlink:href="#mc722738e23" y="40.42456"/>
     <use style="fill:#d62728;stroke:#ffffff;stroke-linejoin:miter;stroke-width:0.75;" x="463.189846" xlink:href="#mc722738e23" y="40.42456"/>
     <use style="fill:#d62728;stroke:#ffffff;stroke-linejoin:miter;stroke-width:0.75;" x="470.325111" xlink:href="#mc722738e23" y="40.42456"/>
     <use style="fill:#d62728;stroke:#ffffff;stroke-linejoin:miter;stroke-width:0.75;" x="477.460375" xlink:href="#mc722738e23" y="40.42456"/>
     <use style="fill:#d62728;stroke:#ffffff;stroke-linejoin:miter;stroke-width:0.75;" x="484.59564" xlink:href="#mc722738e23" y="40.42456"/>
     <use style="fill:#d62728;stroke:#ffffff;stroke-linejoin:miter;stroke-width:0.75;" x="491.730905" xlink:href="#mc722738e23" y="40.42456"/>
     <use style="fill:#d62728;stroke:#ffffff;stroke-linejoin:miter;stroke-width:0.75;" x="498.866169" xlink:href="#mc722738e23" y="40.42456"/>
     <use style="fill:#d62728;stroke:#ffffff;stroke-linejoin:miter;stroke-width:0.75;" x="506.001434" xlink:href="#mc722738e23" y="40.42456"/>
     <use style="fill:#d62728;stroke:#ffffff;stroke-linejoin:miter;stroke-width:0.75;" x="513.136699" xlink:href="#mc722738e23" y="40.42456"/>
     <use style="fill:#d62728;stroke:#ffffff;stroke-linejoin:miter;stroke-width:0.75;" x="520.271964" xlink:href="#mc722738e23" y="40.42456"/>
     <use style="fill:#d62728;stroke:#ffffff;stroke-linejoin:miter;stroke-width:0.75;" x="527.407228" xlink:href="#mc722738e23" y="40.42456"/>
     <use style="fill:#d62728;stroke:#ffffff;stroke-linejoin:miter;stroke-width:0.75;" x="534.542493" xlink:href="#mc722738e23" y="40.42456"/>
     <use style="fill:#d62728;stroke:#ffffff;stroke-linejoin:miter;stroke-width:0.75;" x="541.677758" xlink:href="#mc722738e23" y="40.42456"/>
     <use style="fill:#d62728;stroke:#ffffff;stroke-linejoin:miter;stroke-width:0.75;" x="548.813023" xlink:href="#mc722738e23" y="40.42456"/>
     <use style="fill:#d62728;stroke:#ffffff;stroke-linejoin:miter;stroke-width:0.75;" x="555.948287" xlink:href="#mc722738e23" y="40.42456"/>
     <use style="fill:#d62728;stroke:#ffffff;stroke-linejoin:miter;stroke-width:0.75;" x="563.083552" xlink:href="#mc722738e23" y="40.42456"/>
     <use style="fill:#d62728;stroke:#ffffff;stroke-linejoin:miter;stroke-width:0.75;" x="570.218817" xlink:href="#mc722738e23" y="40.42456"/>
     <use style="fill:#d62728;stroke:#ffffff;stroke-linejoin:miter;stroke-width:0.75;" x="577.354082" xlink:href="#mc722738e23" y="40.42456"/>
     <use style="fill:#d62728;stroke:#ffffff;stroke-linejoin:miter;stroke-width:0.75;" x="584.489346" xlink:href="#mc722738e23" y="40.42456"/>
     <use style="fill:#d62728;stroke:#ffffff;stroke-linejoin:miter;stroke-width:0.75;" x="591.624611" xlink:href="#mc722738e23" y="40.42456"/>
     <use style="fill:#d62728;stroke:#ffffff;stroke-linejoin:miter;stroke-width:0.75;" x="598.759876" xlink:href="#mc722738e23" y="40.42456"/>
     <use style="fill:#d62728;stroke:#ffffff;stroke-linejoin:miter;stroke-width:0.75;" x="605.89514" xlink:href="#mc722738e23" y="40.42456"/>
     <use style="fill:#d62728;stroke:#ffffff;stroke-linejoin:miter;stroke-width:0.75;" x="613.030405" xlink:href="#mc722738e23" y="40.42456"/>
     <use style="fill:#d62728;stroke:#ffffff;stroke-linejoin:miter;stroke-width:0.75;" x="620.16567" xlink:href="#mc722738e23" y="40.42456"/>
     <use style="fill:#d62728;stroke:#ffffff;stroke-linejoin:miter;stroke-width:0.75;" x="627.300935" xlink:href="#mc722738e23" y="40.42456"/>
     <use style="fill:#d62728;stroke:#ffffff;stroke-linejoin:miter;stroke-width:0.75;" x="634.436199" xlink:href="#mc722738e23" y="40.42456"/>
     <use style="fill:#d62728;stroke:#ffffff;stroke-linejoin:miter;stroke-width:0.75;" x="641.571464" xlink:href="#mc722738e23" y="40.42456"/>
     <use style="fill:#d62728;stroke:#ffffff;stroke-linejoin:miter;stroke-width:0.75;" x="648.706729" xlink:href="#mc722738e23" y="40.42456"/>
     <use style="fill:#d62728;stroke:#ffffff;stroke-linejoin:miter;stroke-width:0.75;" x="655.841994" xlink:href="#mc722738e23" y="40.42456"/>
     <use style="fill:#d62728;stroke:#ffffff;stroke-linejoin:miter;stroke-width:0.75;" x="662.977258" xlink:href="#mc722738e23" y="40.42456"/>
     <use style="fill:#d62728;stroke:#ffffff;stroke-linejoin:miter;stroke-width:0.75;" x="670.112523" xlink:href="#mc722738e23" y="40.42456"/>
     <use style="fill:#d62728;stroke:#ffffff;stroke-linejoin:miter;stroke-width:0.75;" x="677.247788" xlink:href="#mc722738e23" y="40.42456"/>
     <use style="fill:#d62728;stroke:#ffffff;stroke-linejoin:miter;stroke-width:0.75;" x="684.383053" xlink:href="#mc722738e23" y="40.42456"/>
     <use style="fill:#d62728;stroke:#ffffff;stroke-linejoin:miter;stroke-width:0.75;" x="691.518317" xlink:href="#mc722738e23" y="40.42456"/>
     <use style="fill:#d62728;stroke:#ffffff;stroke-linejoin:miter;stroke-width:0.75;" x="698.653582" xlink:href="#mc722738e23" y="40.42456"/>
     <use style="fill:#d62728;stroke:#ffffff;stroke-linejoin:miter;stroke-width:0.75;" x="705.788847" xlink:href="#mc722738e23" y="40.42456"/>
     <use style="fill:#d62728;stroke:#ffffff;stroke-linejoin:miter;stroke-width:0.75;" x="712.924112" xlink:href="#mc722738e23" y="40.42456"/>
     <use style="fill:#d62728;stroke:#ffffff;stroke-linejoin:miter;stroke-width:0.75;" x="720.059376" xlink:href="#mc722738e23" y="40.42456"/>
     <use style="fill:#d62728;stroke:#ffffff;stroke-linejoin:miter;stroke-width:0.75;" x="727.194641" xlink:href="#mc722738e23" y="40.42456"/>
     <use style="fill:#d62728;stroke:#ffffff;stroke-linejoin:miter;stroke-width:0.75;" x="734.329906" xlink:href="#mc722738e23" y="40.42456"/>
     <use style="fill:#d62728;stroke:#ffffff;stroke-linejoin:miter;stroke-width:0.75;" x="741.46517" xlink:href="#mc722738e23" y="40.42456"/>
    </g>
   </g>
   <g id="line2d_24">
    <path clip-path="url(#pdb06d48b92)" d="M 92.15608 243.276734 
L 99.291344 204.208908 
L 106.426609 196.695864 
L 113.561874 175.659342 
L 120.697138 175.659342 
L 127.832403 172.654125 
L 134.967668 172.654125 
L 142.102933 160.633255 
L 149.238197 157.628038 
L 156.373462 148.612386 
L 163.508727 145.607168 
L 170.643992 139.596734 
L 177.779256 129.078473 
L 184.914521 121.565429 
L 192.049786 118.560212 
L 199.185051 115.554995 
L 206.320315 115.554995 
L 213.45558 115.554995 
L 220.590845 108.041951 
L 227.72611 102.031516 
L 234.861374 97.52369 
L 241.996639 94.518473 
L 249.131904 94.518473 
L 256.267168 94.518473 
L 263.402433 84.000212 
L 270.537698 73.481951 
L 277.672963 73.481951 
L 284.808227 71.979342 
L 291.943492 67.471516 
L 299.078757 58.455864 
L 306.214022 52.445429 
L 313.349286 52.445429 
L 320.484551 46.434995 
L 327.619816 46.434995 
L 334.755081 46.434995 
L 341.890345 46.434995 
L 349.02561 46.434995 
L 356.160875 46.434995 
L 363.296139 46.434995 
L 370.431404 46.434995 
L 377.566669 46.434995 
L 384.701934 46.434995 
L 391.837198 46.434995 
L 398.972463 46.434995 
L 406.107728 46.434995 
L 413.242993 46.434995 
L 420.378257 46.434995 
L 427.513522 46.434995 
L 434.648787 46.434995 
L 441.784052 46.434995 
L 448.919316 46.434995 
L 456.054581 46.434995 
L 463.189846 46.434995 
L 470.325111 46.434995 
L 477.460375 46.434995 
L 484.59564 46.434995 
L 491.730905 46.434995 
L 498.866169 46.434995 
L 506.001434 46.434995 
L 513.136699 46.434995 
L 520.271964 46.434995 
L 527.407228 46.434995 
L 534.542493 46.434995 
L 541.677758 46.434995 
L 548.813023 46.434995 
L 555.948287 46.434995 
L 563.083552 46.434995 
L 570.218817 46.434995 
L 577.354082 46.434995 
L 584.489346 46.434995 
L 591.624611 46.434995 
L 598.759876 46.434995 
L 605.89514 46.434995 
L 613.030405 43.429777 
L 620.16567 43.429777 
L 627.300935 43.429777 
L 634.436199 43.429777 
L 641.571464 43.429777 
L 648.706729 40.42456 
L 655.841994 40.42456 
L 662.977258 40.42456 
L 670.112523 40.42456 
L 677.247788 40.42456 
L 684.383053 40.42456 
L 691.518317 40.42456 
L 698.653582 40.42456 
L 705.788847 40.42456 
L 712.924112 40.42456 
L 720.059376 40.42456 
L 727.194641 40.42456 
L 734.329906 40.42456 
L 741.46517 40.42456 
" style="fill:none;stroke:#98df8a;stroke-linecap:square;stroke-width:1.5;"/>
    <defs>
     <path d="M -0 3 
L 3 -3 
L -3 -3 
z
" id="mdaee6b9d2f" style="stroke:#ffffff;stroke-linejoin:miter;stroke-width:0.75;"/>
    </defs>
    <g clip-path="url(#pdb06d48b92)">
     <use style="fill:#98df8a;stroke:#ffffff;stroke-linejoin:miter;stroke-width:0.75;" x="92.15608" xlink:href="#mdaee6b9d2f" y="243.276734"/>
     <use style="fill:#98df8a;stroke:#ffffff;stroke-linejoin:miter;stroke-width:0.75;" x="99.291344" xlink:href="#mdaee6b9d2f" y="204.208908"/>
     <use style="fill:#98df8a;stroke:#ffffff;stroke-linejoin:miter;stroke-width:0.75;" x="106.426609" xlink:href="#mdaee6b9d2f" y="196.695864"/>
     <use style="fill:#98df8a;stroke:#ffffff;stroke-linejoin:miter;stroke-width:0.75;" x="113.561874" xlink:href="#mdaee6b9d2f" y="175.659342"/>
     <use style="fill:#98df8a;stroke:#ffffff;stroke-linejoin:miter;stroke-width:0.75;" x="120.697138" xlink:href="#mdaee6b9d2f" y="175.659342"/>
     <use style="fill:#98df8a;stroke:#ffffff;stroke-linejoin:miter;stroke-width:0.75;" x="127.832403" xlink:href="#mdaee6b9d2f" y="172.654125"/>
     <use style="fill:#98df8a;stroke:#ffffff;stroke-linejoin:miter;stroke-width:0.75;" x="134.967668" xlink:href="#mdaee6b9d2f" y="172.654125"/>
     <use style="fill:#98df8a;stroke:#ffffff;stroke-linejoin:miter;stroke-width:0.75;" x="142.102933" xlink:href="#mdaee6b9d2f" y="160.633255"/>
     <use style="fill:#98df8a;stroke:#ffffff;stroke-linejoin:miter;stroke-width:0.75;" x="149.238197" xlink:href="#mdaee6b9d2f" y="157.628038"/>
     <use style="fill:#98df8a;stroke:#ffffff;stroke-linejoin:miter;stroke-width:0.75;" x="156.373462" xlink:href="#mdaee6b9d2f" y="148.612386"/>
     <use style="fill:#98df8a;stroke:#ffffff;stroke-linejoin:miter;stroke-width:0.75;" x="163.508727" xlink:href="#mdaee6b9d2f" y="145.607168"/>
     <use style="fill:#98df8a;stroke:#ffffff;stroke-linejoin:miter;stroke-width:0.75;" x="170.643992" xlink:href="#mdaee6b9d2f" y="139.596734"/>
     <use style="fill:#98df8a;stroke:#ffffff;stroke-linejoin:miter;stroke-width:0.75;" x="177.779256" xlink:href="#mdaee6b9d2f" y="129.078473"/>
     <use style="fill:#98df8a;stroke:#ffffff;stroke-linejoin:miter;stroke-width:0.75;" x="184.914521" xlink:href="#mdaee6b9d2f" y="121.565429"/>
     <use style="fill:#98df8a;stroke:#ffffff;stroke-linejoin:miter;stroke-width:0.75;" x="192.049786" xlink:href="#mdaee6b9d2f" y="118.560212"/>
     <use style="fill:#98df8a;stroke:#ffffff;stroke-linejoin:miter;stroke-width:0.75;" x="199.185051" xlink:href="#mdaee6b9d2f" y="115.554995"/>
     <use style="fill:#98df8a;stroke:#ffffff;stroke-linejoin:miter;stroke-width:0.75;" x="206.320315" xlink:href="#mdaee6b9d2f" y="115.554995"/>
     <use style="fill:#98df8a;stroke:#ffffff;stroke-linejoin:miter;stroke-width:0.75;" x="213.45558" xlink:href="#mdaee6b9d2f" y="115.554995"/>
     <use style="fill:#98df8a;stroke:#ffffff;stroke-linejoin:miter;stroke-width:0.75;" x="220.590845" xlink:href="#mdaee6b9d2f" y="108.041951"/>
     <use style="fill:#98df8a;stroke:#ffffff;stroke-linejoin:miter;stroke-width:0.75;" x="227.72611" xlink:href="#mdaee6b9d2f" y="102.031516"/>
     <use style="fill:#98df8a;stroke:#ffffff;stroke-linejoin:miter;stroke-width:0.75;" x="234.861374" xlink:href="#mdaee6b9d2f" y="97.52369"/>
     <use style="fill:#98df8a;stroke:#ffffff;stroke-linejoin:miter;stroke-width:0.75;" x="241.996639" xlink:href="#mdaee6b9d2f" y="94.518473"/>
     <use style="fill:#98df8a;stroke:#ffffff;stroke-linejoin:miter;stroke-width:0.75;" x="249.131904" xlink:href="#mdaee6b9d2f" y="94.518473"/>
     <use style="fill:#98df8a;stroke:#ffffff;stroke-linejoin:miter;stroke-width:0.75;" x="256.267168" xlink:href="#mdaee6b9d2f" y="94.518473"/>
     <use style="fill:#98df8a;stroke:#ffffff;stroke-linejoin:miter;stroke-width:0.75;" x="263.402433" xlink:href="#mdaee6b9d2f" y="84.000212"/>
     <use style="fill:#98df8a;stroke:#ffffff;stroke-linejoin:miter;stroke-width:0.75;" x="270.537698" xlink:href="#mdaee6b9d2f" y="73.481951"/>
     <use style="fill:#98df8a;stroke:#ffffff;stroke-linejoin:miter;stroke-width:0.75;" x="277.672963" xlink:href="#mdaee6b9d2f" y="73.481951"/>
     <use style="fill:#98df8a;stroke:#ffffff;stroke-linejoin:miter;stroke-width:0.75;" x="284.808227" xlink:href="#mdaee6b9d2f" y="71.979342"/>
     <use style="fill:#98df8a;stroke:#ffffff;stroke-linejoin:miter;stroke-width:0.75;" x="291.943492" xlink:href="#mdaee6b9d2f" y="67.471516"/>
     <use style="fill:#98df8a;stroke:#ffffff;stroke-linejoin:miter;stroke-width:0.75;" x="299.078757" xlink:href="#mdaee6b9d2f" y="58.455864"/>
     <use style="fill:#98df8a;stroke:#ffffff;stroke-linejoin:miter;stroke-width:0.75;" x="306.214022" xlink:href="#mdaee6b9d2f" y="52.445429"/>
     <use style="fill:#98df8a;stroke:#ffffff;stroke-linejoin:miter;stroke-width:0.75;" x="313.349286" xlink:href="#mdaee6b9d2f" y="52.445429"/>
     <use style="fill:#98df8a;stroke:#ffffff;stroke-linejoin:miter;stroke-width:0.75;" x="320.484551" xlink:href="#mdaee6b9d2f" y="46.434995"/>
     <use style="fill:#98df8a;stroke:#ffffff;stroke-linejoin:miter;stroke-width:0.75;" x="327.619816" xlink:href="#mdaee6b9d2f" y="46.434995"/>
     <use style="fill:#98df8a;stroke:#ffffff;stroke-linejoin:miter;stroke-width:0.75;" x="334.755081" xlink:href="#mdaee6b9d2f" y="46.434995"/>
     <use style="fill:#98df8a;stroke:#ffffff;stroke-linejoin:miter;stroke-width:0.75;" x="341.890345" xlink:href="#mdaee6b9d2f" y="46.434995"/>
     <use style="fill:#98df8a;stroke:#ffffff;stroke-linejoin:miter;stroke-width:0.75;" x="349.02561" xlink:href="#mdaee6b9d2f" y="46.434995"/>
     <use style="fill:#98df8a;stroke:#ffffff;stroke-linejoin:miter;stroke-width:0.75;" x="356.160875" xlink:href="#mdaee6b9d2f" y="46.434995"/>
     <use style="fill:#98df8a;stroke:#ffffff;stroke-linejoin:miter;stroke-width:0.75;" x="363.296139" xlink:href="#mdaee6b9d2f" y="46.434995"/>
     <use style="fill:#98df8a;stroke:#ffffff;stroke-linejoin:miter;stroke-width:0.75;" x="370.431404" xlink:href="#mdaee6b9d2f" y="46.434995"/>
     <use style="fill:#98df8a;stroke:#ffffff;stroke-linejoin:miter;stroke-width:0.75;" x="377.566669" xlink:href="#mdaee6b9d2f" y="46.434995"/>
     <use style="fill:#98df8a;stroke:#ffffff;stroke-linejoin:miter;stroke-width:0.75;" x="384.701934" xlink:href="#mdaee6b9d2f" y="46.434995"/>
     <use style="fill:#98df8a;stroke:#ffffff;stroke-linejoin:miter;stroke-width:0.75;" x="391.837198" xlink:href="#mdaee6b9d2f" y="46.434995"/>
     <use style="fill:#98df8a;stroke:#ffffff;stroke-linejoin:miter;stroke-width:0.75;" x="398.972463" xlink:href="#mdaee6b9d2f" y="46.434995"/>
     <use style="fill:#98df8a;stroke:#ffffff;stroke-linejoin:miter;stroke-width:0.75;" x="406.107728" xlink:href="#mdaee6b9d2f" y="46.434995"/>
     <use style="fill:#98df8a;stroke:#ffffff;stroke-linejoin:miter;stroke-width:0.75;" x="413.242993" xlink:href="#mdaee6b9d2f" y="46.434995"/>
     <use style="fill:#98df8a;stroke:#ffffff;stroke-linejoin:miter;stroke-width:0.75;" x="420.378257" xlink:href="#mdaee6b9d2f" y="46.434995"/>
     <use style="fill:#98df8a;stroke:#ffffff;stroke-linejoin:miter;stroke-width:0.75;" x="427.513522" xlink:href="#mdaee6b9d2f" y="46.434995"/>
     <use style="fill:#98df8a;stroke:#ffffff;stroke-linejoin:miter;stroke-width:0.75;" x="434.648787" xlink:href="#mdaee6b9d2f" y="46.434995"/>
     <use style="fill:#98df8a;stroke:#ffffff;stroke-linejoin:miter;stroke-width:0.75;" x="441.784052" xlink:href="#mdaee6b9d2f" y="46.434995"/>
     <use style="fill:#98df8a;stroke:#ffffff;stroke-linejoin:miter;stroke-width:0.75;" x="448.919316" xlink:href="#mdaee6b9d2f" y="46.434995"/>
     <use style="fill:#98df8a;stroke:#ffffff;stroke-linejoin:miter;stroke-width:0.75;" x="456.054581" xlink:href="#mdaee6b9d2f" y="46.434995"/>
     <use style="fill:#98df8a;stroke:#ffffff;stroke-linejoin:miter;stroke-width:0.75;" x="463.189846" xlink:href="#mdaee6b9d2f" y="46.434995"/>
     <use style="fill:#98df8a;stroke:#ffffff;stroke-linejoin:miter;stroke-width:0.75;" x="470.325111" xlink:href="#mdaee6b9d2f" y="46.434995"/>
     <use style="fill:#98df8a;stroke:#ffffff;stroke-linejoin:miter;stroke-width:0.75;" x="477.460375" xlink:href="#mdaee6b9d2f" y="46.434995"/>
     <use style="fill:#98df8a;stroke:#ffffff;stroke-linejoin:miter;stroke-width:0.75;" x="484.59564" xlink:href="#mdaee6b9d2f" y="46.434995"/>
     <use style="fill:#98df8a;stroke:#ffffff;stroke-linejoin:miter;stroke-width:0.75;" x="491.730905" xlink:href="#mdaee6b9d2f" y="46.434995"/>
     <use style="fill:#98df8a;stroke:#ffffff;stroke-linejoin:miter;stroke-width:0.75;" x="498.866169" xlink:href="#mdaee6b9d2f" y="46.434995"/>
     <use style="fill:#98df8a;stroke:#ffffff;stroke-linejoin:miter;stroke-width:0.75;" x="506.001434" xlink:href="#mdaee6b9d2f" y="46.434995"/>
     <use style="fill:#98df8a;stroke:#ffffff;stroke-linejoin:miter;stroke-width:0.75;" x="513.136699" xlink:href="#mdaee6b9d2f" y="46.434995"/>
     <use style="fill:#98df8a;stroke:#ffffff;stroke-linejoin:miter;stroke-width:0.75;" x="520.271964" xlink:href="#mdaee6b9d2f" y="46.434995"/>
     <use style="fill:#98df8a;stroke:#ffffff;stroke-linejoin:miter;stroke-width:0.75;" x="527.407228" xlink:href="#mdaee6b9d2f" y="46.434995"/>
     <use style="fill:#98df8a;stroke:#ffffff;stroke-linejoin:miter;stroke-width:0.75;" x="534.542493" xlink:href="#mdaee6b9d2f" y="46.434995"/>
     <use style="fill:#98df8a;stroke:#ffffff;stroke-linejoin:miter;stroke-width:0.75;" x="541.677758" xlink:href="#mdaee6b9d2f" y="46.434995"/>
     <use style="fill:#98df8a;stroke:#ffffff;stroke-linejoin:miter;stroke-width:0.75;" x="548.813023" xlink:href="#mdaee6b9d2f" y="46.434995"/>
     <use style="fill:#98df8a;stroke:#ffffff;stroke-linejoin:miter;stroke-width:0.75;" x="555.948287" xlink:href="#mdaee6b9d2f" y="46.434995"/>
     <use style="fill:#98df8a;stroke:#ffffff;stroke-linejoin:miter;stroke-width:0.75;" x="563.083552" xlink:href="#mdaee6b9d2f" y="46.434995"/>
     <use style="fill:#98df8a;stroke:#ffffff;stroke-linejoin:miter;stroke-width:0.75;" x="570.218817" xlink:href="#mdaee6b9d2f" y="46.434995"/>
     <use style="fill:#98df8a;stroke:#ffffff;stroke-linejoin:miter;stroke-width:0.75;" x="577.354082" xlink:href="#mdaee6b9d2f" y="46.434995"/>
     <use style="fill:#98df8a;stroke:#ffffff;stroke-linejoin:miter;stroke-width:0.75;" x="584.489346" xlink:href="#mdaee6b9d2f" y="46.434995"/>
     <use style="fill:#98df8a;stroke:#ffffff;stroke-linejoin:miter;stroke-width:0.75;" x="591.624611" xlink:href="#mdaee6b9d2f" y="46.434995"/>
     <use style="fill:#98df8a;stroke:#ffffff;stroke-linejoin:miter;stroke-width:0.75;" x="598.759876" xlink:href="#mdaee6b9d2f" y="46.434995"/>
     <use style="fill:#98df8a;stroke:#ffffff;stroke-linejoin:miter;stroke-width:0.75;" x="605.89514" xlink:href="#mdaee6b9d2f" y="46.434995"/>
     <use style="fill:#98df8a;stroke:#ffffff;stroke-linejoin:miter;stroke-width:0.75;" x="613.030405" xlink:href="#mdaee6b9d2f" y="43.429777"/>
     <use style="fill:#98df8a;stroke:#ffffff;stroke-linejoin:miter;stroke-width:0.75;" x="620.16567" xlink:href="#mdaee6b9d2f" y="43.429777"/>
     <use style="fill:#98df8a;stroke:#ffffff;stroke-linejoin:miter;stroke-width:0.75;" x="627.300935" xlink:href="#mdaee6b9d2f" y="43.429777"/>
     <use style="fill:#98df8a;stroke:#ffffff;stroke-linejoin:miter;stroke-width:0.75;" x="634.436199" xlink:href="#mdaee6b9d2f" y="43.429777"/>
     <use style="fill:#98df8a;stroke:#ffffff;stroke-linejoin:miter;stroke-width:0.75;" x="641.571464" xlink:href="#mdaee6b9d2f" y="43.429777"/>
     <use style="fill:#98df8a;stroke:#ffffff;stroke-linejoin:miter;stroke-width:0.75;" x="648.706729" xlink:href="#mdaee6b9d2f" y="40.42456"/>
     <use style="fill:#98df8a;stroke:#ffffff;stroke-linejoin:miter;stroke-width:0.75;" x="655.841994" xlink:href="#mdaee6b9d2f" y="40.42456"/>
     <use style="fill:#98df8a;stroke:#ffffff;stroke-linejoin:miter;stroke-width:0.75;" x="662.977258" xlink:href="#mdaee6b9d2f" y="40.42456"/>
     <use style="fill:#98df8a;stroke:#ffffff;stroke-linejoin:miter;stroke-width:0.75;" x="670.112523" xlink:href="#mdaee6b9d2f" y="40.42456"/>
     <use style="fill:#98df8a;stroke:#ffffff;stroke-linejoin:miter;stroke-width:0.75;" x="677.247788" xlink:href="#mdaee6b9d2f" y="40.42456"/>
     <use style="fill:#98df8a;stroke:#ffffff;stroke-linejoin:miter;stroke-width:0.75;" x="684.383053" xlink:href="#mdaee6b9d2f" y="40.42456"/>
     <use style="fill:#98df8a;stroke:#ffffff;stroke-linejoin:miter;stroke-width:0.75;" x="691.518317" xlink:href="#mdaee6b9d2f" y="40.42456"/>
     <use style="fill:#98df8a;stroke:#ffffff;stroke-linejoin:miter;stroke-width:0.75;" x="698.653582" xlink:href="#mdaee6b9d2f" y="40.42456"/>
     <use style="fill:#98df8a;stroke:#ffffff;stroke-linejoin:miter;stroke-width:0.75;" x="705.788847" xlink:href="#mdaee6b9d2f" y="40.42456"/>
     <use style="fill:#98df8a;stroke:#ffffff;stroke-linejoin:miter;stroke-width:0.75;" x="712.924112" xlink:href="#mdaee6b9d2f" y="40.42456"/>
     <use style="fill:#98df8a;stroke:#ffffff;stroke-linejoin:miter;stroke-width:0.75;" x="720.059376" xlink:href="#mdaee6b9d2f" y="40.42456"/>
     <use style="fill:#98df8a;stroke:#ffffff;stroke-linejoin:miter;stroke-width:0.75;" x="727.194641" xlink:href="#mdaee6b9d2f" y="40.42456"/>
     <use style="fill:#98df8a;stroke:#ffffff;stroke-linejoin:miter;stroke-width:0.75;" x="734.329906" xlink:href="#mdaee6b9d2f" y="40.42456"/>
     <use style="fill:#98df8a;stroke:#ffffff;stroke-linejoin:miter;stroke-width:0.75;" x="741.46517" xlink:href="#mdaee6b9d2f" y="40.42456"/>
    </g>
   </g>
   <g id="line2d_25"/>
   <g id="line2d_26"/>
   <g id="line2d_27"/>
   <g id="line2d_28">
    <path clip-path="url(#pdb06d48b92)" d="M 741.46517 288.430125 
L 741.46517 22.318125 
" style="fill:none;stroke:#ff0000;stroke-linecap:square;stroke-width:1.5;"/>
   </g>
   <g id="patch_3">
    <path d="M 59.690625 271.826299 
L 59.690625 31.408908 
" style="fill:none;stroke:#000000;stroke-linecap:square;stroke-linejoin:miter;stroke-width:0.8;"/>
   </g>
   <g id="patch_4">
    <path d="M 92.15608 288.430125 
L 693.896739 288.430125 
" style="fill:none;stroke:#000000;stroke-linecap:square;stroke-linejoin:miter;stroke-width:0.8;"/>
   </g>
   <g id="text_24">
    <!-- openssl_x509 (23h, 20 trials/fuzzer) -->
    <g transform="translate(309.184687 16.318125)scale(0.12 -0.12)">
     <defs>
      <path d="M 1159 525 
L 1159 -1331 
L 581 -1331 
L 581 3500 
L 1159 3500 
L 1159 2969 
Q 1341 3281 1617 3432 
Q 1894 3584 2278 3584 
Q 2916 3584 3314 3078 
Q 3713 2572 3713 1747 
Q 3713 922 3314 415 
Q 2916 -91 2278 -91 
Q 1894 -91 1617 61 
Q 1341 213 1159 525 
z
M 3116 1747 
Q 3116 2381 2855 2742 
Q 2594 3103 2138 3103 
Q 1681 3103 1420 2742 
Q 1159 2381 1159 1747 
Q 1159 1113 1420 752 
Q 1681 391 2138 391 
Q 2594 391 2855 752 
Q 3116 1113 3116 1747 
z
" id="DejaVuSans-70" transform="scale(0.015625)"/>
      <path d="M 2834 3397 
L 2834 2853 
Q 2591 2978 2328 3040 
Q 2066 3103 1784 3103 
Q 1356 3103 1142 2972 
Q 928 2841 928 2578 
Q 928 2378 1081 2264 
Q 1234 2150 1697 2047 
L 1894 2003 
Q 2506 1872 2764 1633 
Q 3022 1394 3022 966 
Q 3022 478 2636 193 
Q 2250 -91 1575 -91 
Q 1294 -91 989 -36 
Q 684 19 347 128 
L 347 722 
Q 666 556 975 473 
Q 1284 391 1588 391 
Q 1994 391 2212 530 
Q 2431 669 2431 922 
Q 2431 1156 2273 1281 
Q 2116 1406 1581 1522 
L 1381 1569 
Q 847 1681 609 1914 
Q 372 2147 372 2553 
Q 372 3047 722 3315 
Q 1072 3584 1716 3584 
Q 2034 3584 2315 3537 
Q 2597 3491 2834 3397 
z
" id="DejaVuSans-73" transform="scale(0.015625)"/>
      <path d="M 603 4863 
L 1178 4863 
L 1178 0 
L 603 0 
L 603 4863 
z
" id="DejaVuSans-6c" transform="scale(0.015625)"/>
      <path d="M 3263 -1063 
L 3263 -1509 
L -63 -1509 
L -63 -1063 
L 3263 -1063 
z
" id="DejaVuSans-5f" transform="scale(0.015625)"/>
      <path d="M 3513 3500 
L 2247 1797 
L 3578 0 
L 2900 0 
L 1881 1375 
L 863 0 
L 184 0 
L 1544 1831 
L 300 3500 
L 978 3500 
L 1906 2253 
L 2834 3500 
L 3513 3500 
z
" id="DejaVuSans-78" transform="scale(0.015625)"/>
      <path d="M 750 794 
L 1409 794 
L 1409 256 
L 897 -744 
L 494 -744 
L 750 256 
L 750 794 
z
" id="DejaVuSans-2c" transform="scale(0.015625)"/>
      <path d="M 1625 4666 
L 2156 4666 
L 531 -594 
L 0 -594 
L 1625 4666 
z
" id="DejaVuSans-2f" transform="scale(0.015625)"/>
      <path d="M 2375 4863 
L 2375 4384 
L 1825 4384 
Q 1516 4384 1395 4259 
Q 1275 4134 1275 3809 
L 1275 3500 
L 2222 3500 
L 2222 3053 
L 1275 3053 
L 1275 0 
L 697 0 
L 697 3053 
L 147 3053 
L 147 3500 
L 697 3500 
L 697 3744 
Q 697 4328 969 4595 
Q 1241 4863 1831 4863 
L 2375 4863 
z
" id="DejaVuSans-66" transform="scale(0.015625)"/>
      <path d="M 353 3500 
L 3084 3500 
L 3084 2975 
L 922 459 
L 3084 459 
L 3084 0 
L 275 0 
L 275 525 
L 2438 3041 
L 353 3041 
L 353 3500 
z
" id="DejaVuSans-7a" transform="scale(0.015625)"/>
     </defs>
     <use xlink:href="#DejaVuSans-6f"/>
     <use x="61.181641" xlink:href="#DejaVuSans-70"/>
     <use x="124.658203" xlink:href="#DejaVuSans-65"/>
     <use x="186.181641" xlink:href="#DejaVuSans-6e"/>
     <use x="249.560547" xlink:href="#DejaVuSans-73"/>
     <use x="301.660156" xlink:href="#DejaVuSans-73"/>
     <use x="353.759766" xlink:href="#DejaVuSans-6c"/>
     <use x="381.542969" xlink:href="#DejaVuSans-5f"/>
     <use x="431.542969" xlink:href="#DejaVuSans-78"/>
     <use x="490.722656" xlink:href="#DejaVuSans-35"/>
     <use x="554.345703" xlink:href="#DejaVuSans-30"/>
     <use x="617.96875" xlink:href="#DejaVuSans-39"/>
     <use x="681.591797" xlink:href="#DejaVuSans-20"/>
     <use x="713.378906" xlink:href="#DejaVuSans-28"/>
     <use x="752.392578" xlink:href="#DejaVuSans-32"/>
     <use x="816.015625" xlink:href="#DejaVuSans-33"/>
     <use x="879.638672" xlink:href="#DejaVuSans-68"/>
     <use x="943.017578" xlink:href="#DejaVuSans-2c"/>
     <use x="974.804688" xlink:href="#DejaVuSans-20"/>
     <use x="1006.591797" xlink:href="#DejaVuSans-32"/>
     <use x="1070.214844" xlink:href="#DejaVuSans-30"/>
     <use x="1133.837891" xlink:href="#DejaVuSans-20"/>
     <use x="1165.625" xlink:href="#DejaVuSans-74"/>
     <use x="1204.833984" xlink:href="#DejaVuSans-72"/>
     <use x="1245.947266" xlink:href="#DejaVuSans-69"/>
     <use x="1273.730469" xlink:href="#DejaVuSans-61"/>
     <use x="1335.009766" xlink:href="#DejaVuSans-6c"/>
     <use x="1362.792969" xlink:href="#DejaVuSans-73"/>
     <use x="1414.892578" xlink:href="#DejaVuSans-2f"/>
     <use x="1448.583984" xlink:href="#DejaVuSans-66"/>
     <use x="1483.789062" xlink:href="#DejaVuSans-75"/>
     <use x="1547.167969" xlink:href="#DejaVuSans-7a"/>
     <use x="1599.658203" xlink:href="#DejaVuSans-7a"/>
     <use x="1652.148438" xlink:href="#DejaVuSans-65"/>
     <use x="1713.671875" xlink:href="#DejaVuSans-72"/>
     <use x="1754.785156" xlink:href="#DejaVuSans-29"/>
    </g>
   </g>
   <g id="legend_1">
    <g id="line2d_29">
     <path d="M 777.930625 30.416562 
L 797.930625 30.416562 
" style="fill:none;stroke:#1f77b4;stroke-linecap:square;stroke-width:1.5;"/>
    </g>
    <g id="line2d_30">
     <defs>
      <path d="M 0 3 
C 0.795609 3 1.55874 2.683901 2.12132 2.12132 
C 2.683901 1.55874 3 0.795609 3 0 
C 3 -0.795609 2.683901 -1.55874 2.12132 -2.12132 
C 1.55874 -2.683901 0.795609 -3 0 -3 
C -0.795609 -3 -1.55874 -2.683901 -2.12132 -2.12132 
C -2.683901 -1.55874 -3 -0.795609 -3 0 
C -3 0.795609 -2.683901 1.55874 -2.12132 2.12132 
C -1.55874 2.683901 -0.795609 3 0 3 
z
" id="m820cc65658" style="stroke:#1f77b4;"/>
     </defs>
     <g>
      <use style="fill:#1f77b4;stroke:#1f77b4;" x="787.930625" xlink:href="#m820cc65658" y="30.416562"/>
     </g>
    </g>
    <g id="text_25">
     <!-- afl_2_52_b -->
     <g transform="translate(805.930625 33.916562)scale(0.1 -0.1)">
      <defs>
       <path d="M 3116 1747 
Q 3116 2381 2855 2742 
Q 2594 3103 2138 3103 
Q 1681 3103 1420 2742 
Q 1159 2381 1159 1747 
Q 1159 1113 1420 752 
Q 1681 391 2138 391 
Q 2594 391 2855 752 
Q 3116 1113 3116 1747 
z
M 1159 2969 
Q 1341 3281 1617 3432 
Q 1894 3584 2278 3584 
Q 2916 3584 3314 3078 
Q 3713 2572 3713 1747 
Q 3713 922 3314 415 
Q 2916 -91 2278 -91 
Q 1894 -91 1617 61 
Q 1341 213 1159 525 
L 1159 0 
L 581 0 
L 581 4863 
L 1159 4863 
L 1159 2969 
z
" id="DejaVuSans-62" transform="scale(0.015625)"/>
      </defs>
      <use xlink:href="#DejaVuSans-61"/>
      <use x="61.279297" xlink:href="#DejaVuSans-66"/>
      <use x="96.484375" xlink:href="#DejaVuSans-6c"/>
      <use x="124.267578" xlink:href="#DejaVuSans-5f"/>
      <use x="174.267578" xlink:href="#DejaVuSans-32"/>
      <use x="237.890625" xlink:href="#DejaVuSans-5f"/>
      <use x="287.890625" xlink:href="#DejaVuSans-35"/>
      <use x="351.513672" xlink:href="#DejaVuSans-32"/>
      <use x="415.136719" xlink:href="#DejaVuSans-5f"/>
      <use x="465.136719" xlink:href="#DejaVuSans-62"/>
     </g>
    </g>
    <g id="line2d_31">
     <path d="M 777.930625 45.372813 
L 797.930625 45.372813 
" style="fill:none;stroke:#d62728;stroke-linecap:square;stroke-width:1.5;"/>
    </g>
    <g id="line2d_32">
     <defs>
      <path d="M 0 -3 
L -3 3 
L 3 3 
z
" id="m38e828f99d" style="stroke:#d62728;stroke-linejoin:miter;"/>
     </defs>
     <g>
      <use style="fill:#d62728;stroke:#d62728;stroke-linejoin:miter;" x="787.930625" xlink:href="#m38e828f99d" y="45.372813"/>
     </g>
    </g>
    <g id="text_26">
     <!-- mopt -->
     <g transform="translate(805.930625 48.872813)scale(0.1 -0.1)">
      <use xlink:href="#DejaVuSans-6d"/>
      <use x="97.412109" xlink:href="#DejaVuSans-6f"/>
      <use x="158.59375" xlink:href="#DejaVuSans-70"/>
      <use x="222.070312" xlink:href="#DejaVuSans-74"/>
     </g>
    </g>
    <g id="line2d_33">
     <path d="M 777.930625 60.050937 
L 797.930625 60.050937 
" style="fill:none;stroke:#98df8a;stroke-linecap:square;stroke-width:1.5;"/>
    </g>
    <g id="line2d_34">
     <defs>
      <path d="M -0 3 
L 3 -3 
L -3 -3 
z
" id="mdb51b4cb98" style="stroke:#98df8a;stroke-linejoin:miter;"/>
     </defs>
     <g>
      <use style="fill:#98df8a;stroke:#98df8a;stroke-linejoin:miter;" x="787.930625" xlink:href="#mdb51b4cb98" y="60.050937"/>
     </g>
    </g>
    <g id="text_27">
     <!-- fafuzz -->
     <g transform="translate(805.930625 63.550937)scale(0.1 -0.1)">
      <use xlink:href="#DejaVuSans-66"/>
      <use x="35.205078" xlink:href="#DejaVuSans-61"/>
      <use x="96.484375" xlink:href="#DejaVuSans-66"/>
      <use x="131.689453" xlink:href="#DejaVuSans-75"/>
      <use x="195.068359" xlink:href="#DejaVuSans-7a"/>
      <use x="247.558594" xlink:href="#DejaVuSans-7a"/>
     </g>
    </g>
   </g>
  </g>
 </g>
 <defs>
  <clipPath id="pdb06d48b92">
   <rect height="266.112" width="714.24" x="59.690625" y="22.318125"/>
  </clipPath>
 </defs>
</svg>
