<?xml version="1.0" encoding="utf-8" standalone="no"?>
<!DOCTYPE svg PUBLIC "-//W3C//DTD SVG 1.1//EN"
  "http://www.w3.org/Graphics/SVG/1.1/DTD/svg11.dtd">
<svg height="325.986375pt" version="1.1" viewBox="0 0 869.993125 325.986375" width="869.993125pt" xmlns="http://www.w3.org/2000/svg" xmlns:xlink="http://www.w3.org/1999/xlink">
 <metadata>
  <rdf:RDF xmlns:cc="http://creativecommons.org/ns#" xmlns:dc="http://purl.org/dc/elements/1.1/" xmlns:rdf="http://www.w3.org/1999/02/22-rdf-syntax-ns#">
   <cc:Work>
    <dc:type rdf:resource="http://purl.org/dc/dcmitype/StillImage"/>
    <dc:date>2021-12-16T18:48:55.721077</dc:date>
    <dc:format>image/svg+xml</dc:format>
    <dc:creator>
     <cc:Agent>
      <dc:title>Matplotlib v3.4.1, https://matplotlib.org/</dc:title>
     </cc:Agent>
    </dc:creator>
   </cc:Work>
  </rdf:RDF>
 </metadata>
 <defs>
  <style type="text/css">*{stroke-linecap:butt;stroke-linejoin:round;}</style>
 </defs>
 <g id="figure_1">
  <g id="patch_1">
   <path d="M 0 325.986375 
L 869.993125 325.986375 
L 869.993125 0 
L 0 0 
z
" style="fill:#ffffff;"/>
  </g>
  <g id="axes_1">
   <g id="patch_2">
    <path d="M 59.690625 288.430125 
L 773.930625 288.430125 
L 773.930625 22.318125 
L 59.690625 22.318125 
z
" style="fill:#ffffff;"/>
   </g>
   <g id="PolyCollection_1">
    <defs>
     <path d="M 92.15608 -142.342889 
L 92.15608 -99.412488 
L 99.291344 -127.296708 
L 106.426609 -140.237451 
L 113.561874 -183.270556 
L 120.697138 -184.297599 
L 127.832403 -186.300333 
L 134.967668 -186.813855 
L 142.102933 -188.368541 
L 149.238197 -195.184256 
L 156.373462 -195.954538 
L 163.508727 -203.400601 
L 170.643992 -203.554657 
L 177.779256 -203.606009 
L 184.914521 -204.478996 
L 192.049786 -206.122265 
L 199.185051 -213.825088 
L 206.320315 -213.825088 
L 213.45558 -213.927792 
L 220.590845 -213.15751 
L 227.72611 -216.135935 
L 234.861374 -220.808981 
L 241.996639 -221.425207 
L 249.131904 -222.503602 
L 256.267168 -222.62428 
L 263.402433 -220.603572 
L 270.537698 -223.273884 
L 277.672963 -223.941462 
L 284.808227 -224.814449 
L 291.943492 -226.406366 
L 299.078757 -231.940844 
L 306.214022 -232.055103 
L 313.349286 -232.973023 
L 320.484551 -234.263246 
L 327.619816 -234.160541 
L 334.755081 -236.060571 
L 341.890345 -241.04173 
L 349.02561 -240.014687 
L 356.160875 -244.328268 
L 363.296139 -244.482324 
L 370.431404 -244.585029 
L 377.566669 -251.978455 
L 384.701934 -252.031091 
L 391.837198 -252.544613 
L 398.972463 -252.848874 
L 406.107728 -253.777064 
L 413.242993 -255.009516 
L 420.378257 -256.858194 
L 427.513522 -257.166306 
L 434.648787 -257.577124 
L 441.784052 -258.19335 
L 448.919316 -258.393623 
L 456.054581 -258.447543 
L 463.189846 -258.398758 
L 470.325111 -261.53124 
L 477.460375 -262.455578 
L 484.59564 -266.563751 
L 491.730905 -266.769159 
L 498.866169 -267.950259 
L 506.001434 -268.250669 
L 513.136699 -269.439471 
L 520.271964 -271.08274 
L 527.407228 -269.285415 
L 534.542493 -271.390853 
L 541.677758 -271.698966 
L 548.813023 -271.904375 
L 555.948287 -273.63751 
L 563.083552 -273.804405 
L 570.218817 -273.899406 
L 577.354082 -274.626039 
L 584.489346 -274.009813 
L 591.624611 -275.447673 
L 598.759876 -275.550378 
L 605.89514 -275.088208 
L 613.030405 -275.190913 
L 620.16567 -275.190913 
L 627.300935 -275.344969 
L 634.436199 -277.604464 
L 641.571464 -277.193647 
L 648.706729 -278.066633 
L 655.841994 -278.374746 
L 662.977258 -278.374746 
L 670.112523 -278.528803 
L 677.247788 -278.836916 
L 684.383053 -279.401789 
L 691.518317 -279.401789 
L 698.653582 -279.401789 
L 705.788847 -279.863959 
L 712.924112 -279.55713 
L 720.059376 -280.274776 
L 727.194641 -281.045058 
L 734.329906 -281.045058 
L 741.46517 -281.045058 
L 741.46517 -291.57225 
L 741.46517 -291.57225 
L 734.329906 -291.469546 
L 727.194641 -291.57225 
L 720.059376 -291.315489 
L 712.924112 -291.315489 
L 705.788847 -291.469546 
L 698.653582 -291.315489 
L 691.518317 -290.904672 
L 684.383053 -290.801968 
L 677.247788 -290.244797 
L 670.112523 -290.85332 
L 662.977258 -290.545207 
L 655.841994 -289.774925 
L 648.706729 -289.569516 
L 641.571464 -289.777492 
L 634.436199 -289.210051 
L 627.300935 -289.210051 
L 620.16567 -288.080303 
L 613.030405 -288.491121 
L 605.89514 -287.874895 
L 598.759876 -287.669486 
L 591.624611 -287.669486 
L 584.489346 -287.566782 
L 577.354082 -286.7965 
L 570.218817 -286.745147 
L 563.083552 -286.282978 
L 555.948287 -286.282978 
L 548.813023 -286.180274 
L 541.677758 -286.128922 
L 534.542493 -285.923513 
L 527.407228 -285.769457 
L 520.271964 -285.6154 
L 513.136699 -284.537005 
L 506.001434 -284.485653 
L 498.866169 -284.485653 
L 491.730905 -283.818075 
L 484.59564 -281.404523 
L 477.460375 -281.507228 
L 470.325111 -281.199115 
L 463.189846 -280.480185 
L 456.054581 -279.042324 
L 448.919316 -278.836916 
L 441.784052 -278.066633 
L 434.648787 -277.296351 
L 427.513522 -276.628773 
L 420.378257 -276.628773 
L 413.242993 -275.961195 
L 406.107728 -273.710687 
L 398.972463 -274.061165 
L 391.837198 -273.342235 
L 384.701934 -271.288149 
L 377.566669 -271.288149 
L 370.431404 -270.774627 
L 363.296139 -270.004345 
L 356.160875 -268.669189 
L 349.02561 -263.893439 
L 341.890345 -263.790734 
L 334.755081 -262.609635 
L 327.619816 -255.368981 
L 320.484551 -256.986574 
L 313.349286 -254.331668 
L 306.214022 -250.593231 
L 299.078757 -253.982473 
L 291.943492 -250.233766 
L 284.808227 -248.10907 
L 277.672963 -249.360779 
L 270.537698 -249.360779 
L 263.402433 -249.360779 
L 256.267168 -249.360779 
L 249.131904 -249.052666 
L 241.996639 -249.001314 
L 234.861374 -248.949962 
L 227.72611 -241.966069 
L 220.590845 -236.98491 
L 213.45558 -235.80381 
L 206.320315 -235.752458 
L 199.185051 -233.492963 
L 192.049786 -231.233468 
L 184.914521 -231.387525 
L 177.779256 -231.079412 
L 170.643992 -230.103721 
L 163.508727 -229.898312 
L 156.373462 -220.090051 
L 149.238197 -219.679234 
L 142.102933 -212.952101 
L 134.967668 -212.284523 
L 127.832403 -211.668298 
L 120.697138 -200.52488 
L 113.561874 -197.18699 
L 106.426609 -192.359887 
L 99.291344 -187.532785 
L 92.15608 -142.342889 
z
" id="m6a3621c50c" style="stroke:#1f77b4;stroke-opacity:0.2;"/>
    </defs>
    <g clip-path="url(#p3165abab1f)">
     <use style="fill:#1f77b4;fill-opacity:0.2;stroke:#1f77b4;stroke-opacity:0.2;" x="0" xlink:href="#m6a3621c50c" y="325.986375"/>
    </g>
   </g>
   <g id="PolyCollection_2">
    <defs>
     <path d="M 92.15608 -136.18063 
L 92.15608 -77.639174 
L 99.291344 -115.126247 
L 106.426609 -130.891358 
L 113.561874 -149.224078 
L 120.697138 -169.867644 
L 127.832403 -170.48387 
L 134.967668 -176.809171 
L 142.102933 -184.040838 
L 149.238197 -192.154479 
L 156.373462 -193.438283 
L 163.508727 -197.546455 
L 170.643992 -198.881611 
L 177.779256 -196.664482 
L 184.914521 -197.614497 
L 192.049786 -203.753647 
L 199.185051 -205.557391 
L 206.320315 -205.711448 
L 213.45558 -205.814152 
L 220.590845 -206.584434 
L 227.72611 -207.403501 
L 234.861374 -207.765534 
L 241.996639 -207.970942 
L 249.131904 -208.484464 
L 256.267168 -208.843929 
L 263.402433 -209.562859 
L 270.537698 -209.922324 
L 277.672963 -212.233171 
L 284.808227 -212.592636 
L 291.943492 -213.540084 
L 299.078757 -213.619679 
L 306.214022 -215.879174 
L 313.349286 -216.580131 
L 320.484551 -217.573795 
L 327.619816 -220.466205 
L 334.755081 -219.811465 
L 341.890345 -219.83329 
L 349.02561 -219.83329 
L 356.160875 -221.836024 
L 363.296139 -220.603572 
L 370.431404 -220.757629 
L 377.566669 -220.757629 
L 384.701934 -220.963038 
L 391.837198 -221.425207 
L 398.972463 -219.576529 
L 406.107728 -230.052369 
L 413.242993 -230.052369 
L 420.378257 -230.052369 
L 427.513522 -237.036262 
L 434.648787 -236.574092 
L 441.784052 -236.574092 
L 448.919316 -236.625445 
L 456.054581 -239.038996 
L 463.189846 -240.630913 
L 470.325111 -243.035477 
L 477.460375 -240.682265 
L 484.59564 -243.047032 
L 491.730905 -241.247139 
L 498.866169 -241.555251 
L 506.001434 -242.068773 
L 513.136699 -242.068773 
L 520.271964 -242.684999 
L 527.407228 -242.787703 
L 534.542493 -242.787703 
L 541.677758 -242.839055 
L 548.813023 -254.187882 
L 555.948287 -254.39329 
L 563.083552 -252.067038 
L 570.218817 -259.42195 
L 577.354082 -261.993409 
L 584.489346 -262.917748 
L 591.624611 -264.047495 
L 598.759876 -264.252904 
L 605.89514 -264.304256 
L 613.030405 -264.715073 
L 620.16567 -264.715073 
L 627.300935 -264.766425 
L 634.436199 -270.466514 
L 641.571464 -270.620571 
L 648.706729 -270.877332 
L 655.841994 -270.415162 
L 662.977258 -270.723275 
L 670.112523 -272.26384 
L 677.247788 -272.26384 
L 684.383053 -272.26384 
L 691.518317 -272.315192 
L 698.653582 -272.366544 
L 705.788847 -272.366544 
L 712.924112 -273.907109 
L 720.059376 -274.471983 
L 727.194641 -276.474717 
L 734.329906 -276.577421 
L 741.46517 -277.090942 
L 741.46517 -284.588357 
L 741.46517 -284.588357 
L 734.329906 -284.588357 
L 727.194641 -284.538289 
L 720.059376 -284.280244 
L 712.924112 -283.71537 
L 705.788847 -283.71537 
L 698.653582 -283.201849 
L 691.518317 -283.203133 
L 684.383053 -282.945088 
L 677.247788 -283.253201 
L 670.112523 -282.585623 
L 662.977258 -281.918045 
L 655.841994 -281.866693 
L 648.706729 -281.866693 
L 641.571464 -281.866693 
L 634.436199 -281.455876 
L 627.300935 -279.812607 
L 620.16567 -279.812607 
L 613.030405 -279.761254 
L 605.89514 -279.453142 
L 598.759876 -279.042324 
L 591.624611 -278.734211 
L 584.489346 -277.03959 
L 577.354082 -276.782829 
L 570.218817 -276.731477 
L 563.083552 -276.680125 
L 555.948287 -276.577421 
L 548.813023 -276.076737 
L 541.677758 -275.499026 
L 534.542493 -275.036856 
L 527.407228 -275.036856 
L 520.271964 -274.985504 
L 513.136699 -274.985504 
L 506.001434 -274.677391 
L 498.866169 -272.623305 
L 491.730905 -272.623305 
L 484.59564 -272.623305 
L 477.460375 -272.424315 
L 470.325111 -272.674657 
L 463.189846 -272.674657 
L 456.054581 -272.366544 
L 448.919316 -272.212488 
L 441.784052 -271.904375 
L 434.648787 -271.853023 
L 427.513522 -271.853023 
L 420.378257 -271.801671 
L 413.242993 -271.54491 
L 406.107728 -270.517867 
L 398.972463 -268.669189 
L 391.837198 -270.82598 
L 384.701934 -268.771893 
L 377.566669 -268.155668 
L 370.431404 -266.30699 
L 363.296139 -267.950259 
L 356.160875 -266.023269 
L 349.02561 -265.12589 
L 341.890345 -265.074538 
L 334.755081 -265.074538 
L 327.619816 -264.766425 
L 320.484551 -263.533974 
L 313.349286 -263.174509 
L 306.214022 -261.942057 
L 299.078757 -261.963882 
L 291.943492 -260.658253 
L 284.808227 -260.966366 
L 277.672963 -260.35014 
L 270.537698 -260.247436 
L 263.402433 -258.347406 
L 256.267168 -257.320363 
L 249.131904 -253.571656 
L 241.996639 -252.013118 
L 234.861374 -249.925653 
L 227.72611 -249.668892 
L 220.590845 -238.474122 
L 213.45558 -226.560422 
L 206.320315 -224.454984 
L 199.185051 -225.636084 
L 192.049786 -222.914419 
L 184.914521 -218.876856 
L 177.779256 -216.906217 
L 170.643992 -215.879174 
L 163.508727 -216.392696 
L 156.373462 -213.927792 
L 149.238197 -209.768268 
L 142.102933 -209.768268 
L 134.967668 -206.943899 
L 127.832403 -197.032934 
L 120.697138 -195.338312 
L 113.561874 -189.586871 
L 106.426609 -182.757035 
L 99.291344 -172.589308 
L 92.15608 -136.18063 
z
" id="m70e96eca87" style="stroke:#d62728;stroke-opacity:0.2;"/>
    </defs>
    <g clip-path="url(#p3165abab1f)">
     <use style="fill:#d62728;fill-opacity:0.2;stroke:#d62728;stroke-opacity:0.2;" x="0" xlink:href="#m70e96eca87" y="325.986375"/>
    </g>
   </g>
   <g id="PolyCollection_3">
    <defs>
     <path d="M 92.15608 -61.771358 
L 92.15608 -49.65225 
L 99.291344 -80.971929 
L 106.426609 -120.980393 
L 113.561874 -166.016232 
L 120.697138 -189.586871 
L 127.832403 -191.94907 
L 134.967668 -198.008624 
L 142.102933 -200.165415 
L 149.238197 -205.865504 
L 156.373462 -208.022295 
L 163.508727 -208.741225 
L 170.643992 -210.230437 
L 177.779256 -213.872589 
L 184.914521 -214.33861 
L 192.049786 -215.622413 
L 199.185051 -215.827822 
L 206.320315 -219.884642 
L 213.45558 -221.938728 
L 220.590845 -223.068476 
L 227.72611 -223.89011 
L 234.861374 -224.35228 
L 241.996639 -228.152339 
L 249.131904 -229.230734 
L 256.267168 -229.282087 
L 263.402433 -229.384791 
L 270.537698 -230.155073 
L 277.672963 -230.360482 
L 284.808227 -231.695638 
L 291.943492 -232.619977 
L 299.078757 -232.613558 
L 306.214022 -233.082146 
L 313.349286 -233.287555 
L 320.484551 -233.64702 
L 327.619816 -234.674063 
L 334.755081 -234.36595 
L 341.890345 -234.982176 
L 349.02561 -235.033528 
L 356.160875 -235.392993 
L 363.296139 -237.190318 
L 370.431404 -237.083763 
L 377.566669 -237.293023 
L 384.701934 -237.344375 
L 391.837198 -237.651204 
L 398.972463 -237.545932 
L 406.107728 -237.702556 
L 413.242993 -237.909249 
L 420.378257 -239.347109 
L 427.513522 -239.347109 
L 434.648787 -239.335555 
L 441.784052 -239.347109 
L 448.919316 -240.168743 
L 456.054581 -242.376886 
L 463.189846 -242.890408 
L 470.325111 -243.147168 
L 477.460375 -243.147168 
L 484.59564 -243.763394 
L 491.730905 -243.763394 
L 498.866169 -245.303959 
L 506.001434 -245.406663 
L 513.136699 -246.947228 
L 520.271964 -247.512101 
L 527.407228 -247.563454 
L 534.542493 -247.71751 
L 541.677758 -248.128327 
L 548.813023 -248.333736 
L 555.948287 -248.333736 
L 563.083552 -248.539145 
L 570.218817 -248.539145 
L 577.354082 -249.001314 
L 584.489346 -250.593231 
L 591.624611 -250.695935 
L 598.759876 -250.695935 
L 605.89514 -250.952696 
L 613.030405 -250.952696 
L 620.16567 -252.390556 
L 627.300935 -252.390556 
L 634.436199 -252.390556 
L 641.571464 -264.893522 
L 648.706729 -263.328565 
L 655.841994 -264.150199 
L 662.977258 -265.12589 
L 670.112523 -265.12589 
L 677.247788 -265.177243 
L 684.383053 -265.177243 
L 691.518317 -266.974568 
L 698.653582 -264.663721 
L 705.788847 -267.231329 
L 712.924112 -267.231329 
L 720.059376 -267.231329 
L 727.194641 -267.231329 
L 734.329906 -267.231329 
L 741.46517 -267.334033 
L 741.46517 -285.564048 
L 741.46517 -285.564048 
L 734.329906 -285.512696 
L 727.194641 -285.101879 
L 720.059376 -285.307287 
L 712.924112 -284.947822 
L 705.788847 -284.793766 
L 698.653582 -284.434301 
L 691.518317 -284.434301 
L 684.383053 -284.588357 
L 677.247788 -283.972131 
L 670.112523 -283.972131 
L 662.977258 -283.45861 
L 655.841994 -283.407257 
L 648.706729 -283.407257 
L 641.571464 -283.253201 
L 634.436199 -282.945088 
L 627.300935 -282.945088 
L 620.16567 -282.945088 
L 613.030405 -282.123454 
L 605.89514 -282.123454 
L 598.759876 -281.404523 
L 591.624611 -281.609932 
L 584.489346 -280.993706 
L 577.354082 -280.993706 
L 570.218817 -280.480185 
L 563.083552 -280.482752 
L 555.948287 -280.37748 
L 548.813023 -280.37748 
L 541.677758 -279.871662 
L 534.542493 -279.761254 
L 527.407228 -279.761254 
L 520.271964 -279.709902 
L 513.136699 -279.196381 
L 506.001434 -279.200232 
L 498.866169 -279.196381 
L 491.730905 -279.196381 
L 484.59564 -279.042324 
L 477.460375 -278.888268 
L 470.325111 -278.734211 
L 463.189846 -277.963929 
L 456.054581 -276.474717 
L 448.919316 -276.372012 
L 441.784052 -275.858491 
L 434.648787 -275.858491 
L 427.513522 -275.550378 
L 420.378257 -274.471983 
L 413.242993 -275.447673 
L 406.107728 -273.290883 
L 398.972463 -273.393587 
L 391.837198 -272.161136 
L 384.701934 -248.949962 
L 377.566669 -248.89861 
L 370.431404 -250.490526 
L 363.296139 -248.847257 
L 356.160875 -247.409397 
L 349.02561 -246.844523 
L 341.890345 -246.331002 
L 334.755081 -246.331002 
L 327.619816 -247.101284 
L 320.484551 -243.56954 
L 313.349286 -241.149569 
L 306.214022 -241.384506 
L 299.078757 -240.786253 
L 291.943492 -240.3228 
L 284.808227 -239.706574 
L 277.672963 -239.552517 
L 270.537698 -238.576827 
L 263.402433 -237.395727 
L 256.267168 -237.344375 
L 249.131904 -238.576827 
L 241.996639 -236.625445 
L 234.861374 -233.133498 
L 227.72611 -231.74699 
L 220.590845 -230.312981 
L 213.45558 -229.436143 
L 206.320315 -228.717213 
L 199.185051 -227.228 
L 192.049786 -226.560422 
L 184.914521 -226.355014 
L 177.779256 -225.327971 
L 170.643992 -224.60904 
L 163.508727 -223.222532 
L 156.373462 -217.779204 
L 149.238197 -216.546752 
L 142.102933 -213.516975 
L 134.967668 -209.614211 
L 127.832403 -200.987049 
L 120.697138 -194.619382 
L 113.561874 -182.922645 
L 106.426609 -160.110734 
L 99.291344 -135.4617 
L 92.15608 -61.771358 
z
" id="ma519b382f1" style="stroke:#98df8a;stroke-opacity:0.2;"/>
    </defs>
    <g clip-path="url(#p3165abab1f)">
     <use style="fill:#98df8a;fill-opacity:0.2;stroke:#98df8a;stroke-opacity:0.2;" x="0" xlink:href="#ma519b382f1" y="325.986375"/>
    </g>
   </g>
   <g id="matplotlib.axis_1">
    <g id="xtick_1">
     <g id="line2d_1">
      <defs>
       <path d="M 0 0 
L 0 3.5 
" id="m4197ec33f5" style="stroke:#000000;stroke-width:0.8;"/>
      </defs>
      <g>
       <use style="stroke:#000000;stroke-width:0.8;" x="92.15608" xlink:href="#m4197ec33f5" y="288.430125"/>
      </g>
     </g>
     <g id="text_1">
      <!-- 15m -->
      <g transform="translate(80.923267 303.028562)scale(0.1 -0.1)">
       <defs>
        <path d="M 794 531 
L 1825 531 
L 1825 4091 
L 703 3866 
L 703 4441 
L 1819 4666 
L 2450 4666 
L 2450 531 
L 3481 531 
L 3481 0 
L 794 0 
L 794 531 
z
" id="DejaVuSans-31" transform="scale(0.015625)"/>
        <path d="M 691 4666 
L 3169 4666 
L 3169 4134 
L 1269 4134 
L 1269 2991 
Q 1406 3038 1543 3061 
Q 1681 3084 1819 3084 
Q 2600 3084 3056 2656 
Q 3513 2228 3513 1497 
Q 3513 744 3044 326 
Q 2575 -91 1722 -91 
Q 1428 -91 1123 -41 
Q 819 9 494 109 
L 494 744 
Q 775 591 1075 516 
Q 1375 441 1709 441 
Q 2250 441 2565 725 
Q 2881 1009 2881 1497 
Q 2881 1984 2565 2268 
Q 2250 2553 1709 2553 
Q 1456 2553 1204 2497 
Q 953 2441 691 2322 
L 691 4666 
z
" id="DejaVuSans-35" transform="scale(0.015625)"/>
        <path d="M 3328 2828 
Q 3544 3216 3844 3400 
Q 4144 3584 4550 3584 
Q 5097 3584 5394 3201 
Q 5691 2819 5691 2113 
L 5691 0 
L 5113 0 
L 5113 2094 
Q 5113 2597 4934 2840 
Q 4756 3084 4391 3084 
Q 3944 3084 3684 2787 
Q 3425 2491 3425 1978 
L 3425 0 
L 2847 0 
L 2847 2094 
Q 2847 2600 2669 2842 
Q 2491 3084 2119 3084 
Q 1678 3084 1418 2786 
Q 1159 2488 1159 1978 
L 1159 0 
L 581 0 
L 581 3500 
L 1159 3500 
L 1159 2956 
Q 1356 3278 1631 3431 
Q 1906 3584 2284 3584 
Q 2666 3584 2933 3390 
Q 3200 3197 3328 2828 
z
" id="DejaVuSans-6d" transform="scale(0.015625)"/>
       </defs>
       <use xlink:href="#DejaVuSans-31"/>
       <use x="63.623047" xlink:href="#DejaVuSans-35"/>
       <use x="127.246094" xlink:href="#DejaVuSans-6d"/>
      </g>
     </g>
    </g>
    <g id="xtick_2">
     <g id="line2d_2">
      <g>
       <use style="stroke:#000000;stroke-width:0.8;" x="146.859776" xlink:href="#m4197ec33f5" y="288.430125"/>
      </g>
     </g>
     <g id="text_2">
      <!-- 2h:10m -->
      <g transform="translate(127.592588 303.028562)scale(0.1 -0.1)">
       <defs>
        <path d="M 1228 531 
L 3431 531 
L 3431 0 
L 469 0 
L 469 531 
Q 828 903 1448 1529 
Q 2069 2156 2228 2338 
Q 2531 2678 2651 2914 
Q 2772 3150 2772 3378 
Q 2772 3750 2511 3984 
Q 2250 4219 1831 4219 
Q 1534 4219 1204 4116 
Q 875 4013 500 3803 
L 500 4441 
Q 881 4594 1212 4672 
Q 1544 4750 1819 4750 
Q 2544 4750 2975 4387 
Q 3406 4025 3406 3419 
Q 3406 3131 3298 2873 
Q 3191 2616 2906 2266 
Q 2828 2175 2409 1742 
Q 1991 1309 1228 531 
z
" id="DejaVuSans-32" transform="scale(0.015625)"/>
        <path d="M 3513 2113 
L 3513 0 
L 2938 0 
L 2938 2094 
Q 2938 2591 2744 2837 
Q 2550 3084 2163 3084 
Q 1697 3084 1428 2787 
Q 1159 2491 1159 1978 
L 1159 0 
L 581 0 
L 581 4863 
L 1159 4863 
L 1159 2956 
Q 1366 3272 1645 3428 
Q 1925 3584 2291 3584 
Q 2894 3584 3203 3211 
Q 3513 2838 3513 2113 
z
" id="DejaVuSans-68" transform="scale(0.015625)"/>
        <path d="M 750 794 
L 1409 794 
L 1409 0 
L 750 0 
L 750 794 
z
M 750 3309 
L 1409 3309 
L 1409 2516 
L 750 2516 
L 750 3309 
z
" id="DejaVuSans-3a" transform="scale(0.015625)"/>
        <path d="M 2034 4250 
Q 1547 4250 1301 3770 
Q 1056 3291 1056 2328 
Q 1056 1369 1301 889 
Q 1547 409 2034 409 
Q 2525 409 2770 889 
Q 3016 1369 3016 2328 
Q 3016 3291 2770 3770 
Q 2525 4250 2034 4250 
z
M 2034 4750 
Q 2819 4750 3233 4129 
Q 3647 3509 3647 2328 
Q 3647 1150 3233 529 
Q 2819 -91 2034 -91 
Q 1250 -91 836 529 
Q 422 1150 422 2328 
Q 422 3509 836 4129 
Q 1250 4750 2034 4750 
z
" id="DejaVuSans-30" transform="scale(0.015625)"/>
       </defs>
       <use xlink:href="#DejaVuSans-32"/>
       <use x="63.623047" xlink:href="#DejaVuSans-68"/>
       <use x="127.001953" xlink:href="#DejaVuSans-3a"/>
       <use x="160.693359" xlink:href="#DejaVuSans-31"/>
       <use x="224.316406" xlink:href="#DejaVuSans-30"/>
       <use x="287.939453" xlink:href="#DejaVuSans-6d"/>
      </g>
     </g>
    </g>
    <g id="xtick_3">
     <g id="line2d_3">
      <g>
       <use style="stroke:#000000;stroke-width:0.8;" x="201.563472" xlink:href="#m4197ec33f5" y="288.430125"/>
      </g>
     </g>
     <g id="text_3">
      <!-- 4h:5m -->
      <g transform="translate(185.477535 303.028562)scale(0.1 -0.1)">
       <defs>
        <path d="M 2419 4116 
L 825 1625 
L 2419 1625 
L 2419 4116 
z
M 2253 4666 
L 3047 4666 
L 3047 1625 
L 3713 1625 
L 3713 1100 
L 3047 1100 
L 3047 0 
L 2419 0 
L 2419 1100 
L 313 1100 
L 313 1709 
L 2253 4666 
z
" id="DejaVuSans-34" transform="scale(0.015625)"/>
       </defs>
       <use xlink:href="#DejaVuSans-34"/>
       <use x="63.623047" xlink:href="#DejaVuSans-68"/>
       <use x="127.001953" xlink:href="#DejaVuSans-3a"/>
       <use x="160.693359" xlink:href="#DejaVuSans-35"/>
       <use x="224.316406" xlink:href="#DejaVuSans-6d"/>
      </g>
     </g>
    </g>
    <g id="xtick_4">
     <g id="line2d_4">
      <g>
       <use style="stroke:#000000;stroke-width:0.8;" x="256.267168" xlink:href="#m4197ec33f5" y="288.430125"/>
      </g>
     </g>
     <g id="text_4">
      <!-- 6h -->
      <g transform="translate(249.917168 303.028562)scale(0.1 -0.1)">
       <defs>
        <path d="M 2113 2584 
Q 1688 2584 1439 2293 
Q 1191 2003 1191 1497 
Q 1191 994 1439 701 
Q 1688 409 2113 409 
Q 2538 409 2786 701 
Q 3034 994 3034 1497 
Q 3034 2003 2786 2293 
Q 2538 2584 2113 2584 
z
M 3366 4563 
L 3366 3988 
Q 3128 4100 2886 4159 
Q 2644 4219 2406 4219 
Q 1781 4219 1451 3797 
Q 1122 3375 1075 2522 
Q 1259 2794 1537 2939 
Q 1816 3084 2150 3084 
Q 2853 3084 3261 2657 
Q 3669 2231 3669 1497 
Q 3669 778 3244 343 
Q 2819 -91 2113 -91 
Q 1303 -91 875 529 
Q 447 1150 447 2328 
Q 447 3434 972 4092 
Q 1497 4750 2381 4750 
Q 2619 4750 2861 4703 
Q 3103 4656 3366 4563 
z
" id="DejaVuSans-36" transform="scale(0.015625)"/>
       </defs>
       <use xlink:href="#DejaVuSans-36"/>
       <use x="63.623047" xlink:href="#DejaVuSans-68"/>
      </g>
     </g>
    </g>
    <g id="xtick_5">
     <g id="line2d_5">
      <g>
       <use style="stroke:#000000;stroke-width:0.8;" x="310.970865" xlink:href="#m4197ec33f5" y="288.430125"/>
      </g>
     </g>
     <g id="text_5">
      <!-- 7h:55m -->
      <g transform="translate(291.703677 303.028562)scale(0.1 -0.1)">
       <defs>
        <path d="M 525 4666 
L 3525 4666 
L 3525 4397 
L 1831 0 
L 1172 0 
L 2766 4134 
L 525 4134 
L 525 4666 
z
" id="DejaVuSans-37" transform="scale(0.015625)"/>
       </defs>
       <use xlink:href="#DejaVuSans-37"/>
       <use x="63.623047" xlink:href="#DejaVuSans-68"/>
       <use x="127.001953" xlink:href="#DejaVuSans-3a"/>
       <use x="160.693359" xlink:href="#DejaVuSans-35"/>
       <use x="224.316406" xlink:href="#DejaVuSans-35"/>
       <use x="287.939453" xlink:href="#DejaVuSans-6d"/>
      </g>
     </g>
    </g>
    <g id="xtick_6">
     <g id="line2d_6">
      <g>
       <use style="stroke:#000000;stroke-width:0.8;" x="365.674561" xlink:href="#m4197ec33f5" y="288.430125"/>
      </g>
     </g>
     <g id="text_6">
      <!-- 9h:50m -->
      <g transform="translate(346.407374 303.028562)scale(0.1 -0.1)">
       <defs>
        <path d="M 703 97 
L 703 672 
Q 941 559 1184 500 
Q 1428 441 1663 441 
Q 2288 441 2617 861 
Q 2947 1281 2994 2138 
Q 2813 1869 2534 1725 
Q 2256 1581 1919 1581 
Q 1219 1581 811 2004 
Q 403 2428 403 3163 
Q 403 3881 828 4315 
Q 1253 4750 1959 4750 
Q 2769 4750 3195 4129 
Q 3622 3509 3622 2328 
Q 3622 1225 3098 567 
Q 2575 -91 1691 -91 
Q 1453 -91 1209 -44 
Q 966 3 703 97 
z
M 1959 2075 
Q 2384 2075 2632 2365 
Q 2881 2656 2881 3163 
Q 2881 3666 2632 3958 
Q 2384 4250 1959 4250 
Q 1534 4250 1286 3958 
Q 1038 3666 1038 3163 
Q 1038 2656 1286 2365 
Q 1534 2075 1959 2075 
z
" id="DejaVuSans-39" transform="scale(0.015625)"/>
       </defs>
       <use xlink:href="#DejaVuSans-39"/>
       <use x="63.623047" xlink:href="#DejaVuSans-68"/>
       <use x="127.001953" xlink:href="#DejaVuSans-3a"/>
       <use x="160.693359" xlink:href="#DejaVuSans-35"/>
       <use x="224.316406" xlink:href="#DejaVuSans-30"/>
       <use x="287.939453" xlink:href="#DejaVuSans-6d"/>
      </g>
     </g>
    </g>
    <g id="xtick_7">
     <g id="line2d_7">
      <g>
       <use style="stroke:#000000;stroke-width:0.8;" x="420.378257" xlink:href="#m4197ec33f5" y="288.430125"/>
      </g>
     </g>
     <g id="text_7">
      <!-- 11h:45m -->
      <g transform="translate(397.92982 303.028562)scale(0.1 -0.1)">
       <use xlink:href="#DejaVuSans-31"/>
       <use x="63.623047" xlink:href="#DejaVuSans-31"/>
       <use x="127.246094" xlink:href="#DejaVuSans-68"/>
       <use x="190.625" xlink:href="#DejaVuSans-3a"/>
       <use x="224.316406" xlink:href="#DejaVuSans-34"/>
       <use x="287.939453" xlink:href="#DejaVuSans-35"/>
       <use x="351.5625" xlink:href="#DejaVuSans-6d"/>
      </g>
     </g>
    </g>
    <g id="xtick_8">
     <g id="line2d_8">
      <g>
       <use style="stroke:#000000;stroke-width:0.8;" x="475.081954" xlink:href="#m4197ec33f5" y="288.430125"/>
      </g>
     </g>
     <g id="text_8">
      <!-- 13h:40m -->
      <g transform="translate(452.633516 303.028562)scale(0.1 -0.1)">
       <defs>
        <path d="M 2597 2516 
Q 3050 2419 3304 2112 
Q 3559 1806 3559 1356 
Q 3559 666 3084 287 
Q 2609 -91 1734 -91 
Q 1441 -91 1130 -33 
Q 819 25 488 141 
L 488 750 
Q 750 597 1062 519 
Q 1375 441 1716 441 
Q 2309 441 2620 675 
Q 2931 909 2931 1356 
Q 2931 1769 2642 2001 
Q 2353 2234 1838 2234 
L 1294 2234 
L 1294 2753 
L 1863 2753 
Q 2328 2753 2575 2939 
Q 2822 3125 2822 3475 
Q 2822 3834 2567 4026 
Q 2313 4219 1838 4219 
Q 1578 4219 1281 4162 
Q 984 4106 628 3988 
L 628 4550 
Q 988 4650 1302 4700 
Q 1616 4750 1894 4750 
Q 2613 4750 3031 4423 
Q 3450 4097 3450 3541 
Q 3450 3153 3228 2886 
Q 3006 2619 2597 2516 
z
" id="DejaVuSans-33" transform="scale(0.015625)"/>
       </defs>
       <use xlink:href="#DejaVuSans-31"/>
       <use x="63.623047" xlink:href="#DejaVuSans-33"/>
       <use x="127.246094" xlink:href="#DejaVuSans-68"/>
       <use x="190.625" xlink:href="#DejaVuSans-3a"/>
       <use x="224.316406" xlink:href="#DejaVuSans-34"/>
       <use x="287.939453" xlink:href="#DejaVuSans-30"/>
       <use x="351.5625" xlink:href="#DejaVuSans-6d"/>
      </g>
     </g>
    </g>
    <g id="xtick_9">
     <g id="line2d_9">
      <g>
       <use style="stroke:#000000;stroke-width:0.8;" x="529.78565" xlink:href="#m4197ec33f5" y="288.430125"/>
      </g>
     </g>
     <g id="text_9">
      <!-- 15h:35m -->
      <g transform="translate(507.337212 303.028562)scale(0.1 -0.1)">
       <use xlink:href="#DejaVuSans-31"/>
       <use x="63.623047" xlink:href="#DejaVuSans-35"/>
       <use x="127.246094" xlink:href="#DejaVuSans-68"/>
       <use x="190.625" xlink:href="#DejaVuSans-3a"/>
       <use x="224.316406" xlink:href="#DejaVuSans-33"/>
       <use x="287.939453" xlink:href="#DejaVuSans-35"/>
       <use x="351.5625" xlink:href="#DejaVuSans-6d"/>
      </g>
     </g>
    </g>
    <g id="xtick_10">
     <g id="line2d_10">
      <g>
       <use style="stroke:#000000;stroke-width:0.8;" x="584.489346" xlink:href="#m4197ec33f5" y="288.430125"/>
      </g>
     </g>
     <g id="text_10">
      <!-- 17h:30m -->
      <g transform="translate(562.040909 303.028562)scale(0.1 -0.1)">
       <use xlink:href="#DejaVuSans-31"/>
       <use x="63.623047" xlink:href="#DejaVuSans-37"/>
       <use x="127.246094" xlink:href="#DejaVuSans-68"/>
       <use x="190.625" xlink:href="#DejaVuSans-3a"/>
       <use x="224.316406" xlink:href="#DejaVuSans-33"/>
       <use x="287.939453" xlink:href="#DejaVuSans-30"/>
       <use x="351.5625" xlink:href="#DejaVuSans-6d"/>
      </g>
     </g>
    </g>
    <g id="xtick_11">
     <g id="line2d_11">
      <g>
       <use style="stroke:#000000;stroke-width:0.8;" x="639.193043" xlink:href="#m4197ec33f5" y="288.430125"/>
      </g>
     </g>
     <g id="text_11">
      <!-- 19h:25m -->
      <g transform="translate(616.744605 303.028562)scale(0.1 -0.1)">
       <use xlink:href="#DejaVuSans-31"/>
       <use x="63.623047" xlink:href="#DejaVuSans-39"/>
       <use x="127.246094" xlink:href="#DejaVuSans-68"/>
       <use x="190.625" xlink:href="#DejaVuSans-3a"/>
       <use x="224.316406" xlink:href="#DejaVuSans-32"/>
       <use x="287.939453" xlink:href="#DejaVuSans-35"/>
       <use x="351.5625" xlink:href="#DejaVuSans-6d"/>
      </g>
     </g>
    </g>
    <g id="xtick_12">
     <g id="line2d_12">
      <g>
       <use style="stroke:#000000;stroke-width:0.8;" x="693.896739" xlink:href="#m4197ec33f5" y="288.430125"/>
      </g>
     </g>
     <g id="text_12">
      <!-- 21h:20m -->
      <g transform="translate(671.448301 303.028562)scale(0.1 -0.1)">
       <use xlink:href="#DejaVuSans-32"/>
       <use x="63.623047" xlink:href="#DejaVuSans-31"/>
       <use x="127.246094" xlink:href="#DejaVuSans-68"/>
       <use x="190.625" xlink:href="#DejaVuSans-3a"/>
       <use x="224.316406" xlink:href="#DejaVuSans-32"/>
       <use x="287.939453" xlink:href="#DejaVuSans-30"/>
       <use x="351.5625" xlink:href="#DejaVuSans-6d"/>
      </g>
     </g>
    </g>
    <g id="text_13">
     <!-- Time (hour:minute) -->
     <g transform="translate(368.403594 316.706687)scale(0.1 -0.1)">
      <defs>
       <path d="M -19 4666 
L 3928 4666 
L 3928 4134 
L 2272 4134 
L 2272 0 
L 1638 0 
L 1638 4134 
L -19 4134 
L -19 4666 
z
" id="DejaVuSans-54" transform="scale(0.015625)"/>
       <path d="M 603 3500 
L 1178 3500 
L 1178 0 
L 603 0 
L 603 3500 
z
M 603 4863 
L 1178 4863 
L 1178 4134 
L 603 4134 
L 603 4863 
z
" id="DejaVuSans-69" transform="scale(0.015625)"/>
       <path d="M 3597 1894 
L 3597 1613 
L 953 1613 
Q 991 1019 1311 708 
Q 1631 397 2203 397 
Q 2534 397 2845 478 
Q 3156 559 3463 722 
L 3463 178 
Q 3153 47 2828 -22 
Q 2503 -91 2169 -91 
Q 1331 -91 842 396 
Q 353 884 353 1716 
Q 353 2575 817 3079 
Q 1281 3584 2069 3584 
Q 2775 3584 3186 3129 
Q 3597 2675 3597 1894 
z
M 3022 2063 
Q 3016 2534 2758 2815 
Q 2500 3097 2075 3097 
Q 1594 3097 1305 2825 
Q 1016 2553 972 2059 
L 3022 2063 
z
" id="DejaVuSans-65" transform="scale(0.015625)"/>
       <path id="DejaVuSans-20" transform="scale(0.015625)"/>
       <path d="M 1984 4856 
Q 1566 4138 1362 3434 
Q 1159 2731 1159 2009 
Q 1159 1288 1364 580 
Q 1569 -128 1984 -844 
L 1484 -844 
Q 1016 -109 783 600 
Q 550 1309 550 2009 
Q 550 2706 781 3412 
Q 1013 4119 1484 4856 
L 1984 4856 
z
" id="DejaVuSans-28" transform="scale(0.015625)"/>
       <path d="M 1959 3097 
Q 1497 3097 1228 2736 
Q 959 2375 959 1747 
Q 959 1119 1226 758 
Q 1494 397 1959 397 
Q 2419 397 2687 759 
Q 2956 1122 2956 1747 
Q 2956 2369 2687 2733 
Q 2419 3097 1959 3097 
z
M 1959 3584 
Q 2709 3584 3137 3096 
Q 3566 2609 3566 1747 
Q 3566 888 3137 398 
Q 2709 -91 1959 -91 
Q 1206 -91 779 398 
Q 353 888 353 1747 
Q 353 2609 779 3096 
Q 1206 3584 1959 3584 
z
" id="DejaVuSans-6f" transform="scale(0.015625)"/>
       <path d="M 544 1381 
L 544 3500 
L 1119 3500 
L 1119 1403 
Q 1119 906 1312 657 
Q 1506 409 1894 409 
Q 2359 409 2629 706 
Q 2900 1003 2900 1516 
L 2900 3500 
L 3475 3500 
L 3475 0 
L 2900 0 
L 2900 538 
Q 2691 219 2414 64 
Q 2138 -91 1772 -91 
Q 1169 -91 856 284 
Q 544 659 544 1381 
z
M 1991 3584 
L 1991 3584 
z
" id="DejaVuSans-75" transform="scale(0.015625)"/>
       <path d="M 2631 2963 
Q 2534 3019 2420 3045 
Q 2306 3072 2169 3072 
Q 1681 3072 1420 2755 
Q 1159 2438 1159 1844 
L 1159 0 
L 581 0 
L 581 3500 
L 1159 3500 
L 1159 2956 
Q 1341 3275 1631 3429 
Q 1922 3584 2338 3584 
Q 2397 3584 2469 3576 
Q 2541 3569 2628 3553 
L 2631 2963 
z
" id="DejaVuSans-72" transform="scale(0.015625)"/>
       <path d="M 3513 2113 
L 3513 0 
L 2938 0 
L 2938 2094 
Q 2938 2591 2744 2837 
Q 2550 3084 2163 3084 
Q 1697 3084 1428 2787 
Q 1159 2491 1159 1978 
L 1159 0 
L 581 0 
L 581 3500 
L 1159 3500 
L 1159 2956 
Q 1366 3272 1645 3428 
Q 1925 3584 2291 3584 
Q 2894 3584 3203 3211 
Q 3513 2838 3513 2113 
z
" id="DejaVuSans-6e" transform="scale(0.015625)"/>
       <path d="M 1172 4494 
L 1172 3500 
L 2356 3500 
L 2356 3053 
L 1172 3053 
L 1172 1153 
Q 1172 725 1289 603 
Q 1406 481 1766 481 
L 2356 481 
L 2356 0 
L 1766 0 
Q 1100 0 847 248 
Q 594 497 594 1153 
L 594 3053 
L 172 3053 
L 172 3500 
L 594 3500 
L 594 4494 
L 1172 4494 
z
" id="DejaVuSans-74" transform="scale(0.015625)"/>
       <path d="M 513 4856 
L 1013 4856 
Q 1481 4119 1714 3412 
Q 1947 2706 1947 2009 
Q 1947 1309 1714 600 
Q 1481 -109 1013 -844 
L 513 -844 
Q 928 -128 1133 580 
Q 1338 1288 1338 2009 
Q 1338 2731 1133 3434 
Q 928 4138 513 4856 
z
" id="DejaVuSans-29" transform="scale(0.015625)"/>
      </defs>
      <use xlink:href="#DejaVuSans-54"/>
      <use x="57.958984" xlink:href="#DejaVuSans-69"/>
      <use x="85.742188" xlink:href="#DejaVuSans-6d"/>
      <use x="183.154297" xlink:href="#DejaVuSans-65"/>
      <use x="244.677734" xlink:href="#DejaVuSans-20"/>
      <use x="276.464844" xlink:href="#DejaVuSans-28"/>
      <use x="315.478516" xlink:href="#DejaVuSans-68"/>
      <use x="378.857422" xlink:href="#DejaVuSans-6f"/>
      <use x="440.039062" xlink:href="#DejaVuSans-75"/>
      <use x="503.417969" xlink:href="#DejaVuSans-72"/>
      <use x="542.78125" xlink:href="#DejaVuSans-3a"/>
      <use x="576.472656" xlink:href="#DejaVuSans-6d"/>
      <use x="673.884766" xlink:href="#DejaVuSans-69"/>
      <use x="701.667969" xlink:href="#DejaVuSans-6e"/>
      <use x="765.046875" xlink:href="#DejaVuSans-75"/>
      <use x="828.425781" xlink:href="#DejaVuSans-74"/>
      <use x="867.634766" xlink:href="#DejaVuSans-65"/>
      <use x="929.158203" xlink:href="#DejaVuSans-29"/>
     </g>
    </g>
   </g>
   <g id="matplotlib.axis_2">
    <g id="ytick_1">
     <g id="line2d_13">
      <defs>
       <path d="M 0 0 
L -3.5 0 
" id="m69abb90a71" style="stroke:#000000;stroke-width:0.8;"/>
      </defs>
      <g>
       <use style="stroke:#000000;stroke-width:0.8;" x="59.690625" xlink:href="#m69abb90a71" y="238.692996"/>
      </g>
     </g>
     <g id="text_14">
      <!-- 41500 -->
      <g transform="translate(20.878125 242.492214)scale(0.1 -0.1)">
       <use xlink:href="#DejaVuSans-34"/>
       <use x="63.623047" xlink:href="#DejaVuSans-31"/>
       <use x="127.246094" xlink:href="#DejaVuSans-35"/>
       <use x="190.869141" xlink:href="#DejaVuSans-30"/>
       <use x="254.492188" xlink:href="#DejaVuSans-30"/>
      </g>
     </g>
    </g>
    <g id="ytick_2">
     <g id="line2d_14">
      <g>
       <use style="stroke:#000000;stroke-width:0.8;" x="59.690625" xlink:href="#m69abb90a71" y="187.340841"/>
      </g>
     </g>
     <g id="text_15">
      <!-- 42000 -->
      <g transform="translate(20.878125 191.14006)scale(0.1 -0.1)">
       <use xlink:href="#DejaVuSans-34"/>
       <use x="63.623047" xlink:href="#DejaVuSans-32"/>
       <use x="127.246094" xlink:href="#DejaVuSans-30"/>
       <use x="190.869141" xlink:href="#DejaVuSans-30"/>
       <use x="254.492188" xlink:href="#DejaVuSans-30"/>
      </g>
     </g>
    </g>
    <g id="ytick_3">
     <g id="line2d_15">
      <g>
       <use style="stroke:#000000;stroke-width:0.8;" x="59.690625" xlink:href="#m69abb90a71" y="135.988687"/>
      </g>
     </g>
     <g id="text_16">
      <!-- 42500 -->
      <g transform="translate(20.878125 139.787905)scale(0.1 -0.1)">
       <use xlink:href="#DejaVuSans-34"/>
       <use x="63.623047" xlink:href="#DejaVuSans-32"/>
       <use x="127.246094" xlink:href="#DejaVuSans-35"/>
       <use x="190.869141" xlink:href="#DejaVuSans-30"/>
       <use x="254.492188" xlink:href="#DejaVuSans-30"/>
      </g>
     </g>
    </g>
    <g id="ytick_4">
     <g id="line2d_16">
      <g>
       <use style="stroke:#000000;stroke-width:0.8;" x="59.690625" xlink:href="#m69abb90a71" y="84.636532"/>
      </g>
     </g>
     <g id="text_17">
      <!-- 43000 -->
      <g transform="translate(20.878125 88.435751)scale(0.1 -0.1)">
       <use xlink:href="#DejaVuSans-34"/>
       <use x="63.623047" xlink:href="#DejaVuSans-33"/>
       <use x="127.246094" xlink:href="#DejaVuSans-30"/>
       <use x="190.869141" xlink:href="#DejaVuSans-30"/>
       <use x="254.492188" xlink:href="#DejaVuSans-30"/>
      </g>
     </g>
    </g>
    <g id="ytick_5">
     <g id="line2d_17">
      <g>
       <use style="stroke:#000000;stroke-width:0.8;" x="59.690625" xlink:href="#m69abb90a71" y="33.284378"/>
      </g>
     </g>
     <g id="text_18">
      <!-- 43500 -->
      <g transform="translate(20.878125 37.083596)scale(0.1 -0.1)">
       <use xlink:href="#DejaVuSans-34"/>
       <use x="63.623047" xlink:href="#DejaVuSans-33"/>
       <use x="127.246094" xlink:href="#DejaVuSans-35"/>
       <use x="190.869141" xlink:href="#DejaVuSans-30"/>
       <use x="254.492188" xlink:href="#DejaVuSans-30"/>
      </g>
     </g>
    </g>
    <g id="text_19">
     <!-- Code region coverage -->
     <g transform="translate(14.798438 210.379594)rotate(-90)scale(0.1 -0.1)">
      <defs>
       <path d="M 4122 4306 
L 4122 3641 
Q 3803 3938 3442 4084 
Q 3081 4231 2675 4231 
Q 1875 4231 1450 3742 
Q 1025 3253 1025 2328 
Q 1025 1406 1450 917 
Q 1875 428 2675 428 
Q 3081 428 3442 575 
Q 3803 722 4122 1019 
L 4122 359 
Q 3791 134 3420 21 
Q 3050 -91 2638 -91 
Q 1578 -91 968 557 
Q 359 1206 359 2328 
Q 359 3453 968 4101 
Q 1578 4750 2638 4750 
Q 3056 4750 3426 4639 
Q 3797 4528 4122 4306 
z
" id="DejaVuSans-43" transform="scale(0.015625)"/>
       <path d="M 2906 2969 
L 2906 4863 
L 3481 4863 
L 3481 0 
L 2906 0 
L 2906 525 
Q 2725 213 2448 61 
Q 2172 -91 1784 -91 
Q 1150 -91 751 415 
Q 353 922 353 1747 
Q 353 2572 751 3078 
Q 1150 3584 1784 3584 
Q 2172 3584 2448 3432 
Q 2725 3281 2906 2969 
z
M 947 1747 
Q 947 1113 1208 752 
Q 1469 391 1925 391 
Q 2381 391 2643 752 
Q 2906 1113 2906 1747 
Q 2906 2381 2643 2742 
Q 2381 3103 1925 3103 
Q 1469 3103 1208 2742 
Q 947 2381 947 1747 
z
" id="DejaVuSans-64" transform="scale(0.015625)"/>
       <path d="M 2906 1791 
Q 2906 2416 2648 2759 
Q 2391 3103 1925 3103 
Q 1463 3103 1205 2759 
Q 947 2416 947 1791 
Q 947 1169 1205 825 
Q 1463 481 1925 481 
Q 2391 481 2648 825 
Q 2906 1169 2906 1791 
z
M 3481 434 
Q 3481 -459 3084 -895 
Q 2688 -1331 1869 -1331 
Q 1566 -1331 1297 -1286 
Q 1028 -1241 775 -1147 
L 775 -588 
Q 1028 -725 1275 -790 
Q 1522 -856 1778 -856 
Q 2344 -856 2625 -561 
Q 2906 -266 2906 331 
L 2906 616 
Q 2728 306 2450 153 
Q 2172 0 1784 0 
Q 1141 0 747 490 
Q 353 981 353 1791 
Q 353 2603 747 3093 
Q 1141 3584 1784 3584 
Q 2172 3584 2450 3431 
Q 2728 3278 2906 2969 
L 2906 3500 
L 3481 3500 
L 3481 434 
z
" id="DejaVuSans-67" transform="scale(0.015625)"/>
       <path d="M 3122 3366 
L 3122 2828 
Q 2878 2963 2633 3030 
Q 2388 3097 2138 3097 
Q 1578 3097 1268 2742 
Q 959 2388 959 1747 
Q 959 1106 1268 751 
Q 1578 397 2138 397 
Q 2388 397 2633 464 
Q 2878 531 3122 666 
L 3122 134 
Q 2881 22 2623 -34 
Q 2366 -91 2075 -91 
Q 1284 -91 818 406 
Q 353 903 353 1747 
Q 353 2603 823 3093 
Q 1294 3584 2113 3584 
Q 2378 3584 2631 3529 
Q 2884 3475 3122 3366 
z
" id="DejaVuSans-63" transform="scale(0.015625)"/>
       <path d="M 191 3500 
L 800 3500 
L 1894 563 
L 2988 3500 
L 3597 3500 
L 2284 0 
L 1503 0 
L 191 3500 
z
" id="DejaVuSans-76" transform="scale(0.015625)"/>
       <path d="M 2194 1759 
Q 1497 1759 1228 1600 
Q 959 1441 959 1056 
Q 959 750 1161 570 
Q 1363 391 1709 391 
Q 2188 391 2477 730 
Q 2766 1069 2766 1631 
L 2766 1759 
L 2194 1759 
z
M 3341 1997 
L 3341 0 
L 2766 0 
L 2766 531 
Q 2569 213 2275 61 
Q 1981 -91 1556 -91 
Q 1019 -91 701 211 
Q 384 513 384 1019 
Q 384 1609 779 1909 
Q 1175 2209 1959 2209 
L 2766 2209 
L 2766 2266 
Q 2766 2663 2505 2880 
Q 2244 3097 1772 3097 
Q 1472 3097 1187 3025 
Q 903 2953 641 2809 
L 641 3341 
Q 956 3463 1253 3523 
Q 1550 3584 1831 3584 
Q 2591 3584 2966 3190 
Q 3341 2797 3341 1997 
z
" id="DejaVuSans-61" transform="scale(0.015625)"/>
      </defs>
      <use xlink:href="#DejaVuSans-43"/>
      <use x="69.824219" xlink:href="#DejaVuSans-6f"/>
      <use x="131.005859" xlink:href="#DejaVuSans-64"/>
      <use x="194.482422" xlink:href="#DejaVuSans-65"/>
      <use x="256.005859" xlink:href="#DejaVuSans-20"/>
      <use x="287.792969" xlink:href="#DejaVuSans-72"/>
      <use x="326.65625" xlink:href="#DejaVuSans-65"/>
      <use x="388.179688" xlink:href="#DejaVuSans-67"/>
      <use x="451.65625" xlink:href="#DejaVuSans-69"/>
      <use x="479.439453" xlink:href="#DejaVuSans-6f"/>
      <use x="540.621094" xlink:href="#DejaVuSans-6e"/>
      <use x="604" xlink:href="#DejaVuSans-20"/>
      <use x="635.787109" xlink:href="#DejaVuSans-63"/>
      <use x="690.767578" xlink:href="#DejaVuSans-6f"/>
      <use x="751.949219" xlink:href="#DejaVuSans-76"/>
      <use x="811.128906" xlink:href="#DejaVuSans-65"/>
      <use x="872.652344" xlink:href="#DejaVuSans-72"/>
      <use x="913.765625" xlink:href="#DejaVuSans-61"/>
      <use x="975.044922" xlink:href="#DejaVuSans-67"/>
      <use x="1038.521484" xlink:href="#DejaVuSans-65"/>
     </g>
    </g>
   </g>
   <g id="line2d_18">
    <path clip-path="url(#p3165abab1f)" d="M 92.15608 214.043962 
L 99.291344 149.237543 
L 106.426609 146.361822 
L 113.561874 139.275225 
L 120.697138 138.45359 
L 127.832403 130.853471 
L 134.967668 126.026369 
L 142.102933 125.923664 
L 149.238197 120.531688 
L 156.373462 116.628924 
L 163.508727 109.285566 
L 170.643992 108.463932 
L 177.779256 107.899058 
L 184.914521 106.820663 
L 192.049786 105.536859 
L 199.185051 103.534125 
L 206.320315 102.404378 
L 213.45558 101.839504 
L 220.590845 101.685447 
L 227.72611 100.196235 
L 234.861374 97.474571 
L 241.996639 96.704288 
L 249.131904 96.550232 
L 256.267168 95.882654 
L 263.402433 95.625893 
L 270.537698 93.931272 
L 277.672963 92.082595 
L 284.808227 89.874452 
L 291.943492 89.001465 
L 299.078757 88.950113 
L 306.214022 87.358196 
L 313.349286 86.844675 
L 320.484551 83.198672 
L 327.619816 83.095967 
L 334.755081 79.090499 
L 341.890345 78.422921 
L 349.02561 76.831005 
L 356.160875 71.644437 
L 363.296139 69.693055 
L 370.431404 68.717364 
L 377.566669 65.379474 
L 384.701934 63.274036 
L 391.837198 61.271302 
L 398.972463 61.21995 
L 406.107728 60.295611 
L 413.242993 55.879326 
L 420.378257 54.082 
L 427.513522 54.030648 
L 434.648787 53.054957 
L 441.784052 52.849548 
L 448.919316 50.384645 
L 456.054581 49.973828 
L 463.189846 49.665715 
L 470.325111 47.868389 
L 477.460375 47.611629 
L 484.59564 46.944051 
L 491.730905 46.173768 
L 498.866169 46.173768 
L 506.001434 46.122416 
L 513.136699 46.071064 
L 520.271964 45.96836 
L 527.407228 44.78726 
L 534.542493 44.78726 
L 541.677758 44.78726 
L 548.813023 44.78726 
L 555.948287 44.78726 
L 563.083552 44.78726 
L 570.218817 44.78726 
L 577.354082 44.479147 
L 584.489346 43.914274 
L 591.624611 43.503456 
L 598.759876 43.452104 
L 605.89514 43.452104 
L 613.030405 43.452104 
L 620.16567 43.041287 
L 627.300935 43.041287 
L 634.436199 42.989935 
L 641.571464 42.938583 
L 648.706729 42.527765 
L 655.841994 42.065596 
L 662.977258 41.808835 
L 670.112523 41.243962 
L 677.247788 41.243962 
L 684.383053 41.243962 
L 691.518317 41.089905 
L 698.653582 40.935849 
L 705.788847 40.576384 
L 712.924112 40.576384 
L 720.059376 40.576384 
L 727.194641 40.576384 
L 734.329906 39.497988 
L 741.46517 38.522297 
" style="fill:none;stroke:#1f77b4;stroke-linecap:square;stroke-width:1.5;"/>
    <defs>
     <path d="M 0 3 
C 0.795609 3 1.55874 2.683901 2.12132 2.12132 
C 2.683901 1.55874 3 0.795609 3 0 
C 3 -0.795609 2.683901 -1.55874 2.12132 -2.12132 
C 1.55874 -2.683901 0.795609 -3 0 -3 
C -0.795609 -3 -1.55874 -2.683901 -2.12132 -2.12132 
C -2.683901 -1.55874 -3 -0.795609 -3 0 
C -3 0.795609 -2.683901 1.55874 -2.12132 2.12132 
C -1.55874 2.683901 -0.795609 3 0 3 
z
" id="m9d359b05a9" style="stroke:#ffffff;stroke-width:0.75;"/>
    </defs>
    <g clip-path="url(#p3165abab1f)">
     <use style="fill:#1f77b4;stroke:#ffffff;stroke-width:0.75;" x="92.15608" xlink:href="#m9d359b05a9" y="214.043962"/>
     <use style="fill:#1f77b4;stroke:#ffffff;stroke-width:0.75;" x="99.291344" xlink:href="#m9d359b05a9" y="149.237543"/>
     <use style="fill:#1f77b4;stroke:#ffffff;stroke-width:0.75;" x="106.426609" xlink:href="#m9d359b05a9" y="146.361822"/>
     <use style="fill:#1f77b4;stroke:#ffffff;stroke-width:0.75;" x="113.561874" xlink:href="#m9d359b05a9" y="139.275225"/>
     <use style="fill:#1f77b4;stroke:#ffffff;stroke-width:0.75;" x="120.697138" xlink:href="#m9d359b05a9" y="138.45359"/>
     <use style="fill:#1f77b4;stroke:#ffffff;stroke-width:0.75;" x="127.832403" xlink:href="#m9d359b05a9" y="130.853471"/>
     <use style="fill:#1f77b4;stroke:#ffffff;stroke-width:0.75;" x="134.967668" xlink:href="#m9d359b05a9" y="126.026369"/>
     <use style="fill:#1f77b4;stroke:#ffffff;stroke-width:0.75;" x="142.102933" xlink:href="#m9d359b05a9" y="125.923664"/>
     <use style="fill:#1f77b4;stroke:#ffffff;stroke-width:0.75;" x="149.238197" xlink:href="#m9d359b05a9" y="120.531688"/>
     <use style="fill:#1f77b4;stroke:#ffffff;stroke-width:0.75;" x="156.373462" xlink:href="#m9d359b05a9" y="116.628924"/>
     <use style="fill:#1f77b4;stroke:#ffffff;stroke-width:0.75;" x="163.508727" xlink:href="#m9d359b05a9" y="109.285566"/>
     <use style="fill:#1f77b4;stroke:#ffffff;stroke-width:0.75;" x="170.643992" xlink:href="#m9d359b05a9" y="108.463932"/>
     <use style="fill:#1f77b4;stroke:#ffffff;stroke-width:0.75;" x="177.779256" xlink:href="#m9d359b05a9" y="107.899058"/>
     <use style="fill:#1f77b4;stroke:#ffffff;stroke-width:0.75;" x="184.914521" xlink:href="#m9d359b05a9" y="106.820663"/>
     <use style="fill:#1f77b4;stroke:#ffffff;stroke-width:0.75;" x="192.049786" xlink:href="#m9d359b05a9" y="105.536859"/>
     <use style="fill:#1f77b4;stroke:#ffffff;stroke-width:0.75;" x="199.185051" xlink:href="#m9d359b05a9" y="103.534125"/>
     <use style="fill:#1f77b4;stroke:#ffffff;stroke-width:0.75;" x="206.320315" xlink:href="#m9d359b05a9" y="102.404378"/>
     <use style="fill:#1f77b4;stroke:#ffffff;stroke-width:0.75;" x="213.45558" xlink:href="#m9d359b05a9" y="101.839504"/>
     <use style="fill:#1f77b4;stroke:#ffffff;stroke-width:0.75;" x="220.590845" xlink:href="#m9d359b05a9" y="101.685447"/>
     <use style="fill:#1f77b4;stroke:#ffffff;stroke-width:0.75;" x="227.72611" xlink:href="#m9d359b05a9" y="100.196235"/>
     <use style="fill:#1f77b4;stroke:#ffffff;stroke-width:0.75;" x="234.861374" xlink:href="#m9d359b05a9" y="97.474571"/>
     <use style="fill:#1f77b4;stroke:#ffffff;stroke-width:0.75;" x="241.996639" xlink:href="#m9d359b05a9" y="96.704288"/>
     <use style="fill:#1f77b4;stroke:#ffffff;stroke-width:0.75;" x="249.131904" xlink:href="#m9d359b05a9" y="96.550232"/>
     <use style="fill:#1f77b4;stroke:#ffffff;stroke-width:0.75;" x="256.267168" xlink:href="#m9d359b05a9" y="95.882654"/>
     <use style="fill:#1f77b4;stroke:#ffffff;stroke-width:0.75;" x="263.402433" xlink:href="#m9d359b05a9" y="95.625893"/>
     <use style="fill:#1f77b4;stroke:#ffffff;stroke-width:0.75;" x="270.537698" xlink:href="#m9d359b05a9" y="93.931272"/>
     <use style="fill:#1f77b4;stroke:#ffffff;stroke-width:0.75;" x="277.672963" xlink:href="#m9d359b05a9" y="92.082595"/>
     <use style="fill:#1f77b4;stroke:#ffffff;stroke-width:0.75;" x="284.808227" xlink:href="#m9d359b05a9" y="89.874452"/>
     <use style="fill:#1f77b4;stroke:#ffffff;stroke-width:0.75;" x="291.943492" xlink:href="#m9d359b05a9" y="89.001465"/>
     <use style="fill:#1f77b4;stroke:#ffffff;stroke-width:0.75;" x="299.078757" xlink:href="#m9d359b05a9" y="88.950113"/>
     <use style="fill:#1f77b4;stroke:#ffffff;stroke-width:0.75;" x="306.214022" xlink:href="#m9d359b05a9" y="87.358196"/>
     <use style="fill:#1f77b4;stroke:#ffffff;stroke-width:0.75;" x="313.349286" xlink:href="#m9d359b05a9" y="86.844675"/>
     <use style="fill:#1f77b4;stroke:#ffffff;stroke-width:0.75;" x="320.484551" xlink:href="#m9d359b05a9" y="83.198672"/>
     <use style="fill:#1f77b4;stroke:#ffffff;stroke-width:0.75;" x="327.619816" xlink:href="#m9d359b05a9" y="83.095967"/>
     <use style="fill:#1f77b4;stroke:#ffffff;stroke-width:0.75;" x="334.755081" xlink:href="#m9d359b05a9" y="79.090499"/>
     <use style="fill:#1f77b4;stroke:#ffffff;stroke-width:0.75;" x="341.890345" xlink:href="#m9d359b05a9" y="78.422921"/>
     <use style="fill:#1f77b4;stroke:#ffffff;stroke-width:0.75;" x="349.02561" xlink:href="#m9d359b05a9" y="76.831005"/>
     <use style="fill:#1f77b4;stroke:#ffffff;stroke-width:0.75;" x="356.160875" xlink:href="#m9d359b05a9" y="71.644437"/>
     <use style="fill:#1f77b4;stroke:#ffffff;stroke-width:0.75;" x="363.296139" xlink:href="#m9d359b05a9" y="69.693055"/>
     <use style="fill:#1f77b4;stroke:#ffffff;stroke-width:0.75;" x="370.431404" xlink:href="#m9d359b05a9" y="68.717364"/>
     <use style="fill:#1f77b4;stroke:#ffffff;stroke-width:0.75;" x="377.566669" xlink:href="#m9d359b05a9" y="65.379474"/>
     <use style="fill:#1f77b4;stroke:#ffffff;stroke-width:0.75;" x="384.701934" xlink:href="#m9d359b05a9" y="63.274036"/>
     <use style="fill:#1f77b4;stroke:#ffffff;stroke-width:0.75;" x="391.837198" xlink:href="#m9d359b05a9" y="61.271302"/>
     <use style="fill:#1f77b4;stroke:#ffffff;stroke-width:0.75;" x="398.972463" xlink:href="#m9d359b05a9" y="61.21995"/>
     <use style="fill:#1f77b4;stroke:#ffffff;stroke-width:0.75;" x="406.107728" xlink:href="#m9d359b05a9" y="60.295611"/>
     <use style="fill:#1f77b4;stroke:#ffffff;stroke-width:0.75;" x="413.242993" xlink:href="#m9d359b05a9" y="55.879326"/>
     <use style="fill:#1f77b4;stroke:#ffffff;stroke-width:0.75;" x="420.378257" xlink:href="#m9d359b05a9" y="54.082"/>
     <use style="fill:#1f77b4;stroke:#ffffff;stroke-width:0.75;" x="427.513522" xlink:href="#m9d359b05a9" y="54.030648"/>
     <use style="fill:#1f77b4;stroke:#ffffff;stroke-width:0.75;" x="434.648787" xlink:href="#m9d359b05a9" y="53.054957"/>
     <use style="fill:#1f77b4;stroke:#ffffff;stroke-width:0.75;" x="441.784052" xlink:href="#m9d359b05a9" y="52.849548"/>
     <use style="fill:#1f77b4;stroke:#ffffff;stroke-width:0.75;" x="448.919316" xlink:href="#m9d359b05a9" y="50.384645"/>
     <use style="fill:#1f77b4;stroke:#ffffff;stroke-width:0.75;" x="456.054581" xlink:href="#m9d359b05a9" y="49.973828"/>
     <use style="fill:#1f77b4;stroke:#ffffff;stroke-width:0.75;" x="463.189846" xlink:href="#m9d359b05a9" y="49.665715"/>
     <use style="fill:#1f77b4;stroke:#ffffff;stroke-width:0.75;" x="470.325111" xlink:href="#m9d359b05a9" y="47.868389"/>
     <use style="fill:#1f77b4;stroke:#ffffff;stroke-width:0.75;" x="477.460375" xlink:href="#m9d359b05a9" y="47.611629"/>
     <use style="fill:#1f77b4;stroke:#ffffff;stroke-width:0.75;" x="484.59564" xlink:href="#m9d359b05a9" y="46.944051"/>
     <use style="fill:#1f77b4;stroke:#ffffff;stroke-width:0.75;" x="491.730905" xlink:href="#m9d359b05a9" y="46.173768"/>
     <use style="fill:#1f77b4;stroke:#ffffff;stroke-width:0.75;" x="498.866169" xlink:href="#m9d359b05a9" y="46.173768"/>
     <use style="fill:#1f77b4;stroke:#ffffff;stroke-width:0.75;" x="506.001434" xlink:href="#m9d359b05a9" y="46.122416"/>
     <use style="fill:#1f77b4;stroke:#ffffff;stroke-width:0.75;" x="513.136699" xlink:href="#m9d359b05a9" y="46.071064"/>
     <use style="fill:#1f77b4;stroke:#ffffff;stroke-width:0.75;" x="520.271964" xlink:href="#m9d359b05a9" y="45.96836"/>
     <use style="fill:#1f77b4;stroke:#ffffff;stroke-width:0.75;" x="527.407228" xlink:href="#m9d359b05a9" y="44.78726"/>
     <use style="fill:#1f77b4;stroke:#ffffff;stroke-width:0.75;" x="534.542493" xlink:href="#m9d359b05a9" y="44.78726"/>
     <use style="fill:#1f77b4;stroke:#ffffff;stroke-width:0.75;" x="541.677758" xlink:href="#m9d359b05a9" y="44.78726"/>
     <use style="fill:#1f77b4;stroke:#ffffff;stroke-width:0.75;" x="548.813023" xlink:href="#m9d359b05a9" y="44.78726"/>
     <use style="fill:#1f77b4;stroke:#ffffff;stroke-width:0.75;" x="555.948287" xlink:href="#m9d359b05a9" y="44.78726"/>
     <use style="fill:#1f77b4;stroke:#ffffff;stroke-width:0.75;" x="563.083552" xlink:href="#m9d359b05a9" y="44.78726"/>
     <use style="fill:#1f77b4;stroke:#ffffff;stroke-width:0.75;" x="570.218817" xlink:href="#m9d359b05a9" y="44.78726"/>
     <use style="fill:#1f77b4;stroke:#ffffff;stroke-width:0.75;" x="577.354082" xlink:href="#m9d359b05a9" y="44.479147"/>
     <use style="fill:#1f77b4;stroke:#ffffff;stroke-width:0.75;" x="584.489346" xlink:href="#m9d359b05a9" y="43.914274"/>
     <use style="fill:#1f77b4;stroke:#ffffff;stroke-width:0.75;" x="591.624611" xlink:href="#m9d359b05a9" y="43.503456"/>
     <use style="fill:#1f77b4;stroke:#ffffff;stroke-width:0.75;" x="598.759876" xlink:href="#m9d359b05a9" y="43.452104"/>
     <use style="fill:#1f77b4;stroke:#ffffff;stroke-width:0.75;" x="605.89514" xlink:href="#m9d359b05a9" y="43.452104"/>
     <use style="fill:#1f77b4;stroke:#ffffff;stroke-width:0.75;" x="613.030405" xlink:href="#m9d359b05a9" y="43.452104"/>
     <use style="fill:#1f77b4;stroke:#ffffff;stroke-width:0.75;" x="620.16567" xlink:href="#m9d359b05a9" y="43.041287"/>
     <use style="fill:#1f77b4;stroke:#ffffff;stroke-width:0.75;" x="627.300935" xlink:href="#m9d359b05a9" y="43.041287"/>
     <use style="fill:#1f77b4;stroke:#ffffff;stroke-width:0.75;" x="634.436199" xlink:href="#m9d359b05a9" y="42.989935"/>
     <use style="fill:#1f77b4;stroke:#ffffff;stroke-width:0.75;" x="641.571464" xlink:href="#m9d359b05a9" y="42.938583"/>
     <use style="fill:#1f77b4;stroke:#ffffff;stroke-width:0.75;" x="648.706729" xlink:href="#m9d359b05a9" y="42.527765"/>
     <use style="fill:#1f77b4;stroke:#ffffff;stroke-width:0.75;" x="655.841994" xlink:href="#m9d359b05a9" y="42.065596"/>
     <use style="fill:#1f77b4;stroke:#ffffff;stroke-width:0.75;" x="662.977258" xlink:href="#m9d359b05a9" y="41.808835"/>
     <use style="fill:#1f77b4;stroke:#ffffff;stroke-width:0.75;" x="670.112523" xlink:href="#m9d359b05a9" y="41.243962"/>
     <use style="fill:#1f77b4;stroke:#ffffff;stroke-width:0.75;" x="677.247788" xlink:href="#m9d359b05a9" y="41.243962"/>
     <use style="fill:#1f77b4;stroke:#ffffff;stroke-width:0.75;" x="684.383053" xlink:href="#m9d359b05a9" y="41.243962"/>
     <use style="fill:#1f77b4;stroke:#ffffff;stroke-width:0.75;" x="691.518317" xlink:href="#m9d359b05a9" y="41.089905"/>
     <use style="fill:#1f77b4;stroke:#ffffff;stroke-width:0.75;" x="698.653582" xlink:href="#m9d359b05a9" y="40.935849"/>
     <use style="fill:#1f77b4;stroke:#ffffff;stroke-width:0.75;" x="705.788847" xlink:href="#m9d359b05a9" y="40.576384"/>
     <use style="fill:#1f77b4;stroke:#ffffff;stroke-width:0.75;" x="712.924112" xlink:href="#m9d359b05a9" y="40.576384"/>
     <use style="fill:#1f77b4;stroke:#ffffff;stroke-width:0.75;" x="720.059376" xlink:href="#m9d359b05a9" y="40.576384"/>
     <use style="fill:#1f77b4;stroke:#ffffff;stroke-width:0.75;" x="727.194641" xlink:href="#m9d359b05a9" y="40.576384"/>
     <use style="fill:#1f77b4;stroke:#ffffff;stroke-width:0.75;" x="734.329906" xlink:href="#m9d359b05a9" y="39.497988"/>
     <use style="fill:#1f77b4;stroke:#ffffff;stroke-width:0.75;" x="741.46517" xlink:href="#m9d359b05a9" y="38.522297"/>
    </g>
   </g>
   <g id="line2d_19">
    <path clip-path="url(#p3165abab1f)" d="M 92.15608 241.311956 
L 99.291344 181.383991 
L 106.426609 161.613412 
L 113.561874 149.802416 
L 120.697138 142.048241 
L 127.832403 136.502208 
L 134.967668 130.031837 
L 142.102933 128.43992 
L 149.238197 123.818226 
L 156.373462 120.223575 
L 163.508727 119.14518 
L 170.643992 119.042476 
L 177.779256 117.450559 
L 184.914521 116.474868 
L 192.049786 116.064051 
L 199.185051 114.266725 
L 206.320315 113.239682 
L 213.45558 112.212639 
L 220.590845 110.877483 
L 227.72611 110.107201 
L 234.861374 109.388271 
L 241.996639 108.823397 
L 249.131904 101.582743 
L 256.267168 96.088063 
L 263.402433 95.523189 
L 270.537698 94.59885 
L 277.672963 84.944645 
L 284.808227 84.174363 
L 291.943492 83.250024 
L 299.078757 83.250024 
L 306.214022 83.14732 
L 313.349286 83.095967 
L 320.484551 83.095967 
L 327.619816 83.095967 
L 334.755081 82.787855 
L 341.890345 82.68515 
L 349.02561 82.531094 
L 356.160875 82.531094 
L 363.296139 81.760811 
L 370.431404 81.760811 
L 377.566669 81.195938 
L 384.701934 80.785121 
L 391.837198 80.733768 
L 398.972463 78.576978 
L 406.107728 75.906666 
L 413.242993 75.547201 
L 420.378257 75.393144 
L 427.513522 66.149757 
L 434.648787 65.328122 
L 441.784052 64.8146 
L 448.919316 64.8146 
L 456.054581 62.195641 
L 463.189846 61.47671 
L 470.325111 61.47671 
L 477.460375 61.374006 
L 484.59564 61.117245 
L 491.730905 61.014541 
L 498.866169 60.295611 
L 506.001434 57.779355 
L 513.136699 57.779355 
L 520.271964 56.290143 
L 527.407228 56.290143 
L 534.542493 56.290143 
L 541.677758 56.238791 
L 548.813023 52.952253 
L 555.948287 51.308984 
L 563.083552 51.103575 
L 570.218817 50.846814 
L 577.354082 50.641406 
L 584.489346 50.590054 
L 591.624611 50.333293 
L 598.759876 50.127884 
L 605.89514 50.127884 
L 613.030405 49.563011 
L 620.16567 49.511658 
L 627.300935 49.511658 
L 634.436199 48.638672 
L 641.571464 48.58732 
L 648.706729 48.58732 
L 655.841994 48.279207 
L 662.977258 48.12515 
L 670.112523 48.073798 
L 677.247788 48.073798 
L 684.383053 47.971094 
L 691.518317 47.971094 
L 698.653582 47.971094 
L 705.788847 47.252164 
L 712.924112 46.892699 
L 720.059376 46.430529 
L 727.194641 45.865655 
L 734.329906 45.762951 
L 741.46517 45.711599 
" style="fill:none;stroke:#d62728;stroke-linecap:square;stroke-width:1.5;"/>
    <defs>
     <path d="M 0 -3 
L -3 3 
L 3 3 
z
" id="ma4bb175e99" style="stroke:#ffffff;stroke-linejoin:miter;stroke-width:0.75;"/>
    </defs>
    <g clip-path="url(#p3165abab1f)">
     <use style="fill:#d62728;stroke:#ffffff;stroke-linejoin:miter;stroke-width:0.75;" x="92.15608" xlink:href="#ma4bb175e99" y="241.311956"/>
     <use style="fill:#d62728;stroke:#ffffff;stroke-linejoin:miter;stroke-width:0.75;" x="99.291344" xlink:href="#ma4bb175e99" y="181.383991"/>
     <use style="fill:#d62728;stroke:#ffffff;stroke-linejoin:miter;stroke-width:0.75;" x="106.426609" xlink:href="#ma4bb175e99" y="161.613412"/>
     <use style="fill:#d62728;stroke:#ffffff;stroke-linejoin:miter;stroke-width:0.75;" x="113.561874" xlink:href="#ma4bb175e99" y="149.802416"/>
     <use style="fill:#d62728;stroke:#ffffff;stroke-linejoin:miter;stroke-width:0.75;" x="120.697138" xlink:href="#ma4bb175e99" y="142.048241"/>
     <use style="fill:#d62728;stroke:#ffffff;stroke-linejoin:miter;stroke-width:0.75;" x="127.832403" xlink:href="#ma4bb175e99" y="136.502208"/>
     <use style="fill:#d62728;stroke:#ffffff;stroke-linejoin:miter;stroke-width:0.75;" x="134.967668" xlink:href="#ma4bb175e99" y="130.031837"/>
     <use style="fill:#d62728;stroke:#ffffff;stroke-linejoin:miter;stroke-width:0.75;" x="142.102933" xlink:href="#ma4bb175e99" y="128.43992"/>
     <use style="fill:#d62728;stroke:#ffffff;stroke-linejoin:miter;stroke-width:0.75;" x="149.238197" xlink:href="#ma4bb175e99" y="123.818226"/>
     <use style="fill:#d62728;stroke:#ffffff;stroke-linejoin:miter;stroke-width:0.75;" x="156.373462" xlink:href="#ma4bb175e99" y="120.223575"/>
     <use style="fill:#d62728;stroke:#ffffff;stroke-linejoin:miter;stroke-width:0.75;" x="163.508727" xlink:href="#ma4bb175e99" y="119.14518"/>
     <use style="fill:#d62728;stroke:#ffffff;stroke-linejoin:miter;stroke-width:0.75;" x="170.643992" xlink:href="#ma4bb175e99" y="119.042476"/>
     <use style="fill:#d62728;stroke:#ffffff;stroke-linejoin:miter;stroke-width:0.75;" x="177.779256" xlink:href="#ma4bb175e99" y="117.450559"/>
     <use style="fill:#d62728;stroke:#ffffff;stroke-linejoin:miter;stroke-width:0.75;" x="184.914521" xlink:href="#ma4bb175e99" y="116.474868"/>
     <use style="fill:#d62728;stroke:#ffffff;stroke-linejoin:miter;stroke-width:0.75;" x="192.049786" xlink:href="#ma4bb175e99" y="116.064051"/>
     <use style="fill:#d62728;stroke:#ffffff;stroke-linejoin:miter;stroke-width:0.75;" x="199.185051" xlink:href="#ma4bb175e99" y="114.266725"/>
     <use style="fill:#d62728;stroke:#ffffff;stroke-linejoin:miter;stroke-width:0.75;" x="206.320315" xlink:href="#ma4bb175e99" y="113.239682"/>
     <use style="fill:#d62728;stroke:#ffffff;stroke-linejoin:miter;stroke-width:0.75;" x="213.45558" xlink:href="#ma4bb175e99" y="112.212639"/>
     <use style="fill:#d62728;stroke:#ffffff;stroke-linejoin:miter;stroke-width:0.75;" x="220.590845" xlink:href="#ma4bb175e99" y="110.877483"/>
     <use style="fill:#d62728;stroke:#ffffff;stroke-linejoin:miter;stroke-width:0.75;" x="227.72611" xlink:href="#ma4bb175e99" y="110.107201"/>
     <use style="fill:#d62728;stroke:#ffffff;stroke-linejoin:miter;stroke-width:0.75;" x="234.861374" xlink:href="#ma4bb175e99" y="109.388271"/>
     <use style="fill:#d62728;stroke:#ffffff;stroke-linejoin:miter;stroke-width:0.75;" x="241.996639" xlink:href="#ma4bb175e99" y="108.823397"/>
     <use style="fill:#d62728;stroke:#ffffff;stroke-linejoin:miter;stroke-width:0.75;" x="249.131904" xlink:href="#ma4bb175e99" y="101.582743"/>
     <use style="fill:#d62728;stroke:#ffffff;stroke-linejoin:miter;stroke-width:0.75;" x="256.267168" xlink:href="#ma4bb175e99" y="96.088063"/>
     <use style="fill:#d62728;stroke:#ffffff;stroke-linejoin:miter;stroke-width:0.75;" x="263.402433" xlink:href="#ma4bb175e99" y="95.523189"/>
     <use style="fill:#d62728;stroke:#ffffff;stroke-linejoin:miter;stroke-width:0.75;" x="270.537698" xlink:href="#ma4bb175e99" y="94.59885"/>
     <use style="fill:#d62728;stroke:#ffffff;stroke-linejoin:miter;stroke-width:0.75;" x="277.672963" xlink:href="#ma4bb175e99" y="84.944645"/>
     <use style="fill:#d62728;stroke:#ffffff;stroke-linejoin:miter;stroke-width:0.75;" x="284.808227" xlink:href="#ma4bb175e99" y="84.174363"/>
     <use style="fill:#d62728;stroke:#ffffff;stroke-linejoin:miter;stroke-width:0.75;" x="291.943492" xlink:href="#ma4bb175e99" y="83.250024"/>
     <use style="fill:#d62728;stroke:#ffffff;stroke-linejoin:miter;stroke-width:0.75;" x="299.078757" xlink:href="#ma4bb175e99" y="83.250024"/>
     <use style="fill:#d62728;stroke:#ffffff;stroke-linejoin:miter;stroke-width:0.75;" x="306.214022" xlink:href="#ma4bb175e99" y="83.14732"/>
     <use style="fill:#d62728;stroke:#ffffff;stroke-linejoin:miter;stroke-width:0.75;" x="313.349286" xlink:href="#ma4bb175e99" y="83.095967"/>
     <use style="fill:#d62728;stroke:#ffffff;stroke-linejoin:miter;stroke-width:0.75;" x="320.484551" xlink:href="#ma4bb175e99" y="83.095967"/>
     <use style="fill:#d62728;stroke:#ffffff;stroke-linejoin:miter;stroke-width:0.75;" x="327.619816" xlink:href="#ma4bb175e99" y="83.095967"/>
     <use style="fill:#d62728;stroke:#ffffff;stroke-linejoin:miter;stroke-width:0.75;" x="334.755081" xlink:href="#ma4bb175e99" y="82.787855"/>
     <use style="fill:#d62728;stroke:#ffffff;stroke-linejoin:miter;stroke-width:0.75;" x="341.890345" xlink:href="#ma4bb175e99" y="82.68515"/>
     <use style="fill:#d62728;stroke:#ffffff;stroke-linejoin:miter;stroke-width:0.75;" x="349.02561" xlink:href="#ma4bb175e99" y="82.531094"/>
     <use style="fill:#d62728;stroke:#ffffff;stroke-linejoin:miter;stroke-width:0.75;" x="356.160875" xlink:href="#ma4bb175e99" y="82.531094"/>
     <use style="fill:#d62728;stroke:#ffffff;stroke-linejoin:miter;stroke-width:0.75;" x="363.296139" xlink:href="#ma4bb175e99" y="81.760811"/>
     <use style="fill:#d62728;stroke:#ffffff;stroke-linejoin:miter;stroke-width:0.75;" x="370.431404" xlink:href="#ma4bb175e99" y="81.760811"/>
     <use style="fill:#d62728;stroke:#ffffff;stroke-linejoin:miter;stroke-width:0.75;" x="377.566669" xlink:href="#ma4bb175e99" y="81.195938"/>
     <use style="fill:#d62728;stroke:#ffffff;stroke-linejoin:miter;stroke-width:0.75;" x="384.701934" xlink:href="#ma4bb175e99" y="80.785121"/>
     <use style="fill:#d62728;stroke:#ffffff;stroke-linejoin:miter;stroke-width:0.75;" x="391.837198" xlink:href="#ma4bb175e99" y="80.733768"/>
     <use style="fill:#d62728;stroke:#ffffff;stroke-linejoin:miter;stroke-width:0.75;" x="398.972463" xlink:href="#ma4bb175e99" y="78.576978"/>
     <use style="fill:#d62728;stroke:#ffffff;stroke-linejoin:miter;stroke-width:0.75;" x="406.107728" xlink:href="#ma4bb175e99" y="75.906666"/>
     <use style="fill:#d62728;stroke:#ffffff;stroke-linejoin:miter;stroke-width:0.75;" x="413.242993" xlink:href="#ma4bb175e99" y="75.547201"/>
     <use style="fill:#d62728;stroke:#ffffff;stroke-linejoin:miter;stroke-width:0.75;" x="420.378257" xlink:href="#ma4bb175e99" y="75.393144"/>
     <use style="fill:#d62728;stroke:#ffffff;stroke-linejoin:miter;stroke-width:0.75;" x="427.513522" xlink:href="#ma4bb175e99" y="66.149757"/>
     <use style="fill:#d62728;stroke:#ffffff;stroke-linejoin:miter;stroke-width:0.75;" x="434.648787" xlink:href="#ma4bb175e99" y="65.328122"/>
     <use style="fill:#d62728;stroke:#ffffff;stroke-linejoin:miter;stroke-width:0.75;" x="441.784052" xlink:href="#ma4bb175e99" y="64.8146"/>
     <use style="fill:#d62728;stroke:#ffffff;stroke-linejoin:miter;stroke-width:0.75;" x="448.919316" xlink:href="#ma4bb175e99" y="64.8146"/>
     <use style="fill:#d62728;stroke:#ffffff;stroke-linejoin:miter;stroke-width:0.75;" x="456.054581" xlink:href="#ma4bb175e99" y="62.195641"/>
     <use style="fill:#d62728;stroke:#ffffff;stroke-linejoin:miter;stroke-width:0.75;" x="463.189846" xlink:href="#ma4bb175e99" y="61.47671"/>
     <use style="fill:#d62728;stroke:#ffffff;stroke-linejoin:miter;stroke-width:0.75;" x="470.325111" xlink:href="#ma4bb175e99" y="61.47671"/>
     <use style="fill:#d62728;stroke:#ffffff;stroke-linejoin:miter;stroke-width:0.75;" x="477.460375" xlink:href="#ma4bb175e99" y="61.374006"/>
     <use style="fill:#d62728;stroke:#ffffff;stroke-linejoin:miter;stroke-width:0.75;" x="484.59564" xlink:href="#ma4bb175e99" y="61.117245"/>
     <use style="fill:#d62728;stroke:#ffffff;stroke-linejoin:miter;stroke-width:0.75;" x="491.730905" xlink:href="#ma4bb175e99" y="61.014541"/>
     <use style="fill:#d62728;stroke:#ffffff;stroke-linejoin:miter;stroke-width:0.75;" x="498.866169" xlink:href="#ma4bb175e99" y="60.295611"/>
     <use style="fill:#d62728;stroke:#ffffff;stroke-linejoin:miter;stroke-width:0.75;" x="506.001434" xlink:href="#ma4bb175e99" y="57.779355"/>
     <use style="fill:#d62728;stroke:#ffffff;stroke-linejoin:miter;stroke-width:0.75;" x="513.136699" xlink:href="#ma4bb175e99" y="57.779355"/>
     <use style="fill:#d62728;stroke:#ffffff;stroke-linejoin:miter;stroke-width:0.75;" x="520.271964" xlink:href="#ma4bb175e99" y="56.290143"/>
     <use style="fill:#d62728;stroke:#ffffff;stroke-linejoin:miter;stroke-width:0.75;" x="527.407228" xlink:href="#ma4bb175e99" y="56.290143"/>
     <use style="fill:#d62728;stroke:#ffffff;stroke-linejoin:miter;stroke-width:0.75;" x="534.542493" xlink:href="#ma4bb175e99" y="56.290143"/>
     <use style="fill:#d62728;stroke:#ffffff;stroke-linejoin:miter;stroke-width:0.75;" x="541.677758" xlink:href="#ma4bb175e99" y="56.238791"/>
     <use style="fill:#d62728;stroke:#ffffff;stroke-linejoin:miter;stroke-width:0.75;" x="548.813023" xlink:href="#ma4bb175e99" y="52.952253"/>
     <use style="fill:#d62728;stroke:#ffffff;stroke-linejoin:miter;stroke-width:0.75;" x="555.948287" xlink:href="#ma4bb175e99" y="51.308984"/>
     <use style="fill:#d62728;stroke:#ffffff;stroke-linejoin:miter;stroke-width:0.75;" x="563.083552" xlink:href="#ma4bb175e99" y="51.103575"/>
     <use style="fill:#d62728;stroke:#ffffff;stroke-linejoin:miter;stroke-width:0.75;" x="570.218817" xlink:href="#ma4bb175e99" y="50.846814"/>
     <use style="fill:#d62728;stroke:#ffffff;stroke-linejoin:miter;stroke-width:0.75;" x="577.354082" xlink:href="#ma4bb175e99" y="50.641406"/>
     <use style="fill:#d62728;stroke:#ffffff;stroke-linejoin:miter;stroke-width:0.75;" x="584.489346" xlink:href="#ma4bb175e99" y="50.590054"/>
     <use style="fill:#d62728;stroke:#ffffff;stroke-linejoin:miter;stroke-width:0.75;" x="591.624611" xlink:href="#ma4bb175e99" y="50.333293"/>
     <use style="fill:#d62728;stroke:#ffffff;stroke-linejoin:miter;stroke-width:0.75;" x="598.759876" xlink:href="#ma4bb175e99" y="50.127884"/>
     <use style="fill:#d62728;stroke:#ffffff;stroke-linejoin:miter;stroke-width:0.75;" x="605.89514" xlink:href="#ma4bb175e99" y="50.127884"/>
     <use style="fill:#d62728;stroke:#ffffff;stroke-linejoin:miter;stroke-width:0.75;" x="613.030405" xlink:href="#ma4bb175e99" y="49.563011"/>
     <use style="fill:#d62728;stroke:#ffffff;stroke-linejoin:miter;stroke-width:0.75;" x="620.16567" xlink:href="#ma4bb175e99" y="49.511658"/>
     <use style="fill:#d62728;stroke:#ffffff;stroke-linejoin:miter;stroke-width:0.75;" x="627.300935" xlink:href="#ma4bb175e99" y="49.511658"/>
     <use style="fill:#d62728;stroke:#ffffff;stroke-linejoin:miter;stroke-width:0.75;" x="634.436199" xlink:href="#ma4bb175e99" y="48.638672"/>
     <use style="fill:#d62728;stroke:#ffffff;stroke-linejoin:miter;stroke-width:0.75;" x="641.571464" xlink:href="#ma4bb175e99" y="48.58732"/>
     <use style="fill:#d62728;stroke:#ffffff;stroke-linejoin:miter;stroke-width:0.75;" x="648.706729" xlink:href="#ma4bb175e99" y="48.58732"/>
     <use style="fill:#d62728;stroke:#ffffff;stroke-linejoin:miter;stroke-width:0.75;" x="655.841994" xlink:href="#ma4bb175e99" y="48.279207"/>
     <use style="fill:#d62728;stroke:#ffffff;stroke-linejoin:miter;stroke-width:0.75;" x="662.977258" xlink:href="#ma4bb175e99" y="48.12515"/>
     <use style="fill:#d62728;stroke:#ffffff;stroke-linejoin:miter;stroke-width:0.75;" x="670.112523" xlink:href="#ma4bb175e99" y="48.073798"/>
     <use style="fill:#d62728;stroke:#ffffff;stroke-linejoin:miter;stroke-width:0.75;" x="677.247788" xlink:href="#ma4bb175e99" y="48.073798"/>
     <use style="fill:#d62728;stroke:#ffffff;stroke-linejoin:miter;stroke-width:0.75;" x="684.383053" xlink:href="#ma4bb175e99" y="47.971094"/>
     <use style="fill:#d62728;stroke:#ffffff;stroke-linejoin:miter;stroke-width:0.75;" x="691.518317" xlink:href="#ma4bb175e99" y="47.971094"/>
     <use style="fill:#d62728;stroke:#ffffff;stroke-linejoin:miter;stroke-width:0.75;" x="698.653582" xlink:href="#ma4bb175e99" y="47.971094"/>
     <use style="fill:#d62728;stroke:#ffffff;stroke-linejoin:miter;stroke-width:0.75;" x="705.788847" xlink:href="#ma4bb175e99" y="47.252164"/>
     <use style="fill:#d62728;stroke:#ffffff;stroke-linejoin:miter;stroke-width:0.75;" x="712.924112" xlink:href="#ma4bb175e99" y="46.892699"/>
     <use style="fill:#d62728;stroke:#ffffff;stroke-linejoin:miter;stroke-width:0.75;" x="720.059376" xlink:href="#ma4bb175e99" y="46.430529"/>
     <use style="fill:#d62728;stroke:#ffffff;stroke-linejoin:miter;stroke-width:0.75;" x="727.194641" xlink:href="#ma4bb175e99" y="45.865655"/>
     <use style="fill:#d62728;stroke:#ffffff;stroke-linejoin:miter;stroke-width:0.75;" x="734.329906" xlink:href="#ma4bb175e99" y="45.762951"/>
     <use style="fill:#d62728;stroke:#ffffff;stroke-linejoin:miter;stroke-width:0.75;" x="741.46517" xlink:href="#ma4bb175e99" y="45.711599"/>
    </g>
   </g>
   <g id="line2d_20">
    <path clip-path="url(#p3165abab1f)" d="M 92.15608 270.942149 
L 99.291344 203.876235 
L 106.426609 173.167647 
L 113.561874 149.597008 
L 120.697138 133.9346 
L 127.832403 129.261554 
L 134.967668 125.410143 
L 142.102933 120.223575 
L 149.238197 113.445091 
L 156.373462 110.826131 
L 163.508727 109.285566 
L 170.643992 105.896324 
L 177.779256 103.996294 
L 184.914521 103.739534 
L 192.049786 102.969251 
L 199.185051 102.558434 
L 206.320315 101.942208 
L 213.45558 100.452996 
L 220.590845 98.244853 
L 227.72611 96.806993 
L 234.861374 95.625893 
L 241.996639 95.112372 
L 249.131904 94.085329 
L 256.267168 94.085329 
L 263.402433 93.315046 
L 270.537698 92.69882 
L 277.672963 92.647468 
L 284.808227 90.798791 
L 291.943492 89.977156 
L 299.078757 89.720395 
L 306.214022 86.433858 
L 313.349286 86.382505 
L 320.484551 86.382505 
L 327.619816 86.074392 
L 334.755081 85.817632 
L 341.890345 85.509519 
L 349.02561 84.995997 
L 356.160875 84.995997 
L 363.296139 84.893293 
L 370.431404 84.58518 
L 377.566669 84.533828 
L 384.701934 83.558137 
L 391.837198 81.195938 
L 398.972463 80.785121 
L 406.107728 80.117543 
L 413.242993 78.936443 
L 420.378257 78.885091 
L 427.513522 78.679682 
L 434.648787 78.62833 
L 441.784052 78.371569 
L 448.919316 78.371569 
L 456.054581 76.00937 
L 463.189846 76.00937 
L 470.325111 76.00937 
L 477.460375 64.09567 
L 484.59564 64.044318 
L 491.730905 64.044318 
L 498.866169 64.044318 
L 506.001434 64.044318 
L 513.136699 54.698226 
L 520.271964 54.441465 
L 527.407228 54.441465 
L 534.542493 54.236057 
L 541.677758 54.236057 
L 548.813023 53.619831 
L 555.948287 52.438731 
L 563.083552 52.387379 
L 570.218817 52.387379 
L 577.354082 52.18197 
L 584.489346 50.127884 
L 591.624611 50.127884 
L 598.759876 50.127884 
L 605.89514 50.127884 
L 613.030405 50.127884 
L 620.16567 49.30625 
L 627.300935 49.30625 
L 634.436199 47.714333 
L 641.571464 45.865655 
L 648.706729 45.814303 
L 655.841994 45.711599 
L 662.977258 45.711599 
L 670.112523 45.711599 
L 677.247788 45.352134 
L 684.383053 45.352134 
L 691.518317 44.941317 
L 698.653582 44.78726 
L 705.788847 44.684556 
L 712.924112 44.684556 
L 720.059376 44.684556 
L 727.194641 44.684556 
L 734.329906 44.684556 
L 741.46517 44.530499 
" style="fill:none;stroke:#98df8a;stroke-linecap:square;stroke-width:1.5;"/>
    <defs>
     <path d="M -0 3 
L 3 -3 
L -3 -3 
z
" id="m7ae219ca57" style="stroke:#ffffff;stroke-linejoin:miter;stroke-width:0.75;"/>
    </defs>
    <g clip-path="url(#p3165abab1f)">
     <use style="fill:#98df8a;stroke:#ffffff;stroke-linejoin:miter;stroke-width:0.75;" x="92.15608" xlink:href="#m7ae219ca57" y="270.942149"/>
     <use style="fill:#98df8a;stroke:#ffffff;stroke-linejoin:miter;stroke-width:0.75;" x="99.291344" xlink:href="#m7ae219ca57" y="203.876235"/>
     <use style="fill:#98df8a;stroke:#ffffff;stroke-linejoin:miter;stroke-width:0.75;" x="106.426609" xlink:href="#m7ae219ca57" y="173.167647"/>
     <use style="fill:#98df8a;stroke:#ffffff;stroke-linejoin:miter;stroke-width:0.75;" x="113.561874" xlink:href="#m7ae219ca57" y="149.597008"/>
     <use style="fill:#98df8a;stroke:#ffffff;stroke-linejoin:miter;stroke-width:0.75;" x="120.697138" xlink:href="#m7ae219ca57" y="133.9346"/>
     <use style="fill:#98df8a;stroke:#ffffff;stroke-linejoin:miter;stroke-width:0.75;" x="127.832403" xlink:href="#m7ae219ca57" y="129.261554"/>
     <use style="fill:#98df8a;stroke:#ffffff;stroke-linejoin:miter;stroke-width:0.75;" x="134.967668" xlink:href="#m7ae219ca57" y="125.410143"/>
     <use style="fill:#98df8a;stroke:#ffffff;stroke-linejoin:miter;stroke-width:0.75;" x="142.102933" xlink:href="#m7ae219ca57" y="120.223575"/>
     <use style="fill:#98df8a;stroke:#ffffff;stroke-linejoin:miter;stroke-width:0.75;" x="149.238197" xlink:href="#m7ae219ca57" y="113.445091"/>
     <use style="fill:#98df8a;stroke:#ffffff;stroke-linejoin:miter;stroke-width:0.75;" x="156.373462" xlink:href="#m7ae219ca57" y="110.826131"/>
     <use style="fill:#98df8a;stroke:#ffffff;stroke-linejoin:miter;stroke-width:0.75;" x="163.508727" xlink:href="#m7ae219ca57" y="109.285566"/>
     <use style="fill:#98df8a;stroke:#ffffff;stroke-linejoin:miter;stroke-width:0.75;" x="170.643992" xlink:href="#m7ae219ca57" y="105.896324"/>
     <use style="fill:#98df8a;stroke:#ffffff;stroke-linejoin:miter;stroke-width:0.75;" x="177.779256" xlink:href="#m7ae219ca57" y="103.996294"/>
     <use style="fill:#98df8a;stroke:#ffffff;stroke-linejoin:miter;stroke-width:0.75;" x="184.914521" xlink:href="#m7ae219ca57" y="103.739534"/>
     <use style="fill:#98df8a;stroke:#ffffff;stroke-linejoin:miter;stroke-width:0.75;" x="192.049786" xlink:href="#m7ae219ca57" y="102.969251"/>
     <use style="fill:#98df8a;stroke:#ffffff;stroke-linejoin:miter;stroke-width:0.75;" x="199.185051" xlink:href="#m7ae219ca57" y="102.558434"/>
     <use style="fill:#98df8a;stroke:#ffffff;stroke-linejoin:miter;stroke-width:0.75;" x="206.320315" xlink:href="#m7ae219ca57" y="101.942208"/>
     <use style="fill:#98df8a;stroke:#ffffff;stroke-linejoin:miter;stroke-width:0.75;" x="213.45558" xlink:href="#m7ae219ca57" y="100.452996"/>
     <use style="fill:#98df8a;stroke:#ffffff;stroke-linejoin:miter;stroke-width:0.75;" x="220.590845" xlink:href="#m7ae219ca57" y="98.244853"/>
     <use style="fill:#98df8a;stroke:#ffffff;stroke-linejoin:miter;stroke-width:0.75;" x="227.72611" xlink:href="#m7ae219ca57" y="96.806993"/>
     <use style="fill:#98df8a;stroke:#ffffff;stroke-linejoin:miter;stroke-width:0.75;" x="234.861374" xlink:href="#m7ae219ca57" y="95.625893"/>
     <use style="fill:#98df8a;stroke:#ffffff;stroke-linejoin:miter;stroke-width:0.75;" x="241.996639" xlink:href="#m7ae219ca57" y="95.112372"/>
     <use style="fill:#98df8a;stroke:#ffffff;stroke-linejoin:miter;stroke-width:0.75;" x="249.131904" xlink:href="#m7ae219ca57" y="94.085329"/>
     <use style="fill:#98df8a;stroke:#ffffff;stroke-linejoin:miter;stroke-width:0.75;" x="256.267168" xlink:href="#m7ae219ca57" y="94.085329"/>
     <use style="fill:#98df8a;stroke:#ffffff;stroke-linejoin:miter;stroke-width:0.75;" x="263.402433" xlink:href="#m7ae219ca57" y="93.315046"/>
     <use style="fill:#98df8a;stroke:#ffffff;stroke-linejoin:miter;stroke-width:0.75;" x="270.537698" xlink:href="#m7ae219ca57" y="92.69882"/>
     <use style="fill:#98df8a;stroke:#ffffff;stroke-linejoin:miter;stroke-width:0.75;" x="277.672963" xlink:href="#m7ae219ca57" y="92.647468"/>
     <use style="fill:#98df8a;stroke:#ffffff;stroke-linejoin:miter;stroke-width:0.75;" x="284.808227" xlink:href="#m7ae219ca57" y="90.798791"/>
     <use style="fill:#98df8a;stroke:#ffffff;stroke-linejoin:miter;stroke-width:0.75;" x="291.943492" xlink:href="#m7ae219ca57" y="89.977156"/>
     <use style="fill:#98df8a;stroke:#ffffff;stroke-linejoin:miter;stroke-width:0.75;" x="299.078757" xlink:href="#m7ae219ca57" y="89.720395"/>
     <use style="fill:#98df8a;stroke:#ffffff;stroke-linejoin:miter;stroke-width:0.75;" x="306.214022" xlink:href="#m7ae219ca57" y="86.433858"/>
     <use style="fill:#98df8a;stroke:#ffffff;stroke-linejoin:miter;stroke-width:0.75;" x="313.349286" xlink:href="#m7ae219ca57" y="86.382505"/>
     <use style="fill:#98df8a;stroke:#ffffff;stroke-linejoin:miter;stroke-width:0.75;" x="320.484551" xlink:href="#m7ae219ca57" y="86.382505"/>
     <use style="fill:#98df8a;stroke:#ffffff;stroke-linejoin:miter;stroke-width:0.75;" x="327.619816" xlink:href="#m7ae219ca57" y="86.074392"/>
     <use style="fill:#98df8a;stroke:#ffffff;stroke-linejoin:miter;stroke-width:0.75;" x="334.755081" xlink:href="#m7ae219ca57" y="85.817632"/>
     <use style="fill:#98df8a;stroke:#ffffff;stroke-linejoin:miter;stroke-width:0.75;" x="341.890345" xlink:href="#m7ae219ca57" y="85.509519"/>
     <use style="fill:#98df8a;stroke:#ffffff;stroke-linejoin:miter;stroke-width:0.75;" x="349.02561" xlink:href="#m7ae219ca57" y="84.995997"/>
     <use style="fill:#98df8a;stroke:#ffffff;stroke-linejoin:miter;stroke-width:0.75;" x="356.160875" xlink:href="#m7ae219ca57" y="84.995997"/>
     <use style="fill:#98df8a;stroke:#ffffff;stroke-linejoin:miter;stroke-width:0.75;" x="363.296139" xlink:href="#m7ae219ca57" y="84.893293"/>
     <use style="fill:#98df8a;stroke:#ffffff;stroke-linejoin:miter;stroke-width:0.75;" x="370.431404" xlink:href="#m7ae219ca57" y="84.58518"/>
     <use style="fill:#98df8a;stroke:#ffffff;stroke-linejoin:miter;stroke-width:0.75;" x="377.566669" xlink:href="#m7ae219ca57" y="84.533828"/>
     <use style="fill:#98df8a;stroke:#ffffff;stroke-linejoin:miter;stroke-width:0.75;" x="384.701934" xlink:href="#m7ae219ca57" y="83.558137"/>
     <use style="fill:#98df8a;stroke:#ffffff;stroke-linejoin:miter;stroke-width:0.75;" x="391.837198" xlink:href="#m7ae219ca57" y="81.195938"/>
     <use style="fill:#98df8a;stroke:#ffffff;stroke-linejoin:miter;stroke-width:0.75;" x="398.972463" xlink:href="#m7ae219ca57" y="80.785121"/>
     <use style="fill:#98df8a;stroke:#ffffff;stroke-linejoin:miter;stroke-width:0.75;" x="406.107728" xlink:href="#m7ae219ca57" y="80.117543"/>
     <use style="fill:#98df8a;stroke:#ffffff;stroke-linejoin:miter;stroke-width:0.75;" x="413.242993" xlink:href="#m7ae219ca57" y="78.936443"/>
     <use style="fill:#98df8a;stroke:#ffffff;stroke-linejoin:miter;stroke-width:0.75;" x="420.378257" xlink:href="#m7ae219ca57" y="78.885091"/>
     <use style="fill:#98df8a;stroke:#ffffff;stroke-linejoin:miter;stroke-width:0.75;" x="427.513522" xlink:href="#m7ae219ca57" y="78.679682"/>
     <use style="fill:#98df8a;stroke:#ffffff;stroke-linejoin:miter;stroke-width:0.75;" x="434.648787" xlink:href="#m7ae219ca57" y="78.62833"/>
     <use style="fill:#98df8a;stroke:#ffffff;stroke-linejoin:miter;stroke-width:0.75;" x="441.784052" xlink:href="#m7ae219ca57" y="78.371569"/>
     <use style="fill:#98df8a;stroke:#ffffff;stroke-linejoin:miter;stroke-width:0.75;" x="448.919316" xlink:href="#m7ae219ca57" y="78.371569"/>
     <use style="fill:#98df8a;stroke:#ffffff;stroke-linejoin:miter;stroke-width:0.75;" x="456.054581" xlink:href="#m7ae219ca57" y="76.00937"/>
     <use style="fill:#98df8a;stroke:#ffffff;stroke-linejoin:miter;stroke-width:0.75;" x="463.189846" xlink:href="#m7ae219ca57" y="76.00937"/>
     <use style="fill:#98df8a;stroke:#ffffff;stroke-linejoin:miter;stroke-width:0.75;" x="470.325111" xlink:href="#m7ae219ca57" y="76.00937"/>
     <use style="fill:#98df8a;stroke:#ffffff;stroke-linejoin:miter;stroke-width:0.75;" x="477.460375" xlink:href="#m7ae219ca57" y="64.09567"/>
     <use style="fill:#98df8a;stroke:#ffffff;stroke-linejoin:miter;stroke-width:0.75;" x="484.59564" xlink:href="#m7ae219ca57" y="64.044318"/>
     <use style="fill:#98df8a;stroke:#ffffff;stroke-linejoin:miter;stroke-width:0.75;" x="491.730905" xlink:href="#m7ae219ca57" y="64.044318"/>
     <use style="fill:#98df8a;stroke:#ffffff;stroke-linejoin:miter;stroke-width:0.75;" x="498.866169" xlink:href="#m7ae219ca57" y="64.044318"/>
     <use style="fill:#98df8a;stroke:#ffffff;stroke-linejoin:miter;stroke-width:0.75;" x="506.001434" xlink:href="#m7ae219ca57" y="64.044318"/>
     <use style="fill:#98df8a;stroke:#ffffff;stroke-linejoin:miter;stroke-width:0.75;" x="513.136699" xlink:href="#m7ae219ca57" y="54.698226"/>
     <use style="fill:#98df8a;stroke:#ffffff;stroke-linejoin:miter;stroke-width:0.75;" x="520.271964" xlink:href="#m7ae219ca57" y="54.441465"/>
     <use style="fill:#98df8a;stroke:#ffffff;stroke-linejoin:miter;stroke-width:0.75;" x="527.407228" xlink:href="#m7ae219ca57" y="54.441465"/>
     <use style="fill:#98df8a;stroke:#ffffff;stroke-linejoin:miter;stroke-width:0.75;" x="534.542493" xlink:href="#m7ae219ca57" y="54.236057"/>
     <use style="fill:#98df8a;stroke:#ffffff;stroke-linejoin:miter;stroke-width:0.75;" x="541.677758" xlink:href="#m7ae219ca57" y="54.236057"/>
     <use style="fill:#98df8a;stroke:#ffffff;stroke-linejoin:miter;stroke-width:0.75;" x="548.813023" xlink:href="#m7ae219ca57" y="53.619831"/>
     <use style="fill:#98df8a;stroke:#ffffff;stroke-linejoin:miter;stroke-width:0.75;" x="555.948287" xlink:href="#m7ae219ca57" y="52.438731"/>
     <use style="fill:#98df8a;stroke:#ffffff;stroke-linejoin:miter;stroke-width:0.75;" x="563.083552" xlink:href="#m7ae219ca57" y="52.387379"/>
     <use style="fill:#98df8a;stroke:#ffffff;stroke-linejoin:miter;stroke-width:0.75;" x="570.218817" xlink:href="#m7ae219ca57" y="52.387379"/>
     <use style="fill:#98df8a;stroke:#ffffff;stroke-linejoin:miter;stroke-width:0.75;" x="577.354082" xlink:href="#m7ae219ca57" y="52.18197"/>
     <use style="fill:#98df8a;stroke:#ffffff;stroke-linejoin:miter;stroke-width:0.75;" x="584.489346" xlink:href="#m7ae219ca57" y="50.127884"/>
     <use style="fill:#98df8a;stroke:#ffffff;stroke-linejoin:miter;stroke-width:0.75;" x="591.624611" xlink:href="#m7ae219ca57" y="50.127884"/>
     <use style="fill:#98df8a;stroke:#ffffff;stroke-linejoin:miter;stroke-width:0.75;" x="598.759876" xlink:href="#m7ae219ca57" y="50.127884"/>
     <use style="fill:#98df8a;stroke:#ffffff;stroke-linejoin:miter;stroke-width:0.75;" x="605.89514" xlink:href="#m7ae219ca57" y="50.127884"/>
     <use style="fill:#98df8a;stroke:#ffffff;stroke-linejoin:miter;stroke-width:0.75;" x="613.030405" xlink:href="#m7ae219ca57" y="50.127884"/>
     <use style="fill:#98df8a;stroke:#ffffff;stroke-linejoin:miter;stroke-width:0.75;" x="620.16567" xlink:href="#m7ae219ca57" y="49.30625"/>
     <use style="fill:#98df8a;stroke:#ffffff;stroke-linejoin:miter;stroke-width:0.75;" x="627.300935" xlink:href="#m7ae219ca57" y="49.30625"/>
     <use style="fill:#98df8a;stroke:#ffffff;stroke-linejoin:miter;stroke-width:0.75;" x="634.436199" xlink:href="#m7ae219ca57" y="47.714333"/>
     <use style="fill:#98df8a;stroke:#ffffff;stroke-linejoin:miter;stroke-width:0.75;" x="641.571464" xlink:href="#m7ae219ca57" y="45.865655"/>
     <use style="fill:#98df8a;stroke:#ffffff;stroke-linejoin:miter;stroke-width:0.75;" x="648.706729" xlink:href="#m7ae219ca57" y="45.814303"/>
     <use style="fill:#98df8a;stroke:#ffffff;stroke-linejoin:miter;stroke-width:0.75;" x="655.841994" xlink:href="#m7ae219ca57" y="45.711599"/>
     <use style="fill:#98df8a;stroke:#ffffff;stroke-linejoin:miter;stroke-width:0.75;" x="662.977258" xlink:href="#m7ae219ca57" y="45.711599"/>
     <use style="fill:#98df8a;stroke:#ffffff;stroke-linejoin:miter;stroke-width:0.75;" x="670.112523" xlink:href="#m7ae219ca57" y="45.711599"/>
     <use style="fill:#98df8a;stroke:#ffffff;stroke-linejoin:miter;stroke-width:0.75;" x="677.247788" xlink:href="#m7ae219ca57" y="45.352134"/>
     <use style="fill:#98df8a;stroke:#ffffff;stroke-linejoin:miter;stroke-width:0.75;" x="684.383053" xlink:href="#m7ae219ca57" y="45.352134"/>
     <use style="fill:#98df8a;stroke:#ffffff;stroke-linejoin:miter;stroke-width:0.75;" x="691.518317" xlink:href="#m7ae219ca57" y="44.941317"/>
     <use style="fill:#98df8a;stroke:#ffffff;stroke-linejoin:miter;stroke-width:0.75;" x="698.653582" xlink:href="#m7ae219ca57" y="44.78726"/>
     <use style="fill:#98df8a;stroke:#ffffff;stroke-linejoin:miter;stroke-width:0.75;" x="705.788847" xlink:href="#m7ae219ca57" y="44.684556"/>
     <use style="fill:#98df8a;stroke:#ffffff;stroke-linejoin:miter;stroke-width:0.75;" x="712.924112" xlink:href="#m7ae219ca57" y="44.684556"/>
     <use style="fill:#98df8a;stroke:#ffffff;stroke-linejoin:miter;stroke-width:0.75;" x="720.059376" xlink:href="#m7ae219ca57" y="44.684556"/>
     <use style="fill:#98df8a;stroke:#ffffff;stroke-linejoin:miter;stroke-width:0.75;" x="727.194641" xlink:href="#m7ae219ca57" y="44.684556"/>
     <use style="fill:#98df8a;stroke:#ffffff;stroke-linejoin:miter;stroke-width:0.75;" x="734.329906" xlink:href="#m7ae219ca57" y="44.684556"/>
     <use style="fill:#98df8a;stroke:#ffffff;stroke-linejoin:miter;stroke-width:0.75;" x="741.46517" xlink:href="#m7ae219ca57" y="44.530499"/>
    </g>
   </g>
   <g id="line2d_21"/>
   <g id="line2d_22"/>
   <g id="line2d_23"/>
   <g id="line2d_24">
    <path clip-path="url(#p3165abab1f)" d="M 741.46517 288.430125 
L 741.46517 22.318125 
" style="fill:none;stroke:#ff0000;stroke-linecap:square;stroke-width:1.5;"/>
   </g>
   <g id="patch_3">
    <path d="M 59.690625 238.692996 
L 59.690625 33.284378 
" style="fill:none;stroke:#000000;stroke-linecap:square;stroke-linejoin:miter;stroke-width:0.8;"/>
   </g>
   <g id="patch_4">
    <path d="M 92.15608 288.430125 
L 693.896739 288.430125 
" style="fill:none;stroke:#000000;stroke-linecap:square;stroke-linejoin:miter;stroke-width:0.8;"/>
   </g>
   <g id="text_20">
    <!-- php_php-fuzz-parser (23h, 20 trials/fuzzer) -->
    <g transform="translate(288.46125 16.318125)scale(0.12 -0.12)">
     <defs>
      <path d="M 1159 525 
L 1159 -1331 
L 581 -1331 
L 581 3500 
L 1159 3500 
L 1159 2969 
Q 1341 3281 1617 3432 
Q 1894 3584 2278 3584 
Q 2916 3584 3314 3078 
Q 3713 2572 3713 1747 
Q 3713 922 3314 415 
Q 2916 -91 2278 -91 
Q 1894 -91 1617 61 
Q 1341 213 1159 525 
z
M 3116 1747 
Q 3116 2381 2855 2742 
Q 2594 3103 2138 3103 
Q 1681 3103 1420 2742 
Q 1159 2381 1159 1747 
Q 1159 1113 1420 752 
Q 1681 391 2138 391 
Q 2594 391 2855 752 
Q 3116 1113 3116 1747 
z
" id="DejaVuSans-70" transform="scale(0.015625)"/>
      <path d="M 3263 -1063 
L 3263 -1509 
L -63 -1509 
L -63 -1063 
L 3263 -1063 
z
" id="DejaVuSans-5f" transform="scale(0.015625)"/>
      <path d="M 313 2009 
L 1997 2009 
L 1997 1497 
L 313 1497 
L 313 2009 
z
" id="DejaVuSans-2d" transform="scale(0.015625)"/>
      <path d="M 2375 4863 
L 2375 4384 
L 1825 4384 
Q 1516 4384 1395 4259 
Q 1275 4134 1275 3809 
L 1275 3500 
L 2222 3500 
L 2222 3053 
L 1275 3053 
L 1275 0 
L 697 0 
L 697 3053 
L 147 3053 
L 147 3500 
L 697 3500 
L 697 3744 
Q 697 4328 969 4595 
Q 1241 4863 1831 4863 
L 2375 4863 
z
" id="DejaVuSans-66" transform="scale(0.015625)"/>
      <path d="M 353 3500 
L 3084 3500 
L 3084 2975 
L 922 459 
L 3084 459 
L 3084 0 
L 275 0 
L 275 525 
L 2438 3041 
L 353 3041 
L 353 3500 
z
" id="DejaVuSans-7a" transform="scale(0.015625)"/>
      <path d="M 2834 3397 
L 2834 2853 
Q 2591 2978 2328 3040 
Q 2066 3103 1784 3103 
Q 1356 3103 1142 2972 
Q 928 2841 928 2578 
Q 928 2378 1081 2264 
Q 1234 2150 1697 2047 
L 1894 2003 
Q 2506 1872 2764 1633 
Q 3022 1394 3022 966 
Q 3022 478 2636 193 
Q 2250 -91 1575 -91 
Q 1294 -91 989 -36 
Q 684 19 347 128 
L 347 722 
Q 666 556 975 473 
Q 1284 391 1588 391 
Q 1994 391 2212 530 
Q 2431 669 2431 922 
Q 2431 1156 2273 1281 
Q 2116 1406 1581 1522 
L 1381 1569 
Q 847 1681 609 1914 
Q 372 2147 372 2553 
Q 372 3047 722 3315 
Q 1072 3584 1716 3584 
Q 2034 3584 2315 3537 
Q 2597 3491 2834 3397 
z
" id="DejaVuSans-73" transform="scale(0.015625)"/>
      <path d="M 750 794 
L 1409 794 
L 1409 256 
L 897 -744 
L 494 -744 
L 750 256 
L 750 794 
z
" id="DejaVuSans-2c" transform="scale(0.015625)"/>
      <path d="M 603 4863 
L 1178 4863 
L 1178 0 
L 603 0 
L 603 4863 
z
" id="DejaVuSans-6c" transform="scale(0.015625)"/>
      <path d="M 1625 4666 
L 2156 4666 
L 531 -594 
L 0 -594 
L 1625 4666 
z
" id="DejaVuSans-2f" transform="scale(0.015625)"/>
     </defs>
     <use xlink:href="#DejaVuSans-70"/>
     <use x="63.476562" xlink:href="#DejaVuSans-68"/>
     <use x="126.855469" xlink:href="#DejaVuSans-70"/>
     <use x="190.332031" xlink:href="#DejaVuSans-5f"/>
     <use x="240.332031" xlink:href="#DejaVuSans-70"/>
     <use x="303.808594" xlink:href="#DejaVuSans-68"/>
     <use x="367.1875" xlink:href="#DejaVuSans-70"/>
     <use x="430.664062" xlink:href="#DejaVuSans-2d"/>
     <use x="466.748047" xlink:href="#DejaVuSans-66"/>
     <use x="501.953125" xlink:href="#DejaVuSans-75"/>
     <use x="565.332031" xlink:href="#DejaVuSans-7a"/>
     <use x="617.822266" xlink:href="#DejaVuSans-7a"/>
     <use x="670.3125" xlink:href="#DejaVuSans-2d"/>
     <use x="706.396484" xlink:href="#DejaVuSans-70"/>
     <use x="769.873047" xlink:href="#DejaVuSans-61"/>
     <use x="831.152344" xlink:href="#DejaVuSans-72"/>
     <use x="872.265625" xlink:href="#DejaVuSans-73"/>
     <use x="924.365234" xlink:href="#DejaVuSans-65"/>
     <use x="985.888672" xlink:href="#DejaVuSans-72"/>
     <use x="1027.001953" xlink:href="#DejaVuSans-20"/>
     <use x="1058.789062" xlink:href="#DejaVuSans-28"/>
     <use x="1097.802734" xlink:href="#DejaVuSans-32"/>
     <use x="1161.425781" xlink:href="#DejaVuSans-33"/>
     <use x="1225.048828" xlink:href="#DejaVuSans-68"/>
     <use x="1288.427734" xlink:href="#DejaVuSans-2c"/>
     <use x="1320.214844" xlink:href="#DejaVuSans-20"/>
     <use x="1352.001953" xlink:href="#DejaVuSans-32"/>
     <use x="1415.625" xlink:href="#DejaVuSans-30"/>
     <use x="1479.248047" xlink:href="#DejaVuSans-20"/>
     <use x="1511.035156" xlink:href="#DejaVuSans-74"/>
     <use x="1550.244141" xlink:href="#DejaVuSans-72"/>
     <use x="1591.357422" xlink:href="#DejaVuSans-69"/>
     <use x="1619.140625" xlink:href="#DejaVuSans-61"/>
     <use x="1680.419922" xlink:href="#DejaVuSans-6c"/>
     <use x="1708.203125" xlink:href="#DejaVuSans-73"/>
     <use x="1760.302734" xlink:href="#DejaVuSans-2f"/>
     <use x="1793.994141" xlink:href="#DejaVuSans-66"/>
     <use x="1829.199219" xlink:href="#DejaVuSans-75"/>
     <use x="1892.578125" xlink:href="#DejaVuSans-7a"/>
     <use x="1945.068359" xlink:href="#DejaVuSans-7a"/>
     <use x="1997.558594" xlink:href="#DejaVuSans-65"/>
     <use x="2059.082031" xlink:href="#DejaVuSans-72"/>
     <use x="2100.195312" xlink:href="#DejaVuSans-29"/>
    </g>
   </g>
   <g id="legend_1">
    <g id="line2d_25">
     <path d="M 777.930625 30.416562 
L 797.930625 30.416562 
" style="fill:none;stroke:#1f77b4;stroke-linecap:square;stroke-width:1.5;"/>
    </g>
    <g id="line2d_26">
     <defs>
      <path d="M 0 3 
C 0.795609 3 1.55874 2.683901 2.12132 2.12132 
C 2.683901 1.55874 3 0.795609 3 0 
C 3 -0.795609 2.683901 -1.55874 2.12132 -2.12132 
C 1.55874 -2.683901 0.795609 -3 0 -3 
C -0.795609 -3 -1.55874 -2.683901 -2.12132 -2.12132 
C -2.683901 -1.55874 -3 -0.795609 -3 0 
C -3 0.795609 -2.683901 1.55874 -2.12132 2.12132 
C -1.55874 2.683901 -0.795609 3 0 3 
z
" id="m312ce100e5" style="stroke:#1f77b4;"/>
     </defs>
     <g>
      <use style="fill:#1f77b4;stroke:#1f77b4;" x="787.930625" xlink:href="#m312ce100e5" y="30.416562"/>
     </g>
    </g>
    <g id="text_21">
     <!-- afl_2_52_b -->
     <g transform="translate(805.930625 33.916562)scale(0.1 -0.1)">
      <defs>
       <path d="M 3116 1747 
Q 3116 2381 2855 2742 
Q 2594 3103 2138 3103 
Q 1681 3103 1420 2742 
Q 1159 2381 1159 1747 
Q 1159 1113 1420 752 
Q 1681 391 2138 391 
Q 2594 391 2855 752 
Q 3116 1113 3116 1747 
z
M 1159 2969 
Q 1341 3281 1617 3432 
Q 1894 3584 2278 3584 
Q 2916 3584 3314 3078 
Q 3713 2572 3713 1747 
Q 3713 922 3314 415 
Q 2916 -91 2278 -91 
Q 1894 -91 1617 61 
Q 1341 213 1159 525 
L 1159 0 
L 581 0 
L 581 4863 
L 1159 4863 
L 1159 2969 
z
" id="DejaVuSans-62" transform="scale(0.015625)"/>
      </defs>
      <use xlink:href="#DejaVuSans-61"/>
      <use x="61.279297" xlink:href="#DejaVuSans-66"/>
      <use x="96.484375" xlink:href="#DejaVuSans-6c"/>
      <use x="124.267578" xlink:href="#DejaVuSans-5f"/>
      <use x="174.267578" xlink:href="#DejaVuSans-32"/>
      <use x="237.890625" xlink:href="#DejaVuSans-5f"/>
      <use x="287.890625" xlink:href="#DejaVuSans-35"/>
      <use x="351.513672" xlink:href="#DejaVuSans-32"/>
      <use x="415.136719" xlink:href="#DejaVuSans-5f"/>
      <use x="465.136719" xlink:href="#DejaVuSans-62"/>
     </g>
    </g>
    <g id="line2d_27">
     <path d="M 777.930625 45.372813 
L 797.930625 45.372813 
" style="fill:none;stroke:#d62728;stroke-linecap:square;stroke-width:1.5;"/>
    </g>
    <g id="line2d_28">
     <defs>
      <path d="M 0 -3 
L -3 3 
L 3 3 
z
" id="mb69305525f" style="stroke:#d62728;stroke-linejoin:miter;"/>
     </defs>
     <g>
      <use style="fill:#d62728;stroke:#d62728;stroke-linejoin:miter;" x="787.930625" xlink:href="#mb69305525f" y="45.372813"/>
     </g>
    </g>
    <g id="text_22">
     <!-- mopt -->
     <g transform="translate(805.930625 48.872813)scale(0.1 -0.1)">
      <use xlink:href="#DejaVuSans-6d"/>
      <use x="97.412109" xlink:href="#DejaVuSans-6f"/>
      <use x="158.59375" xlink:href="#DejaVuSans-70"/>
      <use x="222.070312" xlink:href="#DejaVuSans-74"/>
     </g>
    </g>
    <g id="line2d_29">
     <path d="M 777.930625 60.050937 
L 797.930625 60.050937 
" style="fill:none;stroke:#98df8a;stroke-linecap:square;stroke-width:1.5;"/>
    </g>
    <g id="line2d_30">
     <defs>
      <path d="M -0 3 
L 3 -3 
L -3 -3 
z
" id="mc44d2de052" style="stroke:#98df8a;stroke-linejoin:miter;"/>
     </defs>
     <g>
      <use style="fill:#98df8a;stroke:#98df8a;stroke-linejoin:miter;" x="787.930625" xlink:href="#mc44d2de052" y="60.050937"/>
     </g>
    </g>
    <g id="text_23">
     <!-- fafuzz -->
     <g transform="translate(805.930625 63.550937)scale(0.1 -0.1)">
      <use xlink:href="#DejaVuSans-66"/>
      <use x="35.205078" xlink:href="#DejaVuSans-61"/>
      <use x="96.484375" xlink:href="#DejaVuSans-66"/>
      <use x="131.689453" xlink:href="#DejaVuSans-75"/>
      <use x="195.068359" xlink:href="#DejaVuSans-7a"/>
      <use x="247.558594" xlink:href="#DejaVuSans-7a"/>
     </g>
    </g>
   </g>
  </g>
 </g>
 <defs>
  <clipPath id="p3165abab1f">
   <rect height="266.112" width="714.24" x="59.690625" y="22.318125"/>
  </clipPath>
 </defs>
</svg>
