<?xml version="1.0" encoding="utf-8" standalone="no"?>
<!DOCTYPE svg PUBLIC "-//W3C//DTD SVG 1.1//EN"
  "http://www.w3.org/Graphics/SVG/1.1/DTD/svg11.dtd">
<svg height="325.986375pt" version="1.1" viewBox="0 0 863.630625 325.986375" width="863.630625pt" xmlns="http://www.w3.org/2000/svg" xmlns:xlink="http://www.w3.org/1999/xlink">
 <metadata>
  <rdf:RDF xmlns:cc="http://creativecommons.org/ns#" xmlns:dc="http://purl.org/dc/elements/1.1/" xmlns:rdf="http://www.w3.org/1999/02/22-rdf-syntax-ns#">
   <cc:Work>
    <dc:type rdf:resource="http://purl.org/dc/dcmitype/StillImage"/>
    <dc:date>2021-12-16T18:49:30.306223</dc:date>
    <dc:format>image/svg+xml</dc:format>
    <dc:creator>
     <cc:Agent>
      <dc:title>Matplotlib v3.4.1, https://matplotlib.org/</dc:title>
     </cc:Agent>
    </dc:creator>
   </cc:Work>
  </rdf:RDF>
 </metadata>
 <defs>
  <style type="text/css">*{stroke-linecap:butt;stroke-linejoin:round;}</style>
 </defs>
 <g id="figure_1">
  <g id="patch_1">
   <path d="M 0 325.986375 
L 863.630625 325.986375 
L 863.630625 0 
L 0 0 
z
" style="fill:#ffffff;"/>
  </g>
  <g id="axes_1">
   <g id="patch_2">
    <path d="M 53.328125 288.430125 
L 767.568125 288.430125 
L 767.568125 22.318125 
L 53.328125 22.318125 
z
" style="fill:#ffffff;"/>
   </g>
   <g id="PolyCollection_1">
    <defs>
     <path d="M 85.79358 -227.022694 
L 85.79358 -220.164579 
L 92.928844 -234.31189 
L 100.064109 -240.738923 
L 107.199374 -246.695686 
L 114.334638 -248.772715 
L 121.469903 -253.201098 
L 128.605168 -255.513262 
L 135.740433 -257.551102 
L 142.875697 -259.856408 
L 150.010962 -260.68624 
L 157.146227 -262.292998 
L 164.281492 -262.7231 
L 171.416756 -265.153812 
L 178.552021 -265.193001 
L 185.687286 -266.486246 
L 192.822551 -268.720032 
L 199.957815 -268.79841 
L 207.09308 -269.229492 
L 214.228345 -270.287601 
L 221.36361 -270.914628 
L 228.498874 -270.993007 
L 235.634139 -271.032196 
L 242.769404 -271.071385 
L 249.904668 -271.815981 
L 257.039933 -271.85517 
L 264.175198 -272.717333 
L 271.310463 -273.344361 
L 278.445727 -273.305171 
L 285.580992 -273.422739 
L 292.716257 -273.422739 
L 299.851522 -273.853821 
L 306.986786 -273.853821 
L 314.122051 -274.010577 
L 321.257316 -274.206524 
L 328.392581 -274.441659 
L 335.527845 -274.441659 
L 342.66311 -275.617336 
L 349.798375 -276.636256 
L 356.933639 -277.341662 
L 364.068904 -277.341662 
L 371.204169 -278.164636 
L 378.339434 -277.184905 
L 385.474698 -278.517339 
L 392.609963 -278.43896 
L 399.745228 -279.849772 
L 406.880493 -279.849772 
L 414.015757 -280.359232 
L 421.151022 -280.359232 
L 428.286287 -280.4768 
L 435.421552 -280.4768 
L 442.556816 -280.4768 
L 449.692081 -281.691666 
L 456.827346 -281.691666 
L 463.962611 -280.711935 
L 471.097875 -282.749775 
L 478.23314 -282.828154 
L 485.368405 -282.828154 
L 492.503669 -283.0241 
L 499.638934 -283.0241 
L 506.774199 -283.063289 
L 513.909464 -283.415992 
L 521.044728 -283.415992 
L 528.179993 -283.49437 
L 535.315258 -284.160587 
L 542.450523 -285.218696 
L 549.585787 -285.218696 
L 556.721052 -285.53221 
L 563.856317 -285.53221 
L 570.991582 -285.53221 
L 578.126846 -285.53221 
L 585.262111 -285.336264 
L 592.397376 -285.336264 
L 599.53264 -285.02275 
L 606.667905 -285.53221 
L 613.80317 -285.53221 
L 620.938435 -285.53221 
L 628.073699 -285.53221 
L 635.208964 -285.53221 
L 642.344229 -285.53221 
L 649.479494 -285.53221 
L 656.614758 -285.53221 
L 663.750023 -285.53221 
L 670.885288 -285.53221 
L 678.020553 -285.53221 
L 685.155817 -285.728156 
L 692.291082 -285.767346 
L 699.426347 -285.767346 
L 706.561612 -285.767346 
L 713.696876 -285.02275 
L 720.832141 -285.767346 
L 727.967406 -285.767346 
L 735.10267 -285.02275 
L 735.10267 -291.332216 
L 735.10267 -291.332216 
L 727.967406 -291.332216 
L 720.832141 -290.901134 
L 713.696876 -291.332216 
L 706.561612 -291.332216 
L 699.426347 -291.378263 
L 692.291082 -291.332216 
L 685.155817 -291.332216 
L 678.020553 -291.332216 
L 670.885288 -291.57225 
L 663.750023 -291.332216 
L 656.614758 -291.332216 
L 649.479494 -291.332216 
L 642.344229 -291.332216 
L 635.208964 -291.057891 
L 628.073699 -290.981472 
L 620.938435 -290.979513 
L 613.80317 -290.979513 
L 606.667905 -291.057891 
L 599.53264 -291.057891 
L 592.397376 -290.861945 
L 585.262111 -290.861945 
L 578.126846 -290.470053 
L 570.991582 -290.587621 
L 563.856317 -290.352485 
L 556.721052 -290.195728 
L 549.585787 -289.999782 
L 542.450523 -289.882215 
L 535.315258 -289.647079 
L 528.179993 -289.176808 
L 521.044728 -288.745727 
L 513.909464 -288.236267 
L 506.774199 -288.236267 
L 499.638934 -287.922753 
L 492.503669 -286.786266 
L 485.368405 -286.786266 
L 478.23314 -286.982212 
L 471.097875 -286.394373 
L 463.962611 -286.277785 
L 456.827346 -286.315995 
L 449.692081 -286.04167 
L 442.556816 -285.453832 
L 435.421552 -285.378393 
L 428.286287 -285.195183 
L 421.151022 -285.263764 
L 414.015757 -285.179507 
L 406.880493 -285.101129 
L 399.745228 -285.101129 
L 392.609963 -284.51329 
L 385.474698 -284.51329 
L 378.339434 -283.651127 
L 371.204169 -282.984911 
L 364.068904 -282.828154 
L 356.933639 -281.926801 
L 349.798375 -281.809234 
L 342.66311 -281.652477 
L 335.527845 -281.299774 
L 328.392581 -281.299774 
L 321.257316 -280.594368 
L 314.122051 -280.594368 
L 306.986786 -280.515989 
L 299.851522 -280.515989 
L 292.716257 -280.124097 
L 285.580992 -279.379502 
L 278.445727 -279.379502 
L 271.310463 -279.144366 
L 264.175198 -279.222745 
L 257.039933 -279.105177 
L 249.904668 -279.222745 
L 242.769404 -278.909231 
L 235.634139 -278.478149 
L 228.498874 -278.478149 
L 221.36361 -278.125446 
L 214.228345 -277.537608 
L 207.09308 -276.518688 
L 199.957815 -275.699633 
L 192.822551 -273.853821 
L 185.687286 -272.913279 
L 178.552021 -272.795711 
L 171.416756 -272.011927 
L 164.281492 -271.776791 
L 157.146227 -269.664492 
L 150.010962 -268.994356 
L 142.875697 -266.25111 
L 135.740433 -262.488945 
L 128.605168 -261.626782 
L 121.469903 -259.361644 
L 114.334638 -254.847045 
L 107.199374 -250.928122 
L 100.064109 -245.715955 
L 92.928844 -241.444329 
L 85.79358 -227.022694 
z
" id="m2ac73b67e8" style="stroke:#1f77b4;stroke-opacity:0.2;"/>
    </defs>
    <g clip-path="url(#pb7b2cbb57c)">
     <use style="fill:#1f77b4;fill-opacity:0.2;stroke:#1f77b4;stroke-opacity:0.2;" x="0" xlink:href="#m2ac73b67e8" y="325.986375"/>
    </g>
   </g>
   <g id="PolyCollection_2">
    <defs>
     <path d="M 85.79358 -202.686183 
L 85.79358 -156.991544 
L 92.928844 -218.009171 
L 100.064109 -231.529455 
L 107.199374 -236.624054 
L 114.334638 -239.445679 
L 121.469903 -241.640276 
L 128.605168 -243.207845 
L 135.740433 -245.284874 
L 142.875697 -247.47947 
L 150.010962 -249.830824 
L 157.146227 -250.457852 
L 164.281492 -250.810555 
L 171.416756 -252.57407 
L 178.552021 -252.887584 
L 185.687286 -253.436233 
L 192.822551 -255.238937 
L 199.957815 -255.356505 
L 207.09308 -256.061911 
L 214.228345 -256.884885 
L 221.36361 -256.963263 
L 228.498874 -257.472723 
L 235.634139 -258.530833 
L 242.769404 -260.098402 
L 249.904668 -260.411915 
L 257.039933 -260.763639 
L 264.175198 -260.803808 
L 271.310463 -260.803808 
L 278.445727 -261.430835 
L 285.580992 -262.016714 
L 292.716257 -262.332188 
L 299.851522 -262.488945 
L 306.986786 -263.547054 
L 314.122051 -263.743 
L 321.257316 -263.782189 
L 328.392581 -263.782189 
L 335.527845 -265.075434 
L 342.66311 -265.506515 
L 349.798375 -265.495738 
L 356.933639 -265.584894 
L 364.068904 -265.584894 
L 371.204169 -265.584894 
L 378.339434 -266.3628 
L 385.474698 -266.76057 
L 392.609963 -266.76057 
L 399.745228 -266.838949 
L 406.880493 -266.76057 
L 414.015757 -267.074084 
L 421.151022 -267.113273 
L 428.286287 -267.113273 
L 435.421552 -267.113273 
L 442.556816 -267.113273 
L 449.692081 -267.113273 
L 456.827346 -267.505166 
L 463.962611 -267.505166 
L 471.097875 -267.505166 
L 478.23314 -268.524086 
L 485.368405 -268.563275 
L 492.503669 -269.778141 
L 499.638934 -269.699762 
L 506.774199 -269.778141 
L 513.909464 -269.503816 
L 521.044728 -269.778141 
L 528.179993 -270.052465 
L 535.315258 -270.757872 
L 542.450523 -270.757872 
L 549.585787 -270.757872 
L 556.721052 -270.757872 
L 563.856317 -270.757872 
L 570.991582 -271.306521 
L 578.126846 -271.580845 
L 585.262111 -272.991658 
L 592.397376 -272.991658 
L 599.53264 -273.070036 
L 606.667905 -273.070036 
L 613.80317 -273.070036 
L 620.938435 -273.618685 
L 628.073699 -273.618685 
L 635.208964 -273.697064 
L 642.344229 -273.187604 
L 649.479494 -273.697064 
L 656.614758 -273.697064 
L 663.750023 -273.697064 
L 670.885288 -273.697064 
L 678.020553 -273.775442 
L 685.155817 -273.775442 
L 692.291082 -273.851861 
L 699.426347 -273.775442 
L 706.561612 -274.206524 
L 713.696876 -274.36328 
L 720.832141 -274.36328 
L 727.967406 -274.36328 
L 735.10267 -274.559227 
L 735.10267 -284.04302 
L 735.10267 -284.04302 
L 727.967406 -284.04302 
L 720.832141 -284.04302 
L 713.696876 -284.04302 
L 706.561612 -283.651127 
L 699.426347 -283.49437 
L 692.291082 -283.49437 
L 685.155817 -283.49437 
L 678.020553 -282.51464 
L 670.885288 -280.633557 
L 663.750023 -280.633557 
L 656.614758 -280.633557 
L 649.479494 -280.633557 
L 642.344229 -280.633557 
L 635.208964 -280.594368 
L 628.073699 -279.026799 
L 620.938435 -279.026799 
L 613.80317 -279.026799 
L 606.667905 -278.965076 
L 599.53264 -278.94842 
L 592.397376 -278.713285 
L 585.262111 -278.634906 
L 578.126846 -278.634906 
L 570.991582 -278.797542 
L 563.856317 -278.634906 
L 556.721052 -278.791663 
L 549.585787 -278.478149 
L 542.450523 -277.145716 
L 535.315258 -277.145716 
L 528.179993 -277.067337 
L 521.044728 -277.028148 
L 513.909464 -277.028148 
L 506.774199 -277.028148 
L 499.638934 -276.988959 
L 492.503669 -277.106526 
L 485.368405 -276.871391 
L 478.23314 -276.871391 
L 471.097875 -276.871391 
L 463.962611 -276.518688 
L 456.827346 -276.44031 
L 449.692081 -276.44031 
L 442.556816 -276.44031 
L 435.421552 -276.322742 
L 428.286287 -276.557877 
L 421.151022 -276.087606 
L 414.015757 -276.087606 
L 406.880493 -276.087606 
L 399.745228 -276.087606 
L 392.609963 -276.087606 
L 385.474698 -276.009228 
L 378.339434 -273.618685 
L 371.204169 -274.480848 
L 364.068904 -273.268921 
L 356.933639 -273.030847 
L 349.798375 -272.87409 
L 342.66311 -272.051116 
L 335.527845 -271.316318 
L 328.392581 -270.405168 
L 321.257316 -270.248412 
L 314.122051 -270.130844 
L 306.986786 -270.139661 
L 299.851522 -270.013276 
L 292.716257 -270.444358 
L 285.580992 -269.895709 
L 278.445727 -269.190302 
L 271.310463 -268.955167 
L 264.175198 -268.680842 
L 257.039933 -267.897058 
L 249.904668 -266.682192 
L 242.769404 -266.447057 
L 235.634139 -266.015975 
L 228.498874 -265.937597 
L 221.36361 -266.329489 
L 214.228345 -265.193001 
L 207.09308 -263.429486 
L 199.957815 -262.841648 
L 192.822551 -262.21462 
L 185.687286 -260.921375 
L 178.552021 -260.765598 
L 171.416756 -259.118671 
L 164.281492 -258.28688 
L 157.146227 -256.728128 
L 150.010962 -256.1011 
L 142.875697 -253.318665 
L 135.740433 -252.534881 
L 128.605168 -252.025421 
L 121.469903 -248.224066 
L 114.334638 -246.734875 
L 107.199374 -241.561897 
L 100.064109 -237.290271 
L 92.928844 -226.669991 
L 85.79358 -202.686183 
z
" id="maa268517a5" style="stroke:#d62728;stroke-opacity:0.2;"/>
    </defs>
    <g clip-path="url(#pb7b2cbb57c)">
     <use style="fill:#d62728;fill-opacity:0.2;stroke:#d62728;stroke-opacity:0.2;" x="0" xlink:href="#maa268517a5" y="325.986375"/>
    </g>
   </g>
   <g id="PolyCollection_3">
    <defs>
     <path d="M 85.79358 -61.526586 
L 85.79358 -49.65225 
L 92.928844 -83.237418 
L 100.064109 -131.596925 
L 107.199374 -154.444244 
L 114.334638 -174.783453 
L 121.469903 -180.701027 
L 128.605168 -183.444273 
L 135.740433 -196.494285 
L 142.875697 -204.175374 
L 150.010962 -215.618628 
L 157.146227 -217.382144 
L 164.281492 -218.714577 
L 171.416756 -218.871334 
L 178.552021 -220.047011 
L 185.687286 -221.928094 
L 192.822551 -222.619784 
L 199.957815 -224.240259 
L 207.09308 -224.758536 
L 214.228345 -224.984854 
L 221.36361 -226.905126 
L 228.498874 -226.904146 
L 235.634139 -228.511884 
L 242.769404 -227.919147 
L 249.904668 -229.805129 
L 257.039933 -229.805129 
L 264.175198 -230.2754 
L 271.310463 -230.2754 
L 278.445727 -230.2754 
L 285.580992 -230.2754 
L 292.716257 -230.2754 
L 299.851522 -230.392967 
L 306.986786 -231.215941 
L 314.122051 -231.215941 
L 321.257316 -231.999726 
L 328.392581 -232.430807 
L 335.527845 -232.469996 
L 342.66311 -232.469996 
L 349.798375 -233.919998 
L 356.933639 -233.919998 
L 364.068904 -234.774323 
L 371.204169 -234.233512 
L 378.339434 -237.83892 
L 385.474698 -239.524057 
L 392.609963 -240.151085 
L 399.745228 -240.190274 
L 406.880493 -240.660545 
L 414.015757 -240.738923 
L 421.151022 -240.151085 
L 428.286287 -240.738923 
L 435.421552 -240.738923 
L 442.556816 -240.738923 
L 449.692081 -241.170005 
L 456.827346 -241.170005 
L 463.962611 -241.287572 
L 471.097875 -241.326762 
L 478.23314 -241.326762 
L 485.368405 -241.326762 
L 492.503669 -241.365951 
L 499.638934 -240.974059 
L 506.774199 -241.797032 
L 513.909464 -241.797032 
L 521.044728 -243.638926 
L 528.179993 -243.638926 
L 535.315258 -242.620006 
L 542.450523 -243.638926 
L 549.585787 -244.657846 
L 556.721052 -244.657846 
L 563.856317 -244.892981 
L 570.991582 -244.932171 
L 578.126846 -244.932171 
L 585.262111 -244.932171 
L 592.397376 -246.49974 
L 599.53264 -246.49974 
L 606.667905 -246.49974 
L 613.80317 -246.813254 
L 620.938435 -246.813254 
L 628.073699 -246.813254 
L 635.208964 -245.99028 
L 642.344229 -246.852443 
L 649.479494 -247.048389 
L 656.614758 -247.949741 
L 663.750023 -248.968661 
L 670.885288 -248.526803 
L 678.020553 -248.106498 
L 685.155817 -248.106498 
L 692.291082 -248.655147 
L 699.426347 -249.203796 
L 706.561612 -248.733526 
L 713.696876 -248.772715 
L 720.832141 -249.438932 
L 727.967406 -249.713256 
L 735.10267 -249.870013 
L 735.10267 -269.268681 
L 735.10267 -269.268681 
L 727.967406 -267.741281 
L 720.832141 -267.741281 
L 713.696876 -267.30922 
L 706.561612 -266.838949 
L 699.426347 -266.838949 
L 692.291082 -266.838949 
L 685.155817 -266.838949 
L 678.020553 -266.838949 
L 670.885288 -266.838949 
L 663.750023 -266.843847 
L 656.614758 -266.486246 
L 649.479494 -266.133543 
L 642.344229 -266.133543 
L 635.208964 -266.133543 
L 628.073699 -265.663272 
L 620.938435 -265.663272 
L 613.80317 -265.545704 
L 606.667905 -262.998405 
L 599.53264 -262.880837 
L 592.397376 -262.998405 
L 585.262111 -262.998405 
L 578.126846 -262.998405 
L 570.991582 -263.427527 
L 563.856317 -262.998405 
L 556.721052 -262.883776 
L 549.585787 -262.998405 
L 542.450523 -263.008202 
L 535.315258 -263.393236 
L 528.179993 -262.998405 
L 521.044728 -262.998405 
L 513.909464 -263.047391 
L 506.774199 -262.959215 
L 499.638934 -263.398135 
L 492.503669 -263.406952 
L 485.368405 -262.920026 
L 478.23314 -262.880837 
L 471.097875 -262.880837 
L 463.962611 -262.763269 
L 456.827346 -262.136241 
L 449.692081 -262.136241 
L 442.556816 -262.136241 
L 435.421552 -262.136241 
L 428.286287 -262.136241 
L 421.151022 -262.097052 
L 414.015757 -261.861917 
L 406.880493 -262.057863 
L 399.745228 -261.70516 
L 392.609963 -261.313268 
L 385.474698 -261.470025 
L 378.339434 -261.470025 
L 371.204169 -260.333537 
L 364.068904 -260.960565 
L 356.933639 -260.294348 
L 349.798375 -260.137591 
L 342.66311 -260.727389 
L 335.527845 -260.137591 
L 328.392581 -260.137591 
L 321.257316 -260.098402 
L 314.122051 -259.5233 
L 306.986786 -258.491643 
L 299.851522 -255.983533 
L 292.716257 -255.434884 
L 285.580992 -255.55735 
L 278.445727 -255.042991 
L 271.310463 -254.964613 
L 264.175198 -254.886234 
L 257.039933 -253.906504 
L 249.904668 -253.828125 
L 242.769404 -253.397044 
L 235.634139 -252.848395 
L 228.498874 -252.848395 
L 221.36361 -251.872583 
L 214.228345 -251.868664 
L 207.09308 -251.790285 
L 199.957815 -246.813254 
L 192.822551 -246.382172 
L 185.687286 -244.422711 
L 178.552021 -242.463249 
L 171.416756 -241.836222 
L 164.281492 -240.738923 
L 157.146227 -237.917299 
L 150.010962 -234.468647 
L 142.875697 -229.883507 
L 135.740433 -227.022694 
L 128.605168 -218.479442 
L 121.469903 -212.445281 
L 114.334638 -209.97538 
L 107.199374 -203.117265 
L 100.064109 -165.730742 
L 92.928844 -128.461786 
L 85.79358 -61.526586 
z
" id="m9f6b189052" style="stroke:#98df8a;stroke-opacity:0.2;"/>
    </defs>
    <g clip-path="url(#pb7b2cbb57c)">
     <use style="fill:#98df8a;fill-opacity:0.2;stroke:#98df8a;stroke-opacity:0.2;" x="0" xlink:href="#m9f6b189052" y="325.986375"/>
    </g>
   </g>
   <g id="matplotlib.axis_1">
    <g id="xtick_1">
     <g id="line2d_1">
      <defs>
       <path d="M 0 0 
L 0 3.5 
" id="m60cb62d160" style="stroke:#000000;stroke-width:0.8;"/>
      </defs>
      <g>
       <use style="stroke:#000000;stroke-width:0.8;" x="85.79358" xlink:href="#m60cb62d160" y="288.430125"/>
      </g>
     </g>
     <g id="text_1">
      <!-- 15m -->
      <g transform="translate(74.560767 303.028562)scale(0.1 -0.1)">
       <defs>
        <path d="M 794 531 
L 1825 531 
L 1825 4091 
L 703 3866 
L 703 4441 
L 1819 4666 
L 2450 4666 
L 2450 531 
L 3481 531 
L 3481 0 
L 794 0 
L 794 531 
z
" id="DejaVuSans-31" transform="scale(0.015625)"/>
        <path d="M 691 4666 
L 3169 4666 
L 3169 4134 
L 1269 4134 
L 1269 2991 
Q 1406 3038 1543 3061 
Q 1681 3084 1819 3084 
Q 2600 3084 3056 2656 
Q 3513 2228 3513 1497 
Q 3513 744 3044 326 
Q 2575 -91 1722 -91 
Q 1428 -91 1123 -41 
Q 819 9 494 109 
L 494 744 
Q 775 591 1075 516 
Q 1375 441 1709 441 
Q 2250 441 2565 725 
Q 2881 1009 2881 1497 
Q 2881 1984 2565 2268 
Q 2250 2553 1709 2553 
Q 1456 2553 1204 2497 
Q 953 2441 691 2322 
L 691 4666 
z
" id="DejaVuSans-35" transform="scale(0.015625)"/>
        <path d="M 3328 2828 
Q 3544 3216 3844 3400 
Q 4144 3584 4550 3584 
Q 5097 3584 5394 3201 
Q 5691 2819 5691 2113 
L 5691 0 
L 5113 0 
L 5113 2094 
Q 5113 2597 4934 2840 
Q 4756 3084 4391 3084 
Q 3944 3084 3684 2787 
Q 3425 2491 3425 1978 
L 3425 0 
L 2847 0 
L 2847 2094 
Q 2847 2600 2669 2842 
Q 2491 3084 2119 3084 
Q 1678 3084 1418 2786 
Q 1159 2488 1159 1978 
L 1159 0 
L 581 0 
L 581 3500 
L 1159 3500 
L 1159 2956 
Q 1356 3278 1631 3431 
Q 1906 3584 2284 3584 
Q 2666 3584 2933 3390 
Q 3200 3197 3328 2828 
z
" id="DejaVuSans-6d" transform="scale(0.015625)"/>
       </defs>
       <use xlink:href="#DejaVuSans-31"/>
       <use x="63.623047" xlink:href="#DejaVuSans-35"/>
       <use x="127.246094" xlink:href="#DejaVuSans-6d"/>
      </g>
     </g>
    </g>
    <g id="xtick_2">
     <g id="line2d_2">
      <g>
       <use style="stroke:#000000;stroke-width:0.8;" x="140.497276" xlink:href="#m60cb62d160" y="288.430125"/>
      </g>
     </g>
     <g id="text_2">
      <!-- 2h:10m -->
      <g transform="translate(121.230088 303.028562)scale(0.1 -0.1)">
       <defs>
        <path d="M 1228 531 
L 3431 531 
L 3431 0 
L 469 0 
L 469 531 
Q 828 903 1448 1529 
Q 2069 2156 2228 2338 
Q 2531 2678 2651 2914 
Q 2772 3150 2772 3378 
Q 2772 3750 2511 3984 
Q 2250 4219 1831 4219 
Q 1534 4219 1204 4116 
Q 875 4013 500 3803 
L 500 4441 
Q 881 4594 1212 4672 
Q 1544 4750 1819 4750 
Q 2544 4750 2975 4387 
Q 3406 4025 3406 3419 
Q 3406 3131 3298 2873 
Q 3191 2616 2906 2266 
Q 2828 2175 2409 1742 
Q 1991 1309 1228 531 
z
" id="DejaVuSans-32" transform="scale(0.015625)"/>
        <path d="M 3513 2113 
L 3513 0 
L 2938 0 
L 2938 2094 
Q 2938 2591 2744 2837 
Q 2550 3084 2163 3084 
Q 1697 3084 1428 2787 
Q 1159 2491 1159 1978 
L 1159 0 
L 581 0 
L 581 4863 
L 1159 4863 
L 1159 2956 
Q 1366 3272 1645 3428 
Q 1925 3584 2291 3584 
Q 2894 3584 3203 3211 
Q 3513 2838 3513 2113 
z
" id="DejaVuSans-68" transform="scale(0.015625)"/>
        <path d="M 750 794 
L 1409 794 
L 1409 0 
L 750 0 
L 750 794 
z
M 750 3309 
L 1409 3309 
L 1409 2516 
L 750 2516 
L 750 3309 
z
" id="DejaVuSans-3a" transform="scale(0.015625)"/>
        <path d="M 2034 4250 
Q 1547 4250 1301 3770 
Q 1056 3291 1056 2328 
Q 1056 1369 1301 889 
Q 1547 409 2034 409 
Q 2525 409 2770 889 
Q 3016 1369 3016 2328 
Q 3016 3291 2770 3770 
Q 2525 4250 2034 4250 
z
M 2034 4750 
Q 2819 4750 3233 4129 
Q 3647 3509 3647 2328 
Q 3647 1150 3233 529 
Q 2819 -91 2034 -91 
Q 1250 -91 836 529 
Q 422 1150 422 2328 
Q 422 3509 836 4129 
Q 1250 4750 2034 4750 
z
" id="DejaVuSans-30" transform="scale(0.015625)"/>
       </defs>
       <use xlink:href="#DejaVuSans-32"/>
       <use x="63.623047" xlink:href="#DejaVuSans-68"/>
       <use x="127.001953" xlink:href="#DejaVuSans-3a"/>
       <use x="160.693359" xlink:href="#DejaVuSans-31"/>
       <use x="224.316406" xlink:href="#DejaVuSans-30"/>
       <use x="287.939453" xlink:href="#DejaVuSans-6d"/>
      </g>
     </g>
    </g>
    <g id="xtick_3">
     <g id="line2d_3">
      <g>
       <use style="stroke:#000000;stroke-width:0.8;" x="195.200972" xlink:href="#m60cb62d160" y="288.430125"/>
      </g>
     </g>
     <g id="text_3">
      <!-- 4h:5m -->
      <g transform="translate(179.115035 303.028562)scale(0.1 -0.1)">
       <defs>
        <path d="M 2419 4116 
L 825 1625 
L 2419 1625 
L 2419 4116 
z
M 2253 4666 
L 3047 4666 
L 3047 1625 
L 3713 1625 
L 3713 1100 
L 3047 1100 
L 3047 0 
L 2419 0 
L 2419 1100 
L 313 1100 
L 313 1709 
L 2253 4666 
z
" id="DejaVuSans-34" transform="scale(0.015625)"/>
       </defs>
       <use xlink:href="#DejaVuSans-34"/>
       <use x="63.623047" xlink:href="#DejaVuSans-68"/>
       <use x="127.001953" xlink:href="#DejaVuSans-3a"/>
       <use x="160.693359" xlink:href="#DejaVuSans-35"/>
       <use x="224.316406" xlink:href="#DejaVuSans-6d"/>
      </g>
     </g>
    </g>
    <g id="xtick_4">
     <g id="line2d_4">
      <g>
       <use style="stroke:#000000;stroke-width:0.8;" x="249.904668" xlink:href="#m60cb62d160" y="288.430125"/>
      </g>
     </g>
     <g id="text_4">
      <!-- 6h -->
      <g transform="translate(243.554668 303.028562)scale(0.1 -0.1)">
       <defs>
        <path d="M 2113 2584 
Q 1688 2584 1439 2293 
Q 1191 2003 1191 1497 
Q 1191 994 1439 701 
Q 1688 409 2113 409 
Q 2538 409 2786 701 
Q 3034 994 3034 1497 
Q 3034 2003 2786 2293 
Q 2538 2584 2113 2584 
z
M 3366 4563 
L 3366 3988 
Q 3128 4100 2886 4159 
Q 2644 4219 2406 4219 
Q 1781 4219 1451 3797 
Q 1122 3375 1075 2522 
Q 1259 2794 1537 2939 
Q 1816 3084 2150 3084 
Q 2853 3084 3261 2657 
Q 3669 2231 3669 1497 
Q 3669 778 3244 343 
Q 2819 -91 2113 -91 
Q 1303 -91 875 529 
Q 447 1150 447 2328 
Q 447 3434 972 4092 
Q 1497 4750 2381 4750 
Q 2619 4750 2861 4703 
Q 3103 4656 3366 4563 
z
" id="DejaVuSans-36" transform="scale(0.015625)"/>
       </defs>
       <use xlink:href="#DejaVuSans-36"/>
       <use x="63.623047" xlink:href="#DejaVuSans-68"/>
      </g>
     </g>
    </g>
    <g id="xtick_5">
     <g id="line2d_5">
      <g>
       <use style="stroke:#000000;stroke-width:0.8;" x="304.608365" xlink:href="#m60cb62d160" y="288.430125"/>
      </g>
     </g>
     <g id="text_5">
      <!-- 7h:55m -->
      <g transform="translate(285.341177 303.028562)scale(0.1 -0.1)">
       <defs>
        <path d="M 525 4666 
L 3525 4666 
L 3525 4397 
L 1831 0 
L 1172 0 
L 2766 4134 
L 525 4134 
L 525 4666 
z
" id="DejaVuSans-37" transform="scale(0.015625)"/>
       </defs>
       <use xlink:href="#DejaVuSans-37"/>
       <use x="63.623047" xlink:href="#DejaVuSans-68"/>
       <use x="127.001953" xlink:href="#DejaVuSans-3a"/>
       <use x="160.693359" xlink:href="#DejaVuSans-35"/>
       <use x="224.316406" xlink:href="#DejaVuSans-35"/>
       <use x="287.939453" xlink:href="#DejaVuSans-6d"/>
      </g>
     </g>
    </g>
    <g id="xtick_6">
     <g id="line2d_6">
      <g>
       <use style="stroke:#000000;stroke-width:0.8;" x="359.312061" xlink:href="#m60cb62d160" y="288.430125"/>
      </g>
     </g>
     <g id="text_6">
      <!-- 9h:50m -->
      <g transform="translate(340.044874 303.028562)scale(0.1 -0.1)">
       <defs>
        <path d="M 703 97 
L 703 672 
Q 941 559 1184 500 
Q 1428 441 1663 441 
Q 2288 441 2617 861 
Q 2947 1281 2994 2138 
Q 2813 1869 2534 1725 
Q 2256 1581 1919 1581 
Q 1219 1581 811 2004 
Q 403 2428 403 3163 
Q 403 3881 828 4315 
Q 1253 4750 1959 4750 
Q 2769 4750 3195 4129 
Q 3622 3509 3622 2328 
Q 3622 1225 3098 567 
Q 2575 -91 1691 -91 
Q 1453 -91 1209 -44 
Q 966 3 703 97 
z
M 1959 2075 
Q 2384 2075 2632 2365 
Q 2881 2656 2881 3163 
Q 2881 3666 2632 3958 
Q 2384 4250 1959 4250 
Q 1534 4250 1286 3958 
Q 1038 3666 1038 3163 
Q 1038 2656 1286 2365 
Q 1534 2075 1959 2075 
z
" id="DejaVuSans-39" transform="scale(0.015625)"/>
       </defs>
       <use xlink:href="#DejaVuSans-39"/>
       <use x="63.623047" xlink:href="#DejaVuSans-68"/>
       <use x="127.001953" xlink:href="#DejaVuSans-3a"/>
       <use x="160.693359" xlink:href="#DejaVuSans-35"/>
       <use x="224.316406" xlink:href="#DejaVuSans-30"/>
       <use x="287.939453" xlink:href="#DejaVuSans-6d"/>
      </g>
     </g>
    </g>
    <g id="xtick_7">
     <g id="line2d_7">
      <g>
       <use style="stroke:#000000;stroke-width:0.8;" x="414.015757" xlink:href="#m60cb62d160" y="288.430125"/>
      </g>
     </g>
     <g id="text_7">
      <!-- 11h:45m -->
      <g transform="translate(391.56732 303.028562)scale(0.1 -0.1)">
       <use xlink:href="#DejaVuSans-31"/>
       <use x="63.623047" xlink:href="#DejaVuSans-31"/>
       <use x="127.246094" xlink:href="#DejaVuSans-68"/>
       <use x="190.625" xlink:href="#DejaVuSans-3a"/>
       <use x="224.316406" xlink:href="#DejaVuSans-34"/>
       <use x="287.939453" xlink:href="#DejaVuSans-35"/>
       <use x="351.5625" xlink:href="#DejaVuSans-6d"/>
      </g>
     </g>
    </g>
    <g id="xtick_8">
     <g id="line2d_8">
      <g>
       <use style="stroke:#000000;stroke-width:0.8;" x="468.719454" xlink:href="#m60cb62d160" y="288.430125"/>
      </g>
     </g>
     <g id="text_8">
      <!-- 13h:40m -->
      <g transform="translate(446.271016 303.028562)scale(0.1 -0.1)">
       <defs>
        <path d="M 2597 2516 
Q 3050 2419 3304 2112 
Q 3559 1806 3559 1356 
Q 3559 666 3084 287 
Q 2609 -91 1734 -91 
Q 1441 -91 1130 -33 
Q 819 25 488 141 
L 488 750 
Q 750 597 1062 519 
Q 1375 441 1716 441 
Q 2309 441 2620 675 
Q 2931 909 2931 1356 
Q 2931 1769 2642 2001 
Q 2353 2234 1838 2234 
L 1294 2234 
L 1294 2753 
L 1863 2753 
Q 2328 2753 2575 2939 
Q 2822 3125 2822 3475 
Q 2822 3834 2567 4026 
Q 2313 4219 1838 4219 
Q 1578 4219 1281 4162 
Q 984 4106 628 3988 
L 628 4550 
Q 988 4650 1302 4700 
Q 1616 4750 1894 4750 
Q 2613 4750 3031 4423 
Q 3450 4097 3450 3541 
Q 3450 3153 3228 2886 
Q 3006 2619 2597 2516 
z
" id="DejaVuSans-33" transform="scale(0.015625)"/>
       </defs>
       <use xlink:href="#DejaVuSans-31"/>
       <use x="63.623047" xlink:href="#DejaVuSans-33"/>
       <use x="127.246094" xlink:href="#DejaVuSans-68"/>
       <use x="190.625" xlink:href="#DejaVuSans-3a"/>
       <use x="224.316406" xlink:href="#DejaVuSans-34"/>
       <use x="287.939453" xlink:href="#DejaVuSans-30"/>
       <use x="351.5625" xlink:href="#DejaVuSans-6d"/>
      </g>
     </g>
    </g>
    <g id="xtick_9">
     <g id="line2d_9">
      <g>
       <use style="stroke:#000000;stroke-width:0.8;" x="523.42315" xlink:href="#m60cb62d160" y="288.430125"/>
      </g>
     </g>
     <g id="text_9">
      <!-- 15h:35m -->
      <g transform="translate(500.974712 303.028562)scale(0.1 -0.1)">
       <use xlink:href="#DejaVuSans-31"/>
       <use x="63.623047" xlink:href="#DejaVuSans-35"/>
       <use x="127.246094" xlink:href="#DejaVuSans-68"/>
       <use x="190.625" xlink:href="#DejaVuSans-3a"/>
       <use x="224.316406" xlink:href="#DejaVuSans-33"/>
       <use x="287.939453" xlink:href="#DejaVuSans-35"/>
       <use x="351.5625" xlink:href="#DejaVuSans-6d"/>
      </g>
     </g>
    </g>
    <g id="xtick_10">
     <g id="line2d_10">
      <g>
       <use style="stroke:#000000;stroke-width:0.8;" x="578.126846" xlink:href="#m60cb62d160" y="288.430125"/>
      </g>
     </g>
     <g id="text_10">
      <!-- 17h:30m -->
      <g transform="translate(555.678409 303.028562)scale(0.1 -0.1)">
       <use xlink:href="#DejaVuSans-31"/>
       <use x="63.623047" xlink:href="#DejaVuSans-37"/>
       <use x="127.246094" xlink:href="#DejaVuSans-68"/>
       <use x="190.625" xlink:href="#DejaVuSans-3a"/>
       <use x="224.316406" xlink:href="#DejaVuSans-33"/>
       <use x="287.939453" xlink:href="#DejaVuSans-30"/>
       <use x="351.5625" xlink:href="#DejaVuSans-6d"/>
      </g>
     </g>
    </g>
    <g id="xtick_11">
     <g id="line2d_11">
      <g>
       <use style="stroke:#000000;stroke-width:0.8;" x="632.830543" xlink:href="#m60cb62d160" y="288.430125"/>
      </g>
     </g>
     <g id="text_11">
      <!-- 19h:25m -->
      <g transform="translate(610.382105 303.028562)scale(0.1 -0.1)">
       <use xlink:href="#DejaVuSans-31"/>
       <use x="63.623047" xlink:href="#DejaVuSans-39"/>
       <use x="127.246094" xlink:href="#DejaVuSans-68"/>
       <use x="190.625" xlink:href="#DejaVuSans-3a"/>
       <use x="224.316406" xlink:href="#DejaVuSans-32"/>
       <use x="287.939453" xlink:href="#DejaVuSans-35"/>
       <use x="351.5625" xlink:href="#DejaVuSans-6d"/>
      </g>
     </g>
    </g>
    <g id="xtick_12">
     <g id="line2d_12">
      <g>
       <use style="stroke:#000000;stroke-width:0.8;" x="687.534239" xlink:href="#m60cb62d160" y="288.430125"/>
      </g>
     </g>
     <g id="text_12">
      <!-- 21h:20m -->
      <g transform="translate(665.085801 303.028562)scale(0.1 -0.1)">
       <use xlink:href="#DejaVuSans-32"/>
       <use x="63.623047" xlink:href="#DejaVuSans-31"/>
       <use x="127.246094" xlink:href="#DejaVuSans-68"/>
       <use x="190.625" xlink:href="#DejaVuSans-3a"/>
       <use x="224.316406" xlink:href="#DejaVuSans-32"/>
       <use x="287.939453" xlink:href="#DejaVuSans-30"/>
       <use x="351.5625" xlink:href="#DejaVuSans-6d"/>
      </g>
     </g>
    </g>
    <g id="text_13">
     <!-- Time (hour:minute) -->
     <g transform="translate(362.041094 316.706687)scale(0.1 -0.1)">
      <defs>
       <path d="M -19 4666 
L 3928 4666 
L 3928 4134 
L 2272 4134 
L 2272 0 
L 1638 0 
L 1638 4134 
L -19 4134 
L -19 4666 
z
" id="DejaVuSans-54" transform="scale(0.015625)"/>
       <path d="M 603 3500 
L 1178 3500 
L 1178 0 
L 603 0 
L 603 3500 
z
M 603 4863 
L 1178 4863 
L 1178 4134 
L 603 4134 
L 603 4863 
z
" id="DejaVuSans-69" transform="scale(0.015625)"/>
       <path d="M 3597 1894 
L 3597 1613 
L 953 1613 
Q 991 1019 1311 708 
Q 1631 397 2203 397 
Q 2534 397 2845 478 
Q 3156 559 3463 722 
L 3463 178 
Q 3153 47 2828 -22 
Q 2503 -91 2169 -91 
Q 1331 -91 842 396 
Q 353 884 353 1716 
Q 353 2575 817 3079 
Q 1281 3584 2069 3584 
Q 2775 3584 3186 3129 
Q 3597 2675 3597 1894 
z
M 3022 2063 
Q 3016 2534 2758 2815 
Q 2500 3097 2075 3097 
Q 1594 3097 1305 2825 
Q 1016 2553 972 2059 
L 3022 2063 
z
" id="DejaVuSans-65" transform="scale(0.015625)"/>
       <path id="DejaVuSans-20" transform="scale(0.015625)"/>
       <path d="M 1984 4856 
Q 1566 4138 1362 3434 
Q 1159 2731 1159 2009 
Q 1159 1288 1364 580 
Q 1569 -128 1984 -844 
L 1484 -844 
Q 1016 -109 783 600 
Q 550 1309 550 2009 
Q 550 2706 781 3412 
Q 1013 4119 1484 4856 
L 1984 4856 
z
" id="DejaVuSans-28" transform="scale(0.015625)"/>
       <path d="M 1959 3097 
Q 1497 3097 1228 2736 
Q 959 2375 959 1747 
Q 959 1119 1226 758 
Q 1494 397 1959 397 
Q 2419 397 2687 759 
Q 2956 1122 2956 1747 
Q 2956 2369 2687 2733 
Q 2419 3097 1959 3097 
z
M 1959 3584 
Q 2709 3584 3137 3096 
Q 3566 2609 3566 1747 
Q 3566 888 3137 398 
Q 2709 -91 1959 -91 
Q 1206 -91 779 398 
Q 353 888 353 1747 
Q 353 2609 779 3096 
Q 1206 3584 1959 3584 
z
" id="DejaVuSans-6f" transform="scale(0.015625)"/>
       <path d="M 544 1381 
L 544 3500 
L 1119 3500 
L 1119 1403 
Q 1119 906 1312 657 
Q 1506 409 1894 409 
Q 2359 409 2629 706 
Q 2900 1003 2900 1516 
L 2900 3500 
L 3475 3500 
L 3475 0 
L 2900 0 
L 2900 538 
Q 2691 219 2414 64 
Q 2138 -91 1772 -91 
Q 1169 -91 856 284 
Q 544 659 544 1381 
z
M 1991 3584 
L 1991 3584 
z
" id="DejaVuSans-75" transform="scale(0.015625)"/>
       <path d="M 2631 2963 
Q 2534 3019 2420 3045 
Q 2306 3072 2169 3072 
Q 1681 3072 1420 2755 
Q 1159 2438 1159 1844 
L 1159 0 
L 581 0 
L 581 3500 
L 1159 3500 
L 1159 2956 
Q 1341 3275 1631 3429 
Q 1922 3584 2338 3584 
Q 2397 3584 2469 3576 
Q 2541 3569 2628 3553 
L 2631 2963 
z
" id="DejaVuSans-72" transform="scale(0.015625)"/>
       <path d="M 3513 2113 
L 3513 0 
L 2938 0 
L 2938 2094 
Q 2938 2591 2744 2837 
Q 2550 3084 2163 3084 
Q 1697 3084 1428 2787 
Q 1159 2491 1159 1978 
L 1159 0 
L 581 0 
L 581 3500 
L 1159 3500 
L 1159 2956 
Q 1366 3272 1645 3428 
Q 1925 3584 2291 3584 
Q 2894 3584 3203 3211 
Q 3513 2838 3513 2113 
z
" id="DejaVuSans-6e" transform="scale(0.015625)"/>
       <path d="M 1172 4494 
L 1172 3500 
L 2356 3500 
L 2356 3053 
L 1172 3053 
L 1172 1153 
Q 1172 725 1289 603 
Q 1406 481 1766 481 
L 2356 481 
L 2356 0 
L 1766 0 
Q 1100 0 847 248 
Q 594 497 594 1153 
L 594 3053 
L 172 3053 
L 172 3500 
L 594 3500 
L 594 4494 
L 1172 4494 
z
" id="DejaVuSans-74" transform="scale(0.015625)"/>
       <path d="M 513 4856 
L 1013 4856 
Q 1481 4119 1714 3412 
Q 1947 2706 1947 2009 
Q 1947 1309 1714 600 
Q 1481 -109 1013 -844 
L 513 -844 
Q 928 -128 1133 580 
Q 1338 1288 1338 2009 
Q 1338 2731 1133 3434 
Q 928 4138 513 4856 
z
" id="DejaVuSans-29" transform="scale(0.015625)"/>
      </defs>
      <use xlink:href="#DejaVuSans-54"/>
      <use x="57.958984" xlink:href="#DejaVuSans-69"/>
      <use x="85.742188" xlink:href="#DejaVuSans-6d"/>
      <use x="183.154297" xlink:href="#DejaVuSans-65"/>
      <use x="244.677734" xlink:href="#DejaVuSans-20"/>
      <use x="276.464844" xlink:href="#DejaVuSans-28"/>
      <use x="315.478516" xlink:href="#DejaVuSans-68"/>
      <use x="378.857422" xlink:href="#DejaVuSans-6f"/>
      <use x="440.039062" xlink:href="#DejaVuSans-75"/>
      <use x="503.417969" xlink:href="#DejaVuSans-72"/>
      <use x="542.78125" xlink:href="#DejaVuSans-3a"/>
      <use x="576.472656" xlink:href="#DejaVuSans-6d"/>
      <use x="673.884766" xlink:href="#DejaVuSans-69"/>
      <use x="701.667969" xlink:href="#DejaVuSans-6e"/>
      <use x="765.046875" xlink:href="#DejaVuSans-75"/>
      <use x="828.425781" xlink:href="#DejaVuSans-74"/>
      <use x="867.634766" xlink:href="#DejaVuSans-65"/>
      <use x="929.158203" xlink:href="#DejaVuSans-29"/>
     </g>
    </g>
   </g>
   <g id="matplotlib.axis_2">
    <g id="ytick_1">
     <g id="line2d_13">
      <defs>
       <path d="M 0 0 
L -3.5 0 
" id="ma7429eefea" style="stroke:#000000;stroke-width:0.8;"/>
      </defs>
      <g>
       <use style="stroke:#000000;stroke-width:0.8;" x="53.328125" xlink:href="#ma7429eefea" y="258.228702"/>
      </g>
     </g>
     <g id="text_14">
      <!-- 2500 -->
      <g transform="translate(20.878125 262.027921)scale(0.1 -0.1)">
       <use xlink:href="#DejaVuSans-32"/>
       <use x="63.623047" xlink:href="#DejaVuSans-35"/>
       <use x="127.246094" xlink:href="#DejaVuSans-30"/>
       <use x="190.869141" xlink:href="#DejaVuSans-30"/>
      </g>
     </g>
    </g>
    <g id="ytick_2">
     <g id="line2d_14">
      <g>
       <use style="stroke:#000000;stroke-width:0.8;" x="53.328125" xlink:href="#ma7429eefea" y="219.039474"/>
      </g>
     </g>
     <g id="text_15">
      <!-- 3000 -->
      <g transform="translate(20.878125 222.838693)scale(0.1 -0.1)">
       <use xlink:href="#DejaVuSans-33"/>
       <use x="63.623047" xlink:href="#DejaVuSans-30"/>
       <use x="127.246094" xlink:href="#DejaVuSans-30"/>
       <use x="190.869141" xlink:href="#DejaVuSans-30"/>
      </g>
     </g>
    </g>
    <g id="ytick_3">
     <g id="line2d_15">
      <g>
       <use style="stroke:#000000;stroke-width:0.8;" x="53.328125" xlink:href="#ma7429eefea" y="179.850247"/>
      </g>
     </g>
     <g id="text_16">
      <!-- 3500 -->
      <g transform="translate(20.878125 183.649466)scale(0.1 -0.1)">
       <use xlink:href="#DejaVuSans-33"/>
       <use x="63.623047" xlink:href="#DejaVuSans-35"/>
       <use x="127.246094" xlink:href="#DejaVuSans-30"/>
       <use x="190.869141" xlink:href="#DejaVuSans-30"/>
      </g>
     </g>
    </g>
    <g id="ytick_4">
     <g id="line2d_16">
      <g>
       <use style="stroke:#000000;stroke-width:0.8;" x="53.328125" xlink:href="#ma7429eefea" y="140.661019"/>
      </g>
     </g>
     <g id="text_17">
      <!-- 4000 -->
      <g transform="translate(20.878125 144.460238)scale(0.1 -0.1)">
       <use xlink:href="#DejaVuSans-34"/>
       <use x="63.623047" xlink:href="#DejaVuSans-30"/>
       <use x="127.246094" xlink:href="#DejaVuSans-30"/>
       <use x="190.869141" xlink:href="#DejaVuSans-30"/>
      </g>
     </g>
    </g>
    <g id="ytick_5">
     <g id="line2d_17">
      <g>
       <use style="stroke:#000000;stroke-width:0.8;" x="53.328125" xlink:href="#ma7429eefea" y="101.471792"/>
      </g>
     </g>
     <g id="text_18">
      <!-- 4500 -->
      <g transform="translate(20.878125 105.271011)scale(0.1 -0.1)">
       <use xlink:href="#DejaVuSans-34"/>
       <use x="63.623047" xlink:href="#DejaVuSans-35"/>
       <use x="127.246094" xlink:href="#DejaVuSans-30"/>
       <use x="190.869141" xlink:href="#DejaVuSans-30"/>
      </g>
     </g>
    </g>
    <g id="ytick_6">
     <g id="line2d_18">
      <g>
       <use style="stroke:#000000;stroke-width:0.8;" x="53.328125" xlink:href="#ma7429eefea" y="62.282564"/>
      </g>
     </g>
     <g id="text_19">
      <!-- 5000 -->
      <g transform="translate(20.878125 66.081783)scale(0.1 -0.1)">
       <use xlink:href="#DejaVuSans-35"/>
       <use x="63.623047" xlink:href="#DejaVuSans-30"/>
       <use x="127.246094" xlink:href="#DejaVuSans-30"/>
       <use x="190.869141" xlink:href="#DejaVuSans-30"/>
      </g>
     </g>
    </g>
    <g id="ytick_7">
     <g id="line2d_19">
      <g>
       <use style="stroke:#000000;stroke-width:0.8;" x="53.328125" xlink:href="#ma7429eefea" y="23.093337"/>
      </g>
     </g>
     <g id="text_20">
      <!-- 5500 -->
      <g transform="translate(20.878125 26.892556)scale(0.1 -0.1)">
       <use xlink:href="#DejaVuSans-35"/>
       <use x="63.623047" xlink:href="#DejaVuSans-35"/>
       <use x="127.246094" xlink:href="#DejaVuSans-30"/>
       <use x="190.869141" xlink:href="#DejaVuSans-30"/>
      </g>
     </g>
    </g>
    <g id="text_21">
     <!-- Code region coverage -->
     <g transform="translate(14.798438 210.379594)rotate(-90)scale(0.1 -0.1)">
      <defs>
       <path d="M 4122 4306 
L 4122 3641 
Q 3803 3938 3442 4084 
Q 3081 4231 2675 4231 
Q 1875 4231 1450 3742 
Q 1025 3253 1025 2328 
Q 1025 1406 1450 917 
Q 1875 428 2675 428 
Q 3081 428 3442 575 
Q 3803 722 4122 1019 
L 4122 359 
Q 3791 134 3420 21 
Q 3050 -91 2638 -91 
Q 1578 -91 968 557 
Q 359 1206 359 2328 
Q 359 3453 968 4101 
Q 1578 4750 2638 4750 
Q 3056 4750 3426 4639 
Q 3797 4528 4122 4306 
z
" id="DejaVuSans-43" transform="scale(0.015625)"/>
       <path d="M 2906 2969 
L 2906 4863 
L 3481 4863 
L 3481 0 
L 2906 0 
L 2906 525 
Q 2725 213 2448 61 
Q 2172 -91 1784 -91 
Q 1150 -91 751 415 
Q 353 922 353 1747 
Q 353 2572 751 3078 
Q 1150 3584 1784 3584 
Q 2172 3584 2448 3432 
Q 2725 3281 2906 2969 
z
M 947 1747 
Q 947 1113 1208 752 
Q 1469 391 1925 391 
Q 2381 391 2643 752 
Q 2906 1113 2906 1747 
Q 2906 2381 2643 2742 
Q 2381 3103 1925 3103 
Q 1469 3103 1208 2742 
Q 947 2381 947 1747 
z
" id="DejaVuSans-64" transform="scale(0.015625)"/>
       <path d="M 2906 1791 
Q 2906 2416 2648 2759 
Q 2391 3103 1925 3103 
Q 1463 3103 1205 2759 
Q 947 2416 947 1791 
Q 947 1169 1205 825 
Q 1463 481 1925 481 
Q 2391 481 2648 825 
Q 2906 1169 2906 1791 
z
M 3481 434 
Q 3481 -459 3084 -895 
Q 2688 -1331 1869 -1331 
Q 1566 -1331 1297 -1286 
Q 1028 -1241 775 -1147 
L 775 -588 
Q 1028 -725 1275 -790 
Q 1522 -856 1778 -856 
Q 2344 -856 2625 -561 
Q 2906 -266 2906 331 
L 2906 616 
Q 2728 306 2450 153 
Q 2172 0 1784 0 
Q 1141 0 747 490 
Q 353 981 353 1791 
Q 353 2603 747 3093 
Q 1141 3584 1784 3584 
Q 2172 3584 2450 3431 
Q 2728 3278 2906 2969 
L 2906 3500 
L 3481 3500 
L 3481 434 
z
" id="DejaVuSans-67" transform="scale(0.015625)"/>
       <path d="M 3122 3366 
L 3122 2828 
Q 2878 2963 2633 3030 
Q 2388 3097 2138 3097 
Q 1578 3097 1268 2742 
Q 959 2388 959 1747 
Q 959 1106 1268 751 
Q 1578 397 2138 397 
Q 2388 397 2633 464 
Q 2878 531 3122 666 
L 3122 134 
Q 2881 22 2623 -34 
Q 2366 -91 2075 -91 
Q 1284 -91 818 406 
Q 353 903 353 1747 
Q 353 2603 823 3093 
Q 1294 3584 2113 3584 
Q 2378 3584 2631 3529 
Q 2884 3475 3122 3366 
z
" id="DejaVuSans-63" transform="scale(0.015625)"/>
       <path d="M 191 3500 
L 800 3500 
L 1894 563 
L 2988 3500 
L 3597 3500 
L 2284 0 
L 1503 0 
L 191 3500 
z
" id="DejaVuSans-76" transform="scale(0.015625)"/>
       <path d="M 2194 1759 
Q 1497 1759 1228 1600 
Q 959 1441 959 1056 
Q 959 750 1161 570 
Q 1363 391 1709 391 
Q 2188 391 2477 730 
Q 2766 1069 2766 1631 
L 2766 1759 
L 2194 1759 
z
M 3341 1997 
L 3341 0 
L 2766 0 
L 2766 531 
Q 2569 213 2275 61 
Q 1981 -91 1556 -91 
Q 1019 -91 701 211 
Q 384 513 384 1019 
Q 384 1609 779 1909 
Q 1175 2209 1959 2209 
L 2766 2209 
L 2766 2266 
Q 2766 2663 2505 2880 
Q 2244 3097 1772 3097 
Q 1472 3097 1187 3025 
Q 903 2953 641 2809 
L 641 3341 
Q 956 3463 1253 3523 
Q 1550 3584 1831 3584 
Q 2591 3584 2966 3190 
Q 3341 2797 3341 1997 
z
" id="DejaVuSans-61" transform="scale(0.015625)"/>
      </defs>
      <use xlink:href="#DejaVuSans-43"/>
      <use x="69.824219" xlink:href="#DejaVuSans-6f"/>
      <use x="131.005859" xlink:href="#DejaVuSans-64"/>
      <use x="194.482422" xlink:href="#DejaVuSans-65"/>
      <use x="256.005859" xlink:href="#DejaVuSans-20"/>
      <use x="287.792969" xlink:href="#DejaVuSans-72"/>
      <use x="326.65625" xlink:href="#DejaVuSans-65"/>
      <use x="388.179688" xlink:href="#DejaVuSans-67"/>
      <use x="451.65625" xlink:href="#DejaVuSans-69"/>
      <use x="479.439453" xlink:href="#DejaVuSans-6f"/>
      <use x="540.621094" xlink:href="#DejaVuSans-6e"/>
      <use x="604" xlink:href="#DejaVuSans-20"/>
      <use x="635.787109" xlink:href="#DejaVuSans-63"/>
      <use x="690.767578" xlink:href="#DejaVuSans-6f"/>
      <use x="751.949219" xlink:href="#DejaVuSans-76"/>
      <use x="811.128906" xlink:href="#DejaVuSans-65"/>
      <use x="872.652344" xlink:href="#DejaVuSans-72"/>
      <use x="913.765625" xlink:href="#DejaVuSans-61"/>
      <use x="975.044922" xlink:href="#DejaVuSans-67"/>
      <use x="1038.521484" xlink:href="#DejaVuSans-65"/>
     </g>
    </g>
   </g>
   <g id="line2d_20">
    <path clip-path="url(#pb7b2cbb57c)" d="M 85.79358 101.628549 
L 92.928844 87.716373 
L 100.064109 82.582584 
L 107.199374 77.056903 
L 114.334638 73.529873 
L 121.469903 70.433924 
L 128.605168 68.160949 
L 135.740433 66.475812 
L 142.875697 62.439321 
L 150.010962 62.086618 
L 157.146227 60.793374 
L 164.281492 58.716345 
L 171.416756 57.266343 
L 178.552021 57.109586 
L 185.687286 56.247423 
L 192.822551 55.38526 
L 199.957815 54.327151 
L 207.09308 54.327151 
L 214.228345 52.87715 
L 221.36361 52.328501 
L 228.498874 50.760932 
L 235.634139 50.721742 
L 242.769404 50.32985 
L 249.904668 50.32985 
L 257.039933 50.32985 
L 264.175198 48.919038 
L 271.310463 48.879849 
L 278.445727 48.762281 
L 285.580992 48.017686 
L 292.716257 47.978496 
L 299.851522 47.664983 
L 306.986786 47.625793 
L 314.122051 47.155523 
L 321.257316 47.155523 
L 328.392581 47.155523 
L 335.527845 47.037955 
L 342.66311 47.037955 
L 349.798375 46.410927 
L 356.933639 46.371738 
L 364.068904 46.214981 
L 371.204169 45.587953 
L 378.339434 45.587953 
L 385.474698 44.569034 
L 392.609963 43.785249 
L 399.745228 43.314978 
L 406.880493 43.314978 
L 414.015757 43.2366 
L 421.151022 43.2366 
L 428.286287 43.2366 
L 435.421552 43.001464 
L 442.556816 43.001464 
L 449.692081 42.531194 
L 456.827346 42.531194 
L 463.962611 42.531194 
L 471.097875 41.825788 
L 478.23314 41.825788 
L 485.368405 41.825788 
L 492.503669 41.551463 
L 499.638934 41.394706 
L 506.774199 41.120382 
L 513.909464 40.454165 
L 521.044728 40.454165 
L 528.179993 40.336597 
L 535.315258 38.847406 
L 542.450523 37.044702 
L 549.585787 36.966323 
L 556.721052 36.809567 
L 563.856317 36.809567 
L 570.991582 36.809567 
L 578.126846 36.809567 
L 585.262111 36.417674 
L 592.397376 36.417674 
L 599.53264 36.417674 
L 606.667905 36.417674 
L 613.80317 36.417674 
L 620.938435 36.417674 
L 628.073699 36.417674 
L 635.208964 36.417674 
L 642.344229 36.417674 
L 649.479494 36.417674 
L 656.614758 36.417674 
L 663.750023 36.417674 
L 670.885288 36.182539 
L 678.020553 36.182539 
L 685.155817 36.10416 
L 692.291082 36.10416 
L 699.426347 36.10416 
L 706.561612 36.10416 
L 713.696876 36.10416 
L 720.832141 36.10416 
L 727.967406 36.10416 
L 735.10267 36.10416 
" style="fill:none;stroke:#1f77b4;stroke-linecap:square;stroke-width:1.5;"/>
    <defs>
     <path d="M 0 3 
C 0.795609 3 1.55874 2.683901 2.12132 2.12132 
C 2.683901 1.55874 3 0.795609 3 0 
C 3 -0.795609 2.683901 -1.55874 2.12132 -2.12132 
C 1.55874 -2.683901 0.795609 -3 0 -3 
C -0.795609 -3 -1.55874 -2.683901 -2.12132 -2.12132 
C -2.683901 -1.55874 -3 -0.795609 -3 0 
C -3 0.795609 -2.683901 1.55874 -2.12132 2.12132 
C -1.55874 2.683901 -0.795609 3 0 3 
z
" id="m23770fbd78" style="stroke:#ffffff;stroke-width:0.75;"/>
    </defs>
    <g clip-path="url(#pb7b2cbb57c)">
     <use style="fill:#1f77b4;stroke:#ffffff;stroke-width:0.75;" x="85.79358" xlink:href="#m23770fbd78" y="101.628549"/>
     <use style="fill:#1f77b4;stroke:#ffffff;stroke-width:0.75;" x="92.928844" xlink:href="#m23770fbd78" y="87.716373"/>
     <use style="fill:#1f77b4;stroke:#ffffff;stroke-width:0.75;" x="100.064109" xlink:href="#m23770fbd78" y="82.582584"/>
     <use style="fill:#1f77b4;stroke:#ffffff;stroke-width:0.75;" x="107.199374" xlink:href="#m23770fbd78" y="77.056903"/>
     <use style="fill:#1f77b4;stroke:#ffffff;stroke-width:0.75;" x="114.334638" xlink:href="#m23770fbd78" y="73.529873"/>
     <use style="fill:#1f77b4;stroke:#ffffff;stroke-width:0.75;" x="121.469903" xlink:href="#m23770fbd78" y="70.433924"/>
     <use style="fill:#1f77b4;stroke:#ffffff;stroke-width:0.75;" x="128.605168" xlink:href="#m23770fbd78" y="68.160949"/>
     <use style="fill:#1f77b4;stroke:#ffffff;stroke-width:0.75;" x="135.740433" xlink:href="#m23770fbd78" y="66.475812"/>
     <use style="fill:#1f77b4;stroke:#ffffff;stroke-width:0.75;" x="142.875697" xlink:href="#m23770fbd78" y="62.439321"/>
     <use style="fill:#1f77b4;stroke:#ffffff;stroke-width:0.75;" x="150.010962" xlink:href="#m23770fbd78" y="62.086618"/>
     <use style="fill:#1f77b4;stroke:#ffffff;stroke-width:0.75;" x="157.146227" xlink:href="#m23770fbd78" y="60.793374"/>
     <use style="fill:#1f77b4;stroke:#ffffff;stroke-width:0.75;" x="164.281492" xlink:href="#m23770fbd78" y="58.716345"/>
     <use style="fill:#1f77b4;stroke:#ffffff;stroke-width:0.75;" x="171.416756" xlink:href="#m23770fbd78" y="57.266343"/>
     <use style="fill:#1f77b4;stroke:#ffffff;stroke-width:0.75;" x="178.552021" xlink:href="#m23770fbd78" y="57.109586"/>
     <use style="fill:#1f77b4;stroke:#ffffff;stroke-width:0.75;" x="185.687286" xlink:href="#m23770fbd78" y="56.247423"/>
     <use style="fill:#1f77b4;stroke:#ffffff;stroke-width:0.75;" x="192.822551" xlink:href="#m23770fbd78" y="55.38526"/>
     <use style="fill:#1f77b4;stroke:#ffffff;stroke-width:0.75;" x="199.957815" xlink:href="#m23770fbd78" y="54.327151"/>
     <use style="fill:#1f77b4;stroke:#ffffff;stroke-width:0.75;" x="207.09308" xlink:href="#m23770fbd78" y="54.327151"/>
     <use style="fill:#1f77b4;stroke:#ffffff;stroke-width:0.75;" x="214.228345" xlink:href="#m23770fbd78" y="52.87715"/>
     <use style="fill:#1f77b4;stroke:#ffffff;stroke-width:0.75;" x="221.36361" xlink:href="#m23770fbd78" y="52.328501"/>
     <use style="fill:#1f77b4;stroke:#ffffff;stroke-width:0.75;" x="228.498874" xlink:href="#m23770fbd78" y="50.760932"/>
     <use style="fill:#1f77b4;stroke:#ffffff;stroke-width:0.75;" x="235.634139" xlink:href="#m23770fbd78" y="50.721742"/>
     <use style="fill:#1f77b4;stroke:#ffffff;stroke-width:0.75;" x="242.769404" xlink:href="#m23770fbd78" y="50.32985"/>
     <use style="fill:#1f77b4;stroke:#ffffff;stroke-width:0.75;" x="249.904668" xlink:href="#m23770fbd78" y="50.32985"/>
     <use style="fill:#1f77b4;stroke:#ffffff;stroke-width:0.75;" x="257.039933" xlink:href="#m23770fbd78" y="50.32985"/>
     <use style="fill:#1f77b4;stroke:#ffffff;stroke-width:0.75;" x="264.175198" xlink:href="#m23770fbd78" y="48.919038"/>
     <use style="fill:#1f77b4;stroke:#ffffff;stroke-width:0.75;" x="271.310463" xlink:href="#m23770fbd78" y="48.879849"/>
     <use style="fill:#1f77b4;stroke:#ffffff;stroke-width:0.75;" x="278.445727" xlink:href="#m23770fbd78" y="48.762281"/>
     <use style="fill:#1f77b4;stroke:#ffffff;stroke-width:0.75;" x="285.580992" xlink:href="#m23770fbd78" y="48.017686"/>
     <use style="fill:#1f77b4;stroke:#ffffff;stroke-width:0.75;" x="292.716257" xlink:href="#m23770fbd78" y="47.978496"/>
     <use style="fill:#1f77b4;stroke:#ffffff;stroke-width:0.75;" x="299.851522" xlink:href="#m23770fbd78" y="47.664983"/>
     <use style="fill:#1f77b4;stroke:#ffffff;stroke-width:0.75;" x="306.986786" xlink:href="#m23770fbd78" y="47.625793"/>
     <use style="fill:#1f77b4;stroke:#ffffff;stroke-width:0.75;" x="314.122051" xlink:href="#m23770fbd78" y="47.155523"/>
     <use style="fill:#1f77b4;stroke:#ffffff;stroke-width:0.75;" x="321.257316" xlink:href="#m23770fbd78" y="47.155523"/>
     <use style="fill:#1f77b4;stroke:#ffffff;stroke-width:0.75;" x="328.392581" xlink:href="#m23770fbd78" y="47.155523"/>
     <use style="fill:#1f77b4;stroke:#ffffff;stroke-width:0.75;" x="335.527845" xlink:href="#m23770fbd78" y="47.037955"/>
     <use style="fill:#1f77b4;stroke:#ffffff;stroke-width:0.75;" x="342.66311" xlink:href="#m23770fbd78" y="47.037955"/>
     <use style="fill:#1f77b4;stroke:#ffffff;stroke-width:0.75;" x="349.798375" xlink:href="#m23770fbd78" y="46.410927"/>
     <use style="fill:#1f77b4;stroke:#ffffff;stroke-width:0.75;" x="356.933639" xlink:href="#m23770fbd78" y="46.371738"/>
     <use style="fill:#1f77b4;stroke:#ffffff;stroke-width:0.75;" x="364.068904" xlink:href="#m23770fbd78" y="46.214981"/>
     <use style="fill:#1f77b4;stroke:#ffffff;stroke-width:0.75;" x="371.204169" xlink:href="#m23770fbd78" y="45.587953"/>
     <use style="fill:#1f77b4;stroke:#ffffff;stroke-width:0.75;" x="378.339434" xlink:href="#m23770fbd78" y="45.587953"/>
     <use style="fill:#1f77b4;stroke:#ffffff;stroke-width:0.75;" x="385.474698" xlink:href="#m23770fbd78" y="44.569034"/>
     <use style="fill:#1f77b4;stroke:#ffffff;stroke-width:0.75;" x="392.609963" xlink:href="#m23770fbd78" y="43.785249"/>
     <use style="fill:#1f77b4;stroke:#ffffff;stroke-width:0.75;" x="399.745228" xlink:href="#m23770fbd78" y="43.314978"/>
     <use style="fill:#1f77b4;stroke:#ffffff;stroke-width:0.75;" x="406.880493" xlink:href="#m23770fbd78" y="43.314978"/>
     <use style="fill:#1f77b4;stroke:#ffffff;stroke-width:0.75;" x="414.015757" xlink:href="#m23770fbd78" y="43.2366"/>
     <use style="fill:#1f77b4;stroke:#ffffff;stroke-width:0.75;" x="421.151022" xlink:href="#m23770fbd78" y="43.2366"/>
     <use style="fill:#1f77b4;stroke:#ffffff;stroke-width:0.75;" x="428.286287" xlink:href="#m23770fbd78" y="43.2366"/>
     <use style="fill:#1f77b4;stroke:#ffffff;stroke-width:0.75;" x="435.421552" xlink:href="#m23770fbd78" y="43.001464"/>
     <use style="fill:#1f77b4;stroke:#ffffff;stroke-width:0.75;" x="442.556816" xlink:href="#m23770fbd78" y="43.001464"/>
     <use style="fill:#1f77b4;stroke:#ffffff;stroke-width:0.75;" x="449.692081" xlink:href="#m23770fbd78" y="42.531194"/>
     <use style="fill:#1f77b4;stroke:#ffffff;stroke-width:0.75;" x="456.827346" xlink:href="#m23770fbd78" y="42.531194"/>
     <use style="fill:#1f77b4;stroke:#ffffff;stroke-width:0.75;" x="463.962611" xlink:href="#m23770fbd78" y="42.531194"/>
     <use style="fill:#1f77b4;stroke:#ffffff;stroke-width:0.75;" x="471.097875" xlink:href="#m23770fbd78" y="41.825788"/>
     <use style="fill:#1f77b4;stroke:#ffffff;stroke-width:0.75;" x="478.23314" xlink:href="#m23770fbd78" y="41.825788"/>
     <use style="fill:#1f77b4;stroke:#ffffff;stroke-width:0.75;" x="485.368405" xlink:href="#m23770fbd78" y="41.825788"/>
     <use style="fill:#1f77b4;stroke:#ffffff;stroke-width:0.75;" x="492.503669" xlink:href="#m23770fbd78" y="41.551463"/>
     <use style="fill:#1f77b4;stroke:#ffffff;stroke-width:0.75;" x="499.638934" xlink:href="#m23770fbd78" y="41.394706"/>
     <use style="fill:#1f77b4;stroke:#ffffff;stroke-width:0.75;" x="506.774199" xlink:href="#m23770fbd78" y="41.120382"/>
     <use style="fill:#1f77b4;stroke:#ffffff;stroke-width:0.75;" x="513.909464" xlink:href="#m23770fbd78" y="40.454165"/>
     <use style="fill:#1f77b4;stroke:#ffffff;stroke-width:0.75;" x="521.044728" xlink:href="#m23770fbd78" y="40.454165"/>
     <use style="fill:#1f77b4;stroke:#ffffff;stroke-width:0.75;" x="528.179993" xlink:href="#m23770fbd78" y="40.336597"/>
     <use style="fill:#1f77b4;stroke:#ffffff;stroke-width:0.75;" x="535.315258" xlink:href="#m23770fbd78" y="38.847406"/>
     <use style="fill:#1f77b4;stroke:#ffffff;stroke-width:0.75;" x="542.450523" xlink:href="#m23770fbd78" y="37.044702"/>
     <use style="fill:#1f77b4;stroke:#ffffff;stroke-width:0.75;" x="549.585787" xlink:href="#m23770fbd78" y="36.966323"/>
     <use style="fill:#1f77b4;stroke:#ffffff;stroke-width:0.75;" x="556.721052" xlink:href="#m23770fbd78" y="36.809567"/>
     <use style="fill:#1f77b4;stroke:#ffffff;stroke-width:0.75;" x="563.856317" xlink:href="#m23770fbd78" y="36.809567"/>
     <use style="fill:#1f77b4;stroke:#ffffff;stroke-width:0.75;" x="570.991582" xlink:href="#m23770fbd78" y="36.809567"/>
     <use style="fill:#1f77b4;stroke:#ffffff;stroke-width:0.75;" x="578.126846" xlink:href="#m23770fbd78" y="36.809567"/>
     <use style="fill:#1f77b4;stroke:#ffffff;stroke-width:0.75;" x="585.262111" xlink:href="#m23770fbd78" y="36.417674"/>
     <use style="fill:#1f77b4;stroke:#ffffff;stroke-width:0.75;" x="592.397376" xlink:href="#m23770fbd78" y="36.417674"/>
     <use style="fill:#1f77b4;stroke:#ffffff;stroke-width:0.75;" x="599.53264" xlink:href="#m23770fbd78" y="36.417674"/>
     <use style="fill:#1f77b4;stroke:#ffffff;stroke-width:0.75;" x="606.667905" xlink:href="#m23770fbd78" y="36.417674"/>
     <use style="fill:#1f77b4;stroke:#ffffff;stroke-width:0.75;" x="613.80317" xlink:href="#m23770fbd78" y="36.417674"/>
     <use style="fill:#1f77b4;stroke:#ffffff;stroke-width:0.75;" x="620.938435" xlink:href="#m23770fbd78" y="36.417674"/>
     <use style="fill:#1f77b4;stroke:#ffffff;stroke-width:0.75;" x="628.073699" xlink:href="#m23770fbd78" y="36.417674"/>
     <use style="fill:#1f77b4;stroke:#ffffff;stroke-width:0.75;" x="635.208964" xlink:href="#m23770fbd78" y="36.417674"/>
     <use style="fill:#1f77b4;stroke:#ffffff;stroke-width:0.75;" x="642.344229" xlink:href="#m23770fbd78" y="36.417674"/>
     <use style="fill:#1f77b4;stroke:#ffffff;stroke-width:0.75;" x="649.479494" xlink:href="#m23770fbd78" y="36.417674"/>
     <use style="fill:#1f77b4;stroke:#ffffff;stroke-width:0.75;" x="656.614758" xlink:href="#m23770fbd78" y="36.417674"/>
     <use style="fill:#1f77b4;stroke:#ffffff;stroke-width:0.75;" x="663.750023" xlink:href="#m23770fbd78" y="36.417674"/>
     <use style="fill:#1f77b4;stroke:#ffffff;stroke-width:0.75;" x="670.885288" xlink:href="#m23770fbd78" y="36.182539"/>
     <use style="fill:#1f77b4;stroke:#ffffff;stroke-width:0.75;" x="678.020553" xlink:href="#m23770fbd78" y="36.182539"/>
     <use style="fill:#1f77b4;stroke:#ffffff;stroke-width:0.75;" x="685.155817" xlink:href="#m23770fbd78" y="36.10416"/>
     <use style="fill:#1f77b4;stroke:#ffffff;stroke-width:0.75;" x="692.291082" xlink:href="#m23770fbd78" y="36.10416"/>
     <use style="fill:#1f77b4;stroke:#ffffff;stroke-width:0.75;" x="699.426347" xlink:href="#m23770fbd78" y="36.10416"/>
     <use style="fill:#1f77b4;stroke:#ffffff;stroke-width:0.75;" x="706.561612" xlink:href="#m23770fbd78" y="36.10416"/>
     <use style="fill:#1f77b4;stroke:#ffffff;stroke-width:0.75;" x="713.696876" xlink:href="#m23770fbd78" y="36.10416"/>
     <use style="fill:#1f77b4;stroke:#ffffff;stroke-width:0.75;" x="720.832141" xlink:href="#m23770fbd78" y="36.10416"/>
     <use style="fill:#1f77b4;stroke:#ffffff;stroke-width:0.75;" x="727.967406" xlink:href="#m23770fbd78" y="36.10416"/>
     <use style="fill:#1f77b4;stroke:#ffffff;stroke-width:0.75;" x="735.10267" xlink:href="#m23770fbd78" y="36.10416"/>
    </g>
   </g>
   <g id="line2d_21">
    <path clip-path="url(#pb7b2cbb57c)" d="M 85.79358 138.11372 
L 92.928844 102.333955 
L 100.064109 90.067727 
L 107.199374 85.992047 
L 114.334638 82.151503 
L 121.469903 80.387988 
L 128.605168 78.036634 
L 135.740433 76.469065 
L 142.875697 75.019063 
L 150.010962 72.902845 
L 157.146227 72.079871 
L 164.281492 71.923114 
L 171.416756 71.100141 
L 178.552021 70.159599 
L 185.687286 69.532571 
L 192.822551 69.454193 
L 199.957815 67.494732 
L 207.09308 65.887973 
L 214.228345 65.417703 
L 221.36361 65.417703 
L 228.498874 65.065 
L 235.634139 65.065 
L 242.769404 63.340674 
L 249.904668 63.340674 
L 257.039933 62.125807 
L 264.175198 62.00824 
L 271.310463 61.577158 
L 278.445727 61.185266 
L 285.580992 61.185266 
L 292.716257 60.871752 
L 299.851522 60.871752 
L 306.986786 60.323103 
L 314.122051 59.852832 
L 321.257316 59.304183 
L 328.392581 58.598777 
L 335.527845 58.402831 
L 342.66311 57.893371 
L 349.798375 57.814992 
L 356.933639 57.579857 
L 364.068904 57.540668 
L 371.204169 57.540668 
L 378.339434 56.835262 
L 385.474698 56.012288 
L 392.609963 55.816342 
L 399.745228 55.737963 
L 406.880493 55.032557 
L 414.015757 54.954179 
L 421.151022 54.719043 
L 428.286287 54.248773 
L 435.421552 54.248773 
L 442.556816 54.248773 
L 449.692081 54.209584 
L 456.827346 54.209584 
L 463.962611 54.209584 
L 471.097875 54.209584 
L 478.23314 53.85688 
L 485.368405 53.85688 
L 492.503669 51.975798 
L 499.638934 51.975798 
L 506.774199 51.975798 
L 513.909464 51.975798 
L 521.044728 51.975798 
L 528.179993 51.897419 
L 535.315258 50.956878 
L 542.450523 50.956878 
L 549.585787 50.956878 
L 556.721052 50.682553 
L 563.856317 50.682553 
L 570.991582 49.428498 
L 578.126846 49.428498 
L 585.262111 49.036606 
L 592.397376 49.036606 
L 599.53264 48.997416 
L 606.667905 48.997416 
L 613.80317 48.958227 
L 620.938435 48.919038 
L 628.073699 48.80147 
L 635.208964 48.174443 
L 642.344229 48.174443 
L 649.479494 48.174443 
L 656.614758 48.174443 
L 663.750023 48.096064 
L 670.885288 48.096064 
L 678.020553 48.096064 
L 685.155817 48.096064 
L 692.291082 48.056875 
L 699.426347 48.056875 
L 706.561612 47.429847 
L 713.696876 47.31228 
L 720.832141 47.31228 
L 727.967406 47.233901 
L 735.10267 47.233901 
" style="fill:none;stroke:#d62728;stroke-linecap:square;stroke-width:1.5;"/>
    <defs>
     <path d="M 0 -3 
L -3 3 
L 3 3 
z
" id="m4961ecc29e" style="stroke:#ffffff;stroke-linejoin:miter;stroke-width:0.75;"/>
    </defs>
    <g clip-path="url(#pb7b2cbb57c)">
     <use style="fill:#d62728;stroke:#ffffff;stroke-linejoin:miter;stroke-width:0.75;" x="85.79358" xlink:href="#m4961ecc29e" y="138.11372"/>
     <use style="fill:#d62728;stroke:#ffffff;stroke-linejoin:miter;stroke-width:0.75;" x="92.928844" xlink:href="#m4961ecc29e" y="102.333955"/>
     <use style="fill:#d62728;stroke:#ffffff;stroke-linejoin:miter;stroke-width:0.75;" x="100.064109" xlink:href="#m4961ecc29e" y="90.067727"/>
     <use style="fill:#d62728;stroke:#ffffff;stroke-linejoin:miter;stroke-width:0.75;" x="107.199374" xlink:href="#m4961ecc29e" y="85.992047"/>
     <use style="fill:#d62728;stroke:#ffffff;stroke-linejoin:miter;stroke-width:0.75;" x="114.334638" xlink:href="#m4961ecc29e" y="82.151503"/>
     <use style="fill:#d62728;stroke:#ffffff;stroke-linejoin:miter;stroke-width:0.75;" x="121.469903" xlink:href="#m4961ecc29e" y="80.387988"/>
     <use style="fill:#d62728;stroke:#ffffff;stroke-linejoin:miter;stroke-width:0.75;" x="128.605168" xlink:href="#m4961ecc29e" y="78.036634"/>
     <use style="fill:#d62728;stroke:#ffffff;stroke-linejoin:miter;stroke-width:0.75;" x="135.740433" xlink:href="#m4961ecc29e" y="76.469065"/>
     <use style="fill:#d62728;stroke:#ffffff;stroke-linejoin:miter;stroke-width:0.75;" x="142.875697" xlink:href="#m4961ecc29e" y="75.019063"/>
     <use style="fill:#d62728;stroke:#ffffff;stroke-linejoin:miter;stroke-width:0.75;" x="150.010962" xlink:href="#m4961ecc29e" y="72.902845"/>
     <use style="fill:#d62728;stroke:#ffffff;stroke-linejoin:miter;stroke-width:0.75;" x="157.146227" xlink:href="#m4961ecc29e" y="72.079871"/>
     <use style="fill:#d62728;stroke:#ffffff;stroke-linejoin:miter;stroke-width:0.75;" x="164.281492" xlink:href="#m4961ecc29e" y="71.923114"/>
     <use style="fill:#d62728;stroke:#ffffff;stroke-linejoin:miter;stroke-width:0.75;" x="171.416756" xlink:href="#m4961ecc29e" y="71.100141"/>
     <use style="fill:#d62728;stroke:#ffffff;stroke-linejoin:miter;stroke-width:0.75;" x="178.552021" xlink:href="#m4961ecc29e" y="70.159599"/>
     <use style="fill:#d62728;stroke:#ffffff;stroke-linejoin:miter;stroke-width:0.75;" x="185.687286" xlink:href="#m4961ecc29e" y="69.532571"/>
     <use style="fill:#d62728;stroke:#ffffff;stroke-linejoin:miter;stroke-width:0.75;" x="192.822551" xlink:href="#m4961ecc29e" y="69.454193"/>
     <use style="fill:#d62728;stroke:#ffffff;stroke-linejoin:miter;stroke-width:0.75;" x="199.957815" xlink:href="#m4961ecc29e" y="67.494732"/>
     <use style="fill:#d62728;stroke:#ffffff;stroke-linejoin:miter;stroke-width:0.75;" x="207.09308" xlink:href="#m4961ecc29e" y="65.887973"/>
     <use style="fill:#d62728;stroke:#ffffff;stroke-linejoin:miter;stroke-width:0.75;" x="214.228345" xlink:href="#m4961ecc29e" y="65.417703"/>
     <use style="fill:#d62728;stroke:#ffffff;stroke-linejoin:miter;stroke-width:0.75;" x="221.36361" xlink:href="#m4961ecc29e" y="65.417703"/>
     <use style="fill:#d62728;stroke:#ffffff;stroke-linejoin:miter;stroke-width:0.75;" x="228.498874" xlink:href="#m4961ecc29e" y="65.065"/>
     <use style="fill:#d62728;stroke:#ffffff;stroke-linejoin:miter;stroke-width:0.75;" x="235.634139" xlink:href="#m4961ecc29e" y="65.065"/>
     <use style="fill:#d62728;stroke:#ffffff;stroke-linejoin:miter;stroke-width:0.75;" x="242.769404" xlink:href="#m4961ecc29e" y="63.340674"/>
     <use style="fill:#d62728;stroke:#ffffff;stroke-linejoin:miter;stroke-width:0.75;" x="249.904668" xlink:href="#m4961ecc29e" y="63.340674"/>
     <use style="fill:#d62728;stroke:#ffffff;stroke-linejoin:miter;stroke-width:0.75;" x="257.039933" xlink:href="#m4961ecc29e" y="62.125807"/>
     <use style="fill:#d62728;stroke:#ffffff;stroke-linejoin:miter;stroke-width:0.75;" x="264.175198" xlink:href="#m4961ecc29e" y="62.00824"/>
     <use style="fill:#d62728;stroke:#ffffff;stroke-linejoin:miter;stroke-width:0.75;" x="271.310463" xlink:href="#m4961ecc29e" y="61.577158"/>
     <use style="fill:#d62728;stroke:#ffffff;stroke-linejoin:miter;stroke-width:0.75;" x="278.445727" xlink:href="#m4961ecc29e" y="61.185266"/>
     <use style="fill:#d62728;stroke:#ffffff;stroke-linejoin:miter;stroke-width:0.75;" x="285.580992" xlink:href="#m4961ecc29e" y="61.185266"/>
     <use style="fill:#d62728;stroke:#ffffff;stroke-linejoin:miter;stroke-width:0.75;" x="292.716257" xlink:href="#m4961ecc29e" y="60.871752"/>
     <use style="fill:#d62728;stroke:#ffffff;stroke-linejoin:miter;stroke-width:0.75;" x="299.851522" xlink:href="#m4961ecc29e" y="60.871752"/>
     <use style="fill:#d62728;stroke:#ffffff;stroke-linejoin:miter;stroke-width:0.75;" x="306.986786" xlink:href="#m4961ecc29e" y="60.323103"/>
     <use style="fill:#d62728;stroke:#ffffff;stroke-linejoin:miter;stroke-width:0.75;" x="314.122051" xlink:href="#m4961ecc29e" y="59.852832"/>
     <use style="fill:#d62728;stroke:#ffffff;stroke-linejoin:miter;stroke-width:0.75;" x="321.257316" xlink:href="#m4961ecc29e" y="59.304183"/>
     <use style="fill:#d62728;stroke:#ffffff;stroke-linejoin:miter;stroke-width:0.75;" x="328.392581" xlink:href="#m4961ecc29e" y="58.598777"/>
     <use style="fill:#d62728;stroke:#ffffff;stroke-linejoin:miter;stroke-width:0.75;" x="335.527845" xlink:href="#m4961ecc29e" y="58.402831"/>
     <use style="fill:#d62728;stroke:#ffffff;stroke-linejoin:miter;stroke-width:0.75;" x="342.66311" xlink:href="#m4961ecc29e" y="57.893371"/>
     <use style="fill:#d62728;stroke:#ffffff;stroke-linejoin:miter;stroke-width:0.75;" x="349.798375" xlink:href="#m4961ecc29e" y="57.814992"/>
     <use style="fill:#d62728;stroke:#ffffff;stroke-linejoin:miter;stroke-width:0.75;" x="356.933639" xlink:href="#m4961ecc29e" y="57.579857"/>
     <use style="fill:#d62728;stroke:#ffffff;stroke-linejoin:miter;stroke-width:0.75;" x="364.068904" xlink:href="#m4961ecc29e" y="57.540668"/>
     <use style="fill:#d62728;stroke:#ffffff;stroke-linejoin:miter;stroke-width:0.75;" x="371.204169" xlink:href="#m4961ecc29e" y="57.540668"/>
     <use style="fill:#d62728;stroke:#ffffff;stroke-linejoin:miter;stroke-width:0.75;" x="378.339434" xlink:href="#m4961ecc29e" y="56.835262"/>
     <use style="fill:#d62728;stroke:#ffffff;stroke-linejoin:miter;stroke-width:0.75;" x="385.474698" xlink:href="#m4961ecc29e" y="56.012288"/>
     <use style="fill:#d62728;stroke:#ffffff;stroke-linejoin:miter;stroke-width:0.75;" x="392.609963" xlink:href="#m4961ecc29e" y="55.816342"/>
     <use style="fill:#d62728;stroke:#ffffff;stroke-linejoin:miter;stroke-width:0.75;" x="399.745228" xlink:href="#m4961ecc29e" y="55.737963"/>
     <use style="fill:#d62728;stroke:#ffffff;stroke-linejoin:miter;stroke-width:0.75;" x="406.880493" xlink:href="#m4961ecc29e" y="55.032557"/>
     <use style="fill:#d62728;stroke:#ffffff;stroke-linejoin:miter;stroke-width:0.75;" x="414.015757" xlink:href="#m4961ecc29e" y="54.954179"/>
     <use style="fill:#d62728;stroke:#ffffff;stroke-linejoin:miter;stroke-width:0.75;" x="421.151022" xlink:href="#m4961ecc29e" y="54.719043"/>
     <use style="fill:#d62728;stroke:#ffffff;stroke-linejoin:miter;stroke-width:0.75;" x="428.286287" xlink:href="#m4961ecc29e" y="54.248773"/>
     <use style="fill:#d62728;stroke:#ffffff;stroke-linejoin:miter;stroke-width:0.75;" x="435.421552" xlink:href="#m4961ecc29e" y="54.248773"/>
     <use style="fill:#d62728;stroke:#ffffff;stroke-linejoin:miter;stroke-width:0.75;" x="442.556816" xlink:href="#m4961ecc29e" y="54.248773"/>
     <use style="fill:#d62728;stroke:#ffffff;stroke-linejoin:miter;stroke-width:0.75;" x="449.692081" xlink:href="#m4961ecc29e" y="54.209584"/>
     <use style="fill:#d62728;stroke:#ffffff;stroke-linejoin:miter;stroke-width:0.75;" x="456.827346" xlink:href="#m4961ecc29e" y="54.209584"/>
     <use style="fill:#d62728;stroke:#ffffff;stroke-linejoin:miter;stroke-width:0.75;" x="463.962611" xlink:href="#m4961ecc29e" y="54.209584"/>
     <use style="fill:#d62728;stroke:#ffffff;stroke-linejoin:miter;stroke-width:0.75;" x="471.097875" xlink:href="#m4961ecc29e" y="54.209584"/>
     <use style="fill:#d62728;stroke:#ffffff;stroke-linejoin:miter;stroke-width:0.75;" x="478.23314" xlink:href="#m4961ecc29e" y="53.85688"/>
     <use style="fill:#d62728;stroke:#ffffff;stroke-linejoin:miter;stroke-width:0.75;" x="485.368405" xlink:href="#m4961ecc29e" y="53.85688"/>
     <use style="fill:#d62728;stroke:#ffffff;stroke-linejoin:miter;stroke-width:0.75;" x="492.503669" xlink:href="#m4961ecc29e" y="51.975798"/>
     <use style="fill:#d62728;stroke:#ffffff;stroke-linejoin:miter;stroke-width:0.75;" x="499.638934" xlink:href="#m4961ecc29e" y="51.975798"/>
     <use style="fill:#d62728;stroke:#ffffff;stroke-linejoin:miter;stroke-width:0.75;" x="506.774199" xlink:href="#m4961ecc29e" y="51.975798"/>
     <use style="fill:#d62728;stroke:#ffffff;stroke-linejoin:miter;stroke-width:0.75;" x="513.909464" xlink:href="#m4961ecc29e" y="51.975798"/>
     <use style="fill:#d62728;stroke:#ffffff;stroke-linejoin:miter;stroke-width:0.75;" x="521.044728" xlink:href="#m4961ecc29e" y="51.975798"/>
     <use style="fill:#d62728;stroke:#ffffff;stroke-linejoin:miter;stroke-width:0.75;" x="528.179993" xlink:href="#m4961ecc29e" y="51.897419"/>
     <use style="fill:#d62728;stroke:#ffffff;stroke-linejoin:miter;stroke-width:0.75;" x="535.315258" xlink:href="#m4961ecc29e" y="50.956878"/>
     <use style="fill:#d62728;stroke:#ffffff;stroke-linejoin:miter;stroke-width:0.75;" x="542.450523" xlink:href="#m4961ecc29e" y="50.956878"/>
     <use style="fill:#d62728;stroke:#ffffff;stroke-linejoin:miter;stroke-width:0.75;" x="549.585787" xlink:href="#m4961ecc29e" y="50.956878"/>
     <use style="fill:#d62728;stroke:#ffffff;stroke-linejoin:miter;stroke-width:0.75;" x="556.721052" xlink:href="#m4961ecc29e" y="50.682553"/>
     <use style="fill:#d62728;stroke:#ffffff;stroke-linejoin:miter;stroke-width:0.75;" x="563.856317" xlink:href="#m4961ecc29e" y="50.682553"/>
     <use style="fill:#d62728;stroke:#ffffff;stroke-linejoin:miter;stroke-width:0.75;" x="570.991582" xlink:href="#m4961ecc29e" y="49.428498"/>
     <use style="fill:#d62728;stroke:#ffffff;stroke-linejoin:miter;stroke-width:0.75;" x="578.126846" xlink:href="#m4961ecc29e" y="49.428498"/>
     <use style="fill:#d62728;stroke:#ffffff;stroke-linejoin:miter;stroke-width:0.75;" x="585.262111" xlink:href="#m4961ecc29e" y="49.036606"/>
     <use style="fill:#d62728;stroke:#ffffff;stroke-linejoin:miter;stroke-width:0.75;" x="592.397376" xlink:href="#m4961ecc29e" y="49.036606"/>
     <use style="fill:#d62728;stroke:#ffffff;stroke-linejoin:miter;stroke-width:0.75;" x="599.53264" xlink:href="#m4961ecc29e" y="48.997416"/>
     <use style="fill:#d62728;stroke:#ffffff;stroke-linejoin:miter;stroke-width:0.75;" x="606.667905" xlink:href="#m4961ecc29e" y="48.997416"/>
     <use style="fill:#d62728;stroke:#ffffff;stroke-linejoin:miter;stroke-width:0.75;" x="613.80317" xlink:href="#m4961ecc29e" y="48.958227"/>
     <use style="fill:#d62728;stroke:#ffffff;stroke-linejoin:miter;stroke-width:0.75;" x="620.938435" xlink:href="#m4961ecc29e" y="48.919038"/>
     <use style="fill:#d62728;stroke:#ffffff;stroke-linejoin:miter;stroke-width:0.75;" x="628.073699" xlink:href="#m4961ecc29e" y="48.80147"/>
     <use style="fill:#d62728;stroke:#ffffff;stroke-linejoin:miter;stroke-width:0.75;" x="635.208964" xlink:href="#m4961ecc29e" y="48.174443"/>
     <use style="fill:#d62728;stroke:#ffffff;stroke-linejoin:miter;stroke-width:0.75;" x="642.344229" xlink:href="#m4961ecc29e" y="48.174443"/>
     <use style="fill:#d62728;stroke:#ffffff;stroke-linejoin:miter;stroke-width:0.75;" x="649.479494" xlink:href="#m4961ecc29e" y="48.174443"/>
     <use style="fill:#d62728;stroke:#ffffff;stroke-linejoin:miter;stroke-width:0.75;" x="656.614758" xlink:href="#m4961ecc29e" y="48.174443"/>
     <use style="fill:#d62728;stroke:#ffffff;stroke-linejoin:miter;stroke-width:0.75;" x="663.750023" xlink:href="#m4961ecc29e" y="48.096064"/>
     <use style="fill:#d62728;stroke:#ffffff;stroke-linejoin:miter;stroke-width:0.75;" x="670.885288" xlink:href="#m4961ecc29e" y="48.096064"/>
     <use style="fill:#d62728;stroke:#ffffff;stroke-linejoin:miter;stroke-width:0.75;" x="678.020553" xlink:href="#m4961ecc29e" y="48.096064"/>
     <use style="fill:#d62728;stroke:#ffffff;stroke-linejoin:miter;stroke-width:0.75;" x="685.155817" xlink:href="#m4961ecc29e" y="48.096064"/>
     <use style="fill:#d62728;stroke:#ffffff;stroke-linejoin:miter;stroke-width:0.75;" x="692.291082" xlink:href="#m4961ecc29e" y="48.056875"/>
     <use style="fill:#d62728;stroke:#ffffff;stroke-linejoin:miter;stroke-width:0.75;" x="699.426347" xlink:href="#m4961ecc29e" y="48.056875"/>
     <use style="fill:#d62728;stroke:#ffffff;stroke-linejoin:miter;stroke-width:0.75;" x="706.561612" xlink:href="#m4961ecc29e" y="47.429847"/>
     <use style="fill:#d62728;stroke:#ffffff;stroke-linejoin:miter;stroke-width:0.75;" x="713.696876" xlink:href="#m4961ecc29e" y="47.31228"/>
     <use style="fill:#d62728;stroke:#ffffff;stroke-linejoin:miter;stroke-width:0.75;" x="720.832141" xlink:href="#m4961ecc29e" y="47.31228"/>
     <use style="fill:#d62728;stroke:#ffffff;stroke-linejoin:miter;stroke-width:0.75;" x="727.967406" xlink:href="#m4961ecc29e" y="47.233901"/>
     <use style="fill:#d62728;stroke:#ffffff;stroke-linejoin:miter;stroke-width:0.75;" x="735.10267" xlink:href="#m4961ecc29e" y="47.233901"/>
    </g>
   </g>
   <g id="line2d_22">
    <path clip-path="url(#pb7b2cbb57c)" d="M 85.79358 269.593578 
L 92.928844 218.334068 
L 100.064109 177.538082 
L 107.199374 147.440756 
L 114.334638 126.121816 
L 121.469903 117.539375 
L 128.605168 113.542074 
L 135.740433 109.583962 
L 142.875697 108.643421 
L 150.010962 107.232608 
L 157.146227 103.901524 
L 164.281492 94.613677 
L 171.416756 93.477189 
L 178.552021 93.124486 
L 185.687286 90.694754 
L 192.822551 90.694754 
L 199.957815 89.519078 
L 207.09308 89.479888 
L 214.228345 89.440699 
L 221.36361 89.323131 
L 228.498874 89.283942 
L 235.634139 85.208262 
L 242.769404 85.129884 
L 249.904668 85.051506 
L 257.039933 85.051506 
L 264.175198 84.973127 
L 271.310463 84.463667 
L 278.445727 84.189343 
L 285.580992 84.189343 
L 292.716257 81.837989 
L 299.851522 81.720421 
L 306.986786 81.328529 
L 314.122051 81.328529 
L 321.257316 79.76096 
L 328.392581 77.762309 
L 335.527845 77.72312 
L 342.66311 77.252849 
L 349.798375 77.252849 
L 356.933639 77.252849 
L 364.068904 75.881226 
L 371.204169 75.881226 
L 378.339434 75.802848 
L 385.474698 75.802848 
L 392.609963 75.802848 
L 399.745228 75.802848 
L 406.880493 75.724469 
L 414.015757 75.68528 
L 421.151022 74.862306 
L 428.286287 74.66636 
L 435.421552 74.66636 
L 442.556816 74.66636 
L 449.692081 74.235279 
L 456.827346 74.19609 
L 463.962611 74.039333 
L 471.097875 73.960954 
L 478.23314 73.882576 
L 485.368405 73.882576 
L 492.503669 73.882576 
L 499.638934 73.882576 
L 506.774199 73.882576 
L 513.909464 73.882576 
L 521.044728 73.882576 
L 528.179993 73.882576 
L 535.315258 73.882576 
L 542.450523 73.843387 
L 549.585787 73.843387 
L 556.721052 73.843387 
L 563.856317 73.765008 
L 570.991582 73.68663 
L 578.126846 73.68663 
L 585.262111 73.68663 
L 592.397376 73.68663 
L 599.53264 68.670408 
L 606.667905 68.670408 
L 613.80317 68.670408 
L 620.938435 68.670408 
L 628.073699 68.670408 
L 635.208964 68.670408 
L 642.344229 68.670408 
L 649.479494 68.670408 
L 656.614758 68.670408 
L 663.750023 68.670408 
L 670.885288 68.670408 
L 678.020553 68.200138 
L 685.155817 68.200138 
L 692.291082 68.200138 
L 699.426347 68.200138 
L 706.561612 68.200138 
L 713.696876 68.200138 
L 720.832141 68.200138 
L 727.967406 68.200138 
L 735.10267 68.200138 
" style="fill:none;stroke:#98df8a;stroke-linecap:square;stroke-width:1.5;"/>
    <defs>
     <path d="M -0 3 
L 3 -3 
L -3 -3 
z
" id="m82c3882cf9" style="stroke:#ffffff;stroke-linejoin:miter;stroke-width:0.75;"/>
    </defs>
    <g clip-path="url(#pb7b2cbb57c)">
     <use style="fill:#98df8a;stroke:#ffffff;stroke-linejoin:miter;stroke-width:0.75;" x="85.79358" xlink:href="#m82c3882cf9" y="269.593578"/>
     <use style="fill:#98df8a;stroke:#ffffff;stroke-linejoin:miter;stroke-width:0.75;" x="92.928844" xlink:href="#m82c3882cf9" y="218.334068"/>
     <use style="fill:#98df8a;stroke:#ffffff;stroke-linejoin:miter;stroke-width:0.75;" x="100.064109" xlink:href="#m82c3882cf9" y="177.538082"/>
     <use style="fill:#98df8a;stroke:#ffffff;stroke-linejoin:miter;stroke-width:0.75;" x="107.199374" xlink:href="#m82c3882cf9" y="147.440756"/>
     <use style="fill:#98df8a;stroke:#ffffff;stroke-linejoin:miter;stroke-width:0.75;" x="114.334638" xlink:href="#m82c3882cf9" y="126.121816"/>
     <use style="fill:#98df8a;stroke:#ffffff;stroke-linejoin:miter;stroke-width:0.75;" x="121.469903" xlink:href="#m82c3882cf9" y="117.539375"/>
     <use style="fill:#98df8a;stroke:#ffffff;stroke-linejoin:miter;stroke-width:0.75;" x="128.605168" xlink:href="#m82c3882cf9" y="113.542074"/>
     <use style="fill:#98df8a;stroke:#ffffff;stroke-linejoin:miter;stroke-width:0.75;" x="135.740433" xlink:href="#m82c3882cf9" y="109.583962"/>
     <use style="fill:#98df8a;stroke:#ffffff;stroke-linejoin:miter;stroke-width:0.75;" x="142.875697" xlink:href="#m82c3882cf9" y="108.643421"/>
     <use style="fill:#98df8a;stroke:#ffffff;stroke-linejoin:miter;stroke-width:0.75;" x="150.010962" xlink:href="#m82c3882cf9" y="107.232608"/>
     <use style="fill:#98df8a;stroke:#ffffff;stroke-linejoin:miter;stroke-width:0.75;" x="157.146227" xlink:href="#m82c3882cf9" y="103.901524"/>
     <use style="fill:#98df8a;stroke:#ffffff;stroke-linejoin:miter;stroke-width:0.75;" x="164.281492" xlink:href="#m82c3882cf9" y="94.613677"/>
     <use style="fill:#98df8a;stroke:#ffffff;stroke-linejoin:miter;stroke-width:0.75;" x="171.416756" xlink:href="#m82c3882cf9" y="93.477189"/>
     <use style="fill:#98df8a;stroke:#ffffff;stroke-linejoin:miter;stroke-width:0.75;" x="178.552021" xlink:href="#m82c3882cf9" y="93.124486"/>
     <use style="fill:#98df8a;stroke:#ffffff;stroke-linejoin:miter;stroke-width:0.75;" x="185.687286" xlink:href="#m82c3882cf9" y="90.694754"/>
     <use style="fill:#98df8a;stroke:#ffffff;stroke-linejoin:miter;stroke-width:0.75;" x="192.822551" xlink:href="#m82c3882cf9" y="90.694754"/>
     <use style="fill:#98df8a;stroke:#ffffff;stroke-linejoin:miter;stroke-width:0.75;" x="199.957815" xlink:href="#m82c3882cf9" y="89.519078"/>
     <use style="fill:#98df8a;stroke:#ffffff;stroke-linejoin:miter;stroke-width:0.75;" x="207.09308" xlink:href="#m82c3882cf9" y="89.479888"/>
     <use style="fill:#98df8a;stroke:#ffffff;stroke-linejoin:miter;stroke-width:0.75;" x="214.228345" xlink:href="#m82c3882cf9" y="89.440699"/>
     <use style="fill:#98df8a;stroke:#ffffff;stroke-linejoin:miter;stroke-width:0.75;" x="221.36361" xlink:href="#m82c3882cf9" y="89.323131"/>
     <use style="fill:#98df8a;stroke:#ffffff;stroke-linejoin:miter;stroke-width:0.75;" x="228.498874" xlink:href="#m82c3882cf9" y="89.283942"/>
     <use style="fill:#98df8a;stroke:#ffffff;stroke-linejoin:miter;stroke-width:0.75;" x="235.634139" xlink:href="#m82c3882cf9" y="85.208262"/>
     <use style="fill:#98df8a;stroke:#ffffff;stroke-linejoin:miter;stroke-width:0.75;" x="242.769404" xlink:href="#m82c3882cf9" y="85.129884"/>
     <use style="fill:#98df8a;stroke:#ffffff;stroke-linejoin:miter;stroke-width:0.75;" x="249.904668" xlink:href="#m82c3882cf9" y="85.051506"/>
     <use style="fill:#98df8a;stroke:#ffffff;stroke-linejoin:miter;stroke-width:0.75;" x="257.039933" xlink:href="#m82c3882cf9" y="85.051506"/>
     <use style="fill:#98df8a;stroke:#ffffff;stroke-linejoin:miter;stroke-width:0.75;" x="264.175198" xlink:href="#m82c3882cf9" y="84.973127"/>
     <use style="fill:#98df8a;stroke:#ffffff;stroke-linejoin:miter;stroke-width:0.75;" x="271.310463" xlink:href="#m82c3882cf9" y="84.463667"/>
     <use style="fill:#98df8a;stroke:#ffffff;stroke-linejoin:miter;stroke-width:0.75;" x="278.445727" xlink:href="#m82c3882cf9" y="84.189343"/>
     <use style="fill:#98df8a;stroke:#ffffff;stroke-linejoin:miter;stroke-width:0.75;" x="285.580992" xlink:href="#m82c3882cf9" y="84.189343"/>
     <use style="fill:#98df8a;stroke:#ffffff;stroke-linejoin:miter;stroke-width:0.75;" x="292.716257" xlink:href="#m82c3882cf9" y="81.837989"/>
     <use style="fill:#98df8a;stroke:#ffffff;stroke-linejoin:miter;stroke-width:0.75;" x="299.851522" xlink:href="#m82c3882cf9" y="81.720421"/>
     <use style="fill:#98df8a;stroke:#ffffff;stroke-linejoin:miter;stroke-width:0.75;" x="306.986786" xlink:href="#m82c3882cf9" y="81.328529"/>
     <use style="fill:#98df8a;stroke:#ffffff;stroke-linejoin:miter;stroke-width:0.75;" x="314.122051" xlink:href="#m82c3882cf9" y="81.328529"/>
     <use style="fill:#98df8a;stroke:#ffffff;stroke-linejoin:miter;stroke-width:0.75;" x="321.257316" xlink:href="#m82c3882cf9" y="79.76096"/>
     <use style="fill:#98df8a;stroke:#ffffff;stroke-linejoin:miter;stroke-width:0.75;" x="328.392581" xlink:href="#m82c3882cf9" y="77.762309"/>
     <use style="fill:#98df8a;stroke:#ffffff;stroke-linejoin:miter;stroke-width:0.75;" x="335.527845" xlink:href="#m82c3882cf9" y="77.72312"/>
     <use style="fill:#98df8a;stroke:#ffffff;stroke-linejoin:miter;stroke-width:0.75;" x="342.66311" xlink:href="#m82c3882cf9" y="77.252849"/>
     <use style="fill:#98df8a;stroke:#ffffff;stroke-linejoin:miter;stroke-width:0.75;" x="349.798375" xlink:href="#m82c3882cf9" y="77.252849"/>
     <use style="fill:#98df8a;stroke:#ffffff;stroke-linejoin:miter;stroke-width:0.75;" x="356.933639" xlink:href="#m82c3882cf9" y="77.252849"/>
     <use style="fill:#98df8a;stroke:#ffffff;stroke-linejoin:miter;stroke-width:0.75;" x="364.068904" xlink:href="#m82c3882cf9" y="75.881226"/>
     <use style="fill:#98df8a;stroke:#ffffff;stroke-linejoin:miter;stroke-width:0.75;" x="371.204169" xlink:href="#m82c3882cf9" y="75.881226"/>
     <use style="fill:#98df8a;stroke:#ffffff;stroke-linejoin:miter;stroke-width:0.75;" x="378.339434" xlink:href="#m82c3882cf9" y="75.802848"/>
     <use style="fill:#98df8a;stroke:#ffffff;stroke-linejoin:miter;stroke-width:0.75;" x="385.474698" xlink:href="#m82c3882cf9" y="75.802848"/>
     <use style="fill:#98df8a;stroke:#ffffff;stroke-linejoin:miter;stroke-width:0.75;" x="392.609963" xlink:href="#m82c3882cf9" y="75.802848"/>
     <use style="fill:#98df8a;stroke:#ffffff;stroke-linejoin:miter;stroke-width:0.75;" x="399.745228" xlink:href="#m82c3882cf9" y="75.802848"/>
     <use style="fill:#98df8a;stroke:#ffffff;stroke-linejoin:miter;stroke-width:0.75;" x="406.880493" xlink:href="#m82c3882cf9" y="75.724469"/>
     <use style="fill:#98df8a;stroke:#ffffff;stroke-linejoin:miter;stroke-width:0.75;" x="414.015757" xlink:href="#m82c3882cf9" y="75.68528"/>
     <use style="fill:#98df8a;stroke:#ffffff;stroke-linejoin:miter;stroke-width:0.75;" x="421.151022" xlink:href="#m82c3882cf9" y="74.862306"/>
     <use style="fill:#98df8a;stroke:#ffffff;stroke-linejoin:miter;stroke-width:0.75;" x="428.286287" xlink:href="#m82c3882cf9" y="74.66636"/>
     <use style="fill:#98df8a;stroke:#ffffff;stroke-linejoin:miter;stroke-width:0.75;" x="435.421552" xlink:href="#m82c3882cf9" y="74.66636"/>
     <use style="fill:#98df8a;stroke:#ffffff;stroke-linejoin:miter;stroke-width:0.75;" x="442.556816" xlink:href="#m82c3882cf9" y="74.66636"/>
     <use style="fill:#98df8a;stroke:#ffffff;stroke-linejoin:miter;stroke-width:0.75;" x="449.692081" xlink:href="#m82c3882cf9" y="74.235279"/>
     <use style="fill:#98df8a;stroke:#ffffff;stroke-linejoin:miter;stroke-width:0.75;" x="456.827346" xlink:href="#m82c3882cf9" y="74.19609"/>
     <use style="fill:#98df8a;stroke:#ffffff;stroke-linejoin:miter;stroke-width:0.75;" x="463.962611" xlink:href="#m82c3882cf9" y="74.039333"/>
     <use style="fill:#98df8a;stroke:#ffffff;stroke-linejoin:miter;stroke-width:0.75;" x="471.097875" xlink:href="#m82c3882cf9" y="73.960954"/>
     <use style="fill:#98df8a;stroke:#ffffff;stroke-linejoin:miter;stroke-width:0.75;" x="478.23314" xlink:href="#m82c3882cf9" y="73.882576"/>
     <use style="fill:#98df8a;stroke:#ffffff;stroke-linejoin:miter;stroke-width:0.75;" x="485.368405" xlink:href="#m82c3882cf9" y="73.882576"/>
     <use style="fill:#98df8a;stroke:#ffffff;stroke-linejoin:miter;stroke-width:0.75;" x="492.503669" xlink:href="#m82c3882cf9" y="73.882576"/>
     <use style="fill:#98df8a;stroke:#ffffff;stroke-linejoin:miter;stroke-width:0.75;" x="499.638934" xlink:href="#m82c3882cf9" y="73.882576"/>
     <use style="fill:#98df8a;stroke:#ffffff;stroke-linejoin:miter;stroke-width:0.75;" x="506.774199" xlink:href="#m82c3882cf9" y="73.882576"/>
     <use style="fill:#98df8a;stroke:#ffffff;stroke-linejoin:miter;stroke-width:0.75;" x="513.909464" xlink:href="#m82c3882cf9" y="73.882576"/>
     <use style="fill:#98df8a;stroke:#ffffff;stroke-linejoin:miter;stroke-width:0.75;" x="521.044728" xlink:href="#m82c3882cf9" y="73.882576"/>
     <use style="fill:#98df8a;stroke:#ffffff;stroke-linejoin:miter;stroke-width:0.75;" x="528.179993" xlink:href="#m82c3882cf9" y="73.882576"/>
     <use style="fill:#98df8a;stroke:#ffffff;stroke-linejoin:miter;stroke-width:0.75;" x="535.315258" xlink:href="#m82c3882cf9" y="73.882576"/>
     <use style="fill:#98df8a;stroke:#ffffff;stroke-linejoin:miter;stroke-width:0.75;" x="542.450523" xlink:href="#m82c3882cf9" y="73.843387"/>
     <use style="fill:#98df8a;stroke:#ffffff;stroke-linejoin:miter;stroke-width:0.75;" x="549.585787" xlink:href="#m82c3882cf9" y="73.843387"/>
     <use style="fill:#98df8a;stroke:#ffffff;stroke-linejoin:miter;stroke-width:0.75;" x="556.721052" xlink:href="#m82c3882cf9" y="73.843387"/>
     <use style="fill:#98df8a;stroke:#ffffff;stroke-linejoin:miter;stroke-width:0.75;" x="563.856317" xlink:href="#m82c3882cf9" y="73.765008"/>
     <use style="fill:#98df8a;stroke:#ffffff;stroke-linejoin:miter;stroke-width:0.75;" x="570.991582" xlink:href="#m82c3882cf9" y="73.68663"/>
     <use style="fill:#98df8a;stroke:#ffffff;stroke-linejoin:miter;stroke-width:0.75;" x="578.126846" xlink:href="#m82c3882cf9" y="73.68663"/>
     <use style="fill:#98df8a;stroke:#ffffff;stroke-linejoin:miter;stroke-width:0.75;" x="585.262111" xlink:href="#m82c3882cf9" y="73.68663"/>
     <use style="fill:#98df8a;stroke:#ffffff;stroke-linejoin:miter;stroke-width:0.75;" x="592.397376" xlink:href="#m82c3882cf9" y="73.68663"/>
     <use style="fill:#98df8a;stroke:#ffffff;stroke-linejoin:miter;stroke-width:0.75;" x="599.53264" xlink:href="#m82c3882cf9" y="68.670408"/>
     <use style="fill:#98df8a;stroke:#ffffff;stroke-linejoin:miter;stroke-width:0.75;" x="606.667905" xlink:href="#m82c3882cf9" y="68.670408"/>
     <use style="fill:#98df8a;stroke:#ffffff;stroke-linejoin:miter;stroke-width:0.75;" x="613.80317" xlink:href="#m82c3882cf9" y="68.670408"/>
     <use style="fill:#98df8a;stroke:#ffffff;stroke-linejoin:miter;stroke-width:0.75;" x="620.938435" xlink:href="#m82c3882cf9" y="68.670408"/>
     <use style="fill:#98df8a;stroke:#ffffff;stroke-linejoin:miter;stroke-width:0.75;" x="628.073699" xlink:href="#m82c3882cf9" y="68.670408"/>
     <use style="fill:#98df8a;stroke:#ffffff;stroke-linejoin:miter;stroke-width:0.75;" x="635.208964" xlink:href="#m82c3882cf9" y="68.670408"/>
     <use style="fill:#98df8a;stroke:#ffffff;stroke-linejoin:miter;stroke-width:0.75;" x="642.344229" xlink:href="#m82c3882cf9" y="68.670408"/>
     <use style="fill:#98df8a;stroke:#ffffff;stroke-linejoin:miter;stroke-width:0.75;" x="649.479494" xlink:href="#m82c3882cf9" y="68.670408"/>
     <use style="fill:#98df8a;stroke:#ffffff;stroke-linejoin:miter;stroke-width:0.75;" x="656.614758" xlink:href="#m82c3882cf9" y="68.670408"/>
     <use style="fill:#98df8a;stroke:#ffffff;stroke-linejoin:miter;stroke-width:0.75;" x="663.750023" xlink:href="#m82c3882cf9" y="68.670408"/>
     <use style="fill:#98df8a;stroke:#ffffff;stroke-linejoin:miter;stroke-width:0.75;" x="670.885288" xlink:href="#m82c3882cf9" y="68.670408"/>
     <use style="fill:#98df8a;stroke:#ffffff;stroke-linejoin:miter;stroke-width:0.75;" x="678.020553" xlink:href="#m82c3882cf9" y="68.200138"/>
     <use style="fill:#98df8a;stroke:#ffffff;stroke-linejoin:miter;stroke-width:0.75;" x="685.155817" xlink:href="#m82c3882cf9" y="68.200138"/>
     <use style="fill:#98df8a;stroke:#ffffff;stroke-linejoin:miter;stroke-width:0.75;" x="692.291082" xlink:href="#m82c3882cf9" y="68.200138"/>
     <use style="fill:#98df8a;stroke:#ffffff;stroke-linejoin:miter;stroke-width:0.75;" x="699.426347" xlink:href="#m82c3882cf9" y="68.200138"/>
     <use style="fill:#98df8a;stroke:#ffffff;stroke-linejoin:miter;stroke-width:0.75;" x="706.561612" xlink:href="#m82c3882cf9" y="68.200138"/>
     <use style="fill:#98df8a;stroke:#ffffff;stroke-linejoin:miter;stroke-width:0.75;" x="713.696876" xlink:href="#m82c3882cf9" y="68.200138"/>
     <use style="fill:#98df8a;stroke:#ffffff;stroke-linejoin:miter;stroke-width:0.75;" x="720.832141" xlink:href="#m82c3882cf9" y="68.200138"/>
     <use style="fill:#98df8a;stroke:#ffffff;stroke-linejoin:miter;stroke-width:0.75;" x="727.967406" xlink:href="#m82c3882cf9" y="68.200138"/>
     <use style="fill:#98df8a;stroke:#ffffff;stroke-linejoin:miter;stroke-width:0.75;" x="735.10267" xlink:href="#m82c3882cf9" y="68.200138"/>
    </g>
   </g>
   <g id="line2d_23"/>
   <g id="line2d_24"/>
   <g id="line2d_25"/>
   <g id="line2d_26">
    <path clip-path="url(#pb7b2cbb57c)" d="M 735.10267 288.430125 
L 735.10267 22.318125 
" style="fill:none;stroke:#ff0000;stroke-linecap:square;stroke-width:1.5;"/>
   </g>
   <g id="patch_3">
    <path d="M 53.328125 258.228702 
L 53.328125 23.093337 
" style="fill:none;stroke:#000000;stroke-linecap:square;stroke-linejoin:miter;stroke-width:0.8;"/>
   </g>
   <g id="patch_4">
    <path d="M 85.79358 288.430125 
L 687.534239 288.430125 
" style="fill:none;stroke:#000000;stroke-linecap:square;stroke-linejoin:miter;stroke-width:0.8;"/>
   </g>
   <g id="text_22">
    <!-- proj4-2017-08-14 (23h, 20 trials/fuzzer) -->
    <g transform="translate(291.388438 16.318125)scale(0.12 -0.12)">
     <defs>
      <path d="M 1159 525 
L 1159 -1331 
L 581 -1331 
L 581 3500 
L 1159 3500 
L 1159 2969 
Q 1341 3281 1617 3432 
Q 1894 3584 2278 3584 
Q 2916 3584 3314 3078 
Q 3713 2572 3713 1747 
Q 3713 922 3314 415 
Q 2916 -91 2278 -91 
Q 1894 -91 1617 61 
Q 1341 213 1159 525 
z
M 3116 1747 
Q 3116 2381 2855 2742 
Q 2594 3103 2138 3103 
Q 1681 3103 1420 2742 
Q 1159 2381 1159 1747 
Q 1159 1113 1420 752 
Q 1681 391 2138 391 
Q 2594 391 2855 752 
Q 3116 1113 3116 1747 
z
" id="DejaVuSans-70" transform="scale(0.015625)"/>
      <path d="M 603 3500 
L 1178 3500 
L 1178 -63 
Q 1178 -731 923 -1031 
Q 669 -1331 103 -1331 
L -116 -1331 
L -116 -844 
L 38 -844 
Q 366 -844 484 -692 
Q 603 -541 603 -63 
L 603 3500 
z
M 603 4863 
L 1178 4863 
L 1178 4134 
L 603 4134 
L 603 4863 
z
" id="DejaVuSans-6a" transform="scale(0.015625)"/>
      <path d="M 313 2009 
L 1997 2009 
L 1997 1497 
L 313 1497 
L 313 2009 
z
" id="DejaVuSans-2d" transform="scale(0.015625)"/>
      <path d="M 2034 2216 
Q 1584 2216 1326 1975 
Q 1069 1734 1069 1313 
Q 1069 891 1326 650 
Q 1584 409 2034 409 
Q 2484 409 2743 651 
Q 3003 894 3003 1313 
Q 3003 1734 2745 1975 
Q 2488 2216 2034 2216 
z
M 1403 2484 
Q 997 2584 770 2862 
Q 544 3141 544 3541 
Q 544 4100 942 4425 
Q 1341 4750 2034 4750 
Q 2731 4750 3128 4425 
Q 3525 4100 3525 3541 
Q 3525 3141 3298 2862 
Q 3072 2584 2669 2484 
Q 3125 2378 3379 2068 
Q 3634 1759 3634 1313 
Q 3634 634 3220 271 
Q 2806 -91 2034 -91 
Q 1263 -91 848 271 
Q 434 634 434 1313 
Q 434 1759 690 2068 
Q 947 2378 1403 2484 
z
M 1172 3481 
Q 1172 3119 1398 2916 
Q 1625 2713 2034 2713 
Q 2441 2713 2670 2916 
Q 2900 3119 2900 3481 
Q 2900 3844 2670 4047 
Q 2441 4250 2034 4250 
Q 1625 4250 1398 4047 
Q 1172 3844 1172 3481 
z
" id="DejaVuSans-38" transform="scale(0.015625)"/>
      <path d="M 750 794 
L 1409 794 
L 1409 256 
L 897 -744 
L 494 -744 
L 750 256 
L 750 794 
z
" id="DejaVuSans-2c" transform="scale(0.015625)"/>
      <path d="M 603 4863 
L 1178 4863 
L 1178 0 
L 603 0 
L 603 4863 
z
" id="DejaVuSans-6c" transform="scale(0.015625)"/>
      <path d="M 2834 3397 
L 2834 2853 
Q 2591 2978 2328 3040 
Q 2066 3103 1784 3103 
Q 1356 3103 1142 2972 
Q 928 2841 928 2578 
Q 928 2378 1081 2264 
Q 1234 2150 1697 2047 
L 1894 2003 
Q 2506 1872 2764 1633 
Q 3022 1394 3022 966 
Q 3022 478 2636 193 
Q 2250 -91 1575 -91 
Q 1294 -91 989 -36 
Q 684 19 347 128 
L 347 722 
Q 666 556 975 473 
Q 1284 391 1588 391 
Q 1994 391 2212 530 
Q 2431 669 2431 922 
Q 2431 1156 2273 1281 
Q 2116 1406 1581 1522 
L 1381 1569 
Q 847 1681 609 1914 
Q 372 2147 372 2553 
Q 372 3047 722 3315 
Q 1072 3584 1716 3584 
Q 2034 3584 2315 3537 
Q 2597 3491 2834 3397 
z
" id="DejaVuSans-73" transform="scale(0.015625)"/>
      <path d="M 1625 4666 
L 2156 4666 
L 531 -594 
L 0 -594 
L 1625 4666 
z
" id="DejaVuSans-2f" transform="scale(0.015625)"/>
      <path d="M 2375 4863 
L 2375 4384 
L 1825 4384 
Q 1516 4384 1395 4259 
Q 1275 4134 1275 3809 
L 1275 3500 
L 2222 3500 
L 2222 3053 
L 1275 3053 
L 1275 0 
L 697 0 
L 697 3053 
L 147 3053 
L 147 3500 
L 697 3500 
L 697 3744 
Q 697 4328 969 4595 
Q 1241 4863 1831 4863 
L 2375 4863 
z
" id="DejaVuSans-66" transform="scale(0.015625)"/>
      <path d="M 353 3500 
L 3084 3500 
L 3084 2975 
L 922 459 
L 3084 459 
L 3084 0 
L 275 0 
L 275 525 
L 2438 3041 
L 353 3041 
L 353 3500 
z
" id="DejaVuSans-7a" transform="scale(0.015625)"/>
     </defs>
     <use xlink:href="#DejaVuSans-70"/>
     <use x="63.476562" xlink:href="#DejaVuSans-72"/>
     <use x="102.339844" xlink:href="#DejaVuSans-6f"/>
     <use x="163.521484" xlink:href="#DejaVuSans-6a"/>
     <use x="191.304688" xlink:href="#DejaVuSans-34"/>
     <use x="254.927734" xlink:href="#DejaVuSans-2d"/>
     <use x="291.011719" xlink:href="#DejaVuSans-32"/>
     <use x="354.634766" xlink:href="#DejaVuSans-30"/>
     <use x="418.257812" xlink:href="#DejaVuSans-31"/>
     <use x="481.880859" xlink:href="#DejaVuSans-37"/>
     <use x="545.503906" xlink:href="#DejaVuSans-2d"/>
     <use x="581.587891" xlink:href="#DejaVuSans-30"/>
     <use x="645.210938" xlink:href="#DejaVuSans-38"/>
     <use x="708.833984" xlink:href="#DejaVuSans-2d"/>
     <use x="744.917969" xlink:href="#DejaVuSans-31"/>
     <use x="808.541016" xlink:href="#DejaVuSans-34"/>
     <use x="872.164062" xlink:href="#DejaVuSans-20"/>
     <use x="903.951172" xlink:href="#DejaVuSans-28"/>
     <use x="942.964844" xlink:href="#DejaVuSans-32"/>
     <use x="1006.587891" xlink:href="#DejaVuSans-33"/>
     <use x="1070.210938" xlink:href="#DejaVuSans-68"/>
     <use x="1133.589844" xlink:href="#DejaVuSans-2c"/>
     <use x="1165.376953" xlink:href="#DejaVuSans-20"/>
     <use x="1197.164062" xlink:href="#DejaVuSans-32"/>
     <use x="1260.787109" xlink:href="#DejaVuSans-30"/>
     <use x="1324.410156" xlink:href="#DejaVuSans-20"/>
     <use x="1356.197266" xlink:href="#DejaVuSans-74"/>
     <use x="1395.40625" xlink:href="#DejaVuSans-72"/>
     <use x="1436.519531" xlink:href="#DejaVuSans-69"/>
     <use x="1464.302734" xlink:href="#DejaVuSans-61"/>
     <use x="1525.582031" xlink:href="#DejaVuSans-6c"/>
     <use x="1553.365234" xlink:href="#DejaVuSans-73"/>
     <use x="1605.464844" xlink:href="#DejaVuSans-2f"/>
     <use x="1639.15625" xlink:href="#DejaVuSans-66"/>
     <use x="1674.361328" xlink:href="#DejaVuSans-75"/>
     <use x="1737.740234" xlink:href="#DejaVuSans-7a"/>
     <use x="1790.230469" xlink:href="#DejaVuSans-7a"/>
     <use x="1842.720703" xlink:href="#DejaVuSans-65"/>
     <use x="1904.244141" xlink:href="#DejaVuSans-72"/>
     <use x="1945.357422" xlink:href="#DejaVuSans-29"/>
    </g>
   </g>
   <g id="legend_1">
    <g id="line2d_27">
     <path d="M 771.568125 30.416562 
L 791.568125 30.416562 
" style="fill:none;stroke:#1f77b4;stroke-linecap:square;stroke-width:1.5;"/>
    </g>
    <g id="line2d_28">
     <defs>
      <path d="M 0 3 
C 0.795609 3 1.55874 2.683901 2.12132 2.12132 
C 2.683901 1.55874 3 0.795609 3 0 
C 3 -0.795609 2.683901 -1.55874 2.12132 -2.12132 
C 1.55874 -2.683901 0.795609 -3 0 -3 
C -0.795609 -3 -1.55874 -2.683901 -2.12132 -2.12132 
C -2.683901 -1.55874 -3 -0.795609 -3 0 
C -3 0.795609 -2.683901 1.55874 -2.12132 2.12132 
C -1.55874 2.683901 -0.795609 3 0 3 
z
" id="m0809975194" style="stroke:#1f77b4;"/>
     </defs>
     <g>
      <use style="fill:#1f77b4;stroke:#1f77b4;" x="781.568125" xlink:href="#m0809975194" y="30.416562"/>
     </g>
    </g>
    <g id="text_23">
     <!-- afl_2_52_b -->
     <g transform="translate(799.568125 33.916562)scale(0.1 -0.1)">
      <defs>
       <path d="M 3263 -1063 
L 3263 -1509 
L -63 -1509 
L -63 -1063 
L 3263 -1063 
z
" id="DejaVuSans-5f" transform="scale(0.015625)"/>
       <path d="M 3116 1747 
Q 3116 2381 2855 2742 
Q 2594 3103 2138 3103 
Q 1681 3103 1420 2742 
Q 1159 2381 1159 1747 
Q 1159 1113 1420 752 
Q 1681 391 2138 391 
Q 2594 391 2855 752 
Q 3116 1113 3116 1747 
z
M 1159 2969 
Q 1341 3281 1617 3432 
Q 1894 3584 2278 3584 
Q 2916 3584 3314 3078 
Q 3713 2572 3713 1747 
Q 3713 922 3314 415 
Q 2916 -91 2278 -91 
Q 1894 -91 1617 61 
Q 1341 213 1159 525 
L 1159 0 
L 581 0 
L 581 4863 
L 1159 4863 
L 1159 2969 
z
" id="DejaVuSans-62" transform="scale(0.015625)"/>
      </defs>
      <use xlink:href="#DejaVuSans-61"/>
      <use x="61.279297" xlink:href="#DejaVuSans-66"/>
      <use x="96.484375" xlink:href="#DejaVuSans-6c"/>
      <use x="124.267578" xlink:href="#DejaVuSans-5f"/>
      <use x="174.267578" xlink:href="#DejaVuSans-32"/>
      <use x="237.890625" xlink:href="#DejaVuSans-5f"/>
      <use x="287.890625" xlink:href="#DejaVuSans-35"/>
      <use x="351.513672" xlink:href="#DejaVuSans-32"/>
      <use x="415.136719" xlink:href="#DejaVuSans-5f"/>
      <use x="465.136719" xlink:href="#DejaVuSans-62"/>
     </g>
    </g>
    <g id="line2d_29">
     <path d="M 771.568125 45.372813 
L 791.568125 45.372813 
" style="fill:none;stroke:#d62728;stroke-linecap:square;stroke-width:1.5;"/>
    </g>
    <g id="line2d_30">
     <defs>
      <path d="M 0 -3 
L -3 3 
L 3 3 
z
" id="m2106897388" style="stroke:#d62728;stroke-linejoin:miter;"/>
     </defs>
     <g>
      <use style="fill:#d62728;stroke:#d62728;stroke-linejoin:miter;" x="781.568125" xlink:href="#m2106897388" y="45.372813"/>
     </g>
    </g>
    <g id="text_24">
     <!-- mopt -->
     <g transform="translate(799.568125 48.872813)scale(0.1 -0.1)">
      <use xlink:href="#DejaVuSans-6d"/>
      <use x="97.412109" xlink:href="#DejaVuSans-6f"/>
      <use x="158.59375" xlink:href="#DejaVuSans-70"/>
      <use x="222.070312" xlink:href="#DejaVuSans-74"/>
     </g>
    </g>
    <g id="line2d_31">
     <path d="M 771.568125 60.050937 
L 791.568125 60.050937 
" style="fill:none;stroke:#98df8a;stroke-linecap:square;stroke-width:1.5;"/>
    </g>
    <g id="line2d_32">
     <defs>
      <path d="M -0 3 
L 3 -3 
L -3 -3 
z
" id="m8a8ad5c2ec" style="stroke:#98df8a;stroke-linejoin:miter;"/>
     </defs>
     <g>
      <use style="fill:#98df8a;stroke:#98df8a;stroke-linejoin:miter;" x="781.568125" xlink:href="#m8a8ad5c2ec" y="60.050937"/>
     </g>
    </g>
    <g id="text_25">
     <!-- fafuzz -->
     <g transform="translate(799.568125 63.550937)scale(0.1 -0.1)">
      <use xlink:href="#DejaVuSans-66"/>
      <use x="35.205078" xlink:href="#DejaVuSans-61"/>
      <use x="96.484375" xlink:href="#DejaVuSans-66"/>
      <use x="131.689453" xlink:href="#DejaVuSans-75"/>
      <use x="195.068359" xlink:href="#DejaVuSans-7a"/>
      <use x="247.558594" xlink:href="#DejaVuSans-7a"/>
     </g>
    </g>
   </g>
  </g>
 </g>
 <defs>
  <clipPath id="pb7b2cbb57c">
   <rect height="266.112" width="714.24" x="53.328125" y="22.318125"/>
  </clipPath>
 </defs>
</svg>
