<?xml version="1.0" encoding="utf-8" standalone="no"?>
<!DOCTYPE svg PUBLIC "-//W3C//DTD SVG 1.1//EN"
  "http://www.w3.org/Graphics/SVG/1.1/DTD/svg11.dtd">
<svg height="325.986375pt" version="1.1" viewBox="0 0 863.630625 325.986375" width="863.630625pt" xmlns="http://www.w3.org/2000/svg" xmlns:xlink="http://www.w3.org/1999/xlink">
 <metadata>
  <rdf:RDF xmlns:cc="http://creativecommons.org/ns#" xmlns:dc="http://purl.org/dc/elements/1.1/" xmlns:rdf="http://www.w3.org/1999/02/22-rdf-syntax-ns#">
   <cc:Work>
    <dc:type rdf:resource="http://purl.org/dc/dcmitype/StillImage"/>
    <dc:date>2021-12-16T18:50:04.617043</dc:date>
    <dc:format>image/svg+xml</dc:format>
    <dc:creator>
     <cc:Agent>
      <dc:title>Matplotlib v3.4.1, https://matplotlib.org/</dc:title>
     </cc:Agent>
    </dc:creator>
   </cc:Work>
  </rdf:RDF>
 </metadata>
 <defs>
  <style type="text/css">*{stroke-linecap:butt;stroke-linejoin:round;}</style>
 </defs>
 <g id="figure_1">
  <g id="patch_1">
   <path d="M 0 325.986375 
L 863.630625 325.986375 
L 863.630625 0 
L 0 0 
z
" style="fill:#ffffff;"/>
  </g>
  <g id="axes_1">
   <g id="patch_2">
    <path d="M 53.328125 288.430125 
L 767.568125 288.430125 
L 767.568125 22.318125 
L 53.328125 22.318125 
z
" style="fill:#ffffff;"/>
   </g>
   <g id="PolyCollection_1">
    <defs>
     <path d="M 85.79358 -282.568791 
L 85.79358 -279.750416 
L 92.928844 -281.511115 
L 100.064109 -282.567534 
L 107.199374 -283.221508 
L 114.334638 -284.630067 
L 121.469903 -284.630067 
L 128.605168 -285.887709 
L 135.740433 -286.843516 
L 142.875697 -286.843516 
L 150.010962 -286.94287 
L 157.146227 -287.14535 
L 164.281492 -287.195656 
L 171.416756 -287.296267 
L 178.552021 -287.296267 
L 185.687286 -287.296267 
L 192.822551 -287.346573 
L 199.957815 -287.49749 
L 207.09308 -287.598102 
L 214.228345 -287.598102 
L 221.36361 -287.598102 
L 228.498874 -287.598102 
L 235.634139 -287.598102 
L 242.769404 -287.598102 
L 249.904668 -287.598102 
L 257.039933 -287.598102 
L 264.175198 -287.598102 
L 271.310463 -287.598102 
L 278.445727 -287.598102 
L 285.580992 -287.598102 
L 292.716257 -287.648407 
L 299.851522 -287.598102 
L 306.986786 -287.648407 
L 314.122051 -287.698713 
L 321.257316 -287.698713 
L 328.392581 -287.698713 
L 335.527845 -287.698713 
L 342.66311 -287.749019 
L 349.798375 -287.749019 
L 356.933639 -287.698713 
L 364.068904 -287.749019 
L 371.204169 -287.749019 
L 378.339434 -287.749019 
L 385.474698 -287.749019 
L 392.609963 -287.749019 
L 399.745228 -287.749019 
L 406.880493 -287.749019 
L 414.015757 -287.749019 
L 421.151022 -287.749019 
L 428.286287 -287.749019 
L 435.421552 -287.749019 
L 442.556816 -287.749019 
L 449.692081 -287.799324 
L 456.827346 -287.799324 
L 463.962611 -287.799324 
L 471.097875 -287.799324 
L 478.23314 -287.799324 
L 485.368405 -287.799324 
L 492.503669 -287.799324 
L 499.638934 -287.799324 
L 506.774199 -287.799324 
L 513.909464 -287.799324 
L 521.044728 -287.799324 
L 528.179993 -287.799324 
L 535.315258 -287.799324 
L 542.450523 -287.799324 
L 549.585787 -287.899936 
L 556.721052 -287.899936 
L 563.856317 -287.899936 
L 570.991582 -287.899936 
L 578.126846 -287.899936 
L 585.262111 -287.899936 
L 592.397376 -287.899936 
L 599.53264 -287.899936 
L 606.667905 -287.899936 
L 613.80317 -287.999289 
L 620.938435 -287.950241 
L 628.073699 -288.000547 
L 635.208964 -287.950241 
L 642.344229 -287.950241 
L 649.479494 -287.950241 
L 656.614758 -287.899936 
L 663.750023 -287.948984 
L 670.885288 -287.950241 
L 678.020553 -287.950241 
L 685.155817 -287.950241 
L 692.291082 -287.950241 
L 699.426347 -287.950241 
L 706.561612 -287.950241 
L 713.696876 -287.899936 
L 720.832141 -287.950241 
L 727.967406 -287.950241 
L 735.10267 -288.050853 
L 735.10267 -291.521944 
L 735.10267 -291.521944 
L 727.967406 -291.521944 
L 720.832141 -291.521944 
L 713.696876 -291.521944 
L 706.561612 -291.521944 
L 699.426347 -291.521944 
L 692.291082 -291.521944 
L 685.155817 -291.521944 
L 678.020553 -291.521944 
L 670.885288 -291.471639 
L 663.750023 -291.521944 
L 656.614758 -291.523202 
L 649.479494 -291.57225 
L 642.344229 -291.521944 
L 635.208964 -291.521944 
L 628.073699 -291.521944 
L 620.938435 -291.521944 
L 613.80317 -291.521944 
L 606.667905 -291.471639 
L 599.53264 -291.471639 
L 592.397376 -291.471639 
L 585.262111 -291.471639 
L 578.126846 -291.471639 
L 570.991582 -291.471639 
L 563.856317 -291.471639 
L 556.721052 -291.471639 
L 549.585787 -291.471639 
L 542.450523 -291.471639 
L 535.315258 -291.471639 
L 528.179993 -291.471639 
L 521.044728 -291.471639 
L 513.909464 -291.471639 
L 506.774199 -291.471639 
L 499.638934 -291.471639 
L 492.503669 -291.271674 
L 485.368405 -291.270416 
L 478.23314 -291.270416 
L 471.097875 -291.270416 
L 463.962611 -291.072966 
L 456.827346 -291.069193 
L 449.692081 -290.918276 
L 442.556816 -291.018888 
L 435.421552 -291.018888 
L 428.286287 -291.018888 
L 421.151022 -291.018888 
L 414.015757 -291.018888 
L 406.880493 -291.018888 
L 399.745228 -291.122014 
L 392.609963 -291.018888 
L 385.474698 -290.918276 
L 378.339434 -290.918276 
L 371.204169 -290.918276 
L 364.068904 -290.918276 
L 356.933639 -291.018888 
L 349.798375 -291.018888 
L 342.66311 -290.918276 
L 335.527845 -290.918276 
L 328.392581 -290.918276 
L 321.257316 -290.918276 
L 314.122051 -290.918276 
L 306.986786 -290.918276 
L 299.851522 -290.918276 
L 292.716257 -290.96984 
L 285.580992 -290.918276 
L 278.445727 -290.918276 
L 271.310463 -290.918276 
L 264.175198 -290.918276 
L 257.039933 -290.918276 
L 249.904668 -290.918276 
L 242.769404 -290.918276 
L 235.634139 -290.918276 
L 228.498874 -290.918276 
L 221.36361 -290.918276 
L 214.228345 -290.918276 
L 207.09308 -290.918276 
L 199.957815 -290.817665 
L 192.822551 -290.817665 
L 185.687286 -290.666748 
L 178.552021 -290.666748 
L 171.416756 -290.666748 
L 164.281492 -290.666748 
L 157.146227 -290.566136 
L 150.010962 -289.459412 
L 142.875697 -288.402992 
L 135.740433 -288.402992 
L 128.605168 -287.598102 
L 121.469903 -287.195656 
L 114.334638 -287.195656 
L 107.199374 -286.793211 
L 100.064109 -286.591988 
L 92.928844 -283.976093 
L 85.79358 -282.568791 
z
" id="m8d53392fcf" style="stroke:#1f77b4;stroke-opacity:0.2;"/>
    </defs>
    <g clip-path="url(#p0e4f424da5)">
     <use style="fill:#1f77b4;fill-opacity:0.2;stroke:#1f77b4;stroke-opacity:0.2;" x="0" xlink:href="#m8d53392fcf" y="325.986375"/>
    </g>
   </g>
   <g id="PolyCollection_2">
    <defs>
     <path d="M 85.79358 -279.549193 
L 85.79358 -276.732075 
L 92.928844 -279.347971 
L 100.064109 -281.457036 
L 107.199374 -282.416617 
L 114.334638 -282.668145 
L 121.469903 -282.768757 
L 128.605168 -282.817805 
L 135.740433 -282.969979 
L 142.875697 -283.221508 
L 150.010962 -283.421473 
L 157.146227 -283.473036 
L 164.281492 -283.523342 
L 171.416756 -284.982206 
L 178.552021 -286.591988 
L 185.687286 -286.642294 
L 192.822551 -286.642294 
L 199.957815 -286.642294 
L 207.09308 -286.742905 
L 214.228345 -286.742905 
L 221.36361 -286.742905 
L 228.498874 -286.591988 
L 235.634139 -286.739132 
L 242.769404 -286.893822 
L 249.904668 -286.893822 
L 257.039933 -286.893822 
L 264.175198 -287.044739 
L 271.310463 -287.14535 
L 278.445727 -287.14535 
L 285.580992 -287.144093 
L 292.716257 -287.195656 
L 299.851522 -287.195656 
L 306.986786 -287.195656 
L 314.122051 -287.195656 
L 321.257316 -287.195656 
L 328.392581 -287.195656 
L 335.527845 -287.195656 
L 342.66311 -287.195656 
L 349.798375 -287.195656 
L 356.933639 -287.195656 
L 364.068904 -287.195656 
L 371.204169 -287.195656 
L 378.339434 -287.195656 
L 385.474698 -287.195656 
L 392.609963 -287.195656 
L 399.745228 -287.245962 
L 406.880493 -287.29501 
L 414.015757 -287.245962 
L 421.151022 -287.296267 
L 428.286287 -287.296267 
L 435.421552 -287.296267 
L 442.556816 -287.395621 
L 449.692081 -287.49749 
L 456.827346 -287.49749 
L 463.962611 -287.49749 
L 471.097875 -287.49749 
L 478.23314 -287.49749 
L 485.368405 -287.49749 
L 492.503669 -287.49749 
L 499.638934 -287.49749 
L 506.774199 -287.49749 
L 513.909464 -287.49749 
L 521.044728 -287.49749 
L 528.179993 -287.49749 
L 535.315258 -287.49749 
L 542.450523 -287.49749 
L 549.585787 -287.49749 
L 556.721052 -287.49749 
L 563.856317 -287.49749 
L 570.991582 -287.49749 
L 578.126846 -287.49749 
L 585.262111 -287.598102 
L 592.397376 -287.698713 
L 599.53264 -287.698713 
L 606.667905 -287.698713 
L 613.80317 -287.698713 
L 620.938435 -287.698713 
L 628.073699 -287.698713 
L 635.208964 -287.698713 
L 642.344229 -287.698713 
L 649.479494 -287.698713 
L 656.614758 -287.698713 
L 663.750023 -287.698713 
L 670.885288 -287.698713 
L 678.020553 -287.698713 
L 685.155817 -287.799324 
L 692.291082 -287.749019 
L 699.426347 -287.749019 
L 706.561612 -287.749019 
L 713.696876 -287.749019 
L 720.832141 -287.749019 
L 727.967406 -287.749019 
L 735.10267 -287.749019 
L 735.10267 -288.654521 
L 735.10267 -288.654521 
L 727.967406 -288.503604 
L 720.832141 -288.503604 
L 713.696876 -288.503604 
L 706.561612 -288.503604 
L 699.426347 -288.503604 
L 692.291082 -288.503604 
L 685.155817 -288.503604 
L 678.020553 -288.503604 
L 670.885288 -288.503604 
L 663.750023 -288.503604 
L 656.614758 -288.503604 
L 649.479494 -288.503604 
L 642.344229 -288.503604 
L 635.208964 -288.503604 
L 628.073699 -288.503604 
L 620.938435 -288.503604 
L 613.80317 -288.503604 
L 606.667905 -288.503604 
L 599.53264 -288.503604 
L 592.397376 -288.503604 
L 585.262111 -288.503604 
L 578.126846 -288.503604 
L 570.991582 -288.503604 
L 563.856317 -288.503604 
L 556.721052 -288.503604 
L 549.585787 -288.503604 
L 542.450523 -288.503604 
L 535.315258 -288.503604 
L 528.179993 -288.503604 
L 521.044728 -288.503604 
L 513.909464 -288.503604 
L 506.774199 -288.453298 
L 499.638934 -288.453298 
L 492.503669 -288.503604 
L 485.368405 -288.454556 
L 478.23314 -288.453298 
L 471.097875 -288.503604 
L 463.962611 -288.402992 
L 456.827346 -288.402992 
L 449.692081 -288.402992 
L 442.556816 -288.402992 
L 435.421552 -288.402992 
L 428.286287 -288.402992 
L 421.151022 -288.402992 
L 414.015757 -288.402992 
L 406.880493 -288.402992 
L 399.745228 -288.402992 
L 392.609963 -288.402992 
L 385.474698 -288.402992 
L 378.339434 -288.402992 
L 371.204169 -288.402992 
L 364.068904 -288.352687 
L 356.933639 -288.352687 
L 349.798375 -288.352687 
L 342.66311 -288.352687 
L 335.527845 -288.352687 
L 328.392581 -288.352687 
L 321.257316 -288.352687 
L 314.122051 -288.352687 
L 306.986786 -288.302381 
L 299.851522 -288.151464 
L 292.716257 -288.20177 
L 285.580992 -288.20177 
L 278.445727 -288.102416 
L 271.310463 -288.20177 
L 264.175198 -288.050853 
L 257.039933 -287.950241 
L 249.904668 -287.950241 
L 242.769404 -287.950241 
L 235.634139 -287.950241 
L 228.498874 -287.950241 
L 221.36361 -287.899936 
L 214.228345 -287.84963 
L 207.09308 -287.84963 
L 199.957815 -287.547796 
L 192.822551 -287.49749 
L 185.687286 -287.547796 
L 178.552021 -287.49749 
L 171.416756 -287.195656 
L 164.281492 -287.14535 
L 157.146227 -287.095045 
L 150.010962 -287.045997 
L 142.875697 -286.944128 
L 135.740433 -286.893822 
L 128.605168 -286.742905 
L 121.469903 -286.642294 
L 114.334638 -286.491377 
L 107.199374 -286.139237 
L 100.064109 -284.177316 
L 92.928844 -282.366311 
L 85.79358 -279.549193 
z
" id="md4002110fa" style="stroke:#d62728;stroke-opacity:0.2;"/>
    </defs>
    <g clip-path="url(#p0e4f424da5)">
     <use style="fill:#d62728;fill-opacity:0.2;stroke:#d62728;stroke-opacity:0.2;" x="0" xlink:href="#md4002110fa" y="325.986375"/>
    </g>
   </g>
   <g id="PolyCollection_3">
    <defs>
     <path d="M 85.79358 -278.343115 
L 85.79358 -49.65225 
L 92.928844 -278.241246 
L 100.064109 -282.215394 
L 107.199374 -282.919674 
L 114.334638 -283.825176 
L 121.469903 -283.925787 
L 128.605168 -284.881595 
L 135.740433 -284.881595 
L 142.875697 -285.384652 
L 150.010962 -285.585874 
L 157.146227 -285.787097 
L 164.281492 -286.088931 
L 171.416756 -286.23356 
L 178.552021 -286.239848 
L 185.687286 -286.239848 
L 192.822551 -286.692599 
L 199.957815 -286.692599 
L 207.09308 -286.843516 
L 214.228345 -286.843516 
L 221.36361 -286.842259 
L 228.498874 -286.944128 
L 235.634139 -286.944128 
L 242.769404 -287.095045 
L 249.904668 -287.095045 
L 257.039933 -287.14535 
L 264.175198 -287.245962 
L 271.310463 -287.296267 
L 278.445727 -287.296267 
L 285.580992 -287.296267 
L 292.716257 -287.296267 
L 299.851522 -287.296267 
L 306.986786 -287.296267 
L 314.122051 -287.296267 
L 321.257316 -287.296267 
L 328.392581 -287.296267 
L 335.527845 -287.296267 
L 342.66311 -287.296267 
L 349.798375 -287.296267 
L 356.933639 -287.296267 
L 364.068904 -287.296267 
L 371.204169 -287.296267 
L 378.339434 -287.296267 
L 385.474698 -287.296267 
L 392.609963 -287.346573 
L 399.745228 -287.447184 
L 406.880493 -287.447184 
L 414.015757 -287.447184 
L 421.151022 -287.447184 
L 428.286287 -287.447184 
L 435.421552 -287.49749 
L 442.556816 -287.49749 
L 449.692081 -287.49749 
L 456.827346 -287.49749 
L 463.962611 -287.598102 
L 471.097875 -287.547796 
L 478.23314 -287.547796 
L 485.368405 -287.547796 
L 492.503669 -287.547796 
L 499.638934 -287.547796 
L 506.774199 -287.598102 
L 513.909464 -287.598102 
L 521.044728 -287.598102 
L 528.179993 -287.598102 
L 535.315258 -287.598102 
L 542.450523 -287.598102 
L 549.585787 -287.598102 
L 556.721052 -287.64715 
L 563.856317 -287.648407 
L 570.991582 -287.648407 
L 578.126846 -287.648407 
L 585.262111 -287.64715 
L 592.397376 -287.648407 
L 599.53264 -287.698713 
L 606.667905 -287.698713 
L 613.80317 -287.698713 
L 620.938435 -287.698713 
L 628.073699 -287.698713 
L 635.208964 -287.698713 
L 642.344229 -287.698713 
L 649.479494 -287.698713 
L 656.614758 -287.698713 
L 663.750023 -287.698713 
L 670.885288 -287.798067 
L 678.020553 -287.799324 
L 685.155817 -287.799324 
L 692.291082 -287.799324 
L 699.426347 -287.799324 
L 706.561612 -287.84963 
L 713.696876 -287.84963 
L 720.832141 -287.84963 
L 727.967406 -287.899936 
L 735.10267 -287.899936 
L 735.10267 -288.503604 
L 735.10267 -288.503604 
L 727.967406 -288.604215 
L 720.832141 -288.503604 
L 713.696876 -288.402992 
L 706.561612 -288.352687 
L 699.426347 -288.302381 
L 692.291082 -288.20177 
L 685.155817 -288.20177 
L 678.020553 -288.20177 
L 670.885288 -288.20177 
L 663.750023 -288.20177 
L 656.614758 -288.20177 
L 649.479494 -288.20177 
L 642.344229 -288.20177 
L 635.208964 -288.20177 
L 628.073699 -288.151464 
L 620.938435 -288.151464 
L 613.80317 -288.151464 
L 606.667905 -288.151464 
L 599.53264 -288.151464 
L 592.397376 -288.151464 
L 585.262111 -288.151464 
L 578.126846 -288.151464 
L 570.991582 -288.151464 
L 563.856317 -288.151464 
L 556.721052 -288.151464 
L 549.585787 -288.151464 
L 542.450523 -288.151464 
L 535.315258 -288.151464 
L 528.179993 -288.151464 
L 521.044728 -288.151464 
L 513.909464 -288.151464 
L 506.774199 -288.151464 
L 499.638934 -288.151464 
L 492.503669 -288.20177 
L 485.368405 -288.151464 
L 478.23314 -288.101158 
L 471.097875 -288.101158 
L 463.962611 -288.101158 
L 456.827346 -288.101158 
L 449.692081 -288.101158 
L 442.556816 -288.101158 
L 435.421552 -288.101158 
L 428.286287 -288.101158 
L 421.151022 -288.101158 
L 414.015757 -288.101158 
L 406.880493 -288.101158 
L 399.745228 -288.101158 
L 392.609963 -288.101158 
L 385.474698 -288.101158 
L 378.339434 -288.101158 
L 371.204169 -288.101158 
L 364.068904 -288.050853 
L 356.933639 -288.050853 
L 349.798375 -288.050853 
L 342.66311 -288.050853 
L 335.527845 -288.000547 
L 328.392581 -288.050853 
L 321.257316 -288.050853 
L 314.122051 -288.050853 
L 306.986786 -287.951499 
L 299.851522 -288.000547 
L 292.716257 -287.799324 
L 285.580992 -287.799324 
L 278.445727 -287.799324 
L 271.310463 -287.799324 
L 264.175198 -287.749019 
L 257.039933 -287.648407 
L 249.904668 -287.598102 
L 242.769404 -287.547796 
L 235.634139 -287.447184 
L 228.498874 -287.447184 
L 221.36361 -287.396879 
L 214.228345 -287.396879 
L 207.09308 -287.396879 
L 199.957815 -287.396879 
L 192.822551 -287.396879 
L 185.687286 -287.346573 
L 178.552021 -287.296267 
L 171.416756 -287.296267 
L 164.281492 -287.296267 
L 157.146227 -287.296267 
L 150.010962 -287.245962 
L 142.875697 -287.095045 
L 135.740433 -287.044739 
L 128.605168 -286.994433 
L 121.469903 -286.994433 
L 114.334638 -286.742905 
L 107.199374 -286.290154 
L 100.064109 -286.038626 
L 92.928844 -283.322119 
L 85.79358 -278.343115 
z
" id="mf533cb96af" style="stroke:#98df8a;stroke-opacity:0.2;"/>
    </defs>
    <g clip-path="url(#p0e4f424da5)">
     <use style="fill:#98df8a;fill-opacity:0.2;stroke:#98df8a;stroke-opacity:0.2;" x="0" xlink:href="#mf533cb96af" y="325.986375"/>
    </g>
   </g>
   <g id="matplotlib.axis_1">
    <g id="xtick_1">
     <g id="line2d_1">
      <defs>
       <path d="M 0 0 
L 0 3.5 
" id="m683896a486" style="stroke:#000000;stroke-width:0.8;"/>
      </defs>
      <g>
       <use style="stroke:#000000;stroke-width:0.8;" x="85.79358" xlink:href="#m683896a486" y="288.430125"/>
      </g>
     </g>
     <g id="text_1">
      <!-- 15m -->
      <g transform="translate(74.560767 303.028562)scale(0.1 -0.1)">
       <defs>
        <path d="M 794 531 
L 1825 531 
L 1825 4091 
L 703 3866 
L 703 4441 
L 1819 4666 
L 2450 4666 
L 2450 531 
L 3481 531 
L 3481 0 
L 794 0 
L 794 531 
z
" id="DejaVuSans-31" transform="scale(0.015625)"/>
        <path d="M 691 4666 
L 3169 4666 
L 3169 4134 
L 1269 4134 
L 1269 2991 
Q 1406 3038 1543 3061 
Q 1681 3084 1819 3084 
Q 2600 3084 3056 2656 
Q 3513 2228 3513 1497 
Q 3513 744 3044 326 
Q 2575 -91 1722 -91 
Q 1428 -91 1123 -41 
Q 819 9 494 109 
L 494 744 
Q 775 591 1075 516 
Q 1375 441 1709 441 
Q 2250 441 2565 725 
Q 2881 1009 2881 1497 
Q 2881 1984 2565 2268 
Q 2250 2553 1709 2553 
Q 1456 2553 1204 2497 
Q 953 2441 691 2322 
L 691 4666 
z
" id="DejaVuSans-35" transform="scale(0.015625)"/>
        <path d="M 3328 2828 
Q 3544 3216 3844 3400 
Q 4144 3584 4550 3584 
Q 5097 3584 5394 3201 
Q 5691 2819 5691 2113 
L 5691 0 
L 5113 0 
L 5113 2094 
Q 5113 2597 4934 2840 
Q 4756 3084 4391 3084 
Q 3944 3084 3684 2787 
Q 3425 2491 3425 1978 
L 3425 0 
L 2847 0 
L 2847 2094 
Q 2847 2600 2669 2842 
Q 2491 3084 2119 3084 
Q 1678 3084 1418 2786 
Q 1159 2488 1159 1978 
L 1159 0 
L 581 0 
L 581 3500 
L 1159 3500 
L 1159 2956 
Q 1356 3278 1631 3431 
Q 1906 3584 2284 3584 
Q 2666 3584 2933 3390 
Q 3200 3197 3328 2828 
z
" id="DejaVuSans-6d" transform="scale(0.015625)"/>
       </defs>
       <use xlink:href="#DejaVuSans-31"/>
       <use x="63.623047" xlink:href="#DejaVuSans-35"/>
       <use x="127.246094" xlink:href="#DejaVuSans-6d"/>
      </g>
     </g>
    </g>
    <g id="xtick_2">
     <g id="line2d_2">
      <g>
       <use style="stroke:#000000;stroke-width:0.8;" x="140.497276" xlink:href="#m683896a486" y="288.430125"/>
      </g>
     </g>
     <g id="text_2">
      <!-- 2h:10m -->
      <g transform="translate(121.230088 303.028562)scale(0.1 -0.1)">
       <defs>
        <path d="M 1228 531 
L 3431 531 
L 3431 0 
L 469 0 
L 469 531 
Q 828 903 1448 1529 
Q 2069 2156 2228 2338 
Q 2531 2678 2651 2914 
Q 2772 3150 2772 3378 
Q 2772 3750 2511 3984 
Q 2250 4219 1831 4219 
Q 1534 4219 1204 4116 
Q 875 4013 500 3803 
L 500 4441 
Q 881 4594 1212 4672 
Q 1544 4750 1819 4750 
Q 2544 4750 2975 4387 
Q 3406 4025 3406 3419 
Q 3406 3131 3298 2873 
Q 3191 2616 2906 2266 
Q 2828 2175 2409 1742 
Q 1991 1309 1228 531 
z
" id="DejaVuSans-32" transform="scale(0.015625)"/>
        <path d="M 3513 2113 
L 3513 0 
L 2938 0 
L 2938 2094 
Q 2938 2591 2744 2837 
Q 2550 3084 2163 3084 
Q 1697 3084 1428 2787 
Q 1159 2491 1159 1978 
L 1159 0 
L 581 0 
L 581 4863 
L 1159 4863 
L 1159 2956 
Q 1366 3272 1645 3428 
Q 1925 3584 2291 3584 
Q 2894 3584 3203 3211 
Q 3513 2838 3513 2113 
z
" id="DejaVuSans-68" transform="scale(0.015625)"/>
        <path d="M 750 794 
L 1409 794 
L 1409 0 
L 750 0 
L 750 794 
z
M 750 3309 
L 1409 3309 
L 1409 2516 
L 750 2516 
L 750 3309 
z
" id="DejaVuSans-3a" transform="scale(0.015625)"/>
        <path d="M 2034 4250 
Q 1547 4250 1301 3770 
Q 1056 3291 1056 2328 
Q 1056 1369 1301 889 
Q 1547 409 2034 409 
Q 2525 409 2770 889 
Q 3016 1369 3016 2328 
Q 3016 3291 2770 3770 
Q 2525 4250 2034 4250 
z
M 2034 4750 
Q 2819 4750 3233 4129 
Q 3647 3509 3647 2328 
Q 3647 1150 3233 529 
Q 2819 -91 2034 -91 
Q 1250 -91 836 529 
Q 422 1150 422 2328 
Q 422 3509 836 4129 
Q 1250 4750 2034 4750 
z
" id="DejaVuSans-30" transform="scale(0.015625)"/>
       </defs>
       <use xlink:href="#DejaVuSans-32"/>
       <use x="63.623047" xlink:href="#DejaVuSans-68"/>
       <use x="127.001953" xlink:href="#DejaVuSans-3a"/>
       <use x="160.693359" xlink:href="#DejaVuSans-31"/>
       <use x="224.316406" xlink:href="#DejaVuSans-30"/>
       <use x="287.939453" xlink:href="#DejaVuSans-6d"/>
      </g>
     </g>
    </g>
    <g id="xtick_3">
     <g id="line2d_3">
      <g>
       <use style="stroke:#000000;stroke-width:0.8;" x="195.200972" xlink:href="#m683896a486" y="288.430125"/>
      </g>
     </g>
     <g id="text_3">
      <!-- 4h:5m -->
      <g transform="translate(179.115035 303.028562)scale(0.1 -0.1)">
       <defs>
        <path d="M 2419 4116 
L 825 1625 
L 2419 1625 
L 2419 4116 
z
M 2253 4666 
L 3047 4666 
L 3047 1625 
L 3713 1625 
L 3713 1100 
L 3047 1100 
L 3047 0 
L 2419 0 
L 2419 1100 
L 313 1100 
L 313 1709 
L 2253 4666 
z
" id="DejaVuSans-34" transform="scale(0.015625)"/>
       </defs>
       <use xlink:href="#DejaVuSans-34"/>
       <use x="63.623047" xlink:href="#DejaVuSans-68"/>
       <use x="127.001953" xlink:href="#DejaVuSans-3a"/>
       <use x="160.693359" xlink:href="#DejaVuSans-35"/>
       <use x="224.316406" xlink:href="#DejaVuSans-6d"/>
      </g>
     </g>
    </g>
    <g id="xtick_4">
     <g id="line2d_4">
      <g>
       <use style="stroke:#000000;stroke-width:0.8;" x="249.904668" xlink:href="#m683896a486" y="288.430125"/>
      </g>
     </g>
     <g id="text_4">
      <!-- 6h -->
      <g transform="translate(243.554668 303.028562)scale(0.1 -0.1)">
       <defs>
        <path d="M 2113 2584 
Q 1688 2584 1439 2293 
Q 1191 2003 1191 1497 
Q 1191 994 1439 701 
Q 1688 409 2113 409 
Q 2538 409 2786 701 
Q 3034 994 3034 1497 
Q 3034 2003 2786 2293 
Q 2538 2584 2113 2584 
z
M 3366 4563 
L 3366 3988 
Q 3128 4100 2886 4159 
Q 2644 4219 2406 4219 
Q 1781 4219 1451 3797 
Q 1122 3375 1075 2522 
Q 1259 2794 1537 2939 
Q 1816 3084 2150 3084 
Q 2853 3084 3261 2657 
Q 3669 2231 3669 1497 
Q 3669 778 3244 343 
Q 2819 -91 2113 -91 
Q 1303 -91 875 529 
Q 447 1150 447 2328 
Q 447 3434 972 4092 
Q 1497 4750 2381 4750 
Q 2619 4750 2861 4703 
Q 3103 4656 3366 4563 
z
" id="DejaVuSans-36" transform="scale(0.015625)"/>
       </defs>
       <use xlink:href="#DejaVuSans-36"/>
       <use x="63.623047" xlink:href="#DejaVuSans-68"/>
      </g>
     </g>
    </g>
    <g id="xtick_5">
     <g id="line2d_5">
      <g>
       <use style="stroke:#000000;stroke-width:0.8;" x="304.608365" xlink:href="#m683896a486" y="288.430125"/>
      </g>
     </g>
     <g id="text_5">
      <!-- 7h:55m -->
      <g transform="translate(285.341177 303.028562)scale(0.1 -0.1)">
       <defs>
        <path d="M 525 4666 
L 3525 4666 
L 3525 4397 
L 1831 0 
L 1172 0 
L 2766 4134 
L 525 4134 
L 525 4666 
z
" id="DejaVuSans-37" transform="scale(0.015625)"/>
       </defs>
       <use xlink:href="#DejaVuSans-37"/>
       <use x="63.623047" xlink:href="#DejaVuSans-68"/>
       <use x="127.001953" xlink:href="#DejaVuSans-3a"/>
       <use x="160.693359" xlink:href="#DejaVuSans-35"/>
       <use x="224.316406" xlink:href="#DejaVuSans-35"/>
       <use x="287.939453" xlink:href="#DejaVuSans-6d"/>
      </g>
     </g>
    </g>
    <g id="xtick_6">
     <g id="line2d_6">
      <g>
       <use style="stroke:#000000;stroke-width:0.8;" x="359.312061" xlink:href="#m683896a486" y="288.430125"/>
      </g>
     </g>
     <g id="text_6">
      <!-- 9h:50m -->
      <g transform="translate(340.044874 303.028562)scale(0.1 -0.1)">
       <defs>
        <path d="M 703 97 
L 703 672 
Q 941 559 1184 500 
Q 1428 441 1663 441 
Q 2288 441 2617 861 
Q 2947 1281 2994 2138 
Q 2813 1869 2534 1725 
Q 2256 1581 1919 1581 
Q 1219 1581 811 2004 
Q 403 2428 403 3163 
Q 403 3881 828 4315 
Q 1253 4750 1959 4750 
Q 2769 4750 3195 4129 
Q 3622 3509 3622 2328 
Q 3622 1225 3098 567 
Q 2575 -91 1691 -91 
Q 1453 -91 1209 -44 
Q 966 3 703 97 
z
M 1959 2075 
Q 2384 2075 2632 2365 
Q 2881 2656 2881 3163 
Q 2881 3666 2632 3958 
Q 2384 4250 1959 4250 
Q 1534 4250 1286 3958 
Q 1038 3666 1038 3163 
Q 1038 2656 1286 2365 
Q 1534 2075 1959 2075 
z
" id="DejaVuSans-39" transform="scale(0.015625)"/>
       </defs>
       <use xlink:href="#DejaVuSans-39"/>
       <use x="63.623047" xlink:href="#DejaVuSans-68"/>
       <use x="127.001953" xlink:href="#DejaVuSans-3a"/>
       <use x="160.693359" xlink:href="#DejaVuSans-35"/>
       <use x="224.316406" xlink:href="#DejaVuSans-30"/>
       <use x="287.939453" xlink:href="#DejaVuSans-6d"/>
      </g>
     </g>
    </g>
    <g id="xtick_7">
     <g id="line2d_7">
      <g>
       <use style="stroke:#000000;stroke-width:0.8;" x="414.015757" xlink:href="#m683896a486" y="288.430125"/>
      </g>
     </g>
     <g id="text_7">
      <!-- 11h:45m -->
      <g transform="translate(391.56732 303.028562)scale(0.1 -0.1)">
       <use xlink:href="#DejaVuSans-31"/>
       <use x="63.623047" xlink:href="#DejaVuSans-31"/>
       <use x="127.246094" xlink:href="#DejaVuSans-68"/>
       <use x="190.625" xlink:href="#DejaVuSans-3a"/>
       <use x="224.316406" xlink:href="#DejaVuSans-34"/>
       <use x="287.939453" xlink:href="#DejaVuSans-35"/>
       <use x="351.5625" xlink:href="#DejaVuSans-6d"/>
      </g>
     </g>
    </g>
    <g id="xtick_8">
     <g id="line2d_8">
      <g>
       <use style="stroke:#000000;stroke-width:0.8;" x="468.719454" xlink:href="#m683896a486" y="288.430125"/>
      </g>
     </g>
     <g id="text_8">
      <!-- 13h:40m -->
      <g transform="translate(446.271016 303.028562)scale(0.1 -0.1)">
       <defs>
        <path d="M 2597 2516 
Q 3050 2419 3304 2112 
Q 3559 1806 3559 1356 
Q 3559 666 3084 287 
Q 2609 -91 1734 -91 
Q 1441 -91 1130 -33 
Q 819 25 488 141 
L 488 750 
Q 750 597 1062 519 
Q 1375 441 1716 441 
Q 2309 441 2620 675 
Q 2931 909 2931 1356 
Q 2931 1769 2642 2001 
Q 2353 2234 1838 2234 
L 1294 2234 
L 1294 2753 
L 1863 2753 
Q 2328 2753 2575 2939 
Q 2822 3125 2822 3475 
Q 2822 3834 2567 4026 
Q 2313 4219 1838 4219 
Q 1578 4219 1281 4162 
Q 984 4106 628 3988 
L 628 4550 
Q 988 4650 1302 4700 
Q 1616 4750 1894 4750 
Q 2613 4750 3031 4423 
Q 3450 4097 3450 3541 
Q 3450 3153 3228 2886 
Q 3006 2619 2597 2516 
z
" id="DejaVuSans-33" transform="scale(0.015625)"/>
       </defs>
       <use xlink:href="#DejaVuSans-31"/>
       <use x="63.623047" xlink:href="#DejaVuSans-33"/>
       <use x="127.246094" xlink:href="#DejaVuSans-68"/>
       <use x="190.625" xlink:href="#DejaVuSans-3a"/>
       <use x="224.316406" xlink:href="#DejaVuSans-34"/>
       <use x="287.939453" xlink:href="#DejaVuSans-30"/>
       <use x="351.5625" xlink:href="#DejaVuSans-6d"/>
      </g>
     </g>
    </g>
    <g id="xtick_9">
     <g id="line2d_9">
      <g>
       <use style="stroke:#000000;stroke-width:0.8;" x="523.42315" xlink:href="#m683896a486" y="288.430125"/>
      </g>
     </g>
     <g id="text_9">
      <!-- 15h:35m -->
      <g transform="translate(500.974712 303.028562)scale(0.1 -0.1)">
       <use xlink:href="#DejaVuSans-31"/>
       <use x="63.623047" xlink:href="#DejaVuSans-35"/>
       <use x="127.246094" xlink:href="#DejaVuSans-68"/>
       <use x="190.625" xlink:href="#DejaVuSans-3a"/>
       <use x="224.316406" xlink:href="#DejaVuSans-33"/>
       <use x="287.939453" xlink:href="#DejaVuSans-35"/>
       <use x="351.5625" xlink:href="#DejaVuSans-6d"/>
      </g>
     </g>
    </g>
    <g id="xtick_10">
     <g id="line2d_10">
      <g>
       <use style="stroke:#000000;stroke-width:0.8;" x="578.126846" xlink:href="#m683896a486" y="288.430125"/>
      </g>
     </g>
     <g id="text_10">
      <!-- 17h:30m -->
      <g transform="translate(555.678409 303.028562)scale(0.1 -0.1)">
       <use xlink:href="#DejaVuSans-31"/>
       <use x="63.623047" xlink:href="#DejaVuSans-37"/>
       <use x="127.246094" xlink:href="#DejaVuSans-68"/>
       <use x="190.625" xlink:href="#DejaVuSans-3a"/>
       <use x="224.316406" xlink:href="#DejaVuSans-33"/>
       <use x="287.939453" xlink:href="#DejaVuSans-30"/>
       <use x="351.5625" xlink:href="#DejaVuSans-6d"/>
      </g>
     </g>
    </g>
    <g id="xtick_11">
     <g id="line2d_11">
      <g>
       <use style="stroke:#000000;stroke-width:0.8;" x="632.830543" xlink:href="#m683896a486" y="288.430125"/>
      </g>
     </g>
     <g id="text_11">
      <!-- 19h:25m -->
      <g transform="translate(610.382105 303.028562)scale(0.1 -0.1)">
       <use xlink:href="#DejaVuSans-31"/>
       <use x="63.623047" xlink:href="#DejaVuSans-39"/>
       <use x="127.246094" xlink:href="#DejaVuSans-68"/>
       <use x="190.625" xlink:href="#DejaVuSans-3a"/>
       <use x="224.316406" xlink:href="#DejaVuSans-32"/>
       <use x="287.939453" xlink:href="#DejaVuSans-35"/>
       <use x="351.5625" xlink:href="#DejaVuSans-6d"/>
      </g>
     </g>
    </g>
    <g id="xtick_12">
     <g id="line2d_12">
      <g>
       <use style="stroke:#000000;stroke-width:0.8;" x="687.534239" xlink:href="#m683896a486" y="288.430125"/>
      </g>
     </g>
     <g id="text_12">
      <!-- 21h:20m -->
      <g transform="translate(665.085801 303.028562)scale(0.1 -0.1)">
       <use xlink:href="#DejaVuSans-32"/>
       <use x="63.623047" xlink:href="#DejaVuSans-31"/>
       <use x="127.246094" xlink:href="#DejaVuSans-68"/>
       <use x="190.625" xlink:href="#DejaVuSans-3a"/>
       <use x="224.316406" xlink:href="#DejaVuSans-32"/>
       <use x="287.939453" xlink:href="#DejaVuSans-30"/>
       <use x="351.5625" xlink:href="#DejaVuSans-6d"/>
      </g>
     </g>
    </g>
    <g id="text_13">
     <!-- Time (hour:minute) -->
     <g transform="translate(362.041094 316.706687)scale(0.1 -0.1)">
      <defs>
       <path d="M -19 4666 
L 3928 4666 
L 3928 4134 
L 2272 4134 
L 2272 0 
L 1638 0 
L 1638 4134 
L -19 4134 
L -19 4666 
z
" id="DejaVuSans-54" transform="scale(0.015625)"/>
       <path d="M 603 3500 
L 1178 3500 
L 1178 0 
L 603 0 
L 603 3500 
z
M 603 4863 
L 1178 4863 
L 1178 4134 
L 603 4134 
L 603 4863 
z
" id="DejaVuSans-69" transform="scale(0.015625)"/>
       <path d="M 3597 1894 
L 3597 1613 
L 953 1613 
Q 991 1019 1311 708 
Q 1631 397 2203 397 
Q 2534 397 2845 478 
Q 3156 559 3463 722 
L 3463 178 
Q 3153 47 2828 -22 
Q 2503 -91 2169 -91 
Q 1331 -91 842 396 
Q 353 884 353 1716 
Q 353 2575 817 3079 
Q 1281 3584 2069 3584 
Q 2775 3584 3186 3129 
Q 3597 2675 3597 1894 
z
M 3022 2063 
Q 3016 2534 2758 2815 
Q 2500 3097 2075 3097 
Q 1594 3097 1305 2825 
Q 1016 2553 972 2059 
L 3022 2063 
z
" id="DejaVuSans-65" transform="scale(0.015625)"/>
       <path id="DejaVuSans-20" transform="scale(0.015625)"/>
       <path d="M 1984 4856 
Q 1566 4138 1362 3434 
Q 1159 2731 1159 2009 
Q 1159 1288 1364 580 
Q 1569 -128 1984 -844 
L 1484 -844 
Q 1016 -109 783 600 
Q 550 1309 550 2009 
Q 550 2706 781 3412 
Q 1013 4119 1484 4856 
L 1984 4856 
z
" id="DejaVuSans-28" transform="scale(0.015625)"/>
       <path d="M 1959 3097 
Q 1497 3097 1228 2736 
Q 959 2375 959 1747 
Q 959 1119 1226 758 
Q 1494 397 1959 397 
Q 2419 397 2687 759 
Q 2956 1122 2956 1747 
Q 2956 2369 2687 2733 
Q 2419 3097 1959 3097 
z
M 1959 3584 
Q 2709 3584 3137 3096 
Q 3566 2609 3566 1747 
Q 3566 888 3137 398 
Q 2709 -91 1959 -91 
Q 1206 -91 779 398 
Q 353 888 353 1747 
Q 353 2609 779 3096 
Q 1206 3584 1959 3584 
z
" id="DejaVuSans-6f" transform="scale(0.015625)"/>
       <path d="M 544 1381 
L 544 3500 
L 1119 3500 
L 1119 1403 
Q 1119 906 1312 657 
Q 1506 409 1894 409 
Q 2359 409 2629 706 
Q 2900 1003 2900 1516 
L 2900 3500 
L 3475 3500 
L 3475 0 
L 2900 0 
L 2900 538 
Q 2691 219 2414 64 
Q 2138 -91 1772 -91 
Q 1169 -91 856 284 
Q 544 659 544 1381 
z
M 1991 3584 
L 1991 3584 
z
" id="DejaVuSans-75" transform="scale(0.015625)"/>
       <path d="M 2631 2963 
Q 2534 3019 2420 3045 
Q 2306 3072 2169 3072 
Q 1681 3072 1420 2755 
Q 1159 2438 1159 1844 
L 1159 0 
L 581 0 
L 581 3500 
L 1159 3500 
L 1159 2956 
Q 1341 3275 1631 3429 
Q 1922 3584 2338 3584 
Q 2397 3584 2469 3576 
Q 2541 3569 2628 3553 
L 2631 2963 
z
" id="DejaVuSans-72" transform="scale(0.015625)"/>
       <path d="M 3513 2113 
L 3513 0 
L 2938 0 
L 2938 2094 
Q 2938 2591 2744 2837 
Q 2550 3084 2163 3084 
Q 1697 3084 1428 2787 
Q 1159 2491 1159 1978 
L 1159 0 
L 581 0 
L 581 3500 
L 1159 3500 
L 1159 2956 
Q 1366 3272 1645 3428 
Q 1925 3584 2291 3584 
Q 2894 3584 3203 3211 
Q 3513 2838 3513 2113 
z
" id="DejaVuSans-6e" transform="scale(0.015625)"/>
       <path d="M 1172 4494 
L 1172 3500 
L 2356 3500 
L 2356 3053 
L 1172 3053 
L 1172 1153 
Q 1172 725 1289 603 
Q 1406 481 1766 481 
L 2356 481 
L 2356 0 
L 1766 0 
Q 1100 0 847 248 
Q 594 497 594 1153 
L 594 3053 
L 172 3053 
L 172 3500 
L 594 3500 
L 594 4494 
L 1172 4494 
z
" id="DejaVuSans-74" transform="scale(0.015625)"/>
       <path d="M 513 4856 
L 1013 4856 
Q 1481 4119 1714 3412 
Q 1947 2706 1947 2009 
Q 1947 1309 1714 600 
Q 1481 -109 1013 -844 
L 513 -844 
Q 928 -128 1133 580 
Q 1338 1288 1338 2009 
Q 1338 2731 1133 3434 
Q 928 4138 513 4856 
z
" id="DejaVuSans-29" transform="scale(0.015625)"/>
      </defs>
      <use xlink:href="#DejaVuSans-54"/>
      <use x="57.958984" xlink:href="#DejaVuSans-69"/>
      <use x="85.742188" xlink:href="#DejaVuSans-6d"/>
      <use x="183.154297" xlink:href="#DejaVuSans-65"/>
      <use x="244.677734" xlink:href="#DejaVuSans-20"/>
      <use x="276.464844" xlink:href="#DejaVuSans-28"/>
      <use x="315.478516" xlink:href="#DejaVuSans-68"/>
      <use x="378.857422" xlink:href="#DejaVuSans-6f"/>
      <use x="440.039062" xlink:href="#DejaVuSans-75"/>
      <use x="503.417969" xlink:href="#DejaVuSans-72"/>
      <use x="542.78125" xlink:href="#DejaVuSans-3a"/>
      <use x="576.472656" xlink:href="#DejaVuSans-6d"/>
      <use x="673.884766" xlink:href="#DejaVuSans-69"/>
      <use x="701.667969" xlink:href="#DejaVuSans-6e"/>
      <use x="765.046875" xlink:href="#DejaVuSans-75"/>
      <use x="828.425781" xlink:href="#DejaVuSans-74"/>
      <use x="867.634766" xlink:href="#DejaVuSans-65"/>
      <use x="929.158203" xlink:href="#DejaVuSans-29"/>
     </g>
    </g>
   </g>
   <g id="matplotlib.axis_2">
    <g id="ytick_1">
     <g id="line2d_13">
      <defs>
       <path d="M 0 0 
L -3.5 0 
" id="m02221609fe" style="stroke:#000000;stroke-width:0.8;"/>
      </defs>
      <g>
       <use style="stroke:#000000;stroke-width:0.8;" x="53.328125" xlink:href="#m02221609fe" y="240.114038"/>
      </g>
     </g>
     <g id="text_14">
      <!-- 1500 -->
      <g transform="translate(20.878125 243.913256)scale(0.1 -0.1)">
       <use xlink:href="#DejaVuSans-31"/>
       <use x="63.623047" xlink:href="#DejaVuSans-35"/>
       <use x="127.246094" xlink:href="#DejaVuSans-30"/>
       <use x="190.869141" xlink:href="#DejaVuSans-30"/>
      </g>
     </g>
    </g>
    <g id="ytick_2">
     <g id="line2d_14">
      <g>
       <use style="stroke:#000000;stroke-width:0.8;" x="53.328125" xlink:href="#m02221609fe" y="189.808361"/>
      </g>
     </g>
     <g id="text_15">
      <!-- 2000 -->
      <g transform="translate(20.878125 193.60758)scale(0.1 -0.1)">
       <use xlink:href="#DejaVuSans-32"/>
       <use x="63.623047" xlink:href="#DejaVuSans-30"/>
       <use x="127.246094" xlink:href="#DejaVuSans-30"/>
       <use x="190.869141" xlink:href="#DejaVuSans-30"/>
      </g>
     </g>
    </g>
    <g id="ytick_3">
     <g id="line2d_15">
      <g>
       <use style="stroke:#000000;stroke-width:0.8;" x="53.328125" xlink:href="#m02221609fe" y="139.502684"/>
      </g>
     </g>
     <g id="text_16">
      <!-- 2500 -->
      <g transform="translate(20.878125 143.301903)scale(0.1 -0.1)">
       <use xlink:href="#DejaVuSans-32"/>
       <use x="63.623047" xlink:href="#DejaVuSans-35"/>
       <use x="127.246094" xlink:href="#DejaVuSans-30"/>
       <use x="190.869141" xlink:href="#DejaVuSans-30"/>
      </g>
     </g>
    </g>
    <g id="ytick_4">
     <g id="line2d_16">
      <g>
       <use style="stroke:#000000;stroke-width:0.8;" x="53.328125" xlink:href="#m02221609fe" y="89.197007"/>
      </g>
     </g>
     <g id="text_17">
      <!-- 3000 -->
      <g transform="translate(20.878125 92.996226)scale(0.1 -0.1)">
       <use xlink:href="#DejaVuSans-33"/>
       <use x="63.623047" xlink:href="#DejaVuSans-30"/>
       <use x="127.246094" xlink:href="#DejaVuSans-30"/>
       <use x="190.869141" xlink:href="#DejaVuSans-30"/>
      </g>
     </g>
    </g>
    <g id="ytick_5">
     <g id="line2d_17">
      <g>
       <use style="stroke:#000000;stroke-width:0.8;" x="53.328125" xlink:href="#m02221609fe" y="38.89133"/>
      </g>
     </g>
     <g id="text_18">
      <!-- 3500 -->
      <g transform="translate(20.878125 42.690549)scale(0.1 -0.1)">
       <use xlink:href="#DejaVuSans-33"/>
       <use x="63.623047" xlink:href="#DejaVuSans-35"/>
       <use x="127.246094" xlink:href="#DejaVuSans-30"/>
       <use x="190.869141" xlink:href="#DejaVuSans-30"/>
      </g>
     </g>
    </g>
    <g id="text_19">
     <!-- Code region coverage -->
     <g transform="translate(14.798438 210.379594)rotate(-90)scale(0.1 -0.1)">
      <defs>
       <path d="M 4122 4306 
L 4122 3641 
Q 3803 3938 3442 4084 
Q 3081 4231 2675 4231 
Q 1875 4231 1450 3742 
Q 1025 3253 1025 2328 
Q 1025 1406 1450 917 
Q 1875 428 2675 428 
Q 3081 428 3442 575 
Q 3803 722 4122 1019 
L 4122 359 
Q 3791 134 3420 21 
Q 3050 -91 2638 -91 
Q 1578 -91 968 557 
Q 359 1206 359 2328 
Q 359 3453 968 4101 
Q 1578 4750 2638 4750 
Q 3056 4750 3426 4639 
Q 3797 4528 4122 4306 
z
" id="DejaVuSans-43" transform="scale(0.015625)"/>
       <path d="M 2906 2969 
L 2906 4863 
L 3481 4863 
L 3481 0 
L 2906 0 
L 2906 525 
Q 2725 213 2448 61 
Q 2172 -91 1784 -91 
Q 1150 -91 751 415 
Q 353 922 353 1747 
Q 353 2572 751 3078 
Q 1150 3584 1784 3584 
Q 2172 3584 2448 3432 
Q 2725 3281 2906 2969 
z
M 947 1747 
Q 947 1113 1208 752 
Q 1469 391 1925 391 
Q 2381 391 2643 752 
Q 2906 1113 2906 1747 
Q 2906 2381 2643 2742 
Q 2381 3103 1925 3103 
Q 1469 3103 1208 2742 
Q 947 2381 947 1747 
z
" id="DejaVuSans-64" transform="scale(0.015625)"/>
       <path d="M 2906 1791 
Q 2906 2416 2648 2759 
Q 2391 3103 1925 3103 
Q 1463 3103 1205 2759 
Q 947 2416 947 1791 
Q 947 1169 1205 825 
Q 1463 481 1925 481 
Q 2391 481 2648 825 
Q 2906 1169 2906 1791 
z
M 3481 434 
Q 3481 -459 3084 -895 
Q 2688 -1331 1869 -1331 
Q 1566 -1331 1297 -1286 
Q 1028 -1241 775 -1147 
L 775 -588 
Q 1028 -725 1275 -790 
Q 1522 -856 1778 -856 
Q 2344 -856 2625 -561 
Q 2906 -266 2906 331 
L 2906 616 
Q 2728 306 2450 153 
Q 2172 0 1784 0 
Q 1141 0 747 490 
Q 353 981 353 1791 
Q 353 2603 747 3093 
Q 1141 3584 1784 3584 
Q 2172 3584 2450 3431 
Q 2728 3278 2906 2969 
L 2906 3500 
L 3481 3500 
L 3481 434 
z
" id="DejaVuSans-67" transform="scale(0.015625)"/>
       <path d="M 3122 3366 
L 3122 2828 
Q 2878 2963 2633 3030 
Q 2388 3097 2138 3097 
Q 1578 3097 1268 2742 
Q 959 2388 959 1747 
Q 959 1106 1268 751 
Q 1578 397 2138 397 
Q 2388 397 2633 464 
Q 2878 531 3122 666 
L 3122 134 
Q 2881 22 2623 -34 
Q 2366 -91 2075 -91 
Q 1284 -91 818 406 
Q 353 903 353 1747 
Q 353 2603 823 3093 
Q 1294 3584 2113 3584 
Q 2378 3584 2631 3529 
Q 2884 3475 3122 3366 
z
" id="DejaVuSans-63" transform="scale(0.015625)"/>
       <path d="M 191 3500 
L 800 3500 
L 1894 563 
L 2988 3500 
L 3597 3500 
L 2284 0 
L 1503 0 
L 191 3500 
z
" id="DejaVuSans-76" transform="scale(0.015625)"/>
       <path d="M 2194 1759 
Q 1497 1759 1228 1600 
Q 959 1441 959 1056 
Q 959 750 1161 570 
Q 1363 391 1709 391 
Q 2188 391 2477 730 
Q 2766 1069 2766 1631 
L 2766 1759 
L 2194 1759 
z
M 3341 1997 
L 3341 0 
L 2766 0 
L 2766 531 
Q 2569 213 2275 61 
Q 1981 -91 1556 -91 
Q 1019 -91 701 211 
Q 384 513 384 1019 
Q 384 1609 779 1909 
Q 1175 2209 1959 2209 
L 2766 2209 
L 2766 2266 
Q 2766 2663 2505 2880 
Q 2244 3097 1772 3097 
Q 1472 3097 1187 3025 
Q 903 2953 641 2809 
L 641 3341 
Q 956 3463 1253 3523 
Q 1550 3584 1831 3584 
Q 2591 3584 2966 3190 
Q 3341 2797 3341 1997 
z
" id="DejaVuSans-61" transform="scale(0.015625)"/>
      </defs>
      <use xlink:href="#DejaVuSans-43"/>
      <use x="69.824219" xlink:href="#DejaVuSans-6f"/>
      <use x="131.005859" xlink:href="#DejaVuSans-64"/>
      <use x="194.482422" xlink:href="#DejaVuSans-65"/>
      <use x="256.005859" xlink:href="#DejaVuSans-20"/>
      <use x="287.792969" xlink:href="#DejaVuSans-72"/>
      <use x="326.65625" xlink:href="#DejaVuSans-65"/>
      <use x="388.179688" xlink:href="#DejaVuSans-67"/>
      <use x="451.65625" xlink:href="#DejaVuSans-69"/>
      <use x="479.439453" xlink:href="#DejaVuSans-6f"/>
      <use x="540.621094" xlink:href="#DejaVuSans-6e"/>
      <use x="604" xlink:href="#DejaVuSans-20"/>
      <use x="635.787109" xlink:href="#DejaVuSans-63"/>
      <use x="690.767578" xlink:href="#DejaVuSans-6f"/>
      <use x="751.949219" xlink:href="#DejaVuSans-76"/>
      <use x="811.128906" xlink:href="#DejaVuSans-65"/>
      <use x="872.652344" xlink:href="#DejaVuSans-72"/>
      <use x="913.765625" xlink:href="#DejaVuSans-61"/>
      <use x="975.044922" xlink:href="#DejaVuSans-67"/>
      <use x="1038.521484" xlink:href="#DejaVuSans-65"/>
     </g>
    </g>
   </g>
   <g id="line2d_18">
    <path clip-path="url(#p0e4f424da5)" d="M 85.79358 44.525566 
L 92.928844 43.519453 
L 100.064109 42.110894 
L 107.199374 39.494998 
L 114.334638 39.293776 
L 121.469903 39.24347 
L 128.605168 38.841025 
L 135.740433 38.639802 
L 142.875697 38.589496 
L 150.010962 38.438579 
L 157.146227 38.337968 
L 164.281492 38.337968 
L 171.416756 38.287662 
L 178.552021 38.287662 
L 185.687286 38.237356 
L 192.822551 38.237356 
L 199.957815 38.086439 
L 207.09308 37.683994 
L 214.228345 37.683994 
L 221.36361 37.683994 
L 228.498874 37.683994 
L 235.634139 37.683994 
L 242.769404 37.683994 
L 249.904668 37.683994 
L 257.039933 37.683994 
L 264.175198 37.633688 
L 271.310463 37.633688 
L 278.445727 37.583383 
L 285.580992 37.583383 
L 292.716257 37.583383 
L 299.851522 37.583383 
L 306.986786 37.583383 
L 314.122051 37.583383 
L 321.257316 37.583383 
L 328.392581 37.583383 
L 335.527845 37.583383 
L 342.66311 37.583383 
L 349.798375 37.583383 
L 356.933639 37.583383 
L 364.068904 37.583383 
L 371.204169 37.583383 
L 378.339434 37.583383 
L 385.474698 37.583383 
L 392.609963 37.583383 
L 399.745228 37.583383 
L 406.880493 37.583383 
L 414.015757 37.583383 
L 421.151022 37.583383 
L 428.286287 37.583383 
L 435.421552 37.583383 
L 442.556816 37.583383 
L 449.692081 37.583383 
L 456.827346 37.583383 
L 463.962611 37.583383 
L 471.097875 37.583383 
L 478.23314 37.583383 
L 485.368405 37.583383 
L 492.503669 37.583383 
L 499.638934 36.225129 
L 506.774199 36.225129 
L 513.909464 36.225129 
L 521.044728 36.225129 
L 528.179993 36.225129 
L 535.315258 36.225129 
L 542.450523 36.225129 
L 549.585787 36.225129 
L 556.721052 36.225129 
L 563.856317 36.225129 
L 570.991582 36.225129 
L 578.126846 36.225129 
L 585.262111 36.225129 
L 592.397376 36.225129 
L 599.53264 36.225129 
L 606.667905 36.225129 
L 613.80317 34.967487 
L 620.938435 34.967487 
L 628.073699 34.967487 
L 635.208964 34.967487 
L 642.344229 34.967487 
L 649.479494 34.967487 
L 656.614758 34.967487 
L 663.750023 34.967487 
L 670.885288 34.967487 
L 678.020553 34.967487 
L 685.155817 34.967487 
L 692.291082 34.967487 
L 699.426347 34.967487 
L 706.561612 34.967487 
L 713.696876 34.967487 
L 720.832141 34.967487 
L 727.967406 34.967487 
L 735.10267 34.967487 
" style="fill:none;stroke:#1f77b4;stroke-linecap:square;stroke-width:1.5;"/>
    <defs>
     <path d="M 0 3 
C 0.795609 3 1.55874 2.683901 2.12132 2.12132 
C 2.683901 1.55874 3 0.795609 3 0 
C 3 -0.795609 2.683901 -1.55874 2.12132 -2.12132 
C 1.55874 -2.683901 0.795609 -3 0 -3 
C -0.795609 -3 -1.55874 -2.683901 -2.12132 -2.12132 
C -2.683901 -1.55874 -3 -0.795609 -3 0 
C -3 0.795609 -2.683901 1.55874 -2.12132 2.12132 
C -1.55874 2.683901 -0.795609 3 0 3 
z
" id="m7033d11ffc" style="stroke:#ffffff;stroke-width:0.75;"/>
    </defs>
    <g clip-path="url(#p0e4f424da5)">
     <use style="fill:#1f77b4;stroke:#ffffff;stroke-width:0.75;" x="85.79358" xlink:href="#m7033d11ffc" y="44.525566"/>
     <use style="fill:#1f77b4;stroke:#ffffff;stroke-width:0.75;" x="92.928844" xlink:href="#m7033d11ffc" y="43.519453"/>
     <use style="fill:#1f77b4;stroke:#ffffff;stroke-width:0.75;" x="100.064109" xlink:href="#m7033d11ffc" y="42.110894"/>
     <use style="fill:#1f77b4;stroke:#ffffff;stroke-width:0.75;" x="107.199374" xlink:href="#m7033d11ffc" y="39.494998"/>
     <use style="fill:#1f77b4;stroke:#ffffff;stroke-width:0.75;" x="114.334638" xlink:href="#m7033d11ffc" y="39.293776"/>
     <use style="fill:#1f77b4;stroke:#ffffff;stroke-width:0.75;" x="121.469903" xlink:href="#m7033d11ffc" y="39.24347"/>
     <use style="fill:#1f77b4;stroke:#ffffff;stroke-width:0.75;" x="128.605168" xlink:href="#m7033d11ffc" y="38.841025"/>
     <use style="fill:#1f77b4;stroke:#ffffff;stroke-width:0.75;" x="135.740433" xlink:href="#m7033d11ffc" y="38.639802"/>
     <use style="fill:#1f77b4;stroke:#ffffff;stroke-width:0.75;" x="142.875697" xlink:href="#m7033d11ffc" y="38.589496"/>
     <use style="fill:#1f77b4;stroke:#ffffff;stroke-width:0.75;" x="150.010962" xlink:href="#m7033d11ffc" y="38.438579"/>
     <use style="fill:#1f77b4;stroke:#ffffff;stroke-width:0.75;" x="157.146227" xlink:href="#m7033d11ffc" y="38.337968"/>
     <use style="fill:#1f77b4;stroke:#ffffff;stroke-width:0.75;" x="164.281492" xlink:href="#m7033d11ffc" y="38.337968"/>
     <use style="fill:#1f77b4;stroke:#ffffff;stroke-width:0.75;" x="171.416756" xlink:href="#m7033d11ffc" y="38.287662"/>
     <use style="fill:#1f77b4;stroke:#ffffff;stroke-width:0.75;" x="178.552021" xlink:href="#m7033d11ffc" y="38.287662"/>
     <use style="fill:#1f77b4;stroke:#ffffff;stroke-width:0.75;" x="185.687286" xlink:href="#m7033d11ffc" y="38.237356"/>
     <use style="fill:#1f77b4;stroke:#ffffff;stroke-width:0.75;" x="192.822551" xlink:href="#m7033d11ffc" y="38.237356"/>
     <use style="fill:#1f77b4;stroke:#ffffff;stroke-width:0.75;" x="199.957815" xlink:href="#m7033d11ffc" y="38.086439"/>
     <use style="fill:#1f77b4;stroke:#ffffff;stroke-width:0.75;" x="207.09308" xlink:href="#m7033d11ffc" y="37.683994"/>
     <use style="fill:#1f77b4;stroke:#ffffff;stroke-width:0.75;" x="214.228345" xlink:href="#m7033d11ffc" y="37.683994"/>
     <use style="fill:#1f77b4;stroke:#ffffff;stroke-width:0.75;" x="221.36361" xlink:href="#m7033d11ffc" y="37.683994"/>
     <use style="fill:#1f77b4;stroke:#ffffff;stroke-width:0.75;" x="228.498874" xlink:href="#m7033d11ffc" y="37.683994"/>
     <use style="fill:#1f77b4;stroke:#ffffff;stroke-width:0.75;" x="235.634139" xlink:href="#m7033d11ffc" y="37.683994"/>
     <use style="fill:#1f77b4;stroke:#ffffff;stroke-width:0.75;" x="242.769404" xlink:href="#m7033d11ffc" y="37.683994"/>
     <use style="fill:#1f77b4;stroke:#ffffff;stroke-width:0.75;" x="249.904668" xlink:href="#m7033d11ffc" y="37.683994"/>
     <use style="fill:#1f77b4;stroke:#ffffff;stroke-width:0.75;" x="257.039933" xlink:href="#m7033d11ffc" y="37.683994"/>
     <use style="fill:#1f77b4;stroke:#ffffff;stroke-width:0.75;" x="264.175198" xlink:href="#m7033d11ffc" y="37.633688"/>
     <use style="fill:#1f77b4;stroke:#ffffff;stroke-width:0.75;" x="271.310463" xlink:href="#m7033d11ffc" y="37.633688"/>
     <use style="fill:#1f77b4;stroke:#ffffff;stroke-width:0.75;" x="278.445727" xlink:href="#m7033d11ffc" y="37.583383"/>
     <use style="fill:#1f77b4;stroke:#ffffff;stroke-width:0.75;" x="285.580992" xlink:href="#m7033d11ffc" y="37.583383"/>
     <use style="fill:#1f77b4;stroke:#ffffff;stroke-width:0.75;" x="292.716257" xlink:href="#m7033d11ffc" y="37.583383"/>
     <use style="fill:#1f77b4;stroke:#ffffff;stroke-width:0.75;" x="299.851522" xlink:href="#m7033d11ffc" y="37.583383"/>
     <use style="fill:#1f77b4;stroke:#ffffff;stroke-width:0.75;" x="306.986786" xlink:href="#m7033d11ffc" y="37.583383"/>
     <use style="fill:#1f77b4;stroke:#ffffff;stroke-width:0.75;" x="314.122051" xlink:href="#m7033d11ffc" y="37.583383"/>
     <use style="fill:#1f77b4;stroke:#ffffff;stroke-width:0.75;" x="321.257316" xlink:href="#m7033d11ffc" y="37.583383"/>
     <use style="fill:#1f77b4;stroke:#ffffff;stroke-width:0.75;" x="328.392581" xlink:href="#m7033d11ffc" y="37.583383"/>
     <use style="fill:#1f77b4;stroke:#ffffff;stroke-width:0.75;" x="335.527845" xlink:href="#m7033d11ffc" y="37.583383"/>
     <use style="fill:#1f77b4;stroke:#ffffff;stroke-width:0.75;" x="342.66311" xlink:href="#m7033d11ffc" y="37.583383"/>
     <use style="fill:#1f77b4;stroke:#ffffff;stroke-width:0.75;" x="349.798375" xlink:href="#m7033d11ffc" y="37.583383"/>
     <use style="fill:#1f77b4;stroke:#ffffff;stroke-width:0.75;" x="356.933639" xlink:href="#m7033d11ffc" y="37.583383"/>
     <use style="fill:#1f77b4;stroke:#ffffff;stroke-width:0.75;" x="364.068904" xlink:href="#m7033d11ffc" y="37.583383"/>
     <use style="fill:#1f77b4;stroke:#ffffff;stroke-width:0.75;" x="371.204169" xlink:href="#m7033d11ffc" y="37.583383"/>
     <use style="fill:#1f77b4;stroke:#ffffff;stroke-width:0.75;" x="378.339434" xlink:href="#m7033d11ffc" y="37.583383"/>
     <use style="fill:#1f77b4;stroke:#ffffff;stroke-width:0.75;" x="385.474698" xlink:href="#m7033d11ffc" y="37.583383"/>
     <use style="fill:#1f77b4;stroke:#ffffff;stroke-width:0.75;" x="392.609963" xlink:href="#m7033d11ffc" y="37.583383"/>
     <use style="fill:#1f77b4;stroke:#ffffff;stroke-width:0.75;" x="399.745228" xlink:href="#m7033d11ffc" y="37.583383"/>
     <use style="fill:#1f77b4;stroke:#ffffff;stroke-width:0.75;" x="406.880493" xlink:href="#m7033d11ffc" y="37.583383"/>
     <use style="fill:#1f77b4;stroke:#ffffff;stroke-width:0.75;" x="414.015757" xlink:href="#m7033d11ffc" y="37.583383"/>
     <use style="fill:#1f77b4;stroke:#ffffff;stroke-width:0.75;" x="421.151022" xlink:href="#m7033d11ffc" y="37.583383"/>
     <use style="fill:#1f77b4;stroke:#ffffff;stroke-width:0.75;" x="428.286287" xlink:href="#m7033d11ffc" y="37.583383"/>
     <use style="fill:#1f77b4;stroke:#ffffff;stroke-width:0.75;" x="435.421552" xlink:href="#m7033d11ffc" y="37.583383"/>
     <use style="fill:#1f77b4;stroke:#ffffff;stroke-width:0.75;" x="442.556816" xlink:href="#m7033d11ffc" y="37.583383"/>
     <use style="fill:#1f77b4;stroke:#ffffff;stroke-width:0.75;" x="449.692081" xlink:href="#m7033d11ffc" y="37.583383"/>
     <use style="fill:#1f77b4;stroke:#ffffff;stroke-width:0.75;" x="456.827346" xlink:href="#m7033d11ffc" y="37.583383"/>
     <use style="fill:#1f77b4;stroke:#ffffff;stroke-width:0.75;" x="463.962611" xlink:href="#m7033d11ffc" y="37.583383"/>
     <use style="fill:#1f77b4;stroke:#ffffff;stroke-width:0.75;" x="471.097875" xlink:href="#m7033d11ffc" y="37.583383"/>
     <use style="fill:#1f77b4;stroke:#ffffff;stroke-width:0.75;" x="478.23314" xlink:href="#m7033d11ffc" y="37.583383"/>
     <use style="fill:#1f77b4;stroke:#ffffff;stroke-width:0.75;" x="485.368405" xlink:href="#m7033d11ffc" y="37.583383"/>
     <use style="fill:#1f77b4;stroke:#ffffff;stroke-width:0.75;" x="492.503669" xlink:href="#m7033d11ffc" y="37.583383"/>
     <use style="fill:#1f77b4;stroke:#ffffff;stroke-width:0.75;" x="499.638934" xlink:href="#m7033d11ffc" y="36.225129"/>
     <use style="fill:#1f77b4;stroke:#ffffff;stroke-width:0.75;" x="506.774199" xlink:href="#m7033d11ffc" y="36.225129"/>
     <use style="fill:#1f77b4;stroke:#ffffff;stroke-width:0.75;" x="513.909464" xlink:href="#m7033d11ffc" y="36.225129"/>
     <use style="fill:#1f77b4;stroke:#ffffff;stroke-width:0.75;" x="521.044728" xlink:href="#m7033d11ffc" y="36.225129"/>
     <use style="fill:#1f77b4;stroke:#ffffff;stroke-width:0.75;" x="528.179993" xlink:href="#m7033d11ffc" y="36.225129"/>
     <use style="fill:#1f77b4;stroke:#ffffff;stroke-width:0.75;" x="535.315258" xlink:href="#m7033d11ffc" y="36.225129"/>
     <use style="fill:#1f77b4;stroke:#ffffff;stroke-width:0.75;" x="542.450523" xlink:href="#m7033d11ffc" y="36.225129"/>
     <use style="fill:#1f77b4;stroke:#ffffff;stroke-width:0.75;" x="549.585787" xlink:href="#m7033d11ffc" y="36.225129"/>
     <use style="fill:#1f77b4;stroke:#ffffff;stroke-width:0.75;" x="556.721052" xlink:href="#m7033d11ffc" y="36.225129"/>
     <use style="fill:#1f77b4;stroke:#ffffff;stroke-width:0.75;" x="563.856317" xlink:href="#m7033d11ffc" y="36.225129"/>
     <use style="fill:#1f77b4;stroke:#ffffff;stroke-width:0.75;" x="570.991582" xlink:href="#m7033d11ffc" y="36.225129"/>
     <use style="fill:#1f77b4;stroke:#ffffff;stroke-width:0.75;" x="578.126846" xlink:href="#m7033d11ffc" y="36.225129"/>
     <use style="fill:#1f77b4;stroke:#ffffff;stroke-width:0.75;" x="585.262111" xlink:href="#m7033d11ffc" y="36.225129"/>
     <use style="fill:#1f77b4;stroke:#ffffff;stroke-width:0.75;" x="592.397376" xlink:href="#m7033d11ffc" y="36.225129"/>
     <use style="fill:#1f77b4;stroke:#ffffff;stroke-width:0.75;" x="599.53264" xlink:href="#m7033d11ffc" y="36.225129"/>
     <use style="fill:#1f77b4;stroke:#ffffff;stroke-width:0.75;" x="606.667905" xlink:href="#m7033d11ffc" y="36.225129"/>
     <use style="fill:#1f77b4;stroke:#ffffff;stroke-width:0.75;" x="613.80317" xlink:href="#m7033d11ffc" y="34.967487"/>
     <use style="fill:#1f77b4;stroke:#ffffff;stroke-width:0.75;" x="620.938435" xlink:href="#m7033d11ffc" y="34.967487"/>
     <use style="fill:#1f77b4;stroke:#ffffff;stroke-width:0.75;" x="628.073699" xlink:href="#m7033d11ffc" y="34.967487"/>
     <use style="fill:#1f77b4;stroke:#ffffff;stroke-width:0.75;" x="635.208964" xlink:href="#m7033d11ffc" y="34.967487"/>
     <use style="fill:#1f77b4;stroke:#ffffff;stroke-width:0.75;" x="642.344229" xlink:href="#m7033d11ffc" y="34.967487"/>
     <use style="fill:#1f77b4;stroke:#ffffff;stroke-width:0.75;" x="649.479494" xlink:href="#m7033d11ffc" y="34.967487"/>
     <use style="fill:#1f77b4;stroke:#ffffff;stroke-width:0.75;" x="656.614758" xlink:href="#m7033d11ffc" y="34.967487"/>
     <use style="fill:#1f77b4;stroke:#ffffff;stroke-width:0.75;" x="663.750023" xlink:href="#m7033d11ffc" y="34.967487"/>
     <use style="fill:#1f77b4;stroke:#ffffff;stroke-width:0.75;" x="670.885288" xlink:href="#m7033d11ffc" y="34.967487"/>
     <use style="fill:#1f77b4;stroke:#ffffff;stroke-width:0.75;" x="678.020553" xlink:href="#m7033d11ffc" y="34.967487"/>
     <use style="fill:#1f77b4;stroke:#ffffff;stroke-width:0.75;" x="685.155817" xlink:href="#m7033d11ffc" y="34.967487"/>
     <use style="fill:#1f77b4;stroke:#ffffff;stroke-width:0.75;" x="692.291082" xlink:href="#m7033d11ffc" y="34.967487"/>
     <use style="fill:#1f77b4;stroke:#ffffff;stroke-width:0.75;" x="699.426347" xlink:href="#m7033d11ffc" y="34.967487"/>
     <use style="fill:#1f77b4;stroke:#ffffff;stroke-width:0.75;" x="706.561612" xlink:href="#m7033d11ffc" y="34.967487"/>
     <use style="fill:#1f77b4;stroke:#ffffff;stroke-width:0.75;" x="713.696876" xlink:href="#m7033d11ffc" y="34.967487"/>
     <use style="fill:#1f77b4;stroke:#ffffff;stroke-width:0.75;" x="720.832141" xlink:href="#m7033d11ffc" y="34.967487"/>
     <use style="fill:#1f77b4;stroke:#ffffff;stroke-width:0.75;" x="727.967406" xlink:href="#m7033d11ffc" y="34.967487"/>
     <use style="fill:#1f77b4;stroke:#ffffff;stroke-width:0.75;" x="735.10267" xlink:href="#m7033d11ffc" y="34.967487"/>
    </g>
   </g>
   <g id="line2d_19">
    <path clip-path="url(#p0e4f424da5)" d="M 85.79358 47.896046 
L 92.928844 45.17954 
L 100.064109 43.67037 
L 107.199374 42.664256 
L 114.334638 40.702335 
L 121.469903 39.847138 
L 128.605168 39.746527 
L 135.740433 39.444693 
L 142.875697 39.444693 
L 150.010962 39.344081 
L 157.146227 39.344081 
L 164.281492 39.193164 
L 171.416756 39.042247 
L 178.552021 38.941636 
L 185.687286 38.941636 
L 192.822551 38.941636 
L 199.957815 38.941636 
L 207.09308 38.841025 
L 214.228345 38.841025 
L 221.36361 38.841025 
L 228.498874 38.841025 
L 235.634139 38.841025 
L 242.769404 38.841025 
L 249.904668 38.841025 
L 257.039933 38.790719 
L 264.175198 38.740413 
L 271.310463 38.690108 
L 278.445727 38.690108 
L 285.580992 38.639802 
L 292.716257 38.639802 
L 299.851522 38.639802 
L 306.986786 38.388273 
L 314.122051 38.388273 
L 321.257316 38.086439 
L 328.392581 38.086439 
L 335.527845 38.086439 
L 342.66311 38.036134 
L 349.798375 37.985828 
L 356.933639 37.985828 
L 364.068904 37.935522 
L 371.204169 37.935522 
L 378.339434 37.935522 
L 385.474698 37.935522 
L 392.609963 37.935522 
L 399.745228 37.935522 
L 406.880493 37.935522 
L 414.015757 37.935522 
L 421.151022 37.935522 
L 428.286287 37.935522 
L 435.421552 37.935522 
L 442.556816 37.935522 
L 449.692081 37.935522 
L 456.827346 37.885217 
L 463.962611 37.885217 
L 471.097875 37.885217 
L 478.23314 37.885217 
L 485.368405 37.885217 
L 492.503669 37.885217 
L 499.638934 37.885217 
L 506.774199 37.885217 
L 513.909464 37.7343 
L 521.044728 37.7343 
L 528.179993 37.7343 
L 535.315258 37.7343 
L 542.450523 37.7343 
L 549.585787 37.7343 
L 556.721052 37.7343 
L 563.856317 37.7343 
L 570.991582 37.7343 
L 578.126846 37.7343 
L 585.262111 37.7343 
L 592.397376 37.7343 
L 599.53264 37.7343 
L 606.667905 37.7343 
L 613.80317 37.7343 
L 620.938435 37.7343 
L 628.073699 37.7343 
L 635.208964 37.7343 
L 642.344229 37.7343 
L 649.479494 37.7343 
L 656.614758 37.7343 
L 663.750023 37.7343 
L 670.885288 37.7343 
L 678.020553 37.7343 
L 685.155817 37.683994 
L 692.291082 37.683994 
L 699.426347 37.683994 
L 706.561612 37.683994 
L 713.696876 37.683994 
L 720.832141 37.683994 
L 727.967406 37.683994 
L 735.10267 37.683994 
" style="fill:none;stroke:#d62728;stroke-linecap:square;stroke-width:1.5;"/>
    <defs>
     <path d="M 0 -3 
L -3 3 
L 3 3 
z
" id="m6f122d7159" style="stroke:#ffffff;stroke-linejoin:miter;stroke-width:0.75;"/>
    </defs>
    <g clip-path="url(#p0e4f424da5)">
     <use style="fill:#d62728;stroke:#ffffff;stroke-linejoin:miter;stroke-width:0.75;" x="85.79358" xlink:href="#m6f122d7159" y="47.896046"/>
     <use style="fill:#d62728;stroke:#ffffff;stroke-linejoin:miter;stroke-width:0.75;" x="92.928844" xlink:href="#m6f122d7159" y="45.17954"/>
     <use style="fill:#d62728;stroke:#ffffff;stroke-linejoin:miter;stroke-width:0.75;" x="100.064109" xlink:href="#m6f122d7159" y="43.67037"/>
     <use style="fill:#d62728;stroke:#ffffff;stroke-linejoin:miter;stroke-width:0.75;" x="107.199374" xlink:href="#m6f122d7159" y="42.664256"/>
     <use style="fill:#d62728;stroke:#ffffff;stroke-linejoin:miter;stroke-width:0.75;" x="114.334638" xlink:href="#m6f122d7159" y="40.702335"/>
     <use style="fill:#d62728;stroke:#ffffff;stroke-linejoin:miter;stroke-width:0.75;" x="121.469903" xlink:href="#m6f122d7159" y="39.847138"/>
     <use style="fill:#d62728;stroke:#ffffff;stroke-linejoin:miter;stroke-width:0.75;" x="128.605168" xlink:href="#m6f122d7159" y="39.746527"/>
     <use style="fill:#d62728;stroke:#ffffff;stroke-linejoin:miter;stroke-width:0.75;" x="135.740433" xlink:href="#m6f122d7159" y="39.444693"/>
     <use style="fill:#d62728;stroke:#ffffff;stroke-linejoin:miter;stroke-width:0.75;" x="142.875697" xlink:href="#m6f122d7159" y="39.444693"/>
     <use style="fill:#d62728;stroke:#ffffff;stroke-linejoin:miter;stroke-width:0.75;" x="150.010962" xlink:href="#m6f122d7159" y="39.344081"/>
     <use style="fill:#d62728;stroke:#ffffff;stroke-linejoin:miter;stroke-width:0.75;" x="157.146227" xlink:href="#m6f122d7159" y="39.344081"/>
     <use style="fill:#d62728;stroke:#ffffff;stroke-linejoin:miter;stroke-width:0.75;" x="164.281492" xlink:href="#m6f122d7159" y="39.193164"/>
     <use style="fill:#d62728;stroke:#ffffff;stroke-linejoin:miter;stroke-width:0.75;" x="171.416756" xlink:href="#m6f122d7159" y="39.042247"/>
     <use style="fill:#d62728;stroke:#ffffff;stroke-linejoin:miter;stroke-width:0.75;" x="178.552021" xlink:href="#m6f122d7159" y="38.941636"/>
     <use style="fill:#d62728;stroke:#ffffff;stroke-linejoin:miter;stroke-width:0.75;" x="185.687286" xlink:href="#m6f122d7159" y="38.941636"/>
     <use style="fill:#d62728;stroke:#ffffff;stroke-linejoin:miter;stroke-width:0.75;" x="192.822551" xlink:href="#m6f122d7159" y="38.941636"/>
     <use style="fill:#d62728;stroke:#ffffff;stroke-linejoin:miter;stroke-width:0.75;" x="199.957815" xlink:href="#m6f122d7159" y="38.941636"/>
     <use style="fill:#d62728;stroke:#ffffff;stroke-linejoin:miter;stroke-width:0.75;" x="207.09308" xlink:href="#m6f122d7159" y="38.841025"/>
     <use style="fill:#d62728;stroke:#ffffff;stroke-linejoin:miter;stroke-width:0.75;" x="214.228345" xlink:href="#m6f122d7159" y="38.841025"/>
     <use style="fill:#d62728;stroke:#ffffff;stroke-linejoin:miter;stroke-width:0.75;" x="221.36361" xlink:href="#m6f122d7159" y="38.841025"/>
     <use style="fill:#d62728;stroke:#ffffff;stroke-linejoin:miter;stroke-width:0.75;" x="228.498874" xlink:href="#m6f122d7159" y="38.841025"/>
     <use style="fill:#d62728;stroke:#ffffff;stroke-linejoin:miter;stroke-width:0.75;" x="235.634139" xlink:href="#m6f122d7159" y="38.841025"/>
     <use style="fill:#d62728;stroke:#ffffff;stroke-linejoin:miter;stroke-width:0.75;" x="242.769404" xlink:href="#m6f122d7159" y="38.841025"/>
     <use style="fill:#d62728;stroke:#ffffff;stroke-linejoin:miter;stroke-width:0.75;" x="249.904668" xlink:href="#m6f122d7159" y="38.841025"/>
     <use style="fill:#d62728;stroke:#ffffff;stroke-linejoin:miter;stroke-width:0.75;" x="257.039933" xlink:href="#m6f122d7159" y="38.790719"/>
     <use style="fill:#d62728;stroke:#ffffff;stroke-linejoin:miter;stroke-width:0.75;" x="264.175198" xlink:href="#m6f122d7159" y="38.740413"/>
     <use style="fill:#d62728;stroke:#ffffff;stroke-linejoin:miter;stroke-width:0.75;" x="271.310463" xlink:href="#m6f122d7159" y="38.690108"/>
     <use style="fill:#d62728;stroke:#ffffff;stroke-linejoin:miter;stroke-width:0.75;" x="278.445727" xlink:href="#m6f122d7159" y="38.690108"/>
     <use style="fill:#d62728;stroke:#ffffff;stroke-linejoin:miter;stroke-width:0.75;" x="285.580992" xlink:href="#m6f122d7159" y="38.639802"/>
     <use style="fill:#d62728;stroke:#ffffff;stroke-linejoin:miter;stroke-width:0.75;" x="292.716257" xlink:href="#m6f122d7159" y="38.639802"/>
     <use style="fill:#d62728;stroke:#ffffff;stroke-linejoin:miter;stroke-width:0.75;" x="299.851522" xlink:href="#m6f122d7159" y="38.639802"/>
     <use style="fill:#d62728;stroke:#ffffff;stroke-linejoin:miter;stroke-width:0.75;" x="306.986786" xlink:href="#m6f122d7159" y="38.388273"/>
     <use style="fill:#d62728;stroke:#ffffff;stroke-linejoin:miter;stroke-width:0.75;" x="314.122051" xlink:href="#m6f122d7159" y="38.388273"/>
     <use style="fill:#d62728;stroke:#ffffff;stroke-linejoin:miter;stroke-width:0.75;" x="321.257316" xlink:href="#m6f122d7159" y="38.086439"/>
     <use style="fill:#d62728;stroke:#ffffff;stroke-linejoin:miter;stroke-width:0.75;" x="328.392581" xlink:href="#m6f122d7159" y="38.086439"/>
     <use style="fill:#d62728;stroke:#ffffff;stroke-linejoin:miter;stroke-width:0.75;" x="335.527845" xlink:href="#m6f122d7159" y="38.086439"/>
     <use style="fill:#d62728;stroke:#ffffff;stroke-linejoin:miter;stroke-width:0.75;" x="342.66311" xlink:href="#m6f122d7159" y="38.036134"/>
     <use style="fill:#d62728;stroke:#ffffff;stroke-linejoin:miter;stroke-width:0.75;" x="349.798375" xlink:href="#m6f122d7159" y="37.985828"/>
     <use style="fill:#d62728;stroke:#ffffff;stroke-linejoin:miter;stroke-width:0.75;" x="356.933639" xlink:href="#m6f122d7159" y="37.985828"/>
     <use style="fill:#d62728;stroke:#ffffff;stroke-linejoin:miter;stroke-width:0.75;" x="364.068904" xlink:href="#m6f122d7159" y="37.935522"/>
     <use style="fill:#d62728;stroke:#ffffff;stroke-linejoin:miter;stroke-width:0.75;" x="371.204169" xlink:href="#m6f122d7159" y="37.935522"/>
     <use style="fill:#d62728;stroke:#ffffff;stroke-linejoin:miter;stroke-width:0.75;" x="378.339434" xlink:href="#m6f122d7159" y="37.935522"/>
     <use style="fill:#d62728;stroke:#ffffff;stroke-linejoin:miter;stroke-width:0.75;" x="385.474698" xlink:href="#m6f122d7159" y="37.935522"/>
     <use style="fill:#d62728;stroke:#ffffff;stroke-linejoin:miter;stroke-width:0.75;" x="392.609963" xlink:href="#m6f122d7159" y="37.935522"/>
     <use style="fill:#d62728;stroke:#ffffff;stroke-linejoin:miter;stroke-width:0.75;" x="399.745228" xlink:href="#m6f122d7159" y="37.935522"/>
     <use style="fill:#d62728;stroke:#ffffff;stroke-linejoin:miter;stroke-width:0.75;" x="406.880493" xlink:href="#m6f122d7159" y="37.935522"/>
     <use style="fill:#d62728;stroke:#ffffff;stroke-linejoin:miter;stroke-width:0.75;" x="414.015757" xlink:href="#m6f122d7159" y="37.935522"/>
     <use style="fill:#d62728;stroke:#ffffff;stroke-linejoin:miter;stroke-width:0.75;" x="421.151022" xlink:href="#m6f122d7159" y="37.935522"/>
     <use style="fill:#d62728;stroke:#ffffff;stroke-linejoin:miter;stroke-width:0.75;" x="428.286287" xlink:href="#m6f122d7159" y="37.935522"/>
     <use style="fill:#d62728;stroke:#ffffff;stroke-linejoin:miter;stroke-width:0.75;" x="435.421552" xlink:href="#m6f122d7159" y="37.935522"/>
     <use style="fill:#d62728;stroke:#ffffff;stroke-linejoin:miter;stroke-width:0.75;" x="442.556816" xlink:href="#m6f122d7159" y="37.935522"/>
     <use style="fill:#d62728;stroke:#ffffff;stroke-linejoin:miter;stroke-width:0.75;" x="449.692081" xlink:href="#m6f122d7159" y="37.935522"/>
     <use style="fill:#d62728;stroke:#ffffff;stroke-linejoin:miter;stroke-width:0.75;" x="456.827346" xlink:href="#m6f122d7159" y="37.885217"/>
     <use style="fill:#d62728;stroke:#ffffff;stroke-linejoin:miter;stroke-width:0.75;" x="463.962611" xlink:href="#m6f122d7159" y="37.885217"/>
     <use style="fill:#d62728;stroke:#ffffff;stroke-linejoin:miter;stroke-width:0.75;" x="471.097875" xlink:href="#m6f122d7159" y="37.885217"/>
     <use style="fill:#d62728;stroke:#ffffff;stroke-linejoin:miter;stroke-width:0.75;" x="478.23314" xlink:href="#m6f122d7159" y="37.885217"/>
     <use style="fill:#d62728;stroke:#ffffff;stroke-linejoin:miter;stroke-width:0.75;" x="485.368405" xlink:href="#m6f122d7159" y="37.885217"/>
     <use style="fill:#d62728;stroke:#ffffff;stroke-linejoin:miter;stroke-width:0.75;" x="492.503669" xlink:href="#m6f122d7159" y="37.885217"/>
     <use style="fill:#d62728;stroke:#ffffff;stroke-linejoin:miter;stroke-width:0.75;" x="499.638934" xlink:href="#m6f122d7159" y="37.885217"/>
     <use style="fill:#d62728;stroke:#ffffff;stroke-linejoin:miter;stroke-width:0.75;" x="506.774199" xlink:href="#m6f122d7159" y="37.885217"/>
     <use style="fill:#d62728;stroke:#ffffff;stroke-linejoin:miter;stroke-width:0.75;" x="513.909464" xlink:href="#m6f122d7159" y="37.7343"/>
     <use style="fill:#d62728;stroke:#ffffff;stroke-linejoin:miter;stroke-width:0.75;" x="521.044728" xlink:href="#m6f122d7159" y="37.7343"/>
     <use style="fill:#d62728;stroke:#ffffff;stroke-linejoin:miter;stroke-width:0.75;" x="528.179993" xlink:href="#m6f122d7159" y="37.7343"/>
     <use style="fill:#d62728;stroke:#ffffff;stroke-linejoin:miter;stroke-width:0.75;" x="535.315258" xlink:href="#m6f122d7159" y="37.7343"/>
     <use style="fill:#d62728;stroke:#ffffff;stroke-linejoin:miter;stroke-width:0.75;" x="542.450523" xlink:href="#m6f122d7159" y="37.7343"/>
     <use style="fill:#d62728;stroke:#ffffff;stroke-linejoin:miter;stroke-width:0.75;" x="549.585787" xlink:href="#m6f122d7159" y="37.7343"/>
     <use style="fill:#d62728;stroke:#ffffff;stroke-linejoin:miter;stroke-width:0.75;" x="556.721052" xlink:href="#m6f122d7159" y="37.7343"/>
     <use style="fill:#d62728;stroke:#ffffff;stroke-linejoin:miter;stroke-width:0.75;" x="563.856317" xlink:href="#m6f122d7159" y="37.7343"/>
     <use style="fill:#d62728;stroke:#ffffff;stroke-linejoin:miter;stroke-width:0.75;" x="570.991582" xlink:href="#m6f122d7159" y="37.7343"/>
     <use style="fill:#d62728;stroke:#ffffff;stroke-linejoin:miter;stroke-width:0.75;" x="578.126846" xlink:href="#m6f122d7159" y="37.7343"/>
     <use style="fill:#d62728;stroke:#ffffff;stroke-linejoin:miter;stroke-width:0.75;" x="585.262111" xlink:href="#m6f122d7159" y="37.7343"/>
     <use style="fill:#d62728;stroke:#ffffff;stroke-linejoin:miter;stroke-width:0.75;" x="592.397376" xlink:href="#m6f122d7159" y="37.7343"/>
     <use style="fill:#d62728;stroke:#ffffff;stroke-linejoin:miter;stroke-width:0.75;" x="599.53264" xlink:href="#m6f122d7159" y="37.7343"/>
     <use style="fill:#d62728;stroke:#ffffff;stroke-linejoin:miter;stroke-width:0.75;" x="606.667905" xlink:href="#m6f122d7159" y="37.7343"/>
     <use style="fill:#d62728;stroke:#ffffff;stroke-linejoin:miter;stroke-width:0.75;" x="613.80317" xlink:href="#m6f122d7159" y="37.7343"/>
     <use style="fill:#d62728;stroke:#ffffff;stroke-linejoin:miter;stroke-width:0.75;" x="620.938435" xlink:href="#m6f122d7159" y="37.7343"/>
     <use style="fill:#d62728;stroke:#ffffff;stroke-linejoin:miter;stroke-width:0.75;" x="628.073699" xlink:href="#m6f122d7159" y="37.7343"/>
     <use style="fill:#d62728;stroke:#ffffff;stroke-linejoin:miter;stroke-width:0.75;" x="635.208964" xlink:href="#m6f122d7159" y="37.7343"/>
     <use style="fill:#d62728;stroke:#ffffff;stroke-linejoin:miter;stroke-width:0.75;" x="642.344229" xlink:href="#m6f122d7159" y="37.7343"/>
     <use style="fill:#d62728;stroke:#ffffff;stroke-linejoin:miter;stroke-width:0.75;" x="649.479494" xlink:href="#m6f122d7159" y="37.7343"/>
     <use style="fill:#d62728;stroke:#ffffff;stroke-linejoin:miter;stroke-width:0.75;" x="656.614758" xlink:href="#m6f122d7159" y="37.7343"/>
     <use style="fill:#d62728;stroke:#ffffff;stroke-linejoin:miter;stroke-width:0.75;" x="663.750023" xlink:href="#m6f122d7159" y="37.7343"/>
     <use style="fill:#d62728;stroke:#ffffff;stroke-linejoin:miter;stroke-width:0.75;" x="670.885288" xlink:href="#m6f122d7159" y="37.7343"/>
     <use style="fill:#d62728;stroke:#ffffff;stroke-linejoin:miter;stroke-width:0.75;" x="678.020553" xlink:href="#m6f122d7159" y="37.7343"/>
     <use style="fill:#d62728;stroke:#ffffff;stroke-linejoin:miter;stroke-width:0.75;" x="685.155817" xlink:href="#m6f122d7159" y="37.683994"/>
     <use style="fill:#d62728;stroke:#ffffff;stroke-linejoin:miter;stroke-width:0.75;" x="692.291082" xlink:href="#m6f122d7159" y="37.683994"/>
     <use style="fill:#d62728;stroke:#ffffff;stroke-linejoin:miter;stroke-width:0.75;" x="699.426347" xlink:href="#m6f122d7159" y="37.683994"/>
     <use style="fill:#d62728;stroke:#ffffff;stroke-linejoin:miter;stroke-width:0.75;" x="706.561612" xlink:href="#m6f122d7159" y="37.683994"/>
     <use style="fill:#d62728;stroke:#ffffff;stroke-linejoin:miter;stroke-width:0.75;" x="713.696876" xlink:href="#m6f122d7159" y="37.683994"/>
     <use style="fill:#d62728;stroke:#ffffff;stroke-linejoin:miter;stroke-width:0.75;" x="720.832141" xlink:href="#m6f122d7159" y="37.683994"/>
     <use style="fill:#d62728;stroke:#ffffff;stroke-linejoin:miter;stroke-width:0.75;" x="727.967406" xlink:href="#m6f122d7159" y="37.683994"/>
     <use style="fill:#d62728;stroke:#ffffff;stroke-linejoin:miter;stroke-width:0.75;" x="735.10267" xlink:href="#m6f122d7159" y="37.683994"/>
    </g>
   </g>
   <g id="line2d_20">
    <path clip-path="url(#p0e4f424da5)" d="M 85.79358 49.908273 
L 92.928844 44.8274 
L 100.064109 42.312116 
L 107.199374 41.356308 
L 114.334638 39.645915 
L 121.469903 39.494998 
L 128.605168 39.444693 
L 135.740433 39.394387 
L 142.875697 39.142859 
L 150.010962 38.991942 
L 157.146227 38.941636 
L 164.281492 38.941636 
L 171.416756 38.941636 
L 178.552021 38.841025 
L 185.687286 38.841025 
L 192.822551 38.790719 
L 199.957815 38.740413 
L 207.09308 38.740413 
L 214.228345 38.740413 
L 221.36361 38.740413 
L 228.498874 38.740413 
L 235.634139 38.740413 
L 242.769404 38.690108 
L 249.904668 38.690108 
L 257.039933 38.589496 
L 264.175198 38.488885 
L 271.310463 38.438579 
L 278.445727 38.438579 
L 285.580992 38.438579 
L 292.716257 38.438579 
L 299.851522 38.388273 
L 306.986786 38.388273 
L 314.122051 38.388273 
L 321.257316 38.388273 
L 328.392581 38.337968 
L 335.527845 38.337968 
L 342.66311 38.337968 
L 349.798375 38.237356 
L 356.933639 38.237356 
L 364.068904 38.136745 
L 371.204169 38.136745 
L 378.339434 38.136745 
L 385.474698 38.136745 
L 392.609963 38.136745 
L 399.745228 38.136745 
L 406.880493 38.136745 
L 414.015757 38.086439 
L 421.151022 38.036134 
L 428.286287 37.985828 
L 435.421552 37.985828 
L 442.556816 37.985828 
L 449.692081 37.985828 
L 456.827346 37.985828 
L 463.962611 37.985828 
L 471.097875 37.985828 
L 478.23314 37.985828 
L 485.368405 37.985828 
L 492.503669 37.985828 
L 499.638934 37.985828 
L 506.774199 37.985828 
L 513.909464 37.985828 
L 521.044728 37.985828 
L 528.179993 37.985828 
L 535.315258 37.985828 
L 542.450523 37.985828 
L 549.585787 37.985828 
L 556.721052 37.985828 
L 563.856317 37.985828 
L 570.991582 37.985828 
L 578.126846 37.985828 
L 585.262111 37.985828 
L 592.397376 37.985828 
L 599.53264 37.985828 
L 606.667905 37.985828 
L 613.80317 37.985828 
L 620.938435 37.985828 
L 628.073699 37.985828 
L 635.208964 37.985828 
L 642.344229 37.985828 
L 649.479494 37.985828 
L 656.614758 37.985828 
L 663.750023 37.985828 
L 670.885288 37.935522 
L 678.020553 37.935522 
L 685.155817 37.935522 
L 692.291082 37.935522 
L 699.426347 37.885217 
L 706.561612 37.885217 
L 713.696876 37.885217 
L 720.832141 37.885217 
L 727.967406 37.885217 
L 735.10267 37.885217 
" style="fill:none;stroke:#98df8a;stroke-linecap:square;stroke-width:1.5;"/>
    <defs>
     <path d="M -0 3 
L 3 -3 
L -3 -3 
z
" id="m41d344bc14" style="stroke:#ffffff;stroke-linejoin:miter;stroke-width:0.75;"/>
    </defs>
    <g clip-path="url(#p0e4f424da5)">
     <use style="fill:#98df8a;stroke:#ffffff;stroke-linejoin:miter;stroke-width:0.75;" x="85.79358" xlink:href="#m41d344bc14" y="49.908273"/>
     <use style="fill:#98df8a;stroke:#ffffff;stroke-linejoin:miter;stroke-width:0.75;" x="92.928844" xlink:href="#m41d344bc14" y="44.8274"/>
     <use style="fill:#98df8a;stroke:#ffffff;stroke-linejoin:miter;stroke-width:0.75;" x="100.064109" xlink:href="#m41d344bc14" y="42.312116"/>
     <use style="fill:#98df8a;stroke:#ffffff;stroke-linejoin:miter;stroke-width:0.75;" x="107.199374" xlink:href="#m41d344bc14" y="41.356308"/>
     <use style="fill:#98df8a;stroke:#ffffff;stroke-linejoin:miter;stroke-width:0.75;" x="114.334638" xlink:href="#m41d344bc14" y="39.645915"/>
     <use style="fill:#98df8a;stroke:#ffffff;stroke-linejoin:miter;stroke-width:0.75;" x="121.469903" xlink:href="#m41d344bc14" y="39.494998"/>
     <use style="fill:#98df8a;stroke:#ffffff;stroke-linejoin:miter;stroke-width:0.75;" x="128.605168" xlink:href="#m41d344bc14" y="39.444693"/>
     <use style="fill:#98df8a;stroke:#ffffff;stroke-linejoin:miter;stroke-width:0.75;" x="135.740433" xlink:href="#m41d344bc14" y="39.394387"/>
     <use style="fill:#98df8a;stroke:#ffffff;stroke-linejoin:miter;stroke-width:0.75;" x="142.875697" xlink:href="#m41d344bc14" y="39.142859"/>
     <use style="fill:#98df8a;stroke:#ffffff;stroke-linejoin:miter;stroke-width:0.75;" x="150.010962" xlink:href="#m41d344bc14" y="38.991942"/>
     <use style="fill:#98df8a;stroke:#ffffff;stroke-linejoin:miter;stroke-width:0.75;" x="157.146227" xlink:href="#m41d344bc14" y="38.941636"/>
     <use style="fill:#98df8a;stroke:#ffffff;stroke-linejoin:miter;stroke-width:0.75;" x="164.281492" xlink:href="#m41d344bc14" y="38.941636"/>
     <use style="fill:#98df8a;stroke:#ffffff;stroke-linejoin:miter;stroke-width:0.75;" x="171.416756" xlink:href="#m41d344bc14" y="38.941636"/>
     <use style="fill:#98df8a;stroke:#ffffff;stroke-linejoin:miter;stroke-width:0.75;" x="178.552021" xlink:href="#m41d344bc14" y="38.841025"/>
     <use style="fill:#98df8a;stroke:#ffffff;stroke-linejoin:miter;stroke-width:0.75;" x="185.687286" xlink:href="#m41d344bc14" y="38.841025"/>
     <use style="fill:#98df8a;stroke:#ffffff;stroke-linejoin:miter;stroke-width:0.75;" x="192.822551" xlink:href="#m41d344bc14" y="38.790719"/>
     <use style="fill:#98df8a;stroke:#ffffff;stroke-linejoin:miter;stroke-width:0.75;" x="199.957815" xlink:href="#m41d344bc14" y="38.740413"/>
     <use style="fill:#98df8a;stroke:#ffffff;stroke-linejoin:miter;stroke-width:0.75;" x="207.09308" xlink:href="#m41d344bc14" y="38.740413"/>
     <use style="fill:#98df8a;stroke:#ffffff;stroke-linejoin:miter;stroke-width:0.75;" x="214.228345" xlink:href="#m41d344bc14" y="38.740413"/>
     <use style="fill:#98df8a;stroke:#ffffff;stroke-linejoin:miter;stroke-width:0.75;" x="221.36361" xlink:href="#m41d344bc14" y="38.740413"/>
     <use style="fill:#98df8a;stroke:#ffffff;stroke-linejoin:miter;stroke-width:0.75;" x="228.498874" xlink:href="#m41d344bc14" y="38.740413"/>
     <use style="fill:#98df8a;stroke:#ffffff;stroke-linejoin:miter;stroke-width:0.75;" x="235.634139" xlink:href="#m41d344bc14" y="38.740413"/>
     <use style="fill:#98df8a;stroke:#ffffff;stroke-linejoin:miter;stroke-width:0.75;" x="242.769404" xlink:href="#m41d344bc14" y="38.690108"/>
     <use style="fill:#98df8a;stroke:#ffffff;stroke-linejoin:miter;stroke-width:0.75;" x="249.904668" xlink:href="#m41d344bc14" y="38.690108"/>
     <use style="fill:#98df8a;stroke:#ffffff;stroke-linejoin:miter;stroke-width:0.75;" x="257.039933" xlink:href="#m41d344bc14" y="38.589496"/>
     <use style="fill:#98df8a;stroke:#ffffff;stroke-linejoin:miter;stroke-width:0.75;" x="264.175198" xlink:href="#m41d344bc14" y="38.488885"/>
     <use style="fill:#98df8a;stroke:#ffffff;stroke-linejoin:miter;stroke-width:0.75;" x="271.310463" xlink:href="#m41d344bc14" y="38.438579"/>
     <use style="fill:#98df8a;stroke:#ffffff;stroke-linejoin:miter;stroke-width:0.75;" x="278.445727" xlink:href="#m41d344bc14" y="38.438579"/>
     <use style="fill:#98df8a;stroke:#ffffff;stroke-linejoin:miter;stroke-width:0.75;" x="285.580992" xlink:href="#m41d344bc14" y="38.438579"/>
     <use style="fill:#98df8a;stroke:#ffffff;stroke-linejoin:miter;stroke-width:0.75;" x="292.716257" xlink:href="#m41d344bc14" y="38.438579"/>
     <use style="fill:#98df8a;stroke:#ffffff;stroke-linejoin:miter;stroke-width:0.75;" x="299.851522" xlink:href="#m41d344bc14" y="38.388273"/>
     <use style="fill:#98df8a;stroke:#ffffff;stroke-linejoin:miter;stroke-width:0.75;" x="306.986786" xlink:href="#m41d344bc14" y="38.388273"/>
     <use style="fill:#98df8a;stroke:#ffffff;stroke-linejoin:miter;stroke-width:0.75;" x="314.122051" xlink:href="#m41d344bc14" y="38.388273"/>
     <use style="fill:#98df8a;stroke:#ffffff;stroke-linejoin:miter;stroke-width:0.75;" x="321.257316" xlink:href="#m41d344bc14" y="38.388273"/>
     <use style="fill:#98df8a;stroke:#ffffff;stroke-linejoin:miter;stroke-width:0.75;" x="328.392581" xlink:href="#m41d344bc14" y="38.337968"/>
     <use style="fill:#98df8a;stroke:#ffffff;stroke-linejoin:miter;stroke-width:0.75;" x="335.527845" xlink:href="#m41d344bc14" y="38.337968"/>
     <use style="fill:#98df8a;stroke:#ffffff;stroke-linejoin:miter;stroke-width:0.75;" x="342.66311" xlink:href="#m41d344bc14" y="38.337968"/>
     <use style="fill:#98df8a;stroke:#ffffff;stroke-linejoin:miter;stroke-width:0.75;" x="349.798375" xlink:href="#m41d344bc14" y="38.237356"/>
     <use style="fill:#98df8a;stroke:#ffffff;stroke-linejoin:miter;stroke-width:0.75;" x="356.933639" xlink:href="#m41d344bc14" y="38.237356"/>
     <use style="fill:#98df8a;stroke:#ffffff;stroke-linejoin:miter;stroke-width:0.75;" x="364.068904" xlink:href="#m41d344bc14" y="38.136745"/>
     <use style="fill:#98df8a;stroke:#ffffff;stroke-linejoin:miter;stroke-width:0.75;" x="371.204169" xlink:href="#m41d344bc14" y="38.136745"/>
     <use style="fill:#98df8a;stroke:#ffffff;stroke-linejoin:miter;stroke-width:0.75;" x="378.339434" xlink:href="#m41d344bc14" y="38.136745"/>
     <use style="fill:#98df8a;stroke:#ffffff;stroke-linejoin:miter;stroke-width:0.75;" x="385.474698" xlink:href="#m41d344bc14" y="38.136745"/>
     <use style="fill:#98df8a;stroke:#ffffff;stroke-linejoin:miter;stroke-width:0.75;" x="392.609963" xlink:href="#m41d344bc14" y="38.136745"/>
     <use style="fill:#98df8a;stroke:#ffffff;stroke-linejoin:miter;stroke-width:0.75;" x="399.745228" xlink:href="#m41d344bc14" y="38.136745"/>
     <use style="fill:#98df8a;stroke:#ffffff;stroke-linejoin:miter;stroke-width:0.75;" x="406.880493" xlink:href="#m41d344bc14" y="38.136745"/>
     <use style="fill:#98df8a;stroke:#ffffff;stroke-linejoin:miter;stroke-width:0.75;" x="414.015757" xlink:href="#m41d344bc14" y="38.086439"/>
     <use style="fill:#98df8a;stroke:#ffffff;stroke-linejoin:miter;stroke-width:0.75;" x="421.151022" xlink:href="#m41d344bc14" y="38.036134"/>
     <use style="fill:#98df8a;stroke:#ffffff;stroke-linejoin:miter;stroke-width:0.75;" x="428.286287" xlink:href="#m41d344bc14" y="37.985828"/>
     <use style="fill:#98df8a;stroke:#ffffff;stroke-linejoin:miter;stroke-width:0.75;" x="435.421552" xlink:href="#m41d344bc14" y="37.985828"/>
     <use style="fill:#98df8a;stroke:#ffffff;stroke-linejoin:miter;stroke-width:0.75;" x="442.556816" xlink:href="#m41d344bc14" y="37.985828"/>
     <use style="fill:#98df8a;stroke:#ffffff;stroke-linejoin:miter;stroke-width:0.75;" x="449.692081" xlink:href="#m41d344bc14" y="37.985828"/>
     <use style="fill:#98df8a;stroke:#ffffff;stroke-linejoin:miter;stroke-width:0.75;" x="456.827346" xlink:href="#m41d344bc14" y="37.985828"/>
     <use style="fill:#98df8a;stroke:#ffffff;stroke-linejoin:miter;stroke-width:0.75;" x="463.962611" xlink:href="#m41d344bc14" y="37.985828"/>
     <use style="fill:#98df8a;stroke:#ffffff;stroke-linejoin:miter;stroke-width:0.75;" x="471.097875" xlink:href="#m41d344bc14" y="37.985828"/>
     <use style="fill:#98df8a;stroke:#ffffff;stroke-linejoin:miter;stroke-width:0.75;" x="478.23314" xlink:href="#m41d344bc14" y="37.985828"/>
     <use style="fill:#98df8a;stroke:#ffffff;stroke-linejoin:miter;stroke-width:0.75;" x="485.368405" xlink:href="#m41d344bc14" y="37.985828"/>
     <use style="fill:#98df8a;stroke:#ffffff;stroke-linejoin:miter;stroke-width:0.75;" x="492.503669" xlink:href="#m41d344bc14" y="37.985828"/>
     <use style="fill:#98df8a;stroke:#ffffff;stroke-linejoin:miter;stroke-width:0.75;" x="499.638934" xlink:href="#m41d344bc14" y="37.985828"/>
     <use style="fill:#98df8a;stroke:#ffffff;stroke-linejoin:miter;stroke-width:0.75;" x="506.774199" xlink:href="#m41d344bc14" y="37.985828"/>
     <use style="fill:#98df8a;stroke:#ffffff;stroke-linejoin:miter;stroke-width:0.75;" x="513.909464" xlink:href="#m41d344bc14" y="37.985828"/>
     <use style="fill:#98df8a;stroke:#ffffff;stroke-linejoin:miter;stroke-width:0.75;" x="521.044728" xlink:href="#m41d344bc14" y="37.985828"/>
     <use style="fill:#98df8a;stroke:#ffffff;stroke-linejoin:miter;stroke-width:0.75;" x="528.179993" xlink:href="#m41d344bc14" y="37.985828"/>
     <use style="fill:#98df8a;stroke:#ffffff;stroke-linejoin:miter;stroke-width:0.75;" x="535.315258" xlink:href="#m41d344bc14" y="37.985828"/>
     <use style="fill:#98df8a;stroke:#ffffff;stroke-linejoin:miter;stroke-width:0.75;" x="542.450523" xlink:href="#m41d344bc14" y="37.985828"/>
     <use style="fill:#98df8a;stroke:#ffffff;stroke-linejoin:miter;stroke-width:0.75;" x="549.585787" xlink:href="#m41d344bc14" y="37.985828"/>
     <use style="fill:#98df8a;stroke:#ffffff;stroke-linejoin:miter;stroke-width:0.75;" x="556.721052" xlink:href="#m41d344bc14" y="37.985828"/>
     <use style="fill:#98df8a;stroke:#ffffff;stroke-linejoin:miter;stroke-width:0.75;" x="563.856317" xlink:href="#m41d344bc14" y="37.985828"/>
     <use style="fill:#98df8a;stroke:#ffffff;stroke-linejoin:miter;stroke-width:0.75;" x="570.991582" xlink:href="#m41d344bc14" y="37.985828"/>
     <use style="fill:#98df8a;stroke:#ffffff;stroke-linejoin:miter;stroke-width:0.75;" x="578.126846" xlink:href="#m41d344bc14" y="37.985828"/>
     <use style="fill:#98df8a;stroke:#ffffff;stroke-linejoin:miter;stroke-width:0.75;" x="585.262111" xlink:href="#m41d344bc14" y="37.985828"/>
     <use style="fill:#98df8a;stroke:#ffffff;stroke-linejoin:miter;stroke-width:0.75;" x="592.397376" xlink:href="#m41d344bc14" y="37.985828"/>
     <use style="fill:#98df8a;stroke:#ffffff;stroke-linejoin:miter;stroke-width:0.75;" x="599.53264" xlink:href="#m41d344bc14" y="37.985828"/>
     <use style="fill:#98df8a;stroke:#ffffff;stroke-linejoin:miter;stroke-width:0.75;" x="606.667905" xlink:href="#m41d344bc14" y="37.985828"/>
     <use style="fill:#98df8a;stroke:#ffffff;stroke-linejoin:miter;stroke-width:0.75;" x="613.80317" xlink:href="#m41d344bc14" y="37.985828"/>
     <use style="fill:#98df8a;stroke:#ffffff;stroke-linejoin:miter;stroke-width:0.75;" x="620.938435" xlink:href="#m41d344bc14" y="37.985828"/>
     <use style="fill:#98df8a;stroke:#ffffff;stroke-linejoin:miter;stroke-width:0.75;" x="628.073699" xlink:href="#m41d344bc14" y="37.985828"/>
     <use style="fill:#98df8a;stroke:#ffffff;stroke-linejoin:miter;stroke-width:0.75;" x="635.208964" xlink:href="#m41d344bc14" y="37.985828"/>
     <use style="fill:#98df8a;stroke:#ffffff;stroke-linejoin:miter;stroke-width:0.75;" x="642.344229" xlink:href="#m41d344bc14" y="37.985828"/>
     <use style="fill:#98df8a;stroke:#ffffff;stroke-linejoin:miter;stroke-width:0.75;" x="649.479494" xlink:href="#m41d344bc14" y="37.985828"/>
     <use style="fill:#98df8a;stroke:#ffffff;stroke-linejoin:miter;stroke-width:0.75;" x="656.614758" xlink:href="#m41d344bc14" y="37.985828"/>
     <use style="fill:#98df8a;stroke:#ffffff;stroke-linejoin:miter;stroke-width:0.75;" x="663.750023" xlink:href="#m41d344bc14" y="37.985828"/>
     <use style="fill:#98df8a;stroke:#ffffff;stroke-linejoin:miter;stroke-width:0.75;" x="670.885288" xlink:href="#m41d344bc14" y="37.935522"/>
     <use style="fill:#98df8a;stroke:#ffffff;stroke-linejoin:miter;stroke-width:0.75;" x="678.020553" xlink:href="#m41d344bc14" y="37.935522"/>
     <use style="fill:#98df8a;stroke:#ffffff;stroke-linejoin:miter;stroke-width:0.75;" x="685.155817" xlink:href="#m41d344bc14" y="37.935522"/>
     <use style="fill:#98df8a;stroke:#ffffff;stroke-linejoin:miter;stroke-width:0.75;" x="692.291082" xlink:href="#m41d344bc14" y="37.935522"/>
     <use style="fill:#98df8a;stroke:#ffffff;stroke-linejoin:miter;stroke-width:0.75;" x="699.426347" xlink:href="#m41d344bc14" y="37.885217"/>
     <use style="fill:#98df8a;stroke:#ffffff;stroke-linejoin:miter;stroke-width:0.75;" x="706.561612" xlink:href="#m41d344bc14" y="37.885217"/>
     <use style="fill:#98df8a;stroke:#ffffff;stroke-linejoin:miter;stroke-width:0.75;" x="713.696876" xlink:href="#m41d344bc14" y="37.885217"/>
     <use style="fill:#98df8a;stroke:#ffffff;stroke-linejoin:miter;stroke-width:0.75;" x="720.832141" xlink:href="#m41d344bc14" y="37.885217"/>
     <use style="fill:#98df8a;stroke:#ffffff;stroke-linejoin:miter;stroke-width:0.75;" x="727.967406" xlink:href="#m41d344bc14" y="37.885217"/>
     <use style="fill:#98df8a;stroke:#ffffff;stroke-linejoin:miter;stroke-width:0.75;" x="735.10267" xlink:href="#m41d344bc14" y="37.885217"/>
    </g>
   </g>
   <g id="line2d_21"/>
   <g id="line2d_22"/>
   <g id="line2d_23"/>
   <g id="line2d_24">
    <path clip-path="url(#p0e4f424da5)" d="M 735.10267 288.430125 
L 735.10267 22.318125 
" style="fill:none;stroke:#ff0000;stroke-linecap:square;stroke-width:1.5;"/>
   </g>
   <g id="patch_3">
    <path d="M 53.328125 240.114038 
L 53.328125 38.89133 
" style="fill:none;stroke:#000000;stroke-linecap:square;stroke-linejoin:miter;stroke-width:0.8;"/>
   </g>
   <g id="patch_4">
    <path d="M 85.79358 288.430125 
L 687.534239 288.430125 
" style="fill:none;stroke:#000000;stroke-linecap:square;stroke-linejoin:miter;stroke-width:0.8;"/>
   </g>
   <g id="text_20">
    <!-- re2-2014-12-09 (23h, 20 trials/fuzzer) -->
    <g transform="translate(296.84375 16.318125)scale(0.12 -0.12)">
     <defs>
      <path d="M 313 2009 
L 1997 2009 
L 1997 1497 
L 313 1497 
L 313 2009 
z
" id="DejaVuSans-2d" transform="scale(0.015625)"/>
      <path d="M 750 794 
L 1409 794 
L 1409 256 
L 897 -744 
L 494 -744 
L 750 256 
L 750 794 
z
" id="DejaVuSans-2c" transform="scale(0.015625)"/>
      <path d="M 603 4863 
L 1178 4863 
L 1178 0 
L 603 0 
L 603 4863 
z
" id="DejaVuSans-6c" transform="scale(0.015625)"/>
      <path d="M 2834 3397 
L 2834 2853 
Q 2591 2978 2328 3040 
Q 2066 3103 1784 3103 
Q 1356 3103 1142 2972 
Q 928 2841 928 2578 
Q 928 2378 1081 2264 
Q 1234 2150 1697 2047 
L 1894 2003 
Q 2506 1872 2764 1633 
Q 3022 1394 3022 966 
Q 3022 478 2636 193 
Q 2250 -91 1575 -91 
Q 1294 -91 989 -36 
Q 684 19 347 128 
L 347 722 
Q 666 556 975 473 
Q 1284 391 1588 391 
Q 1994 391 2212 530 
Q 2431 669 2431 922 
Q 2431 1156 2273 1281 
Q 2116 1406 1581 1522 
L 1381 1569 
Q 847 1681 609 1914 
Q 372 2147 372 2553 
Q 372 3047 722 3315 
Q 1072 3584 1716 3584 
Q 2034 3584 2315 3537 
Q 2597 3491 2834 3397 
z
" id="DejaVuSans-73" transform="scale(0.015625)"/>
      <path d="M 1625 4666 
L 2156 4666 
L 531 -594 
L 0 -594 
L 1625 4666 
z
" id="DejaVuSans-2f" transform="scale(0.015625)"/>
      <path d="M 2375 4863 
L 2375 4384 
L 1825 4384 
Q 1516 4384 1395 4259 
Q 1275 4134 1275 3809 
L 1275 3500 
L 2222 3500 
L 2222 3053 
L 1275 3053 
L 1275 0 
L 697 0 
L 697 3053 
L 147 3053 
L 147 3500 
L 697 3500 
L 697 3744 
Q 697 4328 969 4595 
Q 1241 4863 1831 4863 
L 2375 4863 
z
" id="DejaVuSans-66" transform="scale(0.015625)"/>
      <path d="M 353 3500 
L 3084 3500 
L 3084 2975 
L 922 459 
L 3084 459 
L 3084 0 
L 275 0 
L 275 525 
L 2438 3041 
L 353 3041 
L 353 3500 
z
" id="DejaVuSans-7a" transform="scale(0.015625)"/>
     </defs>
     <use xlink:href="#DejaVuSans-72"/>
     <use x="38.863281" xlink:href="#DejaVuSans-65"/>
     <use x="100.386719" xlink:href="#DejaVuSans-32"/>
     <use x="164.009766" xlink:href="#DejaVuSans-2d"/>
     <use x="200.09375" xlink:href="#DejaVuSans-32"/>
     <use x="263.716797" xlink:href="#DejaVuSans-30"/>
     <use x="327.339844" xlink:href="#DejaVuSans-31"/>
     <use x="390.962891" xlink:href="#DejaVuSans-34"/>
     <use x="454.585938" xlink:href="#DejaVuSans-2d"/>
     <use x="490.669922" xlink:href="#DejaVuSans-31"/>
     <use x="554.292969" xlink:href="#DejaVuSans-32"/>
     <use x="617.916016" xlink:href="#DejaVuSans-2d"/>
     <use x="654" xlink:href="#DejaVuSans-30"/>
     <use x="717.623047" xlink:href="#DejaVuSans-39"/>
     <use x="781.246094" xlink:href="#DejaVuSans-20"/>
     <use x="813.033203" xlink:href="#DejaVuSans-28"/>
     <use x="852.046875" xlink:href="#DejaVuSans-32"/>
     <use x="915.669922" xlink:href="#DejaVuSans-33"/>
     <use x="979.292969" xlink:href="#DejaVuSans-68"/>
     <use x="1042.671875" xlink:href="#DejaVuSans-2c"/>
     <use x="1074.458984" xlink:href="#DejaVuSans-20"/>
     <use x="1106.246094" xlink:href="#DejaVuSans-32"/>
     <use x="1169.869141" xlink:href="#DejaVuSans-30"/>
     <use x="1233.492188" xlink:href="#DejaVuSans-20"/>
     <use x="1265.279297" xlink:href="#DejaVuSans-74"/>
     <use x="1304.488281" xlink:href="#DejaVuSans-72"/>
     <use x="1345.601562" xlink:href="#DejaVuSans-69"/>
     <use x="1373.384766" xlink:href="#DejaVuSans-61"/>
     <use x="1434.664062" xlink:href="#DejaVuSans-6c"/>
     <use x="1462.447266" xlink:href="#DejaVuSans-73"/>
     <use x="1514.546875" xlink:href="#DejaVuSans-2f"/>
     <use x="1548.238281" xlink:href="#DejaVuSans-66"/>
     <use x="1583.443359" xlink:href="#DejaVuSans-75"/>
     <use x="1646.822266" xlink:href="#DejaVuSans-7a"/>
     <use x="1699.3125" xlink:href="#DejaVuSans-7a"/>
     <use x="1751.802734" xlink:href="#DejaVuSans-65"/>
     <use x="1813.326172" xlink:href="#DejaVuSans-72"/>
     <use x="1854.439453" xlink:href="#DejaVuSans-29"/>
    </g>
   </g>
   <g id="legend_1">
    <g id="line2d_25">
     <path d="M 771.568125 30.416562 
L 791.568125 30.416562 
" style="fill:none;stroke:#1f77b4;stroke-linecap:square;stroke-width:1.5;"/>
    </g>
    <g id="line2d_26">
     <defs>
      <path d="M 0 3 
C 0.795609 3 1.55874 2.683901 2.12132 2.12132 
C 2.683901 1.55874 3 0.795609 3 0 
C 3 -0.795609 2.683901 -1.55874 2.12132 -2.12132 
C 1.55874 -2.683901 0.795609 -3 0 -3 
C -0.795609 -3 -1.55874 -2.683901 -2.12132 -2.12132 
C -2.683901 -1.55874 -3 -0.795609 -3 0 
C -3 0.795609 -2.683901 1.55874 -2.12132 2.12132 
C -1.55874 2.683901 -0.795609 3 0 3 
z
" id="m4b55f5e624" style="stroke:#1f77b4;"/>
     </defs>
     <g>
      <use style="fill:#1f77b4;stroke:#1f77b4;" x="781.568125" xlink:href="#m4b55f5e624" y="30.416562"/>
     </g>
    </g>
    <g id="text_21">
     <!-- afl_2_52_b -->
     <g transform="translate(799.568125 33.916562)scale(0.1 -0.1)">
      <defs>
       <path d="M 3263 -1063 
L 3263 -1509 
L -63 -1509 
L -63 -1063 
L 3263 -1063 
z
" id="DejaVuSans-5f" transform="scale(0.015625)"/>
       <path d="M 3116 1747 
Q 3116 2381 2855 2742 
Q 2594 3103 2138 3103 
Q 1681 3103 1420 2742 
Q 1159 2381 1159 1747 
Q 1159 1113 1420 752 
Q 1681 391 2138 391 
Q 2594 391 2855 752 
Q 3116 1113 3116 1747 
z
M 1159 2969 
Q 1341 3281 1617 3432 
Q 1894 3584 2278 3584 
Q 2916 3584 3314 3078 
Q 3713 2572 3713 1747 
Q 3713 922 3314 415 
Q 2916 -91 2278 -91 
Q 1894 -91 1617 61 
Q 1341 213 1159 525 
L 1159 0 
L 581 0 
L 581 4863 
L 1159 4863 
L 1159 2969 
z
" id="DejaVuSans-62" transform="scale(0.015625)"/>
      </defs>
      <use xlink:href="#DejaVuSans-61"/>
      <use x="61.279297" xlink:href="#DejaVuSans-66"/>
      <use x="96.484375" xlink:href="#DejaVuSans-6c"/>
      <use x="124.267578" xlink:href="#DejaVuSans-5f"/>
      <use x="174.267578" xlink:href="#DejaVuSans-32"/>
      <use x="237.890625" xlink:href="#DejaVuSans-5f"/>
      <use x="287.890625" xlink:href="#DejaVuSans-35"/>
      <use x="351.513672" xlink:href="#DejaVuSans-32"/>
      <use x="415.136719" xlink:href="#DejaVuSans-5f"/>
      <use x="465.136719" xlink:href="#DejaVuSans-62"/>
     </g>
    </g>
    <g id="line2d_27">
     <path d="M 771.568125 45.372813 
L 791.568125 45.372813 
" style="fill:none;stroke:#d62728;stroke-linecap:square;stroke-width:1.5;"/>
    </g>
    <g id="line2d_28">
     <defs>
      <path d="M 0 -3 
L -3 3 
L 3 3 
z
" id="m9f1de604d1" style="stroke:#d62728;stroke-linejoin:miter;"/>
     </defs>
     <g>
      <use style="fill:#d62728;stroke:#d62728;stroke-linejoin:miter;" x="781.568125" xlink:href="#m9f1de604d1" y="45.372813"/>
     </g>
    </g>
    <g id="text_22">
     <!-- mopt -->
     <g transform="translate(799.568125 48.872813)scale(0.1 -0.1)">
      <defs>
       <path d="M 1159 525 
L 1159 -1331 
L 581 -1331 
L 581 3500 
L 1159 3500 
L 1159 2969 
Q 1341 3281 1617 3432 
Q 1894 3584 2278 3584 
Q 2916 3584 3314 3078 
Q 3713 2572 3713 1747 
Q 3713 922 3314 415 
Q 2916 -91 2278 -91 
Q 1894 -91 1617 61 
Q 1341 213 1159 525 
z
M 3116 1747 
Q 3116 2381 2855 2742 
Q 2594 3103 2138 3103 
Q 1681 3103 1420 2742 
Q 1159 2381 1159 1747 
Q 1159 1113 1420 752 
Q 1681 391 2138 391 
Q 2594 391 2855 752 
Q 3116 1113 3116 1747 
z
" id="DejaVuSans-70" transform="scale(0.015625)"/>
      </defs>
      <use xlink:href="#DejaVuSans-6d"/>
      <use x="97.412109" xlink:href="#DejaVuSans-6f"/>
      <use x="158.59375" xlink:href="#DejaVuSans-70"/>
      <use x="222.070312" xlink:href="#DejaVuSans-74"/>
     </g>
    </g>
    <g id="line2d_29">
     <path d="M 771.568125 60.050937 
L 791.568125 60.050937 
" style="fill:none;stroke:#98df8a;stroke-linecap:square;stroke-width:1.5;"/>
    </g>
    <g id="line2d_30">
     <defs>
      <path d="M -0 3 
L 3 -3 
L -3 -3 
z
" id="m95bac4663c" style="stroke:#98df8a;stroke-linejoin:miter;"/>
     </defs>
     <g>
      <use style="fill:#98df8a;stroke:#98df8a;stroke-linejoin:miter;" x="781.568125" xlink:href="#m95bac4663c" y="60.050937"/>
     </g>
    </g>
    <g id="text_23">
     <!-- fafuzz -->
     <g transform="translate(799.568125 63.550937)scale(0.1 -0.1)">
      <use xlink:href="#DejaVuSans-66"/>
      <use x="35.205078" xlink:href="#DejaVuSans-61"/>
      <use x="96.484375" xlink:href="#DejaVuSans-66"/>
      <use x="131.689453" xlink:href="#DejaVuSans-75"/>
      <use x="195.068359" xlink:href="#DejaVuSans-7a"/>
      <use x="247.558594" xlink:href="#DejaVuSans-7a"/>
     </g>
    </g>
   </g>
  </g>
 </g>
 <defs>
  <clipPath id="p0e4f424da5">
   <rect height="266.112" width="714.24" x="53.328125" y="22.318125"/>
  </clipPath>
 </defs>
</svg>
