<?xml version="1.0" encoding="utf-8" standalone="no"?>
<!DOCTYPE svg PUBLIC "-//W3C//DTD SVG 1.1//EN"
  "http://www.w3.org/Graphics/SVG/1.1/DTD/svg11.dtd">
<svg height="325.986375pt" version="1.1" viewBox="0 0 869.993125 325.986375" width="869.993125pt" xmlns="http://www.w3.org/2000/svg" xmlns:xlink="http://www.w3.org/1999/xlink">
 <metadata>
  <rdf:RDF xmlns:cc="http://creativecommons.org/ns#" xmlns:dc="http://purl.org/dc/elements/1.1/" xmlns:rdf="http://www.w3.org/1999/02/22-rdf-syntax-ns#">
   <cc:Work>
    <dc:type rdf:resource="http://purl.org/dc/dcmitype/StillImage"/>
    <dc:date>2021-12-16T18:50:38.760367</dc:date>
    <dc:format>image/svg+xml</dc:format>
    <dc:creator>
     <cc:Agent>
      <dc:title>Matplotlib v3.4.1, https://matplotlib.org/</dc:title>
     </cc:Agent>
    </dc:creator>
   </cc:Work>
  </rdf:RDF>
 </metadata>
 <defs>
  <style type="text/css">*{stroke-linecap:butt;stroke-linejoin:round;}</style>
 </defs>
 <g id="figure_1">
  <g id="patch_1">
   <path d="M 0 325.986375 
L 869.993125 325.986375 
L 869.993125 0 
L 0 0 
z
" style="fill:#ffffff;"/>
  </g>
  <g id="axes_1">
   <g id="patch_2">
    <path d="M 59.690625 288.430125 
L 773.930625 288.430125 
L 773.930625 22.318125 
L 59.690625 22.318125 
z
" style="fill:#ffffff;"/>
   </g>
   <g id="PolyCollection_1">
    <defs>
     <path d="M 92.15608 -66.583147 
L 92.15608 -61.695706 
L 99.291344 -80.144545 
L 106.426609 -95.614006 
L 113.561874 -104.264818 
L 120.697138 -113.214007 
L 127.832403 -122.922167 
L 134.967668 -131.662846 
L 142.102933 -137.426024 
L 149.238197 -150.920699 
L 156.373462 -166.24191 
L 163.508727 -176.417129 
L 170.643992 -179.294547 
L 177.779256 -180.670704 
L 184.914521 -188.235396 
L 192.049786 -197.260273 
L 199.185051 -206.467386 
L 206.320315 -209.177998 
L 213.45558 -213.906972 
L 220.590845 -222.747736 
L 227.72611 -224.349082 
L 234.861374 -226.417488 
L 241.996639 -230.36247 
L 249.131904 -237.343337 
L 256.267168 -242.981409 
L 263.402433 -243.823784 
L 270.537698 -244.657819 
L 277.672963 -247.291282 
L 284.808227 -249.696845 
L 291.943492 -250.929757 
L 299.078757 -251.713749 
L 306.214022 -251.73043 
L 313.349286 -253.156628 
L 320.484551 -253.156628 
L 327.619816 -253.089906 
L 334.755081 -253.603254 
L 341.890345 -255.533626 
L 349.02561 -258.027389 
L 356.160875 -258.386024 
L 363.296139 -258.911465 
L 370.431404 -259.587033 
L 377.566669 -260.48779 
L 384.701934 -261.355186 
L 391.837198 -261.538673 
L 398.972463 -261.847266 
L 406.107728 -262.731343 
L 413.242993 -263.907331 
L 420.378257 -264.382731 
L 427.513522 -264.883151 
L 434.648787 -265.858971 
L 441.784052 -265.633782 
L 448.919316 -266.259308 
L 456.054581 -266.376073 
L 463.189846 -268.208655 
L 470.325111 -269.128386 
L 477.460375 -269.428638 
L 484.59564 -270.754753 
L 491.730905 -270.871518 
L 498.866169 -271.338577 
L 506.001434 -271.338577 
L 513.136699 -271.363598 
L 520.271964 -271.722233 
L 527.407228 -272.089208 
L 534.542493 -272.239334 
L 541.677758 -272.798137 
L 548.813023 -273.615491 
L 555.948287 -273.932424 
L 563.083552 -274.33276 
L 570.218817 -274.783139 
L 577.354082 -275.191816 
L 584.489346 -275.208496 
L 591.624611 -276.192657 
L 598.759876 -276.859884 
L 605.89514 -276.784821 
L 613.030405 -277.018351 
L 620.16567 -277.393666 
L 627.300935 -277.693919 
L 634.436199 -277.952469 
L 641.571464 -279.053395 
L 648.706729 -279.099892 
L 655.841994 -279.395349 
L 662.977258 -279.653899 
L 670.112523 -280.321127 
L 677.247788 -280.429551 
L 684.383053 -280.479593 
L 691.518317 -281.580519 
L 698.653582 -282.039238 
L 705.788847 -282.214385 
L 712.924112 -282.514637 
L 720.059376 -282.556339 
L 727.194641 -282.873272 
L 734.329906 -284.474618 
L 741.46517 -284.51632 
L 741.46517 -290.037627 
L 741.46517 -290.037627 
L 734.329906 -289.962564 
L 727.194641 -288.686491 
L 720.059376 -287.477141 
L 712.924112 -287.360377 
L 705.788847 -286.851616 
L 698.653582 -286.792399 
L 691.518317 -286.643107 
L 684.383053 -286.801574 
L 677.247788 -286.317834 
L 670.112523 -285.917497 
L 662.977258 -285.442098 
L 655.841994 -285.316992 
L 648.706729 -285.717329 
L 641.571464 -285.350354 
L 634.436199 -284.808232 
L 627.300935 -284.124323 
L 620.16567 -283.707306 
L 613.030405 -283.615562 
L 605.89514 -283.479406 
L 598.759876 -282.681444 
L 591.624611 -282.506297 
L 584.489346 -282.531318 
L 577.354082 -281.930813 
L 570.218817 -281.630561 
L 563.083552 -281.60554 
L 555.948287 -281.338649 
L 548.813023 -280.904951 
L 541.677758 -280.846568 
L 534.542493 -279.19518 
L 527.407228 -278.577995 
L 520.271964 -278.2963 
L 513.136699 -278.052553 
L 506.001434 -277.860725 
L 498.866169 -277.118435 
L 491.730905 -276.809842 
L 484.59564 -276.676397 
L 477.460375 -276.409506 
L 470.325111 -276.609674 
L 463.189846 -276.567972 
L 456.054581 -276.326102 
L 448.919316 -275.535438 
L 441.784052 -274.908244 
L 434.648787 -274.817543 
L 427.513522 -274.007487 
L 420.378257 -272.097548 
L 413.242993 -272.043127 
L 406.107728 -271.889248 
L 398.972463 -270.896539 
L 391.837198 -270.329395 
L 384.701934 -270.002871 
L 377.566669 -269.436979 
L 370.431404 -267.985759 
L 363.296139 -267.735549 
L 356.160875 -266.07582 
L 349.02561 -265.558719 
L 341.890345 -264.441113 
L 334.755081 -264.182562 
L 327.619816 -263.598738 
L 320.484551 -262.647939 
L 313.349286 -261.271783 
L 306.214022 -258.77802 
L 299.078757 -259.478609 
L 291.943492 -258.394364 
L 284.808227 -256.659573 
L 277.672963 -256.576169 
L 270.537698 -253.465221 
L 263.402433 -253.240032 
L 256.267168 -252.806334 
L 249.131904 -252.810504 
L 241.996639 -250.254189 
L 234.861374 -249.236667 
L 227.72611 -247.193283 
L 220.590845 -245.483512 
L 213.45558 -244.899688 
L 206.320315 -240.045609 
L 199.185051 -234.957999 
L 192.049786 -231.196504 
L 184.914521 -226.992971 
L 177.779256 -219.303175 
L 170.643992 -212.044365 
L 163.508727 -195.174561 
L 156.373462 -190.437246 
L 149.238197 -177.701542 
L 142.102933 -166.925818 
L 134.967668 -160.845708 
L 127.832403 -145.399392 
L 120.697138 -126.099837 
L 113.561874 -110.661862 
L 106.426609 -100.236433 
L 99.291344 -89.510751 
L 92.15608 -66.583147 
z
" id="m1e7548c9cd" style="stroke:#1f77b4;stroke-opacity:0.2;"/>
    </defs>
    <g clip-path="url(#p6c4ed8c803)">
     <use style="fill:#1f77b4;fill-opacity:0.2;stroke:#1f77b4;stroke-opacity:0.2;" x="0" xlink:href="#m1e7548c9cd" y="325.986375"/>
    </g>
   </g>
   <g id="PolyCollection_2">
    <defs>
     <path d="M 92.15608 -62.179446 
L 92.15608 -56.174399 
L 99.291344 -73.555674 
L 106.426609 -83.394569 
L 113.561874 -91.668398 
L 120.697138 -100.912 
L 127.832403 -106.183097 
L 134.967668 -111.462535 
L 142.102933 -119.794538 
L 149.238197 -125.832946 
L 156.373462 -134.632009 
L 163.508727 -139.085752 
L 170.643992 -151.764742 
L 177.779256 -156.742259 
L 184.914521 -161.754805 
L 192.049786 -170.700866 
L 199.185051 -175.22446 
L 206.320315 -180.495557 
L 213.45558 -186.809197 
L 220.590845 -192.197059 
L 227.72611 -195.850129 
L 234.861374 -200.153746 
L 241.996639 -202.974867 
L 249.131904 -209.386506 
L 256.267168 -212.680942 
L 263.402433 -217.593404 
L 270.537698 -221.062987 
L 277.672963 -222.714375 
L 284.808227 -223.198115 
L 291.943492 -229.411671 
L 299.078757 -229.912091 
L 306.214022 -230.337449 
L 313.349286 -231.763648 
L 320.484551 -233.76533 
L 327.619816 -236.742833 
L 334.755081 -239.737016 
L 341.890345 -239.636932 
L 349.02561 -244.048973 
L 356.160875 -247.593619 
L 363.296139 -248.546712 
L 370.431404 -247.460174 
L 377.566669 -249.903894 
L 384.701934 -252.731271 
L 391.837198 -253.765473 
L 398.972463 -258.019049 
L 406.107728 -258.394364 
L 413.242993 -258.594532 
L 420.378257 -261.880628 
L 427.513522 -263.540356 
L 434.648787 -264.557878 
L 441.784052 -264.967597 
L 448.919316 -266.109182 
L 456.054581 -266.751388 
L 463.189846 -267.952398 
L 470.325111 -268.227629 
L 477.460375 -268.690935 
L 484.59564 -270.43782 
L 491.730905 -270.896539 
L 498.866169 -272.155931 
L 506.001434 -272.155931 
L 513.136699 -272.320027 
L 520.271964 -271.88904 
L 527.407228 -272.325865 
L 534.542493 -272.331078 
L 541.677758 -272.331078 
L 548.813023 -272.331078 
L 555.948287 -272.839839 
L 563.083552 -272.856519 
L 570.218817 -272.981625 
L 577.354082 -273.615491 
L 584.489346 -273.690554 
L 591.624611 -273.690554 
L 598.759876 -273.690554 
L 605.89514 -273.957445 
L 613.030405 -274.426589 
L 620.16567 -275.025009 
L 627.300935 -275.025009 
L 634.436199 -275.842362 
L 641.571464 -275.867383 
L 648.706729 -275.875724 
L 655.841994 -275.859043 
L 662.977258 -276.891369 
L 670.112523 -277.101754 
L 677.247788 -277.110095 
L 684.383053 -277.902427 
L 691.518317 -278.261062 
L 698.653582 -278.552974 
L 705.788847 -279.103437 
L 712.924112 -279.804025 
L 720.059376 -281.038396 
L 727.194641 -281.046737 
L 734.329906 -281.088438 
L 741.46517 -281.77047 
L 741.46517 -291.305359 
L 741.46517 -291.305359 
L 734.329906 -291.230296 
L 727.194641 -291.196935 
L 720.059376 -291.57225 
L 712.924112 -290.341424 
L 705.788847 -290.321198 
L 698.653582 -290.271156 
L 691.518317 -290.304518 
L 684.383053 -289.528866 
L 677.247788 -289.403761 
L 670.112523 -289.220273 
L 662.977258 -289.178571 
L 655.841994 -289.163142 
L 648.706729 -288.986744 
L 641.571464 -288.861638 
L 634.436199 -288.286363 
L 627.300935 -287.785734 
L 620.16567 -287.610587 
L 613.030405 -287.560545 
L 605.89514 -286.309493 
L 598.759876 -286.092644 
L 591.624611 -285.633926 
L 584.489346 -285.325333 
L 577.354082 -285.357443 
L 570.218817 -285.333673 
L 563.083552 -284.316151 
L 555.948287 -284.27445 
L 548.813023 -283.248587 
L 541.677758 -282.54779 
L 534.542493 -282.714805 
L 527.407228 -282.447914 
L 520.271964 -282.172683 
L 513.136699 -281.046737 
L 506.001434 -280.939563 
L 498.866169 -279.695601 
L 491.730905 -278.928289 
L 484.59564 -278.511272 
L 477.460375 -277.168477 
L 470.325111 -276.651376 
L 463.189846 -276.392825 
L 456.054581 -275.275219 
L 448.919316 -275.200156 
L 441.784052 -274.791479 
L 434.648787 -273.040007 
L 427.513522 -272.364439 
L 420.378257 -271.4053 
L 413.242993 -270.512883 
L 406.107728 -270.20429 
L 398.972463 -270.154248 
L 391.837198 -269.178428 
L 384.701934 -268.836474 
L 377.566669 -267.752229 
L 370.431404 -267.552061 
L 363.296139 -266.409434 
L 356.160875 -265.09166 
L 349.02561 -264.307667 
L 341.890345 -263.834979 
L 334.755081 -262.939851 
L 327.619816 -261.113316 
L 320.484551 -259.803882 
L 313.349286 -259.01989 
L 306.214022 -258.160834 
L 299.078757 -255.63371 
L 291.943492 -253.481902 
L 284.808227 -250.587803 
L 277.672963 -245.141558 
L 270.537698 -240.979727 
L 263.402433 -236.212595 
L 256.267168 -231.08808 
L 249.131904 -228.285724 
L 241.996639 -224.107212 
L 234.861374 -220.904521 
L 227.72611 -216.675966 
L 220.590845 -209.620036 
L 213.45558 -203.665031 
L 206.320315 -199.419796 
L 199.185051 -191.972286 
L 192.049786 -188.202034 
L 184.914521 -182.121924 
L 177.779256 -179.60314 
L 170.643992 -173.698177 
L 163.508727 -159.544614 
L 156.373462 -156.859024 
L 149.238197 -142.747163 
L 142.102933 -134.623668 
L 134.967668 -122.855444 
L 127.832403 -116.108106 
L 120.697138 -106.525051 
L 113.561874 -97.559182 
L 106.426609 -89.218839 
L 99.291344 -76.425378 
L 92.15608 -62.179446 
z
" id="md3cc5f5441" style="stroke:#d62728;stroke-opacity:0.2;"/>
    </defs>
    <g clip-path="url(#p6c4ed8c803)">
     <use style="fill:#d62728;fill-opacity:0.2;stroke:#d62728;stroke-opacity:0.2;" x="0" xlink:href="#md3cc5f5441" y="325.986375"/>
    </g>
   </g>
   <g id="PolyCollection_3">
    <defs>
     <path d="M 92.15608 -57.90085 
L 92.15608 -49.65225 
L 99.291344 -64.632758 
L 106.426609 -75.006894 
L 113.561874 -87.459027 
L 120.697138 -95.357332 
L 127.832403 -108.218141 
L 134.967668 -115.440879 
L 142.102933 -118.668591 
L 149.238197 -122.179876 
L 156.373462 -126.375069 
L 163.508727 -131.654506 
L 170.643992 -134.606988 
L 177.779256 -138.443546 
L 184.914521 -141.821385 
L 192.049786 -145.407732 
L 199.185051 -149.185282 
L 206.320315 -151.537885 
L 213.45558 -155.407804 
L 220.590845 -157.876546 
L 227.72611 -161.062557 
L 234.861374 -163.105941 
L 241.996639 -165.5163 
L 249.131904 -167.584705 
L 256.267168 -169.819917 
L 263.402433 -171.671474 
L 270.537698 -172.205256 
L 277.672963 -175.8773 
L 284.808227 -176.44215 
L 291.943492 -178.785787 
L 299.078757 -178.710723 
L 306.214022 -180.660279 
L 313.349286 -181.412995 
L 320.484551 -183.031021 
L 327.619816 -184.498922 
L 334.755081 -186.148433 
L 341.890345 -187.401361 
L 349.02561 -187.204738 
L 356.160875 -189.3113 
L 363.296139 -188.477266 
L 370.431404 -189.186195 
L 377.566669 -190.787541 
L 384.701934 -196.041957 
L 391.837198 -196.617441 
L 398.972463 -196.659142 
L 406.107728 -199.728389 
L 413.242993 -200.109125 
L 420.378257 -200.128725 
L 427.513522 -200.512381 
L 434.648787 -201.821815 
L 441.784052 -203.081207 
L 448.919316 -204.415662 
L 456.054581 -205.533268 
L 463.189846 -206.500748 
L 470.325111 -208.552472 
L 477.460375 -209.453229 
L 484.59564 -212.055416 
L 491.730905 -212.188862 
L 498.866169 -213.590039 
L 506.001434 -215.183045 
L 513.136699 -215.324831 
L 520.271964 -216.52584 
L 527.407228 -216.859454 
L 534.542493 -217.051282 
L 541.677758 -218.283776 
L 548.813023 -219.244792 
L 555.948287 -221.469579 
L 563.083552 -222.055488 
L 570.218817 -222.480845 
L 577.354082 -224.515889 
L 584.489346 -224.816142 
L 591.624611 -226.784463 
L 598.759876 -227.226501 
L 605.89514 -227.681884 
L 613.030405 -228.819506 
L 620.16567 -228.977973 
L 627.300935 -229.39499 
L 634.436199 -231.630202 
L 641.571464 -234.874596 
L 648.706729 -235.659214 
L 655.841994 -236.459261 
L 662.977258 -237.093127 
L 670.112523 -238.194052 
L 677.247788 -238.694473 
L 684.383053 -239.753697 
L 691.518317 -240.81292 
L 698.653582 -244.924709 
L 705.788847 -245.790229 
L 712.924112 -246.584438 
L 720.059376 -248.608639 
L 727.194641 -249.224157 
L 734.329906 -249.853852 
L 741.46517 -250.77129 
L 741.46517 -256.275917 
L 741.46517 -256.275917 
L 734.329906 -255.358479 
L 727.194641 -254.849718 
L 720.059376 -254.249213 
L 712.924112 -253.398498 
L 705.788847 -253.106586 
L 698.653582 -252.205829 
L 691.518317 -251.346774 
L 684.383053 -251.130759 
L 677.247788 -249.436835 
L 670.112523 -248.619482 
L 662.977258 -248.035658 
L 655.841994 -245.667 
L 648.706729 -245.291685 
L 641.571464 -244.899688 
L 634.436199 -244.415949 
L 627.300935 -243.765402 
L 620.16567 -241.830442 
L 613.030405 -239.995567 
L 605.89514 -239.495146 
L 598.759876 -238.61107 
L 591.624611 -237.385039 
L 584.489346 -237.284955 
L 577.354082 -235.691949 
L 570.218817 -235.158167 
L 563.083552 -232.764489 
L 555.948287 -230.677109 
L 548.813023 -230.359968 
L 541.677758 -229.970474 
L 534.542493 -229.119759 
L 527.407228 -229.002994 
L 520.271964 -228.377468 
L 513.136699 -226.350765 
L 506.001434 -225.091373 
L 498.866169 -224.632654 
L 491.730905 -224.29904 
L 484.59564 -222.497526 
L 477.460375 -221.61345 
L 470.325111 -220.912861 
L 463.189846 -217.868636 
L 456.054581 -217.96872 
L 448.919316 -217.510001 
L 441.784052 -216.05336 
L 434.648787 -214.665944 
L 427.513522 -214.107141 
L 420.378257 -213.12298 
L 413.242993 -212.063757 
L 406.107728 -210.956576 
L 398.972463 -210.037053 
L 391.837198 -208.927787 
L 384.701934 -207.601673 
L 377.566669 -206.56747 
L 370.431404 -205.383142 
L 363.296139 -204.14043 
L 356.160875 -202.355597 
L 349.02561 -201.621647 
L 341.890345 -200.278851 
L 334.755081 -197.318029 
L 327.619816 -195.116179 
L 320.484551 -193.865127 
L 313.349286 -191.688298 
L 306.214022 -190.428906 
L 299.078757 -188.760837 
L 291.943492 -186.734134 
L 284.808227 -182.547281 
L 277.672963 -182.161332 
L 270.537698 -180.654023 
L 263.402433 -178.367727 
L 256.267168 -175.574754 
L 249.131904 -173.74947 
L 241.996639 -172.597252 
L 234.861374 -170.870801 
L 227.72611 -170.12851 
L 220.590845 -167.884958 
L 213.45558 -163.764828 
L 206.320315 -161.663062 
L 199.185051 -159.419509 
L 192.049786 -158.193479 
L 184.914521 -152.680512 
L 177.779256 -148.852294 
L 170.643992 -144.934626 
L 163.508727 -140.612035 
L 156.373462 -135.207492 
L 149.238197 -131.170766 
L 142.102933 -127.164482 
L 134.967668 -120.353341 
L 127.832403 -114.473399 
L 120.697138 -106.711667 
L 113.561874 -94.523297 
L 106.426609 -86.975287 
L 99.291344 -74.514814 
L 92.15608 -57.90085 
z
" id="m267cf0bbbe" style="stroke:#98df8a;stroke-opacity:0.2;"/>
    </defs>
    <g clip-path="url(#p6c4ed8c803)">
     <use style="fill:#98df8a;fill-opacity:0.2;stroke:#98df8a;stroke-opacity:0.2;" x="0" xlink:href="#m267cf0bbbe" y="325.986375"/>
    </g>
   </g>
   <g id="matplotlib.axis_1">
    <g id="xtick_1">
     <g id="line2d_1">
      <defs>
       <path d="M 0 0 
L 0 3.5 
" id="m4b91e36031" style="stroke:#000000;stroke-width:0.8;"/>
      </defs>
      <g>
       <use style="stroke:#000000;stroke-width:0.8;" x="92.15608" xlink:href="#m4b91e36031" y="288.430125"/>
      </g>
     </g>
     <g id="text_1">
      <!-- 15m -->
      <g transform="translate(80.923267 303.028562)scale(0.1 -0.1)">
       <defs>
        <path d="M 794 531 
L 1825 531 
L 1825 4091 
L 703 3866 
L 703 4441 
L 1819 4666 
L 2450 4666 
L 2450 531 
L 3481 531 
L 3481 0 
L 794 0 
L 794 531 
z
" id="DejaVuSans-31" transform="scale(0.015625)"/>
        <path d="M 691 4666 
L 3169 4666 
L 3169 4134 
L 1269 4134 
L 1269 2991 
Q 1406 3038 1543 3061 
Q 1681 3084 1819 3084 
Q 2600 3084 3056 2656 
Q 3513 2228 3513 1497 
Q 3513 744 3044 326 
Q 2575 -91 1722 -91 
Q 1428 -91 1123 -41 
Q 819 9 494 109 
L 494 744 
Q 775 591 1075 516 
Q 1375 441 1709 441 
Q 2250 441 2565 725 
Q 2881 1009 2881 1497 
Q 2881 1984 2565 2268 
Q 2250 2553 1709 2553 
Q 1456 2553 1204 2497 
Q 953 2441 691 2322 
L 691 4666 
z
" id="DejaVuSans-35" transform="scale(0.015625)"/>
        <path d="M 3328 2828 
Q 3544 3216 3844 3400 
Q 4144 3584 4550 3584 
Q 5097 3584 5394 3201 
Q 5691 2819 5691 2113 
L 5691 0 
L 5113 0 
L 5113 2094 
Q 5113 2597 4934 2840 
Q 4756 3084 4391 3084 
Q 3944 3084 3684 2787 
Q 3425 2491 3425 1978 
L 3425 0 
L 2847 0 
L 2847 2094 
Q 2847 2600 2669 2842 
Q 2491 3084 2119 3084 
Q 1678 3084 1418 2786 
Q 1159 2488 1159 1978 
L 1159 0 
L 581 0 
L 581 3500 
L 1159 3500 
L 1159 2956 
Q 1356 3278 1631 3431 
Q 1906 3584 2284 3584 
Q 2666 3584 2933 3390 
Q 3200 3197 3328 2828 
z
" id="DejaVuSans-6d" transform="scale(0.015625)"/>
       </defs>
       <use xlink:href="#DejaVuSans-31"/>
       <use x="63.623047" xlink:href="#DejaVuSans-35"/>
       <use x="127.246094" xlink:href="#DejaVuSans-6d"/>
      </g>
     </g>
    </g>
    <g id="xtick_2">
     <g id="line2d_2">
      <g>
       <use style="stroke:#000000;stroke-width:0.8;" x="146.859776" xlink:href="#m4b91e36031" y="288.430125"/>
      </g>
     </g>
     <g id="text_2">
      <!-- 2h:10m -->
      <g transform="translate(127.592588 303.028562)scale(0.1 -0.1)">
       <defs>
        <path d="M 1228 531 
L 3431 531 
L 3431 0 
L 469 0 
L 469 531 
Q 828 903 1448 1529 
Q 2069 2156 2228 2338 
Q 2531 2678 2651 2914 
Q 2772 3150 2772 3378 
Q 2772 3750 2511 3984 
Q 2250 4219 1831 4219 
Q 1534 4219 1204 4116 
Q 875 4013 500 3803 
L 500 4441 
Q 881 4594 1212 4672 
Q 1544 4750 1819 4750 
Q 2544 4750 2975 4387 
Q 3406 4025 3406 3419 
Q 3406 3131 3298 2873 
Q 3191 2616 2906 2266 
Q 2828 2175 2409 1742 
Q 1991 1309 1228 531 
z
" id="DejaVuSans-32" transform="scale(0.015625)"/>
        <path d="M 3513 2113 
L 3513 0 
L 2938 0 
L 2938 2094 
Q 2938 2591 2744 2837 
Q 2550 3084 2163 3084 
Q 1697 3084 1428 2787 
Q 1159 2491 1159 1978 
L 1159 0 
L 581 0 
L 581 4863 
L 1159 4863 
L 1159 2956 
Q 1366 3272 1645 3428 
Q 1925 3584 2291 3584 
Q 2894 3584 3203 3211 
Q 3513 2838 3513 2113 
z
" id="DejaVuSans-68" transform="scale(0.015625)"/>
        <path d="M 750 794 
L 1409 794 
L 1409 0 
L 750 0 
L 750 794 
z
M 750 3309 
L 1409 3309 
L 1409 2516 
L 750 2516 
L 750 3309 
z
" id="DejaVuSans-3a" transform="scale(0.015625)"/>
        <path d="M 2034 4250 
Q 1547 4250 1301 3770 
Q 1056 3291 1056 2328 
Q 1056 1369 1301 889 
Q 1547 409 2034 409 
Q 2525 409 2770 889 
Q 3016 1369 3016 2328 
Q 3016 3291 2770 3770 
Q 2525 4250 2034 4250 
z
M 2034 4750 
Q 2819 4750 3233 4129 
Q 3647 3509 3647 2328 
Q 3647 1150 3233 529 
Q 2819 -91 2034 -91 
Q 1250 -91 836 529 
Q 422 1150 422 2328 
Q 422 3509 836 4129 
Q 1250 4750 2034 4750 
z
" id="DejaVuSans-30" transform="scale(0.015625)"/>
       </defs>
       <use xlink:href="#DejaVuSans-32"/>
       <use x="63.623047" xlink:href="#DejaVuSans-68"/>
       <use x="127.001953" xlink:href="#DejaVuSans-3a"/>
       <use x="160.693359" xlink:href="#DejaVuSans-31"/>
       <use x="224.316406" xlink:href="#DejaVuSans-30"/>
       <use x="287.939453" xlink:href="#DejaVuSans-6d"/>
      </g>
     </g>
    </g>
    <g id="xtick_3">
     <g id="line2d_3">
      <g>
       <use style="stroke:#000000;stroke-width:0.8;" x="201.563472" xlink:href="#m4b91e36031" y="288.430125"/>
      </g>
     </g>
     <g id="text_3">
      <!-- 4h:5m -->
      <g transform="translate(185.477535 303.028562)scale(0.1 -0.1)">
       <defs>
        <path d="M 2419 4116 
L 825 1625 
L 2419 1625 
L 2419 4116 
z
M 2253 4666 
L 3047 4666 
L 3047 1625 
L 3713 1625 
L 3713 1100 
L 3047 1100 
L 3047 0 
L 2419 0 
L 2419 1100 
L 313 1100 
L 313 1709 
L 2253 4666 
z
" id="DejaVuSans-34" transform="scale(0.015625)"/>
       </defs>
       <use xlink:href="#DejaVuSans-34"/>
       <use x="63.623047" xlink:href="#DejaVuSans-68"/>
       <use x="127.001953" xlink:href="#DejaVuSans-3a"/>
       <use x="160.693359" xlink:href="#DejaVuSans-35"/>
       <use x="224.316406" xlink:href="#DejaVuSans-6d"/>
      </g>
     </g>
    </g>
    <g id="xtick_4">
     <g id="line2d_4">
      <g>
       <use style="stroke:#000000;stroke-width:0.8;" x="256.267168" xlink:href="#m4b91e36031" y="288.430125"/>
      </g>
     </g>
     <g id="text_4">
      <!-- 6h -->
      <g transform="translate(249.917168 303.028562)scale(0.1 -0.1)">
       <defs>
        <path d="M 2113 2584 
Q 1688 2584 1439 2293 
Q 1191 2003 1191 1497 
Q 1191 994 1439 701 
Q 1688 409 2113 409 
Q 2538 409 2786 701 
Q 3034 994 3034 1497 
Q 3034 2003 2786 2293 
Q 2538 2584 2113 2584 
z
M 3366 4563 
L 3366 3988 
Q 3128 4100 2886 4159 
Q 2644 4219 2406 4219 
Q 1781 4219 1451 3797 
Q 1122 3375 1075 2522 
Q 1259 2794 1537 2939 
Q 1816 3084 2150 3084 
Q 2853 3084 3261 2657 
Q 3669 2231 3669 1497 
Q 3669 778 3244 343 
Q 2819 -91 2113 -91 
Q 1303 -91 875 529 
Q 447 1150 447 2328 
Q 447 3434 972 4092 
Q 1497 4750 2381 4750 
Q 2619 4750 2861 4703 
Q 3103 4656 3366 4563 
z
" id="DejaVuSans-36" transform="scale(0.015625)"/>
       </defs>
       <use xlink:href="#DejaVuSans-36"/>
       <use x="63.623047" xlink:href="#DejaVuSans-68"/>
      </g>
     </g>
    </g>
    <g id="xtick_5">
     <g id="line2d_5">
      <g>
       <use style="stroke:#000000;stroke-width:0.8;" x="310.970865" xlink:href="#m4b91e36031" y="288.430125"/>
      </g>
     </g>
     <g id="text_5">
      <!-- 7h:55m -->
      <g transform="translate(291.703677 303.028562)scale(0.1 -0.1)">
       <defs>
        <path d="M 525 4666 
L 3525 4666 
L 3525 4397 
L 1831 0 
L 1172 0 
L 2766 4134 
L 525 4134 
L 525 4666 
z
" id="DejaVuSans-37" transform="scale(0.015625)"/>
       </defs>
       <use xlink:href="#DejaVuSans-37"/>
       <use x="63.623047" xlink:href="#DejaVuSans-68"/>
       <use x="127.001953" xlink:href="#DejaVuSans-3a"/>
       <use x="160.693359" xlink:href="#DejaVuSans-35"/>
       <use x="224.316406" xlink:href="#DejaVuSans-35"/>
       <use x="287.939453" xlink:href="#DejaVuSans-6d"/>
      </g>
     </g>
    </g>
    <g id="xtick_6">
     <g id="line2d_6">
      <g>
       <use style="stroke:#000000;stroke-width:0.8;" x="365.674561" xlink:href="#m4b91e36031" y="288.430125"/>
      </g>
     </g>
     <g id="text_6">
      <!-- 9h:50m -->
      <g transform="translate(346.407374 303.028562)scale(0.1 -0.1)">
       <defs>
        <path d="M 703 97 
L 703 672 
Q 941 559 1184 500 
Q 1428 441 1663 441 
Q 2288 441 2617 861 
Q 2947 1281 2994 2138 
Q 2813 1869 2534 1725 
Q 2256 1581 1919 1581 
Q 1219 1581 811 2004 
Q 403 2428 403 3163 
Q 403 3881 828 4315 
Q 1253 4750 1959 4750 
Q 2769 4750 3195 4129 
Q 3622 3509 3622 2328 
Q 3622 1225 3098 567 
Q 2575 -91 1691 -91 
Q 1453 -91 1209 -44 
Q 966 3 703 97 
z
M 1959 2075 
Q 2384 2075 2632 2365 
Q 2881 2656 2881 3163 
Q 2881 3666 2632 3958 
Q 2384 4250 1959 4250 
Q 1534 4250 1286 3958 
Q 1038 3666 1038 3163 
Q 1038 2656 1286 2365 
Q 1534 2075 1959 2075 
z
" id="DejaVuSans-39" transform="scale(0.015625)"/>
       </defs>
       <use xlink:href="#DejaVuSans-39"/>
       <use x="63.623047" xlink:href="#DejaVuSans-68"/>
       <use x="127.001953" xlink:href="#DejaVuSans-3a"/>
       <use x="160.693359" xlink:href="#DejaVuSans-35"/>
       <use x="224.316406" xlink:href="#DejaVuSans-30"/>
       <use x="287.939453" xlink:href="#DejaVuSans-6d"/>
      </g>
     </g>
    </g>
    <g id="xtick_7">
     <g id="line2d_7">
      <g>
       <use style="stroke:#000000;stroke-width:0.8;" x="420.378257" xlink:href="#m4b91e36031" y="288.430125"/>
      </g>
     </g>
     <g id="text_7">
      <!-- 11h:45m -->
      <g transform="translate(397.92982 303.028562)scale(0.1 -0.1)">
       <use xlink:href="#DejaVuSans-31"/>
       <use x="63.623047" xlink:href="#DejaVuSans-31"/>
       <use x="127.246094" xlink:href="#DejaVuSans-68"/>
       <use x="190.625" xlink:href="#DejaVuSans-3a"/>
       <use x="224.316406" xlink:href="#DejaVuSans-34"/>
       <use x="287.939453" xlink:href="#DejaVuSans-35"/>
       <use x="351.5625" xlink:href="#DejaVuSans-6d"/>
      </g>
     </g>
    </g>
    <g id="xtick_8">
     <g id="line2d_8">
      <g>
       <use style="stroke:#000000;stroke-width:0.8;" x="475.081954" xlink:href="#m4b91e36031" y="288.430125"/>
      </g>
     </g>
     <g id="text_8">
      <!-- 13h:40m -->
      <g transform="translate(452.633516 303.028562)scale(0.1 -0.1)">
       <defs>
        <path d="M 2597 2516 
Q 3050 2419 3304 2112 
Q 3559 1806 3559 1356 
Q 3559 666 3084 287 
Q 2609 -91 1734 -91 
Q 1441 -91 1130 -33 
Q 819 25 488 141 
L 488 750 
Q 750 597 1062 519 
Q 1375 441 1716 441 
Q 2309 441 2620 675 
Q 2931 909 2931 1356 
Q 2931 1769 2642 2001 
Q 2353 2234 1838 2234 
L 1294 2234 
L 1294 2753 
L 1863 2753 
Q 2328 2753 2575 2939 
Q 2822 3125 2822 3475 
Q 2822 3834 2567 4026 
Q 2313 4219 1838 4219 
Q 1578 4219 1281 4162 
Q 984 4106 628 3988 
L 628 4550 
Q 988 4650 1302 4700 
Q 1616 4750 1894 4750 
Q 2613 4750 3031 4423 
Q 3450 4097 3450 3541 
Q 3450 3153 3228 2886 
Q 3006 2619 2597 2516 
z
" id="DejaVuSans-33" transform="scale(0.015625)"/>
       </defs>
       <use xlink:href="#DejaVuSans-31"/>
       <use x="63.623047" xlink:href="#DejaVuSans-33"/>
       <use x="127.246094" xlink:href="#DejaVuSans-68"/>
       <use x="190.625" xlink:href="#DejaVuSans-3a"/>
       <use x="224.316406" xlink:href="#DejaVuSans-34"/>
       <use x="287.939453" xlink:href="#DejaVuSans-30"/>
       <use x="351.5625" xlink:href="#DejaVuSans-6d"/>
      </g>
     </g>
    </g>
    <g id="xtick_9">
     <g id="line2d_9">
      <g>
       <use style="stroke:#000000;stroke-width:0.8;" x="529.78565" xlink:href="#m4b91e36031" y="288.430125"/>
      </g>
     </g>
     <g id="text_9">
      <!-- 15h:35m -->
      <g transform="translate(507.337212 303.028562)scale(0.1 -0.1)">
       <use xlink:href="#DejaVuSans-31"/>
       <use x="63.623047" xlink:href="#DejaVuSans-35"/>
       <use x="127.246094" xlink:href="#DejaVuSans-68"/>
       <use x="190.625" xlink:href="#DejaVuSans-3a"/>
       <use x="224.316406" xlink:href="#DejaVuSans-33"/>
       <use x="287.939453" xlink:href="#DejaVuSans-35"/>
       <use x="351.5625" xlink:href="#DejaVuSans-6d"/>
      </g>
     </g>
    </g>
    <g id="xtick_10">
     <g id="line2d_10">
      <g>
       <use style="stroke:#000000;stroke-width:0.8;" x="584.489346" xlink:href="#m4b91e36031" y="288.430125"/>
      </g>
     </g>
     <g id="text_10">
      <!-- 17h:30m -->
      <g transform="translate(562.040909 303.028562)scale(0.1 -0.1)">
       <use xlink:href="#DejaVuSans-31"/>
       <use x="63.623047" xlink:href="#DejaVuSans-37"/>
       <use x="127.246094" xlink:href="#DejaVuSans-68"/>
       <use x="190.625" xlink:href="#DejaVuSans-3a"/>
       <use x="224.316406" xlink:href="#DejaVuSans-33"/>
       <use x="287.939453" xlink:href="#DejaVuSans-30"/>
       <use x="351.5625" xlink:href="#DejaVuSans-6d"/>
      </g>
     </g>
    </g>
    <g id="xtick_11">
     <g id="line2d_11">
      <g>
       <use style="stroke:#000000;stroke-width:0.8;" x="639.193043" xlink:href="#m4b91e36031" y="288.430125"/>
      </g>
     </g>
     <g id="text_11">
      <!-- 19h:25m -->
      <g transform="translate(616.744605 303.028562)scale(0.1 -0.1)">
       <use xlink:href="#DejaVuSans-31"/>
       <use x="63.623047" xlink:href="#DejaVuSans-39"/>
       <use x="127.246094" xlink:href="#DejaVuSans-68"/>
       <use x="190.625" xlink:href="#DejaVuSans-3a"/>
       <use x="224.316406" xlink:href="#DejaVuSans-32"/>
       <use x="287.939453" xlink:href="#DejaVuSans-35"/>
       <use x="351.5625" xlink:href="#DejaVuSans-6d"/>
      </g>
     </g>
    </g>
    <g id="xtick_12">
     <g id="line2d_12">
      <g>
       <use style="stroke:#000000;stroke-width:0.8;" x="693.896739" xlink:href="#m4b91e36031" y="288.430125"/>
      </g>
     </g>
     <g id="text_12">
      <!-- 21h:20m -->
      <g transform="translate(671.448301 303.028562)scale(0.1 -0.1)">
       <use xlink:href="#DejaVuSans-32"/>
       <use x="63.623047" xlink:href="#DejaVuSans-31"/>
       <use x="127.246094" xlink:href="#DejaVuSans-68"/>
       <use x="190.625" xlink:href="#DejaVuSans-3a"/>
       <use x="224.316406" xlink:href="#DejaVuSans-32"/>
       <use x="287.939453" xlink:href="#DejaVuSans-30"/>
       <use x="351.5625" xlink:href="#DejaVuSans-6d"/>
      </g>
     </g>
    </g>
    <g id="text_13">
     <!-- Time (hour:minute) -->
     <g transform="translate(368.403594 316.706687)scale(0.1 -0.1)">
      <defs>
       <path d="M -19 4666 
L 3928 4666 
L 3928 4134 
L 2272 4134 
L 2272 0 
L 1638 0 
L 1638 4134 
L -19 4134 
L -19 4666 
z
" id="DejaVuSans-54" transform="scale(0.015625)"/>
       <path d="M 603 3500 
L 1178 3500 
L 1178 0 
L 603 0 
L 603 3500 
z
M 603 4863 
L 1178 4863 
L 1178 4134 
L 603 4134 
L 603 4863 
z
" id="DejaVuSans-69" transform="scale(0.015625)"/>
       <path d="M 3597 1894 
L 3597 1613 
L 953 1613 
Q 991 1019 1311 708 
Q 1631 397 2203 397 
Q 2534 397 2845 478 
Q 3156 559 3463 722 
L 3463 178 
Q 3153 47 2828 -22 
Q 2503 -91 2169 -91 
Q 1331 -91 842 396 
Q 353 884 353 1716 
Q 353 2575 817 3079 
Q 1281 3584 2069 3584 
Q 2775 3584 3186 3129 
Q 3597 2675 3597 1894 
z
M 3022 2063 
Q 3016 2534 2758 2815 
Q 2500 3097 2075 3097 
Q 1594 3097 1305 2825 
Q 1016 2553 972 2059 
L 3022 2063 
z
" id="DejaVuSans-65" transform="scale(0.015625)"/>
       <path id="DejaVuSans-20" transform="scale(0.015625)"/>
       <path d="M 1984 4856 
Q 1566 4138 1362 3434 
Q 1159 2731 1159 2009 
Q 1159 1288 1364 580 
Q 1569 -128 1984 -844 
L 1484 -844 
Q 1016 -109 783 600 
Q 550 1309 550 2009 
Q 550 2706 781 3412 
Q 1013 4119 1484 4856 
L 1984 4856 
z
" id="DejaVuSans-28" transform="scale(0.015625)"/>
       <path d="M 1959 3097 
Q 1497 3097 1228 2736 
Q 959 2375 959 1747 
Q 959 1119 1226 758 
Q 1494 397 1959 397 
Q 2419 397 2687 759 
Q 2956 1122 2956 1747 
Q 2956 2369 2687 2733 
Q 2419 3097 1959 3097 
z
M 1959 3584 
Q 2709 3584 3137 3096 
Q 3566 2609 3566 1747 
Q 3566 888 3137 398 
Q 2709 -91 1959 -91 
Q 1206 -91 779 398 
Q 353 888 353 1747 
Q 353 2609 779 3096 
Q 1206 3584 1959 3584 
z
" id="DejaVuSans-6f" transform="scale(0.015625)"/>
       <path d="M 544 1381 
L 544 3500 
L 1119 3500 
L 1119 1403 
Q 1119 906 1312 657 
Q 1506 409 1894 409 
Q 2359 409 2629 706 
Q 2900 1003 2900 1516 
L 2900 3500 
L 3475 3500 
L 3475 0 
L 2900 0 
L 2900 538 
Q 2691 219 2414 64 
Q 2138 -91 1772 -91 
Q 1169 -91 856 284 
Q 544 659 544 1381 
z
M 1991 3584 
L 1991 3584 
z
" id="DejaVuSans-75" transform="scale(0.015625)"/>
       <path d="M 2631 2963 
Q 2534 3019 2420 3045 
Q 2306 3072 2169 3072 
Q 1681 3072 1420 2755 
Q 1159 2438 1159 1844 
L 1159 0 
L 581 0 
L 581 3500 
L 1159 3500 
L 1159 2956 
Q 1341 3275 1631 3429 
Q 1922 3584 2338 3584 
Q 2397 3584 2469 3576 
Q 2541 3569 2628 3553 
L 2631 2963 
z
" id="DejaVuSans-72" transform="scale(0.015625)"/>
       <path d="M 3513 2113 
L 3513 0 
L 2938 0 
L 2938 2094 
Q 2938 2591 2744 2837 
Q 2550 3084 2163 3084 
Q 1697 3084 1428 2787 
Q 1159 2491 1159 1978 
L 1159 0 
L 581 0 
L 581 3500 
L 1159 3500 
L 1159 2956 
Q 1366 3272 1645 3428 
Q 1925 3584 2291 3584 
Q 2894 3584 3203 3211 
Q 3513 2838 3513 2113 
z
" id="DejaVuSans-6e" transform="scale(0.015625)"/>
       <path d="M 1172 4494 
L 1172 3500 
L 2356 3500 
L 2356 3053 
L 1172 3053 
L 1172 1153 
Q 1172 725 1289 603 
Q 1406 481 1766 481 
L 2356 481 
L 2356 0 
L 1766 0 
Q 1100 0 847 248 
Q 594 497 594 1153 
L 594 3053 
L 172 3053 
L 172 3500 
L 594 3500 
L 594 4494 
L 1172 4494 
z
" id="DejaVuSans-74" transform="scale(0.015625)"/>
       <path d="M 513 4856 
L 1013 4856 
Q 1481 4119 1714 3412 
Q 1947 2706 1947 2009 
Q 1947 1309 1714 600 
Q 1481 -109 1013 -844 
L 513 -844 
Q 928 -128 1133 580 
Q 1338 1288 1338 2009 
Q 1338 2731 1133 3434 
Q 928 4138 513 4856 
z
" id="DejaVuSans-29" transform="scale(0.015625)"/>
      </defs>
      <use xlink:href="#DejaVuSans-54"/>
      <use x="57.958984" xlink:href="#DejaVuSans-69"/>
      <use x="85.742188" xlink:href="#DejaVuSans-6d"/>
      <use x="183.154297" xlink:href="#DejaVuSans-65"/>
      <use x="244.677734" xlink:href="#DejaVuSans-20"/>
      <use x="276.464844" xlink:href="#DejaVuSans-28"/>
      <use x="315.478516" xlink:href="#DejaVuSans-68"/>
      <use x="378.857422" xlink:href="#DejaVuSans-6f"/>
      <use x="440.039062" xlink:href="#DejaVuSans-75"/>
      <use x="503.417969" xlink:href="#DejaVuSans-72"/>
      <use x="542.78125" xlink:href="#DejaVuSans-3a"/>
      <use x="576.472656" xlink:href="#DejaVuSans-6d"/>
      <use x="673.884766" xlink:href="#DejaVuSans-69"/>
      <use x="701.667969" xlink:href="#DejaVuSans-6e"/>
      <use x="765.046875" xlink:href="#DejaVuSans-75"/>
      <use x="828.425781" xlink:href="#DejaVuSans-74"/>
      <use x="867.634766" xlink:href="#DejaVuSans-65"/>
      <use x="929.158203" xlink:href="#DejaVuSans-29"/>
     </g>
    </g>
   </g>
   <g id="matplotlib.axis_2">
    <g id="ytick_1">
     <g id="line2d_13">
      <defs>
       <path d="M 0 0 
L -3.5 0 
" id="m1974da6d77" style="stroke:#000000;stroke-width:0.8;"/>
      </defs>
      <g>
       <use style="stroke:#000000;stroke-width:0.8;" x="59.690625" xlink:href="#m1974da6d77" y="255.516628"/>
      </g>
     </g>
     <g id="text_14">
      <!-- 22000 -->
      <g transform="translate(20.878125 259.315847)scale(0.1 -0.1)">
       <use xlink:href="#DejaVuSans-32"/>
       <use x="63.623047" xlink:href="#DejaVuSans-32"/>
       <use x="127.246094" xlink:href="#DejaVuSans-30"/>
       <use x="190.869141" xlink:href="#DejaVuSans-30"/>
       <use x="254.492188" xlink:href="#DejaVuSans-30"/>
      </g>
     </g>
    </g>
    <g id="ytick_2">
     <g id="line2d_14">
      <g>
       <use style="stroke:#000000;stroke-width:0.8;" x="59.690625" xlink:href="#m1974da6d77" y="222.155254"/>
      </g>
     </g>
     <g id="text_15">
      <!-- 24000 -->
      <g transform="translate(20.878125 225.954473)scale(0.1 -0.1)">
       <use xlink:href="#DejaVuSans-32"/>
       <use x="63.623047" xlink:href="#DejaVuSans-34"/>
       <use x="127.246094" xlink:href="#DejaVuSans-30"/>
       <use x="190.869141" xlink:href="#DejaVuSans-30"/>
       <use x="254.492188" xlink:href="#DejaVuSans-30"/>
      </g>
     </g>
    </g>
    <g id="ytick_3">
     <g id="line2d_15">
      <g>
       <use style="stroke:#000000;stroke-width:0.8;" x="59.690625" xlink:href="#m1974da6d77" y="188.793881"/>
      </g>
     </g>
     <g id="text_16">
      <!-- 26000 -->
      <g transform="translate(20.878125 192.5931)scale(0.1 -0.1)">
       <use xlink:href="#DejaVuSans-32"/>
       <use x="63.623047" xlink:href="#DejaVuSans-36"/>
       <use x="127.246094" xlink:href="#DejaVuSans-30"/>
       <use x="190.869141" xlink:href="#DejaVuSans-30"/>
       <use x="254.492188" xlink:href="#DejaVuSans-30"/>
      </g>
     </g>
    </g>
    <g id="ytick_4">
     <g id="line2d_16">
      <g>
       <use style="stroke:#000000;stroke-width:0.8;" x="59.690625" xlink:href="#m1974da6d77" y="155.432507"/>
      </g>
     </g>
     <g id="text_17">
      <!-- 28000 -->
      <g transform="translate(20.878125 159.231726)scale(0.1 -0.1)">
       <defs>
        <path d="M 2034 2216 
Q 1584 2216 1326 1975 
Q 1069 1734 1069 1313 
Q 1069 891 1326 650 
Q 1584 409 2034 409 
Q 2484 409 2743 651 
Q 3003 894 3003 1313 
Q 3003 1734 2745 1975 
Q 2488 2216 2034 2216 
z
M 1403 2484 
Q 997 2584 770 2862 
Q 544 3141 544 3541 
Q 544 4100 942 4425 
Q 1341 4750 2034 4750 
Q 2731 4750 3128 4425 
Q 3525 4100 3525 3541 
Q 3525 3141 3298 2862 
Q 3072 2584 2669 2484 
Q 3125 2378 3379 2068 
Q 3634 1759 3634 1313 
Q 3634 634 3220 271 
Q 2806 -91 2034 -91 
Q 1263 -91 848 271 
Q 434 634 434 1313 
Q 434 1759 690 2068 
Q 947 2378 1403 2484 
z
M 1172 3481 
Q 1172 3119 1398 2916 
Q 1625 2713 2034 2713 
Q 2441 2713 2670 2916 
Q 2900 3119 2900 3481 
Q 2900 3844 2670 4047 
Q 2441 4250 2034 4250 
Q 1625 4250 1398 4047 
Q 1172 3844 1172 3481 
z
" id="DejaVuSans-38" transform="scale(0.015625)"/>
       </defs>
       <use xlink:href="#DejaVuSans-32"/>
       <use x="63.623047" xlink:href="#DejaVuSans-38"/>
       <use x="127.246094" xlink:href="#DejaVuSans-30"/>
       <use x="190.869141" xlink:href="#DejaVuSans-30"/>
       <use x="254.492188" xlink:href="#DejaVuSans-30"/>
      </g>
     </g>
    </g>
    <g id="ytick_5">
     <g id="line2d_17">
      <g>
       <use style="stroke:#000000;stroke-width:0.8;" x="59.690625" xlink:href="#m1974da6d77" y="122.071134"/>
      </g>
     </g>
     <g id="text_18">
      <!-- 30000 -->
      <g transform="translate(20.878125 125.870353)scale(0.1 -0.1)">
       <use xlink:href="#DejaVuSans-33"/>
       <use x="63.623047" xlink:href="#DejaVuSans-30"/>
       <use x="127.246094" xlink:href="#DejaVuSans-30"/>
       <use x="190.869141" xlink:href="#DejaVuSans-30"/>
       <use x="254.492188" xlink:href="#DejaVuSans-30"/>
      </g>
     </g>
    </g>
    <g id="ytick_6">
     <g id="line2d_18">
      <g>
       <use style="stroke:#000000;stroke-width:0.8;" x="59.690625" xlink:href="#m1974da6d77" y="88.70976"/>
      </g>
     </g>
     <g id="text_19">
      <!-- 32000 -->
      <g transform="translate(20.878125 92.508979)scale(0.1 -0.1)">
       <use xlink:href="#DejaVuSans-33"/>
       <use x="63.623047" xlink:href="#DejaVuSans-32"/>
       <use x="127.246094" xlink:href="#DejaVuSans-30"/>
       <use x="190.869141" xlink:href="#DejaVuSans-30"/>
       <use x="254.492188" xlink:href="#DejaVuSans-30"/>
      </g>
     </g>
    </g>
    <g id="ytick_7">
     <g id="line2d_19">
      <g>
       <use style="stroke:#000000;stroke-width:0.8;" x="59.690625" xlink:href="#m1974da6d77" y="55.348387"/>
      </g>
     </g>
     <g id="text_20">
      <!-- 34000 -->
      <g transform="translate(20.878125 59.147606)scale(0.1 -0.1)">
       <use xlink:href="#DejaVuSans-33"/>
       <use x="63.623047" xlink:href="#DejaVuSans-34"/>
       <use x="127.246094" xlink:href="#DejaVuSans-30"/>
       <use x="190.869141" xlink:href="#DejaVuSans-30"/>
       <use x="254.492188" xlink:href="#DejaVuSans-30"/>
      </g>
     </g>
    </g>
    <g id="text_21">
     <!-- Code region coverage -->
     <g transform="translate(14.798438 210.379594)rotate(-90)scale(0.1 -0.1)">
      <defs>
       <path d="M 4122 4306 
L 4122 3641 
Q 3803 3938 3442 4084 
Q 3081 4231 2675 4231 
Q 1875 4231 1450 3742 
Q 1025 3253 1025 2328 
Q 1025 1406 1450 917 
Q 1875 428 2675 428 
Q 3081 428 3442 575 
Q 3803 722 4122 1019 
L 4122 359 
Q 3791 134 3420 21 
Q 3050 -91 2638 -91 
Q 1578 -91 968 557 
Q 359 1206 359 2328 
Q 359 3453 968 4101 
Q 1578 4750 2638 4750 
Q 3056 4750 3426 4639 
Q 3797 4528 4122 4306 
z
" id="DejaVuSans-43" transform="scale(0.015625)"/>
       <path d="M 2906 2969 
L 2906 4863 
L 3481 4863 
L 3481 0 
L 2906 0 
L 2906 525 
Q 2725 213 2448 61 
Q 2172 -91 1784 -91 
Q 1150 -91 751 415 
Q 353 922 353 1747 
Q 353 2572 751 3078 
Q 1150 3584 1784 3584 
Q 2172 3584 2448 3432 
Q 2725 3281 2906 2969 
z
M 947 1747 
Q 947 1113 1208 752 
Q 1469 391 1925 391 
Q 2381 391 2643 752 
Q 2906 1113 2906 1747 
Q 2906 2381 2643 2742 
Q 2381 3103 1925 3103 
Q 1469 3103 1208 2742 
Q 947 2381 947 1747 
z
" id="DejaVuSans-64" transform="scale(0.015625)"/>
       <path d="M 2906 1791 
Q 2906 2416 2648 2759 
Q 2391 3103 1925 3103 
Q 1463 3103 1205 2759 
Q 947 2416 947 1791 
Q 947 1169 1205 825 
Q 1463 481 1925 481 
Q 2391 481 2648 825 
Q 2906 1169 2906 1791 
z
M 3481 434 
Q 3481 -459 3084 -895 
Q 2688 -1331 1869 -1331 
Q 1566 -1331 1297 -1286 
Q 1028 -1241 775 -1147 
L 775 -588 
Q 1028 -725 1275 -790 
Q 1522 -856 1778 -856 
Q 2344 -856 2625 -561 
Q 2906 -266 2906 331 
L 2906 616 
Q 2728 306 2450 153 
Q 2172 0 1784 0 
Q 1141 0 747 490 
Q 353 981 353 1791 
Q 353 2603 747 3093 
Q 1141 3584 1784 3584 
Q 2172 3584 2450 3431 
Q 2728 3278 2906 2969 
L 2906 3500 
L 3481 3500 
L 3481 434 
z
" id="DejaVuSans-67" transform="scale(0.015625)"/>
       <path d="M 3122 3366 
L 3122 2828 
Q 2878 2963 2633 3030 
Q 2388 3097 2138 3097 
Q 1578 3097 1268 2742 
Q 959 2388 959 1747 
Q 959 1106 1268 751 
Q 1578 397 2138 397 
Q 2388 397 2633 464 
Q 2878 531 3122 666 
L 3122 134 
Q 2881 22 2623 -34 
Q 2366 -91 2075 -91 
Q 1284 -91 818 406 
Q 353 903 353 1747 
Q 353 2603 823 3093 
Q 1294 3584 2113 3584 
Q 2378 3584 2631 3529 
Q 2884 3475 3122 3366 
z
" id="DejaVuSans-63" transform="scale(0.015625)"/>
       <path d="M 191 3500 
L 800 3500 
L 1894 563 
L 2988 3500 
L 3597 3500 
L 2284 0 
L 1503 0 
L 191 3500 
z
" id="DejaVuSans-76" transform="scale(0.015625)"/>
       <path d="M 2194 1759 
Q 1497 1759 1228 1600 
Q 959 1441 959 1056 
Q 959 750 1161 570 
Q 1363 391 1709 391 
Q 2188 391 2477 730 
Q 2766 1069 2766 1631 
L 2766 1759 
L 2194 1759 
z
M 3341 1997 
L 3341 0 
L 2766 0 
L 2766 531 
Q 2569 213 2275 61 
Q 1981 -91 1556 -91 
Q 1019 -91 701 211 
Q 384 513 384 1019 
Q 384 1609 779 1909 
Q 1175 2209 1959 2209 
L 2766 2209 
L 2766 2266 
Q 2766 2663 2505 2880 
Q 2244 3097 1772 3097 
Q 1472 3097 1187 3025 
Q 903 2953 641 2809 
L 641 3341 
Q 956 3463 1253 3523 
Q 1550 3584 1831 3584 
Q 2591 3584 2966 3190 
Q 3341 2797 3341 1997 
z
" id="DejaVuSans-61" transform="scale(0.015625)"/>
      </defs>
      <use xlink:href="#DejaVuSans-43"/>
      <use x="69.824219" xlink:href="#DejaVuSans-6f"/>
      <use x="131.005859" xlink:href="#DejaVuSans-64"/>
      <use x="194.482422" xlink:href="#DejaVuSans-65"/>
      <use x="256.005859" xlink:href="#DejaVuSans-20"/>
      <use x="287.792969" xlink:href="#DejaVuSans-72"/>
      <use x="326.65625" xlink:href="#DejaVuSans-65"/>
      <use x="388.179688" xlink:href="#DejaVuSans-67"/>
      <use x="451.65625" xlink:href="#DejaVuSans-69"/>
      <use x="479.439453" xlink:href="#DejaVuSans-6f"/>
      <use x="540.621094" xlink:href="#DejaVuSans-6e"/>
      <use x="604" xlink:href="#DejaVuSans-20"/>
      <use x="635.787109" xlink:href="#DejaVuSans-63"/>
      <use x="690.767578" xlink:href="#DejaVuSans-6f"/>
      <use x="751.949219" xlink:href="#DejaVuSans-76"/>
      <use x="811.128906" xlink:href="#DejaVuSans-65"/>
      <use x="872.652344" xlink:href="#DejaVuSans-72"/>
      <use x="913.765625" xlink:href="#DejaVuSans-61"/>
      <use x="975.044922" xlink:href="#DejaVuSans-67"/>
      <use x="1038.521484" xlink:href="#DejaVuSans-65"/>
     </g>
    </g>
   </g>
   <g id="line2d_20">
    <path clip-path="url(#p6c4ed8c803)" d="M 92.15608 261.288146 
L 99.291344 240.27048 
L 106.426609 226.709082 
L 113.561874 216.900838 
L 120.697138 207.95165 
L 127.832403 185.090768 
L 134.967668 169.777898 
L 142.102933 165.591046 
L 149.238197 157.475892 
L 156.373462 143.539178 
L 163.508727 135.248876 
L 170.643992 124.573237 
L 177.779256 122.413088 
L 184.914521 122.254621 
L 192.049786 108.292887 
L 199.185051 103.747399 
L 206.320315 98.65979 
L 213.45558 96.9667 
L 220.590845 89.877408 
L 227.72611 85.682216 
L 234.861374 83.221814 
L 241.996639 79.401937 
L 249.131904 78.73471 
L 256.267168 76.858132 
L 263.402433 76.616262 
L 270.537698 75.57372 
L 277.672963 73.855609 
L 284.808227 72.529494 
L 291.943492 72.346007 
L 299.078757 72.154179 
L 306.214022 71.812225 
L 313.349286 70.944829 
L 320.484551 70.427728 
L 327.619816 69.393525 
L 334.755081 68.384344 
L 341.890345 67.058229 
L 349.02561 65.815518 
L 356.160875 65.715434 
L 363.296139 65.031526 
L 370.431404 62.796314 
L 377.566669 62.312574 
L 384.701934 62.062363 
L 391.837198 60.410975 
L 398.972463 59.652004 
L 406.107728 58.893033 
L 413.242993 58.759587 
L 420.378257 57.350069 
L 427.513522 56.841308 
L 434.648787 56.1574 
L 441.784052 55.823786 
L 448.919316 54.93137 
L 456.054581 54.155718 
L 463.189846 53.013091 
L 470.325111 52.846284 
L 477.460375 52.470968 
L 484.59564 52.129014 
L 491.730905 51.228257 
L 498.866169 50.827921 
L 506.001434 50.385883 
L 513.136699 50.31916 
L 520.271964 50.018907 
L 527.407228 49.076449 
L 534.542493 48.692793 
L 541.677758 48.484284 
L 548.813023 48.200713 
L 555.948287 47.792036 
L 563.083552 47.750334 
L 570.218817 47.64191 
L 577.354082 46.532644 
L 584.489346 46.148988 
L 591.624611 45.70695 
L 598.759876 45.598525 
L 605.89514 45.47342 
L 613.030405 45.323294 
L 620.16567 44.772831 
L 627.300935 44.73113 
L 634.436199 43.329952 
L 641.571464 43.054721 
L 648.706729 42.420855 
L 655.841994 41.853711 
L 662.977258 41.728606 
L 670.112523 41.461715 
L 677.247788 41.261547 
L 684.383053 40.911252 
L 691.518317 40.736105 
L 698.653582 40.627681 
L 705.788847 40.435853 
L 712.924112 40.394151 
L 720.059376 40.260706 
L 727.194641 40.160622 
L 734.329906 39.468373 
L 741.46517 39.351608 
" style="fill:none;stroke:#1f77b4;stroke-linecap:square;stroke-width:1.5;"/>
    <defs>
     <path d="M 0 3 
C 0.795609 3 1.55874 2.683901 2.12132 2.12132 
C 2.683901 1.55874 3 0.795609 3 0 
C 3 -0.795609 2.683901 -1.55874 2.12132 -2.12132 
C 1.55874 -2.683901 0.795609 -3 0 -3 
C -0.795609 -3 -1.55874 -2.683901 -2.12132 -2.12132 
C -2.683901 -1.55874 -3 -0.795609 -3 0 
C -3 0.795609 -2.683901 1.55874 -2.12132 2.12132 
C -1.55874 2.683901 -0.795609 3 0 3 
z
" id="m5a472393d1" style="stroke:#ffffff;stroke-width:0.75;"/>
    </defs>
    <g clip-path="url(#p6c4ed8c803)">
     <use style="fill:#1f77b4;stroke:#ffffff;stroke-width:0.75;" x="92.15608" xlink:href="#m5a472393d1" y="261.288146"/>
     <use style="fill:#1f77b4;stroke:#ffffff;stroke-width:0.75;" x="99.291344" xlink:href="#m5a472393d1" y="240.27048"/>
     <use style="fill:#1f77b4;stroke:#ffffff;stroke-width:0.75;" x="106.426609" xlink:href="#m5a472393d1" y="226.709082"/>
     <use style="fill:#1f77b4;stroke:#ffffff;stroke-width:0.75;" x="113.561874" xlink:href="#m5a472393d1" y="216.900838"/>
     <use style="fill:#1f77b4;stroke:#ffffff;stroke-width:0.75;" x="120.697138" xlink:href="#m5a472393d1" y="207.95165"/>
     <use style="fill:#1f77b4;stroke:#ffffff;stroke-width:0.75;" x="127.832403" xlink:href="#m5a472393d1" y="185.090768"/>
     <use style="fill:#1f77b4;stroke:#ffffff;stroke-width:0.75;" x="134.967668" xlink:href="#m5a472393d1" y="169.777898"/>
     <use style="fill:#1f77b4;stroke:#ffffff;stroke-width:0.75;" x="142.102933" xlink:href="#m5a472393d1" y="165.591046"/>
     <use style="fill:#1f77b4;stroke:#ffffff;stroke-width:0.75;" x="149.238197" xlink:href="#m5a472393d1" y="157.475892"/>
     <use style="fill:#1f77b4;stroke:#ffffff;stroke-width:0.75;" x="156.373462" xlink:href="#m5a472393d1" y="143.539178"/>
     <use style="fill:#1f77b4;stroke:#ffffff;stroke-width:0.75;" x="163.508727" xlink:href="#m5a472393d1" y="135.248876"/>
     <use style="fill:#1f77b4;stroke:#ffffff;stroke-width:0.75;" x="170.643992" xlink:href="#m5a472393d1" y="124.573237"/>
     <use style="fill:#1f77b4;stroke:#ffffff;stroke-width:0.75;" x="177.779256" xlink:href="#m5a472393d1" y="122.413088"/>
     <use style="fill:#1f77b4;stroke:#ffffff;stroke-width:0.75;" x="184.914521" xlink:href="#m5a472393d1" y="122.254621"/>
     <use style="fill:#1f77b4;stroke:#ffffff;stroke-width:0.75;" x="192.049786" xlink:href="#m5a472393d1" y="108.292887"/>
     <use style="fill:#1f77b4;stroke:#ffffff;stroke-width:0.75;" x="199.185051" xlink:href="#m5a472393d1" y="103.747399"/>
     <use style="fill:#1f77b4;stroke:#ffffff;stroke-width:0.75;" x="206.320315" xlink:href="#m5a472393d1" y="98.65979"/>
     <use style="fill:#1f77b4;stroke:#ffffff;stroke-width:0.75;" x="213.45558" xlink:href="#m5a472393d1" y="96.9667"/>
     <use style="fill:#1f77b4;stroke:#ffffff;stroke-width:0.75;" x="220.590845" xlink:href="#m5a472393d1" y="89.877408"/>
     <use style="fill:#1f77b4;stroke:#ffffff;stroke-width:0.75;" x="227.72611" xlink:href="#m5a472393d1" y="85.682216"/>
     <use style="fill:#1f77b4;stroke:#ffffff;stroke-width:0.75;" x="234.861374" xlink:href="#m5a472393d1" y="83.221814"/>
     <use style="fill:#1f77b4;stroke:#ffffff;stroke-width:0.75;" x="241.996639" xlink:href="#m5a472393d1" y="79.401937"/>
     <use style="fill:#1f77b4;stroke:#ffffff;stroke-width:0.75;" x="249.131904" xlink:href="#m5a472393d1" y="78.73471"/>
     <use style="fill:#1f77b4;stroke:#ffffff;stroke-width:0.75;" x="256.267168" xlink:href="#m5a472393d1" y="76.858132"/>
     <use style="fill:#1f77b4;stroke:#ffffff;stroke-width:0.75;" x="263.402433" xlink:href="#m5a472393d1" y="76.616262"/>
     <use style="fill:#1f77b4;stroke:#ffffff;stroke-width:0.75;" x="270.537698" xlink:href="#m5a472393d1" y="75.57372"/>
     <use style="fill:#1f77b4;stroke:#ffffff;stroke-width:0.75;" x="277.672963" xlink:href="#m5a472393d1" y="73.855609"/>
     <use style="fill:#1f77b4;stroke:#ffffff;stroke-width:0.75;" x="284.808227" xlink:href="#m5a472393d1" y="72.529494"/>
     <use style="fill:#1f77b4;stroke:#ffffff;stroke-width:0.75;" x="291.943492" xlink:href="#m5a472393d1" y="72.346007"/>
     <use style="fill:#1f77b4;stroke:#ffffff;stroke-width:0.75;" x="299.078757" xlink:href="#m5a472393d1" y="72.154179"/>
     <use style="fill:#1f77b4;stroke:#ffffff;stroke-width:0.75;" x="306.214022" xlink:href="#m5a472393d1" y="71.812225"/>
     <use style="fill:#1f77b4;stroke:#ffffff;stroke-width:0.75;" x="313.349286" xlink:href="#m5a472393d1" y="70.944829"/>
     <use style="fill:#1f77b4;stroke:#ffffff;stroke-width:0.75;" x="320.484551" xlink:href="#m5a472393d1" y="70.427728"/>
     <use style="fill:#1f77b4;stroke:#ffffff;stroke-width:0.75;" x="327.619816" xlink:href="#m5a472393d1" y="69.393525"/>
     <use style="fill:#1f77b4;stroke:#ffffff;stroke-width:0.75;" x="334.755081" xlink:href="#m5a472393d1" y="68.384344"/>
     <use style="fill:#1f77b4;stroke:#ffffff;stroke-width:0.75;" x="341.890345" xlink:href="#m5a472393d1" y="67.058229"/>
     <use style="fill:#1f77b4;stroke:#ffffff;stroke-width:0.75;" x="349.02561" xlink:href="#m5a472393d1" y="65.815518"/>
     <use style="fill:#1f77b4;stroke:#ffffff;stroke-width:0.75;" x="356.160875" xlink:href="#m5a472393d1" y="65.715434"/>
     <use style="fill:#1f77b4;stroke:#ffffff;stroke-width:0.75;" x="363.296139" xlink:href="#m5a472393d1" y="65.031526"/>
     <use style="fill:#1f77b4;stroke:#ffffff;stroke-width:0.75;" x="370.431404" xlink:href="#m5a472393d1" y="62.796314"/>
     <use style="fill:#1f77b4;stroke:#ffffff;stroke-width:0.75;" x="377.566669" xlink:href="#m5a472393d1" y="62.312574"/>
     <use style="fill:#1f77b4;stroke:#ffffff;stroke-width:0.75;" x="384.701934" xlink:href="#m5a472393d1" y="62.062363"/>
     <use style="fill:#1f77b4;stroke:#ffffff;stroke-width:0.75;" x="391.837198" xlink:href="#m5a472393d1" y="60.410975"/>
     <use style="fill:#1f77b4;stroke:#ffffff;stroke-width:0.75;" x="398.972463" xlink:href="#m5a472393d1" y="59.652004"/>
     <use style="fill:#1f77b4;stroke:#ffffff;stroke-width:0.75;" x="406.107728" xlink:href="#m5a472393d1" y="58.893033"/>
     <use style="fill:#1f77b4;stroke:#ffffff;stroke-width:0.75;" x="413.242993" xlink:href="#m5a472393d1" y="58.759587"/>
     <use style="fill:#1f77b4;stroke:#ffffff;stroke-width:0.75;" x="420.378257" xlink:href="#m5a472393d1" y="57.350069"/>
     <use style="fill:#1f77b4;stroke:#ffffff;stroke-width:0.75;" x="427.513522" xlink:href="#m5a472393d1" y="56.841308"/>
     <use style="fill:#1f77b4;stroke:#ffffff;stroke-width:0.75;" x="434.648787" xlink:href="#m5a472393d1" y="56.1574"/>
     <use style="fill:#1f77b4;stroke:#ffffff;stroke-width:0.75;" x="441.784052" xlink:href="#m5a472393d1" y="55.823786"/>
     <use style="fill:#1f77b4;stroke:#ffffff;stroke-width:0.75;" x="448.919316" xlink:href="#m5a472393d1" y="54.93137"/>
     <use style="fill:#1f77b4;stroke:#ffffff;stroke-width:0.75;" x="456.054581" xlink:href="#m5a472393d1" y="54.155718"/>
     <use style="fill:#1f77b4;stroke:#ffffff;stroke-width:0.75;" x="463.189846" xlink:href="#m5a472393d1" y="53.013091"/>
     <use style="fill:#1f77b4;stroke:#ffffff;stroke-width:0.75;" x="470.325111" xlink:href="#m5a472393d1" y="52.846284"/>
     <use style="fill:#1f77b4;stroke:#ffffff;stroke-width:0.75;" x="477.460375" xlink:href="#m5a472393d1" y="52.470968"/>
     <use style="fill:#1f77b4;stroke:#ffffff;stroke-width:0.75;" x="484.59564" xlink:href="#m5a472393d1" y="52.129014"/>
     <use style="fill:#1f77b4;stroke:#ffffff;stroke-width:0.75;" x="491.730905" xlink:href="#m5a472393d1" y="51.228257"/>
     <use style="fill:#1f77b4;stroke:#ffffff;stroke-width:0.75;" x="498.866169" xlink:href="#m5a472393d1" y="50.827921"/>
     <use style="fill:#1f77b4;stroke:#ffffff;stroke-width:0.75;" x="506.001434" xlink:href="#m5a472393d1" y="50.385883"/>
     <use style="fill:#1f77b4;stroke:#ffffff;stroke-width:0.75;" x="513.136699" xlink:href="#m5a472393d1" y="50.31916"/>
     <use style="fill:#1f77b4;stroke:#ffffff;stroke-width:0.75;" x="520.271964" xlink:href="#m5a472393d1" y="50.018907"/>
     <use style="fill:#1f77b4;stroke:#ffffff;stroke-width:0.75;" x="527.407228" xlink:href="#m5a472393d1" y="49.076449"/>
     <use style="fill:#1f77b4;stroke:#ffffff;stroke-width:0.75;" x="534.542493" xlink:href="#m5a472393d1" y="48.692793"/>
     <use style="fill:#1f77b4;stroke:#ffffff;stroke-width:0.75;" x="541.677758" xlink:href="#m5a472393d1" y="48.484284"/>
     <use style="fill:#1f77b4;stroke:#ffffff;stroke-width:0.75;" x="548.813023" xlink:href="#m5a472393d1" y="48.200713"/>
     <use style="fill:#1f77b4;stroke:#ffffff;stroke-width:0.75;" x="555.948287" xlink:href="#m5a472393d1" y="47.792036"/>
     <use style="fill:#1f77b4;stroke:#ffffff;stroke-width:0.75;" x="563.083552" xlink:href="#m5a472393d1" y="47.750334"/>
     <use style="fill:#1f77b4;stroke:#ffffff;stroke-width:0.75;" x="570.218817" xlink:href="#m5a472393d1" y="47.64191"/>
     <use style="fill:#1f77b4;stroke:#ffffff;stroke-width:0.75;" x="577.354082" xlink:href="#m5a472393d1" y="46.532644"/>
     <use style="fill:#1f77b4;stroke:#ffffff;stroke-width:0.75;" x="584.489346" xlink:href="#m5a472393d1" y="46.148988"/>
     <use style="fill:#1f77b4;stroke:#ffffff;stroke-width:0.75;" x="591.624611" xlink:href="#m5a472393d1" y="45.70695"/>
     <use style="fill:#1f77b4;stroke:#ffffff;stroke-width:0.75;" x="598.759876" xlink:href="#m5a472393d1" y="45.598525"/>
     <use style="fill:#1f77b4;stroke:#ffffff;stroke-width:0.75;" x="605.89514" xlink:href="#m5a472393d1" y="45.47342"/>
     <use style="fill:#1f77b4;stroke:#ffffff;stroke-width:0.75;" x="613.030405" xlink:href="#m5a472393d1" y="45.323294"/>
     <use style="fill:#1f77b4;stroke:#ffffff;stroke-width:0.75;" x="620.16567" xlink:href="#m5a472393d1" y="44.772831"/>
     <use style="fill:#1f77b4;stroke:#ffffff;stroke-width:0.75;" x="627.300935" xlink:href="#m5a472393d1" y="44.73113"/>
     <use style="fill:#1f77b4;stroke:#ffffff;stroke-width:0.75;" x="634.436199" xlink:href="#m5a472393d1" y="43.329952"/>
     <use style="fill:#1f77b4;stroke:#ffffff;stroke-width:0.75;" x="641.571464" xlink:href="#m5a472393d1" y="43.054721"/>
     <use style="fill:#1f77b4;stroke:#ffffff;stroke-width:0.75;" x="648.706729" xlink:href="#m5a472393d1" y="42.420855"/>
     <use style="fill:#1f77b4;stroke:#ffffff;stroke-width:0.75;" x="655.841994" xlink:href="#m5a472393d1" y="41.853711"/>
     <use style="fill:#1f77b4;stroke:#ffffff;stroke-width:0.75;" x="662.977258" xlink:href="#m5a472393d1" y="41.728606"/>
     <use style="fill:#1f77b4;stroke:#ffffff;stroke-width:0.75;" x="670.112523" xlink:href="#m5a472393d1" y="41.461715"/>
     <use style="fill:#1f77b4;stroke:#ffffff;stroke-width:0.75;" x="677.247788" xlink:href="#m5a472393d1" y="41.261547"/>
     <use style="fill:#1f77b4;stroke:#ffffff;stroke-width:0.75;" x="684.383053" xlink:href="#m5a472393d1" y="40.911252"/>
     <use style="fill:#1f77b4;stroke:#ffffff;stroke-width:0.75;" x="691.518317" xlink:href="#m5a472393d1" y="40.736105"/>
     <use style="fill:#1f77b4;stroke:#ffffff;stroke-width:0.75;" x="698.653582" xlink:href="#m5a472393d1" y="40.627681"/>
     <use style="fill:#1f77b4;stroke:#ffffff;stroke-width:0.75;" x="705.788847" xlink:href="#m5a472393d1" y="40.435853"/>
     <use style="fill:#1f77b4;stroke:#ffffff;stroke-width:0.75;" x="712.924112" xlink:href="#m5a472393d1" y="40.394151"/>
     <use style="fill:#1f77b4;stroke:#ffffff;stroke-width:0.75;" x="720.059376" xlink:href="#m5a472393d1" y="40.260706"/>
     <use style="fill:#1f77b4;stroke:#ffffff;stroke-width:0.75;" x="727.194641" xlink:href="#m5a472393d1" y="40.160622"/>
     <use style="fill:#1f77b4;stroke:#ffffff;stroke-width:0.75;" x="734.329906" xlink:href="#m5a472393d1" y="39.468373"/>
     <use style="fill:#1f77b4;stroke:#ffffff;stroke-width:0.75;" x="741.46517" xlink:href="#m5a472393d1" y="39.351608"/>
    </g>
   </g>
   <g id="line2d_21">
    <path clip-path="url(#p6c4ed8c803)" d="M 92.15608 265.808612 
L 99.291344 250.337275 
L 106.426609 239.728358 
L 113.561874 230.478917 
L 120.697138 223.764941 
L 127.832403 216.809094 
L 134.967668 207.259401 
L 142.102933 200.753933 
L 149.238197 192.555376 
L 156.373462 184.515285 
L 163.508727 177.317568 
L 170.643992 168.468464 
L 177.779256 158.309926 
L 184.914521 151.879521 
L 192.049786 144.07296 
L 199.185051 141.270604 
L 206.320315 137.917786 
L 213.45558 130.71173 
L 220.590845 124.673321 
L 227.72611 122.121176 
L 234.861374 111.954297 
L 241.996639 108.593139 
L 249.131904 106.858348 
L 256.267168 105.815805 
L 263.402433 96.883297 
L 270.537698 93.705626 
L 277.672963 88.93495 
L 284.808227 84.964946 
L 291.943492 80.286014 
L 299.078757 78.73471 
L 306.214022 76.157544 
L 313.349286 74.422752 
L 320.484551 72.604557 
L 327.619816 70.519471 
L 334.755081 68.05907 
L 341.890345 65.915602 
L 349.02561 65.315097 
L 356.160875 63.521923 
L 363.296139 62.287553 
L 370.431404 61.945598 
L 377.566669 61.186627 
L 384.701934 60.619484 
L 391.837198 60.03566 
L 398.972463 58.551079 
L 406.107728 57.633641 
L 413.242993 57.383431 
L 420.378257 55.957232 
L 427.513522 55.390089 
L 434.648787 54.597756 
L 441.784052 54.055634 
L 448.919316 53.847125 
L 456.054581 53.847125 
L 463.189846 52.871305 
L 470.325111 52.862965 
L 477.460375 52.546032 
L 484.59564 52.370884 
L 491.730905 50.544349 
L 498.866169 50.360862 
L 506.001434 50.169034 
L 513.136699 50.152353 
L 520.271964 50.052269 
L 527.407228 50.035588 
L 534.542493 49.501806 
L 541.677758 49.026407 
L 548.813023 48.184032 
L 555.948287 47.917141 
L 563.083552 47.825397 
L 570.218817 47.541825 
L 577.354082 47.049745 
L 584.489346 46.666089 
L 591.624611 46.057244 
L 598.759876 45.873757 
L 605.89514 45.339975 
L 613.030405 45.039722 
L 620.16567 44.998021 
L 627.300935 44.622705 
L 634.436199 44.347474 
L 641.571464 43.638545 
L 648.706729 43.471738 
L 655.841994 43.471738 
L 662.977258 43.405015 
L 670.112523 43.254889 
L 677.247788 42.212346 
L 684.383053 41.920434 
L 691.518317 41.778648 
L 698.653582 41.57014 
L 705.788847 41.211505 
L 712.924112 39.743604 
L 720.059376 39.101398 
L 727.194641 38.934591 
L 734.329906 38.592637 
L 741.46517 38.133918 
" style="fill:none;stroke:#d62728;stroke-linecap:square;stroke-width:1.5;"/>
    <defs>
     <path d="M 0 -3 
L -3 3 
L 3 3 
z
" id="m77e7c24317" style="stroke:#ffffff;stroke-linejoin:miter;stroke-width:0.75;"/>
    </defs>
    <g clip-path="url(#p6c4ed8c803)">
     <use style="fill:#d62728;stroke:#ffffff;stroke-linejoin:miter;stroke-width:0.75;" x="92.15608" xlink:href="#m77e7c24317" y="265.808612"/>
     <use style="fill:#d62728;stroke:#ffffff;stroke-linejoin:miter;stroke-width:0.75;" x="99.291344" xlink:href="#m77e7c24317" y="250.337275"/>
     <use style="fill:#d62728;stroke:#ffffff;stroke-linejoin:miter;stroke-width:0.75;" x="106.426609" xlink:href="#m77e7c24317" y="239.728358"/>
     <use style="fill:#d62728;stroke:#ffffff;stroke-linejoin:miter;stroke-width:0.75;" x="113.561874" xlink:href="#m77e7c24317" y="230.478917"/>
     <use style="fill:#d62728;stroke:#ffffff;stroke-linejoin:miter;stroke-width:0.75;" x="120.697138" xlink:href="#m77e7c24317" y="223.764941"/>
     <use style="fill:#d62728;stroke:#ffffff;stroke-linejoin:miter;stroke-width:0.75;" x="127.832403" xlink:href="#m77e7c24317" y="216.809094"/>
     <use style="fill:#d62728;stroke:#ffffff;stroke-linejoin:miter;stroke-width:0.75;" x="134.967668" xlink:href="#m77e7c24317" y="207.259401"/>
     <use style="fill:#d62728;stroke:#ffffff;stroke-linejoin:miter;stroke-width:0.75;" x="142.102933" xlink:href="#m77e7c24317" y="200.753933"/>
     <use style="fill:#d62728;stroke:#ffffff;stroke-linejoin:miter;stroke-width:0.75;" x="149.238197" xlink:href="#m77e7c24317" y="192.555376"/>
     <use style="fill:#d62728;stroke:#ffffff;stroke-linejoin:miter;stroke-width:0.75;" x="156.373462" xlink:href="#m77e7c24317" y="184.515285"/>
     <use style="fill:#d62728;stroke:#ffffff;stroke-linejoin:miter;stroke-width:0.75;" x="163.508727" xlink:href="#m77e7c24317" y="177.317568"/>
     <use style="fill:#d62728;stroke:#ffffff;stroke-linejoin:miter;stroke-width:0.75;" x="170.643992" xlink:href="#m77e7c24317" y="168.468464"/>
     <use style="fill:#d62728;stroke:#ffffff;stroke-linejoin:miter;stroke-width:0.75;" x="177.779256" xlink:href="#m77e7c24317" y="158.309926"/>
     <use style="fill:#d62728;stroke:#ffffff;stroke-linejoin:miter;stroke-width:0.75;" x="184.914521" xlink:href="#m77e7c24317" y="151.879521"/>
     <use style="fill:#d62728;stroke:#ffffff;stroke-linejoin:miter;stroke-width:0.75;" x="192.049786" xlink:href="#m77e7c24317" y="144.07296"/>
     <use style="fill:#d62728;stroke:#ffffff;stroke-linejoin:miter;stroke-width:0.75;" x="199.185051" xlink:href="#m77e7c24317" y="141.270604"/>
     <use style="fill:#d62728;stroke:#ffffff;stroke-linejoin:miter;stroke-width:0.75;" x="206.320315" xlink:href="#m77e7c24317" y="137.917786"/>
     <use style="fill:#d62728;stroke:#ffffff;stroke-linejoin:miter;stroke-width:0.75;" x="213.45558" xlink:href="#m77e7c24317" y="130.71173"/>
     <use style="fill:#d62728;stroke:#ffffff;stroke-linejoin:miter;stroke-width:0.75;" x="220.590845" xlink:href="#m77e7c24317" y="124.673321"/>
     <use style="fill:#d62728;stroke:#ffffff;stroke-linejoin:miter;stroke-width:0.75;" x="227.72611" xlink:href="#m77e7c24317" y="122.121176"/>
     <use style="fill:#d62728;stroke:#ffffff;stroke-linejoin:miter;stroke-width:0.75;" x="234.861374" xlink:href="#m77e7c24317" y="111.954297"/>
     <use style="fill:#d62728;stroke:#ffffff;stroke-linejoin:miter;stroke-width:0.75;" x="241.996639" xlink:href="#m77e7c24317" y="108.593139"/>
     <use style="fill:#d62728;stroke:#ffffff;stroke-linejoin:miter;stroke-width:0.75;" x="249.131904" xlink:href="#m77e7c24317" y="106.858348"/>
     <use style="fill:#d62728;stroke:#ffffff;stroke-linejoin:miter;stroke-width:0.75;" x="256.267168" xlink:href="#m77e7c24317" y="105.815805"/>
     <use style="fill:#d62728;stroke:#ffffff;stroke-linejoin:miter;stroke-width:0.75;" x="263.402433" xlink:href="#m77e7c24317" y="96.883297"/>
     <use style="fill:#d62728;stroke:#ffffff;stroke-linejoin:miter;stroke-width:0.75;" x="270.537698" xlink:href="#m77e7c24317" y="93.705626"/>
     <use style="fill:#d62728;stroke:#ffffff;stroke-linejoin:miter;stroke-width:0.75;" x="277.672963" xlink:href="#m77e7c24317" y="88.93495"/>
     <use style="fill:#d62728;stroke:#ffffff;stroke-linejoin:miter;stroke-width:0.75;" x="284.808227" xlink:href="#m77e7c24317" y="84.964946"/>
     <use style="fill:#d62728;stroke:#ffffff;stroke-linejoin:miter;stroke-width:0.75;" x="291.943492" xlink:href="#m77e7c24317" y="80.286014"/>
     <use style="fill:#d62728;stroke:#ffffff;stroke-linejoin:miter;stroke-width:0.75;" x="299.078757" xlink:href="#m77e7c24317" y="78.73471"/>
     <use style="fill:#d62728;stroke:#ffffff;stroke-linejoin:miter;stroke-width:0.75;" x="306.214022" xlink:href="#m77e7c24317" y="76.157544"/>
     <use style="fill:#d62728;stroke:#ffffff;stroke-linejoin:miter;stroke-width:0.75;" x="313.349286" xlink:href="#m77e7c24317" y="74.422752"/>
     <use style="fill:#d62728;stroke:#ffffff;stroke-linejoin:miter;stroke-width:0.75;" x="320.484551" xlink:href="#m77e7c24317" y="72.604557"/>
     <use style="fill:#d62728;stroke:#ffffff;stroke-linejoin:miter;stroke-width:0.75;" x="327.619816" xlink:href="#m77e7c24317" y="70.519471"/>
     <use style="fill:#d62728;stroke:#ffffff;stroke-linejoin:miter;stroke-width:0.75;" x="334.755081" xlink:href="#m77e7c24317" y="68.05907"/>
     <use style="fill:#d62728;stroke:#ffffff;stroke-linejoin:miter;stroke-width:0.75;" x="341.890345" xlink:href="#m77e7c24317" y="65.915602"/>
     <use style="fill:#d62728;stroke:#ffffff;stroke-linejoin:miter;stroke-width:0.75;" x="349.02561" xlink:href="#m77e7c24317" y="65.315097"/>
     <use style="fill:#d62728;stroke:#ffffff;stroke-linejoin:miter;stroke-width:0.75;" x="356.160875" xlink:href="#m77e7c24317" y="63.521923"/>
     <use style="fill:#d62728;stroke:#ffffff;stroke-linejoin:miter;stroke-width:0.75;" x="363.296139" xlink:href="#m77e7c24317" y="62.287553"/>
     <use style="fill:#d62728;stroke:#ffffff;stroke-linejoin:miter;stroke-width:0.75;" x="370.431404" xlink:href="#m77e7c24317" y="61.945598"/>
     <use style="fill:#d62728;stroke:#ffffff;stroke-linejoin:miter;stroke-width:0.75;" x="377.566669" xlink:href="#m77e7c24317" y="61.186627"/>
     <use style="fill:#d62728;stroke:#ffffff;stroke-linejoin:miter;stroke-width:0.75;" x="384.701934" xlink:href="#m77e7c24317" y="60.619484"/>
     <use style="fill:#d62728;stroke:#ffffff;stroke-linejoin:miter;stroke-width:0.75;" x="391.837198" xlink:href="#m77e7c24317" y="60.03566"/>
     <use style="fill:#d62728;stroke:#ffffff;stroke-linejoin:miter;stroke-width:0.75;" x="398.972463" xlink:href="#m77e7c24317" y="58.551079"/>
     <use style="fill:#d62728;stroke:#ffffff;stroke-linejoin:miter;stroke-width:0.75;" x="406.107728" xlink:href="#m77e7c24317" y="57.633641"/>
     <use style="fill:#d62728;stroke:#ffffff;stroke-linejoin:miter;stroke-width:0.75;" x="413.242993" xlink:href="#m77e7c24317" y="57.383431"/>
     <use style="fill:#d62728;stroke:#ffffff;stroke-linejoin:miter;stroke-width:0.75;" x="420.378257" xlink:href="#m77e7c24317" y="55.957232"/>
     <use style="fill:#d62728;stroke:#ffffff;stroke-linejoin:miter;stroke-width:0.75;" x="427.513522" xlink:href="#m77e7c24317" y="55.390089"/>
     <use style="fill:#d62728;stroke:#ffffff;stroke-linejoin:miter;stroke-width:0.75;" x="434.648787" xlink:href="#m77e7c24317" y="54.597756"/>
     <use style="fill:#d62728;stroke:#ffffff;stroke-linejoin:miter;stroke-width:0.75;" x="441.784052" xlink:href="#m77e7c24317" y="54.055634"/>
     <use style="fill:#d62728;stroke:#ffffff;stroke-linejoin:miter;stroke-width:0.75;" x="448.919316" xlink:href="#m77e7c24317" y="53.847125"/>
     <use style="fill:#d62728;stroke:#ffffff;stroke-linejoin:miter;stroke-width:0.75;" x="456.054581" xlink:href="#m77e7c24317" y="53.847125"/>
     <use style="fill:#d62728;stroke:#ffffff;stroke-linejoin:miter;stroke-width:0.75;" x="463.189846" xlink:href="#m77e7c24317" y="52.871305"/>
     <use style="fill:#d62728;stroke:#ffffff;stroke-linejoin:miter;stroke-width:0.75;" x="470.325111" xlink:href="#m77e7c24317" y="52.862965"/>
     <use style="fill:#d62728;stroke:#ffffff;stroke-linejoin:miter;stroke-width:0.75;" x="477.460375" xlink:href="#m77e7c24317" y="52.546032"/>
     <use style="fill:#d62728;stroke:#ffffff;stroke-linejoin:miter;stroke-width:0.75;" x="484.59564" xlink:href="#m77e7c24317" y="52.370884"/>
     <use style="fill:#d62728;stroke:#ffffff;stroke-linejoin:miter;stroke-width:0.75;" x="491.730905" xlink:href="#m77e7c24317" y="50.544349"/>
     <use style="fill:#d62728;stroke:#ffffff;stroke-linejoin:miter;stroke-width:0.75;" x="498.866169" xlink:href="#m77e7c24317" y="50.360862"/>
     <use style="fill:#d62728;stroke:#ffffff;stroke-linejoin:miter;stroke-width:0.75;" x="506.001434" xlink:href="#m77e7c24317" y="50.169034"/>
     <use style="fill:#d62728;stroke:#ffffff;stroke-linejoin:miter;stroke-width:0.75;" x="513.136699" xlink:href="#m77e7c24317" y="50.152353"/>
     <use style="fill:#d62728;stroke:#ffffff;stroke-linejoin:miter;stroke-width:0.75;" x="520.271964" xlink:href="#m77e7c24317" y="50.052269"/>
     <use style="fill:#d62728;stroke:#ffffff;stroke-linejoin:miter;stroke-width:0.75;" x="527.407228" xlink:href="#m77e7c24317" y="50.035588"/>
     <use style="fill:#d62728;stroke:#ffffff;stroke-linejoin:miter;stroke-width:0.75;" x="534.542493" xlink:href="#m77e7c24317" y="49.501806"/>
     <use style="fill:#d62728;stroke:#ffffff;stroke-linejoin:miter;stroke-width:0.75;" x="541.677758" xlink:href="#m77e7c24317" y="49.026407"/>
     <use style="fill:#d62728;stroke:#ffffff;stroke-linejoin:miter;stroke-width:0.75;" x="548.813023" xlink:href="#m77e7c24317" y="48.184032"/>
     <use style="fill:#d62728;stroke:#ffffff;stroke-linejoin:miter;stroke-width:0.75;" x="555.948287" xlink:href="#m77e7c24317" y="47.917141"/>
     <use style="fill:#d62728;stroke:#ffffff;stroke-linejoin:miter;stroke-width:0.75;" x="563.083552" xlink:href="#m77e7c24317" y="47.825397"/>
     <use style="fill:#d62728;stroke:#ffffff;stroke-linejoin:miter;stroke-width:0.75;" x="570.218817" xlink:href="#m77e7c24317" y="47.541825"/>
     <use style="fill:#d62728;stroke:#ffffff;stroke-linejoin:miter;stroke-width:0.75;" x="577.354082" xlink:href="#m77e7c24317" y="47.049745"/>
     <use style="fill:#d62728;stroke:#ffffff;stroke-linejoin:miter;stroke-width:0.75;" x="584.489346" xlink:href="#m77e7c24317" y="46.666089"/>
     <use style="fill:#d62728;stroke:#ffffff;stroke-linejoin:miter;stroke-width:0.75;" x="591.624611" xlink:href="#m77e7c24317" y="46.057244"/>
     <use style="fill:#d62728;stroke:#ffffff;stroke-linejoin:miter;stroke-width:0.75;" x="598.759876" xlink:href="#m77e7c24317" y="45.873757"/>
     <use style="fill:#d62728;stroke:#ffffff;stroke-linejoin:miter;stroke-width:0.75;" x="605.89514" xlink:href="#m77e7c24317" y="45.339975"/>
     <use style="fill:#d62728;stroke:#ffffff;stroke-linejoin:miter;stroke-width:0.75;" x="613.030405" xlink:href="#m77e7c24317" y="45.039722"/>
     <use style="fill:#d62728;stroke:#ffffff;stroke-linejoin:miter;stroke-width:0.75;" x="620.16567" xlink:href="#m77e7c24317" y="44.998021"/>
     <use style="fill:#d62728;stroke:#ffffff;stroke-linejoin:miter;stroke-width:0.75;" x="627.300935" xlink:href="#m77e7c24317" y="44.622705"/>
     <use style="fill:#d62728;stroke:#ffffff;stroke-linejoin:miter;stroke-width:0.75;" x="634.436199" xlink:href="#m77e7c24317" y="44.347474"/>
     <use style="fill:#d62728;stroke:#ffffff;stroke-linejoin:miter;stroke-width:0.75;" x="641.571464" xlink:href="#m77e7c24317" y="43.638545"/>
     <use style="fill:#d62728;stroke:#ffffff;stroke-linejoin:miter;stroke-width:0.75;" x="648.706729" xlink:href="#m77e7c24317" y="43.471738"/>
     <use style="fill:#d62728;stroke:#ffffff;stroke-linejoin:miter;stroke-width:0.75;" x="655.841994" xlink:href="#m77e7c24317" y="43.471738"/>
     <use style="fill:#d62728;stroke:#ffffff;stroke-linejoin:miter;stroke-width:0.75;" x="662.977258" xlink:href="#m77e7c24317" y="43.405015"/>
     <use style="fill:#d62728;stroke:#ffffff;stroke-linejoin:miter;stroke-width:0.75;" x="670.112523" xlink:href="#m77e7c24317" y="43.254889"/>
     <use style="fill:#d62728;stroke:#ffffff;stroke-linejoin:miter;stroke-width:0.75;" x="677.247788" xlink:href="#m77e7c24317" y="42.212346"/>
     <use style="fill:#d62728;stroke:#ffffff;stroke-linejoin:miter;stroke-width:0.75;" x="684.383053" xlink:href="#m77e7c24317" y="41.920434"/>
     <use style="fill:#d62728;stroke:#ffffff;stroke-linejoin:miter;stroke-width:0.75;" x="691.518317" xlink:href="#m77e7c24317" y="41.778648"/>
     <use style="fill:#d62728;stroke:#ffffff;stroke-linejoin:miter;stroke-width:0.75;" x="698.653582" xlink:href="#m77e7c24317" y="41.57014"/>
     <use style="fill:#d62728;stroke:#ffffff;stroke-linejoin:miter;stroke-width:0.75;" x="705.788847" xlink:href="#m77e7c24317" y="41.211505"/>
     <use style="fill:#d62728;stroke:#ffffff;stroke-linejoin:miter;stroke-width:0.75;" x="712.924112" xlink:href="#m77e7c24317" y="39.743604"/>
     <use style="fill:#d62728;stroke:#ffffff;stroke-linejoin:miter;stroke-width:0.75;" x="720.059376" xlink:href="#m77e7c24317" y="39.101398"/>
     <use style="fill:#d62728;stroke:#ffffff;stroke-linejoin:miter;stroke-width:0.75;" x="727.194641" xlink:href="#m77e7c24317" y="38.934591"/>
     <use style="fill:#d62728;stroke:#ffffff;stroke-linejoin:miter;stroke-width:0.75;" x="734.329906" xlink:href="#m77e7c24317" y="38.592637"/>
     <use style="fill:#d62728;stroke:#ffffff;stroke-linejoin:miter;stroke-width:0.75;" x="741.46517" xlink:href="#m77e7c24317" y="38.133918"/>
    </g>
   </g>
   <g id="line2d_22">
    <path clip-path="url(#p6c4ed8c803)" d="M 92.15608 273.456707 
L 99.291344 256.075431 
L 106.426609 243.564916 
L 113.561874 235.533165 
L 120.697138 223.147755 
L 127.832403 214.623924 
L 134.967668 207.317784 
L 142.102933 203.714755 
L 149.238197 199.761432 
L 156.373462 193.773066 
L 163.508727 191.421089 
L 170.643992 186.967346 
L 177.779256 183.114107 
L 184.914521 180.887235 
L 192.049786 175.766265 
L 199.185051 172.396766 
L 206.320315 167.609409 
L 213.45558 165.515983 
L 220.590845 162.038059 
L 227.72611 160.887092 
L 234.861374 159.035536 
L 241.996639 155.632676 
L 249.131904 154.448347 
L 256.267168 154.04801 
L 263.402433 152.304879 
L 270.537698 150.603449 
L 277.672963 147.642627 
L 284.808227 144.673464 
L 291.943492 143.263946 
L 299.078757 141.846088 
L 306.214022 137.784341 
L 313.349286 137.534131 
L 320.484551 137.26724 
L 327.619816 136.483247 
L 334.755081 132.8969 
L 341.890345 131.921079 
L 349.02561 131.403978 
L 356.160875 129.977779 
L 363.296139 129.368934 
L 370.431404 126.733386 
L 377.566669 124.197921 
L 384.701934 122.204579 
L 391.837198 119.54401 
L 398.972463 119.026909 
L 406.107728 118.009387 
L 413.242993 117.267096 
L 420.378257 116.299616 
L 427.513522 115.840897 
L 434.648787 115.457242 
L 441.784052 114.69827 
L 448.919316 113.822534 
L 456.054581 113.213689 
L 463.189846 112.771651 
L 470.325111 111.428856 
L 477.460375 109.777468 
L 484.59564 108.526416 
L 491.730905 108.251185 
L 498.866169 105.532233 
L 506.001434 105.198619 
L 513.136699 104.01429 
L 520.271964 102.454646 
L 527.407228 100.869981 
L 534.542493 100.511346 
L 541.677758 100.11101 
L 548.813023 98.009243 
L 555.948287 97.333675 
L 563.083552 96.191048 
L 570.218817 95.4988 
L 577.354082 94.931657 
L 584.489346 94.414555 
L 591.624611 93.688945 
L 598.759876 92.304448 
L 605.89514 89.42703 
L 613.030405 88.968311 
L 620.16567 87.934108 
L 627.300935 87.091734 
L 634.436199 85.582132 
L 641.571464 84.839841 
L 648.706729 84.606311 
L 655.841994 83.080029 
L 662.977258 81.8957 
L 670.112523 80.269333 
L 677.247788 79.176748 
L 684.383053 78.659647 
L 691.518317 76.79975 
L 698.653582 76.691326 
L 705.788847 75.857291 
L 712.924112 75.014917 
L 720.059376 74.13084 
L 727.194641 72.43775 
L 734.329906 71.46193 
L 741.46517 71.036573 
" style="fill:none;stroke:#98df8a;stroke-linecap:square;stroke-width:1.5;"/>
    <defs>
     <path d="M -0 3 
L 3 -3 
L -3 -3 
z
" id="m14a06cd306" style="stroke:#ffffff;stroke-linejoin:miter;stroke-width:0.75;"/>
    </defs>
    <g clip-path="url(#p6c4ed8c803)">
     <use style="fill:#98df8a;stroke:#ffffff;stroke-linejoin:miter;stroke-width:0.75;" x="92.15608" xlink:href="#m14a06cd306" y="273.456707"/>
     <use style="fill:#98df8a;stroke:#ffffff;stroke-linejoin:miter;stroke-width:0.75;" x="99.291344" xlink:href="#m14a06cd306" y="256.075431"/>
     <use style="fill:#98df8a;stroke:#ffffff;stroke-linejoin:miter;stroke-width:0.75;" x="106.426609" xlink:href="#m14a06cd306" y="243.564916"/>
     <use style="fill:#98df8a;stroke:#ffffff;stroke-linejoin:miter;stroke-width:0.75;" x="113.561874" xlink:href="#m14a06cd306" y="235.533165"/>
     <use style="fill:#98df8a;stroke:#ffffff;stroke-linejoin:miter;stroke-width:0.75;" x="120.697138" xlink:href="#m14a06cd306" y="223.147755"/>
     <use style="fill:#98df8a;stroke:#ffffff;stroke-linejoin:miter;stroke-width:0.75;" x="127.832403" xlink:href="#m14a06cd306" y="214.623924"/>
     <use style="fill:#98df8a;stroke:#ffffff;stroke-linejoin:miter;stroke-width:0.75;" x="134.967668" xlink:href="#m14a06cd306" y="207.317784"/>
     <use style="fill:#98df8a;stroke:#ffffff;stroke-linejoin:miter;stroke-width:0.75;" x="142.102933" xlink:href="#m14a06cd306" y="203.714755"/>
     <use style="fill:#98df8a;stroke:#ffffff;stroke-linejoin:miter;stroke-width:0.75;" x="149.238197" xlink:href="#m14a06cd306" y="199.761432"/>
     <use style="fill:#98df8a;stroke:#ffffff;stroke-linejoin:miter;stroke-width:0.75;" x="156.373462" xlink:href="#m14a06cd306" y="193.773066"/>
     <use style="fill:#98df8a;stroke:#ffffff;stroke-linejoin:miter;stroke-width:0.75;" x="163.508727" xlink:href="#m14a06cd306" y="191.421089"/>
     <use style="fill:#98df8a;stroke:#ffffff;stroke-linejoin:miter;stroke-width:0.75;" x="170.643992" xlink:href="#m14a06cd306" y="186.967346"/>
     <use style="fill:#98df8a;stroke:#ffffff;stroke-linejoin:miter;stroke-width:0.75;" x="177.779256" xlink:href="#m14a06cd306" y="183.114107"/>
     <use style="fill:#98df8a;stroke:#ffffff;stroke-linejoin:miter;stroke-width:0.75;" x="184.914521" xlink:href="#m14a06cd306" y="180.887235"/>
     <use style="fill:#98df8a;stroke:#ffffff;stroke-linejoin:miter;stroke-width:0.75;" x="192.049786" xlink:href="#m14a06cd306" y="175.766265"/>
     <use style="fill:#98df8a;stroke:#ffffff;stroke-linejoin:miter;stroke-width:0.75;" x="199.185051" xlink:href="#m14a06cd306" y="172.396766"/>
     <use style="fill:#98df8a;stroke:#ffffff;stroke-linejoin:miter;stroke-width:0.75;" x="206.320315" xlink:href="#m14a06cd306" y="167.609409"/>
     <use style="fill:#98df8a;stroke:#ffffff;stroke-linejoin:miter;stroke-width:0.75;" x="213.45558" xlink:href="#m14a06cd306" y="165.515983"/>
     <use style="fill:#98df8a;stroke:#ffffff;stroke-linejoin:miter;stroke-width:0.75;" x="220.590845" xlink:href="#m14a06cd306" y="162.038059"/>
     <use style="fill:#98df8a;stroke:#ffffff;stroke-linejoin:miter;stroke-width:0.75;" x="227.72611" xlink:href="#m14a06cd306" y="160.887092"/>
     <use style="fill:#98df8a;stroke:#ffffff;stroke-linejoin:miter;stroke-width:0.75;" x="234.861374" xlink:href="#m14a06cd306" y="159.035536"/>
     <use style="fill:#98df8a;stroke:#ffffff;stroke-linejoin:miter;stroke-width:0.75;" x="241.996639" xlink:href="#m14a06cd306" y="155.632676"/>
     <use style="fill:#98df8a;stroke:#ffffff;stroke-linejoin:miter;stroke-width:0.75;" x="249.131904" xlink:href="#m14a06cd306" y="154.448347"/>
     <use style="fill:#98df8a;stroke:#ffffff;stroke-linejoin:miter;stroke-width:0.75;" x="256.267168" xlink:href="#m14a06cd306" y="154.04801"/>
     <use style="fill:#98df8a;stroke:#ffffff;stroke-linejoin:miter;stroke-width:0.75;" x="263.402433" xlink:href="#m14a06cd306" y="152.304879"/>
     <use style="fill:#98df8a;stroke:#ffffff;stroke-linejoin:miter;stroke-width:0.75;" x="270.537698" xlink:href="#m14a06cd306" y="150.603449"/>
     <use style="fill:#98df8a;stroke:#ffffff;stroke-linejoin:miter;stroke-width:0.75;" x="277.672963" xlink:href="#m14a06cd306" y="147.642627"/>
     <use style="fill:#98df8a;stroke:#ffffff;stroke-linejoin:miter;stroke-width:0.75;" x="284.808227" xlink:href="#m14a06cd306" y="144.673464"/>
     <use style="fill:#98df8a;stroke:#ffffff;stroke-linejoin:miter;stroke-width:0.75;" x="291.943492" xlink:href="#m14a06cd306" y="143.263946"/>
     <use style="fill:#98df8a;stroke:#ffffff;stroke-linejoin:miter;stroke-width:0.75;" x="299.078757" xlink:href="#m14a06cd306" y="141.846088"/>
     <use style="fill:#98df8a;stroke:#ffffff;stroke-linejoin:miter;stroke-width:0.75;" x="306.214022" xlink:href="#m14a06cd306" y="137.784341"/>
     <use style="fill:#98df8a;stroke:#ffffff;stroke-linejoin:miter;stroke-width:0.75;" x="313.349286" xlink:href="#m14a06cd306" y="137.534131"/>
     <use style="fill:#98df8a;stroke:#ffffff;stroke-linejoin:miter;stroke-width:0.75;" x="320.484551" xlink:href="#m14a06cd306" y="137.26724"/>
     <use style="fill:#98df8a;stroke:#ffffff;stroke-linejoin:miter;stroke-width:0.75;" x="327.619816" xlink:href="#m14a06cd306" y="136.483247"/>
     <use style="fill:#98df8a;stroke:#ffffff;stroke-linejoin:miter;stroke-width:0.75;" x="334.755081" xlink:href="#m14a06cd306" y="132.8969"/>
     <use style="fill:#98df8a;stroke:#ffffff;stroke-linejoin:miter;stroke-width:0.75;" x="341.890345" xlink:href="#m14a06cd306" y="131.921079"/>
     <use style="fill:#98df8a;stroke:#ffffff;stroke-linejoin:miter;stroke-width:0.75;" x="349.02561" xlink:href="#m14a06cd306" y="131.403978"/>
     <use style="fill:#98df8a;stroke:#ffffff;stroke-linejoin:miter;stroke-width:0.75;" x="356.160875" xlink:href="#m14a06cd306" y="129.977779"/>
     <use style="fill:#98df8a;stroke:#ffffff;stroke-linejoin:miter;stroke-width:0.75;" x="363.296139" xlink:href="#m14a06cd306" y="129.368934"/>
     <use style="fill:#98df8a;stroke:#ffffff;stroke-linejoin:miter;stroke-width:0.75;" x="370.431404" xlink:href="#m14a06cd306" y="126.733386"/>
     <use style="fill:#98df8a;stroke:#ffffff;stroke-linejoin:miter;stroke-width:0.75;" x="377.566669" xlink:href="#m14a06cd306" y="124.197921"/>
     <use style="fill:#98df8a;stroke:#ffffff;stroke-linejoin:miter;stroke-width:0.75;" x="384.701934" xlink:href="#m14a06cd306" y="122.204579"/>
     <use style="fill:#98df8a;stroke:#ffffff;stroke-linejoin:miter;stroke-width:0.75;" x="391.837198" xlink:href="#m14a06cd306" y="119.54401"/>
     <use style="fill:#98df8a;stroke:#ffffff;stroke-linejoin:miter;stroke-width:0.75;" x="398.972463" xlink:href="#m14a06cd306" y="119.026909"/>
     <use style="fill:#98df8a;stroke:#ffffff;stroke-linejoin:miter;stroke-width:0.75;" x="406.107728" xlink:href="#m14a06cd306" y="118.009387"/>
     <use style="fill:#98df8a;stroke:#ffffff;stroke-linejoin:miter;stroke-width:0.75;" x="413.242993" xlink:href="#m14a06cd306" y="117.267096"/>
     <use style="fill:#98df8a;stroke:#ffffff;stroke-linejoin:miter;stroke-width:0.75;" x="420.378257" xlink:href="#m14a06cd306" y="116.299616"/>
     <use style="fill:#98df8a;stroke:#ffffff;stroke-linejoin:miter;stroke-width:0.75;" x="427.513522" xlink:href="#m14a06cd306" y="115.840897"/>
     <use style="fill:#98df8a;stroke:#ffffff;stroke-linejoin:miter;stroke-width:0.75;" x="434.648787" xlink:href="#m14a06cd306" y="115.457242"/>
     <use style="fill:#98df8a;stroke:#ffffff;stroke-linejoin:miter;stroke-width:0.75;" x="441.784052" xlink:href="#m14a06cd306" y="114.69827"/>
     <use style="fill:#98df8a;stroke:#ffffff;stroke-linejoin:miter;stroke-width:0.75;" x="448.919316" xlink:href="#m14a06cd306" y="113.822534"/>
     <use style="fill:#98df8a;stroke:#ffffff;stroke-linejoin:miter;stroke-width:0.75;" x="456.054581" xlink:href="#m14a06cd306" y="113.213689"/>
     <use style="fill:#98df8a;stroke:#ffffff;stroke-linejoin:miter;stroke-width:0.75;" x="463.189846" xlink:href="#m14a06cd306" y="112.771651"/>
     <use style="fill:#98df8a;stroke:#ffffff;stroke-linejoin:miter;stroke-width:0.75;" x="470.325111" xlink:href="#m14a06cd306" y="111.428856"/>
     <use style="fill:#98df8a;stroke:#ffffff;stroke-linejoin:miter;stroke-width:0.75;" x="477.460375" xlink:href="#m14a06cd306" y="109.777468"/>
     <use style="fill:#98df8a;stroke:#ffffff;stroke-linejoin:miter;stroke-width:0.75;" x="484.59564" xlink:href="#m14a06cd306" y="108.526416"/>
     <use style="fill:#98df8a;stroke:#ffffff;stroke-linejoin:miter;stroke-width:0.75;" x="491.730905" xlink:href="#m14a06cd306" y="108.251185"/>
     <use style="fill:#98df8a;stroke:#ffffff;stroke-linejoin:miter;stroke-width:0.75;" x="498.866169" xlink:href="#m14a06cd306" y="105.532233"/>
     <use style="fill:#98df8a;stroke:#ffffff;stroke-linejoin:miter;stroke-width:0.75;" x="506.001434" xlink:href="#m14a06cd306" y="105.198619"/>
     <use style="fill:#98df8a;stroke:#ffffff;stroke-linejoin:miter;stroke-width:0.75;" x="513.136699" xlink:href="#m14a06cd306" y="104.01429"/>
     <use style="fill:#98df8a;stroke:#ffffff;stroke-linejoin:miter;stroke-width:0.75;" x="520.271964" xlink:href="#m14a06cd306" y="102.454646"/>
     <use style="fill:#98df8a;stroke:#ffffff;stroke-linejoin:miter;stroke-width:0.75;" x="527.407228" xlink:href="#m14a06cd306" y="100.869981"/>
     <use style="fill:#98df8a;stroke:#ffffff;stroke-linejoin:miter;stroke-width:0.75;" x="534.542493" xlink:href="#m14a06cd306" y="100.511346"/>
     <use style="fill:#98df8a;stroke:#ffffff;stroke-linejoin:miter;stroke-width:0.75;" x="541.677758" xlink:href="#m14a06cd306" y="100.11101"/>
     <use style="fill:#98df8a;stroke:#ffffff;stroke-linejoin:miter;stroke-width:0.75;" x="548.813023" xlink:href="#m14a06cd306" y="98.009243"/>
     <use style="fill:#98df8a;stroke:#ffffff;stroke-linejoin:miter;stroke-width:0.75;" x="555.948287" xlink:href="#m14a06cd306" y="97.333675"/>
     <use style="fill:#98df8a;stroke:#ffffff;stroke-linejoin:miter;stroke-width:0.75;" x="563.083552" xlink:href="#m14a06cd306" y="96.191048"/>
     <use style="fill:#98df8a;stroke:#ffffff;stroke-linejoin:miter;stroke-width:0.75;" x="570.218817" xlink:href="#m14a06cd306" y="95.4988"/>
     <use style="fill:#98df8a;stroke:#ffffff;stroke-linejoin:miter;stroke-width:0.75;" x="577.354082" xlink:href="#m14a06cd306" y="94.931657"/>
     <use style="fill:#98df8a;stroke:#ffffff;stroke-linejoin:miter;stroke-width:0.75;" x="584.489346" xlink:href="#m14a06cd306" y="94.414555"/>
     <use style="fill:#98df8a;stroke:#ffffff;stroke-linejoin:miter;stroke-width:0.75;" x="591.624611" xlink:href="#m14a06cd306" y="93.688945"/>
     <use style="fill:#98df8a;stroke:#ffffff;stroke-linejoin:miter;stroke-width:0.75;" x="598.759876" xlink:href="#m14a06cd306" y="92.304448"/>
     <use style="fill:#98df8a;stroke:#ffffff;stroke-linejoin:miter;stroke-width:0.75;" x="605.89514" xlink:href="#m14a06cd306" y="89.42703"/>
     <use style="fill:#98df8a;stroke:#ffffff;stroke-linejoin:miter;stroke-width:0.75;" x="613.030405" xlink:href="#m14a06cd306" y="88.968311"/>
     <use style="fill:#98df8a;stroke:#ffffff;stroke-linejoin:miter;stroke-width:0.75;" x="620.16567" xlink:href="#m14a06cd306" y="87.934108"/>
     <use style="fill:#98df8a;stroke:#ffffff;stroke-linejoin:miter;stroke-width:0.75;" x="627.300935" xlink:href="#m14a06cd306" y="87.091734"/>
     <use style="fill:#98df8a;stroke:#ffffff;stroke-linejoin:miter;stroke-width:0.75;" x="634.436199" xlink:href="#m14a06cd306" y="85.582132"/>
     <use style="fill:#98df8a;stroke:#ffffff;stroke-linejoin:miter;stroke-width:0.75;" x="641.571464" xlink:href="#m14a06cd306" y="84.839841"/>
     <use style="fill:#98df8a;stroke:#ffffff;stroke-linejoin:miter;stroke-width:0.75;" x="648.706729" xlink:href="#m14a06cd306" y="84.606311"/>
     <use style="fill:#98df8a;stroke:#ffffff;stroke-linejoin:miter;stroke-width:0.75;" x="655.841994" xlink:href="#m14a06cd306" y="83.080029"/>
     <use style="fill:#98df8a;stroke:#ffffff;stroke-linejoin:miter;stroke-width:0.75;" x="662.977258" xlink:href="#m14a06cd306" y="81.8957"/>
     <use style="fill:#98df8a;stroke:#ffffff;stroke-linejoin:miter;stroke-width:0.75;" x="670.112523" xlink:href="#m14a06cd306" y="80.269333"/>
     <use style="fill:#98df8a;stroke:#ffffff;stroke-linejoin:miter;stroke-width:0.75;" x="677.247788" xlink:href="#m14a06cd306" y="79.176748"/>
     <use style="fill:#98df8a;stroke:#ffffff;stroke-linejoin:miter;stroke-width:0.75;" x="684.383053" xlink:href="#m14a06cd306" y="78.659647"/>
     <use style="fill:#98df8a;stroke:#ffffff;stroke-linejoin:miter;stroke-width:0.75;" x="691.518317" xlink:href="#m14a06cd306" y="76.79975"/>
     <use style="fill:#98df8a;stroke:#ffffff;stroke-linejoin:miter;stroke-width:0.75;" x="698.653582" xlink:href="#m14a06cd306" y="76.691326"/>
     <use style="fill:#98df8a;stroke:#ffffff;stroke-linejoin:miter;stroke-width:0.75;" x="705.788847" xlink:href="#m14a06cd306" y="75.857291"/>
     <use style="fill:#98df8a;stroke:#ffffff;stroke-linejoin:miter;stroke-width:0.75;" x="712.924112" xlink:href="#m14a06cd306" y="75.014917"/>
     <use style="fill:#98df8a;stroke:#ffffff;stroke-linejoin:miter;stroke-width:0.75;" x="720.059376" xlink:href="#m14a06cd306" y="74.13084"/>
     <use style="fill:#98df8a;stroke:#ffffff;stroke-linejoin:miter;stroke-width:0.75;" x="727.194641" xlink:href="#m14a06cd306" y="72.43775"/>
     <use style="fill:#98df8a;stroke:#ffffff;stroke-linejoin:miter;stroke-width:0.75;" x="734.329906" xlink:href="#m14a06cd306" y="71.46193"/>
     <use style="fill:#98df8a;stroke:#ffffff;stroke-linejoin:miter;stroke-width:0.75;" x="741.46517" xlink:href="#m14a06cd306" y="71.036573"/>
    </g>
   </g>
   <g id="line2d_23"/>
   <g id="line2d_24"/>
   <g id="line2d_25"/>
   <g id="line2d_26">
    <path clip-path="url(#p6c4ed8c803)" d="M 741.46517 288.430125 
L 741.46517 22.318125 
" style="fill:none;stroke:#ff0000;stroke-linecap:square;stroke-width:1.5;"/>
   </g>
   <g id="patch_3">
    <path d="M 59.690625 255.516628 
L 59.690625 55.348387 
" style="fill:none;stroke:#000000;stroke-linecap:square;stroke-linejoin:miter;stroke-width:0.8;"/>
   </g>
   <g id="patch_4">
    <path d="M 92.15608 288.430125 
L 693.896739 288.430125 
" style="fill:none;stroke:#000000;stroke-linecap:square;stroke-linejoin:miter;stroke-width:0.8;"/>
   </g>
   <g id="text_22">
    <!-- sqlite3_ossfuzz (23h, 20 trials/fuzzer) -->
    <g transform="translate(304.815938 16.318125)scale(0.12 -0.12)">
     <defs>
      <path d="M 2834 3397 
L 2834 2853 
Q 2591 2978 2328 3040 
Q 2066 3103 1784 3103 
Q 1356 3103 1142 2972 
Q 928 2841 928 2578 
Q 928 2378 1081 2264 
Q 1234 2150 1697 2047 
L 1894 2003 
Q 2506 1872 2764 1633 
Q 3022 1394 3022 966 
Q 3022 478 2636 193 
Q 2250 -91 1575 -91 
Q 1294 -91 989 -36 
Q 684 19 347 128 
L 347 722 
Q 666 556 975 473 
Q 1284 391 1588 391 
Q 1994 391 2212 530 
Q 2431 669 2431 922 
Q 2431 1156 2273 1281 
Q 2116 1406 1581 1522 
L 1381 1569 
Q 847 1681 609 1914 
Q 372 2147 372 2553 
Q 372 3047 722 3315 
Q 1072 3584 1716 3584 
Q 2034 3584 2315 3537 
Q 2597 3491 2834 3397 
z
" id="DejaVuSans-73" transform="scale(0.015625)"/>
      <path d="M 947 1747 
Q 947 1113 1208 752 
Q 1469 391 1925 391 
Q 2381 391 2643 752 
Q 2906 1113 2906 1747 
Q 2906 2381 2643 2742 
Q 2381 3103 1925 3103 
Q 1469 3103 1208 2742 
Q 947 2381 947 1747 
z
M 2906 525 
Q 2725 213 2448 61 
Q 2172 -91 1784 -91 
Q 1150 -91 751 415 
Q 353 922 353 1747 
Q 353 2572 751 3078 
Q 1150 3584 1784 3584 
Q 2172 3584 2448 3432 
Q 2725 3281 2906 2969 
L 2906 3500 
L 3481 3500 
L 3481 -1331 
L 2906 -1331 
L 2906 525 
z
" id="DejaVuSans-71" transform="scale(0.015625)"/>
      <path d="M 603 4863 
L 1178 4863 
L 1178 0 
L 603 0 
L 603 4863 
z
" id="DejaVuSans-6c" transform="scale(0.015625)"/>
      <path d="M 3263 -1063 
L 3263 -1509 
L -63 -1509 
L -63 -1063 
L 3263 -1063 
z
" id="DejaVuSans-5f" transform="scale(0.015625)"/>
      <path d="M 2375 4863 
L 2375 4384 
L 1825 4384 
Q 1516 4384 1395 4259 
Q 1275 4134 1275 3809 
L 1275 3500 
L 2222 3500 
L 2222 3053 
L 1275 3053 
L 1275 0 
L 697 0 
L 697 3053 
L 147 3053 
L 147 3500 
L 697 3500 
L 697 3744 
Q 697 4328 969 4595 
Q 1241 4863 1831 4863 
L 2375 4863 
z
" id="DejaVuSans-66" transform="scale(0.015625)"/>
      <path d="M 353 3500 
L 3084 3500 
L 3084 2975 
L 922 459 
L 3084 459 
L 3084 0 
L 275 0 
L 275 525 
L 2438 3041 
L 353 3041 
L 353 3500 
z
" id="DejaVuSans-7a" transform="scale(0.015625)"/>
      <path d="M 750 794 
L 1409 794 
L 1409 256 
L 897 -744 
L 494 -744 
L 750 256 
L 750 794 
z
" id="DejaVuSans-2c" transform="scale(0.015625)"/>
      <path d="M 1625 4666 
L 2156 4666 
L 531 -594 
L 0 -594 
L 1625 4666 
z
" id="DejaVuSans-2f" transform="scale(0.015625)"/>
     </defs>
     <use xlink:href="#DejaVuSans-73"/>
     <use x="52.099609" xlink:href="#DejaVuSans-71"/>
     <use x="115.576172" xlink:href="#DejaVuSans-6c"/>
     <use x="143.359375" xlink:href="#DejaVuSans-69"/>
     <use x="171.142578" xlink:href="#DejaVuSans-74"/>
     <use x="210.351562" xlink:href="#DejaVuSans-65"/>
     <use x="271.875" xlink:href="#DejaVuSans-33"/>
     <use x="335.498047" xlink:href="#DejaVuSans-5f"/>
     <use x="385.498047" xlink:href="#DejaVuSans-6f"/>
     <use x="446.679688" xlink:href="#DejaVuSans-73"/>
     <use x="498.779297" xlink:href="#DejaVuSans-73"/>
     <use x="550.878906" xlink:href="#DejaVuSans-66"/>
     <use x="586.083984" xlink:href="#DejaVuSans-75"/>
     <use x="649.462891" xlink:href="#DejaVuSans-7a"/>
     <use x="701.953125" xlink:href="#DejaVuSans-7a"/>
     <use x="754.443359" xlink:href="#DejaVuSans-20"/>
     <use x="786.230469" xlink:href="#DejaVuSans-28"/>
     <use x="825.244141" xlink:href="#DejaVuSans-32"/>
     <use x="888.867188" xlink:href="#DejaVuSans-33"/>
     <use x="952.490234" xlink:href="#DejaVuSans-68"/>
     <use x="1015.869141" xlink:href="#DejaVuSans-2c"/>
     <use x="1047.65625" xlink:href="#DejaVuSans-20"/>
     <use x="1079.443359" xlink:href="#DejaVuSans-32"/>
     <use x="1143.066406" xlink:href="#DejaVuSans-30"/>
     <use x="1206.689453" xlink:href="#DejaVuSans-20"/>
     <use x="1238.476562" xlink:href="#DejaVuSans-74"/>
     <use x="1277.685547" xlink:href="#DejaVuSans-72"/>
     <use x="1318.798828" xlink:href="#DejaVuSans-69"/>
     <use x="1346.582031" xlink:href="#DejaVuSans-61"/>
     <use x="1407.861328" xlink:href="#DejaVuSans-6c"/>
     <use x="1435.644531" xlink:href="#DejaVuSans-73"/>
     <use x="1487.744141" xlink:href="#DejaVuSans-2f"/>
     <use x="1521.435547" xlink:href="#DejaVuSans-66"/>
     <use x="1556.640625" xlink:href="#DejaVuSans-75"/>
     <use x="1620.019531" xlink:href="#DejaVuSans-7a"/>
     <use x="1672.509766" xlink:href="#DejaVuSans-7a"/>
     <use x="1725" xlink:href="#DejaVuSans-65"/>
     <use x="1786.523438" xlink:href="#DejaVuSans-72"/>
     <use x="1827.636719" xlink:href="#DejaVuSans-29"/>
    </g>
   </g>
   <g id="legend_1">
    <g id="line2d_27">
     <path d="M 777.930625 30.416562 
L 797.930625 30.416562 
" style="fill:none;stroke:#1f77b4;stroke-linecap:square;stroke-width:1.5;"/>
    </g>
    <g id="line2d_28">
     <defs>
      <path d="M 0 3 
C 0.795609 3 1.55874 2.683901 2.12132 2.12132 
C 2.683901 1.55874 3 0.795609 3 0 
C 3 -0.795609 2.683901 -1.55874 2.12132 -2.12132 
C 1.55874 -2.683901 0.795609 -3 0 -3 
C -0.795609 -3 -1.55874 -2.683901 -2.12132 -2.12132 
C -2.683901 -1.55874 -3 -0.795609 -3 0 
C -3 0.795609 -2.683901 1.55874 -2.12132 2.12132 
C -1.55874 2.683901 -0.795609 3 0 3 
z
" id="m139339ec10" style="stroke:#1f77b4;"/>
     </defs>
     <g>
      <use style="fill:#1f77b4;stroke:#1f77b4;" x="787.930625" xlink:href="#m139339ec10" y="30.416562"/>
     </g>
    </g>
    <g id="text_23">
     <!-- afl_2_52_b -->
     <g transform="translate(805.930625 33.916562)scale(0.1 -0.1)">
      <defs>
       <path d="M 3116 1747 
Q 3116 2381 2855 2742 
Q 2594 3103 2138 3103 
Q 1681 3103 1420 2742 
Q 1159 2381 1159 1747 
Q 1159 1113 1420 752 
Q 1681 391 2138 391 
Q 2594 391 2855 752 
Q 3116 1113 3116 1747 
z
M 1159 2969 
Q 1341 3281 1617 3432 
Q 1894 3584 2278 3584 
Q 2916 3584 3314 3078 
Q 3713 2572 3713 1747 
Q 3713 922 3314 415 
Q 2916 -91 2278 -91 
Q 1894 -91 1617 61 
Q 1341 213 1159 525 
L 1159 0 
L 581 0 
L 581 4863 
L 1159 4863 
L 1159 2969 
z
" id="DejaVuSans-62" transform="scale(0.015625)"/>
      </defs>
      <use xlink:href="#DejaVuSans-61"/>
      <use x="61.279297" xlink:href="#DejaVuSans-66"/>
      <use x="96.484375" xlink:href="#DejaVuSans-6c"/>
      <use x="124.267578" xlink:href="#DejaVuSans-5f"/>
      <use x="174.267578" xlink:href="#DejaVuSans-32"/>
      <use x="237.890625" xlink:href="#DejaVuSans-5f"/>
      <use x="287.890625" xlink:href="#DejaVuSans-35"/>
      <use x="351.513672" xlink:href="#DejaVuSans-32"/>
      <use x="415.136719" xlink:href="#DejaVuSans-5f"/>
      <use x="465.136719" xlink:href="#DejaVuSans-62"/>
     </g>
    </g>
    <g id="line2d_29">
     <path d="M 777.930625 45.372813 
L 797.930625 45.372813 
" style="fill:none;stroke:#d62728;stroke-linecap:square;stroke-width:1.5;"/>
    </g>
    <g id="line2d_30">
     <defs>
      <path d="M 0 -3 
L -3 3 
L 3 3 
z
" id="md9acab9fb1" style="stroke:#d62728;stroke-linejoin:miter;"/>
     </defs>
     <g>
      <use style="fill:#d62728;stroke:#d62728;stroke-linejoin:miter;" x="787.930625" xlink:href="#md9acab9fb1" y="45.372813"/>
     </g>
    </g>
    <g id="text_24">
     <!-- mopt -->
     <g transform="translate(805.930625 48.872813)scale(0.1 -0.1)">
      <defs>
       <path d="M 1159 525 
L 1159 -1331 
L 581 -1331 
L 581 3500 
L 1159 3500 
L 1159 2969 
Q 1341 3281 1617 3432 
Q 1894 3584 2278 3584 
Q 2916 3584 3314 3078 
Q 3713 2572 3713 1747 
Q 3713 922 3314 415 
Q 2916 -91 2278 -91 
Q 1894 -91 1617 61 
Q 1341 213 1159 525 
z
M 3116 1747 
Q 3116 2381 2855 2742 
Q 2594 3103 2138 3103 
Q 1681 3103 1420 2742 
Q 1159 2381 1159 1747 
Q 1159 1113 1420 752 
Q 1681 391 2138 391 
Q 2594 391 2855 752 
Q 3116 1113 3116 1747 
z
" id="DejaVuSans-70" transform="scale(0.015625)"/>
      </defs>
      <use xlink:href="#DejaVuSans-6d"/>
      <use x="97.412109" xlink:href="#DejaVuSans-6f"/>
      <use x="158.59375" xlink:href="#DejaVuSans-70"/>
      <use x="222.070312" xlink:href="#DejaVuSans-74"/>
     </g>
    </g>
    <g id="line2d_31">
     <path d="M 777.930625 60.050937 
L 797.930625 60.050937 
" style="fill:none;stroke:#98df8a;stroke-linecap:square;stroke-width:1.5;"/>
    </g>
    <g id="line2d_32">
     <defs>
      <path d="M -0 3 
L 3 -3 
L -3 -3 
z
" id="m991d55afb2" style="stroke:#98df8a;stroke-linejoin:miter;"/>
     </defs>
     <g>
      <use style="fill:#98df8a;stroke:#98df8a;stroke-linejoin:miter;" x="787.930625" xlink:href="#m991d55afb2" y="60.050937"/>
     </g>
    </g>
    <g id="text_25">
     <!-- fafuzz -->
     <g transform="translate(805.930625 63.550937)scale(0.1 -0.1)">
      <use xlink:href="#DejaVuSans-66"/>
      <use x="35.205078" xlink:href="#DejaVuSans-61"/>
      <use x="96.484375" xlink:href="#DejaVuSans-66"/>
      <use x="131.689453" xlink:href="#DejaVuSans-75"/>
      <use x="195.068359" xlink:href="#DejaVuSans-7a"/>
      <use x="247.558594" xlink:href="#DejaVuSans-7a"/>
     </g>
    </g>
   </g>
  </g>
 </g>
 <defs>
  <clipPath id="p6c4ed8c803">
   <rect height="266.112" width="714.24" x="59.690625" y="22.318125"/>
  </clipPath>
 </defs>
</svg>
