<?xml version="1.0" encoding="utf-8" standalone="no"?>
<!DOCTYPE svg PUBLIC "-//W3C//DTD SVG 1.1//EN"
  "http://www.w3.org/Graphics/SVG/1.1/DTD/svg11.dtd">
<svg height="325.986375pt" version="1.1" viewBox="0 0 857.268125 325.986375" width="857.268125pt" xmlns="http://www.w3.org/2000/svg" xmlns:xlink="http://www.w3.org/1999/xlink">
 <metadata>
  <rdf:RDF xmlns:cc="http://creativecommons.org/ns#" xmlns:dc="http://purl.org/dc/elements/1.1/" xmlns:rdf="http://www.w3.org/1999/02/22-rdf-syntax-ns#">
   <cc:Work>
    <dc:type rdf:resource="http://purl.org/dc/dcmitype/StillImage"/>
    <dc:date>2021-12-16T18:51:13.197595</dc:date>
    <dc:format>image/svg+xml</dc:format>
    <dc:creator>
     <cc:Agent>
      <dc:title>Matplotlib v3.4.1, https://matplotlib.org/</dc:title>
     </cc:Agent>
    </dc:creator>
   </cc:Work>
  </rdf:RDF>
 </metadata>
 <defs>
  <style type="text/css">*{stroke-linecap:butt;stroke-linejoin:round;}</style>
 </defs>
 <g id="figure_1">
  <g id="patch_1">
   <path d="M 0 325.986375 
L 857.268125 325.986375 
L 857.268125 0 
L 0 0 
z
" style="fill:#ffffff;"/>
  </g>
  <g id="axes_1">
   <g id="patch_2">
    <path d="M 46.965625 288.430125 
L 761.205625 288.430125 
L 761.205625 22.318125 
L 46.965625 22.318125 
z
" style="fill:#ffffff;"/>
   </g>
   <g id="PolyCollection_1">
    <defs>
     <path d="M 79.43108 -279.47625 
L 79.43108 -146.42025 
L 86.566344 -267.38025 
L 93.701609 -291.57225 
L 100.836874 -291.57225 
L 107.972138 -291.57225 
L 115.107403 -291.57225 
L 122.242668 -291.57225 
L 129.377933 -291.57225 
L 136.513197 -291.57225 
L 143.648462 -291.57225 
L 150.783727 -291.57225 
L 157.918992 -291.57225 
L 165.054256 -291.57225 
L 172.189521 -291.57225 
L 179.324786 -291.57225 
L 186.460051 -291.57225 
L 193.595315 -291.57225 
L 200.73058 -291.57225 
L 207.865845 -291.57225 
L 215.00111 -291.57225 
L 222.136374 -291.57225 
L 229.271639 -291.57225 
L 236.406904 -291.57225 
L 243.542168 -291.57225 
L 250.677433 -291.57225 
L 257.812698 -291.57225 
L 264.947963 -291.57225 
L 272.083227 -291.57225 
L 279.218492 -291.57225 
L 286.353757 -291.57225 
L 293.489022 -291.57225 
L 300.624286 -291.57225 
L 307.759551 -291.57225 
L 314.894816 -291.57225 
L 322.030081 -291.57225 
L 329.165345 -291.57225 
L 336.30061 -291.57225 
L 343.435875 -291.57225 
L 350.571139 -291.57225 
L 357.706404 -291.57225 
L 364.841669 -291.57225 
L 371.976934 -291.57225 
L 379.112198 -291.57225 
L 386.247463 -291.57225 
L 393.382728 -291.57225 
L 400.517993 -291.57225 
L 407.653257 -291.57225 
L 414.788522 -291.57225 
L 421.923787 -291.57225 
L 429.059052 -291.57225 
L 436.194316 -291.57225 
L 443.329581 -291.57225 
L 450.464846 -291.57225 
L 457.600111 -291.57225 
L 464.735375 -291.57225 
L 471.87064 -291.57225 
L 479.005905 -291.57225 
L 486.141169 -291.57225 
L 493.276434 -291.57225 
L 500.411699 -291.57225 
L 507.546964 -291.57225 
L 514.682228 -291.57225 
L 521.817493 -291.57225 
L 528.952758 -291.57225 
L 536.088023 -291.57225 
L 543.223287 -291.57225 
L 550.358552 -291.57225 
L 557.493817 -291.57225 
L 564.629082 -291.57225 
L 571.764346 -291.57225 
L 578.899611 -291.57225 
L 586.034876 -291.57225 
L 593.17014 -291.57225 
L 600.305405 -291.57225 
L 607.44067 -291.57225 
L 614.575935 -291.57225 
L 621.711199 -291.57225 
L 628.846464 -291.57225 
L 635.981729 -291.57225 
L 643.116994 -291.57225 
L 650.252258 -291.57225 
L 657.387523 -291.57225 
L 664.522788 -291.57225 
L 671.658053 -291.57225 
L 678.793317 -291.57225 
L 685.928582 -291.57225 
L 693.063847 -291.57225 
L 700.199112 -291.57225 
L 707.334376 -291.57225 
L 714.469641 -291.57225 
L 721.604906 -291.57225 
L 728.74017 -291.57225 
L 728.74017 -291.57225 
L 728.74017 -291.57225 
L 721.604906 -291.57225 
L 714.469641 -291.57225 
L 707.334376 -291.57225 
L 700.199112 -291.57225 
L 693.063847 -291.57225 
L 685.928582 -291.57225 
L 678.793317 -291.57225 
L 671.658053 -291.57225 
L 664.522788 -291.57225 
L 657.387523 -291.57225 
L 650.252258 -291.57225 
L 643.116994 -291.57225 
L 635.981729 -291.57225 
L 628.846464 -291.57225 
L 621.711199 -291.57225 
L 614.575935 -291.57225 
L 607.44067 -291.57225 
L 600.305405 -291.57225 
L 593.17014 -291.57225 
L 586.034876 -291.57225 
L 578.899611 -291.57225 
L 571.764346 -291.57225 
L 564.629082 -291.57225 
L 557.493817 -291.57225 
L 550.358552 -291.57225 
L 543.223287 -291.57225 
L 536.088023 -291.57225 
L 528.952758 -291.57225 
L 521.817493 -291.57225 
L 514.682228 -291.57225 
L 507.546964 -291.57225 
L 500.411699 -291.57225 
L 493.276434 -291.57225 
L 486.141169 -291.57225 
L 479.005905 -291.57225 
L 471.87064 -291.57225 
L 464.735375 -291.57225 
L 457.600111 -291.57225 
L 450.464846 -291.57225 
L 443.329581 -291.57225 
L 436.194316 -291.57225 
L 429.059052 -291.57225 
L 421.923787 -291.57225 
L 414.788522 -291.57225 
L 407.653257 -291.57225 
L 400.517993 -291.57225 
L 393.382728 -291.57225 
L 386.247463 -291.57225 
L 379.112198 -291.57225 
L 371.976934 -291.57225 
L 364.841669 -291.57225 
L 357.706404 -291.57225 
L 350.571139 -291.57225 
L 343.435875 -291.57225 
L 336.30061 -291.57225 
L 329.165345 -291.57225 
L 322.030081 -291.57225 
L 314.894816 -291.57225 
L 307.759551 -291.57225 
L 300.624286 -291.57225 
L 293.489022 -291.57225 
L 286.353757 -291.57225 
L 279.218492 -291.57225 
L 272.083227 -291.57225 
L 264.947963 -291.57225 
L 257.812698 -291.57225 
L 250.677433 -291.57225 
L 243.542168 -291.57225 
L 236.406904 -291.57225 
L 229.271639 -291.57225 
L 222.136374 -291.57225 
L 215.00111 -291.57225 
L 207.865845 -291.57225 
L 200.73058 -291.57225 
L 193.595315 -291.57225 
L 186.460051 -291.57225 
L 179.324786 -291.57225 
L 172.189521 -291.57225 
L 165.054256 -291.57225 
L 157.918992 -291.57225 
L 150.783727 -291.57225 
L 143.648462 -291.57225 
L 136.513197 -291.57225 
L 129.377933 -291.57225 
L 122.242668 -291.57225 
L 115.107403 -291.57225 
L 107.972138 -291.57225 
L 100.836874 -291.57225 
L 93.701609 -291.57225 
L 86.566344 -291.57225 
L 79.43108 -279.47625 
z
" id="m7c40e037e1" style="stroke:#98df8a;stroke-opacity:0.2;"/>
    </defs>
    <g clip-path="url(#p999cf37ceb)">
     <use style="fill:#98df8a;fill-opacity:0.2;stroke:#98df8a;stroke-opacity:0.2;" x="0" xlink:href="#m7c40e037e1" y="325.986375"/>
    </g>
   </g>
   <g id="PolyCollection_2">
    <defs>
     <path d="M 79.43108 -291.57225 
L 79.43108 -267.38025 
L 86.566344 -267.38025 
L 93.701609 -267.38025 
L 100.836874 -291.57225 
L 107.972138 -291.57225 
L 115.107403 -291.57225 
L 122.242668 -291.57225 
L 129.377933 -291.57225 
L 136.513197 -291.57225 
L 143.648462 -291.57225 
L 150.783727 -291.57225 
L 157.918992 -291.57225 
L 165.054256 -291.57225 
L 172.189521 -291.57225 
L 179.324786 -291.57225 
L 186.460051 -291.57225 
L 193.595315 -291.57225 
L 200.73058 -291.57225 
L 207.865845 -291.57225 
L 215.00111 -291.57225 
L 222.136374 -291.57225 
L 229.271639 -291.57225 
L 236.406904 -291.57225 
L 243.542168 -291.57225 
L 250.677433 -291.57225 
L 257.812698 -291.57225 
L 264.947963 -291.57225 
L 272.083227 -291.57225 
L 279.218492 -291.57225 
L 286.353757 -291.57225 
L 293.489022 -291.57225 
L 300.624286 -291.57225 
L 307.759551 -291.57225 
L 314.894816 -291.57225 
L 322.030081 -291.57225 
L 329.165345 -291.57225 
L 336.30061 -291.57225 
L 343.435875 -291.57225 
L 350.571139 -291.57225 
L 357.706404 -291.57225 
L 364.841669 -291.57225 
L 371.976934 -291.57225 
L 379.112198 -291.57225 
L 386.247463 -291.57225 
L 393.382728 -291.57225 
L 400.517993 -291.57225 
L 407.653257 -291.57225 
L 414.788522 -291.57225 
L 421.923787 -291.57225 
L 429.059052 -291.57225 
L 436.194316 -291.57225 
L 443.329581 -291.57225 
L 450.464846 -291.57225 
L 457.600111 -291.57225 
L 464.735375 -291.57225 
L 471.87064 -291.57225 
L 479.005905 -291.57225 
L 486.141169 -291.57225 
L 493.276434 -291.57225 
L 500.411699 -291.57225 
L 507.546964 -291.57225 
L 514.682228 -291.57225 
L 521.817493 -291.57225 
L 528.952758 -291.57225 
L 536.088023 -291.57225 
L 543.223287 -291.57225 
L 550.358552 -291.57225 
L 557.493817 -291.57225 
L 564.629082 -291.57225 
L 571.764346 -291.57225 
L 578.899611 -291.57225 
L 586.034876 -291.57225 
L 593.17014 -291.57225 
L 600.305405 -291.57225 
L 607.44067 -291.57225 
L 614.575935 -291.57225 
L 621.711199 -291.57225 
L 628.846464 -291.57225 
L 635.981729 -291.57225 
L 643.116994 -291.57225 
L 650.252258 -291.57225 
L 657.387523 -291.57225 
L 664.522788 -291.57225 
L 671.658053 -291.57225 
L 678.793317 -291.57225 
L 685.928582 -291.57225 
L 693.063847 -291.57225 
L 700.199112 -291.57225 
L 707.334376 -291.57225 
L 714.469641 -291.57225 
L 721.604906 -291.57225 
L 728.74017 -291.57225 
L 728.74017 -291.57225 
L 728.74017 -291.57225 
L 721.604906 -291.57225 
L 714.469641 -291.57225 
L 707.334376 -291.57225 
L 700.199112 -291.57225 
L 693.063847 -291.57225 
L 685.928582 -291.57225 
L 678.793317 -291.57225 
L 671.658053 -291.57225 
L 664.522788 -291.57225 
L 657.387523 -291.57225 
L 650.252258 -291.57225 
L 643.116994 -291.57225 
L 635.981729 -291.57225 
L 628.846464 -291.57225 
L 621.711199 -291.57225 
L 614.575935 -291.57225 
L 607.44067 -291.57225 
L 600.305405 -291.57225 
L 593.17014 -291.57225 
L 586.034876 -291.57225 
L 578.899611 -291.57225 
L 571.764346 -291.57225 
L 564.629082 -291.57225 
L 557.493817 -291.57225 
L 550.358552 -291.57225 
L 543.223287 -291.57225 
L 536.088023 -291.57225 
L 528.952758 -291.57225 
L 521.817493 -291.57225 
L 514.682228 -291.57225 
L 507.546964 -291.57225 
L 500.411699 -291.57225 
L 493.276434 -291.57225 
L 486.141169 -291.57225 
L 479.005905 -291.57225 
L 471.87064 -291.57225 
L 464.735375 -291.57225 
L 457.600111 -291.57225 
L 450.464846 -291.57225 
L 443.329581 -291.57225 
L 436.194316 -291.57225 
L 429.059052 -291.57225 
L 421.923787 -291.57225 
L 414.788522 -291.57225 
L 407.653257 -291.57225 
L 400.517993 -291.57225 
L 393.382728 -291.57225 
L 386.247463 -291.57225 
L 379.112198 -291.57225 
L 371.976934 -291.57225 
L 364.841669 -291.57225 
L 357.706404 -291.57225 
L 350.571139 -291.57225 
L 343.435875 -291.57225 
L 336.30061 -291.57225 
L 329.165345 -291.57225 
L 322.030081 -291.57225 
L 314.894816 -291.57225 
L 307.759551 -291.57225 
L 300.624286 -291.57225 
L 293.489022 -291.57225 
L 286.353757 -291.57225 
L 279.218492 -291.57225 
L 272.083227 -291.57225 
L 264.947963 -291.57225 
L 257.812698 -291.57225 
L 250.677433 -291.57225 
L 243.542168 -291.57225 
L 236.406904 -291.57225 
L 229.271639 -291.57225 
L 222.136374 -291.57225 
L 215.00111 -291.57225 
L 207.865845 -291.57225 
L 200.73058 -291.57225 
L 193.595315 -291.57225 
L 186.460051 -291.57225 
L 179.324786 -291.57225 
L 172.189521 -291.57225 
L 165.054256 -291.57225 
L 157.918992 -291.57225 
L 150.783727 -291.57225 
L 143.648462 -291.57225 
L 136.513197 -291.57225 
L 129.377933 -291.57225 
L 122.242668 -291.57225 
L 115.107403 -291.57225 
L 107.972138 -291.57225 
L 100.836874 -291.57225 
L 93.701609 -291.57225 
L 86.566344 -291.57225 
L 79.43108 -291.57225 
z
" id="ma8d77c76c4" style="stroke:#1f77b4;stroke-opacity:0.2;"/>
    </defs>
    <g clip-path="url(#p999cf37ceb)">
     <use style="fill:#1f77b4;fill-opacity:0.2;stroke:#1f77b4;stroke-opacity:0.2;" x="0" xlink:href="#ma8d77c76c4" y="325.986375"/>
    </g>
   </g>
   <g id="PolyCollection_3">
    <defs>
     <path d="M 79.43108 -267.38025 
L 79.43108 -49.65225 
L 86.566344 -267.38025 
L 93.701609 -267.38025 
L 100.836874 -267.38025 
L 107.972138 -267.38025 
L 115.107403 -267.38025 
L 122.242668 -267.38025 
L 129.377933 -267.38025 
L 136.513197 -267.38025 
L 143.648462 -267.38025 
L 150.783727 -267.38025 
L 157.918992 -267.38025 
L 165.054256 -267.38025 
L 172.189521 -267.38025 
L 179.324786 -267.38025 
L 186.460051 -267.38025 
L 193.595315 -267.38025 
L 200.73058 -267.38025 
L 207.865845 -267.38025 
L 215.00111 -267.38025 
L 222.136374 -279.47625 
L 229.271639 -279.47625 
L 236.406904 -279.47625 
L 243.542168 -279.47625 
L 250.677433 -279.47625 
L 257.812698 -279.47625 
L 264.947963 -279.47625 
L 272.083227 -279.47625 
L 279.218492 -279.47625 
L 286.353757 -291.57225 
L 293.489022 -291.57225 
L 300.624286 -291.57225 
L 307.759551 -291.57225 
L 314.894816 -291.57225 
L 322.030081 -291.57225 
L 329.165345 -291.57225 
L 336.30061 -291.57225 
L 343.435875 -291.57225 
L 350.571139 -291.57225 
L 357.706404 -291.57225 
L 364.841669 -291.57225 
L 371.976934 -291.57225 
L 379.112198 -291.57225 
L 386.247463 -291.57225 
L 393.382728 -291.57225 
L 400.517993 -291.57225 
L 407.653257 -291.57225 
L 414.788522 -291.57225 
L 421.923787 -291.57225 
L 429.059052 -291.57225 
L 436.194316 -291.57225 
L 443.329581 -291.57225 
L 450.464846 -291.57225 
L 457.600111 -291.57225 
L 464.735375 -291.57225 
L 471.87064 -291.57225 
L 479.005905 -291.57225 
L 486.141169 -291.57225 
L 493.276434 -291.57225 
L 500.411699 -291.57225 
L 507.546964 -291.57225 
L 514.682228 -291.57225 
L 521.817493 -291.57225 
L 528.952758 -291.57225 
L 536.088023 -291.57225 
L 543.223287 -291.57225 
L 550.358552 -291.57225 
L 557.493817 -291.57225 
L 564.629082 -291.57225 
L 571.764346 -291.57225 
L 578.899611 -291.57225 
L 586.034876 -291.57225 
L 593.17014 -291.57225 
L 600.305405 -291.57225 
L 607.44067 -291.57225 
L 614.575935 -291.57225 
L 621.711199 -291.57225 
L 628.846464 -291.57225 
L 635.981729 -291.57225 
L 643.116994 -291.57225 
L 650.252258 -291.57225 
L 657.387523 -291.57225 
L 664.522788 -291.57225 
L 671.658053 -291.57225 
L 678.793317 -291.57225 
L 685.928582 -291.57225 
L 693.063847 -291.57225 
L 700.199112 -291.57225 
L 707.334376 -291.57225 
L 714.469641 -291.57225 
L 721.604906 -291.57225 
L 728.74017 -291.57225 
L 728.74017 -291.57225 
L 728.74017 -291.57225 
L 721.604906 -291.57225 
L 714.469641 -291.57225 
L 707.334376 -291.57225 
L 700.199112 -291.57225 
L 693.063847 -291.57225 
L 685.928582 -291.57225 
L 678.793317 -291.57225 
L 671.658053 -291.57225 
L 664.522788 -291.57225 
L 657.387523 -291.57225 
L 650.252258 -291.57225 
L 643.116994 -291.57225 
L 635.981729 -291.57225 
L 628.846464 -291.57225 
L 621.711199 -291.57225 
L 614.575935 -291.57225 
L 607.44067 -291.57225 
L 600.305405 -291.57225 
L 593.17014 -291.57225 
L 586.034876 -291.57225 
L 578.899611 -291.57225 
L 571.764346 -291.57225 
L 564.629082 -291.57225 
L 557.493817 -291.57225 
L 550.358552 -291.57225 
L 543.223287 -291.57225 
L 536.088023 -291.57225 
L 528.952758 -291.57225 
L 521.817493 -291.57225 
L 514.682228 -291.57225 
L 507.546964 -291.57225 
L 500.411699 -291.57225 
L 493.276434 -291.57225 
L 486.141169 -291.57225 
L 479.005905 -291.57225 
L 471.87064 -291.57225 
L 464.735375 -291.57225 
L 457.600111 -291.57225 
L 450.464846 -291.57225 
L 443.329581 -291.57225 
L 436.194316 -291.57225 
L 429.059052 -291.57225 
L 421.923787 -291.57225 
L 414.788522 -291.57225 
L 407.653257 -291.57225 
L 400.517993 -291.57225 
L 393.382728 -291.57225 
L 386.247463 -291.57225 
L 379.112198 -291.57225 
L 371.976934 -291.57225 
L 364.841669 -291.57225 
L 357.706404 -291.57225 
L 350.571139 -291.57225 
L 343.435875 -291.57225 
L 336.30061 -291.57225 
L 329.165345 -291.57225 
L 322.030081 -291.57225 
L 314.894816 -291.57225 
L 307.759551 -291.57225 
L 300.624286 -291.57225 
L 293.489022 -291.57225 
L 286.353757 -291.57225 
L 279.218492 -291.57225 
L 272.083227 -291.57225 
L 264.947963 -291.57225 
L 257.812698 -291.57225 
L 250.677433 -291.57225 
L 243.542168 -291.57225 
L 236.406904 -291.57225 
L 229.271639 -291.57225 
L 222.136374 -291.57225 
L 215.00111 -291.57225 
L 207.865845 -291.57225 
L 200.73058 -291.57225 
L 193.595315 -291.57225 
L 186.460051 -291.57225 
L 179.324786 -291.57225 
L 172.189521 -291.57225 
L 165.054256 -291.57225 
L 157.918992 -291.57225 
L 150.783727 -291.57225 
L 143.648462 -291.57225 
L 136.513197 -291.57225 
L 129.377933 -291.57225 
L 122.242668 -279.47625 
L 115.107403 -267.38025 
L 107.972138 -267.38025 
L 100.836874 -267.38025 
L 93.701609 -267.38025 
L 86.566344 -267.38025 
L 79.43108 -267.38025 
z
" id="mbf761dc705" style="stroke:#d62728;stroke-opacity:0.2;"/>
    </defs>
    <g clip-path="url(#p999cf37ceb)">
     <use style="fill:#d62728;fill-opacity:0.2;stroke:#d62728;stroke-opacity:0.2;" x="0" xlink:href="#mbf761dc705" y="325.986375"/>
    </g>
   </g>
   <g id="matplotlib.axis_1">
    <g id="xtick_1">
     <g id="line2d_1">
      <defs>
       <path d="M 0 0 
L 0 3.5 
" id="mde4ab910ce" style="stroke:#000000;stroke-width:0.8;"/>
      </defs>
      <g>
       <use style="stroke:#000000;stroke-width:0.8;" x="79.43108" xlink:href="#mde4ab910ce" y="288.430125"/>
      </g>
     </g>
     <g id="text_1">
      <!-- 15m -->
      <g transform="translate(68.198267 303.028562)scale(0.1 -0.1)">
       <defs>
        <path d="M 794 531 
L 1825 531 
L 1825 4091 
L 703 3866 
L 703 4441 
L 1819 4666 
L 2450 4666 
L 2450 531 
L 3481 531 
L 3481 0 
L 794 0 
L 794 531 
z
" id="DejaVuSans-31" transform="scale(0.015625)"/>
        <path d="M 691 4666 
L 3169 4666 
L 3169 4134 
L 1269 4134 
L 1269 2991 
Q 1406 3038 1543 3061 
Q 1681 3084 1819 3084 
Q 2600 3084 3056 2656 
Q 3513 2228 3513 1497 
Q 3513 744 3044 326 
Q 2575 -91 1722 -91 
Q 1428 -91 1123 -41 
Q 819 9 494 109 
L 494 744 
Q 775 591 1075 516 
Q 1375 441 1709 441 
Q 2250 441 2565 725 
Q 2881 1009 2881 1497 
Q 2881 1984 2565 2268 
Q 2250 2553 1709 2553 
Q 1456 2553 1204 2497 
Q 953 2441 691 2322 
L 691 4666 
z
" id="DejaVuSans-35" transform="scale(0.015625)"/>
        <path d="M 3328 2828 
Q 3544 3216 3844 3400 
Q 4144 3584 4550 3584 
Q 5097 3584 5394 3201 
Q 5691 2819 5691 2113 
L 5691 0 
L 5113 0 
L 5113 2094 
Q 5113 2597 4934 2840 
Q 4756 3084 4391 3084 
Q 3944 3084 3684 2787 
Q 3425 2491 3425 1978 
L 3425 0 
L 2847 0 
L 2847 2094 
Q 2847 2600 2669 2842 
Q 2491 3084 2119 3084 
Q 1678 3084 1418 2786 
Q 1159 2488 1159 1978 
L 1159 0 
L 581 0 
L 581 3500 
L 1159 3500 
L 1159 2956 
Q 1356 3278 1631 3431 
Q 1906 3584 2284 3584 
Q 2666 3584 2933 3390 
Q 3200 3197 3328 2828 
z
" id="DejaVuSans-6d" transform="scale(0.015625)"/>
       </defs>
       <use xlink:href="#DejaVuSans-31"/>
       <use x="63.623047" xlink:href="#DejaVuSans-35"/>
       <use x="127.246094" xlink:href="#DejaVuSans-6d"/>
      </g>
     </g>
    </g>
    <g id="xtick_2">
     <g id="line2d_2">
      <g>
       <use style="stroke:#000000;stroke-width:0.8;" x="134.134776" xlink:href="#mde4ab910ce" y="288.430125"/>
      </g>
     </g>
     <g id="text_2">
      <!-- 2h:10m -->
      <g transform="translate(114.867588 303.028562)scale(0.1 -0.1)">
       <defs>
        <path d="M 1228 531 
L 3431 531 
L 3431 0 
L 469 0 
L 469 531 
Q 828 903 1448 1529 
Q 2069 2156 2228 2338 
Q 2531 2678 2651 2914 
Q 2772 3150 2772 3378 
Q 2772 3750 2511 3984 
Q 2250 4219 1831 4219 
Q 1534 4219 1204 4116 
Q 875 4013 500 3803 
L 500 4441 
Q 881 4594 1212 4672 
Q 1544 4750 1819 4750 
Q 2544 4750 2975 4387 
Q 3406 4025 3406 3419 
Q 3406 3131 3298 2873 
Q 3191 2616 2906 2266 
Q 2828 2175 2409 1742 
Q 1991 1309 1228 531 
z
" id="DejaVuSans-32" transform="scale(0.015625)"/>
        <path d="M 3513 2113 
L 3513 0 
L 2938 0 
L 2938 2094 
Q 2938 2591 2744 2837 
Q 2550 3084 2163 3084 
Q 1697 3084 1428 2787 
Q 1159 2491 1159 1978 
L 1159 0 
L 581 0 
L 581 4863 
L 1159 4863 
L 1159 2956 
Q 1366 3272 1645 3428 
Q 1925 3584 2291 3584 
Q 2894 3584 3203 3211 
Q 3513 2838 3513 2113 
z
" id="DejaVuSans-68" transform="scale(0.015625)"/>
        <path d="M 750 794 
L 1409 794 
L 1409 0 
L 750 0 
L 750 794 
z
M 750 3309 
L 1409 3309 
L 1409 2516 
L 750 2516 
L 750 3309 
z
" id="DejaVuSans-3a" transform="scale(0.015625)"/>
        <path d="M 2034 4250 
Q 1547 4250 1301 3770 
Q 1056 3291 1056 2328 
Q 1056 1369 1301 889 
Q 1547 409 2034 409 
Q 2525 409 2770 889 
Q 3016 1369 3016 2328 
Q 3016 3291 2770 3770 
Q 2525 4250 2034 4250 
z
M 2034 4750 
Q 2819 4750 3233 4129 
Q 3647 3509 3647 2328 
Q 3647 1150 3233 529 
Q 2819 -91 2034 -91 
Q 1250 -91 836 529 
Q 422 1150 422 2328 
Q 422 3509 836 4129 
Q 1250 4750 2034 4750 
z
" id="DejaVuSans-30" transform="scale(0.015625)"/>
       </defs>
       <use xlink:href="#DejaVuSans-32"/>
       <use x="63.623047" xlink:href="#DejaVuSans-68"/>
       <use x="127.001953" xlink:href="#DejaVuSans-3a"/>
       <use x="160.693359" xlink:href="#DejaVuSans-31"/>
       <use x="224.316406" xlink:href="#DejaVuSans-30"/>
       <use x="287.939453" xlink:href="#DejaVuSans-6d"/>
      </g>
     </g>
    </g>
    <g id="xtick_3">
     <g id="line2d_3">
      <g>
       <use style="stroke:#000000;stroke-width:0.8;" x="188.838472" xlink:href="#mde4ab910ce" y="288.430125"/>
      </g>
     </g>
     <g id="text_3">
      <!-- 4h:5m -->
      <g transform="translate(172.752535 303.028562)scale(0.1 -0.1)">
       <defs>
        <path d="M 2419 4116 
L 825 1625 
L 2419 1625 
L 2419 4116 
z
M 2253 4666 
L 3047 4666 
L 3047 1625 
L 3713 1625 
L 3713 1100 
L 3047 1100 
L 3047 0 
L 2419 0 
L 2419 1100 
L 313 1100 
L 313 1709 
L 2253 4666 
z
" id="DejaVuSans-34" transform="scale(0.015625)"/>
       </defs>
       <use xlink:href="#DejaVuSans-34"/>
       <use x="63.623047" xlink:href="#DejaVuSans-68"/>
       <use x="127.001953" xlink:href="#DejaVuSans-3a"/>
       <use x="160.693359" xlink:href="#DejaVuSans-35"/>
       <use x="224.316406" xlink:href="#DejaVuSans-6d"/>
      </g>
     </g>
    </g>
    <g id="xtick_4">
     <g id="line2d_4">
      <g>
       <use style="stroke:#000000;stroke-width:0.8;" x="243.542168" xlink:href="#mde4ab910ce" y="288.430125"/>
      </g>
     </g>
     <g id="text_4">
      <!-- 6h -->
      <g transform="translate(237.192168 303.028562)scale(0.1 -0.1)">
       <defs>
        <path d="M 2113 2584 
Q 1688 2584 1439 2293 
Q 1191 2003 1191 1497 
Q 1191 994 1439 701 
Q 1688 409 2113 409 
Q 2538 409 2786 701 
Q 3034 994 3034 1497 
Q 3034 2003 2786 2293 
Q 2538 2584 2113 2584 
z
M 3366 4563 
L 3366 3988 
Q 3128 4100 2886 4159 
Q 2644 4219 2406 4219 
Q 1781 4219 1451 3797 
Q 1122 3375 1075 2522 
Q 1259 2794 1537 2939 
Q 1816 3084 2150 3084 
Q 2853 3084 3261 2657 
Q 3669 2231 3669 1497 
Q 3669 778 3244 343 
Q 2819 -91 2113 -91 
Q 1303 -91 875 529 
Q 447 1150 447 2328 
Q 447 3434 972 4092 
Q 1497 4750 2381 4750 
Q 2619 4750 2861 4703 
Q 3103 4656 3366 4563 
z
" id="DejaVuSans-36" transform="scale(0.015625)"/>
       </defs>
       <use xlink:href="#DejaVuSans-36"/>
       <use x="63.623047" xlink:href="#DejaVuSans-68"/>
      </g>
     </g>
    </g>
    <g id="xtick_5">
     <g id="line2d_5">
      <g>
       <use style="stroke:#000000;stroke-width:0.8;" x="298.245865" xlink:href="#mde4ab910ce" y="288.430125"/>
      </g>
     </g>
     <g id="text_5">
      <!-- 7h:55m -->
      <g transform="translate(278.978677 303.028562)scale(0.1 -0.1)">
       <defs>
        <path d="M 525 4666 
L 3525 4666 
L 3525 4397 
L 1831 0 
L 1172 0 
L 2766 4134 
L 525 4134 
L 525 4666 
z
" id="DejaVuSans-37" transform="scale(0.015625)"/>
       </defs>
       <use xlink:href="#DejaVuSans-37"/>
       <use x="63.623047" xlink:href="#DejaVuSans-68"/>
       <use x="127.001953" xlink:href="#DejaVuSans-3a"/>
       <use x="160.693359" xlink:href="#DejaVuSans-35"/>
       <use x="224.316406" xlink:href="#DejaVuSans-35"/>
       <use x="287.939453" xlink:href="#DejaVuSans-6d"/>
      </g>
     </g>
    </g>
    <g id="xtick_6">
     <g id="line2d_6">
      <g>
       <use style="stroke:#000000;stroke-width:0.8;" x="352.949561" xlink:href="#mde4ab910ce" y="288.430125"/>
      </g>
     </g>
     <g id="text_6">
      <!-- 9h:50m -->
      <g transform="translate(333.682374 303.028562)scale(0.1 -0.1)">
       <defs>
        <path d="M 703 97 
L 703 672 
Q 941 559 1184 500 
Q 1428 441 1663 441 
Q 2288 441 2617 861 
Q 2947 1281 2994 2138 
Q 2813 1869 2534 1725 
Q 2256 1581 1919 1581 
Q 1219 1581 811 2004 
Q 403 2428 403 3163 
Q 403 3881 828 4315 
Q 1253 4750 1959 4750 
Q 2769 4750 3195 4129 
Q 3622 3509 3622 2328 
Q 3622 1225 3098 567 
Q 2575 -91 1691 -91 
Q 1453 -91 1209 -44 
Q 966 3 703 97 
z
M 1959 2075 
Q 2384 2075 2632 2365 
Q 2881 2656 2881 3163 
Q 2881 3666 2632 3958 
Q 2384 4250 1959 4250 
Q 1534 4250 1286 3958 
Q 1038 3666 1038 3163 
Q 1038 2656 1286 2365 
Q 1534 2075 1959 2075 
z
" id="DejaVuSans-39" transform="scale(0.015625)"/>
       </defs>
       <use xlink:href="#DejaVuSans-39"/>
       <use x="63.623047" xlink:href="#DejaVuSans-68"/>
       <use x="127.001953" xlink:href="#DejaVuSans-3a"/>
       <use x="160.693359" xlink:href="#DejaVuSans-35"/>
       <use x="224.316406" xlink:href="#DejaVuSans-30"/>
       <use x="287.939453" xlink:href="#DejaVuSans-6d"/>
      </g>
     </g>
    </g>
    <g id="xtick_7">
     <g id="line2d_7">
      <g>
       <use style="stroke:#000000;stroke-width:0.8;" x="407.653257" xlink:href="#mde4ab910ce" y="288.430125"/>
      </g>
     </g>
     <g id="text_7">
      <!-- 11h:45m -->
      <g transform="translate(385.20482 303.028562)scale(0.1 -0.1)">
       <use xlink:href="#DejaVuSans-31"/>
       <use x="63.623047" xlink:href="#DejaVuSans-31"/>
       <use x="127.246094" xlink:href="#DejaVuSans-68"/>
       <use x="190.625" xlink:href="#DejaVuSans-3a"/>
       <use x="224.316406" xlink:href="#DejaVuSans-34"/>
       <use x="287.939453" xlink:href="#DejaVuSans-35"/>
       <use x="351.5625" xlink:href="#DejaVuSans-6d"/>
      </g>
     </g>
    </g>
    <g id="xtick_8">
     <g id="line2d_8">
      <g>
       <use style="stroke:#000000;stroke-width:0.8;" x="462.356954" xlink:href="#mde4ab910ce" y="288.430125"/>
      </g>
     </g>
     <g id="text_8">
      <!-- 13h:40m -->
      <g transform="translate(439.908516 303.028562)scale(0.1 -0.1)">
       <defs>
        <path d="M 2597 2516 
Q 3050 2419 3304 2112 
Q 3559 1806 3559 1356 
Q 3559 666 3084 287 
Q 2609 -91 1734 -91 
Q 1441 -91 1130 -33 
Q 819 25 488 141 
L 488 750 
Q 750 597 1062 519 
Q 1375 441 1716 441 
Q 2309 441 2620 675 
Q 2931 909 2931 1356 
Q 2931 1769 2642 2001 
Q 2353 2234 1838 2234 
L 1294 2234 
L 1294 2753 
L 1863 2753 
Q 2328 2753 2575 2939 
Q 2822 3125 2822 3475 
Q 2822 3834 2567 4026 
Q 2313 4219 1838 4219 
Q 1578 4219 1281 4162 
Q 984 4106 628 3988 
L 628 4550 
Q 988 4650 1302 4700 
Q 1616 4750 1894 4750 
Q 2613 4750 3031 4423 
Q 3450 4097 3450 3541 
Q 3450 3153 3228 2886 
Q 3006 2619 2597 2516 
z
" id="DejaVuSans-33" transform="scale(0.015625)"/>
       </defs>
       <use xlink:href="#DejaVuSans-31"/>
       <use x="63.623047" xlink:href="#DejaVuSans-33"/>
       <use x="127.246094" xlink:href="#DejaVuSans-68"/>
       <use x="190.625" xlink:href="#DejaVuSans-3a"/>
       <use x="224.316406" xlink:href="#DejaVuSans-34"/>
       <use x="287.939453" xlink:href="#DejaVuSans-30"/>
       <use x="351.5625" xlink:href="#DejaVuSans-6d"/>
      </g>
     </g>
    </g>
    <g id="xtick_9">
     <g id="line2d_9">
      <g>
       <use style="stroke:#000000;stroke-width:0.8;" x="517.06065" xlink:href="#mde4ab910ce" y="288.430125"/>
      </g>
     </g>
     <g id="text_9">
      <!-- 15h:35m -->
      <g transform="translate(494.612212 303.028562)scale(0.1 -0.1)">
       <use xlink:href="#DejaVuSans-31"/>
       <use x="63.623047" xlink:href="#DejaVuSans-35"/>
       <use x="127.246094" xlink:href="#DejaVuSans-68"/>
       <use x="190.625" xlink:href="#DejaVuSans-3a"/>
       <use x="224.316406" xlink:href="#DejaVuSans-33"/>
       <use x="287.939453" xlink:href="#DejaVuSans-35"/>
       <use x="351.5625" xlink:href="#DejaVuSans-6d"/>
      </g>
     </g>
    </g>
    <g id="xtick_10">
     <g id="line2d_10">
      <g>
       <use style="stroke:#000000;stroke-width:0.8;" x="571.764346" xlink:href="#mde4ab910ce" y="288.430125"/>
      </g>
     </g>
     <g id="text_10">
      <!-- 17h:30m -->
      <g transform="translate(549.315909 303.028562)scale(0.1 -0.1)">
       <use xlink:href="#DejaVuSans-31"/>
       <use x="63.623047" xlink:href="#DejaVuSans-37"/>
       <use x="127.246094" xlink:href="#DejaVuSans-68"/>
       <use x="190.625" xlink:href="#DejaVuSans-3a"/>
       <use x="224.316406" xlink:href="#DejaVuSans-33"/>
       <use x="287.939453" xlink:href="#DejaVuSans-30"/>
       <use x="351.5625" xlink:href="#DejaVuSans-6d"/>
      </g>
     </g>
    </g>
    <g id="xtick_11">
     <g id="line2d_11">
      <g>
       <use style="stroke:#000000;stroke-width:0.8;" x="626.468043" xlink:href="#mde4ab910ce" y="288.430125"/>
      </g>
     </g>
     <g id="text_11">
      <!-- 19h:25m -->
      <g transform="translate(604.019605 303.028562)scale(0.1 -0.1)">
       <use xlink:href="#DejaVuSans-31"/>
       <use x="63.623047" xlink:href="#DejaVuSans-39"/>
       <use x="127.246094" xlink:href="#DejaVuSans-68"/>
       <use x="190.625" xlink:href="#DejaVuSans-3a"/>
       <use x="224.316406" xlink:href="#DejaVuSans-32"/>
       <use x="287.939453" xlink:href="#DejaVuSans-35"/>
       <use x="351.5625" xlink:href="#DejaVuSans-6d"/>
      </g>
     </g>
    </g>
    <g id="xtick_12">
     <g id="line2d_12">
      <g>
       <use style="stroke:#000000;stroke-width:0.8;" x="681.171739" xlink:href="#mde4ab910ce" y="288.430125"/>
      </g>
     </g>
     <g id="text_12">
      <!-- 21h:20m -->
      <g transform="translate(658.723301 303.028562)scale(0.1 -0.1)">
       <use xlink:href="#DejaVuSans-32"/>
       <use x="63.623047" xlink:href="#DejaVuSans-31"/>
       <use x="127.246094" xlink:href="#DejaVuSans-68"/>
       <use x="190.625" xlink:href="#DejaVuSans-3a"/>
       <use x="224.316406" xlink:href="#DejaVuSans-32"/>
       <use x="287.939453" xlink:href="#DejaVuSans-30"/>
       <use x="351.5625" xlink:href="#DejaVuSans-6d"/>
      </g>
     </g>
    </g>
    <g id="text_13">
     <!-- Time (hour:minute) -->
     <g transform="translate(355.678594 316.706687)scale(0.1 -0.1)">
      <defs>
       <path d="M -19 4666 
L 3928 4666 
L 3928 4134 
L 2272 4134 
L 2272 0 
L 1638 0 
L 1638 4134 
L -19 4134 
L -19 4666 
z
" id="DejaVuSans-54" transform="scale(0.015625)"/>
       <path d="M 603 3500 
L 1178 3500 
L 1178 0 
L 603 0 
L 603 3500 
z
M 603 4863 
L 1178 4863 
L 1178 4134 
L 603 4134 
L 603 4863 
z
" id="DejaVuSans-69" transform="scale(0.015625)"/>
       <path d="M 3597 1894 
L 3597 1613 
L 953 1613 
Q 991 1019 1311 708 
Q 1631 397 2203 397 
Q 2534 397 2845 478 
Q 3156 559 3463 722 
L 3463 178 
Q 3153 47 2828 -22 
Q 2503 -91 2169 -91 
Q 1331 -91 842 396 
Q 353 884 353 1716 
Q 353 2575 817 3079 
Q 1281 3584 2069 3584 
Q 2775 3584 3186 3129 
Q 3597 2675 3597 1894 
z
M 3022 2063 
Q 3016 2534 2758 2815 
Q 2500 3097 2075 3097 
Q 1594 3097 1305 2825 
Q 1016 2553 972 2059 
L 3022 2063 
z
" id="DejaVuSans-65" transform="scale(0.015625)"/>
       <path id="DejaVuSans-20" transform="scale(0.015625)"/>
       <path d="M 1984 4856 
Q 1566 4138 1362 3434 
Q 1159 2731 1159 2009 
Q 1159 1288 1364 580 
Q 1569 -128 1984 -844 
L 1484 -844 
Q 1016 -109 783 600 
Q 550 1309 550 2009 
Q 550 2706 781 3412 
Q 1013 4119 1484 4856 
L 1984 4856 
z
" id="DejaVuSans-28" transform="scale(0.015625)"/>
       <path d="M 1959 3097 
Q 1497 3097 1228 2736 
Q 959 2375 959 1747 
Q 959 1119 1226 758 
Q 1494 397 1959 397 
Q 2419 397 2687 759 
Q 2956 1122 2956 1747 
Q 2956 2369 2687 2733 
Q 2419 3097 1959 3097 
z
M 1959 3584 
Q 2709 3584 3137 3096 
Q 3566 2609 3566 1747 
Q 3566 888 3137 398 
Q 2709 -91 1959 -91 
Q 1206 -91 779 398 
Q 353 888 353 1747 
Q 353 2609 779 3096 
Q 1206 3584 1959 3584 
z
" id="DejaVuSans-6f" transform="scale(0.015625)"/>
       <path d="M 544 1381 
L 544 3500 
L 1119 3500 
L 1119 1403 
Q 1119 906 1312 657 
Q 1506 409 1894 409 
Q 2359 409 2629 706 
Q 2900 1003 2900 1516 
L 2900 3500 
L 3475 3500 
L 3475 0 
L 2900 0 
L 2900 538 
Q 2691 219 2414 64 
Q 2138 -91 1772 -91 
Q 1169 -91 856 284 
Q 544 659 544 1381 
z
M 1991 3584 
L 1991 3584 
z
" id="DejaVuSans-75" transform="scale(0.015625)"/>
       <path d="M 2631 2963 
Q 2534 3019 2420 3045 
Q 2306 3072 2169 3072 
Q 1681 3072 1420 2755 
Q 1159 2438 1159 1844 
L 1159 0 
L 581 0 
L 581 3500 
L 1159 3500 
L 1159 2956 
Q 1341 3275 1631 3429 
Q 1922 3584 2338 3584 
Q 2397 3584 2469 3576 
Q 2541 3569 2628 3553 
L 2631 2963 
z
" id="DejaVuSans-72" transform="scale(0.015625)"/>
       <path d="M 3513 2113 
L 3513 0 
L 2938 0 
L 2938 2094 
Q 2938 2591 2744 2837 
Q 2550 3084 2163 3084 
Q 1697 3084 1428 2787 
Q 1159 2491 1159 1978 
L 1159 0 
L 581 0 
L 581 3500 
L 1159 3500 
L 1159 2956 
Q 1366 3272 1645 3428 
Q 1925 3584 2291 3584 
Q 2894 3584 3203 3211 
Q 3513 2838 3513 2113 
z
" id="DejaVuSans-6e" transform="scale(0.015625)"/>
       <path d="M 1172 4494 
L 1172 3500 
L 2356 3500 
L 2356 3053 
L 1172 3053 
L 1172 1153 
Q 1172 725 1289 603 
Q 1406 481 1766 481 
L 2356 481 
L 2356 0 
L 1766 0 
Q 1100 0 847 248 
Q 594 497 594 1153 
L 594 3053 
L 172 3053 
L 172 3500 
L 594 3500 
L 594 4494 
L 1172 4494 
z
" id="DejaVuSans-74" transform="scale(0.015625)"/>
       <path d="M 513 4856 
L 1013 4856 
Q 1481 4119 1714 3412 
Q 1947 2706 1947 2009 
Q 1947 1309 1714 600 
Q 1481 -109 1013 -844 
L 513 -844 
Q 928 -128 1133 580 
Q 1338 1288 1338 2009 
Q 1338 2731 1133 3434 
Q 928 4138 513 4856 
z
" id="DejaVuSans-29" transform="scale(0.015625)"/>
      </defs>
      <use xlink:href="#DejaVuSans-54"/>
      <use x="57.958984" xlink:href="#DejaVuSans-69"/>
      <use x="85.742188" xlink:href="#DejaVuSans-6d"/>
      <use x="183.154297" xlink:href="#DejaVuSans-65"/>
      <use x="244.677734" xlink:href="#DejaVuSans-20"/>
      <use x="276.464844" xlink:href="#DejaVuSans-28"/>
      <use x="315.478516" xlink:href="#DejaVuSans-68"/>
      <use x="378.857422" xlink:href="#DejaVuSans-6f"/>
      <use x="440.039062" xlink:href="#DejaVuSans-75"/>
      <use x="503.417969" xlink:href="#DejaVuSans-72"/>
      <use x="542.78125" xlink:href="#DejaVuSans-3a"/>
      <use x="576.472656" xlink:href="#DejaVuSans-6d"/>
      <use x="673.884766" xlink:href="#DejaVuSans-69"/>
      <use x="701.667969" xlink:href="#DejaVuSans-6e"/>
      <use x="765.046875" xlink:href="#DejaVuSans-75"/>
      <use x="828.425781" xlink:href="#DejaVuSans-74"/>
      <use x="867.634766" xlink:href="#DejaVuSans-65"/>
      <use x="929.158203" xlink:href="#DejaVuSans-29"/>
     </g>
    </g>
   </g>
   <g id="matplotlib.axis_2">
    <g id="ytick_1">
     <g id="line2d_13">
      <defs>
       <path d="M 0 0 
L -3.5 0 
" id="mbabf1e14ea" style="stroke:#000000;stroke-width:0.8;"/>
      </defs>
      <g>
       <use style="stroke:#000000;stroke-width:0.8;" x="46.965625" xlink:href="#mbabf1e14ea" y="276.334125"/>
      </g>
     </g>
     <g id="text_14">
      <!-- 630 -->
      <g transform="translate(20.878125 280.133344)scale(0.1 -0.1)">
       <use xlink:href="#DejaVuSans-36"/>
       <use x="63.623047" xlink:href="#DejaVuSans-33"/>
       <use x="127.246094" xlink:href="#DejaVuSans-30"/>
      </g>
     </g>
    </g>
    <g id="ytick_2">
     <g id="line2d_14">
      <g>
       <use style="stroke:#000000;stroke-width:0.8;" x="46.965625" xlink:href="#mbabf1e14ea" y="227.950125"/>
      </g>
     </g>
     <g id="text_15">
      <!-- 632 -->
      <g transform="translate(20.878125 231.749344)scale(0.1 -0.1)">
       <use xlink:href="#DejaVuSans-36"/>
       <use x="63.623047" xlink:href="#DejaVuSans-33"/>
       <use x="127.246094" xlink:href="#DejaVuSans-32"/>
      </g>
     </g>
    </g>
    <g id="ytick_3">
     <g id="line2d_15">
      <g>
       <use style="stroke:#000000;stroke-width:0.8;" x="46.965625" xlink:href="#mbabf1e14ea" y="179.566125"/>
      </g>
     </g>
     <g id="text_16">
      <!-- 634 -->
      <g transform="translate(20.878125 183.365344)scale(0.1 -0.1)">
       <use xlink:href="#DejaVuSans-36"/>
       <use x="63.623047" xlink:href="#DejaVuSans-33"/>
       <use x="127.246094" xlink:href="#DejaVuSans-34"/>
      </g>
     </g>
    </g>
    <g id="ytick_4">
     <g id="line2d_16">
      <g>
       <use style="stroke:#000000;stroke-width:0.8;" x="46.965625" xlink:href="#mbabf1e14ea" y="131.182125"/>
      </g>
     </g>
     <g id="text_17">
      <!-- 636 -->
      <g transform="translate(20.878125 134.981344)scale(0.1 -0.1)">
       <use xlink:href="#DejaVuSans-36"/>
       <use x="63.623047" xlink:href="#DejaVuSans-33"/>
       <use x="127.246094" xlink:href="#DejaVuSans-36"/>
      </g>
     </g>
    </g>
    <g id="ytick_5">
     <g id="line2d_17">
      <g>
       <use style="stroke:#000000;stroke-width:0.8;" x="46.965625" xlink:href="#mbabf1e14ea" y="82.798125"/>
      </g>
     </g>
     <g id="text_18">
      <!-- 638 -->
      <g transform="translate(20.878125 86.597344)scale(0.1 -0.1)">
       <defs>
        <path d="M 2034 2216 
Q 1584 2216 1326 1975 
Q 1069 1734 1069 1313 
Q 1069 891 1326 650 
Q 1584 409 2034 409 
Q 2484 409 2743 651 
Q 3003 894 3003 1313 
Q 3003 1734 2745 1975 
Q 2488 2216 2034 2216 
z
M 1403 2484 
Q 997 2584 770 2862 
Q 544 3141 544 3541 
Q 544 4100 942 4425 
Q 1341 4750 2034 4750 
Q 2731 4750 3128 4425 
Q 3525 4100 3525 3541 
Q 3525 3141 3298 2862 
Q 3072 2584 2669 2484 
Q 3125 2378 3379 2068 
Q 3634 1759 3634 1313 
Q 3634 634 3220 271 
Q 2806 -91 2034 -91 
Q 1263 -91 848 271 
Q 434 634 434 1313 
Q 434 1759 690 2068 
Q 947 2378 1403 2484 
z
M 1172 3481 
Q 1172 3119 1398 2916 
Q 1625 2713 2034 2713 
Q 2441 2713 2670 2916 
Q 2900 3119 2900 3481 
Q 2900 3844 2670 4047 
Q 2441 4250 2034 4250 
Q 1625 4250 1398 4047 
Q 1172 3844 1172 3481 
z
" id="DejaVuSans-38" transform="scale(0.015625)"/>
       </defs>
       <use xlink:href="#DejaVuSans-36"/>
       <use x="63.623047" xlink:href="#DejaVuSans-33"/>
       <use x="127.246094" xlink:href="#DejaVuSans-38"/>
      </g>
     </g>
    </g>
    <g id="ytick_6">
     <g id="line2d_18">
      <g>
       <use style="stroke:#000000;stroke-width:0.8;" x="46.965625" xlink:href="#mbabf1e14ea" y="34.414125"/>
      </g>
     </g>
     <g id="text_19">
      <!-- 640 -->
      <g transform="translate(20.878125 38.213344)scale(0.1 -0.1)">
       <use xlink:href="#DejaVuSans-36"/>
       <use x="63.623047" xlink:href="#DejaVuSans-34"/>
       <use x="127.246094" xlink:href="#DejaVuSans-30"/>
      </g>
     </g>
    </g>
    <g id="text_20">
     <!-- Code region coverage -->
     <g transform="translate(14.798438 210.379594)rotate(-90)scale(0.1 -0.1)">
      <defs>
       <path d="M 4122 4306 
L 4122 3641 
Q 3803 3938 3442 4084 
Q 3081 4231 2675 4231 
Q 1875 4231 1450 3742 
Q 1025 3253 1025 2328 
Q 1025 1406 1450 917 
Q 1875 428 2675 428 
Q 3081 428 3442 575 
Q 3803 722 4122 1019 
L 4122 359 
Q 3791 134 3420 21 
Q 3050 -91 2638 -91 
Q 1578 -91 968 557 
Q 359 1206 359 2328 
Q 359 3453 968 4101 
Q 1578 4750 2638 4750 
Q 3056 4750 3426 4639 
Q 3797 4528 4122 4306 
z
" id="DejaVuSans-43" transform="scale(0.015625)"/>
       <path d="M 2906 2969 
L 2906 4863 
L 3481 4863 
L 3481 0 
L 2906 0 
L 2906 525 
Q 2725 213 2448 61 
Q 2172 -91 1784 -91 
Q 1150 -91 751 415 
Q 353 922 353 1747 
Q 353 2572 751 3078 
Q 1150 3584 1784 3584 
Q 2172 3584 2448 3432 
Q 2725 3281 2906 2969 
z
M 947 1747 
Q 947 1113 1208 752 
Q 1469 391 1925 391 
Q 2381 391 2643 752 
Q 2906 1113 2906 1747 
Q 2906 2381 2643 2742 
Q 2381 3103 1925 3103 
Q 1469 3103 1208 2742 
Q 947 2381 947 1747 
z
" id="DejaVuSans-64" transform="scale(0.015625)"/>
       <path d="M 2906 1791 
Q 2906 2416 2648 2759 
Q 2391 3103 1925 3103 
Q 1463 3103 1205 2759 
Q 947 2416 947 1791 
Q 947 1169 1205 825 
Q 1463 481 1925 481 
Q 2391 481 2648 825 
Q 2906 1169 2906 1791 
z
M 3481 434 
Q 3481 -459 3084 -895 
Q 2688 -1331 1869 -1331 
Q 1566 -1331 1297 -1286 
Q 1028 -1241 775 -1147 
L 775 -588 
Q 1028 -725 1275 -790 
Q 1522 -856 1778 -856 
Q 2344 -856 2625 -561 
Q 2906 -266 2906 331 
L 2906 616 
Q 2728 306 2450 153 
Q 2172 0 1784 0 
Q 1141 0 747 490 
Q 353 981 353 1791 
Q 353 2603 747 3093 
Q 1141 3584 1784 3584 
Q 2172 3584 2450 3431 
Q 2728 3278 2906 2969 
L 2906 3500 
L 3481 3500 
L 3481 434 
z
" id="DejaVuSans-67" transform="scale(0.015625)"/>
       <path d="M 3122 3366 
L 3122 2828 
Q 2878 2963 2633 3030 
Q 2388 3097 2138 3097 
Q 1578 3097 1268 2742 
Q 959 2388 959 1747 
Q 959 1106 1268 751 
Q 1578 397 2138 397 
Q 2388 397 2633 464 
Q 2878 531 3122 666 
L 3122 134 
Q 2881 22 2623 -34 
Q 2366 -91 2075 -91 
Q 1284 -91 818 406 
Q 353 903 353 1747 
Q 353 2603 823 3093 
Q 1294 3584 2113 3584 
Q 2378 3584 2631 3529 
Q 2884 3475 3122 3366 
z
" id="DejaVuSans-63" transform="scale(0.015625)"/>
       <path d="M 191 3500 
L 800 3500 
L 1894 563 
L 2988 3500 
L 3597 3500 
L 2284 0 
L 1503 0 
L 191 3500 
z
" id="DejaVuSans-76" transform="scale(0.015625)"/>
       <path d="M 2194 1759 
Q 1497 1759 1228 1600 
Q 959 1441 959 1056 
Q 959 750 1161 570 
Q 1363 391 1709 391 
Q 2188 391 2477 730 
Q 2766 1069 2766 1631 
L 2766 1759 
L 2194 1759 
z
M 3341 1997 
L 3341 0 
L 2766 0 
L 2766 531 
Q 2569 213 2275 61 
Q 1981 -91 1556 -91 
Q 1019 -91 701 211 
Q 384 513 384 1019 
Q 384 1609 779 1909 
Q 1175 2209 1959 2209 
L 2766 2209 
L 2766 2266 
Q 2766 2663 2505 2880 
Q 2244 3097 1772 3097 
Q 1472 3097 1187 3025 
Q 903 2953 641 2809 
L 641 3341 
Q 956 3463 1253 3523 
Q 1550 3584 1831 3584 
Q 2591 3584 2966 3190 
Q 3341 2797 3341 1997 
z
" id="DejaVuSans-61" transform="scale(0.015625)"/>
      </defs>
      <use xlink:href="#DejaVuSans-43"/>
      <use x="69.824219" xlink:href="#DejaVuSans-6f"/>
      <use x="131.005859" xlink:href="#DejaVuSans-64"/>
      <use x="194.482422" xlink:href="#DejaVuSans-65"/>
      <use x="256.005859" xlink:href="#DejaVuSans-20"/>
      <use x="287.792969" xlink:href="#DejaVuSans-72"/>
      <use x="326.65625" xlink:href="#DejaVuSans-65"/>
      <use x="388.179688" xlink:href="#DejaVuSans-67"/>
      <use x="451.65625" xlink:href="#DejaVuSans-69"/>
      <use x="479.439453" xlink:href="#DejaVuSans-6f"/>
      <use x="540.621094" xlink:href="#DejaVuSans-6e"/>
      <use x="604" xlink:href="#DejaVuSans-20"/>
      <use x="635.787109" xlink:href="#DejaVuSans-63"/>
      <use x="690.767578" xlink:href="#DejaVuSans-6f"/>
      <use x="751.949219" xlink:href="#DejaVuSans-76"/>
      <use x="811.128906" xlink:href="#DejaVuSans-65"/>
      <use x="872.652344" xlink:href="#DejaVuSans-72"/>
      <use x="913.765625" xlink:href="#DejaVuSans-61"/>
      <use x="975.044922" xlink:href="#DejaVuSans-67"/>
      <use x="1038.521484" xlink:href="#DejaVuSans-65"/>
     </g>
    </g>
   </g>
   <g id="line2d_19">
    <path clip-path="url(#p999cf37ceb)" d="M 79.43108 58.606125 
L 86.566344 34.414125 
L 93.701609 34.414125 
L 100.836874 34.414125 
L 107.972138 34.414125 
L 115.107403 34.414125 
L 122.242668 34.414125 
L 129.377933 34.414125 
L 136.513197 34.414125 
L 143.648462 34.414125 
L 150.783727 34.414125 
L 157.918992 34.414125 
L 165.054256 34.414125 
L 172.189521 34.414125 
L 179.324786 34.414125 
L 186.460051 34.414125 
L 193.595315 34.414125 
L 200.73058 34.414125 
L 207.865845 34.414125 
L 215.00111 34.414125 
L 222.136374 34.414125 
L 229.271639 34.414125 
L 236.406904 34.414125 
L 243.542168 34.414125 
L 250.677433 34.414125 
L 257.812698 34.414125 
L 264.947963 34.414125 
L 272.083227 34.414125 
L 279.218492 34.414125 
L 286.353757 34.414125 
L 293.489022 34.414125 
L 300.624286 34.414125 
L 307.759551 34.414125 
L 314.894816 34.414125 
L 322.030081 34.414125 
L 329.165345 34.414125 
L 336.30061 34.414125 
L 343.435875 34.414125 
L 350.571139 34.414125 
L 357.706404 34.414125 
L 364.841669 34.414125 
L 371.976934 34.414125 
L 379.112198 34.414125 
L 386.247463 34.414125 
L 393.382728 34.414125 
L 400.517993 34.414125 
L 407.653257 34.414125 
L 414.788522 34.414125 
L 421.923787 34.414125 
L 429.059052 34.414125 
L 436.194316 34.414125 
L 443.329581 34.414125 
L 450.464846 34.414125 
L 457.600111 34.414125 
L 464.735375 34.414125 
L 471.87064 34.414125 
L 479.005905 34.414125 
L 486.141169 34.414125 
L 493.276434 34.414125 
L 500.411699 34.414125 
L 507.546964 34.414125 
L 514.682228 34.414125 
L 521.817493 34.414125 
L 528.952758 34.414125 
L 536.088023 34.414125 
L 543.223287 34.414125 
L 550.358552 34.414125 
L 557.493817 34.414125 
L 564.629082 34.414125 
L 571.764346 34.414125 
L 578.899611 34.414125 
L 586.034876 34.414125 
L 593.17014 34.414125 
L 600.305405 34.414125 
L 607.44067 34.414125 
L 614.575935 34.414125 
L 621.711199 34.414125 
L 628.846464 34.414125 
L 635.981729 34.414125 
L 643.116994 34.414125 
L 650.252258 34.414125 
L 657.387523 34.414125 
L 664.522788 34.414125 
L 671.658053 34.414125 
L 678.793317 34.414125 
L 685.928582 34.414125 
L 693.063847 34.414125 
L 700.199112 34.414125 
L 707.334376 34.414125 
L 714.469641 34.414125 
L 721.604906 34.414125 
L 728.74017 34.414125 
" style="fill:none;stroke:#98df8a;stroke-linecap:square;stroke-width:1.5;"/>
    <defs>
     <path d="M -0 3 
L 3 -3 
L -3 -3 
z
" id="m8b406f886c" style="stroke:#ffffff;stroke-linejoin:miter;stroke-width:0.75;"/>
    </defs>
    <g clip-path="url(#p999cf37ceb)">
     <use style="fill:#98df8a;stroke:#ffffff;stroke-linejoin:miter;stroke-width:0.75;" x="79.43108" xlink:href="#m8b406f886c" y="58.606125"/>
     <use style="fill:#98df8a;stroke:#ffffff;stroke-linejoin:miter;stroke-width:0.75;" x="86.566344" xlink:href="#m8b406f886c" y="34.414125"/>
     <use style="fill:#98df8a;stroke:#ffffff;stroke-linejoin:miter;stroke-width:0.75;" x="93.701609" xlink:href="#m8b406f886c" y="34.414125"/>
     <use style="fill:#98df8a;stroke:#ffffff;stroke-linejoin:miter;stroke-width:0.75;" x="100.836874" xlink:href="#m8b406f886c" y="34.414125"/>
     <use style="fill:#98df8a;stroke:#ffffff;stroke-linejoin:miter;stroke-width:0.75;" x="107.972138" xlink:href="#m8b406f886c" y="34.414125"/>
     <use style="fill:#98df8a;stroke:#ffffff;stroke-linejoin:miter;stroke-width:0.75;" x="115.107403" xlink:href="#m8b406f886c" y="34.414125"/>
     <use style="fill:#98df8a;stroke:#ffffff;stroke-linejoin:miter;stroke-width:0.75;" x="122.242668" xlink:href="#m8b406f886c" y="34.414125"/>
     <use style="fill:#98df8a;stroke:#ffffff;stroke-linejoin:miter;stroke-width:0.75;" x="129.377933" xlink:href="#m8b406f886c" y="34.414125"/>
     <use style="fill:#98df8a;stroke:#ffffff;stroke-linejoin:miter;stroke-width:0.75;" x="136.513197" xlink:href="#m8b406f886c" y="34.414125"/>
     <use style="fill:#98df8a;stroke:#ffffff;stroke-linejoin:miter;stroke-width:0.75;" x="143.648462" xlink:href="#m8b406f886c" y="34.414125"/>
     <use style="fill:#98df8a;stroke:#ffffff;stroke-linejoin:miter;stroke-width:0.75;" x="150.783727" xlink:href="#m8b406f886c" y="34.414125"/>
     <use style="fill:#98df8a;stroke:#ffffff;stroke-linejoin:miter;stroke-width:0.75;" x="157.918992" xlink:href="#m8b406f886c" y="34.414125"/>
     <use style="fill:#98df8a;stroke:#ffffff;stroke-linejoin:miter;stroke-width:0.75;" x="165.054256" xlink:href="#m8b406f886c" y="34.414125"/>
     <use style="fill:#98df8a;stroke:#ffffff;stroke-linejoin:miter;stroke-width:0.75;" x="172.189521" xlink:href="#m8b406f886c" y="34.414125"/>
     <use style="fill:#98df8a;stroke:#ffffff;stroke-linejoin:miter;stroke-width:0.75;" x="179.324786" xlink:href="#m8b406f886c" y="34.414125"/>
     <use style="fill:#98df8a;stroke:#ffffff;stroke-linejoin:miter;stroke-width:0.75;" x="186.460051" xlink:href="#m8b406f886c" y="34.414125"/>
     <use style="fill:#98df8a;stroke:#ffffff;stroke-linejoin:miter;stroke-width:0.75;" x="193.595315" xlink:href="#m8b406f886c" y="34.414125"/>
     <use style="fill:#98df8a;stroke:#ffffff;stroke-linejoin:miter;stroke-width:0.75;" x="200.73058" xlink:href="#m8b406f886c" y="34.414125"/>
     <use style="fill:#98df8a;stroke:#ffffff;stroke-linejoin:miter;stroke-width:0.75;" x="207.865845" xlink:href="#m8b406f886c" y="34.414125"/>
     <use style="fill:#98df8a;stroke:#ffffff;stroke-linejoin:miter;stroke-width:0.75;" x="215.00111" xlink:href="#m8b406f886c" y="34.414125"/>
     <use style="fill:#98df8a;stroke:#ffffff;stroke-linejoin:miter;stroke-width:0.75;" x="222.136374" xlink:href="#m8b406f886c" y="34.414125"/>
     <use style="fill:#98df8a;stroke:#ffffff;stroke-linejoin:miter;stroke-width:0.75;" x="229.271639" xlink:href="#m8b406f886c" y="34.414125"/>
     <use style="fill:#98df8a;stroke:#ffffff;stroke-linejoin:miter;stroke-width:0.75;" x="236.406904" xlink:href="#m8b406f886c" y="34.414125"/>
     <use style="fill:#98df8a;stroke:#ffffff;stroke-linejoin:miter;stroke-width:0.75;" x="243.542168" xlink:href="#m8b406f886c" y="34.414125"/>
     <use style="fill:#98df8a;stroke:#ffffff;stroke-linejoin:miter;stroke-width:0.75;" x="250.677433" xlink:href="#m8b406f886c" y="34.414125"/>
     <use style="fill:#98df8a;stroke:#ffffff;stroke-linejoin:miter;stroke-width:0.75;" x="257.812698" xlink:href="#m8b406f886c" y="34.414125"/>
     <use style="fill:#98df8a;stroke:#ffffff;stroke-linejoin:miter;stroke-width:0.75;" x="264.947963" xlink:href="#m8b406f886c" y="34.414125"/>
     <use style="fill:#98df8a;stroke:#ffffff;stroke-linejoin:miter;stroke-width:0.75;" x="272.083227" xlink:href="#m8b406f886c" y="34.414125"/>
     <use style="fill:#98df8a;stroke:#ffffff;stroke-linejoin:miter;stroke-width:0.75;" x="279.218492" xlink:href="#m8b406f886c" y="34.414125"/>
     <use style="fill:#98df8a;stroke:#ffffff;stroke-linejoin:miter;stroke-width:0.75;" x="286.353757" xlink:href="#m8b406f886c" y="34.414125"/>
     <use style="fill:#98df8a;stroke:#ffffff;stroke-linejoin:miter;stroke-width:0.75;" x="293.489022" xlink:href="#m8b406f886c" y="34.414125"/>
     <use style="fill:#98df8a;stroke:#ffffff;stroke-linejoin:miter;stroke-width:0.75;" x="300.624286" xlink:href="#m8b406f886c" y="34.414125"/>
     <use style="fill:#98df8a;stroke:#ffffff;stroke-linejoin:miter;stroke-width:0.75;" x="307.759551" xlink:href="#m8b406f886c" y="34.414125"/>
     <use style="fill:#98df8a;stroke:#ffffff;stroke-linejoin:miter;stroke-width:0.75;" x="314.894816" xlink:href="#m8b406f886c" y="34.414125"/>
     <use style="fill:#98df8a;stroke:#ffffff;stroke-linejoin:miter;stroke-width:0.75;" x="322.030081" xlink:href="#m8b406f886c" y="34.414125"/>
     <use style="fill:#98df8a;stroke:#ffffff;stroke-linejoin:miter;stroke-width:0.75;" x="329.165345" xlink:href="#m8b406f886c" y="34.414125"/>
     <use style="fill:#98df8a;stroke:#ffffff;stroke-linejoin:miter;stroke-width:0.75;" x="336.30061" xlink:href="#m8b406f886c" y="34.414125"/>
     <use style="fill:#98df8a;stroke:#ffffff;stroke-linejoin:miter;stroke-width:0.75;" x="343.435875" xlink:href="#m8b406f886c" y="34.414125"/>
     <use style="fill:#98df8a;stroke:#ffffff;stroke-linejoin:miter;stroke-width:0.75;" x="350.571139" xlink:href="#m8b406f886c" y="34.414125"/>
     <use style="fill:#98df8a;stroke:#ffffff;stroke-linejoin:miter;stroke-width:0.75;" x="357.706404" xlink:href="#m8b406f886c" y="34.414125"/>
     <use style="fill:#98df8a;stroke:#ffffff;stroke-linejoin:miter;stroke-width:0.75;" x="364.841669" xlink:href="#m8b406f886c" y="34.414125"/>
     <use style="fill:#98df8a;stroke:#ffffff;stroke-linejoin:miter;stroke-width:0.75;" x="371.976934" xlink:href="#m8b406f886c" y="34.414125"/>
     <use style="fill:#98df8a;stroke:#ffffff;stroke-linejoin:miter;stroke-width:0.75;" x="379.112198" xlink:href="#m8b406f886c" y="34.414125"/>
     <use style="fill:#98df8a;stroke:#ffffff;stroke-linejoin:miter;stroke-width:0.75;" x="386.247463" xlink:href="#m8b406f886c" y="34.414125"/>
     <use style="fill:#98df8a;stroke:#ffffff;stroke-linejoin:miter;stroke-width:0.75;" x="393.382728" xlink:href="#m8b406f886c" y="34.414125"/>
     <use style="fill:#98df8a;stroke:#ffffff;stroke-linejoin:miter;stroke-width:0.75;" x="400.517993" xlink:href="#m8b406f886c" y="34.414125"/>
     <use style="fill:#98df8a;stroke:#ffffff;stroke-linejoin:miter;stroke-width:0.75;" x="407.653257" xlink:href="#m8b406f886c" y="34.414125"/>
     <use style="fill:#98df8a;stroke:#ffffff;stroke-linejoin:miter;stroke-width:0.75;" x="414.788522" xlink:href="#m8b406f886c" y="34.414125"/>
     <use style="fill:#98df8a;stroke:#ffffff;stroke-linejoin:miter;stroke-width:0.75;" x="421.923787" xlink:href="#m8b406f886c" y="34.414125"/>
     <use style="fill:#98df8a;stroke:#ffffff;stroke-linejoin:miter;stroke-width:0.75;" x="429.059052" xlink:href="#m8b406f886c" y="34.414125"/>
     <use style="fill:#98df8a;stroke:#ffffff;stroke-linejoin:miter;stroke-width:0.75;" x="436.194316" xlink:href="#m8b406f886c" y="34.414125"/>
     <use style="fill:#98df8a;stroke:#ffffff;stroke-linejoin:miter;stroke-width:0.75;" x="443.329581" xlink:href="#m8b406f886c" y="34.414125"/>
     <use style="fill:#98df8a;stroke:#ffffff;stroke-linejoin:miter;stroke-width:0.75;" x="450.464846" xlink:href="#m8b406f886c" y="34.414125"/>
     <use style="fill:#98df8a;stroke:#ffffff;stroke-linejoin:miter;stroke-width:0.75;" x="457.600111" xlink:href="#m8b406f886c" y="34.414125"/>
     <use style="fill:#98df8a;stroke:#ffffff;stroke-linejoin:miter;stroke-width:0.75;" x="464.735375" xlink:href="#m8b406f886c" y="34.414125"/>
     <use style="fill:#98df8a;stroke:#ffffff;stroke-linejoin:miter;stroke-width:0.75;" x="471.87064" xlink:href="#m8b406f886c" y="34.414125"/>
     <use style="fill:#98df8a;stroke:#ffffff;stroke-linejoin:miter;stroke-width:0.75;" x="479.005905" xlink:href="#m8b406f886c" y="34.414125"/>
     <use style="fill:#98df8a;stroke:#ffffff;stroke-linejoin:miter;stroke-width:0.75;" x="486.141169" xlink:href="#m8b406f886c" y="34.414125"/>
     <use style="fill:#98df8a;stroke:#ffffff;stroke-linejoin:miter;stroke-width:0.75;" x="493.276434" xlink:href="#m8b406f886c" y="34.414125"/>
     <use style="fill:#98df8a;stroke:#ffffff;stroke-linejoin:miter;stroke-width:0.75;" x="500.411699" xlink:href="#m8b406f886c" y="34.414125"/>
     <use style="fill:#98df8a;stroke:#ffffff;stroke-linejoin:miter;stroke-width:0.75;" x="507.546964" xlink:href="#m8b406f886c" y="34.414125"/>
     <use style="fill:#98df8a;stroke:#ffffff;stroke-linejoin:miter;stroke-width:0.75;" x="514.682228" xlink:href="#m8b406f886c" y="34.414125"/>
     <use style="fill:#98df8a;stroke:#ffffff;stroke-linejoin:miter;stroke-width:0.75;" x="521.817493" xlink:href="#m8b406f886c" y="34.414125"/>
     <use style="fill:#98df8a;stroke:#ffffff;stroke-linejoin:miter;stroke-width:0.75;" x="528.952758" xlink:href="#m8b406f886c" y="34.414125"/>
     <use style="fill:#98df8a;stroke:#ffffff;stroke-linejoin:miter;stroke-width:0.75;" x="536.088023" xlink:href="#m8b406f886c" y="34.414125"/>
     <use style="fill:#98df8a;stroke:#ffffff;stroke-linejoin:miter;stroke-width:0.75;" x="543.223287" xlink:href="#m8b406f886c" y="34.414125"/>
     <use style="fill:#98df8a;stroke:#ffffff;stroke-linejoin:miter;stroke-width:0.75;" x="550.358552" xlink:href="#m8b406f886c" y="34.414125"/>
     <use style="fill:#98df8a;stroke:#ffffff;stroke-linejoin:miter;stroke-width:0.75;" x="557.493817" xlink:href="#m8b406f886c" y="34.414125"/>
     <use style="fill:#98df8a;stroke:#ffffff;stroke-linejoin:miter;stroke-width:0.75;" x="564.629082" xlink:href="#m8b406f886c" y="34.414125"/>
     <use style="fill:#98df8a;stroke:#ffffff;stroke-linejoin:miter;stroke-width:0.75;" x="571.764346" xlink:href="#m8b406f886c" y="34.414125"/>
     <use style="fill:#98df8a;stroke:#ffffff;stroke-linejoin:miter;stroke-width:0.75;" x="578.899611" xlink:href="#m8b406f886c" y="34.414125"/>
     <use style="fill:#98df8a;stroke:#ffffff;stroke-linejoin:miter;stroke-width:0.75;" x="586.034876" xlink:href="#m8b406f886c" y="34.414125"/>
     <use style="fill:#98df8a;stroke:#ffffff;stroke-linejoin:miter;stroke-width:0.75;" x="593.17014" xlink:href="#m8b406f886c" y="34.414125"/>
     <use style="fill:#98df8a;stroke:#ffffff;stroke-linejoin:miter;stroke-width:0.75;" x="600.305405" xlink:href="#m8b406f886c" y="34.414125"/>
     <use style="fill:#98df8a;stroke:#ffffff;stroke-linejoin:miter;stroke-width:0.75;" x="607.44067" xlink:href="#m8b406f886c" y="34.414125"/>
     <use style="fill:#98df8a;stroke:#ffffff;stroke-linejoin:miter;stroke-width:0.75;" x="614.575935" xlink:href="#m8b406f886c" y="34.414125"/>
     <use style="fill:#98df8a;stroke:#ffffff;stroke-linejoin:miter;stroke-width:0.75;" x="621.711199" xlink:href="#m8b406f886c" y="34.414125"/>
     <use style="fill:#98df8a;stroke:#ffffff;stroke-linejoin:miter;stroke-width:0.75;" x="628.846464" xlink:href="#m8b406f886c" y="34.414125"/>
     <use style="fill:#98df8a;stroke:#ffffff;stroke-linejoin:miter;stroke-width:0.75;" x="635.981729" xlink:href="#m8b406f886c" y="34.414125"/>
     <use style="fill:#98df8a;stroke:#ffffff;stroke-linejoin:miter;stroke-width:0.75;" x="643.116994" xlink:href="#m8b406f886c" y="34.414125"/>
     <use style="fill:#98df8a;stroke:#ffffff;stroke-linejoin:miter;stroke-width:0.75;" x="650.252258" xlink:href="#m8b406f886c" y="34.414125"/>
     <use style="fill:#98df8a;stroke:#ffffff;stroke-linejoin:miter;stroke-width:0.75;" x="657.387523" xlink:href="#m8b406f886c" y="34.414125"/>
     <use style="fill:#98df8a;stroke:#ffffff;stroke-linejoin:miter;stroke-width:0.75;" x="664.522788" xlink:href="#m8b406f886c" y="34.414125"/>
     <use style="fill:#98df8a;stroke:#ffffff;stroke-linejoin:miter;stroke-width:0.75;" x="671.658053" xlink:href="#m8b406f886c" y="34.414125"/>
     <use style="fill:#98df8a;stroke:#ffffff;stroke-linejoin:miter;stroke-width:0.75;" x="678.793317" xlink:href="#m8b406f886c" y="34.414125"/>
     <use style="fill:#98df8a;stroke:#ffffff;stroke-linejoin:miter;stroke-width:0.75;" x="685.928582" xlink:href="#m8b406f886c" y="34.414125"/>
     <use style="fill:#98df8a;stroke:#ffffff;stroke-linejoin:miter;stroke-width:0.75;" x="693.063847" xlink:href="#m8b406f886c" y="34.414125"/>
     <use style="fill:#98df8a;stroke:#ffffff;stroke-linejoin:miter;stroke-width:0.75;" x="700.199112" xlink:href="#m8b406f886c" y="34.414125"/>
     <use style="fill:#98df8a;stroke:#ffffff;stroke-linejoin:miter;stroke-width:0.75;" x="707.334376" xlink:href="#m8b406f886c" y="34.414125"/>
     <use style="fill:#98df8a;stroke:#ffffff;stroke-linejoin:miter;stroke-width:0.75;" x="714.469641" xlink:href="#m8b406f886c" y="34.414125"/>
     <use style="fill:#98df8a;stroke:#ffffff;stroke-linejoin:miter;stroke-width:0.75;" x="721.604906" xlink:href="#m8b406f886c" y="34.414125"/>
     <use style="fill:#98df8a;stroke:#ffffff;stroke-linejoin:miter;stroke-width:0.75;" x="728.74017" xlink:href="#m8b406f886c" y="34.414125"/>
    </g>
   </g>
   <g id="line2d_20">
    <path clip-path="url(#p999cf37ceb)" d="M 79.43108 46.510125 
L 86.566344 34.414125 
L 93.701609 34.414125 
L 100.836874 34.414125 
L 107.972138 34.414125 
L 115.107403 34.414125 
L 122.242668 34.414125 
L 129.377933 34.414125 
L 136.513197 34.414125 
L 143.648462 34.414125 
L 150.783727 34.414125 
L 157.918992 34.414125 
L 165.054256 34.414125 
L 172.189521 34.414125 
L 179.324786 34.414125 
L 186.460051 34.414125 
L 193.595315 34.414125 
L 200.73058 34.414125 
L 207.865845 34.414125 
L 215.00111 34.414125 
L 222.136374 34.414125 
L 229.271639 34.414125 
L 236.406904 34.414125 
L 243.542168 34.414125 
L 250.677433 34.414125 
L 257.812698 34.414125 
L 264.947963 34.414125 
L 272.083227 34.414125 
L 279.218492 34.414125 
L 286.353757 34.414125 
L 293.489022 34.414125 
L 300.624286 34.414125 
L 307.759551 34.414125 
L 314.894816 34.414125 
L 322.030081 34.414125 
L 329.165345 34.414125 
L 336.30061 34.414125 
L 343.435875 34.414125 
L 350.571139 34.414125 
L 357.706404 34.414125 
L 364.841669 34.414125 
L 371.976934 34.414125 
L 379.112198 34.414125 
L 386.247463 34.414125 
L 393.382728 34.414125 
L 400.517993 34.414125 
L 407.653257 34.414125 
L 414.788522 34.414125 
L 421.923787 34.414125 
L 429.059052 34.414125 
L 436.194316 34.414125 
L 443.329581 34.414125 
L 450.464846 34.414125 
L 457.600111 34.414125 
L 464.735375 34.414125 
L 471.87064 34.414125 
L 479.005905 34.414125 
L 486.141169 34.414125 
L 493.276434 34.414125 
L 500.411699 34.414125 
L 507.546964 34.414125 
L 514.682228 34.414125 
L 521.817493 34.414125 
L 528.952758 34.414125 
L 536.088023 34.414125 
L 543.223287 34.414125 
L 550.358552 34.414125 
L 557.493817 34.414125 
L 564.629082 34.414125 
L 571.764346 34.414125 
L 578.899611 34.414125 
L 586.034876 34.414125 
L 593.17014 34.414125 
L 600.305405 34.414125 
L 607.44067 34.414125 
L 614.575935 34.414125 
L 621.711199 34.414125 
L 628.846464 34.414125 
L 635.981729 34.414125 
L 643.116994 34.414125 
L 650.252258 34.414125 
L 657.387523 34.414125 
L 664.522788 34.414125 
L 671.658053 34.414125 
L 678.793317 34.414125 
L 685.928582 34.414125 
L 693.063847 34.414125 
L 700.199112 34.414125 
L 707.334376 34.414125 
L 714.469641 34.414125 
L 721.604906 34.414125 
L 728.74017 34.414125 
" style="fill:none;stroke:#1f77b4;stroke-linecap:square;stroke-width:1.5;"/>
    <defs>
     <path d="M 0 3 
C 0.795609 3 1.55874 2.683901 2.12132 2.12132 
C 2.683901 1.55874 3 0.795609 3 0 
C 3 -0.795609 2.683901 -1.55874 2.12132 -2.12132 
C 1.55874 -2.683901 0.795609 -3 0 -3 
C -0.795609 -3 -1.55874 -2.683901 -2.12132 -2.12132 
C -2.683901 -1.55874 -3 -0.795609 -3 0 
C -3 0.795609 -2.683901 1.55874 -2.12132 2.12132 
C -1.55874 2.683901 -0.795609 3 0 3 
z
" id="mdcce2ab423" style="stroke:#ffffff;stroke-width:0.75;"/>
    </defs>
    <g clip-path="url(#p999cf37ceb)">
     <use style="fill:#1f77b4;stroke:#ffffff;stroke-width:0.75;" x="79.43108" xlink:href="#mdcce2ab423" y="46.510125"/>
     <use style="fill:#1f77b4;stroke:#ffffff;stroke-width:0.75;" x="86.566344" xlink:href="#mdcce2ab423" y="34.414125"/>
     <use style="fill:#1f77b4;stroke:#ffffff;stroke-width:0.75;" x="93.701609" xlink:href="#mdcce2ab423" y="34.414125"/>
     <use style="fill:#1f77b4;stroke:#ffffff;stroke-width:0.75;" x="100.836874" xlink:href="#mdcce2ab423" y="34.414125"/>
     <use style="fill:#1f77b4;stroke:#ffffff;stroke-width:0.75;" x="107.972138" xlink:href="#mdcce2ab423" y="34.414125"/>
     <use style="fill:#1f77b4;stroke:#ffffff;stroke-width:0.75;" x="115.107403" xlink:href="#mdcce2ab423" y="34.414125"/>
     <use style="fill:#1f77b4;stroke:#ffffff;stroke-width:0.75;" x="122.242668" xlink:href="#mdcce2ab423" y="34.414125"/>
     <use style="fill:#1f77b4;stroke:#ffffff;stroke-width:0.75;" x="129.377933" xlink:href="#mdcce2ab423" y="34.414125"/>
     <use style="fill:#1f77b4;stroke:#ffffff;stroke-width:0.75;" x="136.513197" xlink:href="#mdcce2ab423" y="34.414125"/>
     <use style="fill:#1f77b4;stroke:#ffffff;stroke-width:0.75;" x="143.648462" xlink:href="#mdcce2ab423" y="34.414125"/>
     <use style="fill:#1f77b4;stroke:#ffffff;stroke-width:0.75;" x="150.783727" xlink:href="#mdcce2ab423" y="34.414125"/>
     <use style="fill:#1f77b4;stroke:#ffffff;stroke-width:0.75;" x="157.918992" xlink:href="#mdcce2ab423" y="34.414125"/>
     <use style="fill:#1f77b4;stroke:#ffffff;stroke-width:0.75;" x="165.054256" xlink:href="#mdcce2ab423" y="34.414125"/>
     <use style="fill:#1f77b4;stroke:#ffffff;stroke-width:0.75;" x="172.189521" xlink:href="#mdcce2ab423" y="34.414125"/>
     <use style="fill:#1f77b4;stroke:#ffffff;stroke-width:0.75;" x="179.324786" xlink:href="#mdcce2ab423" y="34.414125"/>
     <use style="fill:#1f77b4;stroke:#ffffff;stroke-width:0.75;" x="186.460051" xlink:href="#mdcce2ab423" y="34.414125"/>
     <use style="fill:#1f77b4;stroke:#ffffff;stroke-width:0.75;" x="193.595315" xlink:href="#mdcce2ab423" y="34.414125"/>
     <use style="fill:#1f77b4;stroke:#ffffff;stroke-width:0.75;" x="200.73058" xlink:href="#mdcce2ab423" y="34.414125"/>
     <use style="fill:#1f77b4;stroke:#ffffff;stroke-width:0.75;" x="207.865845" xlink:href="#mdcce2ab423" y="34.414125"/>
     <use style="fill:#1f77b4;stroke:#ffffff;stroke-width:0.75;" x="215.00111" xlink:href="#mdcce2ab423" y="34.414125"/>
     <use style="fill:#1f77b4;stroke:#ffffff;stroke-width:0.75;" x="222.136374" xlink:href="#mdcce2ab423" y="34.414125"/>
     <use style="fill:#1f77b4;stroke:#ffffff;stroke-width:0.75;" x="229.271639" xlink:href="#mdcce2ab423" y="34.414125"/>
     <use style="fill:#1f77b4;stroke:#ffffff;stroke-width:0.75;" x="236.406904" xlink:href="#mdcce2ab423" y="34.414125"/>
     <use style="fill:#1f77b4;stroke:#ffffff;stroke-width:0.75;" x="243.542168" xlink:href="#mdcce2ab423" y="34.414125"/>
     <use style="fill:#1f77b4;stroke:#ffffff;stroke-width:0.75;" x="250.677433" xlink:href="#mdcce2ab423" y="34.414125"/>
     <use style="fill:#1f77b4;stroke:#ffffff;stroke-width:0.75;" x="257.812698" xlink:href="#mdcce2ab423" y="34.414125"/>
     <use style="fill:#1f77b4;stroke:#ffffff;stroke-width:0.75;" x="264.947963" xlink:href="#mdcce2ab423" y="34.414125"/>
     <use style="fill:#1f77b4;stroke:#ffffff;stroke-width:0.75;" x="272.083227" xlink:href="#mdcce2ab423" y="34.414125"/>
     <use style="fill:#1f77b4;stroke:#ffffff;stroke-width:0.75;" x="279.218492" xlink:href="#mdcce2ab423" y="34.414125"/>
     <use style="fill:#1f77b4;stroke:#ffffff;stroke-width:0.75;" x="286.353757" xlink:href="#mdcce2ab423" y="34.414125"/>
     <use style="fill:#1f77b4;stroke:#ffffff;stroke-width:0.75;" x="293.489022" xlink:href="#mdcce2ab423" y="34.414125"/>
     <use style="fill:#1f77b4;stroke:#ffffff;stroke-width:0.75;" x="300.624286" xlink:href="#mdcce2ab423" y="34.414125"/>
     <use style="fill:#1f77b4;stroke:#ffffff;stroke-width:0.75;" x="307.759551" xlink:href="#mdcce2ab423" y="34.414125"/>
     <use style="fill:#1f77b4;stroke:#ffffff;stroke-width:0.75;" x="314.894816" xlink:href="#mdcce2ab423" y="34.414125"/>
     <use style="fill:#1f77b4;stroke:#ffffff;stroke-width:0.75;" x="322.030081" xlink:href="#mdcce2ab423" y="34.414125"/>
     <use style="fill:#1f77b4;stroke:#ffffff;stroke-width:0.75;" x="329.165345" xlink:href="#mdcce2ab423" y="34.414125"/>
     <use style="fill:#1f77b4;stroke:#ffffff;stroke-width:0.75;" x="336.30061" xlink:href="#mdcce2ab423" y="34.414125"/>
     <use style="fill:#1f77b4;stroke:#ffffff;stroke-width:0.75;" x="343.435875" xlink:href="#mdcce2ab423" y="34.414125"/>
     <use style="fill:#1f77b4;stroke:#ffffff;stroke-width:0.75;" x="350.571139" xlink:href="#mdcce2ab423" y="34.414125"/>
     <use style="fill:#1f77b4;stroke:#ffffff;stroke-width:0.75;" x="357.706404" xlink:href="#mdcce2ab423" y="34.414125"/>
     <use style="fill:#1f77b4;stroke:#ffffff;stroke-width:0.75;" x="364.841669" xlink:href="#mdcce2ab423" y="34.414125"/>
     <use style="fill:#1f77b4;stroke:#ffffff;stroke-width:0.75;" x="371.976934" xlink:href="#mdcce2ab423" y="34.414125"/>
     <use style="fill:#1f77b4;stroke:#ffffff;stroke-width:0.75;" x="379.112198" xlink:href="#mdcce2ab423" y="34.414125"/>
     <use style="fill:#1f77b4;stroke:#ffffff;stroke-width:0.75;" x="386.247463" xlink:href="#mdcce2ab423" y="34.414125"/>
     <use style="fill:#1f77b4;stroke:#ffffff;stroke-width:0.75;" x="393.382728" xlink:href="#mdcce2ab423" y="34.414125"/>
     <use style="fill:#1f77b4;stroke:#ffffff;stroke-width:0.75;" x="400.517993" xlink:href="#mdcce2ab423" y="34.414125"/>
     <use style="fill:#1f77b4;stroke:#ffffff;stroke-width:0.75;" x="407.653257" xlink:href="#mdcce2ab423" y="34.414125"/>
     <use style="fill:#1f77b4;stroke:#ffffff;stroke-width:0.75;" x="414.788522" xlink:href="#mdcce2ab423" y="34.414125"/>
     <use style="fill:#1f77b4;stroke:#ffffff;stroke-width:0.75;" x="421.923787" xlink:href="#mdcce2ab423" y="34.414125"/>
     <use style="fill:#1f77b4;stroke:#ffffff;stroke-width:0.75;" x="429.059052" xlink:href="#mdcce2ab423" y="34.414125"/>
     <use style="fill:#1f77b4;stroke:#ffffff;stroke-width:0.75;" x="436.194316" xlink:href="#mdcce2ab423" y="34.414125"/>
     <use style="fill:#1f77b4;stroke:#ffffff;stroke-width:0.75;" x="443.329581" xlink:href="#mdcce2ab423" y="34.414125"/>
     <use style="fill:#1f77b4;stroke:#ffffff;stroke-width:0.75;" x="450.464846" xlink:href="#mdcce2ab423" y="34.414125"/>
     <use style="fill:#1f77b4;stroke:#ffffff;stroke-width:0.75;" x="457.600111" xlink:href="#mdcce2ab423" y="34.414125"/>
     <use style="fill:#1f77b4;stroke:#ffffff;stroke-width:0.75;" x="464.735375" xlink:href="#mdcce2ab423" y="34.414125"/>
     <use style="fill:#1f77b4;stroke:#ffffff;stroke-width:0.75;" x="471.87064" xlink:href="#mdcce2ab423" y="34.414125"/>
     <use style="fill:#1f77b4;stroke:#ffffff;stroke-width:0.75;" x="479.005905" xlink:href="#mdcce2ab423" y="34.414125"/>
     <use style="fill:#1f77b4;stroke:#ffffff;stroke-width:0.75;" x="486.141169" xlink:href="#mdcce2ab423" y="34.414125"/>
     <use style="fill:#1f77b4;stroke:#ffffff;stroke-width:0.75;" x="493.276434" xlink:href="#mdcce2ab423" y="34.414125"/>
     <use style="fill:#1f77b4;stroke:#ffffff;stroke-width:0.75;" x="500.411699" xlink:href="#mdcce2ab423" y="34.414125"/>
     <use style="fill:#1f77b4;stroke:#ffffff;stroke-width:0.75;" x="507.546964" xlink:href="#mdcce2ab423" y="34.414125"/>
     <use style="fill:#1f77b4;stroke:#ffffff;stroke-width:0.75;" x="514.682228" xlink:href="#mdcce2ab423" y="34.414125"/>
     <use style="fill:#1f77b4;stroke:#ffffff;stroke-width:0.75;" x="521.817493" xlink:href="#mdcce2ab423" y="34.414125"/>
     <use style="fill:#1f77b4;stroke:#ffffff;stroke-width:0.75;" x="528.952758" xlink:href="#mdcce2ab423" y="34.414125"/>
     <use style="fill:#1f77b4;stroke:#ffffff;stroke-width:0.75;" x="536.088023" xlink:href="#mdcce2ab423" y="34.414125"/>
     <use style="fill:#1f77b4;stroke:#ffffff;stroke-width:0.75;" x="543.223287" xlink:href="#mdcce2ab423" y="34.414125"/>
     <use style="fill:#1f77b4;stroke:#ffffff;stroke-width:0.75;" x="550.358552" xlink:href="#mdcce2ab423" y="34.414125"/>
     <use style="fill:#1f77b4;stroke:#ffffff;stroke-width:0.75;" x="557.493817" xlink:href="#mdcce2ab423" y="34.414125"/>
     <use style="fill:#1f77b4;stroke:#ffffff;stroke-width:0.75;" x="564.629082" xlink:href="#mdcce2ab423" y="34.414125"/>
     <use style="fill:#1f77b4;stroke:#ffffff;stroke-width:0.75;" x="571.764346" xlink:href="#mdcce2ab423" y="34.414125"/>
     <use style="fill:#1f77b4;stroke:#ffffff;stroke-width:0.75;" x="578.899611" xlink:href="#mdcce2ab423" y="34.414125"/>
     <use style="fill:#1f77b4;stroke:#ffffff;stroke-width:0.75;" x="586.034876" xlink:href="#mdcce2ab423" y="34.414125"/>
     <use style="fill:#1f77b4;stroke:#ffffff;stroke-width:0.75;" x="593.17014" xlink:href="#mdcce2ab423" y="34.414125"/>
     <use style="fill:#1f77b4;stroke:#ffffff;stroke-width:0.75;" x="600.305405" xlink:href="#mdcce2ab423" y="34.414125"/>
     <use style="fill:#1f77b4;stroke:#ffffff;stroke-width:0.75;" x="607.44067" xlink:href="#mdcce2ab423" y="34.414125"/>
     <use style="fill:#1f77b4;stroke:#ffffff;stroke-width:0.75;" x="614.575935" xlink:href="#mdcce2ab423" y="34.414125"/>
     <use style="fill:#1f77b4;stroke:#ffffff;stroke-width:0.75;" x="621.711199" xlink:href="#mdcce2ab423" y="34.414125"/>
     <use style="fill:#1f77b4;stroke:#ffffff;stroke-width:0.75;" x="628.846464" xlink:href="#mdcce2ab423" y="34.414125"/>
     <use style="fill:#1f77b4;stroke:#ffffff;stroke-width:0.75;" x="635.981729" xlink:href="#mdcce2ab423" y="34.414125"/>
     <use style="fill:#1f77b4;stroke:#ffffff;stroke-width:0.75;" x="643.116994" xlink:href="#mdcce2ab423" y="34.414125"/>
     <use style="fill:#1f77b4;stroke:#ffffff;stroke-width:0.75;" x="650.252258" xlink:href="#mdcce2ab423" y="34.414125"/>
     <use style="fill:#1f77b4;stroke:#ffffff;stroke-width:0.75;" x="657.387523" xlink:href="#mdcce2ab423" y="34.414125"/>
     <use style="fill:#1f77b4;stroke:#ffffff;stroke-width:0.75;" x="664.522788" xlink:href="#mdcce2ab423" y="34.414125"/>
     <use style="fill:#1f77b4;stroke:#ffffff;stroke-width:0.75;" x="671.658053" xlink:href="#mdcce2ab423" y="34.414125"/>
     <use style="fill:#1f77b4;stroke:#ffffff;stroke-width:0.75;" x="678.793317" xlink:href="#mdcce2ab423" y="34.414125"/>
     <use style="fill:#1f77b4;stroke:#ffffff;stroke-width:0.75;" x="685.928582" xlink:href="#mdcce2ab423" y="34.414125"/>
     <use style="fill:#1f77b4;stroke:#ffffff;stroke-width:0.75;" x="693.063847" xlink:href="#mdcce2ab423" y="34.414125"/>
     <use style="fill:#1f77b4;stroke:#ffffff;stroke-width:0.75;" x="700.199112" xlink:href="#mdcce2ab423" y="34.414125"/>
     <use style="fill:#1f77b4;stroke:#ffffff;stroke-width:0.75;" x="707.334376" xlink:href="#mdcce2ab423" y="34.414125"/>
     <use style="fill:#1f77b4;stroke:#ffffff;stroke-width:0.75;" x="714.469641" xlink:href="#mdcce2ab423" y="34.414125"/>
     <use style="fill:#1f77b4;stroke:#ffffff;stroke-width:0.75;" x="721.604906" xlink:href="#mdcce2ab423" y="34.414125"/>
     <use style="fill:#1f77b4;stroke:#ffffff;stroke-width:0.75;" x="728.74017" xlink:href="#mdcce2ab423" y="34.414125"/>
    </g>
   </g>
   <g id="line2d_21">
    <path clip-path="url(#p999cf37ceb)" d="M 79.43108 191.662125 
L 86.566344 58.606125 
L 93.701609 58.606125 
L 100.836874 58.606125 
L 107.972138 58.606125 
L 115.107403 58.606125 
L 122.242668 58.606125 
L 129.377933 58.606125 
L 136.513197 58.606125 
L 143.648462 58.606125 
L 150.783727 58.606125 
L 157.918992 58.606125 
L 165.054256 58.606125 
L 172.189521 46.510125 
L 179.324786 34.414125 
L 186.460051 34.414125 
L 193.595315 34.414125 
L 200.73058 34.414125 
L 207.865845 34.414125 
L 215.00111 34.414125 
L 222.136374 34.414125 
L 229.271639 34.414125 
L 236.406904 34.414125 
L 243.542168 34.414125 
L 250.677433 34.414125 
L 257.812698 34.414125 
L 264.947963 34.414125 
L 272.083227 34.414125 
L 279.218492 34.414125 
L 286.353757 34.414125 
L 293.489022 34.414125 
L 300.624286 34.414125 
L 307.759551 34.414125 
L 314.894816 34.414125 
L 322.030081 34.414125 
L 329.165345 34.414125 
L 336.30061 34.414125 
L 343.435875 34.414125 
L 350.571139 34.414125 
L 357.706404 34.414125 
L 364.841669 34.414125 
L 371.976934 34.414125 
L 379.112198 34.414125 
L 386.247463 34.414125 
L 393.382728 34.414125 
L 400.517993 34.414125 
L 407.653257 34.414125 
L 414.788522 34.414125 
L 421.923787 34.414125 
L 429.059052 34.414125 
L 436.194316 34.414125 
L 443.329581 34.414125 
L 450.464846 34.414125 
L 457.600111 34.414125 
L 464.735375 34.414125 
L 471.87064 34.414125 
L 479.005905 34.414125 
L 486.141169 34.414125 
L 493.276434 34.414125 
L 500.411699 34.414125 
L 507.546964 34.414125 
L 514.682228 34.414125 
L 521.817493 34.414125 
L 528.952758 34.414125 
L 536.088023 34.414125 
L 543.223287 34.414125 
L 550.358552 34.414125 
L 557.493817 34.414125 
L 564.629082 34.414125 
L 571.764346 34.414125 
L 578.899611 34.414125 
L 586.034876 34.414125 
L 593.17014 34.414125 
L 600.305405 34.414125 
L 607.44067 34.414125 
L 614.575935 34.414125 
L 621.711199 34.414125 
L 628.846464 34.414125 
L 635.981729 34.414125 
L 643.116994 34.414125 
L 650.252258 34.414125 
L 657.387523 34.414125 
L 664.522788 34.414125 
L 671.658053 34.414125 
L 678.793317 34.414125 
L 685.928582 34.414125 
L 693.063847 34.414125 
L 700.199112 34.414125 
L 707.334376 34.414125 
L 714.469641 34.414125 
L 721.604906 34.414125 
L 728.74017 34.414125 
" style="fill:none;stroke:#d62728;stroke-linecap:square;stroke-width:1.5;"/>
    <defs>
     <path d="M 0 -3 
L -3 3 
L 3 3 
z
" id="m0c6fa787de" style="stroke:#ffffff;stroke-linejoin:miter;stroke-width:0.75;"/>
    </defs>
    <g clip-path="url(#p999cf37ceb)">
     <use style="fill:#d62728;stroke:#ffffff;stroke-linejoin:miter;stroke-width:0.75;" x="79.43108" xlink:href="#m0c6fa787de" y="191.662125"/>
     <use style="fill:#d62728;stroke:#ffffff;stroke-linejoin:miter;stroke-width:0.75;" x="86.566344" xlink:href="#m0c6fa787de" y="58.606125"/>
     <use style="fill:#d62728;stroke:#ffffff;stroke-linejoin:miter;stroke-width:0.75;" x="93.701609" xlink:href="#m0c6fa787de" y="58.606125"/>
     <use style="fill:#d62728;stroke:#ffffff;stroke-linejoin:miter;stroke-width:0.75;" x="100.836874" xlink:href="#m0c6fa787de" y="58.606125"/>
     <use style="fill:#d62728;stroke:#ffffff;stroke-linejoin:miter;stroke-width:0.75;" x="107.972138" xlink:href="#m0c6fa787de" y="58.606125"/>
     <use style="fill:#d62728;stroke:#ffffff;stroke-linejoin:miter;stroke-width:0.75;" x="115.107403" xlink:href="#m0c6fa787de" y="58.606125"/>
     <use style="fill:#d62728;stroke:#ffffff;stroke-linejoin:miter;stroke-width:0.75;" x="122.242668" xlink:href="#m0c6fa787de" y="58.606125"/>
     <use style="fill:#d62728;stroke:#ffffff;stroke-linejoin:miter;stroke-width:0.75;" x="129.377933" xlink:href="#m0c6fa787de" y="58.606125"/>
     <use style="fill:#d62728;stroke:#ffffff;stroke-linejoin:miter;stroke-width:0.75;" x="136.513197" xlink:href="#m0c6fa787de" y="58.606125"/>
     <use style="fill:#d62728;stroke:#ffffff;stroke-linejoin:miter;stroke-width:0.75;" x="143.648462" xlink:href="#m0c6fa787de" y="58.606125"/>
     <use style="fill:#d62728;stroke:#ffffff;stroke-linejoin:miter;stroke-width:0.75;" x="150.783727" xlink:href="#m0c6fa787de" y="58.606125"/>
     <use style="fill:#d62728;stroke:#ffffff;stroke-linejoin:miter;stroke-width:0.75;" x="157.918992" xlink:href="#m0c6fa787de" y="58.606125"/>
     <use style="fill:#d62728;stroke:#ffffff;stroke-linejoin:miter;stroke-width:0.75;" x="165.054256" xlink:href="#m0c6fa787de" y="58.606125"/>
     <use style="fill:#d62728;stroke:#ffffff;stroke-linejoin:miter;stroke-width:0.75;" x="172.189521" xlink:href="#m0c6fa787de" y="46.510125"/>
     <use style="fill:#d62728;stroke:#ffffff;stroke-linejoin:miter;stroke-width:0.75;" x="179.324786" xlink:href="#m0c6fa787de" y="34.414125"/>
     <use style="fill:#d62728;stroke:#ffffff;stroke-linejoin:miter;stroke-width:0.75;" x="186.460051" xlink:href="#m0c6fa787de" y="34.414125"/>
     <use style="fill:#d62728;stroke:#ffffff;stroke-linejoin:miter;stroke-width:0.75;" x="193.595315" xlink:href="#m0c6fa787de" y="34.414125"/>
     <use style="fill:#d62728;stroke:#ffffff;stroke-linejoin:miter;stroke-width:0.75;" x="200.73058" xlink:href="#m0c6fa787de" y="34.414125"/>
     <use style="fill:#d62728;stroke:#ffffff;stroke-linejoin:miter;stroke-width:0.75;" x="207.865845" xlink:href="#m0c6fa787de" y="34.414125"/>
     <use style="fill:#d62728;stroke:#ffffff;stroke-linejoin:miter;stroke-width:0.75;" x="215.00111" xlink:href="#m0c6fa787de" y="34.414125"/>
     <use style="fill:#d62728;stroke:#ffffff;stroke-linejoin:miter;stroke-width:0.75;" x="222.136374" xlink:href="#m0c6fa787de" y="34.414125"/>
     <use style="fill:#d62728;stroke:#ffffff;stroke-linejoin:miter;stroke-width:0.75;" x="229.271639" xlink:href="#m0c6fa787de" y="34.414125"/>
     <use style="fill:#d62728;stroke:#ffffff;stroke-linejoin:miter;stroke-width:0.75;" x="236.406904" xlink:href="#m0c6fa787de" y="34.414125"/>
     <use style="fill:#d62728;stroke:#ffffff;stroke-linejoin:miter;stroke-width:0.75;" x="243.542168" xlink:href="#m0c6fa787de" y="34.414125"/>
     <use style="fill:#d62728;stroke:#ffffff;stroke-linejoin:miter;stroke-width:0.75;" x="250.677433" xlink:href="#m0c6fa787de" y="34.414125"/>
     <use style="fill:#d62728;stroke:#ffffff;stroke-linejoin:miter;stroke-width:0.75;" x="257.812698" xlink:href="#m0c6fa787de" y="34.414125"/>
     <use style="fill:#d62728;stroke:#ffffff;stroke-linejoin:miter;stroke-width:0.75;" x="264.947963" xlink:href="#m0c6fa787de" y="34.414125"/>
     <use style="fill:#d62728;stroke:#ffffff;stroke-linejoin:miter;stroke-width:0.75;" x="272.083227" xlink:href="#m0c6fa787de" y="34.414125"/>
     <use style="fill:#d62728;stroke:#ffffff;stroke-linejoin:miter;stroke-width:0.75;" x="279.218492" xlink:href="#m0c6fa787de" y="34.414125"/>
     <use style="fill:#d62728;stroke:#ffffff;stroke-linejoin:miter;stroke-width:0.75;" x="286.353757" xlink:href="#m0c6fa787de" y="34.414125"/>
     <use style="fill:#d62728;stroke:#ffffff;stroke-linejoin:miter;stroke-width:0.75;" x="293.489022" xlink:href="#m0c6fa787de" y="34.414125"/>
     <use style="fill:#d62728;stroke:#ffffff;stroke-linejoin:miter;stroke-width:0.75;" x="300.624286" xlink:href="#m0c6fa787de" y="34.414125"/>
     <use style="fill:#d62728;stroke:#ffffff;stroke-linejoin:miter;stroke-width:0.75;" x="307.759551" xlink:href="#m0c6fa787de" y="34.414125"/>
     <use style="fill:#d62728;stroke:#ffffff;stroke-linejoin:miter;stroke-width:0.75;" x="314.894816" xlink:href="#m0c6fa787de" y="34.414125"/>
     <use style="fill:#d62728;stroke:#ffffff;stroke-linejoin:miter;stroke-width:0.75;" x="322.030081" xlink:href="#m0c6fa787de" y="34.414125"/>
     <use style="fill:#d62728;stroke:#ffffff;stroke-linejoin:miter;stroke-width:0.75;" x="329.165345" xlink:href="#m0c6fa787de" y="34.414125"/>
     <use style="fill:#d62728;stroke:#ffffff;stroke-linejoin:miter;stroke-width:0.75;" x="336.30061" xlink:href="#m0c6fa787de" y="34.414125"/>
     <use style="fill:#d62728;stroke:#ffffff;stroke-linejoin:miter;stroke-width:0.75;" x="343.435875" xlink:href="#m0c6fa787de" y="34.414125"/>
     <use style="fill:#d62728;stroke:#ffffff;stroke-linejoin:miter;stroke-width:0.75;" x="350.571139" xlink:href="#m0c6fa787de" y="34.414125"/>
     <use style="fill:#d62728;stroke:#ffffff;stroke-linejoin:miter;stroke-width:0.75;" x="357.706404" xlink:href="#m0c6fa787de" y="34.414125"/>
     <use style="fill:#d62728;stroke:#ffffff;stroke-linejoin:miter;stroke-width:0.75;" x="364.841669" xlink:href="#m0c6fa787de" y="34.414125"/>
     <use style="fill:#d62728;stroke:#ffffff;stroke-linejoin:miter;stroke-width:0.75;" x="371.976934" xlink:href="#m0c6fa787de" y="34.414125"/>
     <use style="fill:#d62728;stroke:#ffffff;stroke-linejoin:miter;stroke-width:0.75;" x="379.112198" xlink:href="#m0c6fa787de" y="34.414125"/>
     <use style="fill:#d62728;stroke:#ffffff;stroke-linejoin:miter;stroke-width:0.75;" x="386.247463" xlink:href="#m0c6fa787de" y="34.414125"/>
     <use style="fill:#d62728;stroke:#ffffff;stroke-linejoin:miter;stroke-width:0.75;" x="393.382728" xlink:href="#m0c6fa787de" y="34.414125"/>
     <use style="fill:#d62728;stroke:#ffffff;stroke-linejoin:miter;stroke-width:0.75;" x="400.517993" xlink:href="#m0c6fa787de" y="34.414125"/>
     <use style="fill:#d62728;stroke:#ffffff;stroke-linejoin:miter;stroke-width:0.75;" x="407.653257" xlink:href="#m0c6fa787de" y="34.414125"/>
     <use style="fill:#d62728;stroke:#ffffff;stroke-linejoin:miter;stroke-width:0.75;" x="414.788522" xlink:href="#m0c6fa787de" y="34.414125"/>
     <use style="fill:#d62728;stroke:#ffffff;stroke-linejoin:miter;stroke-width:0.75;" x="421.923787" xlink:href="#m0c6fa787de" y="34.414125"/>
     <use style="fill:#d62728;stroke:#ffffff;stroke-linejoin:miter;stroke-width:0.75;" x="429.059052" xlink:href="#m0c6fa787de" y="34.414125"/>
     <use style="fill:#d62728;stroke:#ffffff;stroke-linejoin:miter;stroke-width:0.75;" x="436.194316" xlink:href="#m0c6fa787de" y="34.414125"/>
     <use style="fill:#d62728;stroke:#ffffff;stroke-linejoin:miter;stroke-width:0.75;" x="443.329581" xlink:href="#m0c6fa787de" y="34.414125"/>
     <use style="fill:#d62728;stroke:#ffffff;stroke-linejoin:miter;stroke-width:0.75;" x="450.464846" xlink:href="#m0c6fa787de" y="34.414125"/>
     <use style="fill:#d62728;stroke:#ffffff;stroke-linejoin:miter;stroke-width:0.75;" x="457.600111" xlink:href="#m0c6fa787de" y="34.414125"/>
     <use style="fill:#d62728;stroke:#ffffff;stroke-linejoin:miter;stroke-width:0.75;" x="464.735375" xlink:href="#m0c6fa787de" y="34.414125"/>
     <use style="fill:#d62728;stroke:#ffffff;stroke-linejoin:miter;stroke-width:0.75;" x="471.87064" xlink:href="#m0c6fa787de" y="34.414125"/>
     <use style="fill:#d62728;stroke:#ffffff;stroke-linejoin:miter;stroke-width:0.75;" x="479.005905" xlink:href="#m0c6fa787de" y="34.414125"/>
     <use style="fill:#d62728;stroke:#ffffff;stroke-linejoin:miter;stroke-width:0.75;" x="486.141169" xlink:href="#m0c6fa787de" y="34.414125"/>
     <use style="fill:#d62728;stroke:#ffffff;stroke-linejoin:miter;stroke-width:0.75;" x="493.276434" xlink:href="#m0c6fa787de" y="34.414125"/>
     <use style="fill:#d62728;stroke:#ffffff;stroke-linejoin:miter;stroke-width:0.75;" x="500.411699" xlink:href="#m0c6fa787de" y="34.414125"/>
     <use style="fill:#d62728;stroke:#ffffff;stroke-linejoin:miter;stroke-width:0.75;" x="507.546964" xlink:href="#m0c6fa787de" y="34.414125"/>
     <use style="fill:#d62728;stroke:#ffffff;stroke-linejoin:miter;stroke-width:0.75;" x="514.682228" xlink:href="#m0c6fa787de" y="34.414125"/>
     <use style="fill:#d62728;stroke:#ffffff;stroke-linejoin:miter;stroke-width:0.75;" x="521.817493" xlink:href="#m0c6fa787de" y="34.414125"/>
     <use style="fill:#d62728;stroke:#ffffff;stroke-linejoin:miter;stroke-width:0.75;" x="528.952758" xlink:href="#m0c6fa787de" y="34.414125"/>
     <use style="fill:#d62728;stroke:#ffffff;stroke-linejoin:miter;stroke-width:0.75;" x="536.088023" xlink:href="#m0c6fa787de" y="34.414125"/>
     <use style="fill:#d62728;stroke:#ffffff;stroke-linejoin:miter;stroke-width:0.75;" x="543.223287" xlink:href="#m0c6fa787de" y="34.414125"/>
     <use style="fill:#d62728;stroke:#ffffff;stroke-linejoin:miter;stroke-width:0.75;" x="550.358552" xlink:href="#m0c6fa787de" y="34.414125"/>
     <use style="fill:#d62728;stroke:#ffffff;stroke-linejoin:miter;stroke-width:0.75;" x="557.493817" xlink:href="#m0c6fa787de" y="34.414125"/>
     <use style="fill:#d62728;stroke:#ffffff;stroke-linejoin:miter;stroke-width:0.75;" x="564.629082" xlink:href="#m0c6fa787de" y="34.414125"/>
     <use style="fill:#d62728;stroke:#ffffff;stroke-linejoin:miter;stroke-width:0.75;" x="571.764346" xlink:href="#m0c6fa787de" y="34.414125"/>
     <use style="fill:#d62728;stroke:#ffffff;stroke-linejoin:miter;stroke-width:0.75;" x="578.899611" xlink:href="#m0c6fa787de" y="34.414125"/>
     <use style="fill:#d62728;stroke:#ffffff;stroke-linejoin:miter;stroke-width:0.75;" x="586.034876" xlink:href="#m0c6fa787de" y="34.414125"/>
     <use style="fill:#d62728;stroke:#ffffff;stroke-linejoin:miter;stroke-width:0.75;" x="593.17014" xlink:href="#m0c6fa787de" y="34.414125"/>
     <use style="fill:#d62728;stroke:#ffffff;stroke-linejoin:miter;stroke-width:0.75;" x="600.305405" xlink:href="#m0c6fa787de" y="34.414125"/>
     <use style="fill:#d62728;stroke:#ffffff;stroke-linejoin:miter;stroke-width:0.75;" x="607.44067" xlink:href="#m0c6fa787de" y="34.414125"/>
     <use style="fill:#d62728;stroke:#ffffff;stroke-linejoin:miter;stroke-width:0.75;" x="614.575935" xlink:href="#m0c6fa787de" y="34.414125"/>
     <use style="fill:#d62728;stroke:#ffffff;stroke-linejoin:miter;stroke-width:0.75;" x="621.711199" xlink:href="#m0c6fa787de" y="34.414125"/>
     <use style="fill:#d62728;stroke:#ffffff;stroke-linejoin:miter;stroke-width:0.75;" x="628.846464" xlink:href="#m0c6fa787de" y="34.414125"/>
     <use style="fill:#d62728;stroke:#ffffff;stroke-linejoin:miter;stroke-width:0.75;" x="635.981729" xlink:href="#m0c6fa787de" y="34.414125"/>
     <use style="fill:#d62728;stroke:#ffffff;stroke-linejoin:miter;stroke-width:0.75;" x="643.116994" xlink:href="#m0c6fa787de" y="34.414125"/>
     <use style="fill:#d62728;stroke:#ffffff;stroke-linejoin:miter;stroke-width:0.75;" x="650.252258" xlink:href="#m0c6fa787de" y="34.414125"/>
     <use style="fill:#d62728;stroke:#ffffff;stroke-linejoin:miter;stroke-width:0.75;" x="657.387523" xlink:href="#m0c6fa787de" y="34.414125"/>
     <use style="fill:#d62728;stroke:#ffffff;stroke-linejoin:miter;stroke-width:0.75;" x="664.522788" xlink:href="#m0c6fa787de" y="34.414125"/>
     <use style="fill:#d62728;stroke:#ffffff;stroke-linejoin:miter;stroke-width:0.75;" x="671.658053" xlink:href="#m0c6fa787de" y="34.414125"/>
     <use style="fill:#d62728;stroke:#ffffff;stroke-linejoin:miter;stroke-width:0.75;" x="678.793317" xlink:href="#m0c6fa787de" y="34.414125"/>
     <use style="fill:#d62728;stroke:#ffffff;stroke-linejoin:miter;stroke-width:0.75;" x="685.928582" xlink:href="#m0c6fa787de" y="34.414125"/>
     <use style="fill:#d62728;stroke:#ffffff;stroke-linejoin:miter;stroke-width:0.75;" x="693.063847" xlink:href="#m0c6fa787de" y="34.414125"/>
     <use style="fill:#d62728;stroke:#ffffff;stroke-linejoin:miter;stroke-width:0.75;" x="700.199112" xlink:href="#m0c6fa787de" y="34.414125"/>
     <use style="fill:#d62728;stroke:#ffffff;stroke-linejoin:miter;stroke-width:0.75;" x="707.334376" xlink:href="#m0c6fa787de" y="34.414125"/>
     <use style="fill:#d62728;stroke:#ffffff;stroke-linejoin:miter;stroke-width:0.75;" x="714.469641" xlink:href="#m0c6fa787de" y="34.414125"/>
     <use style="fill:#d62728;stroke:#ffffff;stroke-linejoin:miter;stroke-width:0.75;" x="721.604906" xlink:href="#m0c6fa787de" y="34.414125"/>
     <use style="fill:#d62728;stroke:#ffffff;stroke-linejoin:miter;stroke-width:0.75;" x="728.74017" xlink:href="#m0c6fa787de" y="34.414125"/>
    </g>
   </g>
   <g id="line2d_22"/>
   <g id="line2d_23"/>
   <g id="line2d_24"/>
   <g id="line2d_25">
    <path clip-path="url(#p999cf37ceb)" d="M 728.74017 288.430125 
L 728.74017 22.318125 
" style="fill:none;stroke:#ff0000;stroke-linecap:square;stroke-width:1.5;"/>
   </g>
   <g id="patch_3">
    <path d="M 46.965625 276.334125 
L 46.965625 34.414125 
" style="fill:none;stroke:#000000;stroke-linecap:square;stroke-linejoin:miter;stroke-width:0.8;"/>
   </g>
   <g id="patch_4">
    <path d="M 79.43108 288.430125 
L 681.171739 288.430125 
" style="fill:none;stroke:#000000;stroke-linecap:square;stroke-linejoin:miter;stroke-width:0.8;"/>
   </g>
   <g id="text_21">
    <!-- systemd_fuzz-link-parser (23h, 20 trials/fuzzer) -->
    <g transform="translate(262.466875 16.318125)scale(0.12 -0.12)">
     <defs>
      <path d="M 2834 3397 
L 2834 2853 
Q 2591 2978 2328 3040 
Q 2066 3103 1784 3103 
Q 1356 3103 1142 2972 
Q 928 2841 928 2578 
Q 928 2378 1081 2264 
Q 1234 2150 1697 2047 
L 1894 2003 
Q 2506 1872 2764 1633 
Q 3022 1394 3022 966 
Q 3022 478 2636 193 
Q 2250 -91 1575 -91 
Q 1294 -91 989 -36 
Q 684 19 347 128 
L 347 722 
Q 666 556 975 473 
Q 1284 391 1588 391 
Q 1994 391 2212 530 
Q 2431 669 2431 922 
Q 2431 1156 2273 1281 
Q 2116 1406 1581 1522 
L 1381 1569 
Q 847 1681 609 1914 
Q 372 2147 372 2553 
Q 372 3047 722 3315 
Q 1072 3584 1716 3584 
Q 2034 3584 2315 3537 
Q 2597 3491 2834 3397 
z
" id="DejaVuSans-73" transform="scale(0.015625)"/>
      <path d="M 2059 -325 
Q 1816 -950 1584 -1140 
Q 1353 -1331 966 -1331 
L 506 -1331 
L 506 -850 
L 844 -850 
Q 1081 -850 1212 -737 
Q 1344 -625 1503 -206 
L 1606 56 
L 191 3500 
L 800 3500 
L 1894 763 
L 2988 3500 
L 3597 3500 
L 2059 -325 
z
" id="DejaVuSans-79" transform="scale(0.015625)"/>
      <path d="M 3263 -1063 
L 3263 -1509 
L -63 -1509 
L -63 -1063 
L 3263 -1063 
z
" id="DejaVuSans-5f" transform="scale(0.015625)"/>
      <path d="M 2375 4863 
L 2375 4384 
L 1825 4384 
Q 1516 4384 1395 4259 
Q 1275 4134 1275 3809 
L 1275 3500 
L 2222 3500 
L 2222 3053 
L 1275 3053 
L 1275 0 
L 697 0 
L 697 3053 
L 147 3053 
L 147 3500 
L 697 3500 
L 697 3744 
Q 697 4328 969 4595 
Q 1241 4863 1831 4863 
L 2375 4863 
z
" id="DejaVuSans-66" transform="scale(0.015625)"/>
      <path d="M 353 3500 
L 3084 3500 
L 3084 2975 
L 922 459 
L 3084 459 
L 3084 0 
L 275 0 
L 275 525 
L 2438 3041 
L 353 3041 
L 353 3500 
z
" id="DejaVuSans-7a" transform="scale(0.015625)"/>
      <path d="M 313 2009 
L 1997 2009 
L 1997 1497 
L 313 1497 
L 313 2009 
z
" id="DejaVuSans-2d" transform="scale(0.015625)"/>
      <path d="M 603 4863 
L 1178 4863 
L 1178 0 
L 603 0 
L 603 4863 
z
" id="DejaVuSans-6c" transform="scale(0.015625)"/>
      <path d="M 581 4863 
L 1159 4863 
L 1159 1991 
L 2875 3500 
L 3609 3500 
L 1753 1863 
L 3688 0 
L 2938 0 
L 1159 1709 
L 1159 0 
L 581 0 
L 581 4863 
z
" id="DejaVuSans-6b" transform="scale(0.015625)"/>
      <path d="M 1159 525 
L 1159 -1331 
L 581 -1331 
L 581 3500 
L 1159 3500 
L 1159 2969 
Q 1341 3281 1617 3432 
Q 1894 3584 2278 3584 
Q 2916 3584 3314 3078 
Q 3713 2572 3713 1747 
Q 3713 922 3314 415 
Q 2916 -91 2278 -91 
Q 1894 -91 1617 61 
Q 1341 213 1159 525 
z
M 3116 1747 
Q 3116 2381 2855 2742 
Q 2594 3103 2138 3103 
Q 1681 3103 1420 2742 
Q 1159 2381 1159 1747 
Q 1159 1113 1420 752 
Q 1681 391 2138 391 
Q 2594 391 2855 752 
Q 3116 1113 3116 1747 
z
" id="DejaVuSans-70" transform="scale(0.015625)"/>
      <path d="M 750 794 
L 1409 794 
L 1409 256 
L 897 -744 
L 494 -744 
L 750 256 
L 750 794 
z
" id="DejaVuSans-2c" transform="scale(0.015625)"/>
      <path d="M 1625 4666 
L 2156 4666 
L 531 -594 
L 0 -594 
L 1625 4666 
z
" id="DejaVuSans-2f" transform="scale(0.015625)"/>
     </defs>
     <use xlink:href="#DejaVuSans-73"/>
     <use x="52.099609" xlink:href="#DejaVuSans-79"/>
     <use x="111.279297" xlink:href="#DejaVuSans-73"/>
     <use x="163.378906" xlink:href="#DejaVuSans-74"/>
     <use x="202.587891" xlink:href="#DejaVuSans-65"/>
     <use x="264.111328" xlink:href="#DejaVuSans-6d"/>
     <use x="361.523438" xlink:href="#DejaVuSans-64"/>
     <use x="425" xlink:href="#DejaVuSans-5f"/>
     <use x="475" xlink:href="#DejaVuSans-66"/>
     <use x="510.205078" xlink:href="#DejaVuSans-75"/>
     <use x="573.583984" xlink:href="#DejaVuSans-7a"/>
     <use x="626.074219" xlink:href="#DejaVuSans-7a"/>
     <use x="678.564453" xlink:href="#DejaVuSans-2d"/>
     <use x="714.648438" xlink:href="#DejaVuSans-6c"/>
     <use x="742.431641" xlink:href="#DejaVuSans-69"/>
     <use x="770.214844" xlink:href="#DejaVuSans-6e"/>
     <use x="833.59375" xlink:href="#DejaVuSans-6b"/>
     <use x="891.503906" xlink:href="#DejaVuSans-2d"/>
     <use x="927.587891" xlink:href="#DejaVuSans-70"/>
     <use x="991.064453" xlink:href="#DejaVuSans-61"/>
     <use x="1052.34375" xlink:href="#DejaVuSans-72"/>
     <use x="1093.457031" xlink:href="#DejaVuSans-73"/>
     <use x="1145.556641" xlink:href="#DejaVuSans-65"/>
     <use x="1207.080078" xlink:href="#DejaVuSans-72"/>
     <use x="1248.193359" xlink:href="#DejaVuSans-20"/>
     <use x="1279.980469" xlink:href="#DejaVuSans-28"/>
     <use x="1318.994141" xlink:href="#DejaVuSans-32"/>
     <use x="1382.617188" xlink:href="#DejaVuSans-33"/>
     <use x="1446.240234" xlink:href="#DejaVuSans-68"/>
     <use x="1509.619141" xlink:href="#DejaVuSans-2c"/>
     <use x="1541.40625" xlink:href="#DejaVuSans-20"/>
     <use x="1573.193359" xlink:href="#DejaVuSans-32"/>
     <use x="1636.816406" xlink:href="#DejaVuSans-30"/>
     <use x="1700.439453" xlink:href="#DejaVuSans-20"/>
     <use x="1732.226562" xlink:href="#DejaVuSans-74"/>
     <use x="1771.435547" xlink:href="#DejaVuSans-72"/>
     <use x="1812.548828" xlink:href="#DejaVuSans-69"/>
     <use x="1840.332031" xlink:href="#DejaVuSans-61"/>
     <use x="1901.611328" xlink:href="#DejaVuSans-6c"/>
     <use x="1929.394531" xlink:href="#DejaVuSans-73"/>
     <use x="1981.494141" xlink:href="#DejaVuSans-2f"/>
     <use x="2015.185547" xlink:href="#DejaVuSans-66"/>
     <use x="2050.390625" xlink:href="#DejaVuSans-75"/>
     <use x="2113.769531" xlink:href="#DejaVuSans-7a"/>
     <use x="2166.259766" xlink:href="#DejaVuSans-7a"/>
     <use x="2218.75" xlink:href="#DejaVuSans-65"/>
     <use x="2280.273438" xlink:href="#DejaVuSans-72"/>
     <use x="2321.386719" xlink:href="#DejaVuSans-29"/>
    </g>
   </g>
   <g id="legend_1">
    <g id="line2d_26">
     <path d="M 765.205625 30.416562 
L 785.205625 30.416562 
" style="fill:none;stroke:#98df8a;stroke-linecap:square;stroke-width:1.5;"/>
    </g>
    <g id="line2d_27">
     <defs>
      <path d="M -0 3 
L 3 -3 
L -3 -3 
z
" id="m642a04e8bb" style="stroke:#98df8a;stroke-linejoin:miter;"/>
     </defs>
     <g>
      <use style="fill:#98df8a;stroke:#98df8a;stroke-linejoin:miter;" x="775.205625" xlink:href="#m642a04e8bb" y="30.416562"/>
     </g>
    </g>
    <g id="text_22">
     <!-- fafuzz -->
     <g transform="translate(793.205625 33.916562)scale(0.1 -0.1)">
      <use xlink:href="#DejaVuSans-66"/>
      <use x="35.205078" xlink:href="#DejaVuSans-61"/>
      <use x="96.484375" xlink:href="#DejaVuSans-66"/>
      <use x="131.689453" xlink:href="#DejaVuSans-75"/>
      <use x="195.068359" xlink:href="#DejaVuSans-7a"/>
      <use x="247.558594" xlink:href="#DejaVuSans-7a"/>
     </g>
    </g>
    <g id="line2d_28">
     <path d="M 765.205625 45.094688 
L 785.205625 45.094688 
" style="fill:none;stroke:#1f77b4;stroke-linecap:square;stroke-width:1.5;"/>
    </g>
    <g id="line2d_29">
     <defs>
      <path d="M 0 3 
C 0.795609 3 1.55874 2.683901 2.12132 2.12132 
C 2.683901 1.55874 3 0.795609 3 0 
C 3 -0.795609 2.683901 -1.55874 2.12132 -2.12132 
C 1.55874 -2.683901 0.795609 -3 0 -3 
C -0.795609 -3 -1.55874 -2.683901 -2.12132 -2.12132 
C -2.683901 -1.55874 -3 -0.795609 -3 0 
C -3 0.795609 -2.683901 1.55874 -2.12132 2.12132 
C -1.55874 2.683901 -0.795609 3 0 3 
z
" id="mb1067a6251" style="stroke:#1f77b4;"/>
     </defs>
     <g>
      <use style="fill:#1f77b4;stroke:#1f77b4;" x="775.205625" xlink:href="#mb1067a6251" y="45.094688"/>
     </g>
    </g>
    <g id="text_23">
     <!-- afl_2_52_b -->
     <g transform="translate(793.205625 48.594688)scale(0.1 -0.1)">
      <defs>
       <path d="M 3116 1747 
Q 3116 2381 2855 2742 
Q 2594 3103 2138 3103 
Q 1681 3103 1420 2742 
Q 1159 2381 1159 1747 
Q 1159 1113 1420 752 
Q 1681 391 2138 391 
Q 2594 391 2855 752 
Q 3116 1113 3116 1747 
z
M 1159 2969 
Q 1341 3281 1617 3432 
Q 1894 3584 2278 3584 
Q 2916 3584 3314 3078 
Q 3713 2572 3713 1747 
Q 3713 922 3314 415 
Q 2916 -91 2278 -91 
Q 1894 -91 1617 61 
Q 1341 213 1159 525 
L 1159 0 
L 581 0 
L 581 4863 
L 1159 4863 
L 1159 2969 
z
" id="DejaVuSans-62" transform="scale(0.015625)"/>
      </defs>
      <use xlink:href="#DejaVuSans-61"/>
      <use x="61.279297" xlink:href="#DejaVuSans-66"/>
      <use x="96.484375" xlink:href="#DejaVuSans-6c"/>
      <use x="124.267578" xlink:href="#DejaVuSans-5f"/>
      <use x="174.267578" xlink:href="#DejaVuSans-32"/>
      <use x="237.890625" xlink:href="#DejaVuSans-5f"/>
      <use x="287.890625" xlink:href="#DejaVuSans-35"/>
      <use x="351.513672" xlink:href="#DejaVuSans-32"/>
      <use x="415.136719" xlink:href="#DejaVuSans-5f"/>
      <use x="465.136719" xlink:href="#DejaVuSans-62"/>
     </g>
    </g>
    <g id="line2d_30">
     <path d="M 765.205625 60.050937 
L 785.205625 60.050937 
" style="fill:none;stroke:#d62728;stroke-linecap:square;stroke-width:1.5;"/>
    </g>
    <g id="line2d_31">
     <defs>
      <path d="M 0 -3 
L -3 3 
L 3 3 
z
" id="mfb2705b63a" style="stroke:#d62728;stroke-linejoin:miter;"/>
     </defs>
     <g>
      <use style="fill:#d62728;stroke:#d62728;stroke-linejoin:miter;" x="775.205625" xlink:href="#mfb2705b63a" y="60.050937"/>
     </g>
    </g>
    <g id="text_24">
     <!-- mopt -->
     <g transform="translate(793.205625 63.550937)scale(0.1 -0.1)">
      <use xlink:href="#DejaVuSans-6d"/>
      <use x="97.412109" xlink:href="#DejaVuSans-6f"/>
      <use x="158.59375" xlink:href="#DejaVuSans-70"/>
      <use x="222.070312" xlink:href="#DejaVuSans-74"/>
     </g>
    </g>
   </g>
  </g>
 </g>
 <defs>
  <clipPath id="p999cf37ceb">
   <rect height="266.112" width="714.24" x="46.965625" y="22.318125"/>
  </clipPath>
 </defs>
</svg>
