<?xml version="1.0" encoding="utf-8" standalone="no"?>
<!DOCTYPE svg PUBLIC "-//W3C//DTD SVG 1.1//EN"
  "http://www.w3.org/Graphics/SVG/1.1/DTD/svg11.dtd">
<svg height="325.986375pt" version="1.1" viewBox="0 0 863.630625 325.986375" width="863.630625pt" xmlns="http://www.w3.org/2000/svg" xmlns:xlink="http://www.w3.org/1999/xlink">
 <metadata>
  <rdf:RDF xmlns:cc="http://creativecommons.org/ns#" xmlns:dc="http://purl.org/dc/elements/1.1/" xmlns:rdf="http://www.w3.org/1999/02/22-rdf-syntax-ns#">
   <cc:Work>
    <dc:type rdf:resource="http://purl.org/dc/dcmitype/StillImage"/>
    <dc:date>2021-12-16T18:51:46.855292</dc:date>
    <dc:format>image/svg+xml</dc:format>
    <dc:creator>
     <cc:Agent>
      <dc:title>Matplotlib v3.4.1, https://matplotlib.org/</dc:title>
     </cc:Agent>
    </dc:creator>
   </cc:Work>
  </rdf:RDF>
 </metadata>
 <defs>
  <style type="text/css">*{stroke-linecap:butt;stroke-linejoin:round;}</style>
 </defs>
 <g id="figure_1">
  <g id="patch_1">
   <path d="M 0 325.986375 
L 863.630625 325.986375 
L 863.630625 0 
L 0 0 
z
" style="fill:#ffffff;"/>
  </g>
  <g id="axes_1">
   <g id="patch_2">
    <path d="M 53.328125 288.430125 
L 767.568125 288.430125 
L 767.568125 22.318125 
L 53.328125 22.318125 
z
" style="fill:#ffffff;"/>
   </g>
   <g id="PolyCollection_1">
    <defs>
     <path d="M 85.79358 -129.501662 
L 85.79358 -59.791544 
L 92.928844 -132.664015 
L 100.064109 -177.727544 
L 107.199374 -223.581662 
L 114.334638 -237.81225 
L 121.469903 -248.089897 
L 128.605168 -249.651309 
L 135.740433 -258.367544 
L 142.875697 -263.111074 
L 150.010962 -263.881897 
L 157.146227 -263.901662 
L 164.281492 -263.901662 
L 171.416756 -263.901662 
L 178.552021 -263.901662 
L 185.687286 -267.854603 
L 192.822551 -267.854603 
L 199.957815 -268.645191 
L 207.09308 -269.435779 
L 214.228345 -269.435779 
L 221.36361 -269.435779 
L 228.498874 -270.226368 
L 235.634139 -271.016956 
L 242.769404 -271.807544 
L 249.904668 -271.807544 
L 257.039933 -271.807544 
L 264.175198 -272.598132 
L 271.310463 -272.598132 
L 278.445727 -272.598132 
L 285.580992 -272.598132 
L 292.716257 -272.598132 
L 299.851522 -272.598132 
L 306.986786 -273.388721 
L 314.122051 -274.179309 
L 321.257316 -274.179309 
L 328.392581 -274.179309 
L 335.527845 -274.179309 
L 342.66311 -274.179309 
L 349.798375 -274.179309 
L 356.933639 -274.179309 
L 364.068904 -274.179309 
L 371.204169 -274.179309 
L 378.339434 -274.179309 
L 385.474698 -275.760485 
L 392.609963 -275.760485 
L 399.745228 -275.760485 
L 406.880493 -275.760485 
L 414.015757 -276.551074 
L 421.151022 -276.531309 
L 428.286287 -277.341662 
L 435.421552 -277.341662 
L 442.556816 -277.341662 
L 449.692081 -277.341662 
L 456.827346 -277.341662 
L 463.962611 -277.341662 
L 471.097875 -277.341662 
L 478.23314 -277.341662 
L 485.368405 -277.341662 
L 492.503669 -277.341662 
L 499.638934 -277.341662 
L 506.774199 -277.341662 
L 513.909464 -277.341662 
L 521.044728 -277.341662 
L 528.179993 -277.341662 
L 535.315258 -277.341662 
L 542.450523 -277.341662 
L 549.585787 -277.341662 
L 556.721052 -277.341662 
L 563.856317 -277.341662 
L 570.991582 -277.341662 
L 578.126846 -277.341662 
L 585.262111 -277.341662 
L 592.397376 -277.341662 
L 599.53264 -277.341662 
L 606.667905 -277.341662 
L 613.80317 -277.341662 
L 620.938435 -277.341662 
L 628.073699 -278.13225 
L 635.208964 -278.13225 
L 642.344229 -278.13225 
L 649.479494 -278.13225 
L 656.614758 -278.13225 
L 663.750023 -278.922838 
L 670.885288 -278.922838 
L 678.020553 -278.922838 
L 685.155817 -278.922838 
L 692.291082 -278.922838 
L 699.426347 -278.922838 
L 706.561612 -278.922838 
L 713.696876 -278.922838 
L 720.832141 -278.922838 
L 727.967406 -278.922838 
L 735.10267 -278.922838 
L 735.10267 -291.57225 
L 735.10267 -291.57225 
L 727.967406 -288.409897 
L 720.832141 -288.409897 
L 713.696876 -286.828721 
L 706.561612 -286.828721 
L 699.426347 -286.828721 
L 692.291082 -286.828721 
L 685.155817 -286.828721 
L 678.020553 -286.828721 
L 670.885288 -286.828721 
L 663.750023 -286.828721 
L 656.614758 -286.828721 
L 649.479494 -286.828721 
L 642.344229 -286.828721 
L 635.208964 -285.247544 
L 628.073699 -286.038132 
L 620.938435 -285.247544 
L 613.80317 -285.247544 
L 606.667905 -285.247544 
L 599.53264 -285.247544 
L 592.397376 -285.247544 
L 585.262111 -285.247544 
L 578.126846 -284.456956 
L 570.991582 -282.875779 
L 563.856317 -282.875779 
L 556.721052 -282.875779 
L 549.585787 -282.875779 
L 542.450523 -282.875779 
L 535.315258 -282.875779 
L 528.179993 -282.875779 
L 521.044728 -282.875779 
L 513.909464 -282.875779 
L 506.774199 -282.875779 
L 499.638934 -283.666368 
L 492.503669 -282.085191 
L 485.368405 -282.085191 
L 478.23314 -282.085191 
L 471.097875 -282.085191 
L 463.962611 -282.085191 
L 456.827346 -282.085191 
L 449.692081 -282.085191 
L 442.556816 -281.294603 
L 435.421552 -281.294603 
L 428.286287 -280.504015 
L 421.151022 -280.504015 
L 414.015757 -280.504015 
L 406.880493 -280.504015 
L 399.745228 -280.504015 
L 392.609963 -280.504015 
L 385.474698 -280.504015 
L 378.339434 -280.504015 
L 371.204169 -280.504015 
L 364.068904 -280.504015 
L 356.933639 -280.504015 
L 349.798375 -280.504015 
L 342.66311 -280.504015 
L 335.527845 -280.504015 
L 328.392581 -280.504015 
L 321.257316 -280.504015 
L 314.122051 -280.504015 
L 306.986786 -279.713426 
L 299.851522 -278.922838 
L 292.716257 -278.922838 
L 285.580992 -278.922838 
L 278.445727 -278.13225 
L 271.310463 -277.341662 
L 264.175198 -277.341662 
L 257.039933 -276.551074 
L 249.904668 -276.551074 
L 242.769404 -275.760485 
L 235.634139 -275.760485 
L 228.498874 -275.760485 
L 221.36361 -275.760485 
L 214.228345 -275.760485 
L 207.09308 -275.760485 
L 199.957815 -274.179309 
L 192.822551 -274.179309 
L 185.687286 -273.388721 
L 178.552021 -272.598132 
L 171.416756 -272.598132 
L 164.281492 -272.598132 
L 157.146227 -272.598132 
L 150.010962 -272.598132 
L 142.875697 -271.016956 
L 135.740433 -271.016956 
L 128.605168 -269.435779 
L 121.469903 -268.645191 
L 114.334638 -263.901662 
L 107.199374 -259.948721 
L 100.064109 -248.089897 
L 92.928844 -240.184015 
L 85.79358 -129.501662 
z
" id="m9880c9e7c4" style="stroke:#d62728;stroke-opacity:0.2;"/>
    </defs>
    <g clip-path="url(#p0431aa9dc2)">
     <use style="fill:#d62728;fill-opacity:0.2;stroke:#d62728;stroke-opacity:0.2;" x="0" xlink:href="#m9880c9e7c4" y="325.986375"/>
    </g>
   </g>
   <g id="PolyCollection_2">
    <defs>
     <path d="M 85.79358 -87.600485 
L 85.79358 -49.65225 
L 92.928844 -106.574603 
L 100.064109 -136.458838 
L 107.199374 -174.565191 
L 114.334638 -172.984015 
L 121.469903 -185.633426 
L 128.605168 -205.398132 
L 135.740433 -206.979309 
L 142.875697 -217.256956 
L 150.010962 -222.791074 
L 157.146227 -225.953426 
L 164.281492 -236.231074 
L 171.416756 -231.487544 
L 178.552021 -258.367544 
L 185.687286 -258.367544 
L 192.822551 -262.320485 
L 199.957815 -261.529897 
L 207.09308 -259.948721 
L 214.228345 -267.064015 
L 221.36361 -269.435779 
L 228.498874 -271.016956 
L 235.634139 -271.016956 
L 242.769404 -270.997191 
L 249.904668 -271.807544 
L 257.039933 -271.807544 
L 264.175198 -274.179309 
L 271.310463 -274.179309 
L 278.445727 -274.179309 
L 285.580992 -274.179309 
L 292.716257 -274.179309 
L 299.851522 -274.179309 
L 306.986786 -274.179309 
L 314.122051 -274.179309 
L 321.257316 -274.179309 
L 328.392581 -274.179309 
L 335.527845 -274.179309 
L 342.66311 -274.969897 
L 349.798375 -274.969897 
L 356.933639 -274.179309 
L 364.068904 -274.969897 
L 371.204169 -274.969897 
L 378.339434 -274.969897 
L 385.474698 -274.179309 
L 392.609963 -274.969897 
L 399.745228 -274.179309 
L 406.880493 -275.760485 
L 414.015757 -275.760485 
L 421.151022 -275.760485 
L 428.286287 -275.760485 
L 435.421552 -275.760485 
L 442.556816 -275.760485 
L 449.692081 -275.760485 
L 456.827346 -276.531309 
L 463.962611 -276.531309 
L 471.097875 -275.760485 
L 478.23314 -277.341662 
L 485.368405 -277.341662 
L 492.503669 -277.341662 
L 499.638934 -277.341662 
L 506.774199 -277.341662 
L 513.909464 -277.341662 
L 521.044728 -277.341662 
L 528.179993 -277.341662 
L 535.315258 -277.341662 
L 542.450523 -277.341662 
L 549.585787 -277.341662 
L 556.721052 -277.341662 
L 563.856317 -277.341662 
L 570.991582 -277.341662 
L 578.126846 -277.341662 
L 585.262111 -277.341662 
L 592.397376 -277.341662 
L 599.53264 -277.341662 
L 606.667905 -278.13225 
L 613.80317 -278.922838 
L 620.938435 -278.922838 
L 628.073699 -278.922838 
L 635.208964 -278.922838 
L 642.344229 -278.922838 
L 649.479494 -278.922838 
L 656.614758 -278.922838 
L 663.750023 -278.922838 
L 670.885288 -278.922838 
L 678.020553 -278.922838 
L 685.155817 -278.922838 
L 692.291082 -278.922838 
L 699.426347 -278.922838 
L 706.561612 -279.713426 
L 713.696876 -279.713426 
L 720.832141 -279.713426 
L 727.967406 -279.713426 
L 735.10267 -279.713426 
L 735.10267 -285.247544 
L 735.10267 -285.247544 
L 727.967406 -285.247544 
L 720.832141 -285.247544 
L 713.696876 -285.247544 
L 706.561612 -285.247544 
L 699.426347 -285.247544 
L 692.291082 -284.456956 
L 685.155817 -284.456956 
L 678.020553 -284.456956 
L 670.885288 -284.456956 
L 663.750023 -283.666368 
L 656.614758 -283.666368 
L 649.479494 -283.666368 
L 642.344229 -283.666368 
L 635.208964 -283.666368 
L 628.073699 -283.666368 
L 620.938435 -282.875779 
L 613.80317 -282.895544 
L 606.667905 -282.875779 
L 599.53264 -282.875779 
L 592.397376 -282.895544 
L 585.262111 -282.875779 
L 578.126846 -282.875779 
L 570.991582 -282.875779 
L 563.856317 -282.875779 
L 556.721052 -282.875779 
L 549.585787 -283.666368 
L 542.450523 -282.875779 
L 535.315258 -282.875779 
L 528.179993 -282.085191 
L 521.044728 -282.085191 
L 513.909464 -282.085191 
L 506.774199 -282.085191 
L 499.638934 -282.085191 
L 492.503669 -282.085191 
L 485.368405 -282.085191 
L 478.23314 -282.085191 
L 471.097875 -282.085191 
L 463.962611 -282.085191 
L 456.827346 -282.085191 
L 449.692081 -282.085191 
L 442.556816 -282.085191 
L 435.421552 -282.085191 
L 428.286287 -280.504015 
L 421.151022 -280.504015 
L 414.015757 -280.504015 
L 406.880493 -280.504015 
L 399.745228 -280.504015 
L 392.609963 -280.504015 
L 385.474698 -280.504015 
L 378.339434 -279.713426 
L 371.204169 -280.504015 
L 364.068904 -279.713426 
L 356.933639 -279.713426 
L 349.798375 -279.713426 
L 342.66311 -279.713426 
L 335.527845 -279.713426 
L 328.392581 -278.922838 
L 321.257316 -278.922838 
L 314.122051 -278.922838 
L 306.986786 -278.922838 
L 299.851522 -278.922838 
L 292.716257 -278.922838 
L 285.580992 -278.922838 
L 278.445727 -277.341662 
L 271.310463 -277.341662 
L 264.175198 -277.341662 
L 257.039933 -277.341662 
L 249.904668 -277.341662 
L 242.769404 -277.341662 
L 235.634139 -276.551074 
L 228.498874 -277.341662 
L 221.36361 -276.551074 
L 214.228345 -274.969897 
L 207.09308 -273.388721 
L 199.957815 -273.388721 
L 192.822551 -272.598132 
L 185.687286 -272.598132 
L 178.552021 -271.807544 
L 171.416756 -271.807544 
L 164.281492 -271.807544 
L 157.146227 -271.807544 
L 150.010962 -271.807544 
L 142.875697 -271.807544 
L 135.740433 -265.482838 
L 128.605168 -259.948721 
L 121.469903 -256.786368 
L 114.334638 -255.205191 
L 107.199374 -248.880485 
L 100.064109 -214.094603 
L 92.928844 -161.955309 
L 85.79358 -87.600485 
z
" id="m366043b695" style="stroke:#98df8a;stroke-opacity:0.2;"/>
    </defs>
    <g clip-path="url(#p0431aa9dc2)">
     <use style="fill:#98df8a;fill-opacity:0.2;stroke:#98df8a;stroke-opacity:0.2;" x="0" xlink:href="#m366043b695" y="325.986375"/>
    </g>
   </g>
   <g id="PolyCollection_3">
    <defs>
     <path d="M 85.79358 -136.616956 
L 85.79358 -76.53225 
L 92.928844 -160.295074 
L 100.064109 -161.915779 
L 107.199374 -172.984015 
L 114.334638 -184.05225 
L 121.469903 -249.651309 
L 128.605168 -248.880485 
L 135.740433 -252.042838 
L 142.875697 -255.205191 
L 150.010962 -258.367544 
L 157.146227 -268.645191 
L 164.281492 -268.625426 
L 171.416756 -269.435779 
L 178.552021 -269.435779 
L 185.687286 -271.016956 
L 192.822551 -271.016956 
L 199.957815 -271.016956 
L 207.09308 -271.016956 
L 214.228345 -271.016956 
L 221.36361 -271.016956 
L 228.498874 -271.016956 
L 235.634139 -272.598132 
L 242.769404 -272.598132 
L 249.904668 -272.598132 
L 257.039933 -272.598132 
L 264.175198 -272.598132 
L 271.310463 -272.598132 
L 278.445727 -272.598132 
L 285.580992 -272.598132 
L 292.716257 -273.388721 
L 299.851522 -274.179309 
L 306.986786 -275.760485 
L 314.122051 -275.760485 
L 321.257316 -275.760485 
L 328.392581 -275.760485 
L 335.527845 -275.760485 
L 342.66311 -275.760485 
L 349.798375 -275.760485 
L 356.933639 -275.760485 
L 364.068904 -275.760485 
L 371.204169 -275.760485 
L 378.339434 -275.760485 
L 385.474698 -275.760485 
L 392.609963 -275.760485 
L 399.745228 -275.760485 
L 406.880493 -275.760485 
L 414.015757 -275.760485 
L 421.151022 -275.760485 
L 428.286287 -275.760485 
L 435.421552 -275.760485 
L 442.556816 -275.760485 
L 449.692081 -276.551074 
L 456.827346 -276.551074 
L 463.962611 -277.341662 
L 471.097875 -277.341662 
L 478.23314 -277.341662 
L 485.368405 -277.341662 
L 492.503669 -277.341662 
L 499.638934 -277.341662 
L 506.774199 -277.341662 
L 513.909464 -277.341662 
L 521.044728 -277.341662 
L 528.179993 -277.341662 
L 535.315258 -277.341662 
L 542.450523 -277.341662 
L 549.585787 -277.341662 
L 556.721052 -277.341662 
L 563.856317 -277.341662 
L 570.991582 -277.341662 
L 578.126846 -277.341662 
L 585.262111 -277.341662 
L 592.397376 -277.341662 
L 599.53264 -277.341662 
L 606.667905 -277.341662 
L 613.80317 -277.341662 
L 620.938435 -277.341662 
L 628.073699 -277.341662 
L 635.208964 -277.341662 
L 642.344229 -277.341662 
L 649.479494 -277.341662 
L 656.614758 -277.341662 
L 663.750023 -277.341662 
L 670.885288 -277.341662 
L 678.020553 -278.13225 
L 685.155817 -278.922838 
L 692.291082 -278.922838 
L 699.426347 -278.922838 
L 706.561612 -278.922838 
L 713.696876 -278.922838 
L 720.832141 -278.922838 
L 727.967406 -278.922838 
L 735.10267 -278.922838 
L 735.10267 -282.875779 
L 735.10267 -282.875779 
L 727.967406 -282.875779 
L 720.832141 -282.875779 
L 713.696876 -282.875779 
L 706.561612 -282.085191 
L 699.426347 -282.875779 
L 692.291082 -283.666368 
L 685.155817 -282.875779 
L 678.020553 -282.875779 
L 670.885288 -282.875779 
L 663.750023 -282.875779 
L 656.614758 -282.875779 
L 649.479494 -282.875779 
L 642.344229 -282.875779 
L 635.208964 -282.085191 
L 628.073699 -282.085191 
L 620.938435 -282.085191 
L 613.80317 -282.085191 
L 606.667905 -282.085191 
L 599.53264 -282.085191 
L 592.397376 -282.085191 
L 585.262111 -282.085191 
L 578.126846 -282.085191 
L 570.991582 -282.085191 
L 563.856317 -281.294603 
L 556.721052 -281.294603 
L 549.585787 -281.294603 
L 542.450523 -281.294603 
L 535.315258 -281.294603 
L 528.179993 -281.294603 
L 521.044728 -281.294603 
L 513.909464 -281.294603 
L 506.774199 -280.504015 
L 499.638934 -280.504015 
L 492.503669 -280.504015 
L 485.368405 -280.504015 
L 478.23314 -280.504015 
L 471.097875 -280.504015 
L 463.962611 -280.504015 
L 456.827346 -280.504015 
L 449.692081 -280.504015 
L 442.556816 -280.504015 
L 435.421552 -278.942603 
L 428.286287 -279.733191 
L 421.151022 -279.713426 
L 414.015757 -279.713426 
L 406.880493 -280.504015 
L 399.745228 -279.713426 
L 392.609963 -279.733191 
L 385.474698 -279.713426 
L 378.339434 -279.713426 
L 371.204169 -278.922838 
L 364.068904 -278.922838 
L 356.933639 -278.922838 
L 349.798375 -278.922838 
L 342.66311 -278.922838 
L 335.527845 -278.922838 
L 328.392581 -278.13225 
L 321.257316 -278.152015 
L 314.122051 -277.341662 
L 306.986786 -277.341662 
L 299.851522 -277.341662 
L 292.716257 -277.341662 
L 285.580992 -277.341662 
L 278.445727 -277.341662 
L 271.310463 -277.341662 
L 264.175198 -276.551074 
L 257.039933 -276.551074 
L 249.904668 -276.551074 
L 242.769404 -276.551074 
L 235.634139 -276.551074 
L 228.498874 -275.760485 
L 221.36361 -275.760485 
L 214.228345 -274.969897 
L 207.09308 -274.969897 
L 199.957815 -274.969897 
L 192.822551 -275.760485 
L 185.687286 -274.969897 
L 178.552021 -274.179309 
L 171.416756 -274.179309 
L 164.281492 -274.179309 
L 157.146227 -274.179309 
L 150.010962 -274.179309 
L 142.875697 -272.598132 
L 135.740433 -271.807544 
L 128.605168 -271.016956 
L 121.469903 -270.226368 
L 114.334638 -267.064015 
L 107.199374 -259.158132 
L 100.064109 -247.299309 
L 92.928844 -233.068721 
L 85.79358 -136.616956 
z
" id="m1ab8b973a5" style="stroke:#1f77b4;stroke-opacity:0.2;"/>
    </defs>
    <g clip-path="url(#p0431aa9dc2)">
     <use style="fill:#1f77b4;fill-opacity:0.2;stroke:#1f77b4;stroke-opacity:0.2;" x="0" xlink:href="#m1ab8b973a5" y="325.986375"/>
    </g>
   </g>
   <g id="matplotlib.axis_1">
    <g id="xtick_1">
     <g id="line2d_1">
      <defs>
       <path d="M 0 0 
L 0 3.5 
" id="maa8d6827d8" style="stroke:#000000;stroke-width:0.8;"/>
      </defs>
      <g>
       <use style="stroke:#000000;stroke-width:0.8;" x="85.79358" xlink:href="#maa8d6827d8" y="288.430125"/>
      </g>
     </g>
     <g id="text_1">
      <!-- 15m -->
      <g transform="translate(74.560767 303.028562)scale(0.1 -0.1)">
       <defs>
        <path d="M 794 531 
L 1825 531 
L 1825 4091 
L 703 3866 
L 703 4441 
L 1819 4666 
L 2450 4666 
L 2450 531 
L 3481 531 
L 3481 0 
L 794 0 
L 794 531 
z
" id="DejaVuSans-31" transform="scale(0.015625)"/>
        <path d="M 691 4666 
L 3169 4666 
L 3169 4134 
L 1269 4134 
L 1269 2991 
Q 1406 3038 1543 3061 
Q 1681 3084 1819 3084 
Q 2600 3084 3056 2656 
Q 3513 2228 3513 1497 
Q 3513 744 3044 326 
Q 2575 -91 1722 -91 
Q 1428 -91 1123 -41 
Q 819 9 494 109 
L 494 744 
Q 775 591 1075 516 
Q 1375 441 1709 441 
Q 2250 441 2565 725 
Q 2881 1009 2881 1497 
Q 2881 1984 2565 2268 
Q 2250 2553 1709 2553 
Q 1456 2553 1204 2497 
Q 953 2441 691 2322 
L 691 4666 
z
" id="DejaVuSans-35" transform="scale(0.015625)"/>
        <path d="M 3328 2828 
Q 3544 3216 3844 3400 
Q 4144 3584 4550 3584 
Q 5097 3584 5394 3201 
Q 5691 2819 5691 2113 
L 5691 0 
L 5113 0 
L 5113 2094 
Q 5113 2597 4934 2840 
Q 4756 3084 4391 3084 
Q 3944 3084 3684 2787 
Q 3425 2491 3425 1978 
L 3425 0 
L 2847 0 
L 2847 2094 
Q 2847 2600 2669 2842 
Q 2491 3084 2119 3084 
Q 1678 3084 1418 2786 
Q 1159 2488 1159 1978 
L 1159 0 
L 581 0 
L 581 3500 
L 1159 3500 
L 1159 2956 
Q 1356 3278 1631 3431 
Q 1906 3584 2284 3584 
Q 2666 3584 2933 3390 
Q 3200 3197 3328 2828 
z
" id="DejaVuSans-6d" transform="scale(0.015625)"/>
       </defs>
       <use xlink:href="#DejaVuSans-31"/>
       <use x="63.623047" xlink:href="#DejaVuSans-35"/>
       <use x="127.246094" xlink:href="#DejaVuSans-6d"/>
      </g>
     </g>
    </g>
    <g id="xtick_2">
     <g id="line2d_2">
      <g>
       <use style="stroke:#000000;stroke-width:0.8;" x="140.497276" xlink:href="#maa8d6827d8" y="288.430125"/>
      </g>
     </g>
     <g id="text_2">
      <!-- 2h:10m -->
      <g transform="translate(121.230088 303.028562)scale(0.1 -0.1)">
       <defs>
        <path d="M 1228 531 
L 3431 531 
L 3431 0 
L 469 0 
L 469 531 
Q 828 903 1448 1529 
Q 2069 2156 2228 2338 
Q 2531 2678 2651 2914 
Q 2772 3150 2772 3378 
Q 2772 3750 2511 3984 
Q 2250 4219 1831 4219 
Q 1534 4219 1204 4116 
Q 875 4013 500 3803 
L 500 4441 
Q 881 4594 1212 4672 
Q 1544 4750 1819 4750 
Q 2544 4750 2975 4387 
Q 3406 4025 3406 3419 
Q 3406 3131 3298 2873 
Q 3191 2616 2906 2266 
Q 2828 2175 2409 1742 
Q 1991 1309 1228 531 
z
" id="DejaVuSans-32" transform="scale(0.015625)"/>
        <path d="M 3513 2113 
L 3513 0 
L 2938 0 
L 2938 2094 
Q 2938 2591 2744 2837 
Q 2550 3084 2163 3084 
Q 1697 3084 1428 2787 
Q 1159 2491 1159 1978 
L 1159 0 
L 581 0 
L 581 4863 
L 1159 4863 
L 1159 2956 
Q 1366 3272 1645 3428 
Q 1925 3584 2291 3584 
Q 2894 3584 3203 3211 
Q 3513 2838 3513 2113 
z
" id="DejaVuSans-68" transform="scale(0.015625)"/>
        <path d="M 750 794 
L 1409 794 
L 1409 0 
L 750 0 
L 750 794 
z
M 750 3309 
L 1409 3309 
L 1409 2516 
L 750 2516 
L 750 3309 
z
" id="DejaVuSans-3a" transform="scale(0.015625)"/>
        <path d="M 2034 4250 
Q 1547 4250 1301 3770 
Q 1056 3291 1056 2328 
Q 1056 1369 1301 889 
Q 1547 409 2034 409 
Q 2525 409 2770 889 
Q 3016 1369 3016 2328 
Q 3016 3291 2770 3770 
Q 2525 4250 2034 4250 
z
M 2034 4750 
Q 2819 4750 3233 4129 
Q 3647 3509 3647 2328 
Q 3647 1150 3233 529 
Q 2819 -91 2034 -91 
Q 1250 -91 836 529 
Q 422 1150 422 2328 
Q 422 3509 836 4129 
Q 1250 4750 2034 4750 
z
" id="DejaVuSans-30" transform="scale(0.015625)"/>
       </defs>
       <use xlink:href="#DejaVuSans-32"/>
       <use x="63.623047" xlink:href="#DejaVuSans-68"/>
       <use x="127.001953" xlink:href="#DejaVuSans-3a"/>
       <use x="160.693359" xlink:href="#DejaVuSans-31"/>
       <use x="224.316406" xlink:href="#DejaVuSans-30"/>
       <use x="287.939453" xlink:href="#DejaVuSans-6d"/>
      </g>
     </g>
    </g>
    <g id="xtick_3">
     <g id="line2d_3">
      <g>
       <use style="stroke:#000000;stroke-width:0.8;" x="195.200972" xlink:href="#maa8d6827d8" y="288.430125"/>
      </g>
     </g>
     <g id="text_3">
      <!-- 4h:5m -->
      <g transform="translate(179.115035 303.028562)scale(0.1 -0.1)">
       <defs>
        <path d="M 2419 4116 
L 825 1625 
L 2419 1625 
L 2419 4116 
z
M 2253 4666 
L 3047 4666 
L 3047 1625 
L 3713 1625 
L 3713 1100 
L 3047 1100 
L 3047 0 
L 2419 0 
L 2419 1100 
L 313 1100 
L 313 1709 
L 2253 4666 
z
" id="DejaVuSans-34" transform="scale(0.015625)"/>
       </defs>
       <use xlink:href="#DejaVuSans-34"/>
       <use x="63.623047" xlink:href="#DejaVuSans-68"/>
       <use x="127.001953" xlink:href="#DejaVuSans-3a"/>
       <use x="160.693359" xlink:href="#DejaVuSans-35"/>
       <use x="224.316406" xlink:href="#DejaVuSans-6d"/>
      </g>
     </g>
    </g>
    <g id="xtick_4">
     <g id="line2d_4">
      <g>
       <use style="stroke:#000000;stroke-width:0.8;" x="249.904668" xlink:href="#maa8d6827d8" y="288.430125"/>
      </g>
     </g>
     <g id="text_4">
      <!-- 6h -->
      <g transform="translate(243.554668 303.028562)scale(0.1 -0.1)">
       <defs>
        <path d="M 2113 2584 
Q 1688 2584 1439 2293 
Q 1191 2003 1191 1497 
Q 1191 994 1439 701 
Q 1688 409 2113 409 
Q 2538 409 2786 701 
Q 3034 994 3034 1497 
Q 3034 2003 2786 2293 
Q 2538 2584 2113 2584 
z
M 3366 4563 
L 3366 3988 
Q 3128 4100 2886 4159 
Q 2644 4219 2406 4219 
Q 1781 4219 1451 3797 
Q 1122 3375 1075 2522 
Q 1259 2794 1537 2939 
Q 1816 3084 2150 3084 
Q 2853 3084 3261 2657 
Q 3669 2231 3669 1497 
Q 3669 778 3244 343 
Q 2819 -91 2113 -91 
Q 1303 -91 875 529 
Q 447 1150 447 2328 
Q 447 3434 972 4092 
Q 1497 4750 2381 4750 
Q 2619 4750 2861 4703 
Q 3103 4656 3366 4563 
z
" id="DejaVuSans-36" transform="scale(0.015625)"/>
       </defs>
       <use xlink:href="#DejaVuSans-36"/>
       <use x="63.623047" xlink:href="#DejaVuSans-68"/>
      </g>
     </g>
    </g>
    <g id="xtick_5">
     <g id="line2d_5">
      <g>
       <use style="stroke:#000000;stroke-width:0.8;" x="304.608365" xlink:href="#maa8d6827d8" y="288.430125"/>
      </g>
     </g>
     <g id="text_5">
      <!-- 7h:55m -->
      <g transform="translate(285.341177 303.028562)scale(0.1 -0.1)">
       <defs>
        <path d="M 525 4666 
L 3525 4666 
L 3525 4397 
L 1831 0 
L 1172 0 
L 2766 4134 
L 525 4134 
L 525 4666 
z
" id="DejaVuSans-37" transform="scale(0.015625)"/>
       </defs>
       <use xlink:href="#DejaVuSans-37"/>
       <use x="63.623047" xlink:href="#DejaVuSans-68"/>
       <use x="127.001953" xlink:href="#DejaVuSans-3a"/>
       <use x="160.693359" xlink:href="#DejaVuSans-35"/>
       <use x="224.316406" xlink:href="#DejaVuSans-35"/>
       <use x="287.939453" xlink:href="#DejaVuSans-6d"/>
      </g>
     </g>
    </g>
    <g id="xtick_6">
     <g id="line2d_6">
      <g>
       <use style="stroke:#000000;stroke-width:0.8;" x="359.312061" xlink:href="#maa8d6827d8" y="288.430125"/>
      </g>
     </g>
     <g id="text_6">
      <!-- 9h:50m -->
      <g transform="translate(340.044874 303.028562)scale(0.1 -0.1)">
       <defs>
        <path d="M 703 97 
L 703 672 
Q 941 559 1184 500 
Q 1428 441 1663 441 
Q 2288 441 2617 861 
Q 2947 1281 2994 2138 
Q 2813 1869 2534 1725 
Q 2256 1581 1919 1581 
Q 1219 1581 811 2004 
Q 403 2428 403 3163 
Q 403 3881 828 4315 
Q 1253 4750 1959 4750 
Q 2769 4750 3195 4129 
Q 3622 3509 3622 2328 
Q 3622 1225 3098 567 
Q 2575 -91 1691 -91 
Q 1453 -91 1209 -44 
Q 966 3 703 97 
z
M 1959 2075 
Q 2384 2075 2632 2365 
Q 2881 2656 2881 3163 
Q 2881 3666 2632 3958 
Q 2384 4250 1959 4250 
Q 1534 4250 1286 3958 
Q 1038 3666 1038 3163 
Q 1038 2656 1286 2365 
Q 1534 2075 1959 2075 
z
" id="DejaVuSans-39" transform="scale(0.015625)"/>
       </defs>
       <use xlink:href="#DejaVuSans-39"/>
       <use x="63.623047" xlink:href="#DejaVuSans-68"/>
       <use x="127.001953" xlink:href="#DejaVuSans-3a"/>
       <use x="160.693359" xlink:href="#DejaVuSans-35"/>
       <use x="224.316406" xlink:href="#DejaVuSans-30"/>
       <use x="287.939453" xlink:href="#DejaVuSans-6d"/>
      </g>
     </g>
    </g>
    <g id="xtick_7">
     <g id="line2d_7">
      <g>
       <use style="stroke:#000000;stroke-width:0.8;" x="414.015757" xlink:href="#maa8d6827d8" y="288.430125"/>
      </g>
     </g>
     <g id="text_7">
      <!-- 11h:45m -->
      <g transform="translate(391.56732 303.028562)scale(0.1 -0.1)">
       <use xlink:href="#DejaVuSans-31"/>
       <use x="63.623047" xlink:href="#DejaVuSans-31"/>
       <use x="127.246094" xlink:href="#DejaVuSans-68"/>
       <use x="190.625" xlink:href="#DejaVuSans-3a"/>
       <use x="224.316406" xlink:href="#DejaVuSans-34"/>
       <use x="287.939453" xlink:href="#DejaVuSans-35"/>
       <use x="351.5625" xlink:href="#DejaVuSans-6d"/>
      </g>
     </g>
    </g>
    <g id="xtick_8">
     <g id="line2d_8">
      <g>
       <use style="stroke:#000000;stroke-width:0.8;" x="468.719454" xlink:href="#maa8d6827d8" y="288.430125"/>
      </g>
     </g>
     <g id="text_8">
      <!-- 13h:40m -->
      <g transform="translate(446.271016 303.028562)scale(0.1 -0.1)">
       <defs>
        <path d="M 2597 2516 
Q 3050 2419 3304 2112 
Q 3559 1806 3559 1356 
Q 3559 666 3084 287 
Q 2609 -91 1734 -91 
Q 1441 -91 1130 -33 
Q 819 25 488 141 
L 488 750 
Q 750 597 1062 519 
Q 1375 441 1716 441 
Q 2309 441 2620 675 
Q 2931 909 2931 1356 
Q 2931 1769 2642 2001 
Q 2353 2234 1838 2234 
L 1294 2234 
L 1294 2753 
L 1863 2753 
Q 2328 2753 2575 2939 
Q 2822 3125 2822 3475 
Q 2822 3834 2567 4026 
Q 2313 4219 1838 4219 
Q 1578 4219 1281 4162 
Q 984 4106 628 3988 
L 628 4550 
Q 988 4650 1302 4700 
Q 1616 4750 1894 4750 
Q 2613 4750 3031 4423 
Q 3450 4097 3450 3541 
Q 3450 3153 3228 2886 
Q 3006 2619 2597 2516 
z
" id="DejaVuSans-33" transform="scale(0.015625)"/>
       </defs>
       <use xlink:href="#DejaVuSans-31"/>
       <use x="63.623047" xlink:href="#DejaVuSans-33"/>
       <use x="127.246094" xlink:href="#DejaVuSans-68"/>
       <use x="190.625" xlink:href="#DejaVuSans-3a"/>
       <use x="224.316406" xlink:href="#DejaVuSans-34"/>
       <use x="287.939453" xlink:href="#DejaVuSans-30"/>
       <use x="351.5625" xlink:href="#DejaVuSans-6d"/>
      </g>
     </g>
    </g>
    <g id="xtick_9">
     <g id="line2d_9">
      <g>
       <use style="stroke:#000000;stroke-width:0.8;" x="523.42315" xlink:href="#maa8d6827d8" y="288.430125"/>
      </g>
     </g>
     <g id="text_9">
      <!-- 15h:35m -->
      <g transform="translate(500.974712 303.028562)scale(0.1 -0.1)">
       <use xlink:href="#DejaVuSans-31"/>
       <use x="63.623047" xlink:href="#DejaVuSans-35"/>
       <use x="127.246094" xlink:href="#DejaVuSans-68"/>
       <use x="190.625" xlink:href="#DejaVuSans-3a"/>
       <use x="224.316406" xlink:href="#DejaVuSans-33"/>
       <use x="287.939453" xlink:href="#DejaVuSans-35"/>
       <use x="351.5625" xlink:href="#DejaVuSans-6d"/>
      </g>
     </g>
    </g>
    <g id="xtick_10">
     <g id="line2d_10">
      <g>
       <use style="stroke:#000000;stroke-width:0.8;" x="578.126846" xlink:href="#maa8d6827d8" y="288.430125"/>
      </g>
     </g>
     <g id="text_10">
      <!-- 17h:30m -->
      <g transform="translate(555.678409 303.028562)scale(0.1 -0.1)">
       <use xlink:href="#DejaVuSans-31"/>
       <use x="63.623047" xlink:href="#DejaVuSans-37"/>
       <use x="127.246094" xlink:href="#DejaVuSans-68"/>
       <use x="190.625" xlink:href="#DejaVuSans-3a"/>
       <use x="224.316406" xlink:href="#DejaVuSans-33"/>
       <use x="287.939453" xlink:href="#DejaVuSans-30"/>
       <use x="351.5625" xlink:href="#DejaVuSans-6d"/>
      </g>
     </g>
    </g>
    <g id="xtick_11">
     <g id="line2d_11">
      <g>
       <use style="stroke:#000000;stroke-width:0.8;" x="632.830543" xlink:href="#maa8d6827d8" y="288.430125"/>
      </g>
     </g>
     <g id="text_11">
      <!-- 19h:25m -->
      <g transform="translate(610.382105 303.028562)scale(0.1 -0.1)">
       <use xlink:href="#DejaVuSans-31"/>
       <use x="63.623047" xlink:href="#DejaVuSans-39"/>
       <use x="127.246094" xlink:href="#DejaVuSans-68"/>
       <use x="190.625" xlink:href="#DejaVuSans-3a"/>
       <use x="224.316406" xlink:href="#DejaVuSans-32"/>
       <use x="287.939453" xlink:href="#DejaVuSans-35"/>
       <use x="351.5625" xlink:href="#DejaVuSans-6d"/>
      </g>
     </g>
    </g>
    <g id="xtick_12">
     <g id="line2d_12">
      <g>
       <use style="stroke:#000000;stroke-width:0.8;" x="687.534239" xlink:href="#maa8d6827d8" y="288.430125"/>
      </g>
     </g>
     <g id="text_12">
      <!-- 21h:20m -->
      <g transform="translate(665.085801 303.028562)scale(0.1 -0.1)">
       <use xlink:href="#DejaVuSans-32"/>
       <use x="63.623047" xlink:href="#DejaVuSans-31"/>
       <use x="127.246094" xlink:href="#DejaVuSans-68"/>
       <use x="190.625" xlink:href="#DejaVuSans-3a"/>
       <use x="224.316406" xlink:href="#DejaVuSans-32"/>
       <use x="287.939453" xlink:href="#DejaVuSans-30"/>
       <use x="351.5625" xlink:href="#DejaVuSans-6d"/>
      </g>
     </g>
    </g>
    <g id="text_13">
     <!-- Time (hour:minute) -->
     <g transform="translate(362.041094 316.706687)scale(0.1 -0.1)">
      <defs>
       <path d="M -19 4666 
L 3928 4666 
L 3928 4134 
L 2272 4134 
L 2272 0 
L 1638 0 
L 1638 4134 
L -19 4134 
L -19 4666 
z
" id="DejaVuSans-54" transform="scale(0.015625)"/>
       <path d="M 603 3500 
L 1178 3500 
L 1178 0 
L 603 0 
L 603 3500 
z
M 603 4863 
L 1178 4863 
L 1178 4134 
L 603 4134 
L 603 4863 
z
" id="DejaVuSans-69" transform="scale(0.015625)"/>
       <path d="M 3597 1894 
L 3597 1613 
L 953 1613 
Q 991 1019 1311 708 
Q 1631 397 2203 397 
Q 2534 397 2845 478 
Q 3156 559 3463 722 
L 3463 178 
Q 3153 47 2828 -22 
Q 2503 -91 2169 -91 
Q 1331 -91 842 396 
Q 353 884 353 1716 
Q 353 2575 817 3079 
Q 1281 3584 2069 3584 
Q 2775 3584 3186 3129 
Q 3597 2675 3597 1894 
z
M 3022 2063 
Q 3016 2534 2758 2815 
Q 2500 3097 2075 3097 
Q 1594 3097 1305 2825 
Q 1016 2553 972 2059 
L 3022 2063 
z
" id="DejaVuSans-65" transform="scale(0.015625)"/>
       <path id="DejaVuSans-20" transform="scale(0.015625)"/>
       <path d="M 1984 4856 
Q 1566 4138 1362 3434 
Q 1159 2731 1159 2009 
Q 1159 1288 1364 580 
Q 1569 -128 1984 -844 
L 1484 -844 
Q 1016 -109 783 600 
Q 550 1309 550 2009 
Q 550 2706 781 3412 
Q 1013 4119 1484 4856 
L 1984 4856 
z
" id="DejaVuSans-28" transform="scale(0.015625)"/>
       <path d="M 1959 3097 
Q 1497 3097 1228 2736 
Q 959 2375 959 1747 
Q 959 1119 1226 758 
Q 1494 397 1959 397 
Q 2419 397 2687 759 
Q 2956 1122 2956 1747 
Q 2956 2369 2687 2733 
Q 2419 3097 1959 3097 
z
M 1959 3584 
Q 2709 3584 3137 3096 
Q 3566 2609 3566 1747 
Q 3566 888 3137 398 
Q 2709 -91 1959 -91 
Q 1206 -91 779 398 
Q 353 888 353 1747 
Q 353 2609 779 3096 
Q 1206 3584 1959 3584 
z
" id="DejaVuSans-6f" transform="scale(0.015625)"/>
       <path d="M 544 1381 
L 544 3500 
L 1119 3500 
L 1119 1403 
Q 1119 906 1312 657 
Q 1506 409 1894 409 
Q 2359 409 2629 706 
Q 2900 1003 2900 1516 
L 2900 3500 
L 3475 3500 
L 3475 0 
L 2900 0 
L 2900 538 
Q 2691 219 2414 64 
Q 2138 -91 1772 -91 
Q 1169 -91 856 284 
Q 544 659 544 1381 
z
M 1991 3584 
L 1991 3584 
z
" id="DejaVuSans-75" transform="scale(0.015625)"/>
       <path d="M 2631 2963 
Q 2534 3019 2420 3045 
Q 2306 3072 2169 3072 
Q 1681 3072 1420 2755 
Q 1159 2438 1159 1844 
L 1159 0 
L 581 0 
L 581 3500 
L 1159 3500 
L 1159 2956 
Q 1341 3275 1631 3429 
Q 1922 3584 2338 3584 
Q 2397 3584 2469 3576 
Q 2541 3569 2628 3553 
L 2631 2963 
z
" id="DejaVuSans-72" transform="scale(0.015625)"/>
       <path d="M 3513 2113 
L 3513 0 
L 2938 0 
L 2938 2094 
Q 2938 2591 2744 2837 
Q 2550 3084 2163 3084 
Q 1697 3084 1428 2787 
Q 1159 2491 1159 1978 
L 1159 0 
L 581 0 
L 581 3500 
L 1159 3500 
L 1159 2956 
Q 1366 3272 1645 3428 
Q 1925 3584 2291 3584 
Q 2894 3584 3203 3211 
Q 3513 2838 3513 2113 
z
" id="DejaVuSans-6e" transform="scale(0.015625)"/>
       <path d="M 1172 4494 
L 1172 3500 
L 2356 3500 
L 2356 3053 
L 1172 3053 
L 1172 1153 
Q 1172 725 1289 603 
Q 1406 481 1766 481 
L 2356 481 
L 2356 0 
L 1766 0 
Q 1100 0 847 248 
Q 594 497 594 1153 
L 594 3053 
L 172 3053 
L 172 3500 
L 594 3500 
L 594 4494 
L 1172 4494 
z
" id="DejaVuSans-74" transform="scale(0.015625)"/>
       <path d="M 513 4856 
L 1013 4856 
Q 1481 4119 1714 3412 
Q 1947 2706 1947 2009 
Q 1947 1309 1714 600 
Q 1481 -109 1013 -844 
L 513 -844 
Q 928 -128 1133 580 
Q 1338 1288 1338 2009 
Q 1338 2731 1133 3434 
Q 928 4138 513 4856 
z
" id="DejaVuSans-29" transform="scale(0.015625)"/>
      </defs>
      <use xlink:href="#DejaVuSans-54"/>
      <use x="57.958984" xlink:href="#DejaVuSans-69"/>
      <use x="85.742188" xlink:href="#DejaVuSans-6d"/>
      <use x="183.154297" xlink:href="#DejaVuSans-65"/>
      <use x="244.677734" xlink:href="#DejaVuSans-20"/>
      <use x="276.464844" xlink:href="#DejaVuSans-28"/>
      <use x="315.478516" xlink:href="#DejaVuSans-68"/>
      <use x="378.857422" xlink:href="#DejaVuSans-6f"/>
      <use x="440.039062" xlink:href="#DejaVuSans-75"/>
      <use x="503.417969" xlink:href="#DejaVuSans-72"/>
      <use x="542.78125" xlink:href="#DejaVuSans-3a"/>
      <use x="576.472656" xlink:href="#DejaVuSans-6d"/>
      <use x="673.884766" xlink:href="#DejaVuSans-69"/>
      <use x="701.667969" xlink:href="#DejaVuSans-6e"/>
      <use x="765.046875" xlink:href="#DejaVuSans-75"/>
      <use x="828.425781" xlink:href="#DejaVuSans-74"/>
      <use x="867.634766" xlink:href="#DejaVuSans-65"/>
      <use x="929.158203" xlink:href="#DejaVuSans-29"/>
     </g>
    </g>
   </g>
   <g id="matplotlib.axis_2">
    <g id="ytick_1">
     <g id="line2d_13">
      <defs>
       <path d="M 0 0 
L -3.5 0 
" id="m4e90a9f2b9" style="stroke:#000000;stroke-width:0.8;"/>
      </defs>
      <g>
       <use style="stroke:#000000;stroke-width:0.8;" x="53.328125" xlink:href="#m4e90a9f2b9" y="274.752949"/>
      </g>
     </g>
     <g id="text_14">
      <!-- 2020 -->
      <g transform="translate(20.878125 278.552167)scale(0.1 -0.1)">
       <use xlink:href="#DejaVuSans-32"/>
       <use x="63.623047" xlink:href="#DejaVuSans-30"/>
       <use x="127.246094" xlink:href="#DejaVuSans-32"/>
       <use x="190.869141" xlink:href="#DejaVuSans-30"/>
      </g>
     </g>
    </g>
    <g id="ytick_2">
     <g id="line2d_14">
      <g>
       <use style="stroke:#000000;stroke-width:0.8;" x="53.328125" xlink:href="#m4e90a9f2b9" y="243.129419"/>
      </g>
     </g>
     <g id="text_15">
      <!-- 2040 -->
      <g transform="translate(20.878125 246.928638)scale(0.1 -0.1)">
       <use xlink:href="#DejaVuSans-32"/>
       <use x="63.623047" xlink:href="#DejaVuSans-30"/>
       <use x="127.246094" xlink:href="#DejaVuSans-34"/>
       <use x="190.869141" xlink:href="#DejaVuSans-30"/>
      </g>
     </g>
    </g>
    <g id="ytick_3">
     <g id="line2d_15">
      <g>
       <use style="stroke:#000000;stroke-width:0.8;" x="53.328125" xlink:href="#m4e90a9f2b9" y="211.50589"/>
      </g>
     </g>
     <g id="text_16">
      <!-- 2060 -->
      <g transform="translate(20.878125 215.305108)scale(0.1 -0.1)">
       <use xlink:href="#DejaVuSans-32"/>
       <use x="63.623047" xlink:href="#DejaVuSans-30"/>
       <use x="127.246094" xlink:href="#DejaVuSans-36"/>
       <use x="190.869141" xlink:href="#DejaVuSans-30"/>
      </g>
     </g>
    </g>
    <g id="ytick_4">
     <g id="line2d_16">
      <g>
       <use style="stroke:#000000;stroke-width:0.8;" x="53.328125" xlink:href="#m4e90a9f2b9" y="179.88236"/>
      </g>
     </g>
     <g id="text_17">
      <!-- 2080 -->
      <g transform="translate(20.878125 183.681579)scale(0.1 -0.1)">
       <defs>
        <path d="M 2034 2216 
Q 1584 2216 1326 1975 
Q 1069 1734 1069 1313 
Q 1069 891 1326 650 
Q 1584 409 2034 409 
Q 2484 409 2743 651 
Q 3003 894 3003 1313 
Q 3003 1734 2745 1975 
Q 2488 2216 2034 2216 
z
M 1403 2484 
Q 997 2584 770 2862 
Q 544 3141 544 3541 
Q 544 4100 942 4425 
Q 1341 4750 2034 4750 
Q 2731 4750 3128 4425 
Q 3525 4100 3525 3541 
Q 3525 3141 3298 2862 
Q 3072 2584 2669 2484 
Q 3125 2378 3379 2068 
Q 3634 1759 3634 1313 
Q 3634 634 3220 271 
Q 2806 -91 2034 -91 
Q 1263 -91 848 271 
Q 434 634 434 1313 
Q 434 1759 690 2068 
Q 947 2378 1403 2484 
z
M 1172 3481 
Q 1172 3119 1398 2916 
Q 1625 2713 2034 2713 
Q 2441 2713 2670 2916 
Q 2900 3119 2900 3481 
Q 2900 3844 2670 4047 
Q 2441 4250 2034 4250 
Q 1625 4250 1398 4047 
Q 1172 3844 1172 3481 
z
" id="DejaVuSans-38" transform="scale(0.015625)"/>
       </defs>
       <use xlink:href="#DejaVuSans-32"/>
       <use x="63.623047" xlink:href="#DejaVuSans-30"/>
       <use x="127.246094" xlink:href="#DejaVuSans-38"/>
       <use x="190.869141" xlink:href="#DejaVuSans-30"/>
      </g>
     </g>
    </g>
    <g id="ytick_5">
     <g id="line2d_17">
      <g>
       <use style="stroke:#000000;stroke-width:0.8;" x="53.328125" xlink:href="#m4e90a9f2b9" y="148.258831"/>
      </g>
     </g>
     <g id="text_18">
      <!-- 2100 -->
      <g transform="translate(20.878125 152.05805)scale(0.1 -0.1)">
       <use xlink:href="#DejaVuSans-32"/>
       <use x="63.623047" xlink:href="#DejaVuSans-31"/>
       <use x="127.246094" xlink:href="#DejaVuSans-30"/>
       <use x="190.869141" xlink:href="#DejaVuSans-30"/>
      </g>
     </g>
    </g>
    <g id="ytick_6">
     <g id="line2d_18">
      <g>
       <use style="stroke:#000000;stroke-width:0.8;" x="53.328125" xlink:href="#m4e90a9f2b9" y="116.635301"/>
      </g>
     </g>
     <g id="text_19">
      <!-- 2120 -->
      <g transform="translate(20.878125 120.43452)scale(0.1 -0.1)">
       <use xlink:href="#DejaVuSans-32"/>
       <use x="63.623047" xlink:href="#DejaVuSans-31"/>
       <use x="127.246094" xlink:href="#DejaVuSans-32"/>
       <use x="190.869141" xlink:href="#DejaVuSans-30"/>
      </g>
     </g>
    </g>
    <g id="ytick_7">
     <g id="line2d_19">
      <g>
       <use style="stroke:#000000;stroke-width:0.8;" x="53.328125" xlink:href="#m4e90a9f2b9" y="85.011772"/>
      </g>
     </g>
     <g id="text_20">
      <!-- 2140 -->
      <g transform="translate(20.878125 88.810991)scale(0.1 -0.1)">
       <use xlink:href="#DejaVuSans-32"/>
       <use x="63.623047" xlink:href="#DejaVuSans-31"/>
       <use x="127.246094" xlink:href="#DejaVuSans-34"/>
       <use x="190.869141" xlink:href="#DejaVuSans-30"/>
      </g>
     </g>
    </g>
    <g id="ytick_8">
     <g id="line2d_20">
      <g>
       <use style="stroke:#000000;stroke-width:0.8;" x="53.328125" xlink:href="#m4e90a9f2b9" y="53.388243"/>
      </g>
     </g>
     <g id="text_21">
      <!-- 2160 -->
      <g transform="translate(20.878125 57.187461)scale(0.1 -0.1)">
       <use xlink:href="#DejaVuSans-32"/>
       <use x="63.623047" xlink:href="#DejaVuSans-31"/>
       <use x="127.246094" xlink:href="#DejaVuSans-36"/>
       <use x="190.869141" xlink:href="#DejaVuSans-30"/>
      </g>
     </g>
    </g>
    <g id="text_22">
     <!-- Code region coverage -->
     <g transform="translate(14.798438 210.379594)rotate(-90)scale(0.1 -0.1)">
      <defs>
       <path d="M 4122 4306 
L 4122 3641 
Q 3803 3938 3442 4084 
Q 3081 4231 2675 4231 
Q 1875 4231 1450 3742 
Q 1025 3253 1025 2328 
Q 1025 1406 1450 917 
Q 1875 428 2675 428 
Q 3081 428 3442 575 
Q 3803 722 4122 1019 
L 4122 359 
Q 3791 134 3420 21 
Q 3050 -91 2638 -91 
Q 1578 -91 968 557 
Q 359 1206 359 2328 
Q 359 3453 968 4101 
Q 1578 4750 2638 4750 
Q 3056 4750 3426 4639 
Q 3797 4528 4122 4306 
z
" id="DejaVuSans-43" transform="scale(0.015625)"/>
       <path d="M 2906 2969 
L 2906 4863 
L 3481 4863 
L 3481 0 
L 2906 0 
L 2906 525 
Q 2725 213 2448 61 
Q 2172 -91 1784 -91 
Q 1150 -91 751 415 
Q 353 922 353 1747 
Q 353 2572 751 3078 
Q 1150 3584 1784 3584 
Q 2172 3584 2448 3432 
Q 2725 3281 2906 2969 
z
M 947 1747 
Q 947 1113 1208 752 
Q 1469 391 1925 391 
Q 2381 391 2643 752 
Q 2906 1113 2906 1747 
Q 2906 2381 2643 2742 
Q 2381 3103 1925 3103 
Q 1469 3103 1208 2742 
Q 947 2381 947 1747 
z
" id="DejaVuSans-64" transform="scale(0.015625)"/>
       <path d="M 2906 1791 
Q 2906 2416 2648 2759 
Q 2391 3103 1925 3103 
Q 1463 3103 1205 2759 
Q 947 2416 947 1791 
Q 947 1169 1205 825 
Q 1463 481 1925 481 
Q 2391 481 2648 825 
Q 2906 1169 2906 1791 
z
M 3481 434 
Q 3481 -459 3084 -895 
Q 2688 -1331 1869 -1331 
Q 1566 -1331 1297 -1286 
Q 1028 -1241 775 -1147 
L 775 -588 
Q 1028 -725 1275 -790 
Q 1522 -856 1778 -856 
Q 2344 -856 2625 -561 
Q 2906 -266 2906 331 
L 2906 616 
Q 2728 306 2450 153 
Q 2172 0 1784 0 
Q 1141 0 747 490 
Q 353 981 353 1791 
Q 353 2603 747 3093 
Q 1141 3584 1784 3584 
Q 2172 3584 2450 3431 
Q 2728 3278 2906 2969 
L 2906 3500 
L 3481 3500 
L 3481 434 
z
" id="DejaVuSans-67" transform="scale(0.015625)"/>
       <path d="M 3122 3366 
L 3122 2828 
Q 2878 2963 2633 3030 
Q 2388 3097 2138 3097 
Q 1578 3097 1268 2742 
Q 959 2388 959 1747 
Q 959 1106 1268 751 
Q 1578 397 2138 397 
Q 2388 397 2633 464 
Q 2878 531 3122 666 
L 3122 134 
Q 2881 22 2623 -34 
Q 2366 -91 2075 -91 
Q 1284 -91 818 406 
Q 353 903 353 1747 
Q 353 2603 823 3093 
Q 1294 3584 2113 3584 
Q 2378 3584 2631 3529 
Q 2884 3475 3122 3366 
z
" id="DejaVuSans-63" transform="scale(0.015625)"/>
       <path d="M 191 3500 
L 800 3500 
L 1894 563 
L 2988 3500 
L 3597 3500 
L 2284 0 
L 1503 0 
L 191 3500 
z
" id="DejaVuSans-76" transform="scale(0.015625)"/>
       <path d="M 2194 1759 
Q 1497 1759 1228 1600 
Q 959 1441 959 1056 
Q 959 750 1161 570 
Q 1363 391 1709 391 
Q 2188 391 2477 730 
Q 2766 1069 2766 1631 
L 2766 1759 
L 2194 1759 
z
M 3341 1997 
L 3341 0 
L 2766 0 
L 2766 531 
Q 2569 213 2275 61 
Q 1981 -91 1556 -91 
Q 1019 -91 701 211 
Q 384 513 384 1019 
Q 384 1609 779 1909 
Q 1175 2209 1959 2209 
L 2766 2209 
L 2766 2266 
Q 2766 2663 2505 2880 
Q 2244 3097 1772 3097 
Q 1472 3097 1187 3025 
Q 903 2953 641 2809 
L 641 3341 
Q 956 3463 1253 3523 
Q 1550 3584 1831 3584 
Q 2591 3584 2966 3190 
Q 3341 2797 3341 1997 
z
" id="DejaVuSans-61" transform="scale(0.015625)"/>
      </defs>
      <use xlink:href="#DejaVuSans-43"/>
      <use x="69.824219" xlink:href="#DejaVuSans-6f"/>
      <use x="131.005859" xlink:href="#DejaVuSans-64"/>
      <use x="194.482422" xlink:href="#DejaVuSans-65"/>
      <use x="256.005859" xlink:href="#DejaVuSans-20"/>
      <use x="287.792969" xlink:href="#DejaVuSans-72"/>
      <use x="326.65625" xlink:href="#DejaVuSans-65"/>
      <use x="388.179688" xlink:href="#DejaVuSans-67"/>
      <use x="451.65625" xlink:href="#DejaVuSans-69"/>
      <use x="479.439453" xlink:href="#DejaVuSans-6f"/>
      <use x="540.621094" xlink:href="#DejaVuSans-6e"/>
      <use x="604" xlink:href="#DejaVuSans-20"/>
      <use x="635.787109" xlink:href="#DejaVuSans-63"/>
      <use x="690.767578" xlink:href="#DejaVuSans-6f"/>
      <use x="751.949219" xlink:href="#DejaVuSans-76"/>
      <use x="811.128906" xlink:href="#DejaVuSans-65"/>
      <use x="872.652344" xlink:href="#DejaVuSans-72"/>
      <use x="913.765625" xlink:href="#DejaVuSans-61"/>
      <use x="975.044922" xlink:href="#DejaVuSans-67"/>
      <use x="1038.521484" xlink:href="#DejaVuSans-65"/>
     </g>
    </g>
   </g>
   <g id="line2d_21">
    <path clip-path="url(#p0431aa9dc2)" d="M 85.79358 242.338831 
L 92.928844 152.211772 
L 100.064109 85.80236 
L 107.199374 78.687066 
L 114.334638 73.943537 
L 121.469903 66.828243 
L 128.605168 66.828243 
L 135.740433 58.92236 
L 142.875697 58.92236 
L 150.010962 57.341184 
L 157.146227 57.341184 
L 164.281492 57.341184 
L 171.416756 57.341184 
L 178.552021 57.341184 
L 185.687286 56.550596 
L 192.822551 56.550596 
L 199.957815 56.550596 
L 207.09308 53.388243 
L 214.228345 53.388243 
L 221.36361 53.388243 
L 228.498874 52.597654 
L 235.634139 52.597654 
L 242.769404 52.597654 
L 249.904668 52.597654 
L 257.039933 52.597654 
L 264.175198 51.016478 
L 271.310463 51.016478 
L 278.445727 50.22589 
L 285.580992 50.22589 
L 292.716257 50.22589 
L 299.851522 50.22589 
L 306.986786 50.22589 
L 314.122051 49.435301 
L 321.257316 49.435301 
L 328.392581 49.435301 
L 335.527845 49.435301 
L 342.66311 49.435301 
L 349.798375 49.435301 
L 356.933639 49.435301 
L 364.068904 49.435301 
L 371.204169 48.644713 
L 378.339434 47.063537 
L 385.474698 47.063537 
L 392.609963 47.063537 
L 399.745228 47.063537 
L 406.880493 47.063537 
L 414.015757 47.063537 
L 421.151022 46.272949 
L 428.286287 46.272949 
L 435.421552 46.272949 
L 442.556816 46.272949 
L 449.692081 46.272949 
L 456.827346 45.48236 
L 463.962611 45.48236 
L 471.097875 45.48236 
L 478.23314 45.48236 
L 485.368405 45.48236 
L 492.503669 45.48236 
L 499.638934 45.48236 
L 506.774199 45.48236 
L 513.909464 43.901184 
L 521.044728 43.901184 
L 528.179993 43.901184 
L 535.315258 43.901184 
L 542.450523 43.901184 
L 549.585787 43.901184 
L 556.721052 43.901184 
L 563.856317 43.901184 
L 570.991582 43.901184 
L 578.126846 43.901184 
L 585.262111 43.901184 
L 592.397376 43.901184 
L 599.53264 43.901184 
L 606.667905 43.901184 
L 613.80317 43.901184 
L 620.938435 43.901184 
L 628.073699 43.901184 
L 635.208964 43.901184 
L 642.344229 43.901184 
L 649.479494 43.901184 
L 656.614758 43.901184 
L 663.750023 43.901184 
L 670.885288 43.901184 
L 678.020553 43.901184 
L 685.155817 43.901184 
L 692.291082 43.901184 
L 699.426347 43.901184 
L 706.561612 43.901184 
L 713.696876 43.901184 
L 720.832141 43.110596 
L 727.967406 43.110596 
L 735.10267 42.320007 
" style="fill:none;stroke:#d62728;stroke-linecap:square;stroke-width:1.5;"/>
    <defs>
     <path d="M 0 -3 
L -3 3 
L 3 3 
z
" id="m9f5dcf5cba" style="stroke:#ffffff;stroke-linejoin:miter;stroke-width:0.75;"/>
    </defs>
    <g clip-path="url(#p0431aa9dc2)">
     <use style="fill:#d62728;stroke:#ffffff;stroke-linejoin:miter;stroke-width:0.75;" x="85.79358" xlink:href="#m9f5dcf5cba" y="242.338831"/>
     <use style="fill:#d62728;stroke:#ffffff;stroke-linejoin:miter;stroke-width:0.75;" x="92.928844" xlink:href="#m9f5dcf5cba" y="152.211772"/>
     <use style="fill:#d62728;stroke:#ffffff;stroke-linejoin:miter;stroke-width:0.75;" x="100.064109" xlink:href="#m9f5dcf5cba" y="85.80236"/>
     <use style="fill:#d62728;stroke:#ffffff;stroke-linejoin:miter;stroke-width:0.75;" x="107.199374" xlink:href="#m9f5dcf5cba" y="78.687066"/>
     <use style="fill:#d62728;stroke:#ffffff;stroke-linejoin:miter;stroke-width:0.75;" x="114.334638" xlink:href="#m9f5dcf5cba" y="73.943537"/>
     <use style="fill:#d62728;stroke:#ffffff;stroke-linejoin:miter;stroke-width:0.75;" x="121.469903" xlink:href="#m9f5dcf5cba" y="66.828243"/>
     <use style="fill:#d62728;stroke:#ffffff;stroke-linejoin:miter;stroke-width:0.75;" x="128.605168" xlink:href="#m9f5dcf5cba" y="66.828243"/>
     <use style="fill:#d62728;stroke:#ffffff;stroke-linejoin:miter;stroke-width:0.75;" x="135.740433" xlink:href="#m9f5dcf5cba" y="58.92236"/>
     <use style="fill:#d62728;stroke:#ffffff;stroke-linejoin:miter;stroke-width:0.75;" x="142.875697" xlink:href="#m9f5dcf5cba" y="58.92236"/>
     <use style="fill:#d62728;stroke:#ffffff;stroke-linejoin:miter;stroke-width:0.75;" x="150.010962" xlink:href="#m9f5dcf5cba" y="57.341184"/>
     <use style="fill:#d62728;stroke:#ffffff;stroke-linejoin:miter;stroke-width:0.75;" x="157.146227" xlink:href="#m9f5dcf5cba" y="57.341184"/>
     <use style="fill:#d62728;stroke:#ffffff;stroke-linejoin:miter;stroke-width:0.75;" x="164.281492" xlink:href="#m9f5dcf5cba" y="57.341184"/>
     <use style="fill:#d62728;stroke:#ffffff;stroke-linejoin:miter;stroke-width:0.75;" x="171.416756" xlink:href="#m9f5dcf5cba" y="57.341184"/>
     <use style="fill:#d62728;stroke:#ffffff;stroke-linejoin:miter;stroke-width:0.75;" x="178.552021" xlink:href="#m9f5dcf5cba" y="57.341184"/>
     <use style="fill:#d62728;stroke:#ffffff;stroke-linejoin:miter;stroke-width:0.75;" x="185.687286" xlink:href="#m9f5dcf5cba" y="56.550596"/>
     <use style="fill:#d62728;stroke:#ffffff;stroke-linejoin:miter;stroke-width:0.75;" x="192.822551" xlink:href="#m9f5dcf5cba" y="56.550596"/>
     <use style="fill:#d62728;stroke:#ffffff;stroke-linejoin:miter;stroke-width:0.75;" x="199.957815" xlink:href="#m9f5dcf5cba" y="56.550596"/>
     <use style="fill:#d62728;stroke:#ffffff;stroke-linejoin:miter;stroke-width:0.75;" x="207.09308" xlink:href="#m9f5dcf5cba" y="53.388243"/>
     <use style="fill:#d62728;stroke:#ffffff;stroke-linejoin:miter;stroke-width:0.75;" x="214.228345" xlink:href="#m9f5dcf5cba" y="53.388243"/>
     <use style="fill:#d62728;stroke:#ffffff;stroke-linejoin:miter;stroke-width:0.75;" x="221.36361" xlink:href="#m9f5dcf5cba" y="53.388243"/>
     <use style="fill:#d62728;stroke:#ffffff;stroke-linejoin:miter;stroke-width:0.75;" x="228.498874" xlink:href="#m9f5dcf5cba" y="52.597654"/>
     <use style="fill:#d62728;stroke:#ffffff;stroke-linejoin:miter;stroke-width:0.75;" x="235.634139" xlink:href="#m9f5dcf5cba" y="52.597654"/>
     <use style="fill:#d62728;stroke:#ffffff;stroke-linejoin:miter;stroke-width:0.75;" x="242.769404" xlink:href="#m9f5dcf5cba" y="52.597654"/>
     <use style="fill:#d62728;stroke:#ffffff;stroke-linejoin:miter;stroke-width:0.75;" x="249.904668" xlink:href="#m9f5dcf5cba" y="52.597654"/>
     <use style="fill:#d62728;stroke:#ffffff;stroke-linejoin:miter;stroke-width:0.75;" x="257.039933" xlink:href="#m9f5dcf5cba" y="52.597654"/>
     <use style="fill:#d62728;stroke:#ffffff;stroke-linejoin:miter;stroke-width:0.75;" x="264.175198" xlink:href="#m9f5dcf5cba" y="51.016478"/>
     <use style="fill:#d62728;stroke:#ffffff;stroke-linejoin:miter;stroke-width:0.75;" x="271.310463" xlink:href="#m9f5dcf5cba" y="51.016478"/>
     <use style="fill:#d62728;stroke:#ffffff;stroke-linejoin:miter;stroke-width:0.75;" x="278.445727" xlink:href="#m9f5dcf5cba" y="50.22589"/>
     <use style="fill:#d62728;stroke:#ffffff;stroke-linejoin:miter;stroke-width:0.75;" x="285.580992" xlink:href="#m9f5dcf5cba" y="50.22589"/>
     <use style="fill:#d62728;stroke:#ffffff;stroke-linejoin:miter;stroke-width:0.75;" x="292.716257" xlink:href="#m9f5dcf5cba" y="50.22589"/>
     <use style="fill:#d62728;stroke:#ffffff;stroke-linejoin:miter;stroke-width:0.75;" x="299.851522" xlink:href="#m9f5dcf5cba" y="50.22589"/>
     <use style="fill:#d62728;stroke:#ffffff;stroke-linejoin:miter;stroke-width:0.75;" x="306.986786" xlink:href="#m9f5dcf5cba" y="50.22589"/>
     <use style="fill:#d62728;stroke:#ffffff;stroke-linejoin:miter;stroke-width:0.75;" x="314.122051" xlink:href="#m9f5dcf5cba" y="49.435301"/>
     <use style="fill:#d62728;stroke:#ffffff;stroke-linejoin:miter;stroke-width:0.75;" x="321.257316" xlink:href="#m9f5dcf5cba" y="49.435301"/>
     <use style="fill:#d62728;stroke:#ffffff;stroke-linejoin:miter;stroke-width:0.75;" x="328.392581" xlink:href="#m9f5dcf5cba" y="49.435301"/>
     <use style="fill:#d62728;stroke:#ffffff;stroke-linejoin:miter;stroke-width:0.75;" x="335.527845" xlink:href="#m9f5dcf5cba" y="49.435301"/>
     <use style="fill:#d62728;stroke:#ffffff;stroke-linejoin:miter;stroke-width:0.75;" x="342.66311" xlink:href="#m9f5dcf5cba" y="49.435301"/>
     <use style="fill:#d62728;stroke:#ffffff;stroke-linejoin:miter;stroke-width:0.75;" x="349.798375" xlink:href="#m9f5dcf5cba" y="49.435301"/>
     <use style="fill:#d62728;stroke:#ffffff;stroke-linejoin:miter;stroke-width:0.75;" x="356.933639" xlink:href="#m9f5dcf5cba" y="49.435301"/>
     <use style="fill:#d62728;stroke:#ffffff;stroke-linejoin:miter;stroke-width:0.75;" x="364.068904" xlink:href="#m9f5dcf5cba" y="49.435301"/>
     <use style="fill:#d62728;stroke:#ffffff;stroke-linejoin:miter;stroke-width:0.75;" x="371.204169" xlink:href="#m9f5dcf5cba" y="48.644713"/>
     <use style="fill:#d62728;stroke:#ffffff;stroke-linejoin:miter;stroke-width:0.75;" x="378.339434" xlink:href="#m9f5dcf5cba" y="47.063537"/>
     <use style="fill:#d62728;stroke:#ffffff;stroke-linejoin:miter;stroke-width:0.75;" x="385.474698" xlink:href="#m9f5dcf5cba" y="47.063537"/>
     <use style="fill:#d62728;stroke:#ffffff;stroke-linejoin:miter;stroke-width:0.75;" x="392.609963" xlink:href="#m9f5dcf5cba" y="47.063537"/>
     <use style="fill:#d62728;stroke:#ffffff;stroke-linejoin:miter;stroke-width:0.75;" x="399.745228" xlink:href="#m9f5dcf5cba" y="47.063537"/>
     <use style="fill:#d62728;stroke:#ffffff;stroke-linejoin:miter;stroke-width:0.75;" x="406.880493" xlink:href="#m9f5dcf5cba" y="47.063537"/>
     <use style="fill:#d62728;stroke:#ffffff;stroke-linejoin:miter;stroke-width:0.75;" x="414.015757" xlink:href="#m9f5dcf5cba" y="47.063537"/>
     <use style="fill:#d62728;stroke:#ffffff;stroke-linejoin:miter;stroke-width:0.75;" x="421.151022" xlink:href="#m9f5dcf5cba" y="46.272949"/>
     <use style="fill:#d62728;stroke:#ffffff;stroke-linejoin:miter;stroke-width:0.75;" x="428.286287" xlink:href="#m9f5dcf5cba" y="46.272949"/>
     <use style="fill:#d62728;stroke:#ffffff;stroke-linejoin:miter;stroke-width:0.75;" x="435.421552" xlink:href="#m9f5dcf5cba" y="46.272949"/>
     <use style="fill:#d62728;stroke:#ffffff;stroke-linejoin:miter;stroke-width:0.75;" x="442.556816" xlink:href="#m9f5dcf5cba" y="46.272949"/>
     <use style="fill:#d62728;stroke:#ffffff;stroke-linejoin:miter;stroke-width:0.75;" x="449.692081" xlink:href="#m9f5dcf5cba" y="46.272949"/>
     <use style="fill:#d62728;stroke:#ffffff;stroke-linejoin:miter;stroke-width:0.75;" x="456.827346" xlink:href="#m9f5dcf5cba" y="45.48236"/>
     <use style="fill:#d62728;stroke:#ffffff;stroke-linejoin:miter;stroke-width:0.75;" x="463.962611" xlink:href="#m9f5dcf5cba" y="45.48236"/>
     <use style="fill:#d62728;stroke:#ffffff;stroke-linejoin:miter;stroke-width:0.75;" x="471.097875" xlink:href="#m9f5dcf5cba" y="45.48236"/>
     <use style="fill:#d62728;stroke:#ffffff;stroke-linejoin:miter;stroke-width:0.75;" x="478.23314" xlink:href="#m9f5dcf5cba" y="45.48236"/>
     <use style="fill:#d62728;stroke:#ffffff;stroke-linejoin:miter;stroke-width:0.75;" x="485.368405" xlink:href="#m9f5dcf5cba" y="45.48236"/>
     <use style="fill:#d62728;stroke:#ffffff;stroke-linejoin:miter;stroke-width:0.75;" x="492.503669" xlink:href="#m9f5dcf5cba" y="45.48236"/>
     <use style="fill:#d62728;stroke:#ffffff;stroke-linejoin:miter;stroke-width:0.75;" x="499.638934" xlink:href="#m9f5dcf5cba" y="45.48236"/>
     <use style="fill:#d62728;stroke:#ffffff;stroke-linejoin:miter;stroke-width:0.75;" x="506.774199" xlink:href="#m9f5dcf5cba" y="45.48236"/>
     <use style="fill:#d62728;stroke:#ffffff;stroke-linejoin:miter;stroke-width:0.75;" x="513.909464" xlink:href="#m9f5dcf5cba" y="43.901184"/>
     <use style="fill:#d62728;stroke:#ffffff;stroke-linejoin:miter;stroke-width:0.75;" x="521.044728" xlink:href="#m9f5dcf5cba" y="43.901184"/>
     <use style="fill:#d62728;stroke:#ffffff;stroke-linejoin:miter;stroke-width:0.75;" x="528.179993" xlink:href="#m9f5dcf5cba" y="43.901184"/>
     <use style="fill:#d62728;stroke:#ffffff;stroke-linejoin:miter;stroke-width:0.75;" x="535.315258" xlink:href="#m9f5dcf5cba" y="43.901184"/>
     <use style="fill:#d62728;stroke:#ffffff;stroke-linejoin:miter;stroke-width:0.75;" x="542.450523" xlink:href="#m9f5dcf5cba" y="43.901184"/>
     <use style="fill:#d62728;stroke:#ffffff;stroke-linejoin:miter;stroke-width:0.75;" x="549.585787" xlink:href="#m9f5dcf5cba" y="43.901184"/>
     <use style="fill:#d62728;stroke:#ffffff;stroke-linejoin:miter;stroke-width:0.75;" x="556.721052" xlink:href="#m9f5dcf5cba" y="43.901184"/>
     <use style="fill:#d62728;stroke:#ffffff;stroke-linejoin:miter;stroke-width:0.75;" x="563.856317" xlink:href="#m9f5dcf5cba" y="43.901184"/>
     <use style="fill:#d62728;stroke:#ffffff;stroke-linejoin:miter;stroke-width:0.75;" x="570.991582" xlink:href="#m9f5dcf5cba" y="43.901184"/>
     <use style="fill:#d62728;stroke:#ffffff;stroke-linejoin:miter;stroke-width:0.75;" x="578.126846" xlink:href="#m9f5dcf5cba" y="43.901184"/>
     <use style="fill:#d62728;stroke:#ffffff;stroke-linejoin:miter;stroke-width:0.75;" x="585.262111" xlink:href="#m9f5dcf5cba" y="43.901184"/>
     <use style="fill:#d62728;stroke:#ffffff;stroke-linejoin:miter;stroke-width:0.75;" x="592.397376" xlink:href="#m9f5dcf5cba" y="43.901184"/>
     <use style="fill:#d62728;stroke:#ffffff;stroke-linejoin:miter;stroke-width:0.75;" x="599.53264" xlink:href="#m9f5dcf5cba" y="43.901184"/>
     <use style="fill:#d62728;stroke:#ffffff;stroke-linejoin:miter;stroke-width:0.75;" x="606.667905" xlink:href="#m9f5dcf5cba" y="43.901184"/>
     <use style="fill:#d62728;stroke:#ffffff;stroke-linejoin:miter;stroke-width:0.75;" x="613.80317" xlink:href="#m9f5dcf5cba" y="43.901184"/>
     <use style="fill:#d62728;stroke:#ffffff;stroke-linejoin:miter;stroke-width:0.75;" x="620.938435" xlink:href="#m9f5dcf5cba" y="43.901184"/>
     <use style="fill:#d62728;stroke:#ffffff;stroke-linejoin:miter;stroke-width:0.75;" x="628.073699" xlink:href="#m9f5dcf5cba" y="43.901184"/>
     <use style="fill:#d62728;stroke:#ffffff;stroke-linejoin:miter;stroke-width:0.75;" x="635.208964" xlink:href="#m9f5dcf5cba" y="43.901184"/>
     <use style="fill:#d62728;stroke:#ffffff;stroke-linejoin:miter;stroke-width:0.75;" x="642.344229" xlink:href="#m9f5dcf5cba" y="43.901184"/>
     <use style="fill:#d62728;stroke:#ffffff;stroke-linejoin:miter;stroke-width:0.75;" x="649.479494" xlink:href="#m9f5dcf5cba" y="43.901184"/>
     <use style="fill:#d62728;stroke:#ffffff;stroke-linejoin:miter;stroke-width:0.75;" x="656.614758" xlink:href="#m9f5dcf5cba" y="43.901184"/>
     <use style="fill:#d62728;stroke:#ffffff;stroke-linejoin:miter;stroke-width:0.75;" x="663.750023" xlink:href="#m9f5dcf5cba" y="43.901184"/>
     <use style="fill:#d62728;stroke:#ffffff;stroke-linejoin:miter;stroke-width:0.75;" x="670.885288" xlink:href="#m9f5dcf5cba" y="43.901184"/>
     <use style="fill:#d62728;stroke:#ffffff;stroke-linejoin:miter;stroke-width:0.75;" x="678.020553" xlink:href="#m9f5dcf5cba" y="43.901184"/>
     <use style="fill:#d62728;stroke:#ffffff;stroke-linejoin:miter;stroke-width:0.75;" x="685.155817" xlink:href="#m9f5dcf5cba" y="43.901184"/>
     <use style="fill:#d62728;stroke:#ffffff;stroke-linejoin:miter;stroke-width:0.75;" x="692.291082" xlink:href="#m9f5dcf5cba" y="43.901184"/>
     <use style="fill:#d62728;stroke:#ffffff;stroke-linejoin:miter;stroke-width:0.75;" x="699.426347" xlink:href="#m9f5dcf5cba" y="43.901184"/>
     <use style="fill:#d62728;stroke:#ffffff;stroke-linejoin:miter;stroke-width:0.75;" x="706.561612" xlink:href="#m9f5dcf5cba" y="43.901184"/>
     <use style="fill:#d62728;stroke:#ffffff;stroke-linejoin:miter;stroke-width:0.75;" x="713.696876" xlink:href="#m9f5dcf5cba" y="43.901184"/>
     <use style="fill:#d62728;stroke:#ffffff;stroke-linejoin:miter;stroke-width:0.75;" x="720.832141" xlink:href="#m9f5dcf5cba" y="43.110596"/>
     <use style="fill:#d62728;stroke:#ffffff;stroke-linejoin:miter;stroke-width:0.75;" x="727.967406" xlink:href="#m9f5dcf5cba" y="43.110596"/>
     <use style="fill:#d62728;stroke:#ffffff;stroke-linejoin:miter;stroke-width:0.75;" x="735.10267" xlink:href="#m9f5dcf5cba" y="42.320007"/>
    </g>
   </g>
   <g id="line2d_22">
    <path clip-path="url(#p0431aa9dc2)" d="M 85.79358 244.710596 
L 92.928844 200.437654 
L 100.064109 148.258831 
L 107.199374 118.216478 
L 114.334638 78.687066 
L 121.469903 76.315301 
L 128.605168 74.734125 
L 135.740433 70.781184 
L 142.875697 66.037654 
L 150.010962 65.247066 
L 157.146227 64.456478 
L 164.281492 60.503537 
L 171.416756 60.503537 
L 178.552021 58.131772 
L 185.687286 57.341184 
L 192.822551 56.550596 
L 199.957815 56.550596 
L 207.09308 54.969419 
L 214.228345 53.388243 
L 221.36361 51.807066 
L 228.498874 51.807066 
L 235.634139 51.807066 
L 242.769404 51.016478 
L 249.904668 51.016478 
L 257.039933 51.016478 
L 264.175198 50.22589 
L 271.310463 50.22589 
L 278.445727 50.22589 
L 285.580992 50.22589 
L 292.716257 50.22589 
L 299.851522 49.435301 
L 306.986786 49.435301 
L 314.122051 49.435301 
L 321.257316 49.435301 
L 328.392581 49.435301 
L 335.527845 49.435301 
L 342.66311 49.435301 
L 349.798375 49.435301 
L 356.933639 49.435301 
L 364.068904 48.644713 
L 371.204169 48.644713 
L 378.339434 48.644713 
L 385.474698 48.644713 
L 392.609963 48.644713 
L 399.745228 48.644713 
L 406.880493 47.854125 
L 414.015757 47.854125 
L 421.151022 47.854125 
L 428.286287 47.854125 
L 435.421552 47.063537 
L 442.556816 47.063537 
L 449.692081 47.063537 
L 456.827346 47.063537 
L 463.962611 47.063537 
L 471.097875 47.063537 
L 478.23314 47.063537 
L 485.368405 47.063537 
L 492.503669 47.063537 
L 499.638934 47.063537 
L 506.774199 47.063537 
L 513.909464 47.063537 
L 521.044728 47.063537 
L 528.179993 47.063537 
L 535.315258 47.063537 
L 542.450523 47.063537 
L 549.585787 47.063537 
L 556.721052 47.063537 
L 563.856317 47.063537 
L 570.991582 47.063537 
L 578.126846 46.272949 
L 585.262111 46.272949 
L 592.397376 46.272949 
L 599.53264 46.272949 
L 606.667905 46.272949 
L 613.80317 45.48236 
L 620.938435 45.48236 
L 628.073699 45.48236 
L 635.208964 45.48236 
L 642.344229 45.48236 
L 649.479494 45.48236 
L 656.614758 45.48236 
L 663.750023 45.48236 
L 670.885288 45.48236 
L 678.020553 45.48236 
L 685.155817 45.48236 
L 692.291082 45.48236 
L 699.426347 44.691772 
L 706.561612 44.691772 
L 713.696876 44.691772 
L 720.832141 44.691772 
L 727.967406 44.691772 
L 735.10267 44.691772 
" style="fill:none;stroke:#98df8a;stroke-linecap:square;stroke-width:1.5;"/>
    <defs>
     <path d="M -0 3 
L 3 -3 
L -3 -3 
z
" id="m4b8a2b6525" style="stroke:#ffffff;stroke-linejoin:miter;stroke-width:0.75;"/>
    </defs>
    <g clip-path="url(#p0431aa9dc2)">
     <use style="fill:#98df8a;stroke:#ffffff;stroke-linejoin:miter;stroke-width:0.75;" x="85.79358" xlink:href="#m4b8a2b6525" y="244.710596"/>
     <use style="fill:#98df8a;stroke:#ffffff;stroke-linejoin:miter;stroke-width:0.75;" x="92.928844" xlink:href="#m4b8a2b6525" y="200.437654"/>
     <use style="fill:#98df8a;stroke:#ffffff;stroke-linejoin:miter;stroke-width:0.75;" x="100.064109" xlink:href="#m4b8a2b6525" y="148.258831"/>
     <use style="fill:#98df8a;stroke:#ffffff;stroke-linejoin:miter;stroke-width:0.75;" x="107.199374" xlink:href="#m4b8a2b6525" y="118.216478"/>
     <use style="fill:#98df8a;stroke:#ffffff;stroke-linejoin:miter;stroke-width:0.75;" x="114.334638" xlink:href="#m4b8a2b6525" y="78.687066"/>
     <use style="fill:#98df8a;stroke:#ffffff;stroke-linejoin:miter;stroke-width:0.75;" x="121.469903" xlink:href="#m4b8a2b6525" y="76.315301"/>
     <use style="fill:#98df8a;stroke:#ffffff;stroke-linejoin:miter;stroke-width:0.75;" x="128.605168" xlink:href="#m4b8a2b6525" y="74.734125"/>
     <use style="fill:#98df8a;stroke:#ffffff;stroke-linejoin:miter;stroke-width:0.75;" x="135.740433" xlink:href="#m4b8a2b6525" y="70.781184"/>
     <use style="fill:#98df8a;stroke:#ffffff;stroke-linejoin:miter;stroke-width:0.75;" x="142.875697" xlink:href="#m4b8a2b6525" y="66.037654"/>
     <use style="fill:#98df8a;stroke:#ffffff;stroke-linejoin:miter;stroke-width:0.75;" x="150.010962" xlink:href="#m4b8a2b6525" y="65.247066"/>
     <use style="fill:#98df8a;stroke:#ffffff;stroke-linejoin:miter;stroke-width:0.75;" x="157.146227" xlink:href="#m4b8a2b6525" y="64.456478"/>
     <use style="fill:#98df8a;stroke:#ffffff;stroke-linejoin:miter;stroke-width:0.75;" x="164.281492" xlink:href="#m4b8a2b6525" y="60.503537"/>
     <use style="fill:#98df8a;stroke:#ffffff;stroke-linejoin:miter;stroke-width:0.75;" x="171.416756" xlink:href="#m4b8a2b6525" y="60.503537"/>
     <use style="fill:#98df8a;stroke:#ffffff;stroke-linejoin:miter;stroke-width:0.75;" x="178.552021" xlink:href="#m4b8a2b6525" y="58.131772"/>
     <use style="fill:#98df8a;stroke:#ffffff;stroke-linejoin:miter;stroke-width:0.75;" x="185.687286" xlink:href="#m4b8a2b6525" y="57.341184"/>
     <use style="fill:#98df8a;stroke:#ffffff;stroke-linejoin:miter;stroke-width:0.75;" x="192.822551" xlink:href="#m4b8a2b6525" y="56.550596"/>
     <use style="fill:#98df8a;stroke:#ffffff;stroke-linejoin:miter;stroke-width:0.75;" x="199.957815" xlink:href="#m4b8a2b6525" y="56.550596"/>
     <use style="fill:#98df8a;stroke:#ffffff;stroke-linejoin:miter;stroke-width:0.75;" x="207.09308" xlink:href="#m4b8a2b6525" y="54.969419"/>
     <use style="fill:#98df8a;stroke:#ffffff;stroke-linejoin:miter;stroke-width:0.75;" x="214.228345" xlink:href="#m4b8a2b6525" y="53.388243"/>
     <use style="fill:#98df8a;stroke:#ffffff;stroke-linejoin:miter;stroke-width:0.75;" x="221.36361" xlink:href="#m4b8a2b6525" y="51.807066"/>
     <use style="fill:#98df8a;stroke:#ffffff;stroke-linejoin:miter;stroke-width:0.75;" x="228.498874" xlink:href="#m4b8a2b6525" y="51.807066"/>
     <use style="fill:#98df8a;stroke:#ffffff;stroke-linejoin:miter;stroke-width:0.75;" x="235.634139" xlink:href="#m4b8a2b6525" y="51.807066"/>
     <use style="fill:#98df8a;stroke:#ffffff;stroke-linejoin:miter;stroke-width:0.75;" x="242.769404" xlink:href="#m4b8a2b6525" y="51.016478"/>
     <use style="fill:#98df8a;stroke:#ffffff;stroke-linejoin:miter;stroke-width:0.75;" x="249.904668" xlink:href="#m4b8a2b6525" y="51.016478"/>
     <use style="fill:#98df8a;stroke:#ffffff;stroke-linejoin:miter;stroke-width:0.75;" x="257.039933" xlink:href="#m4b8a2b6525" y="51.016478"/>
     <use style="fill:#98df8a;stroke:#ffffff;stroke-linejoin:miter;stroke-width:0.75;" x="264.175198" xlink:href="#m4b8a2b6525" y="50.22589"/>
     <use style="fill:#98df8a;stroke:#ffffff;stroke-linejoin:miter;stroke-width:0.75;" x="271.310463" xlink:href="#m4b8a2b6525" y="50.22589"/>
     <use style="fill:#98df8a;stroke:#ffffff;stroke-linejoin:miter;stroke-width:0.75;" x="278.445727" xlink:href="#m4b8a2b6525" y="50.22589"/>
     <use style="fill:#98df8a;stroke:#ffffff;stroke-linejoin:miter;stroke-width:0.75;" x="285.580992" xlink:href="#m4b8a2b6525" y="50.22589"/>
     <use style="fill:#98df8a;stroke:#ffffff;stroke-linejoin:miter;stroke-width:0.75;" x="292.716257" xlink:href="#m4b8a2b6525" y="50.22589"/>
     <use style="fill:#98df8a;stroke:#ffffff;stroke-linejoin:miter;stroke-width:0.75;" x="299.851522" xlink:href="#m4b8a2b6525" y="49.435301"/>
     <use style="fill:#98df8a;stroke:#ffffff;stroke-linejoin:miter;stroke-width:0.75;" x="306.986786" xlink:href="#m4b8a2b6525" y="49.435301"/>
     <use style="fill:#98df8a;stroke:#ffffff;stroke-linejoin:miter;stroke-width:0.75;" x="314.122051" xlink:href="#m4b8a2b6525" y="49.435301"/>
     <use style="fill:#98df8a;stroke:#ffffff;stroke-linejoin:miter;stroke-width:0.75;" x="321.257316" xlink:href="#m4b8a2b6525" y="49.435301"/>
     <use style="fill:#98df8a;stroke:#ffffff;stroke-linejoin:miter;stroke-width:0.75;" x="328.392581" xlink:href="#m4b8a2b6525" y="49.435301"/>
     <use style="fill:#98df8a;stroke:#ffffff;stroke-linejoin:miter;stroke-width:0.75;" x="335.527845" xlink:href="#m4b8a2b6525" y="49.435301"/>
     <use style="fill:#98df8a;stroke:#ffffff;stroke-linejoin:miter;stroke-width:0.75;" x="342.66311" xlink:href="#m4b8a2b6525" y="49.435301"/>
     <use style="fill:#98df8a;stroke:#ffffff;stroke-linejoin:miter;stroke-width:0.75;" x="349.798375" xlink:href="#m4b8a2b6525" y="49.435301"/>
     <use style="fill:#98df8a;stroke:#ffffff;stroke-linejoin:miter;stroke-width:0.75;" x="356.933639" xlink:href="#m4b8a2b6525" y="49.435301"/>
     <use style="fill:#98df8a;stroke:#ffffff;stroke-linejoin:miter;stroke-width:0.75;" x="364.068904" xlink:href="#m4b8a2b6525" y="48.644713"/>
     <use style="fill:#98df8a;stroke:#ffffff;stroke-linejoin:miter;stroke-width:0.75;" x="371.204169" xlink:href="#m4b8a2b6525" y="48.644713"/>
     <use style="fill:#98df8a;stroke:#ffffff;stroke-linejoin:miter;stroke-width:0.75;" x="378.339434" xlink:href="#m4b8a2b6525" y="48.644713"/>
     <use style="fill:#98df8a;stroke:#ffffff;stroke-linejoin:miter;stroke-width:0.75;" x="385.474698" xlink:href="#m4b8a2b6525" y="48.644713"/>
     <use style="fill:#98df8a;stroke:#ffffff;stroke-linejoin:miter;stroke-width:0.75;" x="392.609963" xlink:href="#m4b8a2b6525" y="48.644713"/>
     <use style="fill:#98df8a;stroke:#ffffff;stroke-linejoin:miter;stroke-width:0.75;" x="399.745228" xlink:href="#m4b8a2b6525" y="48.644713"/>
     <use style="fill:#98df8a;stroke:#ffffff;stroke-linejoin:miter;stroke-width:0.75;" x="406.880493" xlink:href="#m4b8a2b6525" y="47.854125"/>
     <use style="fill:#98df8a;stroke:#ffffff;stroke-linejoin:miter;stroke-width:0.75;" x="414.015757" xlink:href="#m4b8a2b6525" y="47.854125"/>
     <use style="fill:#98df8a;stroke:#ffffff;stroke-linejoin:miter;stroke-width:0.75;" x="421.151022" xlink:href="#m4b8a2b6525" y="47.854125"/>
     <use style="fill:#98df8a;stroke:#ffffff;stroke-linejoin:miter;stroke-width:0.75;" x="428.286287" xlink:href="#m4b8a2b6525" y="47.854125"/>
     <use style="fill:#98df8a;stroke:#ffffff;stroke-linejoin:miter;stroke-width:0.75;" x="435.421552" xlink:href="#m4b8a2b6525" y="47.063537"/>
     <use style="fill:#98df8a;stroke:#ffffff;stroke-linejoin:miter;stroke-width:0.75;" x="442.556816" xlink:href="#m4b8a2b6525" y="47.063537"/>
     <use style="fill:#98df8a;stroke:#ffffff;stroke-linejoin:miter;stroke-width:0.75;" x="449.692081" xlink:href="#m4b8a2b6525" y="47.063537"/>
     <use style="fill:#98df8a;stroke:#ffffff;stroke-linejoin:miter;stroke-width:0.75;" x="456.827346" xlink:href="#m4b8a2b6525" y="47.063537"/>
     <use style="fill:#98df8a;stroke:#ffffff;stroke-linejoin:miter;stroke-width:0.75;" x="463.962611" xlink:href="#m4b8a2b6525" y="47.063537"/>
     <use style="fill:#98df8a;stroke:#ffffff;stroke-linejoin:miter;stroke-width:0.75;" x="471.097875" xlink:href="#m4b8a2b6525" y="47.063537"/>
     <use style="fill:#98df8a;stroke:#ffffff;stroke-linejoin:miter;stroke-width:0.75;" x="478.23314" xlink:href="#m4b8a2b6525" y="47.063537"/>
     <use style="fill:#98df8a;stroke:#ffffff;stroke-linejoin:miter;stroke-width:0.75;" x="485.368405" xlink:href="#m4b8a2b6525" y="47.063537"/>
     <use style="fill:#98df8a;stroke:#ffffff;stroke-linejoin:miter;stroke-width:0.75;" x="492.503669" xlink:href="#m4b8a2b6525" y="47.063537"/>
     <use style="fill:#98df8a;stroke:#ffffff;stroke-linejoin:miter;stroke-width:0.75;" x="499.638934" xlink:href="#m4b8a2b6525" y="47.063537"/>
     <use style="fill:#98df8a;stroke:#ffffff;stroke-linejoin:miter;stroke-width:0.75;" x="506.774199" xlink:href="#m4b8a2b6525" y="47.063537"/>
     <use style="fill:#98df8a;stroke:#ffffff;stroke-linejoin:miter;stroke-width:0.75;" x="513.909464" xlink:href="#m4b8a2b6525" y="47.063537"/>
     <use style="fill:#98df8a;stroke:#ffffff;stroke-linejoin:miter;stroke-width:0.75;" x="521.044728" xlink:href="#m4b8a2b6525" y="47.063537"/>
     <use style="fill:#98df8a;stroke:#ffffff;stroke-linejoin:miter;stroke-width:0.75;" x="528.179993" xlink:href="#m4b8a2b6525" y="47.063537"/>
     <use style="fill:#98df8a;stroke:#ffffff;stroke-linejoin:miter;stroke-width:0.75;" x="535.315258" xlink:href="#m4b8a2b6525" y="47.063537"/>
     <use style="fill:#98df8a;stroke:#ffffff;stroke-linejoin:miter;stroke-width:0.75;" x="542.450523" xlink:href="#m4b8a2b6525" y="47.063537"/>
     <use style="fill:#98df8a;stroke:#ffffff;stroke-linejoin:miter;stroke-width:0.75;" x="549.585787" xlink:href="#m4b8a2b6525" y="47.063537"/>
     <use style="fill:#98df8a;stroke:#ffffff;stroke-linejoin:miter;stroke-width:0.75;" x="556.721052" xlink:href="#m4b8a2b6525" y="47.063537"/>
     <use style="fill:#98df8a;stroke:#ffffff;stroke-linejoin:miter;stroke-width:0.75;" x="563.856317" xlink:href="#m4b8a2b6525" y="47.063537"/>
     <use style="fill:#98df8a;stroke:#ffffff;stroke-linejoin:miter;stroke-width:0.75;" x="570.991582" xlink:href="#m4b8a2b6525" y="47.063537"/>
     <use style="fill:#98df8a;stroke:#ffffff;stroke-linejoin:miter;stroke-width:0.75;" x="578.126846" xlink:href="#m4b8a2b6525" y="46.272949"/>
     <use style="fill:#98df8a;stroke:#ffffff;stroke-linejoin:miter;stroke-width:0.75;" x="585.262111" xlink:href="#m4b8a2b6525" y="46.272949"/>
     <use style="fill:#98df8a;stroke:#ffffff;stroke-linejoin:miter;stroke-width:0.75;" x="592.397376" xlink:href="#m4b8a2b6525" y="46.272949"/>
     <use style="fill:#98df8a;stroke:#ffffff;stroke-linejoin:miter;stroke-width:0.75;" x="599.53264" xlink:href="#m4b8a2b6525" y="46.272949"/>
     <use style="fill:#98df8a;stroke:#ffffff;stroke-linejoin:miter;stroke-width:0.75;" x="606.667905" xlink:href="#m4b8a2b6525" y="46.272949"/>
     <use style="fill:#98df8a;stroke:#ffffff;stroke-linejoin:miter;stroke-width:0.75;" x="613.80317" xlink:href="#m4b8a2b6525" y="45.48236"/>
     <use style="fill:#98df8a;stroke:#ffffff;stroke-linejoin:miter;stroke-width:0.75;" x="620.938435" xlink:href="#m4b8a2b6525" y="45.48236"/>
     <use style="fill:#98df8a;stroke:#ffffff;stroke-linejoin:miter;stroke-width:0.75;" x="628.073699" xlink:href="#m4b8a2b6525" y="45.48236"/>
     <use style="fill:#98df8a;stroke:#ffffff;stroke-linejoin:miter;stroke-width:0.75;" x="635.208964" xlink:href="#m4b8a2b6525" y="45.48236"/>
     <use style="fill:#98df8a;stroke:#ffffff;stroke-linejoin:miter;stroke-width:0.75;" x="642.344229" xlink:href="#m4b8a2b6525" y="45.48236"/>
     <use style="fill:#98df8a;stroke:#ffffff;stroke-linejoin:miter;stroke-width:0.75;" x="649.479494" xlink:href="#m4b8a2b6525" y="45.48236"/>
     <use style="fill:#98df8a;stroke:#ffffff;stroke-linejoin:miter;stroke-width:0.75;" x="656.614758" xlink:href="#m4b8a2b6525" y="45.48236"/>
     <use style="fill:#98df8a;stroke:#ffffff;stroke-linejoin:miter;stroke-width:0.75;" x="663.750023" xlink:href="#m4b8a2b6525" y="45.48236"/>
     <use style="fill:#98df8a;stroke:#ffffff;stroke-linejoin:miter;stroke-width:0.75;" x="670.885288" xlink:href="#m4b8a2b6525" y="45.48236"/>
     <use style="fill:#98df8a;stroke:#ffffff;stroke-linejoin:miter;stroke-width:0.75;" x="678.020553" xlink:href="#m4b8a2b6525" y="45.48236"/>
     <use style="fill:#98df8a;stroke:#ffffff;stroke-linejoin:miter;stroke-width:0.75;" x="685.155817" xlink:href="#m4b8a2b6525" y="45.48236"/>
     <use style="fill:#98df8a;stroke:#ffffff;stroke-linejoin:miter;stroke-width:0.75;" x="692.291082" xlink:href="#m4b8a2b6525" y="45.48236"/>
     <use style="fill:#98df8a;stroke:#ffffff;stroke-linejoin:miter;stroke-width:0.75;" x="699.426347" xlink:href="#m4b8a2b6525" y="44.691772"/>
     <use style="fill:#98df8a;stroke:#ffffff;stroke-linejoin:miter;stroke-width:0.75;" x="706.561612" xlink:href="#m4b8a2b6525" y="44.691772"/>
     <use style="fill:#98df8a;stroke:#ffffff;stroke-linejoin:miter;stroke-width:0.75;" x="713.696876" xlink:href="#m4b8a2b6525" y="44.691772"/>
     <use style="fill:#98df8a;stroke:#ffffff;stroke-linejoin:miter;stroke-width:0.75;" x="720.832141" xlink:href="#m4b8a2b6525" y="44.691772"/>
     <use style="fill:#98df8a;stroke:#ffffff;stroke-linejoin:miter;stroke-width:0.75;" x="727.967406" xlink:href="#m4b8a2b6525" y="44.691772"/>
     <use style="fill:#98df8a;stroke:#ffffff;stroke-linejoin:miter;stroke-width:0.75;" x="735.10267" xlink:href="#m4b8a2b6525" y="44.691772"/>
    </g>
   </g>
   <g id="line2d_23">
    <path clip-path="url(#p0431aa9dc2)" d="M 85.79358 202.018831 
L 92.928844 146.677654 
L 100.064109 144.30589 
L 107.199374 111.891772 
L 114.334638 73.152949 
L 121.469903 58.92236 
L 128.605168 58.92236 
L 135.740433 58.131772 
L 142.875697 56.550596 
L 150.010962 54.969419 
L 157.146227 54.969419 
L 164.281492 54.969419 
L 171.416756 54.178831 
L 178.552021 54.178831 
L 185.687286 53.388243 
L 192.822551 53.388243 
L 199.957815 53.388243 
L 207.09308 52.597654 
L 214.228345 52.597654 
L 221.36361 52.597654 
L 228.498874 51.807066 
L 235.634139 51.807066 
L 242.769404 51.016478 
L 249.904668 51.016478 
L 257.039933 51.016478 
L 264.175198 51.016478 
L 271.310463 51.016478 
L 278.445727 51.016478 
L 285.580992 51.016478 
L 292.716257 50.22589 
L 299.851522 50.22589 
L 306.986786 49.435301 
L 314.122051 49.435301 
L 321.257316 49.435301 
L 328.392581 48.644713 
L 335.527845 48.644713 
L 342.66311 48.644713 
L 349.798375 48.644713 
L 356.933639 48.644713 
L 364.068904 48.644713 
L 371.204169 48.644713 
L 378.339434 48.644713 
L 385.474698 48.644713 
L 392.609963 48.644713 
L 399.745228 48.644713 
L 406.880493 48.644713 
L 414.015757 48.644713 
L 421.151022 48.644713 
L 428.286287 48.644713 
L 435.421552 48.644713 
L 442.556816 48.644713 
L 449.692081 48.644713 
L 456.827346 48.644713 
L 463.962611 48.644713 
L 471.097875 48.644713 
L 478.23314 48.644713 
L 485.368405 48.644713 
L 492.503669 48.644713 
L 499.638934 48.644713 
L 506.774199 47.854125 
L 513.909464 47.063537 
L 521.044728 47.063537 
L 528.179993 47.063537 
L 535.315258 47.063537 
L 542.450523 47.063537 
L 549.585787 47.063537 
L 556.721052 47.063537 
L 563.856317 47.063537 
L 570.991582 47.063537 
L 578.126846 47.063537 
L 585.262111 47.063537 
L 592.397376 47.063537 
L 599.53264 47.063537 
L 606.667905 47.063537 
L 613.80317 47.063537 
L 620.938435 47.063537 
L 628.073699 47.063537 
L 635.208964 47.063537 
L 642.344229 47.063537 
L 649.479494 47.063537 
L 656.614758 47.063537 
L 663.750023 46.272949 
L 670.885288 46.272949 
L 678.020553 46.272949 
L 685.155817 45.48236 
L 692.291082 45.48236 
L 699.426347 45.48236 
L 706.561612 45.48236 
L 713.696876 45.48236 
L 720.832141 45.48236 
L 727.967406 45.48236 
L 735.10267 45.48236 
" style="fill:none;stroke:#1f77b4;stroke-linecap:square;stroke-width:1.5;"/>
    <defs>
     <path d="M 0 3 
C 0.795609 3 1.55874 2.683901 2.12132 2.12132 
C 2.683901 1.55874 3 0.795609 3 0 
C 3 -0.795609 2.683901 -1.55874 2.12132 -2.12132 
C 1.55874 -2.683901 0.795609 -3 0 -3 
C -0.795609 -3 -1.55874 -2.683901 -2.12132 -2.12132 
C -2.683901 -1.55874 -3 -0.795609 -3 0 
C -3 0.795609 -2.683901 1.55874 -2.12132 2.12132 
C -1.55874 2.683901 -0.795609 3 0 3 
z
" id="m873ae09cbc" style="stroke:#ffffff;stroke-width:0.75;"/>
    </defs>
    <g clip-path="url(#p0431aa9dc2)">
     <use style="fill:#1f77b4;stroke:#ffffff;stroke-width:0.75;" x="85.79358" xlink:href="#m873ae09cbc" y="202.018831"/>
     <use style="fill:#1f77b4;stroke:#ffffff;stroke-width:0.75;" x="92.928844" xlink:href="#m873ae09cbc" y="146.677654"/>
     <use style="fill:#1f77b4;stroke:#ffffff;stroke-width:0.75;" x="100.064109" xlink:href="#m873ae09cbc" y="144.30589"/>
     <use style="fill:#1f77b4;stroke:#ffffff;stroke-width:0.75;" x="107.199374" xlink:href="#m873ae09cbc" y="111.891772"/>
     <use style="fill:#1f77b4;stroke:#ffffff;stroke-width:0.75;" x="114.334638" xlink:href="#m873ae09cbc" y="73.152949"/>
     <use style="fill:#1f77b4;stroke:#ffffff;stroke-width:0.75;" x="121.469903" xlink:href="#m873ae09cbc" y="58.92236"/>
     <use style="fill:#1f77b4;stroke:#ffffff;stroke-width:0.75;" x="128.605168" xlink:href="#m873ae09cbc" y="58.92236"/>
     <use style="fill:#1f77b4;stroke:#ffffff;stroke-width:0.75;" x="135.740433" xlink:href="#m873ae09cbc" y="58.131772"/>
     <use style="fill:#1f77b4;stroke:#ffffff;stroke-width:0.75;" x="142.875697" xlink:href="#m873ae09cbc" y="56.550596"/>
     <use style="fill:#1f77b4;stroke:#ffffff;stroke-width:0.75;" x="150.010962" xlink:href="#m873ae09cbc" y="54.969419"/>
     <use style="fill:#1f77b4;stroke:#ffffff;stroke-width:0.75;" x="157.146227" xlink:href="#m873ae09cbc" y="54.969419"/>
     <use style="fill:#1f77b4;stroke:#ffffff;stroke-width:0.75;" x="164.281492" xlink:href="#m873ae09cbc" y="54.969419"/>
     <use style="fill:#1f77b4;stroke:#ffffff;stroke-width:0.75;" x="171.416756" xlink:href="#m873ae09cbc" y="54.178831"/>
     <use style="fill:#1f77b4;stroke:#ffffff;stroke-width:0.75;" x="178.552021" xlink:href="#m873ae09cbc" y="54.178831"/>
     <use style="fill:#1f77b4;stroke:#ffffff;stroke-width:0.75;" x="185.687286" xlink:href="#m873ae09cbc" y="53.388243"/>
     <use style="fill:#1f77b4;stroke:#ffffff;stroke-width:0.75;" x="192.822551" xlink:href="#m873ae09cbc" y="53.388243"/>
     <use style="fill:#1f77b4;stroke:#ffffff;stroke-width:0.75;" x="199.957815" xlink:href="#m873ae09cbc" y="53.388243"/>
     <use style="fill:#1f77b4;stroke:#ffffff;stroke-width:0.75;" x="207.09308" xlink:href="#m873ae09cbc" y="52.597654"/>
     <use style="fill:#1f77b4;stroke:#ffffff;stroke-width:0.75;" x="214.228345" xlink:href="#m873ae09cbc" y="52.597654"/>
     <use style="fill:#1f77b4;stroke:#ffffff;stroke-width:0.75;" x="221.36361" xlink:href="#m873ae09cbc" y="52.597654"/>
     <use style="fill:#1f77b4;stroke:#ffffff;stroke-width:0.75;" x="228.498874" xlink:href="#m873ae09cbc" y="51.807066"/>
     <use style="fill:#1f77b4;stroke:#ffffff;stroke-width:0.75;" x="235.634139" xlink:href="#m873ae09cbc" y="51.807066"/>
     <use style="fill:#1f77b4;stroke:#ffffff;stroke-width:0.75;" x="242.769404" xlink:href="#m873ae09cbc" y="51.016478"/>
     <use style="fill:#1f77b4;stroke:#ffffff;stroke-width:0.75;" x="249.904668" xlink:href="#m873ae09cbc" y="51.016478"/>
     <use style="fill:#1f77b4;stroke:#ffffff;stroke-width:0.75;" x="257.039933" xlink:href="#m873ae09cbc" y="51.016478"/>
     <use style="fill:#1f77b4;stroke:#ffffff;stroke-width:0.75;" x="264.175198" xlink:href="#m873ae09cbc" y="51.016478"/>
     <use style="fill:#1f77b4;stroke:#ffffff;stroke-width:0.75;" x="271.310463" xlink:href="#m873ae09cbc" y="51.016478"/>
     <use style="fill:#1f77b4;stroke:#ffffff;stroke-width:0.75;" x="278.445727" xlink:href="#m873ae09cbc" y="51.016478"/>
     <use style="fill:#1f77b4;stroke:#ffffff;stroke-width:0.75;" x="285.580992" xlink:href="#m873ae09cbc" y="51.016478"/>
     <use style="fill:#1f77b4;stroke:#ffffff;stroke-width:0.75;" x="292.716257" xlink:href="#m873ae09cbc" y="50.22589"/>
     <use style="fill:#1f77b4;stroke:#ffffff;stroke-width:0.75;" x="299.851522" xlink:href="#m873ae09cbc" y="50.22589"/>
     <use style="fill:#1f77b4;stroke:#ffffff;stroke-width:0.75;" x="306.986786" xlink:href="#m873ae09cbc" y="49.435301"/>
     <use style="fill:#1f77b4;stroke:#ffffff;stroke-width:0.75;" x="314.122051" xlink:href="#m873ae09cbc" y="49.435301"/>
     <use style="fill:#1f77b4;stroke:#ffffff;stroke-width:0.75;" x="321.257316" xlink:href="#m873ae09cbc" y="49.435301"/>
     <use style="fill:#1f77b4;stroke:#ffffff;stroke-width:0.75;" x="328.392581" xlink:href="#m873ae09cbc" y="48.644713"/>
     <use style="fill:#1f77b4;stroke:#ffffff;stroke-width:0.75;" x="335.527845" xlink:href="#m873ae09cbc" y="48.644713"/>
     <use style="fill:#1f77b4;stroke:#ffffff;stroke-width:0.75;" x="342.66311" xlink:href="#m873ae09cbc" y="48.644713"/>
     <use style="fill:#1f77b4;stroke:#ffffff;stroke-width:0.75;" x="349.798375" xlink:href="#m873ae09cbc" y="48.644713"/>
     <use style="fill:#1f77b4;stroke:#ffffff;stroke-width:0.75;" x="356.933639" xlink:href="#m873ae09cbc" y="48.644713"/>
     <use style="fill:#1f77b4;stroke:#ffffff;stroke-width:0.75;" x="364.068904" xlink:href="#m873ae09cbc" y="48.644713"/>
     <use style="fill:#1f77b4;stroke:#ffffff;stroke-width:0.75;" x="371.204169" xlink:href="#m873ae09cbc" y="48.644713"/>
     <use style="fill:#1f77b4;stroke:#ffffff;stroke-width:0.75;" x="378.339434" xlink:href="#m873ae09cbc" y="48.644713"/>
     <use style="fill:#1f77b4;stroke:#ffffff;stroke-width:0.75;" x="385.474698" xlink:href="#m873ae09cbc" y="48.644713"/>
     <use style="fill:#1f77b4;stroke:#ffffff;stroke-width:0.75;" x="392.609963" xlink:href="#m873ae09cbc" y="48.644713"/>
     <use style="fill:#1f77b4;stroke:#ffffff;stroke-width:0.75;" x="399.745228" xlink:href="#m873ae09cbc" y="48.644713"/>
     <use style="fill:#1f77b4;stroke:#ffffff;stroke-width:0.75;" x="406.880493" xlink:href="#m873ae09cbc" y="48.644713"/>
     <use style="fill:#1f77b4;stroke:#ffffff;stroke-width:0.75;" x="414.015757" xlink:href="#m873ae09cbc" y="48.644713"/>
     <use style="fill:#1f77b4;stroke:#ffffff;stroke-width:0.75;" x="421.151022" xlink:href="#m873ae09cbc" y="48.644713"/>
     <use style="fill:#1f77b4;stroke:#ffffff;stroke-width:0.75;" x="428.286287" xlink:href="#m873ae09cbc" y="48.644713"/>
     <use style="fill:#1f77b4;stroke:#ffffff;stroke-width:0.75;" x="435.421552" xlink:href="#m873ae09cbc" y="48.644713"/>
     <use style="fill:#1f77b4;stroke:#ffffff;stroke-width:0.75;" x="442.556816" xlink:href="#m873ae09cbc" y="48.644713"/>
     <use style="fill:#1f77b4;stroke:#ffffff;stroke-width:0.75;" x="449.692081" xlink:href="#m873ae09cbc" y="48.644713"/>
     <use style="fill:#1f77b4;stroke:#ffffff;stroke-width:0.75;" x="456.827346" xlink:href="#m873ae09cbc" y="48.644713"/>
     <use style="fill:#1f77b4;stroke:#ffffff;stroke-width:0.75;" x="463.962611" xlink:href="#m873ae09cbc" y="48.644713"/>
     <use style="fill:#1f77b4;stroke:#ffffff;stroke-width:0.75;" x="471.097875" xlink:href="#m873ae09cbc" y="48.644713"/>
     <use style="fill:#1f77b4;stroke:#ffffff;stroke-width:0.75;" x="478.23314" xlink:href="#m873ae09cbc" y="48.644713"/>
     <use style="fill:#1f77b4;stroke:#ffffff;stroke-width:0.75;" x="485.368405" xlink:href="#m873ae09cbc" y="48.644713"/>
     <use style="fill:#1f77b4;stroke:#ffffff;stroke-width:0.75;" x="492.503669" xlink:href="#m873ae09cbc" y="48.644713"/>
     <use style="fill:#1f77b4;stroke:#ffffff;stroke-width:0.75;" x="499.638934" xlink:href="#m873ae09cbc" y="48.644713"/>
     <use style="fill:#1f77b4;stroke:#ffffff;stroke-width:0.75;" x="506.774199" xlink:href="#m873ae09cbc" y="47.854125"/>
     <use style="fill:#1f77b4;stroke:#ffffff;stroke-width:0.75;" x="513.909464" xlink:href="#m873ae09cbc" y="47.063537"/>
     <use style="fill:#1f77b4;stroke:#ffffff;stroke-width:0.75;" x="521.044728" xlink:href="#m873ae09cbc" y="47.063537"/>
     <use style="fill:#1f77b4;stroke:#ffffff;stroke-width:0.75;" x="528.179993" xlink:href="#m873ae09cbc" y="47.063537"/>
     <use style="fill:#1f77b4;stroke:#ffffff;stroke-width:0.75;" x="535.315258" xlink:href="#m873ae09cbc" y="47.063537"/>
     <use style="fill:#1f77b4;stroke:#ffffff;stroke-width:0.75;" x="542.450523" xlink:href="#m873ae09cbc" y="47.063537"/>
     <use style="fill:#1f77b4;stroke:#ffffff;stroke-width:0.75;" x="549.585787" xlink:href="#m873ae09cbc" y="47.063537"/>
     <use style="fill:#1f77b4;stroke:#ffffff;stroke-width:0.75;" x="556.721052" xlink:href="#m873ae09cbc" y="47.063537"/>
     <use style="fill:#1f77b4;stroke:#ffffff;stroke-width:0.75;" x="563.856317" xlink:href="#m873ae09cbc" y="47.063537"/>
     <use style="fill:#1f77b4;stroke:#ffffff;stroke-width:0.75;" x="570.991582" xlink:href="#m873ae09cbc" y="47.063537"/>
     <use style="fill:#1f77b4;stroke:#ffffff;stroke-width:0.75;" x="578.126846" xlink:href="#m873ae09cbc" y="47.063537"/>
     <use style="fill:#1f77b4;stroke:#ffffff;stroke-width:0.75;" x="585.262111" xlink:href="#m873ae09cbc" y="47.063537"/>
     <use style="fill:#1f77b4;stroke:#ffffff;stroke-width:0.75;" x="592.397376" xlink:href="#m873ae09cbc" y="47.063537"/>
     <use style="fill:#1f77b4;stroke:#ffffff;stroke-width:0.75;" x="599.53264" xlink:href="#m873ae09cbc" y="47.063537"/>
     <use style="fill:#1f77b4;stroke:#ffffff;stroke-width:0.75;" x="606.667905" xlink:href="#m873ae09cbc" y="47.063537"/>
     <use style="fill:#1f77b4;stroke:#ffffff;stroke-width:0.75;" x="613.80317" xlink:href="#m873ae09cbc" y="47.063537"/>
     <use style="fill:#1f77b4;stroke:#ffffff;stroke-width:0.75;" x="620.938435" xlink:href="#m873ae09cbc" y="47.063537"/>
     <use style="fill:#1f77b4;stroke:#ffffff;stroke-width:0.75;" x="628.073699" xlink:href="#m873ae09cbc" y="47.063537"/>
     <use style="fill:#1f77b4;stroke:#ffffff;stroke-width:0.75;" x="635.208964" xlink:href="#m873ae09cbc" y="47.063537"/>
     <use style="fill:#1f77b4;stroke:#ffffff;stroke-width:0.75;" x="642.344229" xlink:href="#m873ae09cbc" y="47.063537"/>
     <use style="fill:#1f77b4;stroke:#ffffff;stroke-width:0.75;" x="649.479494" xlink:href="#m873ae09cbc" y="47.063537"/>
     <use style="fill:#1f77b4;stroke:#ffffff;stroke-width:0.75;" x="656.614758" xlink:href="#m873ae09cbc" y="47.063537"/>
     <use style="fill:#1f77b4;stroke:#ffffff;stroke-width:0.75;" x="663.750023" xlink:href="#m873ae09cbc" y="46.272949"/>
     <use style="fill:#1f77b4;stroke:#ffffff;stroke-width:0.75;" x="670.885288" xlink:href="#m873ae09cbc" y="46.272949"/>
     <use style="fill:#1f77b4;stroke:#ffffff;stroke-width:0.75;" x="678.020553" xlink:href="#m873ae09cbc" y="46.272949"/>
     <use style="fill:#1f77b4;stroke:#ffffff;stroke-width:0.75;" x="685.155817" xlink:href="#m873ae09cbc" y="45.48236"/>
     <use style="fill:#1f77b4;stroke:#ffffff;stroke-width:0.75;" x="692.291082" xlink:href="#m873ae09cbc" y="45.48236"/>
     <use style="fill:#1f77b4;stroke:#ffffff;stroke-width:0.75;" x="699.426347" xlink:href="#m873ae09cbc" y="45.48236"/>
     <use style="fill:#1f77b4;stroke:#ffffff;stroke-width:0.75;" x="706.561612" xlink:href="#m873ae09cbc" y="45.48236"/>
     <use style="fill:#1f77b4;stroke:#ffffff;stroke-width:0.75;" x="713.696876" xlink:href="#m873ae09cbc" y="45.48236"/>
     <use style="fill:#1f77b4;stroke:#ffffff;stroke-width:0.75;" x="720.832141" xlink:href="#m873ae09cbc" y="45.48236"/>
     <use style="fill:#1f77b4;stroke:#ffffff;stroke-width:0.75;" x="727.967406" xlink:href="#m873ae09cbc" y="45.48236"/>
     <use style="fill:#1f77b4;stroke:#ffffff;stroke-width:0.75;" x="735.10267" xlink:href="#m873ae09cbc" y="45.48236"/>
    </g>
   </g>
   <g id="line2d_24"/>
   <g id="line2d_25"/>
   <g id="line2d_26"/>
   <g id="line2d_27">
    <path clip-path="url(#p0431aa9dc2)" d="M 735.10267 288.430125 
L 735.10267 22.318125 
" style="fill:none;stroke:#ff0000;stroke-linecap:square;stroke-width:1.5;"/>
   </g>
   <g id="patch_3">
    <path d="M 53.328125 274.752949 
L 53.328125 53.388243 
" style="fill:none;stroke:#000000;stroke-linecap:square;stroke-linejoin:miter;stroke-width:0.8;"/>
   </g>
   <g id="patch_4">
    <path d="M 85.79358 288.430125 
L 687.534239 288.430125 
" style="fill:none;stroke:#000000;stroke-linecap:square;stroke-linejoin:miter;stroke-width:0.8;"/>
   </g>
   <g id="text_23">
    <!-- vorbis-2017-12-11 (23h, 20 trials/fuzzer) -->
    <g transform="translate(288.394063 16.318125)scale(0.12 -0.12)">
     <defs>
      <path d="M 3116 1747 
Q 3116 2381 2855 2742 
Q 2594 3103 2138 3103 
Q 1681 3103 1420 2742 
Q 1159 2381 1159 1747 
Q 1159 1113 1420 752 
Q 1681 391 2138 391 
Q 2594 391 2855 752 
Q 3116 1113 3116 1747 
z
M 1159 2969 
Q 1341 3281 1617 3432 
Q 1894 3584 2278 3584 
Q 2916 3584 3314 3078 
Q 3713 2572 3713 1747 
Q 3713 922 3314 415 
Q 2916 -91 2278 -91 
Q 1894 -91 1617 61 
Q 1341 213 1159 525 
L 1159 0 
L 581 0 
L 581 4863 
L 1159 4863 
L 1159 2969 
z
" id="DejaVuSans-62" transform="scale(0.015625)"/>
      <path d="M 2834 3397 
L 2834 2853 
Q 2591 2978 2328 3040 
Q 2066 3103 1784 3103 
Q 1356 3103 1142 2972 
Q 928 2841 928 2578 
Q 928 2378 1081 2264 
Q 1234 2150 1697 2047 
L 1894 2003 
Q 2506 1872 2764 1633 
Q 3022 1394 3022 966 
Q 3022 478 2636 193 
Q 2250 -91 1575 -91 
Q 1294 -91 989 -36 
Q 684 19 347 128 
L 347 722 
Q 666 556 975 473 
Q 1284 391 1588 391 
Q 1994 391 2212 530 
Q 2431 669 2431 922 
Q 2431 1156 2273 1281 
Q 2116 1406 1581 1522 
L 1381 1569 
Q 847 1681 609 1914 
Q 372 2147 372 2553 
Q 372 3047 722 3315 
Q 1072 3584 1716 3584 
Q 2034 3584 2315 3537 
Q 2597 3491 2834 3397 
z
" id="DejaVuSans-73" transform="scale(0.015625)"/>
      <path d="M 313 2009 
L 1997 2009 
L 1997 1497 
L 313 1497 
L 313 2009 
z
" id="DejaVuSans-2d" transform="scale(0.015625)"/>
      <path d="M 750 794 
L 1409 794 
L 1409 256 
L 897 -744 
L 494 -744 
L 750 256 
L 750 794 
z
" id="DejaVuSans-2c" transform="scale(0.015625)"/>
      <path d="M 603 4863 
L 1178 4863 
L 1178 0 
L 603 0 
L 603 4863 
z
" id="DejaVuSans-6c" transform="scale(0.015625)"/>
      <path d="M 1625 4666 
L 2156 4666 
L 531 -594 
L 0 -594 
L 1625 4666 
z
" id="DejaVuSans-2f" transform="scale(0.015625)"/>
      <path d="M 2375 4863 
L 2375 4384 
L 1825 4384 
Q 1516 4384 1395 4259 
Q 1275 4134 1275 3809 
L 1275 3500 
L 2222 3500 
L 2222 3053 
L 1275 3053 
L 1275 0 
L 697 0 
L 697 3053 
L 147 3053 
L 147 3500 
L 697 3500 
L 697 3744 
Q 697 4328 969 4595 
Q 1241 4863 1831 4863 
L 2375 4863 
z
" id="DejaVuSans-66" transform="scale(0.015625)"/>
      <path d="M 353 3500 
L 3084 3500 
L 3084 2975 
L 922 459 
L 3084 459 
L 3084 0 
L 275 0 
L 275 525 
L 2438 3041 
L 353 3041 
L 353 3500 
z
" id="DejaVuSans-7a" transform="scale(0.015625)"/>
     </defs>
     <use xlink:href="#DejaVuSans-76"/>
     <use x="59.179688" xlink:href="#DejaVuSans-6f"/>
     <use x="120.361328" xlink:href="#DejaVuSans-72"/>
     <use x="161.474609" xlink:href="#DejaVuSans-62"/>
     <use x="224.951172" xlink:href="#DejaVuSans-69"/>
     <use x="252.734375" xlink:href="#DejaVuSans-73"/>
     <use x="304.833984" xlink:href="#DejaVuSans-2d"/>
     <use x="340.917969" xlink:href="#DejaVuSans-32"/>
     <use x="404.541016" xlink:href="#DejaVuSans-30"/>
     <use x="468.164062" xlink:href="#DejaVuSans-31"/>
     <use x="531.787109" xlink:href="#DejaVuSans-37"/>
     <use x="595.410156" xlink:href="#DejaVuSans-2d"/>
     <use x="631.494141" xlink:href="#DejaVuSans-31"/>
     <use x="695.117188" xlink:href="#DejaVuSans-32"/>
     <use x="758.740234" xlink:href="#DejaVuSans-2d"/>
     <use x="794.824219" xlink:href="#DejaVuSans-31"/>
     <use x="858.447266" xlink:href="#DejaVuSans-31"/>
     <use x="922.070312" xlink:href="#DejaVuSans-20"/>
     <use x="953.857422" xlink:href="#DejaVuSans-28"/>
     <use x="992.871094" xlink:href="#DejaVuSans-32"/>
     <use x="1056.494141" xlink:href="#DejaVuSans-33"/>
     <use x="1120.117188" xlink:href="#DejaVuSans-68"/>
     <use x="1183.496094" xlink:href="#DejaVuSans-2c"/>
     <use x="1215.283203" xlink:href="#DejaVuSans-20"/>
     <use x="1247.070312" xlink:href="#DejaVuSans-32"/>
     <use x="1310.693359" xlink:href="#DejaVuSans-30"/>
     <use x="1374.316406" xlink:href="#DejaVuSans-20"/>
     <use x="1406.103516" xlink:href="#DejaVuSans-74"/>
     <use x="1445.3125" xlink:href="#DejaVuSans-72"/>
     <use x="1486.425781" xlink:href="#DejaVuSans-69"/>
     <use x="1514.208984" xlink:href="#DejaVuSans-61"/>
     <use x="1575.488281" xlink:href="#DejaVuSans-6c"/>
     <use x="1603.271484" xlink:href="#DejaVuSans-73"/>
     <use x="1655.371094" xlink:href="#DejaVuSans-2f"/>
     <use x="1689.0625" xlink:href="#DejaVuSans-66"/>
     <use x="1724.267578" xlink:href="#DejaVuSans-75"/>
     <use x="1787.646484" xlink:href="#DejaVuSans-7a"/>
     <use x="1840.136719" xlink:href="#DejaVuSans-7a"/>
     <use x="1892.626953" xlink:href="#DejaVuSans-65"/>
     <use x="1954.150391" xlink:href="#DejaVuSans-72"/>
     <use x="1995.263672" xlink:href="#DejaVuSans-29"/>
    </g>
   </g>
   <g id="legend_1">
    <g id="line2d_28">
     <path d="M 771.568125 30.416562 
L 791.568125 30.416562 
" style="fill:none;stroke:#d62728;stroke-linecap:square;stroke-width:1.5;"/>
    </g>
    <g id="line2d_29">
     <defs>
      <path d="M 0 -3 
L -3 3 
L 3 3 
z
" id="m3100022222" style="stroke:#d62728;stroke-linejoin:miter;"/>
     </defs>
     <g>
      <use style="fill:#d62728;stroke:#d62728;stroke-linejoin:miter;" x="781.568125" xlink:href="#m3100022222" y="30.416562"/>
     </g>
    </g>
    <g id="text_24">
     <!-- mopt -->
     <g transform="translate(799.568125 33.916562)scale(0.1 -0.1)">
      <defs>
       <path d="M 1159 525 
L 1159 -1331 
L 581 -1331 
L 581 3500 
L 1159 3500 
L 1159 2969 
Q 1341 3281 1617 3432 
Q 1894 3584 2278 3584 
Q 2916 3584 3314 3078 
Q 3713 2572 3713 1747 
Q 3713 922 3314 415 
Q 2916 -91 2278 -91 
Q 1894 -91 1617 61 
Q 1341 213 1159 525 
z
M 3116 1747 
Q 3116 2381 2855 2742 
Q 2594 3103 2138 3103 
Q 1681 3103 1420 2742 
Q 1159 2381 1159 1747 
Q 1159 1113 1420 752 
Q 1681 391 2138 391 
Q 2594 391 2855 752 
Q 3116 1113 3116 1747 
z
" id="DejaVuSans-70" transform="scale(0.015625)"/>
      </defs>
      <use xlink:href="#DejaVuSans-6d"/>
      <use x="97.412109" xlink:href="#DejaVuSans-6f"/>
      <use x="158.59375" xlink:href="#DejaVuSans-70"/>
      <use x="222.070312" xlink:href="#DejaVuSans-74"/>
     </g>
    </g>
    <g id="line2d_30">
     <path d="M 771.568125 45.094688 
L 791.568125 45.094688 
" style="fill:none;stroke:#98df8a;stroke-linecap:square;stroke-width:1.5;"/>
    </g>
    <g id="line2d_31">
     <defs>
      <path d="M -0 3 
L 3 -3 
L -3 -3 
z
" id="me681fdb6a1" style="stroke:#98df8a;stroke-linejoin:miter;"/>
     </defs>
     <g>
      <use style="fill:#98df8a;stroke:#98df8a;stroke-linejoin:miter;" x="781.568125" xlink:href="#me681fdb6a1" y="45.094688"/>
     </g>
    </g>
    <g id="text_25">
     <!-- fafuzz -->
     <g transform="translate(799.568125 48.594688)scale(0.1 -0.1)">
      <use xlink:href="#DejaVuSans-66"/>
      <use x="35.205078" xlink:href="#DejaVuSans-61"/>
      <use x="96.484375" xlink:href="#DejaVuSans-66"/>
      <use x="131.689453" xlink:href="#DejaVuSans-75"/>
      <use x="195.068359" xlink:href="#DejaVuSans-7a"/>
      <use x="247.558594" xlink:href="#DejaVuSans-7a"/>
     </g>
    </g>
    <g id="line2d_32">
     <path d="M 771.568125 59.772812 
L 791.568125 59.772812 
" style="fill:none;stroke:#1f77b4;stroke-linecap:square;stroke-width:1.5;"/>
    </g>
    <g id="line2d_33">
     <defs>
      <path d="M 0 3 
C 0.795609 3 1.55874 2.683901 2.12132 2.12132 
C 2.683901 1.55874 3 0.795609 3 0 
C 3 -0.795609 2.683901 -1.55874 2.12132 -2.12132 
C 1.55874 -2.683901 0.795609 -3 0 -3 
C -0.795609 -3 -1.55874 -2.683901 -2.12132 -2.12132 
C -2.683901 -1.55874 -3 -0.795609 -3 0 
C -3 0.795609 -2.683901 1.55874 -2.12132 2.12132 
C -1.55874 2.683901 -0.795609 3 0 3 
z
" id="m23fb6eba6a" style="stroke:#1f77b4;"/>
     </defs>
     <g>
      <use style="fill:#1f77b4;stroke:#1f77b4;" x="781.568125" xlink:href="#m23fb6eba6a" y="59.772812"/>
     </g>
    </g>
    <g id="text_26">
     <!-- afl_2_52_b -->
     <g transform="translate(799.568125 63.272812)scale(0.1 -0.1)">
      <defs>
       <path d="M 3263 -1063 
L 3263 -1509 
L -63 -1509 
L -63 -1063 
L 3263 -1063 
z
" id="DejaVuSans-5f" transform="scale(0.015625)"/>
      </defs>
      <use xlink:href="#DejaVuSans-61"/>
      <use x="61.279297" xlink:href="#DejaVuSans-66"/>
      <use x="96.484375" xlink:href="#DejaVuSans-6c"/>
      <use x="124.267578" xlink:href="#DejaVuSans-5f"/>
      <use x="174.267578" xlink:href="#DejaVuSans-32"/>
      <use x="237.890625" xlink:href="#DejaVuSans-5f"/>
      <use x="287.890625" xlink:href="#DejaVuSans-35"/>
      <use x="351.513672" xlink:href="#DejaVuSans-32"/>
      <use x="415.136719" xlink:href="#DejaVuSans-5f"/>
      <use x="465.136719" xlink:href="#DejaVuSans-62"/>
     </g>
    </g>
   </g>
  </g>
 </g>
 <defs>
  <clipPath id="p0431aa9dc2">
   <rect height="266.112" width="714.24" x="53.328125" y="22.318125"/>
  </clipPath>
 </defs>
</svg>
