<?xml version="1.0" encoding="utf-8" standalone="no"?>
<!DOCTYPE svg PUBLIC "-//W3C//DTD SVG 1.1//EN"
  "http://www.w3.org/Graphics/SVG/1.1/DTD/svg11.dtd">
<svg height="325.986375pt" version="1.1" viewBox="0 0 863.630625 325.986375" width="863.630625pt" xmlns="http://www.w3.org/2000/svg" xmlns:xlink="http://www.w3.org/1999/xlink">
 <metadata>
  <rdf:RDF xmlns:cc="http://creativecommons.org/ns#" xmlns:dc="http://purl.org/dc/elements/1.1/" xmlns:rdf="http://www.w3.org/1999/02/22-rdf-syntax-ns#">
   <cc:Work>
    <dc:type rdf:resource="http://purl.org/dc/dcmitype/StillImage"/>
    <dc:date>2021-12-16T18:52:20.505060</dc:date>
    <dc:format>image/svg+xml</dc:format>
    <dc:creator>
     <cc:Agent>
      <dc:title>Matplotlib v3.4.1, https://matplotlib.org/</dc:title>
     </cc:Agent>
    </dc:creator>
   </cc:Work>
  </rdf:RDF>
 </metadata>
 <defs>
  <style type="text/css">*{stroke-linecap:butt;stroke-linejoin:round;}</style>
 </defs>
 <g id="figure_1">
  <g id="patch_1">
   <path d="M 0 325.986375 
L 863.630625 325.986375 
L 863.630625 0 
L 0 0 
z
" style="fill:#ffffff;"/>
  </g>
  <g id="axes_1">
   <g id="patch_2">
    <path d="M 53.328125 288.430125 
L 767.568125 288.430125 
L 767.568125 22.318125 
L 53.328125 22.318125 
z
" style="fill:#ffffff;"/>
   </g>
   <g id="PolyCollection_1">
    <defs>
     <path d="M 85.79358 -270.484475 
L 85.79358 -265.769196 
L 92.928844 -272.318195 
L 100.064109 -279.849543 
L 107.199374 -281.224833 
L 114.334638 -282.076202 
L 121.469903 -283.255022 
L 128.605168 -284.040902 
L 135.740433 -284.368352 
L 142.875697 -284.630312 
L 150.010962 -284.761292 
L 157.146227 -285.219722 
L 164.281492 -285.416192 
L 171.416756 -285.874621 
L 178.552021 -285.940111 
L 185.687286 -286.003964 
L 192.822551 -286.333051 
L 199.957815 -286.398541 
L 207.09308 -286.398541 
L 214.228345 -286.595011 
L 221.36361 -286.595011 
L 228.498874 -286.660501 
L 235.634139 -286.660501 
L 242.769404 -286.922461 
L 249.904668 -286.922461 
L 257.039933 -286.987951 
L 264.175198 -286.987951 
L 271.310463 -286.987951 
L 278.445727 -287.053441 
L 285.580992 -287.184421 
L 292.716257 -287.184421 
L 299.851522 -287.184421 
L 306.986786 -287.184421 
L 314.122051 -287.184421 
L 321.257316 -287.249911 
L 328.392581 -287.249911 
L 335.527845 -287.249911 
L 342.66311 -287.511871 
L 349.798375 -287.642851 
L 356.933639 -287.839321 
L 364.068904 -287.839321 
L 371.204169 -287.839321 
L 378.339434 -288.035791 
L 385.474698 -288.035791 
L 392.609963 -288.035791 
L 399.745228 -288.101281 
L 406.880493 -288.101281 
L 414.015757 -288.101281 
L 421.151022 -288.101281 
L 428.286287 -288.166771 
L 435.421552 -288.166771 
L 442.556816 -288.166771 
L 449.692081 -288.232261 
L 456.827346 -288.232261 
L 463.962611 -288.297751 
L 471.097875 -288.297751 
L 478.23314 -288.297751 
L 485.368405 -288.297751 
L 492.503669 -288.297751 
L 499.638934 -288.363241 
L 506.774199 -288.297751 
L 513.909464 -288.363241 
L 521.044728 -288.361604 
L 528.179993 -288.363241 
L 535.315258 -288.363241 
L 542.450523 -288.363241 
L 549.585787 -288.363241 
L 556.721052 -288.363241 
L 563.856317 -288.297751 
L 570.991582 -288.428731 
L 578.126846 -288.428731 
L 585.262111 -288.428731 
L 592.397376 -288.428731 
L 599.53264 -288.428731 
L 606.667905 -288.428731 
L 613.80317 -288.625201 
L 620.938435 -288.625201 
L 628.073699 -288.625201 
L 635.208964 -288.625201 
L 642.344229 -288.690691 
L 649.479494 -288.690691 
L 656.614758 -288.690691 
L 663.750023 -288.690691 
L 670.885288 -288.690691 
L 678.020553 -288.690691 
L 685.155817 -288.690691 
L 692.291082 -288.690691 
L 699.426347 -288.690691 
L 706.561612 -288.690691 
L 713.696876 -288.821671 
L 720.832141 -288.821671 
L 727.967406 -288.821671 
L 735.10267 -288.821671 
L 735.10267 -291.2448 
L 735.10267 -291.2448 
L 727.967406 -291.2448 
L 720.832141 -291.2448 
L 713.696876 -291.2448 
L 706.561612 -291.2448 
L 699.426347 -291.2448 
L 692.291082 -291.31029 
L 685.155817 -291.2448 
L 678.020553 -291.2448 
L 670.885288 -291.2448 
L 663.750023 -291.2448 
L 656.614758 -291.31029 
L 649.479494 -291.2448 
L 642.344229 -291.31029 
L 635.208964 -291.11382 
L 628.073699 -291.11382 
L 620.938435 -291.115457 
L 613.80317 -291.11382 
L 606.667905 -291.11382 
L 599.53264 -291.11382 
L 592.397376 -291.11382 
L 585.262111 -291.04833 
L 578.126846 -290.78637 
L 570.991582 -290.856772 
L 563.856317 -290.65539 
L 556.721052 -290.657027 
L 549.585787 -290.52441 
L 542.450523 -290.52441 
L 535.315258 -290.52441 
L 528.179993 -290.52441 
L 521.044728 -290.52441 
L 513.909464 -290.52441 
L 506.774199 -290.52441 
L 499.638934 -290.52441 
L 492.503669 -290.52441 
L 485.368405 -290.52441 
L 478.23314 -290.52441 
L 471.097875 -290.52441 
L 463.962611 -290.52441 
L 456.827346 -290.65539 
L 449.692081 -290.45892 
L 442.556816 -290.45892 
L 435.421552 -290.45892 
L 428.286287 -290.45892 
L 421.151022 -290.45892 
L 414.015757 -290.45892 
L 406.880493 -290.45892 
L 399.745228 -290.45892 
L 392.609963 -290.45892 
L 385.474698 -290.19696 
L 378.339434 -290.19696 
L 371.204169 -290.19696 
L 364.068904 -289.60755 
L 356.933639 -289.411081 
L 349.798375 -289.411081 
L 342.66311 -289.411081 
L 335.527845 -289.411081 
L 328.392581 -289.411081 
L 321.257316 -289.411081 
L 314.122051 -289.476571 
L 306.986786 -289.023052 
L 299.851522 -289.347228 
L 292.716257 -289.083631 
L 285.580992 -289.083631 
L 278.445727 -289.083631 
L 271.310463 -289.083631 
L 264.175198 -289.018141 
L 257.039933 -289.018141 
L 249.904668 -288.625201 
L 242.769404 -288.497495 
L 235.634139 -288.363241 
L 228.498874 -288.363241 
L 221.36361 -288.363241 
L 214.228345 -288.363241 
L 207.09308 -288.232261 
L 199.957815 -288.101281 
L 192.822551 -287.249911 
L 185.687286 -287.118931 
L 178.552021 -286.987951 
L 171.416756 -286.856971 
L 164.281492 -286.791481 
L 157.146227 -286.333051 
L 150.010962 -286.071091 
L 142.875697 -285.874621 
L 135.740433 -285.745279 
L 128.605168 -285.612661 
L 121.469903 -284.761292 
L 114.334638 -284.040902 
L 107.199374 -283.582472 
L 100.064109 -282.272672 
L 92.928844 -279.456603 
L 85.79358 -270.484475 
z
" id="m32c2064c7b" style="stroke:#1f77b4;stroke-opacity:0.2;"/>
    </defs>
    <g clip-path="url(#p1d4efef596)">
     <use style="fill:#1f77b4;fill-opacity:0.2;stroke:#1f77b4;stroke-opacity:0.2;" x="0" xlink:href="#m32c2064c7b" y="325.986375"/>
    </g>
   </g>
   <g id="PolyCollection_2">
    <defs>
     <path d="M 85.79358 -269.240166 
L 85.79358 -265.178149 
L 92.928844 -266.486312 
L 100.064109 -273.824464 
L 107.199374 -277.164454 
L 114.334638 -278.932683 
L 121.469903 -279.260133 
L 128.605168 -280.242483 
L 135.740433 -281.224833 
L 142.875697 -282.076202 
L 150.010962 -283.056915 
L 157.146227 -283.647962 
L 164.281492 -283.844432 
L 171.416756 -283.909922 
L 178.552021 -284.302862 
L 185.687286 -284.630312 
L 192.822551 -284.761292 
L 199.957815 -284.761292 
L 207.09308 -284.761292 
L 214.228345 -284.826782 
L 221.36361 -285.088742 
L 228.498874 -285.088742 
L 235.634139 -285.285212 
L 242.769404 -285.481682 
L 249.904668 -285.547171 
L 257.039933 -285.743641 
L 264.175198 -285.874621 
L 271.310463 -285.874621 
L 278.445727 -285.940111 
L 285.580992 -286.005601 
L 292.716257 -286.202071 
L 299.851522 -286.398541 
L 306.986786 -286.398541 
L 314.122051 -286.398541 
L 321.257316 -286.398541 
L 328.392581 -286.398541 
L 335.527845 -286.398541 
L 342.66311 -286.398541 
L 349.798375 -286.398541 
L 356.933639 -286.464031 
L 364.068904 -286.529521 
L 371.204169 -286.529521 
L 378.339434 -286.529521 
L 385.474698 -286.529521 
L 392.609963 -286.856971 
L 399.745228 -286.856971 
L 406.880493 -287.184421 
L 414.015757 -287.184421 
L 421.151022 -287.118931 
L 428.286287 -287.184421 
L 435.421552 -287.249911 
L 442.556816 -287.184421 
L 449.692081 -287.184421 
L 456.827346 -287.249911 
L 463.962611 -287.380891 
L 471.097875 -287.380891 
L 478.23314 -287.380891 
L 485.368405 -287.380891 
L 492.503669 -287.380891 
L 499.638934 -287.380891 
L 506.774199 -287.380891 
L 513.909464 -287.511871 
L 521.044728 -287.511871 
L 528.179993 -287.511871 
L 535.315258 -287.511871 
L 542.450523 -287.511871 
L 549.585787 -287.511871 
L 556.721052 -287.511871 
L 563.856317 -287.577361 
L 570.991582 -287.708341 
L 578.126846 -287.773831 
L 585.262111 -287.773831 
L 592.397376 -287.773831 
L 599.53264 -287.773831 
L 606.667905 -287.773831 
L 613.80317 -287.773831 
L 620.938435 -287.773831 
L 628.073699 -287.773831 
L 635.208964 -287.904811 
L 642.344229 -287.904811 
L 649.479494 -287.904811 
L 656.614758 -288.035791 
L 663.750023 -288.035791 
L 670.885288 -288.035791 
L 678.020553 -288.035791 
L 685.155817 -288.035791 
L 692.291082 -288.035791 
L 699.426347 -288.035791 
L 706.561612 -288.035791 
L 713.696876 -288.035791 
L 720.832141 -288.035791 
L 727.967406 -288.035791 
L 735.10267 -288.035791 
L 735.10267 -291.50676 
L 735.10267 -291.50676 
L 727.967406 -291.50676 
L 720.832141 -291.50676 
L 713.696876 -291.57225 
L 706.561612 -291.44127 
L 699.426347 -291.44127 
L 692.291082 -291.31029 
L 685.155817 -291.31029 
L 678.020553 -291.31029 
L 670.885288 -291.31029 
L 663.750023 -291.31029 
L 656.614758 -291.31029 
L 649.479494 -291.31029 
L 642.344229 -291.31029 
L 635.208964 -291.2448 
L 628.073699 -291.17931 
L 620.938435 -291.17931 
L 613.80317 -291.17931 
L 606.667905 -291.17931 
L 599.53264 -291.04833 
L 592.397376 -291.04833 
L 585.262111 -291.04833 
L 578.126846 -291.04833 
L 570.991582 -291.04833 
L 563.856317 -291.04833 
L 556.721052 -291.04833 
L 549.585787 -291.04833 
L 542.450523 -291.04833 
L 535.315258 -290.918987 
L 528.179993 -290.78637 
L 521.044728 -290.788007 
L 513.909464 -290.65539 
L 506.774199 -290.5899 
L 499.638934 -290.45892 
L 492.503669 -290.45892 
L 485.368405 -290.45892 
L 478.23314 -290.45892 
L 471.097875 -290.45892 
L 463.962611 -290.45892 
L 456.827346 -290.32794 
L 449.692081 -290.32794 
L 442.556816 -290.32794 
L 435.421552 -290.329578 
L 428.286287 -290.26245 
L 421.151022 -290.26245 
L 414.015757 -290.13147 
L 406.880493 -290.26245 
L 399.745228 -290.13147 
L 392.609963 -290.39343 
L 385.474698 -289.935 
L 378.339434 -289.935 
L 371.204169 -289.86951 
L 364.068904 -289.86951 
L 356.933639 -289.73853 
L 349.798375 -289.73853 
L 342.66311 -289.67304 
L 335.527845 -289.67304 
L 328.392581 -289.60755 
L 321.257316 -289.149121 
L 314.122051 -288.952651 
L 306.986786 -288.887161 
L 299.851522 -288.887161 
L 292.716257 -288.166771 
L 285.580992 -287.380891 
L 278.445727 -287.511871 
L 271.310463 -287.384166 
L 264.175198 -287.380891 
L 257.039933 -287.249911 
L 249.904668 -287.249911 
L 242.769404 -287.249911 
L 235.634139 -287.249911 
L 228.498874 -287.249911 
L 221.36361 -287.249911 
L 214.228345 -287.249911 
L 207.09308 -287.249911 
L 199.957815 -287.249911 
L 192.822551 -287.053441 
L 185.687286 -287.053441 
L 178.552021 -286.267561 
L 171.416756 -285.612661 
L 164.281492 -285.481682 
L 157.146227 -285.154232 
L 150.010962 -284.695802 
L 142.875697 -284.106392 
L 135.740433 -283.255022 
L 128.605168 -282.272672 
L 121.469903 -281.945222 
L 114.334638 -281.031637 
L 107.199374 -279.980523 
L 100.064109 -277.360924 
L 92.928844 -272.645645 
L 85.79358 -269.240166 
z
" id="m1c1cb3bdfd" style="stroke:#98df8a;stroke-opacity:0.2;"/>
    </defs>
    <g clip-path="url(#p1d4efef596)">
     <use style="fill:#98df8a;fill-opacity:0.2;stroke:#98df8a;stroke-opacity:0.2;" x="0" xlink:href="#m1c1cb3bdfd" y="325.986375"/>
    </g>
   </g>
   <g id="PolyCollection_3">
    <defs>
     <path d="M 85.79358 -271.990745 
L 85.79358 -49.65225 
L 92.928844 -273.300545 
L 100.064109 -278.454606 
L 107.199374 -279.129153 
L 114.334638 -280.831893 
L 121.469903 -282.010712 
L 128.605168 -282.665612 
L 135.740433 -283.320512 
L 142.875697 -283.909922 
L 150.010962 -284.302862 
L 157.146227 -284.433842 
L 164.281492 -284.761292 
L 171.416756 -285.285212 
L 178.552021 -285.481682 
L 185.687286 -285.676514 
L 192.822551 -285.874621 
L 199.957815 -286.071091 
L 207.09308 -286.071091 
L 214.228345 -286.136581 
L 221.36361 -286.202071 
L 228.498874 -286.333051 
L 235.634139 -286.333051 
L 242.769404 -286.464031 
L 249.904668 -286.464031 
L 257.039933 -286.529521 
L 264.175198 -286.529521 
L 271.310463 -286.529521 
L 278.445727 -286.529521 
L 285.580992 -286.529521 
L 292.716257 -286.660501 
L 299.851522 -286.595011 
L 306.986786 -286.660501 
L 314.122051 -286.660501 
L 321.257316 -286.725991 
L 328.392581 -286.725991 
L 335.527845 -286.725991 
L 342.66311 -286.791481 
L 349.798375 -286.791481 
L 356.933639 -286.856971 
L 364.068904 -286.922461 
L 371.204169 -286.987951 
L 378.339434 -287.118931 
L 385.474698 -287.118931 
L 392.609963 -287.118931 
L 399.745228 -287.249911 
L 406.880493 -287.249911 
L 414.015757 -287.249911 
L 421.151022 -287.249911 
L 428.286287 -287.249911 
L 435.421552 -287.249911 
L 442.556816 -287.315401 
L 449.692081 -287.315401 
L 456.827346 -287.315401 
L 463.962611 -287.380891 
L 471.097875 -287.446381 
L 478.23314 -287.446381 
L 485.368405 -287.446381 
L 492.503669 -287.446381 
L 499.638934 -287.446381 
L 506.774199 -287.446381 
L 513.909464 -287.773831 
L 521.044728 -287.904811 
L 528.179993 -287.904811 
L 535.315258 -287.904811 
L 542.450523 -287.904811 
L 549.585787 -287.904811 
L 556.721052 -287.968664 
L 563.856317 -288.166771 
L 570.991582 -288.166771 
L 578.126846 -288.035791 
L 585.262111 -288.232261 
L 592.397376 -288.166771 
L 599.53264 -288.166771 
L 606.667905 -288.232261 
L 613.80317 -288.166771 
L 620.938435 -288.297751 
L 628.073699 -288.297751 
L 635.208964 -288.297751 
L 642.344229 -288.297751 
L 649.479494 -288.297751 
L 656.614758 -288.297751 
L 663.750023 -288.297751 
L 670.885288 -288.297751 
L 678.020553 -288.297751 
L 685.155817 -288.363241 
L 692.291082 -288.361604 
L 699.426347 -288.297751 
L 706.561612 -288.428731 
L 713.696876 -288.428731 
L 720.832141 -288.428731 
L 727.967406 -288.428731 
L 735.10267 -288.428731 
L 735.10267 -291.37578 
L 735.10267 -291.37578 
L 727.967406 -291.37578 
L 720.832141 -291.37578 
L 713.696876 -291.37578 
L 706.561612 -291.37578 
L 699.426347 -291.311927 
L 692.291082 -291.31029 
L 685.155817 -291.31029 
L 678.020553 -291.31029 
L 670.885288 -291.17931 
L 663.750023 -291.04833 
L 656.614758 -291.04833 
L 649.479494 -291.04833 
L 642.344229 -291.04833 
L 635.208964 -290.91735 
L 628.073699 -291.04833 
L 620.938435 -290.98284 
L 613.80317 -290.85186 
L 606.667905 -290.85186 
L 599.53264 -290.920625 
L 592.397376 -290.85186 
L 585.262111 -290.91735 
L 578.126846 -290.853497 
L 570.991582 -290.85186 
L 563.856317 -290.85186 
L 556.721052 -290.85186 
L 549.585787 -290.85186 
L 542.450523 -290.72088 
L 535.315258 -290.5899 
L 528.179993 -290.5899 
L 521.044728 -290.5899 
L 513.909464 -290.5899 
L 506.774199 -290.65539 
L 499.638934 -290.5899 
L 492.503669 -290.65539 
L 485.368405 -290.5899 
L 478.23314 -290.5899 
L 471.097875 -290.65539 
L 463.962611 -290.5899 
L 456.827346 -290.65539 
L 449.692081 -290.526048 
L 442.556816 -290.39343 
L 435.421552 -290.396705 
L 428.286287 -290.13147 
L 421.151022 -290.13147 
L 414.015757 -290.13147 
L 406.880493 -290.13147 
L 399.745228 -290.13147 
L 392.609963 -290.06598 
L 385.474698 -289.935 
L 378.339434 -289.935 
L 371.204169 -289.935 
L 364.068904 -289.149121 
L 356.933639 -289.083631 
L 349.798375 -289.083631 
L 342.66311 -288.887161 
L 335.527845 -289.149121 
L 328.392581 -288.887161 
L 321.257316 -289.157307 
L 314.122051 -288.887161 
L 306.986786 -288.887161 
L 299.851522 -288.887161 
L 292.716257 -288.887161 
L 285.580992 -288.887161 
L 278.445727 -288.823308 
L 271.310463 -288.366515 
L 264.175198 -288.232261 
L 257.039933 -288.232261 
L 249.904668 -288.232261 
L 242.769404 -288.101281 
L 235.634139 -288.101281 
L 228.498874 -288.101281 
L 221.36361 -287.904811 
L 214.228345 -287.773831 
L 207.09308 -287.118931 
L 199.957815 -286.987951 
L 192.822551 -286.922461 
L 185.687286 -286.791481 
L 178.552021 -286.660501 
L 171.416756 -286.333051 
L 164.281492 -285.874621 
L 157.146227 -285.940111 
L 150.010962 -285.417829 
L 142.875697 -285.154232 
L 135.740433 -284.564822 
L 128.605168 -284.106392 
L 121.469903 -284.040902 
L 114.334638 -283.255022 
L 107.199374 -281.945222 
L 100.064109 -280.63706 
L 92.928844 -278.408763 
L 85.79358 -271.990745 
z
" id="mafd8917682" style="stroke:#d62728;stroke-opacity:0.2;"/>
    </defs>
    <g clip-path="url(#p1d4efef596)">
     <use style="fill:#d62728;fill-opacity:0.2;stroke:#d62728;stroke-opacity:0.2;" x="0" xlink:href="#mafd8917682" y="325.986375"/>
    </g>
   </g>
   <g id="matplotlib.axis_1">
    <g id="xtick_1">
     <g id="line2d_1">
      <defs>
       <path d="M 0 0 
L 0 3.5 
" id="mbe09c822ee" style="stroke:#000000;stroke-width:0.8;"/>
      </defs>
      <g>
       <use style="stroke:#000000;stroke-width:0.8;" x="85.79358" xlink:href="#mbe09c822ee" y="288.430125"/>
      </g>
     </g>
     <g id="text_1">
      <!-- 15m -->
      <g transform="translate(74.560767 303.028562)scale(0.1 -0.1)">
       <defs>
        <path d="M 794 531 
L 1825 531 
L 1825 4091 
L 703 3866 
L 703 4441 
L 1819 4666 
L 2450 4666 
L 2450 531 
L 3481 531 
L 3481 0 
L 794 0 
L 794 531 
z
" id="DejaVuSans-31" transform="scale(0.015625)"/>
        <path d="M 691 4666 
L 3169 4666 
L 3169 4134 
L 1269 4134 
L 1269 2991 
Q 1406 3038 1543 3061 
Q 1681 3084 1819 3084 
Q 2600 3084 3056 2656 
Q 3513 2228 3513 1497 
Q 3513 744 3044 326 
Q 2575 -91 1722 -91 
Q 1428 -91 1123 -41 
Q 819 9 494 109 
L 494 744 
Q 775 591 1075 516 
Q 1375 441 1709 441 
Q 2250 441 2565 725 
Q 2881 1009 2881 1497 
Q 2881 1984 2565 2268 
Q 2250 2553 1709 2553 
Q 1456 2553 1204 2497 
Q 953 2441 691 2322 
L 691 4666 
z
" id="DejaVuSans-35" transform="scale(0.015625)"/>
        <path d="M 3328 2828 
Q 3544 3216 3844 3400 
Q 4144 3584 4550 3584 
Q 5097 3584 5394 3201 
Q 5691 2819 5691 2113 
L 5691 0 
L 5113 0 
L 5113 2094 
Q 5113 2597 4934 2840 
Q 4756 3084 4391 3084 
Q 3944 3084 3684 2787 
Q 3425 2491 3425 1978 
L 3425 0 
L 2847 0 
L 2847 2094 
Q 2847 2600 2669 2842 
Q 2491 3084 2119 3084 
Q 1678 3084 1418 2786 
Q 1159 2488 1159 1978 
L 1159 0 
L 581 0 
L 581 3500 
L 1159 3500 
L 1159 2956 
Q 1356 3278 1631 3431 
Q 1906 3584 2284 3584 
Q 2666 3584 2933 3390 
Q 3200 3197 3328 2828 
z
" id="DejaVuSans-6d" transform="scale(0.015625)"/>
       </defs>
       <use xlink:href="#DejaVuSans-31"/>
       <use x="63.623047" xlink:href="#DejaVuSans-35"/>
       <use x="127.246094" xlink:href="#DejaVuSans-6d"/>
      </g>
     </g>
    </g>
    <g id="xtick_2">
     <g id="line2d_2">
      <g>
       <use style="stroke:#000000;stroke-width:0.8;" x="140.497276" xlink:href="#mbe09c822ee" y="288.430125"/>
      </g>
     </g>
     <g id="text_2">
      <!-- 2h:10m -->
      <g transform="translate(121.230088 303.028562)scale(0.1 -0.1)">
       <defs>
        <path d="M 1228 531 
L 3431 531 
L 3431 0 
L 469 0 
L 469 531 
Q 828 903 1448 1529 
Q 2069 2156 2228 2338 
Q 2531 2678 2651 2914 
Q 2772 3150 2772 3378 
Q 2772 3750 2511 3984 
Q 2250 4219 1831 4219 
Q 1534 4219 1204 4116 
Q 875 4013 500 3803 
L 500 4441 
Q 881 4594 1212 4672 
Q 1544 4750 1819 4750 
Q 2544 4750 2975 4387 
Q 3406 4025 3406 3419 
Q 3406 3131 3298 2873 
Q 3191 2616 2906 2266 
Q 2828 2175 2409 1742 
Q 1991 1309 1228 531 
z
" id="DejaVuSans-32" transform="scale(0.015625)"/>
        <path d="M 3513 2113 
L 3513 0 
L 2938 0 
L 2938 2094 
Q 2938 2591 2744 2837 
Q 2550 3084 2163 3084 
Q 1697 3084 1428 2787 
Q 1159 2491 1159 1978 
L 1159 0 
L 581 0 
L 581 4863 
L 1159 4863 
L 1159 2956 
Q 1366 3272 1645 3428 
Q 1925 3584 2291 3584 
Q 2894 3584 3203 3211 
Q 3513 2838 3513 2113 
z
" id="DejaVuSans-68" transform="scale(0.015625)"/>
        <path d="M 750 794 
L 1409 794 
L 1409 0 
L 750 0 
L 750 794 
z
M 750 3309 
L 1409 3309 
L 1409 2516 
L 750 2516 
L 750 3309 
z
" id="DejaVuSans-3a" transform="scale(0.015625)"/>
        <path d="M 2034 4250 
Q 1547 4250 1301 3770 
Q 1056 3291 1056 2328 
Q 1056 1369 1301 889 
Q 1547 409 2034 409 
Q 2525 409 2770 889 
Q 3016 1369 3016 2328 
Q 3016 3291 2770 3770 
Q 2525 4250 2034 4250 
z
M 2034 4750 
Q 2819 4750 3233 4129 
Q 3647 3509 3647 2328 
Q 3647 1150 3233 529 
Q 2819 -91 2034 -91 
Q 1250 -91 836 529 
Q 422 1150 422 2328 
Q 422 3509 836 4129 
Q 1250 4750 2034 4750 
z
" id="DejaVuSans-30" transform="scale(0.015625)"/>
       </defs>
       <use xlink:href="#DejaVuSans-32"/>
       <use x="63.623047" xlink:href="#DejaVuSans-68"/>
       <use x="127.001953" xlink:href="#DejaVuSans-3a"/>
       <use x="160.693359" xlink:href="#DejaVuSans-31"/>
       <use x="224.316406" xlink:href="#DejaVuSans-30"/>
       <use x="287.939453" xlink:href="#DejaVuSans-6d"/>
      </g>
     </g>
    </g>
    <g id="xtick_3">
     <g id="line2d_3">
      <g>
       <use style="stroke:#000000;stroke-width:0.8;" x="195.200972" xlink:href="#mbe09c822ee" y="288.430125"/>
      </g>
     </g>
     <g id="text_3">
      <!-- 4h:5m -->
      <g transform="translate(179.115035 303.028562)scale(0.1 -0.1)">
       <defs>
        <path d="M 2419 4116 
L 825 1625 
L 2419 1625 
L 2419 4116 
z
M 2253 4666 
L 3047 4666 
L 3047 1625 
L 3713 1625 
L 3713 1100 
L 3047 1100 
L 3047 0 
L 2419 0 
L 2419 1100 
L 313 1100 
L 313 1709 
L 2253 4666 
z
" id="DejaVuSans-34" transform="scale(0.015625)"/>
       </defs>
       <use xlink:href="#DejaVuSans-34"/>
       <use x="63.623047" xlink:href="#DejaVuSans-68"/>
       <use x="127.001953" xlink:href="#DejaVuSans-3a"/>
       <use x="160.693359" xlink:href="#DejaVuSans-35"/>
       <use x="224.316406" xlink:href="#DejaVuSans-6d"/>
      </g>
     </g>
    </g>
    <g id="xtick_4">
     <g id="line2d_4">
      <g>
       <use style="stroke:#000000;stroke-width:0.8;" x="249.904668" xlink:href="#mbe09c822ee" y="288.430125"/>
      </g>
     </g>
     <g id="text_4">
      <!-- 6h -->
      <g transform="translate(243.554668 303.028562)scale(0.1 -0.1)">
       <defs>
        <path d="M 2113 2584 
Q 1688 2584 1439 2293 
Q 1191 2003 1191 1497 
Q 1191 994 1439 701 
Q 1688 409 2113 409 
Q 2538 409 2786 701 
Q 3034 994 3034 1497 
Q 3034 2003 2786 2293 
Q 2538 2584 2113 2584 
z
M 3366 4563 
L 3366 3988 
Q 3128 4100 2886 4159 
Q 2644 4219 2406 4219 
Q 1781 4219 1451 3797 
Q 1122 3375 1075 2522 
Q 1259 2794 1537 2939 
Q 1816 3084 2150 3084 
Q 2853 3084 3261 2657 
Q 3669 2231 3669 1497 
Q 3669 778 3244 343 
Q 2819 -91 2113 -91 
Q 1303 -91 875 529 
Q 447 1150 447 2328 
Q 447 3434 972 4092 
Q 1497 4750 2381 4750 
Q 2619 4750 2861 4703 
Q 3103 4656 3366 4563 
z
" id="DejaVuSans-36" transform="scale(0.015625)"/>
       </defs>
       <use xlink:href="#DejaVuSans-36"/>
       <use x="63.623047" xlink:href="#DejaVuSans-68"/>
      </g>
     </g>
    </g>
    <g id="xtick_5">
     <g id="line2d_5">
      <g>
       <use style="stroke:#000000;stroke-width:0.8;" x="304.608365" xlink:href="#mbe09c822ee" y="288.430125"/>
      </g>
     </g>
     <g id="text_5">
      <!-- 7h:55m -->
      <g transform="translate(285.341177 303.028562)scale(0.1 -0.1)">
       <defs>
        <path d="M 525 4666 
L 3525 4666 
L 3525 4397 
L 1831 0 
L 1172 0 
L 2766 4134 
L 525 4134 
L 525 4666 
z
" id="DejaVuSans-37" transform="scale(0.015625)"/>
       </defs>
       <use xlink:href="#DejaVuSans-37"/>
       <use x="63.623047" xlink:href="#DejaVuSans-68"/>
       <use x="127.001953" xlink:href="#DejaVuSans-3a"/>
       <use x="160.693359" xlink:href="#DejaVuSans-35"/>
       <use x="224.316406" xlink:href="#DejaVuSans-35"/>
       <use x="287.939453" xlink:href="#DejaVuSans-6d"/>
      </g>
     </g>
    </g>
    <g id="xtick_6">
     <g id="line2d_6">
      <g>
       <use style="stroke:#000000;stroke-width:0.8;" x="359.312061" xlink:href="#mbe09c822ee" y="288.430125"/>
      </g>
     </g>
     <g id="text_6">
      <!-- 9h:50m -->
      <g transform="translate(340.044874 303.028562)scale(0.1 -0.1)">
       <defs>
        <path d="M 703 97 
L 703 672 
Q 941 559 1184 500 
Q 1428 441 1663 441 
Q 2288 441 2617 861 
Q 2947 1281 2994 2138 
Q 2813 1869 2534 1725 
Q 2256 1581 1919 1581 
Q 1219 1581 811 2004 
Q 403 2428 403 3163 
Q 403 3881 828 4315 
Q 1253 4750 1959 4750 
Q 2769 4750 3195 4129 
Q 3622 3509 3622 2328 
Q 3622 1225 3098 567 
Q 2575 -91 1691 -91 
Q 1453 -91 1209 -44 
Q 966 3 703 97 
z
M 1959 2075 
Q 2384 2075 2632 2365 
Q 2881 2656 2881 3163 
Q 2881 3666 2632 3958 
Q 2384 4250 1959 4250 
Q 1534 4250 1286 3958 
Q 1038 3666 1038 3163 
Q 1038 2656 1286 2365 
Q 1534 2075 1959 2075 
z
" id="DejaVuSans-39" transform="scale(0.015625)"/>
       </defs>
       <use xlink:href="#DejaVuSans-39"/>
       <use x="63.623047" xlink:href="#DejaVuSans-68"/>
       <use x="127.001953" xlink:href="#DejaVuSans-3a"/>
       <use x="160.693359" xlink:href="#DejaVuSans-35"/>
       <use x="224.316406" xlink:href="#DejaVuSans-30"/>
       <use x="287.939453" xlink:href="#DejaVuSans-6d"/>
      </g>
     </g>
    </g>
    <g id="xtick_7">
     <g id="line2d_7">
      <g>
       <use style="stroke:#000000;stroke-width:0.8;" x="414.015757" xlink:href="#mbe09c822ee" y="288.430125"/>
      </g>
     </g>
     <g id="text_7">
      <!-- 11h:45m -->
      <g transform="translate(391.56732 303.028562)scale(0.1 -0.1)">
       <use xlink:href="#DejaVuSans-31"/>
       <use x="63.623047" xlink:href="#DejaVuSans-31"/>
       <use x="127.246094" xlink:href="#DejaVuSans-68"/>
       <use x="190.625" xlink:href="#DejaVuSans-3a"/>
       <use x="224.316406" xlink:href="#DejaVuSans-34"/>
       <use x="287.939453" xlink:href="#DejaVuSans-35"/>
       <use x="351.5625" xlink:href="#DejaVuSans-6d"/>
      </g>
     </g>
    </g>
    <g id="xtick_8">
     <g id="line2d_8">
      <g>
       <use style="stroke:#000000;stroke-width:0.8;" x="468.719454" xlink:href="#mbe09c822ee" y="288.430125"/>
      </g>
     </g>
     <g id="text_8">
      <!-- 13h:40m -->
      <g transform="translate(446.271016 303.028562)scale(0.1 -0.1)">
       <defs>
        <path d="M 2597 2516 
Q 3050 2419 3304 2112 
Q 3559 1806 3559 1356 
Q 3559 666 3084 287 
Q 2609 -91 1734 -91 
Q 1441 -91 1130 -33 
Q 819 25 488 141 
L 488 750 
Q 750 597 1062 519 
Q 1375 441 1716 441 
Q 2309 441 2620 675 
Q 2931 909 2931 1356 
Q 2931 1769 2642 2001 
Q 2353 2234 1838 2234 
L 1294 2234 
L 1294 2753 
L 1863 2753 
Q 2328 2753 2575 2939 
Q 2822 3125 2822 3475 
Q 2822 3834 2567 4026 
Q 2313 4219 1838 4219 
Q 1578 4219 1281 4162 
Q 984 4106 628 3988 
L 628 4550 
Q 988 4650 1302 4700 
Q 1616 4750 1894 4750 
Q 2613 4750 3031 4423 
Q 3450 4097 3450 3541 
Q 3450 3153 3228 2886 
Q 3006 2619 2597 2516 
z
" id="DejaVuSans-33" transform="scale(0.015625)"/>
       </defs>
       <use xlink:href="#DejaVuSans-31"/>
       <use x="63.623047" xlink:href="#DejaVuSans-33"/>
       <use x="127.246094" xlink:href="#DejaVuSans-68"/>
       <use x="190.625" xlink:href="#DejaVuSans-3a"/>
       <use x="224.316406" xlink:href="#DejaVuSans-34"/>
       <use x="287.939453" xlink:href="#DejaVuSans-30"/>
       <use x="351.5625" xlink:href="#DejaVuSans-6d"/>
      </g>
     </g>
    </g>
    <g id="xtick_9">
     <g id="line2d_9">
      <g>
       <use style="stroke:#000000;stroke-width:0.8;" x="523.42315" xlink:href="#mbe09c822ee" y="288.430125"/>
      </g>
     </g>
     <g id="text_9">
      <!-- 15h:35m -->
      <g transform="translate(500.974712 303.028562)scale(0.1 -0.1)">
       <use xlink:href="#DejaVuSans-31"/>
       <use x="63.623047" xlink:href="#DejaVuSans-35"/>
       <use x="127.246094" xlink:href="#DejaVuSans-68"/>
       <use x="190.625" xlink:href="#DejaVuSans-3a"/>
       <use x="224.316406" xlink:href="#DejaVuSans-33"/>
       <use x="287.939453" xlink:href="#DejaVuSans-35"/>
       <use x="351.5625" xlink:href="#DejaVuSans-6d"/>
      </g>
     </g>
    </g>
    <g id="xtick_10">
     <g id="line2d_10">
      <g>
       <use style="stroke:#000000;stroke-width:0.8;" x="578.126846" xlink:href="#mbe09c822ee" y="288.430125"/>
      </g>
     </g>
     <g id="text_10">
      <!-- 17h:30m -->
      <g transform="translate(555.678409 303.028562)scale(0.1 -0.1)">
       <use xlink:href="#DejaVuSans-31"/>
       <use x="63.623047" xlink:href="#DejaVuSans-37"/>
       <use x="127.246094" xlink:href="#DejaVuSans-68"/>
       <use x="190.625" xlink:href="#DejaVuSans-3a"/>
       <use x="224.316406" xlink:href="#DejaVuSans-33"/>
       <use x="287.939453" xlink:href="#DejaVuSans-30"/>
       <use x="351.5625" xlink:href="#DejaVuSans-6d"/>
      </g>
     </g>
    </g>
    <g id="xtick_11">
     <g id="line2d_11">
      <g>
       <use style="stroke:#000000;stroke-width:0.8;" x="632.830543" xlink:href="#mbe09c822ee" y="288.430125"/>
      </g>
     </g>
     <g id="text_11">
      <!-- 19h:25m -->
      <g transform="translate(610.382105 303.028562)scale(0.1 -0.1)">
       <use xlink:href="#DejaVuSans-31"/>
       <use x="63.623047" xlink:href="#DejaVuSans-39"/>
       <use x="127.246094" xlink:href="#DejaVuSans-68"/>
       <use x="190.625" xlink:href="#DejaVuSans-3a"/>
       <use x="224.316406" xlink:href="#DejaVuSans-32"/>
       <use x="287.939453" xlink:href="#DejaVuSans-35"/>
       <use x="351.5625" xlink:href="#DejaVuSans-6d"/>
      </g>
     </g>
    </g>
    <g id="xtick_12">
     <g id="line2d_12">
      <g>
       <use style="stroke:#000000;stroke-width:0.8;" x="687.534239" xlink:href="#mbe09c822ee" y="288.430125"/>
      </g>
     </g>
     <g id="text_12">
      <!-- 21h:20m -->
      <g transform="translate(665.085801 303.028562)scale(0.1 -0.1)">
       <use xlink:href="#DejaVuSans-32"/>
       <use x="63.623047" xlink:href="#DejaVuSans-31"/>
       <use x="127.246094" xlink:href="#DejaVuSans-68"/>
       <use x="190.625" xlink:href="#DejaVuSans-3a"/>
       <use x="224.316406" xlink:href="#DejaVuSans-32"/>
       <use x="287.939453" xlink:href="#DejaVuSans-30"/>
       <use x="351.5625" xlink:href="#DejaVuSans-6d"/>
      </g>
     </g>
    </g>
    <g id="text_13">
     <!-- Time (hour:minute) -->
     <g transform="translate(362.041094 316.706687)scale(0.1 -0.1)">
      <defs>
       <path d="M -19 4666 
L 3928 4666 
L 3928 4134 
L 2272 4134 
L 2272 0 
L 1638 0 
L 1638 4134 
L -19 4134 
L -19 4666 
z
" id="DejaVuSans-54" transform="scale(0.015625)"/>
       <path d="M 603 3500 
L 1178 3500 
L 1178 0 
L 603 0 
L 603 3500 
z
M 603 4863 
L 1178 4863 
L 1178 4134 
L 603 4134 
L 603 4863 
z
" id="DejaVuSans-69" transform="scale(0.015625)"/>
       <path d="M 3597 1894 
L 3597 1613 
L 953 1613 
Q 991 1019 1311 708 
Q 1631 397 2203 397 
Q 2534 397 2845 478 
Q 3156 559 3463 722 
L 3463 178 
Q 3153 47 2828 -22 
Q 2503 -91 2169 -91 
Q 1331 -91 842 396 
Q 353 884 353 1716 
Q 353 2575 817 3079 
Q 1281 3584 2069 3584 
Q 2775 3584 3186 3129 
Q 3597 2675 3597 1894 
z
M 3022 2063 
Q 3016 2534 2758 2815 
Q 2500 3097 2075 3097 
Q 1594 3097 1305 2825 
Q 1016 2553 972 2059 
L 3022 2063 
z
" id="DejaVuSans-65" transform="scale(0.015625)"/>
       <path id="DejaVuSans-20" transform="scale(0.015625)"/>
       <path d="M 1984 4856 
Q 1566 4138 1362 3434 
Q 1159 2731 1159 2009 
Q 1159 1288 1364 580 
Q 1569 -128 1984 -844 
L 1484 -844 
Q 1016 -109 783 600 
Q 550 1309 550 2009 
Q 550 2706 781 3412 
Q 1013 4119 1484 4856 
L 1984 4856 
z
" id="DejaVuSans-28" transform="scale(0.015625)"/>
       <path d="M 1959 3097 
Q 1497 3097 1228 2736 
Q 959 2375 959 1747 
Q 959 1119 1226 758 
Q 1494 397 1959 397 
Q 2419 397 2687 759 
Q 2956 1122 2956 1747 
Q 2956 2369 2687 2733 
Q 2419 3097 1959 3097 
z
M 1959 3584 
Q 2709 3584 3137 3096 
Q 3566 2609 3566 1747 
Q 3566 888 3137 398 
Q 2709 -91 1959 -91 
Q 1206 -91 779 398 
Q 353 888 353 1747 
Q 353 2609 779 3096 
Q 1206 3584 1959 3584 
z
" id="DejaVuSans-6f" transform="scale(0.015625)"/>
       <path d="M 544 1381 
L 544 3500 
L 1119 3500 
L 1119 1403 
Q 1119 906 1312 657 
Q 1506 409 1894 409 
Q 2359 409 2629 706 
Q 2900 1003 2900 1516 
L 2900 3500 
L 3475 3500 
L 3475 0 
L 2900 0 
L 2900 538 
Q 2691 219 2414 64 
Q 2138 -91 1772 -91 
Q 1169 -91 856 284 
Q 544 659 544 1381 
z
M 1991 3584 
L 1991 3584 
z
" id="DejaVuSans-75" transform="scale(0.015625)"/>
       <path d="M 2631 2963 
Q 2534 3019 2420 3045 
Q 2306 3072 2169 3072 
Q 1681 3072 1420 2755 
Q 1159 2438 1159 1844 
L 1159 0 
L 581 0 
L 581 3500 
L 1159 3500 
L 1159 2956 
Q 1341 3275 1631 3429 
Q 1922 3584 2338 3584 
Q 2397 3584 2469 3576 
Q 2541 3569 2628 3553 
L 2631 2963 
z
" id="DejaVuSans-72" transform="scale(0.015625)"/>
       <path d="M 3513 2113 
L 3513 0 
L 2938 0 
L 2938 2094 
Q 2938 2591 2744 2837 
Q 2550 3084 2163 3084 
Q 1697 3084 1428 2787 
Q 1159 2491 1159 1978 
L 1159 0 
L 581 0 
L 581 3500 
L 1159 3500 
L 1159 2956 
Q 1366 3272 1645 3428 
Q 1925 3584 2291 3584 
Q 2894 3584 3203 3211 
Q 3513 2838 3513 2113 
z
" id="DejaVuSans-6e" transform="scale(0.015625)"/>
       <path d="M 1172 4494 
L 1172 3500 
L 2356 3500 
L 2356 3053 
L 1172 3053 
L 1172 1153 
Q 1172 725 1289 603 
Q 1406 481 1766 481 
L 2356 481 
L 2356 0 
L 1766 0 
Q 1100 0 847 248 
Q 594 497 594 1153 
L 594 3053 
L 172 3053 
L 172 3500 
L 594 3500 
L 594 4494 
L 1172 4494 
z
" id="DejaVuSans-74" transform="scale(0.015625)"/>
       <path d="M 513 4856 
L 1013 4856 
Q 1481 4119 1714 3412 
Q 1947 2706 1947 2009 
Q 1947 1309 1714 600 
Q 1481 -109 1013 -844 
L 513 -844 
Q 928 -128 1133 580 
Q 1338 1288 1338 2009 
Q 1338 2731 1133 3434 
Q 928 4138 513 4856 
z
" id="DejaVuSans-29" transform="scale(0.015625)"/>
      </defs>
      <use xlink:href="#DejaVuSans-54"/>
      <use x="57.958984" xlink:href="#DejaVuSans-69"/>
      <use x="85.742188" xlink:href="#DejaVuSans-6d"/>
      <use x="183.154297" xlink:href="#DejaVuSans-65"/>
      <use x="244.677734" xlink:href="#DejaVuSans-20"/>
      <use x="276.464844" xlink:href="#DejaVuSans-28"/>
      <use x="315.478516" xlink:href="#DejaVuSans-68"/>
      <use x="378.857422" xlink:href="#DejaVuSans-6f"/>
      <use x="440.039062" xlink:href="#DejaVuSans-75"/>
      <use x="503.417969" xlink:href="#DejaVuSans-72"/>
      <use x="542.78125" xlink:href="#DejaVuSans-3a"/>
      <use x="576.472656" xlink:href="#DejaVuSans-6d"/>
      <use x="673.884766" xlink:href="#DejaVuSans-69"/>
      <use x="701.667969" xlink:href="#DejaVuSans-6e"/>
      <use x="765.046875" xlink:href="#DejaVuSans-75"/>
      <use x="828.425781" xlink:href="#DejaVuSans-74"/>
      <use x="867.634766" xlink:href="#DejaVuSans-65"/>
      <use x="929.158203" xlink:href="#DejaVuSans-29"/>
     </g>
    </g>
   </g>
   <g id="matplotlib.axis_2">
    <g id="ytick_1">
     <g id="line2d_13">
      <defs>
       <path d="M 0 0 
L -3.5 0 
" id="m0317393f95" style="stroke:#000000;stroke-width:0.8;"/>
      </defs>
      <g>
       <use style="stroke:#000000;stroke-width:0.8;" x="53.328125" xlink:href="#m0317393f95" y="279.870584"/>
      </g>
     </g>
     <g id="text_14">
      <!-- 0 -->
      <g transform="translate(39.965625 283.669803)scale(0.1 -0.1)">
       <use xlink:href="#DejaVuSans-30"/>
      </g>
     </g>
    </g>
    <g id="ytick_2">
     <g id="line2d_14">
      <g>
       <use style="stroke:#000000;stroke-width:0.8;" x="53.328125" xlink:href="#m0317393f95" y="247.125592"/>
      </g>
     </g>
     <g id="text_15">
      <!-- 250 -->
      <g transform="translate(27.240625 250.924811)scale(0.1 -0.1)">
       <use xlink:href="#DejaVuSans-32"/>
       <use x="63.623047" xlink:href="#DejaVuSans-35"/>
       <use x="127.246094" xlink:href="#DejaVuSans-30"/>
      </g>
     </g>
    </g>
    <g id="ytick_3">
     <g id="line2d_15">
      <g>
       <use style="stroke:#000000;stroke-width:0.8;" x="53.328125" xlink:href="#m0317393f95" y="214.3806"/>
      </g>
     </g>
     <g id="text_16">
      <!-- 500 -->
      <g transform="translate(27.240625 218.179819)scale(0.1 -0.1)">
       <use xlink:href="#DejaVuSans-35"/>
       <use x="63.623047" xlink:href="#DejaVuSans-30"/>
       <use x="127.246094" xlink:href="#DejaVuSans-30"/>
      </g>
     </g>
    </g>
    <g id="ytick_4">
     <g id="line2d_16">
      <g>
       <use style="stroke:#000000;stroke-width:0.8;" x="53.328125" xlink:href="#m0317393f95" y="181.635608"/>
      </g>
     </g>
     <g id="text_17">
      <!-- 750 -->
      <g transform="translate(27.240625 185.434827)scale(0.1 -0.1)">
       <use xlink:href="#DejaVuSans-37"/>
       <use x="63.623047" xlink:href="#DejaVuSans-35"/>
       <use x="127.246094" xlink:href="#DejaVuSans-30"/>
      </g>
     </g>
    </g>
    <g id="ytick_5">
     <g id="line2d_17">
      <g>
       <use style="stroke:#000000;stroke-width:0.8;" x="53.328125" xlink:href="#m0317393f95" y="148.890617"/>
      </g>
     </g>
     <g id="text_18">
      <!-- 1000 -->
      <g transform="translate(20.878125 152.689835)scale(0.1 -0.1)">
       <use xlink:href="#DejaVuSans-31"/>
       <use x="63.623047" xlink:href="#DejaVuSans-30"/>
       <use x="127.246094" xlink:href="#DejaVuSans-30"/>
       <use x="190.869141" xlink:href="#DejaVuSans-30"/>
      </g>
     </g>
    </g>
    <g id="ytick_6">
     <g id="line2d_18">
      <g>
       <use style="stroke:#000000;stroke-width:0.8;" x="53.328125" xlink:href="#m0317393f95" y="116.145625"/>
      </g>
     </g>
     <g id="text_19">
      <!-- 1250 -->
      <g transform="translate(20.878125 119.944843)scale(0.1 -0.1)">
       <use xlink:href="#DejaVuSans-31"/>
       <use x="63.623047" xlink:href="#DejaVuSans-32"/>
       <use x="127.246094" xlink:href="#DejaVuSans-35"/>
       <use x="190.869141" xlink:href="#DejaVuSans-30"/>
      </g>
     </g>
    </g>
    <g id="ytick_7">
     <g id="line2d_19">
      <g>
       <use style="stroke:#000000;stroke-width:0.8;" x="53.328125" xlink:href="#m0317393f95" y="83.400633"/>
      </g>
     </g>
     <g id="text_20">
      <!-- 1500 -->
      <g transform="translate(20.878125 87.199852)scale(0.1 -0.1)">
       <use xlink:href="#DejaVuSans-31"/>
       <use x="63.623047" xlink:href="#DejaVuSans-35"/>
       <use x="127.246094" xlink:href="#DejaVuSans-30"/>
       <use x="190.869141" xlink:href="#DejaVuSans-30"/>
      </g>
     </g>
    </g>
    <g id="ytick_8">
     <g id="line2d_20">
      <g>
       <use style="stroke:#000000;stroke-width:0.8;" x="53.328125" xlink:href="#m0317393f95" y="50.655641"/>
      </g>
     </g>
     <g id="text_21">
      <!-- 1750 -->
      <g transform="translate(20.878125 54.45486)scale(0.1 -0.1)">
       <use xlink:href="#DejaVuSans-31"/>
       <use x="63.623047" xlink:href="#DejaVuSans-37"/>
       <use x="127.246094" xlink:href="#DejaVuSans-35"/>
       <use x="190.869141" xlink:href="#DejaVuSans-30"/>
      </g>
     </g>
    </g>
    <g id="text_22">
     <!-- Code region coverage -->
     <g transform="translate(14.798438 210.379594)rotate(-90)scale(0.1 -0.1)">
      <defs>
       <path d="M 4122 4306 
L 4122 3641 
Q 3803 3938 3442 4084 
Q 3081 4231 2675 4231 
Q 1875 4231 1450 3742 
Q 1025 3253 1025 2328 
Q 1025 1406 1450 917 
Q 1875 428 2675 428 
Q 3081 428 3442 575 
Q 3803 722 4122 1019 
L 4122 359 
Q 3791 134 3420 21 
Q 3050 -91 2638 -91 
Q 1578 -91 968 557 
Q 359 1206 359 2328 
Q 359 3453 968 4101 
Q 1578 4750 2638 4750 
Q 3056 4750 3426 4639 
Q 3797 4528 4122 4306 
z
" id="DejaVuSans-43" transform="scale(0.015625)"/>
       <path d="M 2906 2969 
L 2906 4863 
L 3481 4863 
L 3481 0 
L 2906 0 
L 2906 525 
Q 2725 213 2448 61 
Q 2172 -91 1784 -91 
Q 1150 -91 751 415 
Q 353 922 353 1747 
Q 353 2572 751 3078 
Q 1150 3584 1784 3584 
Q 2172 3584 2448 3432 
Q 2725 3281 2906 2969 
z
M 947 1747 
Q 947 1113 1208 752 
Q 1469 391 1925 391 
Q 2381 391 2643 752 
Q 2906 1113 2906 1747 
Q 2906 2381 2643 2742 
Q 2381 3103 1925 3103 
Q 1469 3103 1208 2742 
Q 947 2381 947 1747 
z
" id="DejaVuSans-64" transform="scale(0.015625)"/>
       <path d="M 2906 1791 
Q 2906 2416 2648 2759 
Q 2391 3103 1925 3103 
Q 1463 3103 1205 2759 
Q 947 2416 947 1791 
Q 947 1169 1205 825 
Q 1463 481 1925 481 
Q 2391 481 2648 825 
Q 2906 1169 2906 1791 
z
M 3481 434 
Q 3481 -459 3084 -895 
Q 2688 -1331 1869 -1331 
Q 1566 -1331 1297 -1286 
Q 1028 -1241 775 -1147 
L 775 -588 
Q 1028 -725 1275 -790 
Q 1522 -856 1778 -856 
Q 2344 -856 2625 -561 
Q 2906 -266 2906 331 
L 2906 616 
Q 2728 306 2450 153 
Q 2172 0 1784 0 
Q 1141 0 747 490 
Q 353 981 353 1791 
Q 353 2603 747 3093 
Q 1141 3584 1784 3584 
Q 2172 3584 2450 3431 
Q 2728 3278 2906 2969 
L 2906 3500 
L 3481 3500 
L 3481 434 
z
" id="DejaVuSans-67" transform="scale(0.015625)"/>
       <path d="M 3122 3366 
L 3122 2828 
Q 2878 2963 2633 3030 
Q 2388 3097 2138 3097 
Q 1578 3097 1268 2742 
Q 959 2388 959 1747 
Q 959 1106 1268 751 
Q 1578 397 2138 397 
Q 2388 397 2633 464 
Q 2878 531 3122 666 
L 3122 134 
Q 2881 22 2623 -34 
Q 2366 -91 2075 -91 
Q 1284 -91 818 406 
Q 353 903 353 1747 
Q 353 2603 823 3093 
Q 1294 3584 2113 3584 
Q 2378 3584 2631 3529 
Q 2884 3475 3122 3366 
z
" id="DejaVuSans-63" transform="scale(0.015625)"/>
       <path d="M 191 3500 
L 800 3500 
L 1894 563 
L 2988 3500 
L 3597 3500 
L 2284 0 
L 1503 0 
L 191 3500 
z
" id="DejaVuSans-76" transform="scale(0.015625)"/>
       <path d="M 2194 1759 
Q 1497 1759 1228 1600 
Q 959 1441 959 1056 
Q 959 750 1161 570 
Q 1363 391 1709 391 
Q 2188 391 2477 730 
Q 2766 1069 2766 1631 
L 2766 1759 
L 2194 1759 
z
M 3341 1997 
L 3341 0 
L 2766 0 
L 2766 531 
Q 2569 213 2275 61 
Q 1981 -91 1556 -91 
Q 1019 -91 701 211 
Q 384 513 384 1019 
Q 384 1609 779 1909 
Q 1175 2209 1959 2209 
L 2766 2209 
L 2766 2266 
Q 2766 2663 2505 2880 
Q 2244 3097 1772 3097 
Q 1472 3097 1187 3025 
Q 903 2953 641 2809 
L 641 3341 
Q 956 3463 1253 3523 
Q 1550 3584 1831 3584 
Q 2591 3584 2966 3190 
Q 3341 2797 3341 1997 
z
" id="DejaVuSans-61" transform="scale(0.015625)"/>
      </defs>
      <use xlink:href="#DejaVuSans-43"/>
      <use x="69.824219" xlink:href="#DejaVuSans-6f"/>
      <use x="131.005859" xlink:href="#DejaVuSans-64"/>
      <use x="194.482422" xlink:href="#DejaVuSans-65"/>
      <use x="256.005859" xlink:href="#DejaVuSans-20"/>
      <use x="287.792969" xlink:href="#DejaVuSans-72"/>
      <use x="326.65625" xlink:href="#DejaVuSans-65"/>
      <use x="388.179688" xlink:href="#DejaVuSans-67"/>
      <use x="451.65625" xlink:href="#DejaVuSans-69"/>
      <use x="479.439453" xlink:href="#DejaVuSans-6f"/>
      <use x="540.621094" xlink:href="#DejaVuSans-6e"/>
      <use x="604" xlink:href="#DejaVuSans-20"/>
      <use x="635.787109" xlink:href="#DejaVuSans-63"/>
      <use x="690.767578" xlink:href="#DejaVuSans-6f"/>
      <use x="751.949219" xlink:href="#DejaVuSans-76"/>
      <use x="811.128906" xlink:href="#DejaVuSans-65"/>
      <use x="872.652344" xlink:href="#DejaVuSans-72"/>
      <use x="913.765625" xlink:href="#DejaVuSans-61"/>
      <use x="975.044922" xlink:href="#DejaVuSans-67"/>
      <use x="1038.521484" xlink:href="#DejaVuSans-65"/>
     </g>
    </g>
   </g>
   <g id="line2d_21">
    <path clip-path="url(#p1d4efef596)" d="M 85.79358 58.972869 
L 92.928844 48.756431 
L 100.064109 45.088992 
L 107.199374 43.124293 
L 114.334638 42.403903 
L 121.469903 41.618023 
L 128.605168 41.225083 
L 135.740433 41.159593 
L 142.875697 40.897633 
L 150.010962 40.504693 
L 157.146227 40.373714 
L 164.281492 40.177244 
L 171.416756 39.849794 
L 178.552021 39.587834 
L 185.687286 39.522344 
L 192.822551 39.260384 
L 199.957815 38.932934 
L 207.09308 38.867444 
L 214.228345 38.867444 
L 221.36361 38.801954 
L 228.498874 38.801954 
L 235.634139 38.801954 
L 242.769404 38.670974 
L 249.904668 38.670974 
L 257.039933 38.670974 
L 264.175198 38.670974 
L 271.310463 38.670974 
L 278.445727 38.605484 
L 285.580992 38.474504 
L 292.716257 38.474504 
L 299.851522 38.409014 
L 306.986786 38.409014 
L 314.122051 38.212544 
L 321.257316 38.212544 
L 328.392581 38.212544 
L 335.527845 38.212544 
L 342.66311 37.819604 
L 349.798375 37.819604 
L 356.933639 37.754114 
L 364.068904 37.623134 
L 371.204169 37.623134 
L 378.339434 37.426664 
L 385.474698 37.426664 
L 392.609963 37.426664 
L 399.745228 37.426664 
L 406.880493 37.426664 
L 414.015757 37.426664 
L 421.151022 37.426664 
L 428.286287 37.426664 
L 435.421552 37.426664 
L 442.556816 37.426664 
L 449.692081 37.426664 
L 456.827346 37.426664 
L 463.962611 37.426664 
L 471.097875 37.426664 
L 478.23314 37.230194 
L 485.368405 37.230194 
L 492.503669 37.230194 
L 499.638934 37.230194 
L 506.774199 37.230194 
L 513.909464 37.230194 
L 521.044728 37.164704 
L 528.179993 37.164704 
L 535.315258 37.164704 
L 542.450523 37.164704 
L 549.585787 37.164704 
L 556.721052 37.099214 
L 563.856317 37.099214 
L 570.991582 36.444314 
L 578.126846 36.444314 
L 585.262111 36.444314 
L 592.397376 36.444314 
L 599.53264 36.444314 
L 606.667905 36.378825 
L 613.80317 36.378825 
L 620.938435 36.378825 
L 628.073699 36.378825 
L 635.208964 36.247845 
L 642.344229 35.658435 
L 649.479494 35.658435 
L 656.614758 35.658435 
L 663.750023 35.658435 
L 670.885288 35.658435 
L 678.020553 35.527455 
L 685.155817 35.527455 
L 692.291082 35.527455 
L 699.426347 35.527455 
L 706.561612 35.527455 
L 713.696876 35.527455 
L 720.832141 35.527455 
L 727.967406 35.527455 
L 735.10267 35.527455 
" style="fill:none;stroke:#1f77b4;stroke-linecap:square;stroke-width:1.5;"/>
    <defs>
     <path d="M 0 3 
C 0.795609 3 1.55874 2.683901 2.12132 2.12132 
C 2.683901 1.55874 3 0.795609 3 0 
C 3 -0.795609 2.683901 -1.55874 2.12132 -2.12132 
C 1.55874 -2.683901 0.795609 -3 0 -3 
C -0.795609 -3 -1.55874 -2.683901 -2.12132 -2.12132 
C -2.683901 -1.55874 -3 -0.795609 -3 0 
C -3 0.795609 -2.683901 1.55874 -2.12132 2.12132 
C -1.55874 2.683901 -0.795609 3 0 3 
z
" id="mb36e343377" style="stroke:#ffffff;stroke-width:0.75;"/>
    </defs>
    <g clip-path="url(#p1d4efef596)">
     <use style="fill:#1f77b4;stroke:#ffffff;stroke-width:0.75;" x="85.79358" xlink:href="#mb36e343377" y="58.972869"/>
     <use style="fill:#1f77b4;stroke:#ffffff;stroke-width:0.75;" x="92.928844" xlink:href="#mb36e343377" y="48.756431"/>
     <use style="fill:#1f77b4;stroke:#ffffff;stroke-width:0.75;" x="100.064109" xlink:href="#mb36e343377" y="45.088992"/>
     <use style="fill:#1f77b4;stroke:#ffffff;stroke-width:0.75;" x="107.199374" xlink:href="#mb36e343377" y="43.124293"/>
     <use style="fill:#1f77b4;stroke:#ffffff;stroke-width:0.75;" x="114.334638" xlink:href="#mb36e343377" y="42.403903"/>
     <use style="fill:#1f77b4;stroke:#ffffff;stroke-width:0.75;" x="121.469903" xlink:href="#mb36e343377" y="41.618023"/>
     <use style="fill:#1f77b4;stroke:#ffffff;stroke-width:0.75;" x="128.605168" xlink:href="#mb36e343377" y="41.225083"/>
     <use style="fill:#1f77b4;stroke:#ffffff;stroke-width:0.75;" x="135.740433" xlink:href="#mb36e343377" y="41.159593"/>
     <use style="fill:#1f77b4;stroke:#ffffff;stroke-width:0.75;" x="142.875697" xlink:href="#mb36e343377" y="40.897633"/>
     <use style="fill:#1f77b4;stroke:#ffffff;stroke-width:0.75;" x="150.010962" xlink:href="#mb36e343377" y="40.504693"/>
     <use style="fill:#1f77b4;stroke:#ffffff;stroke-width:0.75;" x="157.146227" xlink:href="#mb36e343377" y="40.373714"/>
     <use style="fill:#1f77b4;stroke:#ffffff;stroke-width:0.75;" x="164.281492" xlink:href="#mb36e343377" y="40.177244"/>
     <use style="fill:#1f77b4;stroke:#ffffff;stroke-width:0.75;" x="171.416756" xlink:href="#mb36e343377" y="39.849794"/>
     <use style="fill:#1f77b4;stroke:#ffffff;stroke-width:0.75;" x="178.552021" xlink:href="#mb36e343377" y="39.587834"/>
     <use style="fill:#1f77b4;stroke:#ffffff;stroke-width:0.75;" x="185.687286" xlink:href="#mb36e343377" y="39.522344"/>
     <use style="fill:#1f77b4;stroke:#ffffff;stroke-width:0.75;" x="192.822551" xlink:href="#mb36e343377" y="39.260384"/>
     <use style="fill:#1f77b4;stroke:#ffffff;stroke-width:0.75;" x="199.957815" xlink:href="#mb36e343377" y="38.932934"/>
     <use style="fill:#1f77b4;stroke:#ffffff;stroke-width:0.75;" x="207.09308" xlink:href="#mb36e343377" y="38.867444"/>
     <use style="fill:#1f77b4;stroke:#ffffff;stroke-width:0.75;" x="214.228345" xlink:href="#mb36e343377" y="38.867444"/>
     <use style="fill:#1f77b4;stroke:#ffffff;stroke-width:0.75;" x="221.36361" xlink:href="#mb36e343377" y="38.801954"/>
     <use style="fill:#1f77b4;stroke:#ffffff;stroke-width:0.75;" x="228.498874" xlink:href="#mb36e343377" y="38.801954"/>
     <use style="fill:#1f77b4;stroke:#ffffff;stroke-width:0.75;" x="235.634139" xlink:href="#mb36e343377" y="38.801954"/>
     <use style="fill:#1f77b4;stroke:#ffffff;stroke-width:0.75;" x="242.769404" xlink:href="#mb36e343377" y="38.670974"/>
     <use style="fill:#1f77b4;stroke:#ffffff;stroke-width:0.75;" x="249.904668" xlink:href="#mb36e343377" y="38.670974"/>
     <use style="fill:#1f77b4;stroke:#ffffff;stroke-width:0.75;" x="257.039933" xlink:href="#mb36e343377" y="38.670974"/>
     <use style="fill:#1f77b4;stroke:#ffffff;stroke-width:0.75;" x="264.175198" xlink:href="#mb36e343377" y="38.670974"/>
     <use style="fill:#1f77b4;stroke:#ffffff;stroke-width:0.75;" x="271.310463" xlink:href="#mb36e343377" y="38.670974"/>
     <use style="fill:#1f77b4;stroke:#ffffff;stroke-width:0.75;" x="278.445727" xlink:href="#mb36e343377" y="38.605484"/>
     <use style="fill:#1f77b4;stroke:#ffffff;stroke-width:0.75;" x="285.580992" xlink:href="#mb36e343377" y="38.474504"/>
     <use style="fill:#1f77b4;stroke:#ffffff;stroke-width:0.75;" x="292.716257" xlink:href="#mb36e343377" y="38.474504"/>
     <use style="fill:#1f77b4;stroke:#ffffff;stroke-width:0.75;" x="299.851522" xlink:href="#mb36e343377" y="38.409014"/>
     <use style="fill:#1f77b4;stroke:#ffffff;stroke-width:0.75;" x="306.986786" xlink:href="#mb36e343377" y="38.409014"/>
     <use style="fill:#1f77b4;stroke:#ffffff;stroke-width:0.75;" x="314.122051" xlink:href="#mb36e343377" y="38.212544"/>
     <use style="fill:#1f77b4;stroke:#ffffff;stroke-width:0.75;" x="321.257316" xlink:href="#mb36e343377" y="38.212544"/>
     <use style="fill:#1f77b4;stroke:#ffffff;stroke-width:0.75;" x="328.392581" xlink:href="#mb36e343377" y="38.212544"/>
     <use style="fill:#1f77b4;stroke:#ffffff;stroke-width:0.75;" x="335.527845" xlink:href="#mb36e343377" y="38.212544"/>
     <use style="fill:#1f77b4;stroke:#ffffff;stroke-width:0.75;" x="342.66311" xlink:href="#mb36e343377" y="37.819604"/>
     <use style="fill:#1f77b4;stroke:#ffffff;stroke-width:0.75;" x="349.798375" xlink:href="#mb36e343377" y="37.819604"/>
     <use style="fill:#1f77b4;stroke:#ffffff;stroke-width:0.75;" x="356.933639" xlink:href="#mb36e343377" y="37.754114"/>
     <use style="fill:#1f77b4;stroke:#ffffff;stroke-width:0.75;" x="364.068904" xlink:href="#mb36e343377" y="37.623134"/>
     <use style="fill:#1f77b4;stroke:#ffffff;stroke-width:0.75;" x="371.204169" xlink:href="#mb36e343377" y="37.623134"/>
     <use style="fill:#1f77b4;stroke:#ffffff;stroke-width:0.75;" x="378.339434" xlink:href="#mb36e343377" y="37.426664"/>
     <use style="fill:#1f77b4;stroke:#ffffff;stroke-width:0.75;" x="385.474698" xlink:href="#mb36e343377" y="37.426664"/>
     <use style="fill:#1f77b4;stroke:#ffffff;stroke-width:0.75;" x="392.609963" xlink:href="#mb36e343377" y="37.426664"/>
     <use style="fill:#1f77b4;stroke:#ffffff;stroke-width:0.75;" x="399.745228" xlink:href="#mb36e343377" y="37.426664"/>
     <use style="fill:#1f77b4;stroke:#ffffff;stroke-width:0.75;" x="406.880493" xlink:href="#mb36e343377" y="37.426664"/>
     <use style="fill:#1f77b4;stroke:#ffffff;stroke-width:0.75;" x="414.015757" xlink:href="#mb36e343377" y="37.426664"/>
     <use style="fill:#1f77b4;stroke:#ffffff;stroke-width:0.75;" x="421.151022" xlink:href="#mb36e343377" y="37.426664"/>
     <use style="fill:#1f77b4;stroke:#ffffff;stroke-width:0.75;" x="428.286287" xlink:href="#mb36e343377" y="37.426664"/>
     <use style="fill:#1f77b4;stroke:#ffffff;stroke-width:0.75;" x="435.421552" xlink:href="#mb36e343377" y="37.426664"/>
     <use style="fill:#1f77b4;stroke:#ffffff;stroke-width:0.75;" x="442.556816" xlink:href="#mb36e343377" y="37.426664"/>
     <use style="fill:#1f77b4;stroke:#ffffff;stroke-width:0.75;" x="449.692081" xlink:href="#mb36e343377" y="37.426664"/>
     <use style="fill:#1f77b4;stroke:#ffffff;stroke-width:0.75;" x="456.827346" xlink:href="#mb36e343377" y="37.426664"/>
     <use style="fill:#1f77b4;stroke:#ffffff;stroke-width:0.75;" x="463.962611" xlink:href="#mb36e343377" y="37.426664"/>
     <use style="fill:#1f77b4;stroke:#ffffff;stroke-width:0.75;" x="471.097875" xlink:href="#mb36e343377" y="37.426664"/>
     <use style="fill:#1f77b4;stroke:#ffffff;stroke-width:0.75;" x="478.23314" xlink:href="#mb36e343377" y="37.230194"/>
     <use style="fill:#1f77b4;stroke:#ffffff;stroke-width:0.75;" x="485.368405" xlink:href="#mb36e343377" y="37.230194"/>
     <use style="fill:#1f77b4;stroke:#ffffff;stroke-width:0.75;" x="492.503669" xlink:href="#mb36e343377" y="37.230194"/>
     <use style="fill:#1f77b4;stroke:#ffffff;stroke-width:0.75;" x="499.638934" xlink:href="#mb36e343377" y="37.230194"/>
     <use style="fill:#1f77b4;stroke:#ffffff;stroke-width:0.75;" x="506.774199" xlink:href="#mb36e343377" y="37.230194"/>
     <use style="fill:#1f77b4;stroke:#ffffff;stroke-width:0.75;" x="513.909464" xlink:href="#mb36e343377" y="37.230194"/>
     <use style="fill:#1f77b4;stroke:#ffffff;stroke-width:0.75;" x="521.044728" xlink:href="#mb36e343377" y="37.164704"/>
     <use style="fill:#1f77b4;stroke:#ffffff;stroke-width:0.75;" x="528.179993" xlink:href="#mb36e343377" y="37.164704"/>
     <use style="fill:#1f77b4;stroke:#ffffff;stroke-width:0.75;" x="535.315258" xlink:href="#mb36e343377" y="37.164704"/>
     <use style="fill:#1f77b4;stroke:#ffffff;stroke-width:0.75;" x="542.450523" xlink:href="#mb36e343377" y="37.164704"/>
     <use style="fill:#1f77b4;stroke:#ffffff;stroke-width:0.75;" x="549.585787" xlink:href="#mb36e343377" y="37.164704"/>
     <use style="fill:#1f77b4;stroke:#ffffff;stroke-width:0.75;" x="556.721052" xlink:href="#mb36e343377" y="37.099214"/>
     <use style="fill:#1f77b4;stroke:#ffffff;stroke-width:0.75;" x="563.856317" xlink:href="#mb36e343377" y="37.099214"/>
     <use style="fill:#1f77b4;stroke:#ffffff;stroke-width:0.75;" x="570.991582" xlink:href="#mb36e343377" y="36.444314"/>
     <use style="fill:#1f77b4;stroke:#ffffff;stroke-width:0.75;" x="578.126846" xlink:href="#mb36e343377" y="36.444314"/>
     <use style="fill:#1f77b4;stroke:#ffffff;stroke-width:0.75;" x="585.262111" xlink:href="#mb36e343377" y="36.444314"/>
     <use style="fill:#1f77b4;stroke:#ffffff;stroke-width:0.75;" x="592.397376" xlink:href="#mb36e343377" y="36.444314"/>
     <use style="fill:#1f77b4;stroke:#ffffff;stroke-width:0.75;" x="599.53264" xlink:href="#mb36e343377" y="36.444314"/>
     <use style="fill:#1f77b4;stroke:#ffffff;stroke-width:0.75;" x="606.667905" xlink:href="#mb36e343377" y="36.378825"/>
     <use style="fill:#1f77b4;stroke:#ffffff;stroke-width:0.75;" x="613.80317" xlink:href="#mb36e343377" y="36.378825"/>
     <use style="fill:#1f77b4;stroke:#ffffff;stroke-width:0.75;" x="620.938435" xlink:href="#mb36e343377" y="36.378825"/>
     <use style="fill:#1f77b4;stroke:#ffffff;stroke-width:0.75;" x="628.073699" xlink:href="#mb36e343377" y="36.378825"/>
     <use style="fill:#1f77b4;stroke:#ffffff;stroke-width:0.75;" x="635.208964" xlink:href="#mb36e343377" y="36.247845"/>
     <use style="fill:#1f77b4;stroke:#ffffff;stroke-width:0.75;" x="642.344229" xlink:href="#mb36e343377" y="35.658435"/>
     <use style="fill:#1f77b4;stroke:#ffffff;stroke-width:0.75;" x="649.479494" xlink:href="#mb36e343377" y="35.658435"/>
     <use style="fill:#1f77b4;stroke:#ffffff;stroke-width:0.75;" x="656.614758" xlink:href="#mb36e343377" y="35.658435"/>
     <use style="fill:#1f77b4;stroke:#ffffff;stroke-width:0.75;" x="663.750023" xlink:href="#mb36e343377" y="35.658435"/>
     <use style="fill:#1f77b4;stroke:#ffffff;stroke-width:0.75;" x="670.885288" xlink:href="#mb36e343377" y="35.658435"/>
     <use style="fill:#1f77b4;stroke:#ffffff;stroke-width:0.75;" x="678.020553" xlink:href="#mb36e343377" y="35.527455"/>
     <use style="fill:#1f77b4;stroke:#ffffff;stroke-width:0.75;" x="685.155817" xlink:href="#mb36e343377" y="35.527455"/>
     <use style="fill:#1f77b4;stroke:#ffffff;stroke-width:0.75;" x="692.291082" xlink:href="#mb36e343377" y="35.527455"/>
     <use style="fill:#1f77b4;stroke:#ffffff;stroke-width:0.75;" x="699.426347" xlink:href="#mb36e343377" y="35.527455"/>
     <use style="fill:#1f77b4;stroke:#ffffff;stroke-width:0.75;" x="706.561612" xlink:href="#mb36e343377" y="35.527455"/>
     <use style="fill:#1f77b4;stroke:#ffffff;stroke-width:0.75;" x="713.696876" xlink:href="#mb36e343377" y="35.527455"/>
     <use style="fill:#1f77b4;stroke:#ffffff;stroke-width:0.75;" x="720.832141" xlink:href="#mb36e343377" y="35.527455"/>
     <use style="fill:#1f77b4;stroke:#ffffff;stroke-width:0.75;" x="727.967406" xlink:href="#mb36e343377" y="35.527455"/>
     <use style="fill:#1f77b4;stroke:#ffffff;stroke-width:0.75;" x="735.10267" xlink:href="#mb36e343377" y="35.527455"/>
    </g>
   </g>
   <g id="line2d_22">
    <path clip-path="url(#p1d4efef596)" d="M 85.79358 59.889729 
L 92.928844 56.41876 
L 100.064109 49.935251 
L 107.199374 47.184672 
L 114.334638 45.743892 
L 121.469903 44.827032 
L 128.605168 44.434093 
L 135.740433 43.517233 
L 142.875697 42.796843 
L 150.010962 42.338413 
L 157.146227 41.879983 
L 164.281492 41.356063 
L 171.416756 40.897633 
L 178.552021 40.832143 
L 185.687286 40.832143 
L 192.822551 40.832143 
L 199.957815 40.832143 
L 207.09308 40.570183 
L 214.228345 40.439204 
L 221.36361 40.242734 
L 228.498874 39.915284 
L 235.634139 39.915284 
L 242.769404 39.915284 
L 249.904668 39.784304 
L 257.039933 39.587834 
L 264.175198 39.522344 
L 271.310463 39.522344 
L 278.445727 39.522344 
L 285.580992 39.522344 
L 292.716257 39.522344 
L 299.851522 39.194894 
L 306.986786 39.194894 
L 314.122051 39.063914 
L 321.257316 39.063914 
L 328.392581 39.063914 
L 335.527845 39.063914 
L 342.66311 39.063914 
L 349.798375 39.063914 
L 356.933639 38.605484 
L 364.068904 38.474504 
L 371.204169 38.474504 
L 378.339434 38.474504 
L 385.474698 38.409014 
L 392.609963 38.343524 
L 399.745228 38.278034 
L 406.880493 38.278034 
L 414.015757 38.212544 
L 421.151022 38.212544 
L 428.286287 38.212544 
L 435.421552 38.212544 
L 442.556816 37.950584 
L 449.692081 37.819604 
L 456.827346 37.688624 
L 463.962611 37.557644 
L 471.097875 37.557644 
L 478.23314 37.492154 
L 485.368405 37.492154 
L 492.503669 37.492154 
L 499.638934 37.361174 
L 506.774199 37.361174 
L 513.909464 37.361174 
L 521.044728 37.230194 
L 528.179993 37.230194 
L 535.315258 37.230194 
L 542.450523 37.230194 
L 549.585787 37.230194 
L 556.721052 37.230194 
L 563.856317 37.230194 
L 570.991582 37.230194 
L 578.126846 37.230194 
L 585.262111 36.575294 
L 592.397376 36.247845 
L 599.53264 36.247845 
L 606.667905 36.247845 
L 613.80317 36.247845 
L 620.938435 36.247845 
L 628.073699 36.247845 
L 635.208964 36.247845 
L 642.344229 36.247845 
L 649.479494 35.592945 
L 656.614758 35.592945 
L 663.750023 35.592945 
L 670.885288 35.592945 
L 678.020553 35.592945 
L 685.155817 35.592945 
L 692.291082 35.592945 
L 699.426347 35.592945 
L 706.561612 35.592945 
L 713.696876 35.592945 
L 720.832141 35.592945 
L 727.967406 35.592945 
L 735.10267 35.592945 
" style="fill:none;stroke:#98df8a;stroke-linecap:square;stroke-width:1.5;"/>
    <defs>
     <path d="M -0 3 
L 3 -3 
L -3 -3 
z
" id="m267c179245" style="stroke:#ffffff;stroke-linejoin:miter;stroke-width:0.75;"/>
    </defs>
    <g clip-path="url(#p1d4efef596)">
     <use style="fill:#98df8a;stroke:#ffffff;stroke-linejoin:miter;stroke-width:0.75;" x="85.79358" xlink:href="#m267c179245" y="59.889729"/>
     <use style="fill:#98df8a;stroke:#ffffff;stroke-linejoin:miter;stroke-width:0.75;" x="92.928844" xlink:href="#m267c179245" y="56.41876"/>
     <use style="fill:#98df8a;stroke:#ffffff;stroke-linejoin:miter;stroke-width:0.75;" x="100.064109" xlink:href="#m267c179245" y="49.935251"/>
     <use style="fill:#98df8a;stroke:#ffffff;stroke-linejoin:miter;stroke-width:0.75;" x="107.199374" xlink:href="#m267c179245" y="47.184672"/>
     <use style="fill:#98df8a;stroke:#ffffff;stroke-linejoin:miter;stroke-width:0.75;" x="114.334638" xlink:href="#m267c179245" y="45.743892"/>
     <use style="fill:#98df8a;stroke:#ffffff;stroke-linejoin:miter;stroke-width:0.75;" x="121.469903" xlink:href="#m267c179245" y="44.827032"/>
     <use style="fill:#98df8a;stroke:#ffffff;stroke-linejoin:miter;stroke-width:0.75;" x="128.605168" xlink:href="#m267c179245" y="44.434093"/>
     <use style="fill:#98df8a;stroke:#ffffff;stroke-linejoin:miter;stroke-width:0.75;" x="135.740433" xlink:href="#m267c179245" y="43.517233"/>
     <use style="fill:#98df8a;stroke:#ffffff;stroke-linejoin:miter;stroke-width:0.75;" x="142.875697" xlink:href="#m267c179245" y="42.796843"/>
     <use style="fill:#98df8a;stroke:#ffffff;stroke-linejoin:miter;stroke-width:0.75;" x="150.010962" xlink:href="#m267c179245" y="42.338413"/>
     <use style="fill:#98df8a;stroke:#ffffff;stroke-linejoin:miter;stroke-width:0.75;" x="157.146227" xlink:href="#m267c179245" y="41.879983"/>
     <use style="fill:#98df8a;stroke:#ffffff;stroke-linejoin:miter;stroke-width:0.75;" x="164.281492" xlink:href="#m267c179245" y="41.356063"/>
     <use style="fill:#98df8a;stroke:#ffffff;stroke-linejoin:miter;stroke-width:0.75;" x="171.416756" xlink:href="#m267c179245" y="40.897633"/>
     <use style="fill:#98df8a;stroke:#ffffff;stroke-linejoin:miter;stroke-width:0.75;" x="178.552021" xlink:href="#m267c179245" y="40.832143"/>
     <use style="fill:#98df8a;stroke:#ffffff;stroke-linejoin:miter;stroke-width:0.75;" x="185.687286" xlink:href="#m267c179245" y="40.832143"/>
     <use style="fill:#98df8a;stroke:#ffffff;stroke-linejoin:miter;stroke-width:0.75;" x="192.822551" xlink:href="#m267c179245" y="40.832143"/>
     <use style="fill:#98df8a;stroke:#ffffff;stroke-linejoin:miter;stroke-width:0.75;" x="199.957815" xlink:href="#m267c179245" y="40.832143"/>
     <use style="fill:#98df8a;stroke:#ffffff;stroke-linejoin:miter;stroke-width:0.75;" x="207.09308" xlink:href="#m267c179245" y="40.570183"/>
     <use style="fill:#98df8a;stroke:#ffffff;stroke-linejoin:miter;stroke-width:0.75;" x="214.228345" xlink:href="#m267c179245" y="40.439204"/>
     <use style="fill:#98df8a;stroke:#ffffff;stroke-linejoin:miter;stroke-width:0.75;" x="221.36361" xlink:href="#m267c179245" y="40.242734"/>
     <use style="fill:#98df8a;stroke:#ffffff;stroke-linejoin:miter;stroke-width:0.75;" x="228.498874" xlink:href="#m267c179245" y="39.915284"/>
     <use style="fill:#98df8a;stroke:#ffffff;stroke-linejoin:miter;stroke-width:0.75;" x="235.634139" xlink:href="#m267c179245" y="39.915284"/>
     <use style="fill:#98df8a;stroke:#ffffff;stroke-linejoin:miter;stroke-width:0.75;" x="242.769404" xlink:href="#m267c179245" y="39.915284"/>
     <use style="fill:#98df8a;stroke:#ffffff;stroke-linejoin:miter;stroke-width:0.75;" x="249.904668" xlink:href="#m267c179245" y="39.784304"/>
     <use style="fill:#98df8a;stroke:#ffffff;stroke-linejoin:miter;stroke-width:0.75;" x="257.039933" xlink:href="#m267c179245" y="39.587834"/>
     <use style="fill:#98df8a;stroke:#ffffff;stroke-linejoin:miter;stroke-width:0.75;" x="264.175198" xlink:href="#m267c179245" y="39.522344"/>
     <use style="fill:#98df8a;stroke:#ffffff;stroke-linejoin:miter;stroke-width:0.75;" x="271.310463" xlink:href="#m267c179245" y="39.522344"/>
     <use style="fill:#98df8a;stroke:#ffffff;stroke-linejoin:miter;stroke-width:0.75;" x="278.445727" xlink:href="#m267c179245" y="39.522344"/>
     <use style="fill:#98df8a;stroke:#ffffff;stroke-linejoin:miter;stroke-width:0.75;" x="285.580992" xlink:href="#m267c179245" y="39.522344"/>
     <use style="fill:#98df8a;stroke:#ffffff;stroke-linejoin:miter;stroke-width:0.75;" x="292.716257" xlink:href="#m267c179245" y="39.522344"/>
     <use style="fill:#98df8a;stroke:#ffffff;stroke-linejoin:miter;stroke-width:0.75;" x="299.851522" xlink:href="#m267c179245" y="39.194894"/>
     <use style="fill:#98df8a;stroke:#ffffff;stroke-linejoin:miter;stroke-width:0.75;" x="306.986786" xlink:href="#m267c179245" y="39.194894"/>
     <use style="fill:#98df8a;stroke:#ffffff;stroke-linejoin:miter;stroke-width:0.75;" x="314.122051" xlink:href="#m267c179245" y="39.063914"/>
     <use style="fill:#98df8a;stroke:#ffffff;stroke-linejoin:miter;stroke-width:0.75;" x="321.257316" xlink:href="#m267c179245" y="39.063914"/>
     <use style="fill:#98df8a;stroke:#ffffff;stroke-linejoin:miter;stroke-width:0.75;" x="328.392581" xlink:href="#m267c179245" y="39.063914"/>
     <use style="fill:#98df8a;stroke:#ffffff;stroke-linejoin:miter;stroke-width:0.75;" x="335.527845" xlink:href="#m267c179245" y="39.063914"/>
     <use style="fill:#98df8a;stroke:#ffffff;stroke-linejoin:miter;stroke-width:0.75;" x="342.66311" xlink:href="#m267c179245" y="39.063914"/>
     <use style="fill:#98df8a;stroke:#ffffff;stroke-linejoin:miter;stroke-width:0.75;" x="349.798375" xlink:href="#m267c179245" y="39.063914"/>
     <use style="fill:#98df8a;stroke:#ffffff;stroke-linejoin:miter;stroke-width:0.75;" x="356.933639" xlink:href="#m267c179245" y="38.605484"/>
     <use style="fill:#98df8a;stroke:#ffffff;stroke-linejoin:miter;stroke-width:0.75;" x="364.068904" xlink:href="#m267c179245" y="38.474504"/>
     <use style="fill:#98df8a;stroke:#ffffff;stroke-linejoin:miter;stroke-width:0.75;" x="371.204169" xlink:href="#m267c179245" y="38.474504"/>
     <use style="fill:#98df8a;stroke:#ffffff;stroke-linejoin:miter;stroke-width:0.75;" x="378.339434" xlink:href="#m267c179245" y="38.474504"/>
     <use style="fill:#98df8a;stroke:#ffffff;stroke-linejoin:miter;stroke-width:0.75;" x="385.474698" xlink:href="#m267c179245" y="38.409014"/>
     <use style="fill:#98df8a;stroke:#ffffff;stroke-linejoin:miter;stroke-width:0.75;" x="392.609963" xlink:href="#m267c179245" y="38.343524"/>
     <use style="fill:#98df8a;stroke:#ffffff;stroke-linejoin:miter;stroke-width:0.75;" x="399.745228" xlink:href="#m267c179245" y="38.278034"/>
     <use style="fill:#98df8a;stroke:#ffffff;stroke-linejoin:miter;stroke-width:0.75;" x="406.880493" xlink:href="#m267c179245" y="38.278034"/>
     <use style="fill:#98df8a;stroke:#ffffff;stroke-linejoin:miter;stroke-width:0.75;" x="414.015757" xlink:href="#m267c179245" y="38.212544"/>
     <use style="fill:#98df8a;stroke:#ffffff;stroke-linejoin:miter;stroke-width:0.75;" x="421.151022" xlink:href="#m267c179245" y="38.212544"/>
     <use style="fill:#98df8a;stroke:#ffffff;stroke-linejoin:miter;stroke-width:0.75;" x="428.286287" xlink:href="#m267c179245" y="38.212544"/>
     <use style="fill:#98df8a;stroke:#ffffff;stroke-linejoin:miter;stroke-width:0.75;" x="435.421552" xlink:href="#m267c179245" y="38.212544"/>
     <use style="fill:#98df8a;stroke:#ffffff;stroke-linejoin:miter;stroke-width:0.75;" x="442.556816" xlink:href="#m267c179245" y="37.950584"/>
     <use style="fill:#98df8a;stroke:#ffffff;stroke-linejoin:miter;stroke-width:0.75;" x="449.692081" xlink:href="#m267c179245" y="37.819604"/>
     <use style="fill:#98df8a;stroke:#ffffff;stroke-linejoin:miter;stroke-width:0.75;" x="456.827346" xlink:href="#m267c179245" y="37.688624"/>
     <use style="fill:#98df8a;stroke:#ffffff;stroke-linejoin:miter;stroke-width:0.75;" x="463.962611" xlink:href="#m267c179245" y="37.557644"/>
     <use style="fill:#98df8a;stroke:#ffffff;stroke-linejoin:miter;stroke-width:0.75;" x="471.097875" xlink:href="#m267c179245" y="37.557644"/>
     <use style="fill:#98df8a;stroke:#ffffff;stroke-linejoin:miter;stroke-width:0.75;" x="478.23314" xlink:href="#m267c179245" y="37.492154"/>
     <use style="fill:#98df8a;stroke:#ffffff;stroke-linejoin:miter;stroke-width:0.75;" x="485.368405" xlink:href="#m267c179245" y="37.492154"/>
     <use style="fill:#98df8a;stroke:#ffffff;stroke-linejoin:miter;stroke-width:0.75;" x="492.503669" xlink:href="#m267c179245" y="37.492154"/>
     <use style="fill:#98df8a;stroke:#ffffff;stroke-linejoin:miter;stroke-width:0.75;" x="499.638934" xlink:href="#m267c179245" y="37.361174"/>
     <use style="fill:#98df8a;stroke:#ffffff;stroke-linejoin:miter;stroke-width:0.75;" x="506.774199" xlink:href="#m267c179245" y="37.361174"/>
     <use style="fill:#98df8a;stroke:#ffffff;stroke-linejoin:miter;stroke-width:0.75;" x="513.909464" xlink:href="#m267c179245" y="37.361174"/>
     <use style="fill:#98df8a;stroke:#ffffff;stroke-linejoin:miter;stroke-width:0.75;" x="521.044728" xlink:href="#m267c179245" y="37.230194"/>
     <use style="fill:#98df8a;stroke:#ffffff;stroke-linejoin:miter;stroke-width:0.75;" x="528.179993" xlink:href="#m267c179245" y="37.230194"/>
     <use style="fill:#98df8a;stroke:#ffffff;stroke-linejoin:miter;stroke-width:0.75;" x="535.315258" xlink:href="#m267c179245" y="37.230194"/>
     <use style="fill:#98df8a;stroke:#ffffff;stroke-linejoin:miter;stroke-width:0.75;" x="542.450523" xlink:href="#m267c179245" y="37.230194"/>
     <use style="fill:#98df8a;stroke:#ffffff;stroke-linejoin:miter;stroke-width:0.75;" x="549.585787" xlink:href="#m267c179245" y="37.230194"/>
     <use style="fill:#98df8a;stroke:#ffffff;stroke-linejoin:miter;stroke-width:0.75;" x="556.721052" xlink:href="#m267c179245" y="37.230194"/>
     <use style="fill:#98df8a;stroke:#ffffff;stroke-linejoin:miter;stroke-width:0.75;" x="563.856317" xlink:href="#m267c179245" y="37.230194"/>
     <use style="fill:#98df8a;stroke:#ffffff;stroke-linejoin:miter;stroke-width:0.75;" x="570.991582" xlink:href="#m267c179245" y="37.230194"/>
     <use style="fill:#98df8a;stroke:#ffffff;stroke-linejoin:miter;stroke-width:0.75;" x="578.126846" xlink:href="#m267c179245" y="37.230194"/>
     <use style="fill:#98df8a;stroke:#ffffff;stroke-linejoin:miter;stroke-width:0.75;" x="585.262111" xlink:href="#m267c179245" y="36.575294"/>
     <use style="fill:#98df8a;stroke:#ffffff;stroke-linejoin:miter;stroke-width:0.75;" x="592.397376" xlink:href="#m267c179245" y="36.247845"/>
     <use style="fill:#98df8a;stroke:#ffffff;stroke-linejoin:miter;stroke-width:0.75;" x="599.53264" xlink:href="#m267c179245" y="36.247845"/>
     <use style="fill:#98df8a;stroke:#ffffff;stroke-linejoin:miter;stroke-width:0.75;" x="606.667905" xlink:href="#m267c179245" y="36.247845"/>
     <use style="fill:#98df8a;stroke:#ffffff;stroke-linejoin:miter;stroke-width:0.75;" x="613.80317" xlink:href="#m267c179245" y="36.247845"/>
     <use style="fill:#98df8a;stroke:#ffffff;stroke-linejoin:miter;stroke-width:0.75;" x="620.938435" xlink:href="#m267c179245" y="36.247845"/>
     <use style="fill:#98df8a;stroke:#ffffff;stroke-linejoin:miter;stroke-width:0.75;" x="628.073699" xlink:href="#m267c179245" y="36.247845"/>
     <use style="fill:#98df8a;stroke:#ffffff;stroke-linejoin:miter;stroke-width:0.75;" x="635.208964" xlink:href="#m267c179245" y="36.247845"/>
     <use style="fill:#98df8a;stroke:#ffffff;stroke-linejoin:miter;stroke-width:0.75;" x="642.344229" xlink:href="#m267c179245" y="36.247845"/>
     <use style="fill:#98df8a;stroke:#ffffff;stroke-linejoin:miter;stroke-width:0.75;" x="649.479494" xlink:href="#m267c179245" y="35.592945"/>
     <use style="fill:#98df8a;stroke:#ffffff;stroke-linejoin:miter;stroke-width:0.75;" x="656.614758" xlink:href="#m267c179245" y="35.592945"/>
     <use style="fill:#98df8a;stroke:#ffffff;stroke-linejoin:miter;stroke-width:0.75;" x="663.750023" xlink:href="#m267c179245" y="35.592945"/>
     <use style="fill:#98df8a;stroke:#ffffff;stroke-linejoin:miter;stroke-width:0.75;" x="670.885288" xlink:href="#m267c179245" y="35.592945"/>
     <use style="fill:#98df8a;stroke:#ffffff;stroke-linejoin:miter;stroke-width:0.75;" x="678.020553" xlink:href="#m267c179245" y="35.592945"/>
     <use style="fill:#98df8a;stroke:#ffffff;stroke-linejoin:miter;stroke-width:0.75;" x="685.155817" xlink:href="#m267c179245" y="35.592945"/>
     <use style="fill:#98df8a;stroke:#ffffff;stroke-linejoin:miter;stroke-width:0.75;" x="692.291082" xlink:href="#m267c179245" y="35.592945"/>
     <use style="fill:#98df8a;stroke:#ffffff;stroke-linejoin:miter;stroke-width:0.75;" x="699.426347" xlink:href="#m267c179245" y="35.592945"/>
     <use style="fill:#98df8a;stroke:#ffffff;stroke-linejoin:miter;stroke-width:0.75;" x="706.561612" xlink:href="#m267c179245" y="35.592945"/>
     <use style="fill:#98df8a;stroke:#ffffff;stroke-linejoin:miter;stroke-width:0.75;" x="713.696876" xlink:href="#m267c179245" y="35.592945"/>
     <use style="fill:#98df8a;stroke:#ffffff;stroke-linejoin:miter;stroke-width:0.75;" x="720.832141" xlink:href="#m267c179245" y="35.592945"/>
     <use style="fill:#98df8a;stroke:#ffffff;stroke-linejoin:miter;stroke-width:0.75;" x="727.967406" xlink:href="#m267c179245" y="35.592945"/>
     <use style="fill:#98df8a;stroke:#ffffff;stroke-linejoin:miter;stroke-width:0.75;" x="735.10267" xlink:href="#m267c179245" y="35.592945"/>
    </g>
   </g>
   <g id="line2d_23">
    <path clip-path="url(#p1d4efef596)" d="M 85.79358 56.41876 
L 92.928844 50.786621 
L 100.064109 45.809382 
L 107.199374 45.154482 
L 114.334638 43.779193 
L 121.469903 42.993313 
L 128.605168 42.665863 
L 135.740433 42.076453 
L 142.875697 41.683513 
L 150.010962 41.028613 
L 157.146227 40.766653 
L 164.281492 40.635673 
L 171.416756 40.111754 
L 178.552021 39.784304 
L 185.687286 39.784304 
L 192.822551 39.522344 
L 199.957815 39.522344 
L 207.09308 39.391364 
L 214.228345 39.325874 
L 221.36361 39.325874 
L 228.498874 39.194894 
L 235.634139 39.194894 
L 242.769404 39.194894 
L 249.904668 39.129404 
L 257.039933 38.932934 
L 264.175198 38.932934 
L 271.310463 38.801954 
L 278.445727 38.801954 
L 285.580992 38.801954 
L 292.716257 38.801954 
L 299.851522 38.670974 
L 306.986786 38.670974 
L 314.122051 38.670974 
L 321.257316 38.670974 
L 328.392581 38.670974 
L 335.527845 38.670974 
L 342.66311 38.670974 
L 349.798375 38.670974 
L 356.933639 38.670974 
L 364.068904 38.670974 
L 371.204169 38.147054 
L 378.339434 38.147054 
L 385.474698 38.147054 
L 392.609963 38.147054 
L 399.745228 37.819604 
L 406.880493 37.819604 
L 414.015757 37.819604 
L 421.151022 37.688624 
L 428.286287 37.688624 
L 435.421552 37.688624 
L 442.556816 37.688624 
L 449.692081 37.688624 
L 456.827346 37.688624 
L 463.962611 37.557644 
L 471.097875 37.557644 
L 478.23314 37.557644 
L 485.368405 37.557644 
L 492.503669 37.557644 
L 499.638934 37.557644 
L 506.774199 37.557644 
L 513.909464 37.492154 
L 521.044728 36.902744 
L 528.179993 36.902744 
L 535.315258 36.902744 
L 542.450523 36.902744 
L 549.585787 36.902744 
L 556.721052 36.771764 
L 563.856317 36.771764 
L 570.991582 36.771764 
L 578.126846 36.771764 
L 585.262111 36.771764 
L 592.397376 36.771764 
L 599.53264 36.640784 
L 606.667905 36.640784 
L 613.80317 36.640784 
L 620.938435 36.640784 
L 628.073699 36.640784 
L 635.208964 36.509804 
L 642.344229 36.509804 
L 649.479494 36.378825 
L 656.614758 36.378825 
L 663.750023 36.378825 
L 670.885288 35.330985 
L 678.020553 35.330985 
L 685.155817 35.330985 
L 692.291082 35.330985 
L 699.426347 35.330985 
L 706.561612 35.330985 
L 713.696876 35.330985 
L 720.832141 35.330985 
L 727.967406 35.330985 
L 735.10267 35.330985 
" style="fill:none;stroke:#d62728;stroke-linecap:square;stroke-width:1.5;"/>
    <defs>
     <path d="M 0 -3 
L -3 3 
L 3 3 
z
" id="md72ba74a73" style="stroke:#ffffff;stroke-linejoin:miter;stroke-width:0.75;"/>
    </defs>
    <g clip-path="url(#p1d4efef596)">
     <use style="fill:#d62728;stroke:#ffffff;stroke-linejoin:miter;stroke-width:0.75;" x="85.79358" xlink:href="#md72ba74a73" y="56.41876"/>
     <use style="fill:#d62728;stroke:#ffffff;stroke-linejoin:miter;stroke-width:0.75;" x="92.928844" xlink:href="#md72ba74a73" y="50.786621"/>
     <use style="fill:#d62728;stroke:#ffffff;stroke-linejoin:miter;stroke-width:0.75;" x="100.064109" xlink:href="#md72ba74a73" y="45.809382"/>
     <use style="fill:#d62728;stroke:#ffffff;stroke-linejoin:miter;stroke-width:0.75;" x="107.199374" xlink:href="#md72ba74a73" y="45.154482"/>
     <use style="fill:#d62728;stroke:#ffffff;stroke-linejoin:miter;stroke-width:0.75;" x="114.334638" xlink:href="#md72ba74a73" y="43.779193"/>
     <use style="fill:#d62728;stroke:#ffffff;stroke-linejoin:miter;stroke-width:0.75;" x="121.469903" xlink:href="#md72ba74a73" y="42.993313"/>
     <use style="fill:#d62728;stroke:#ffffff;stroke-linejoin:miter;stroke-width:0.75;" x="128.605168" xlink:href="#md72ba74a73" y="42.665863"/>
     <use style="fill:#d62728;stroke:#ffffff;stroke-linejoin:miter;stroke-width:0.75;" x="135.740433" xlink:href="#md72ba74a73" y="42.076453"/>
     <use style="fill:#d62728;stroke:#ffffff;stroke-linejoin:miter;stroke-width:0.75;" x="142.875697" xlink:href="#md72ba74a73" y="41.683513"/>
     <use style="fill:#d62728;stroke:#ffffff;stroke-linejoin:miter;stroke-width:0.75;" x="150.010962" xlink:href="#md72ba74a73" y="41.028613"/>
     <use style="fill:#d62728;stroke:#ffffff;stroke-linejoin:miter;stroke-width:0.75;" x="157.146227" xlink:href="#md72ba74a73" y="40.766653"/>
     <use style="fill:#d62728;stroke:#ffffff;stroke-linejoin:miter;stroke-width:0.75;" x="164.281492" xlink:href="#md72ba74a73" y="40.635673"/>
     <use style="fill:#d62728;stroke:#ffffff;stroke-linejoin:miter;stroke-width:0.75;" x="171.416756" xlink:href="#md72ba74a73" y="40.111754"/>
     <use style="fill:#d62728;stroke:#ffffff;stroke-linejoin:miter;stroke-width:0.75;" x="178.552021" xlink:href="#md72ba74a73" y="39.784304"/>
     <use style="fill:#d62728;stroke:#ffffff;stroke-linejoin:miter;stroke-width:0.75;" x="185.687286" xlink:href="#md72ba74a73" y="39.784304"/>
     <use style="fill:#d62728;stroke:#ffffff;stroke-linejoin:miter;stroke-width:0.75;" x="192.822551" xlink:href="#md72ba74a73" y="39.522344"/>
     <use style="fill:#d62728;stroke:#ffffff;stroke-linejoin:miter;stroke-width:0.75;" x="199.957815" xlink:href="#md72ba74a73" y="39.522344"/>
     <use style="fill:#d62728;stroke:#ffffff;stroke-linejoin:miter;stroke-width:0.75;" x="207.09308" xlink:href="#md72ba74a73" y="39.391364"/>
     <use style="fill:#d62728;stroke:#ffffff;stroke-linejoin:miter;stroke-width:0.75;" x="214.228345" xlink:href="#md72ba74a73" y="39.325874"/>
     <use style="fill:#d62728;stroke:#ffffff;stroke-linejoin:miter;stroke-width:0.75;" x="221.36361" xlink:href="#md72ba74a73" y="39.325874"/>
     <use style="fill:#d62728;stroke:#ffffff;stroke-linejoin:miter;stroke-width:0.75;" x="228.498874" xlink:href="#md72ba74a73" y="39.194894"/>
     <use style="fill:#d62728;stroke:#ffffff;stroke-linejoin:miter;stroke-width:0.75;" x="235.634139" xlink:href="#md72ba74a73" y="39.194894"/>
     <use style="fill:#d62728;stroke:#ffffff;stroke-linejoin:miter;stroke-width:0.75;" x="242.769404" xlink:href="#md72ba74a73" y="39.194894"/>
     <use style="fill:#d62728;stroke:#ffffff;stroke-linejoin:miter;stroke-width:0.75;" x="249.904668" xlink:href="#md72ba74a73" y="39.129404"/>
     <use style="fill:#d62728;stroke:#ffffff;stroke-linejoin:miter;stroke-width:0.75;" x="257.039933" xlink:href="#md72ba74a73" y="38.932934"/>
     <use style="fill:#d62728;stroke:#ffffff;stroke-linejoin:miter;stroke-width:0.75;" x="264.175198" xlink:href="#md72ba74a73" y="38.932934"/>
     <use style="fill:#d62728;stroke:#ffffff;stroke-linejoin:miter;stroke-width:0.75;" x="271.310463" xlink:href="#md72ba74a73" y="38.801954"/>
     <use style="fill:#d62728;stroke:#ffffff;stroke-linejoin:miter;stroke-width:0.75;" x="278.445727" xlink:href="#md72ba74a73" y="38.801954"/>
     <use style="fill:#d62728;stroke:#ffffff;stroke-linejoin:miter;stroke-width:0.75;" x="285.580992" xlink:href="#md72ba74a73" y="38.801954"/>
     <use style="fill:#d62728;stroke:#ffffff;stroke-linejoin:miter;stroke-width:0.75;" x="292.716257" xlink:href="#md72ba74a73" y="38.801954"/>
     <use style="fill:#d62728;stroke:#ffffff;stroke-linejoin:miter;stroke-width:0.75;" x="299.851522" xlink:href="#md72ba74a73" y="38.670974"/>
     <use style="fill:#d62728;stroke:#ffffff;stroke-linejoin:miter;stroke-width:0.75;" x="306.986786" xlink:href="#md72ba74a73" y="38.670974"/>
     <use style="fill:#d62728;stroke:#ffffff;stroke-linejoin:miter;stroke-width:0.75;" x="314.122051" xlink:href="#md72ba74a73" y="38.670974"/>
     <use style="fill:#d62728;stroke:#ffffff;stroke-linejoin:miter;stroke-width:0.75;" x="321.257316" xlink:href="#md72ba74a73" y="38.670974"/>
     <use style="fill:#d62728;stroke:#ffffff;stroke-linejoin:miter;stroke-width:0.75;" x="328.392581" xlink:href="#md72ba74a73" y="38.670974"/>
     <use style="fill:#d62728;stroke:#ffffff;stroke-linejoin:miter;stroke-width:0.75;" x="335.527845" xlink:href="#md72ba74a73" y="38.670974"/>
     <use style="fill:#d62728;stroke:#ffffff;stroke-linejoin:miter;stroke-width:0.75;" x="342.66311" xlink:href="#md72ba74a73" y="38.670974"/>
     <use style="fill:#d62728;stroke:#ffffff;stroke-linejoin:miter;stroke-width:0.75;" x="349.798375" xlink:href="#md72ba74a73" y="38.670974"/>
     <use style="fill:#d62728;stroke:#ffffff;stroke-linejoin:miter;stroke-width:0.75;" x="356.933639" xlink:href="#md72ba74a73" y="38.670974"/>
     <use style="fill:#d62728;stroke:#ffffff;stroke-linejoin:miter;stroke-width:0.75;" x="364.068904" xlink:href="#md72ba74a73" y="38.670974"/>
     <use style="fill:#d62728;stroke:#ffffff;stroke-linejoin:miter;stroke-width:0.75;" x="371.204169" xlink:href="#md72ba74a73" y="38.147054"/>
     <use style="fill:#d62728;stroke:#ffffff;stroke-linejoin:miter;stroke-width:0.75;" x="378.339434" xlink:href="#md72ba74a73" y="38.147054"/>
     <use style="fill:#d62728;stroke:#ffffff;stroke-linejoin:miter;stroke-width:0.75;" x="385.474698" xlink:href="#md72ba74a73" y="38.147054"/>
     <use style="fill:#d62728;stroke:#ffffff;stroke-linejoin:miter;stroke-width:0.75;" x="392.609963" xlink:href="#md72ba74a73" y="38.147054"/>
     <use style="fill:#d62728;stroke:#ffffff;stroke-linejoin:miter;stroke-width:0.75;" x="399.745228" xlink:href="#md72ba74a73" y="37.819604"/>
     <use style="fill:#d62728;stroke:#ffffff;stroke-linejoin:miter;stroke-width:0.75;" x="406.880493" xlink:href="#md72ba74a73" y="37.819604"/>
     <use style="fill:#d62728;stroke:#ffffff;stroke-linejoin:miter;stroke-width:0.75;" x="414.015757" xlink:href="#md72ba74a73" y="37.819604"/>
     <use style="fill:#d62728;stroke:#ffffff;stroke-linejoin:miter;stroke-width:0.75;" x="421.151022" xlink:href="#md72ba74a73" y="37.688624"/>
     <use style="fill:#d62728;stroke:#ffffff;stroke-linejoin:miter;stroke-width:0.75;" x="428.286287" xlink:href="#md72ba74a73" y="37.688624"/>
     <use style="fill:#d62728;stroke:#ffffff;stroke-linejoin:miter;stroke-width:0.75;" x="435.421552" xlink:href="#md72ba74a73" y="37.688624"/>
     <use style="fill:#d62728;stroke:#ffffff;stroke-linejoin:miter;stroke-width:0.75;" x="442.556816" xlink:href="#md72ba74a73" y="37.688624"/>
     <use style="fill:#d62728;stroke:#ffffff;stroke-linejoin:miter;stroke-width:0.75;" x="449.692081" xlink:href="#md72ba74a73" y="37.688624"/>
     <use style="fill:#d62728;stroke:#ffffff;stroke-linejoin:miter;stroke-width:0.75;" x="456.827346" xlink:href="#md72ba74a73" y="37.688624"/>
     <use style="fill:#d62728;stroke:#ffffff;stroke-linejoin:miter;stroke-width:0.75;" x="463.962611" xlink:href="#md72ba74a73" y="37.557644"/>
     <use style="fill:#d62728;stroke:#ffffff;stroke-linejoin:miter;stroke-width:0.75;" x="471.097875" xlink:href="#md72ba74a73" y="37.557644"/>
     <use style="fill:#d62728;stroke:#ffffff;stroke-linejoin:miter;stroke-width:0.75;" x="478.23314" xlink:href="#md72ba74a73" y="37.557644"/>
     <use style="fill:#d62728;stroke:#ffffff;stroke-linejoin:miter;stroke-width:0.75;" x="485.368405" xlink:href="#md72ba74a73" y="37.557644"/>
     <use style="fill:#d62728;stroke:#ffffff;stroke-linejoin:miter;stroke-width:0.75;" x="492.503669" xlink:href="#md72ba74a73" y="37.557644"/>
     <use style="fill:#d62728;stroke:#ffffff;stroke-linejoin:miter;stroke-width:0.75;" x="499.638934" xlink:href="#md72ba74a73" y="37.557644"/>
     <use style="fill:#d62728;stroke:#ffffff;stroke-linejoin:miter;stroke-width:0.75;" x="506.774199" xlink:href="#md72ba74a73" y="37.557644"/>
     <use style="fill:#d62728;stroke:#ffffff;stroke-linejoin:miter;stroke-width:0.75;" x="513.909464" xlink:href="#md72ba74a73" y="37.492154"/>
     <use style="fill:#d62728;stroke:#ffffff;stroke-linejoin:miter;stroke-width:0.75;" x="521.044728" xlink:href="#md72ba74a73" y="36.902744"/>
     <use style="fill:#d62728;stroke:#ffffff;stroke-linejoin:miter;stroke-width:0.75;" x="528.179993" xlink:href="#md72ba74a73" y="36.902744"/>
     <use style="fill:#d62728;stroke:#ffffff;stroke-linejoin:miter;stroke-width:0.75;" x="535.315258" xlink:href="#md72ba74a73" y="36.902744"/>
     <use style="fill:#d62728;stroke:#ffffff;stroke-linejoin:miter;stroke-width:0.75;" x="542.450523" xlink:href="#md72ba74a73" y="36.902744"/>
     <use style="fill:#d62728;stroke:#ffffff;stroke-linejoin:miter;stroke-width:0.75;" x="549.585787" xlink:href="#md72ba74a73" y="36.902744"/>
     <use style="fill:#d62728;stroke:#ffffff;stroke-linejoin:miter;stroke-width:0.75;" x="556.721052" xlink:href="#md72ba74a73" y="36.771764"/>
     <use style="fill:#d62728;stroke:#ffffff;stroke-linejoin:miter;stroke-width:0.75;" x="563.856317" xlink:href="#md72ba74a73" y="36.771764"/>
     <use style="fill:#d62728;stroke:#ffffff;stroke-linejoin:miter;stroke-width:0.75;" x="570.991582" xlink:href="#md72ba74a73" y="36.771764"/>
     <use style="fill:#d62728;stroke:#ffffff;stroke-linejoin:miter;stroke-width:0.75;" x="578.126846" xlink:href="#md72ba74a73" y="36.771764"/>
     <use style="fill:#d62728;stroke:#ffffff;stroke-linejoin:miter;stroke-width:0.75;" x="585.262111" xlink:href="#md72ba74a73" y="36.771764"/>
     <use style="fill:#d62728;stroke:#ffffff;stroke-linejoin:miter;stroke-width:0.75;" x="592.397376" xlink:href="#md72ba74a73" y="36.771764"/>
     <use style="fill:#d62728;stroke:#ffffff;stroke-linejoin:miter;stroke-width:0.75;" x="599.53264" xlink:href="#md72ba74a73" y="36.640784"/>
     <use style="fill:#d62728;stroke:#ffffff;stroke-linejoin:miter;stroke-width:0.75;" x="606.667905" xlink:href="#md72ba74a73" y="36.640784"/>
     <use style="fill:#d62728;stroke:#ffffff;stroke-linejoin:miter;stroke-width:0.75;" x="613.80317" xlink:href="#md72ba74a73" y="36.640784"/>
     <use style="fill:#d62728;stroke:#ffffff;stroke-linejoin:miter;stroke-width:0.75;" x="620.938435" xlink:href="#md72ba74a73" y="36.640784"/>
     <use style="fill:#d62728;stroke:#ffffff;stroke-linejoin:miter;stroke-width:0.75;" x="628.073699" xlink:href="#md72ba74a73" y="36.640784"/>
     <use style="fill:#d62728;stroke:#ffffff;stroke-linejoin:miter;stroke-width:0.75;" x="635.208964" xlink:href="#md72ba74a73" y="36.509804"/>
     <use style="fill:#d62728;stroke:#ffffff;stroke-linejoin:miter;stroke-width:0.75;" x="642.344229" xlink:href="#md72ba74a73" y="36.509804"/>
     <use style="fill:#d62728;stroke:#ffffff;stroke-linejoin:miter;stroke-width:0.75;" x="649.479494" xlink:href="#md72ba74a73" y="36.378825"/>
     <use style="fill:#d62728;stroke:#ffffff;stroke-linejoin:miter;stroke-width:0.75;" x="656.614758" xlink:href="#md72ba74a73" y="36.378825"/>
     <use style="fill:#d62728;stroke:#ffffff;stroke-linejoin:miter;stroke-width:0.75;" x="663.750023" xlink:href="#md72ba74a73" y="36.378825"/>
     <use style="fill:#d62728;stroke:#ffffff;stroke-linejoin:miter;stroke-width:0.75;" x="670.885288" xlink:href="#md72ba74a73" y="35.330985"/>
     <use style="fill:#d62728;stroke:#ffffff;stroke-linejoin:miter;stroke-width:0.75;" x="678.020553" xlink:href="#md72ba74a73" y="35.330985"/>
     <use style="fill:#d62728;stroke:#ffffff;stroke-linejoin:miter;stroke-width:0.75;" x="685.155817" xlink:href="#md72ba74a73" y="35.330985"/>
     <use style="fill:#d62728;stroke:#ffffff;stroke-linejoin:miter;stroke-width:0.75;" x="692.291082" xlink:href="#md72ba74a73" y="35.330985"/>
     <use style="fill:#d62728;stroke:#ffffff;stroke-linejoin:miter;stroke-width:0.75;" x="699.426347" xlink:href="#md72ba74a73" y="35.330985"/>
     <use style="fill:#d62728;stroke:#ffffff;stroke-linejoin:miter;stroke-width:0.75;" x="706.561612" xlink:href="#md72ba74a73" y="35.330985"/>
     <use style="fill:#d62728;stroke:#ffffff;stroke-linejoin:miter;stroke-width:0.75;" x="713.696876" xlink:href="#md72ba74a73" y="35.330985"/>
     <use style="fill:#d62728;stroke:#ffffff;stroke-linejoin:miter;stroke-width:0.75;" x="720.832141" xlink:href="#md72ba74a73" y="35.330985"/>
     <use style="fill:#d62728;stroke:#ffffff;stroke-linejoin:miter;stroke-width:0.75;" x="727.967406" xlink:href="#md72ba74a73" y="35.330985"/>
     <use style="fill:#d62728;stroke:#ffffff;stroke-linejoin:miter;stroke-width:0.75;" x="735.10267" xlink:href="#md72ba74a73" y="35.330985"/>
    </g>
   </g>
   <g id="line2d_24"/>
   <g id="line2d_25"/>
   <g id="line2d_26"/>
   <g id="line2d_27">
    <path clip-path="url(#p1d4efef596)" d="M 735.10267 288.430125 
L 735.10267 22.318125 
" style="fill:none;stroke:#ff0000;stroke-linecap:square;stroke-width:1.5;"/>
   </g>
   <g id="patch_3">
    <path d="M 53.328125 279.870584 
L 53.328125 50.655641 
" style="fill:none;stroke:#000000;stroke-linecap:square;stroke-linejoin:miter;stroke-width:0.8;"/>
   </g>
   <g id="patch_4">
    <path d="M 85.79358 288.430125 
L 687.534239 288.430125 
" style="fill:none;stroke:#000000;stroke-linecap:square;stroke-linejoin:miter;stroke-width:0.8;"/>
   </g>
   <g id="text_23">
    <!-- woff2-2016-05-06 (23h, 20 trials/fuzzer) -->
    <g transform="translate(290.064688 16.318125)scale(0.12 -0.12)">
     <defs>
      <path d="M 269 3500 
L 844 3500 
L 1563 769 
L 2278 3500 
L 2956 3500 
L 3675 769 
L 4391 3500 
L 4966 3500 
L 4050 0 
L 3372 0 
L 2619 2869 
L 1863 0 
L 1184 0 
L 269 3500 
z
" id="DejaVuSans-77" transform="scale(0.015625)"/>
      <path d="M 2375 4863 
L 2375 4384 
L 1825 4384 
Q 1516 4384 1395 4259 
Q 1275 4134 1275 3809 
L 1275 3500 
L 2222 3500 
L 2222 3053 
L 1275 3053 
L 1275 0 
L 697 0 
L 697 3053 
L 147 3053 
L 147 3500 
L 697 3500 
L 697 3744 
Q 697 4328 969 4595 
Q 1241 4863 1831 4863 
L 2375 4863 
z
" id="DejaVuSans-66" transform="scale(0.015625)"/>
      <path d="M 313 2009 
L 1997 2009 
L 1997 1497 
L 313 1497 
L 313 2009 
z
" id="DejaVuSans-2d" transform="scale(0.015625)"/>
      <path d="M 750 794 
L 1409 794 
L 1409 256 
L 897 -744 
L 494 -744 
L 750 256 
L 750 794 
z
" id="DejaVuSans-2c" transform="scale(0.015625)"/>
      <path d="M 603 4863 
L 1178 4863 
L 1178 0 
L 603 0 
L 603 4863 
z
" id="DejaVuSans-6c" transform="scale(0.015625)"/>
      <path d="M 2834 3397 
L 2834 2853 
Q 2591 2978 2328 3040 
Q 2066 3103 1784 3103 
Q 1356 3103 1142 2972 
Q 928 2841 928 2578 
Q 928 2378 1081 2264 
Q 1234 2150 1697 2047 
L 1894 2003 
Q 2506 1872 2764 1633 
Q 3022 1394 3022 966 
Q 3022 478 2636 193 
Q 2250 -91 1575 -91 
Q 1294 -91 989 -36 
Q 684 19 347 128 
L 347 722 
Q 666 556 975 473 
Q 1284 391 1588 391 
Q 1994 391 2212 530 
Q 2431 669 2431 922 
Q 2431 1156 2273 1281 
Q 2116 1406 1581 1522 
L 1381 1569 
Q 847 1681 609 1914 
Q 372 2147 372 2553 
Q 372 3047 722 3315 
Q 1072 3584 1716 3584 
Q 2034 3584 2315 3537 
Q 2597 3491 2834 3397 
z
" id="DejaVuSans-73" transform="scale(0.015625)"/>
      <path d="M 1625 4666 
L 2156 4666 
L 531 -594 
L 0 -594 
L 1625 4666 
z
" id="DejaVuSans-2f" transform="scale(0.015625)"/>
      <path d="M 353 3500 
L 3084 3500 
L 3084 2975 
L 922 459 
L 3084 459 
L 3084 0 
L 275 0 
L 275 525 
L 2438 3041 
L 353 3041 
L 353 3500 
z
" id="DejaVuSans-7a" transform="scale(0.015625)"/>
     </defs>
     <use xlink:href="#DejaVuSans-77"/>
     <use x="81.787109" xlink:href="#DejaVuSans-6f"/>
     <use x="142.96875" xlink:href="#DejaVuSans-66"/>
     <use x="178.173828" xlink:href="#DejaVuSans-66"/>
     <use x="213.378906" xlink:href="#DejaVuSans-32"/>
     <use x="277.001953" xlink:href="#DejaVuSans-2d"/>
     <use x="313.085938" xlink:href="#DejaVuSans-32"/>
     <use x="376.708984" xlink:href="#DejaVuSans-30"/>
     <use x="440.332031" xlink:href="#DejaVuSans-31"/>
     <use x="503.955078" xlink:href="#DejaVuSans-36"/>
     <use x="567.578125" xlink:href="#DejaVuSans-2d"/>
     <use x="603.662109" xlink:href="#DejaVuSans-30"/>
     <use x="667.285156" xlink:href="#DejaVuSans-35"/>
     <use x="730.908203" xlink:href="#DejaVuSans-2d"/>
     <use x="766.992188" xlink:href="#DejaVuSans-30"/>
     <use x="830.615234" xlink:href="#DejaVuSans-36"/>
     <use x="894.238281" xlink:href="#DejaVuSans-20"/>
     <use x="926.025391" xlink:href="#DejaVuSans-28"/>
     <use x="965.039062" xlink:href="#DejaVuSans-32"/>
     <use x="1028.662109" xlink:href="#DejaVuSans-33"/>
     <use x="1092.285156" xlink:href="#DejaVuSans-68"/>
     <use x="1155.664062" xlink:href="#DejaVuSans-2c"/>
     <use x="1187.451172" xlink:href="#DejaVuSans-20"/>
     <use x="1219.238281" xlink:href="#DejaVuSans-32"/>
     <use x="1282.861328" xlink:href="#DejaVuSans-30"/>
     <use x="1346.484375" xlink:href="#DejaVuSans-20"/>
     <use x="1378.271484" xlink:href="#DejaVuSans-74"/>
     <use x="1417.480469" xlink:href="#DejaVuSans-72"/>
     <use x="1458.59375" xlink:href="#DejaVuSans-69"/>
     <use x="1486.376953" xlink:href="#DejaVuSans-61"/>
     <use x="1547.65625" xlink:href="#DejaVuSans-6c"/>
     <use x="1575.439453" xlink:href="#DejaVuSans-73"/>
     <use x="1627.539062" xlink:href="#DejaVuSans-2f"/>
     <use x="1661.230469" xlink:href="#DejaVuSans-66"/>
     <use x="1696.435547" xlink:href="#DejaVuSans-75"/>
     <use x="1759.814453" xlink:href="#DejaVuSans-7a"/>
     <use x="1812.304688" xlink:href="#DejaVuSans-7a"/>
     <use x="1864.794922" xlink:href="#DejaVuSans-65"/>
     <use x="1926.318359" xlink:href="#DejaVuSans-72"/>
     <use x="1967.431641" xlink:href="#DejaVuSans-29"/>
    </g>
   </g>
   <g id="legend_1">
    <g id="line2d_28">
     <path d="M 771.568125 30.416562 
L 791.568125 30.416562 
" style="fill:none;stroke:#1f77b4;stroke-linecap:square;stroke-width:1.5;"/>
    </g>
    <g id="line2d_29">
     <defs>
      <path d="M 0 3 
C 0.795609 3 1.55874 2.683901 2.12132 2.12132 
C 2.683901 1.55874 3 0.795609 3 0 
C 3 -0.795609 2.683901 -1.55874 2.12132 -2.12132 
C 1.55874 -2.683901 0.795609 -3 0 -3 
C -0.795609 -3 -1.55874 -2.683901 -2.12132 -2.12132 
C -2.683901 -1.55874 -3 -0.795609 -3 0 
C -3 0.795609 -2.683901 1.55874 -2.12132 2.12132 
C -1.55874 2.683901 -0.795609 3 0 3 
z
" id="m5552b020b1" style="stroke:#1f77b4;"/>
     </defs>
     <g>
      <use style="fill:#1f77b4;stroke:#1f77b4;" x="781.568125" xlink:href="#m5552b020b1" y="30.416562"/>
     </g>
    </g>
    <g id="text_24">
     <!-- afl_2_52_b -->
     <g transform="translate(799.568125 33.916562)scale(0.1 -0.1)">
      <defs>
       <path d="M 3263 -1063 
L 3263 -1509 
L -63 -1509 
L -63 -1063 
L 3263 -1063 
z
" id="DejaVuSans-5f" transform="scale(0.015625)"/>
       <path d="M 3116 1747 
Q 3116 2381 2855 2742 
Q 2594 3103 2138 3103 
Q 1681 3103 1420 2742 
Q 1159 2381 1159 1747 
Q 1159 1113 1420 752 
Q 1681 391 2138 391 
Q 2594 391 2855 752 
Q 3116 1113 3116 1747 
z
M 1159 2969 
Q 1341 3281 1617 3432 
Q 1894 3584 2278 3584 
Q 2916 3584 3314 3078 
Q 3713 2572 3713 1747 
Q 3713 922 3314 415 
Q 2916 -91 2278 -91 
Q 1894 -91 1617 61 
Q 1341 213 1159 525 
L 1159 0 
L 581 0 
L 581 4863 
L 1159 4863 
L 1159 2969 
z
" id="DejaVuSans-62" transform="scale(0.015625)"/>
      </defs>
      <use xlink:href="#DejaVuSans-61"/>
      <use x="61.279297" xlink:href="#DejaVuSans-66"/>
      <use x="96.484375" xlink:href="#DejaVuSans-6c"/>
      <use x="124.267578" xlink:href="#DejaVuSans-5f"/>
      <use x="174.267578" xlink:href="#DejaVuSans-32"/>
      <use x="237.890625" xlink:href="#DejaVuSans-5f"/>
      <use x="287.890625" xlink:href="#DejaVuSans-35"/>
      <use x="351.513672" xlink:href="#DejaVuSans-32"/>
      <use x="415.136719" xlink:href="#DejaVuSans-5f"/>
      <use x="465.136719" xlink:href="#DejaVuSans-62"/>
     </g>
    </g>
    <g id="line2d_30">
     <path d="M 771.568125 45.372813 
L 791.568125 45.372813 
" style="fill:none;stroke:#98df8a;stroke-linecap:square;stroke-width:1.5;"/>
    </g>
    <g id="line2d_31">
     <defs>
      <path d="M -0 3 
L 3 -3 
L -3 -3 
z
" id="mefa2590b54" style="stroke:#98df8a;stroke-linejoin:miter;"/>
     </defs>
     <g>
      <use style="fill:#98df8a;stroke:#98df8a;stroke-linejoin:miter;" x="781.568125" xlink:href="#mefa2590b54" y="45.372813"/>
     </g>
    </g>
    <g id="text_25">
     <!-- fafuzz -->
     <g transform="translate(799.568125 48.872813)scale(0.1 -0.1)">
      <use xlink:href="#DejaVuSans-66"/>
      <use x="35.205078" xlink:href="#DejaVuSans-61"/>
      <use x="96.484375" xlink:href="#DejaVuSans-66"/>
      <use x="131.689453" xlink:href="#DejaVuSans-75"/>
      <use x="195.068359" xlink:href="#DejaVuSans-7a"/>
      <use x="247.558594" xlink:href="#DejaVuSans-7a"/>
     </g>
    </g>
    <g id="line2d_32">
     <path d="M 771.568125 60.050937 
L 791.568125 60.050937 
" style="fill:none;stroke:#d62728;stroke-linecap:square;stroke-width:1.5;"/>
    </g>
    <g id="line2d_33">
     <defs>
      <path d="M 0 -3 
L -3 3 
L 3 3 
z
" id="m65c4db36b3" style="stroke:#d62728;stroke-linejoin:miter;"/>
     </defs>
     <g>
      <use style="fill:#d62728;stroke:#d62728;stroke-linejoin:miter;" x="781.568125" xlink:href="#m65c4db36b3" y="60.050937"/>
     </g>
    </g>
    <g id="text_26">
     <!-- mopt -->
     <g transform="translate(799.568125 63.550937)scale(0.1 -0.1)">
      <defs>
       <path d="M 1159 525 
L 1159 -1331 
L 581 -1331 
L 581 3500 
L 1159 3500 
L 1159 2969 
Q 1341 3281 1617 3432 
Q 1894 3584 2278 3584 
Q 2916 3584 3314 3078 
Q 3713 2572 3713 1747 
Q 3713 922 3314 415 
Q 2916 -91 2278 -91 
Q 1894 -91 1617 61 
Q 1341 213 1159 525 
z
M 3116 1747 
Q 3116 2381 2855 2742 
Q 2594 3103 2138 3103 
Q 1681 3103 1420 2742 
Q 1159 2381 1159 1747 
Q 1159 1113 1420 752 
Q 1681 391 2138 391 
Q 2594 391 2855 752 
Q 3116 1113 3116 1747 
z
" id="DejaVuSans-70" transform="scale(0.015625)"/>
      </defs>
      <use xlink:href="#DejaVuSans-6d"/>
      <use x="97.412109" xlink:href="#DejaVuSans-6f"/>
      <use x="158.59375" xlink:href="#DejaVuSans-70"/>
      <use x="222.070312" xlink:href="#DejaVuSans-74"/>
     </g>
    </g>
   </g>
  </g>
 </g>
 <defs>
  <clipPath id="p1d4efef596">
   <rect height="266.112" width="714.24" x="53.328125" y="22.318125"/>
  </clipPath>
 </defs>
</svg>
