<?xml version="1.0" encoding="utf-8" standalone="no"?>
<!DOCTYPE svg PUBLIC "-//W3C//DTD SVG 1.1//EN"
  "http://www.w3.org/Graphics/SVG/1.1/DTD/svg11.dtd">
<svg height="325.986375pt" version="1.1" viewBox="0 0 863.630625 325.986375" width="863.630625pt" xmlns="http://www.w3.org/2000/svg" xmlns:xlink="http://www.w3.org/1999/xlink">
 <metadata>
  <rdf:RDF xmlns:cc="http://creativecommons.org/ns#" xmlns:dc="http://purl.org/dc/elements/1.1/" xmlns:rdf="http://www.w3.org/1999/02/22-rdf-syntax-ns#">
   <cc:Work>
    <dc:type rdf:resource="http://purl.org/dc/dcmitype/StillImage"/>
    <dc:date>2021-12-16T18:52:36.770394</dc:date>
    <dc:format>image/svg+xml</dc:format>
    <dc:creator>
     <cc:Agent>
      <dc:title>Matplotlib v3.4.1, https://matplotlib.org/</dc:title>
     </cc:Agent>
    </dc:creator>
   </cc:Work>
  </rdf:RDF>
 </metadata>
 <defs>
  <style type="text/css">*{stroke-linecap:butt;stroke-linejoin:round;}</style>
 </defs>
 <g id="figure_1">
  <g id="patch_1">
   <path d="M 0 325.986375 
L 863.630625 325.986375 
L 863.630625 0 
L 0 0 
z
" style="fill:#ffffff;"/>
  </g>
  <g id="axes_1">
   <g id="patch_2">
    <path d="M 53.328125 288.430125 
L 767.568125 288.430125 
L 767.568125 22.318125 
L 53.328125 22.318125 
z
" style="fill:#ffffff;"/>
   </g>
   <g id="PolyCollection_1">
    <defs>
     <path d="M 85.79358 -270.484475 
L 85.79358 -265.638216 
L 185.326487 -272.318195 
L 243.549506 -279.849543 
L 284.859395 -281.290323 
L 316.901835 -282.076202 
L 343.082414 -283.255022 
L 365.217778 -284.040902 
L 384.392303 -284.368352 
L 401.305433 -284.630312 
L 416.434742 -284.761292 
L 430.120868 -285.154232 
L 442.615322 -285.416192 
L 454.109105 -285.809131 
L 464.750686 -286.005601 
L 474.657761 -286.071091 
L 483.925211 -286.333051 
L 492.630642 -286.398541 
L 500.83834 -286.398541 
L 508.602157 -286.660501 
L 515.96765 -286.660501 
L 522.973705 -286.660501 
L 529.653776 -286.595011 
L 536.036855 -286.922461 
L 542.14823 -286.922461 
L 548.01009 -286.987951 
L 553.642013 -286.987951 
L 559.061359 -286.987951 
L 564.283594 -287.053441 
L 569.322554 -287.184421 
L 574.190669 -287.184421 
L 578.899144 -287.184421 
L 583.458119 -287.118931 
L 587.876794 -287.184421 
L 592.16355 -287.249911 
L 596.326033 -287.249911 
L 600.371248 -287.249911 
L 604.305621 -287.511871 
L 608.135065 -287.642851 
L 611.865031 -287.839321 
L 615.500558 -287.839321 
L 619.046309 -287.839321 
L 622.506613 -287.904811 
L 625.885489 -288.035791 
L 629.186684 -288.035791 
L 632.413688 -288.101281 
L 635.569763 -288.099644 
L 638.65796 -288.101281 
L 641.681137 -288.101281 
L 644.641977 -288.166771 
L 647.542997 -288.166771 
L 650.386568 -288.166771 
L 653.174921 -288.232261 
L 655.910158 -288.230624 
L 658.594267 -288.297751 
L 661.229123 -288.297751 
L 663.816502 -288.297751 
L 666.358084 -288.297751 
L 668.855462 -288.297751 
L 671.310148 -288.297751 
L 673.723577 -288.363241 
L 676.097112 -288.363241 
L 678.432052 -288.363241 
L 680.729631 -288.363241 
L 682.991027 -288.363241 
L 685.21736 -288.297751 
L 687.409702 -288.361604 
L 689.569076 -288.363241 
L 691.696457 -288.297751 
L 693.792781 -288.428731 
L 695.858941 -288.428731 
L 697.895793 -288.428731 
L 699.904156 -288.428731 
L 701.884817 -288.428731 
L 703.838529 -288.428731 
L 705.766016 -288.625201 
L 707.667973 -288.559711 
L 709.545067 -288.625201 
L 711.397939 -288.625201 
L 713.227208 -288.690691 
L 715.033466 -288.690691 
L 716.817286 -288.690691 
L 718.579217 -288.690691 
L 720.319792 -288.690691 
L 722.03952 -288.690691 
L 723.738897 -288.690691 
L 725.418397 -288.690691 
L 727.078481 -288.820033 
L 728.719591 -288.754543 
L 730.342158 -288.821671 
L 731.946595 -288.821671 
L 733.533304 -288.821671 
L 735.10267 -288.821671 
L 735.10267 -291.2448 
L 735.10267 -291.2448 
L 733.533304 -291.31029 
L 731.946595 -291.2448 
L 730.342158 -291.2448 
L 728.719591 -291.2448 
L 727.078481 -291.246437 
L 725.418397 -291.2448 
L 723.738897 -291.2448 
L 722.03952 -291.2448 
L 720.319792 -291.2448 
L 718.579217 -291.2448 
L 716.817286 -291.2448 
L 715.033466 -291.2448 
L 713.227208 -291.31029 
L 711.397939 -291.04833 
L 709.545067 -291.11382 
L 707.667973 -291.11382 
L 705.766016 -291.11382 
L 703.838529 -291.11382 
L 701.884817 -291.11382 
L 699.904156 -291.11382 
L 697.895793 -291.11382 
L 695.858941 -290.78637 
L 693.792781 -290.85186 
L 691.696457 -290.65539 
L 689.569076 -290.65539 
L 687.409702 -290.52441 
L 685.21736 -290.52441 
L 682.991027 -290.52441 
L 680.729631 -290.52441 
L 678.432052 -290.722517 
L 676.097112 -290.52441 
L 673.723577 -290.52441 
L 671.310148 -290.52441 
L 668.855462 -290.52441 
L 666.358084 -290.52441 
L 663.816502 -290.52441 
L 661.229123 -290.78637 
L 658.594267 -290.52441 
L 655.910158 -290.52441 
L 653.174921 -290.45892 
L 650.386568 -290.52441 
L 647.542997 -290.52441 
L 644.641977 -290.45892 
L 641.681137 -290.45892 
L 638.65796 -290.39343 
L 635.569763 -290.45892 
L 632.413688 -290.45892 
L 629.186684 -290.45892 
L 625.885489 -290.19696 
L 622.506613 -290.19696 
L 619.046309 -290.19696 
L 615.500558 -289.60755 
L 611.865031 -289.411081 
L 608.135065 -289.411081 
L 604.305621 -289.492943 
L 600.371248 -289.411081 
L 596.326033 -289.42909 
L 592.16355 -289.411081 
L 587.876794 -289.411081 
L 583.458119 -289.347228 
L 578.899144 -289.216248 
L 574.190669 -289.083631 
L 569.322554 -289.083631 
L 564.283594 -289.083631 
L 559.061359 -289.083631 
L 553.642013 -289.018141 
L 548.01009 -289.73853 
L 542.14823 -288.625201 
L 536.036855 -288.625201 
L 529.653776 -288.363241 
L 522.973705 -288.363241 
L 515.96765 -288.363241 
L 508.602157 -288.363241 
L 500.83834 -288.633387 
L 492.630642 -288.101281 
L 483.925211 -287.249911 
L 474.657761 -287.380891 
L 464.750686 -286.987951 
L 454.109105 -286.856971 
L 442.615322 -286.791481 
L 430.120868 -286.333051 
L 416.434742 -286.071091 
L 401.305433 -285.940111 
L 384.392303 -285.743641 
L 365.217778 -285.612661 
L 343.082414 -284.761292 
L 316.901835 -284.040902 
L 284.859395 -283.582472 
L 243.549506 -282.272672 
L 185.326487 -279.456603 
L 85.79358 -270.484475 
z
" id="mb1e943408d" style="stroke:#1f77b4;stroke-opacity:0.2;"/>
    </defs>
    <g clip-path="url(#pdb1eeebad5)">
     <use style="fill:#1f77b4;fill-opacity:0.2;stroke:#1f77b4;stroke-opacity:0.2;" x="0" xlink:href="#mb1e943408d" y="325.986375"/>
    </g>
   </g>
   <g id="PolyCollection_2">
    <defs>
     <path d="M 85.79358 -269.240166 
L 85.79358 -265.179787 
L 185.326487 -266.489586 
L 243.549506 -273.758974 
L 284.859395 -277.161179 
L 316.901835 -278.932683 
L 343.082414 -279.260133 
L 365.217778 -280.176993 
L 384.392303 -280.569933 
L 401.305433 -282.076202 
L 416.434742 -282.993062 
L 430.120868 -283.646325 
L 442.615322 -283.844432 
L 454.109105 -283.909922 
L 464.750686 -284.106392 
L 474.657761 -284.630312 
L 483.925211 -284.499332 
L 492.630642 -284.761292 
L 500.83834 -284.826782 
L 508.602157 -284.826782 
L 515.96765 -285.088742 
L 522.973705 -285.08383 
L 529.653776 -285.285212 
L 536.036855 -285.416192 
L 542.14823 -285.612661 
L 548.01009 -285.743641 
L 553.642013 -285.874621 
L 559.061359 -285.874621 
L 564.283594 -285.940111 
L 569.322554 -286.005601 
L 574.190669 -286.202071 
L 578.899144 -286.396904 
L 583.458119 -286.398541 
L 587.876794 -286.398541 
L 592.16355 -286.333051 
L 596.326033 -286.398541 
L 600.371248 -286.398541 
L 604.305621 -286.398541 
L 608.135065 -286.398541 
L 611.865031 -286.464031 
L 615.500558 -286.529521 
L 619.046309 -286.593374 
L 622.506613 -286.529521 
L 625.885489 -286.527884 
L 629.186684 -286.856971 
L 632.413688 -286.922461 
L 635.569763 -287.184421 
L 638.65796 -287.184421 
L 641.681137 -287.184421 
L 644.641977 -287.184421 
L 647.542997 -287.184421 
L 650.386568 -287.118931 
L 653.174921 -287.184421 
L 655.910158 -287.249911 
L 658.594267 -287.380891 
L 661.229123 -287.380891 
L 663.816502 -287.380891 
L 666.358084 -287.380891 
L 668.855462 -287.380891 
L 671.310148 -287.380891 
L 673.723577 -287.380891 
L 676.097112 -287.511871 
L 678.432052 -287.511871 
L 680.729631 -287.511871 
L 682.991027 -287.511871 
L 685.21736 -287.511871 
L 687.409702 -287.511871 
L 689.569076 -287.511871 
L 691.696457 -287.577361 
L 693.792781 -287.708341 
L 695.858941 -287.773831 
L 697.895793 -287.773831 
L 699.904156 -287.773831 
L 701.884817 -287.773831 
L 703.838529 -287.773831 
L 705.766016 -287.773831 
L 707.667973 -287.773831 
L 709.545067 -287.773831 
L 711.397939 -287.903174 
L 713.227208 -288.035791 
L 715.033466 -287.904811 
L 716.817286 -288.034154 
L 718.579217 -288.035791 
L 720.319792 -288.035791 
L 722.03952 -288.035791 
L 723.738897 -288.035791 
L 725.418397 -287.965389 
L 727.078481 -288.230624 
L 728.719591 -288.035791 
L 730.342158 -288.035791 
L 731.946595 -288.232261 
L 733.533304 -288.035791 
L 735.10267 -288.035791 
L 735.10267 -291.50676 
L 735.10267 -291.50676 
L 733.533304 -291.50676 
L 731.946595 -291.50676 
L 730.342158 -291.44127 
L 728.719591 -291.57225 
L 727.078481 -291.44127 
L 725.418397 -291.31029 
L 723.738897 -291.31029 
L 722.03952 -291.31029 
L 720.319792 -291.31029 
L 718.579217 -291.31029 
L 716.817286 -291.31029 
L 715.033466 -291.31029 
L 713.227208 -291.31029 
L 711.397939 -291.2448 
L 709.545067 -291.17931 
L 707.667973 -291.31029 
L 705.766016 -291.17931 
L 703.838529 -291.17931 
L 701.884817 -291.04833 
L 699.904156 -291.04833 
L 697.895793 -291.04833 
L 695.858941 -291.04833 
L 693.792781 -291.04833 
L 691.696457 -291.04833 
L 689.569076 -291.04833 
L 687.409702 -291.04833 
L 685.21736 -291.04833 
L 682.991027 -290.98284 
L 680.729631 -290.78637 
L 678.432052 -290.78637 
L 676.097112 -290.5899 
L 673.723577 -290.65539 
L 671.310148 -290.45892 
L 668.855462 -290.45892 
L 666.358084 -290.52441 
L 663.816502 -290.45892 
L 661.229123 -290.45892 
L 658.594267 -290.39343 
L 655.910158 -290.32794 
L 653.174921 -290.32794 
L 650.386568 -290.32794 
L 647.542997 -290.32794 
L 644.641977 -290.26245 
L 641.681137 -290.26245 
L 638.65796 -290.32794 
L 635.569763 -290.26245 
L 632.413688 -290.13147 
L 629.186684 -290.13147 
L 625.885489 -289.935 
L 622.506613 -290.00049 
L 619.046309 -289.80402 
L 615.500558 -289.86951 
L 611.865031 -289.73853 
L 608.135065 -289.73853 
L 604.305621 -289.60755 
L 600.371248 -289.67304 
L 596.326033 -289.479845 
L 592.16355 -289.149121 
L 587.876794 -289.018141 
L 583.458119 -288.887161 
L 578.899144 -288.887161 
L 574.190669 -288.166771 
L 569.322554 -287.511871 
L 564.283594 -287.380891 
L 559.061359 -287.384166 
L 553.642013 -287.511871 
L 548.01009 -287.249911 
L 542.14823 -287.249911 
L 536.036855 -287.249911 
L 529.653776 -287.249911 
L 522.973705 -287.249911 
L 515.96765 -287.249911 
L 508.602157 -287.249911 
L 500.83834 -287.249911 
L 492.630642 -287.249911 
L 483.925211 -287.053441 
L 474.657761 -287.053441 
L 464.750686 -286.267561 
L 454.109105 -285.809131 
L 442.615322 -285.481682 
L 430.120868 -285.155869 
L 416.434742 -284.695802 
L 401.305433 -283.844432 
L 384.392303 -283.255022 
L 365.217778 -282.272672 
L 343.082414 -281.945222 
L 316.901835 -281.224833 
L 284.859395 -279.980523 
L 243.549506 -277.360924 
L 185.326487 -272.645645 
L 85.79358 -269.240166 
z
" id="m9a0ad304e2" style="stroke:#98df8a;stroke-opacity:0.2;"/>
    </defs>
    <g clip-path="url(#pdb1eeebad5)">
     <use style="fill:#98df8a;fill-opacity:0.2;stroke:#98df8a;stroke-opacity:0.2;" x="0" xlink:href="#m9a0ad304e2" y="325.986375"/>
    </g>
   </g>
   <g id="PolyCollection_3">
    <defs>
     <path d="M 85.79358 -272.318195 
L 85.79358 -49.65225 
L 185.326487 -272.973095 
L 243.549506 -278.456244 
L 284.859395 -279.129153 
L 316.901835 -280.831893 
L 343.082414 -282.009075 
L 365.217778 -282.665612 
L 384.392303 -283.320512 
L 401.305433 -283.844432 
L 416.434742 -284.302862 
L 430.120868 -284.433842 
L 442.615322 -284.761292 
L 454.109105 -285.285212 
L 464.750686 -285.416192 
L 474.657761 -285.678151 
L 483.925211 -285.874621 
L 492.630642 -286.071091 
L 500.83834 -286.071091 
L 508.602157 -286.136581 
L 515.96765 -286.267561 
L 522.973705 -286.333051 
L 529.653776 -286.398541 
L 536.036855 -286.464031 
L 542.14823 -286.464031 
L 548.01009 -286.529521 
L 553.642013 -286.529521 
L 559.061359 -286.529521 
L 564.283594 -286.529521 
L 569.322554 -286.529521 
L 574.190669 -286.660501 
L 578.899144 -286.660501 
L 583.458119 -286.660501 
L 587.876794 -286.660501 
L 592.16355 -286.725991 
L 596.326033 -286.725991 
L 600.371248 -286.725991 
L 604.305621 -286.791481 
L 608.135065 -286.791481 
L 611.865031 -286.856971 
L 615.500558 -286.922461 
L 619.046309 -286.987951 
L 622.506613 -287.118931 
L 625.885489 -287.118931 
L 629.186684 -287.118931 
L 632.413688 -287.249911 
L 635.569763 -287.249911 
L 638.65796 -287.249911 
L 641.681137 -287.249911 
L 644.641977 -287.249911 
L 647.542997 -287.315401 
L 650.386568 -287.315401 
L 653.174921 -287.380891 
L 655.910158 -287.315401 
L 658.594267 -287.446381 
L 661.229123 -287.446381 
L 663.816502 -287.446381 
L 666.358084 -287.446381 
L 668.855462 -287.446381 
L 671.310148 -287.380891 
L 673.723577 -287.446381 
L 676.097112 -287.904811 
L 678.432052 -287.839321 
L 680.729631 -287.839321 
L 682.991027 -287.904811 
L 685.21736 -287.970301 
L 687.409702 -288.101281 
L 689.569076 -288.101281 
L 691.696457 -288.166771 
L 693.792781 -288.035791 
L 695.858941 -288.166771 
L 697.895793 -288.232261 
L 699.904156 -288.166771 
L 701.884817 -288.166771 
L 703.838529 -288.166771 
L 705.766016 -288.166771 
L 707.667973 -288.297751 
L 709.545067 -288.297751 
L 711.397939 -288.297751 
L 713.227208 -288.297751 
L 715.033466 -288.297751 
L 716.817286 -288.297751 
L 718.579217 -288.297751 
L 720.319792 -288.297751 
L 722.03952 -288.297751 
L 723.738897 -288.363241 
L 725.418397 -288.363241 
L 727.078481 -288.297751 
L 728.719591 -288.428731 
L 730.342158 -288.428731 
L 731.946595 -288.428731 
L 733.533304 -288.428731 
L 735.10267 -288.428731 
L 735.10267 -291.37578 
L 735.10267 -291.37578 
L 733.533304 -291.37578 
L 731.946595 -291.37578 
L 730.342158 -291.311927 
L 728.719591 -291.37578 
L 727.078481 -291.44127 
L 725.418397 -291.44127 
L 723.738897 -291.246437 
L 722.03952 -291.31029 
L 720.319792 -291.17931 
L 718.579217 -291.04833 
L 716.817286 -291.04833 
L 715.033466 -291.04833 
L 713.227208 -291.04833 
L 711.397939 -291.04833 
L 709.545067 -291.04833 
L 707.667973 -290.98284 
L 705.766016 -290.85186 
L 703.838529 -290.853497 
L 701.884817 -290.85186 
L 699.904156 -290.85186 
L 697.895793 -290.91735 
L 695.858941 -290.920625 
L 693.792781 -290.85186 
L 691.696457 -290.788007 
L 689.569076 -290.85186 
L 687.409702 -290.853497 
L 685.21736 -290.72088 
L 682.991027 -290.5899 
L 680.729631 -290.5899 
L 678.432052 -290.5899 
L 676.097112 -290.65539 
L 673.723577 -290.5899 
L 671.310148 -290.591537 
L 668.855462 -290.5899 
L 666.358084 -290.5899 
L 663.816502 -290.5899 
L 661.229123 -290.5899 
L 658.594267 -290.591537 
L 655.910158 -290.39343 
L 653.174921 -290.45892 
L 650.386568 -290.39343 
L 647.542997 -290.39343 
L 644.641977 -290.13147 
L 641.681137 -290.13147 
L 638.65796 -290.13147 
L 635.569763 -290.13147 
L 632.413688 -290.13147 
L 629.186684 -290.06598 
L 625.885489 -289.935 
L 622.506613 -289.935 
L 619.046309 -289.935 
L 615.500558 -289.149121 
L 611.865031 -289.214611 
L 608.135065 -289.083631 
L 604.305621 -288.887161 
L 600.371248 -288.887161 
L 596.326033 -288.887161 
L 592.16355 -288.821671 
L 587.876794 -288.887161 
L 583.458119 -288.887161 
L 578.899144 -288.887161 
L 574.190669 -288.887161 
L 569.322554 -288.757818 
L 564.283594 -288.821671 
L 559.061359 -288.497495 
L 553.642013 -288.232261 
L 548.01009 -288.494221 
L 542.14823 -288.232261 
L 536.036855 -288.101281 
L 529.653776 -288.101281 
L 522.973705 -288.101281 
L 515.96765 -288.428731 
L 508.602157 -287.773831 
L 500.83834 -287.118931 
L 492.630642 -286.987951 
L 483.925211 -286.922461 
L 474.657761 -286.791481 
L 464.750686 -286.668687 
L 454.109105 -286.333051 
L 442.615322 -285.940111 
L 430.120868 -285.874621 
L 416.434742 -285.416192 
L 401.305433 -285.088742 
L 384.392303 -284.500969 
L 365.217778 -284.106392 
L 343.082414 -284.040902 
L 316.901835 -283.320512 
L 284.859395 -281.945222 
L 243.549506 -280.635423 
L 185.326487 -278.408763 
L 85.79358 -272.318195 
z
" id="meb5c869655" style="stroke:#d62728;stroke-opacity:0.2;"/>
    </defs>
    <g clip-path="url(#pdb1eeebad5)">
     <use style="fill:#d62728;fill-opacity:0.2;stroke:#d62728;stroke-opacity:0.2;" x="0" xlink:href="#meb5c869655" y="325.986375"/>
    </g>
   </g>
   <g id="matplotlib.axis_1">
    <g id="xtick_1">
     <g id="line2d_1">
      <defs>
       <path d="M 0 0 
L 0 3.5 
" id="m93af8592d5" style="stroke:#000000;stroke-width:0.8;"/>
      </defs>
      <g>
       <use style="stroke:#000000;stroke-width:0.8;" x="85.79358" xlink:href="#m93af8592d5" y="288.430125"/>
      </g>
     </g>
     <g id="text_1">
      <!-- 14m -->
      <g transform="translate(74.560767 303.028562)scale(0.1 -0.1)">
       <defs>
        <path d="M 794 531 
L 1825 531 
L 1825 4091 
L 703 3866 
L 703 4441 
L 1819 4666 
L 2450 4666 
L 2450 531 
L 3481 531 
L 3481 0 
L 794 0 
L 794 531 
z
" id="DejaVuSans-31" transform="scale(0.015625)"/>
        <path d="M 2419 4116 
L 825 1625 
L 2419 1625 
L 2419 4116 
z
M 2253 4666 
L 3047 4666 
L 3047 1625 
L 3713 1625 
L 3713 1100 
L 3047 1100 
L 3047 0 
L 2419 0 
L 2419 1100 
L 313 1100 
L 313 1709 
L 2253 4666 
z
" id="DejaVuSans-34" transform="scale(0.015625)"/>
        <path d="M 3328 2828 
Q 3544 3216 3844 3400 
Q 4144 3584 4550 3584 
Q 5097 3584 5394 3201 
Q 5691 2819 5691 2113 
L 5691 0 
L 5113 0 
L 5113 2094 
Q 5113 2597 4934 2840 
Q 4756 3084 4391 3084 
Q 3944 3084 3684 2787 
Q 3425 2491 3425 1978 
L 3425 0 
L 2847 0 
L 2847 2094 
Q 2847 2600 2669 2842 
Q 2491 3084 2119 3084 
Q 1678 3084 1418 2786 
Q 1159 2488 1159 1978 
L 1159 0 
L 581 0 
L 581 3500 
L 1159 3500 
L 1159 2956 
Q 1356 3278 1631 3431 
Q 1906 3584 2284 3584 
Q 2666 3584 2933 3390 
Q 3200 3197 3328 2828 
z
" id="DejaVuSans-6d" transform="scale(0.015625)"/>
       </defs>
       <use xlink:href="#DejaVuSans-31"/>
       <use x="63.623047" xlink:href="#DejaVuSans-34"/>
       <use x="127.246094" xlink:href="#DejaVuSans-6d"/>
      </g>
     </g>
    </g>
    <g id="xtick_2">
     <g id="line2d_2">
      <g>
       <use style="stroke:#000000;stroke-width:0.8;" x="144.821836" xlink:href="#m93af8592d5" y="288.430125"/>
      </g>
     </g>
     <g id="text_2">
      <!-- 22m -->
      <g transform="translate(133.589024 303.028562)scale(0.1 -0.1)">
       <defs>
        <path d="M 1228 531 
L 3431 531 
L 3431 0 
L 469 0 
L 469 531 
Q 828 903 1448 1529 
Q 2069 2156 2228 2338 
Q 2531 2678 2651 2914 
Q 2772 3150 2772 3378 
Q 2772 3750 2511 3984 
Q 2250 4219 1831 4219 
Q 1534 4219 1204 4116 
Q 875 4013 500 3803 
L 500 4441 
Q 881 4594 1212 4672 
Q 1544 4750 1819 4750 
Q 2544 4750 2975 4387 
Q 3406 4025 3406 3419 
Q 3406 3131 3298 2873 
Q 3191 2616 2906 2266 
Q 2828 2175 2409 1742 
Q 1991 1309 1228 531 
z
" id="DejaVuSans-32" transform="scale(0.015625)"/>
       </defs>
       <use xlink:href="#DejaVuSans-32"/>
       <use x="63.623047" xlink:href="#DejaVuSans-32"/>
       <use x="127.246094" xlink:href="#DejaVuSans-6d"/>
      </g>
     </g>
    </g>
    <g id="xtick_3">
     <g id="line2d_3">
      <g>
       <use style="stroke:#000000;stroke-width:0.8;" x="203.850093" xlink:href="#m93af8592d5" y="288.430125"/>
      </g>
     </g>
     <g id="text_3">
      <!-- 34m -->
      <g transform="translate(192.617281 303.028562)scale(0.1 -0.1)">
       <defs>
        <path d="M 2597 2516 
Q 3050 2419 3304 2112 
Q 3559 1806 3559 1356 
Q 3559 666 3084 287 
Q 2609 -91 1734 -91 
Q 1441 -91 1130 -33 
Q 819 25 488 141 
L 488 750 
Q 750 597 1062 519 
Q 1375 441 1716 441 
Q 2309 441 2620 675 
Q 2931 909 2931 1356 
Q 2931 1769 2642 2001 
Q 2353 2234 1838 2234 
L 1294 2234 
L 1294 2753 
L 1863 2753 
Q 2328 2753 2575 2939 
Q 2822 3125 2822 3475 
Q 2822 3834 2567 4026 
Q 2313 4219 1838 4219 
Q 1578 4219 1281 4162 
Q 984 4106 628 3988 
L 628 4550 
Q 988 4650 1302 4700 
Q 1616 4750 1894 4750 
Q 2613 4750 3031 4423 
Q 3450 4097 3450 3541 
Q 3450 3153 3228 2886 
Q 3006 2619 2597 2516 
z
" id="DejaVuSans-33" transform="scale(0.015625)"/>
       </defs>
       <use xlink:href="#DejaVuSans-33"/>
       <use x="63.623047" xlink:href="#DejaVuSans-34"/>
       <use x="127.246094" xlink:href="#DejaVuSans-6d"/>
      </g>
     </g>
    </g>
    <g id="xtick_4">
     <g id="line2d_4">
      <g>
       <use style="stroke:#000000;stroke-width:0.8;" x="262.87835" xlink:href="#m93af8592d5" y="288.430125"/>
      </g>
     </g>
     <g id="text_4">
      <!-- 51m -->
      <g transform="translate(251.645538 303.028562)scale(0.1 -0.1)">
       <defs>
        <path d="M 691 4666 
L 3169 4666 
L 3169 4134 
L 1269 4134 
L 1269 2991 
Q 1406 3038 1543 3061 
Q 1681 3084 1819 3084 
Q 2600 3084 3056 2656 
Q 3513 2228 3513 1497 
Q 3513 744 3044 326 
Q 2575 -91 1722 -91 
Q 1428 -91 1123 -41 
Q 819 9 494 109 
L 494 744 
Q 775 591 1075 516 
Q 1375 441 1709 441 
Q 2250 441 2565 725 
Q 2881 1009 2881 1497 
Q 2881 1984 2565 2268 
Q 2250 2553 1709 2553 
Q 1456 2553 1204 2497 
Q 953 2441 691 2322 
L 691 4666 
z
" id="DejaVuSans-35" transform="scale(0.015625)"/>
       </defs>
       <use xlink:href="#DejaVuSans-35"/>
       <use x="63.623047" xlink:href="#DejaVuSans-31"/>
       <use x="127.246094" xlink:href="#DejaVuSans-6d"/>
      </g>
     </g>
    </g>
    <g id="xtick_5">
     <g id="line2d_5">
      <g>
       <use style="stroke:#000000;stroke-width:0.8;" x="321.906607" xlink:href="#m93af8592d5" y="288.430125"/>
      </g>
     </g>
     <g id="text_5">
      <!-- 1h:17m -->
      <g transform="translate(302.639419 303.028562)scale(0.1 -0.1)">
       <defs>
        <path d="M 3513 2113 
L 3513 0 
L 2938 0 
L 2938 2094 
Q 2938 2591 2744 2837 
Q 2550 3084 2163 3084 
Q 1697 3084 1428 2787 
Q 1159 2491 1159 1978 
L 1159 0 
L 581 0 
L 581 4863 
L 1159 4863 
L 1159 2956 
Q 1366 3272 1645 3428 
Q 1925 3584 2291 3584 
Q 2894 3584 3203 3211 
Q 3513 2838 3513 2113 
z
" id="DejaVuSans-68" transform="scale(0.015625)"/>
        <path d="M 750 794 
L 1409 794 
L 1409 0 
L 750 0 
L 750 794 
z
M 750 3309 
L 1409 3309 
L 1409 2516 
L 750 2516 
L 750 3309 
z
" id="DejaVuSans-3a" transform="scale(0.015625)"/>
        <path d="M 525 4666 
L 3525 4666 
L 3525 4397 
L 1831 0 
L 1172 0 
L 2766 4134 
L 525 4134 
L 525 4666 
z
" id="DejaVuSans-37" transform="scale(0.015625)"/>
       </defs>
       <use xlink:href="#DejaVuSans-31"/>
       <use x="63.623047" xlink:href="#DejaVuSans-68"/>
       <use x="127.001953" xlink:href="#DejaVuSans-3a"/>
       <use x="160.693359" xlink:href="#DejaVuSans-31"/>
       <use x="224.316406" xlink:href="#DejaVuSans-37"/>
       <use x="287.939453" xlink:href="#DejaVuSans-6d"/>
      </g>
     </g>
    </g>
    <g id="xtick_6">
     <g id="line2d_6">
      <g>
       <use style="stroke:#000000;stroke-width:0.8;" x="380.934864" xlink:href="#m93af8592d5" y="288.430125"/>
      </g>
     </g>
     <g id="text_6">
      <!-- 1h:57m -->
      <g transform="translate(361.667676 303.028562)scale(0.1 -0.1)">
       <use xlink:href="#DejaVuSans-31"/>
       <use x="63.623047" xlink:href="#DejaVuSans-68"/>
       <use x="127.001953" xlink:href="#DejaVuSans-3a"/>
       <use x="160.693359" xlink:href="#DejaVuSans-35"/>
       <use x="224.316406" xlink:href="#DejaVuSans-37"/>
       <use x="287.939453" xlink:href="#DejaVuSans-6d"/>
      </g>
     </g>
    </g>
    <g id="xtick_7">
     <g id="line2d_7">
      <g>
       <use style="stroke:#000000;stroke-width:0.8;" x="439.963121" xlink:href="#m93af8592d5" y="288.430125"/>
      </g>
     </g>
     <g id="text_7">
      <!-- 2h:56m -->
      <g transform="translate(420.695933 303.028562)scale(0.1 -0.1)">
       <defs>
        <path d="M 2113 2584 
Q 1688 2584 1439 2293 
Q 1191 2003 1191 1497 
Q 1191 994 1439 701 
Q 1688 409 2113 409 
Q 2538 409 2786 701 
Q 3034 994 3034 1497 
Q 3034 2003 2786 2293 
Q 2538 2584 2113 2584 
z
M 3366 4563 
L 3366 3988 
Q 3128 4100 2886 4159 
Q 2644 4219 2406 4219 
Q 1781 4219 1451 3797 
Q 1122 3375 1075 2522 
Q 1259 2794 1537 2939 
Q 1816 3084 2150 3084 
Q 2853 3084 3261 2657 
Q 3669 2231 3669 1497 
Q 3669 778 3244 343 
Q 2819 -91 2113 -91 
Q 1303 -91 875 529 
Q 447 1150 447 2328 
Q 447 3434 972 4092 
Q 1497 4750 2381 4750 
Q 2619 4750 2861 4703 
Q 3103 4656 3366 4563 
z
" id="DejaVuSans-36" transform="scale(0.015625)"/>
       </defs>
       <use xlink:href="#DejaVuSans-32"/>
       <use x="63.623047" xlink:href="#DejaVuSans-68"/>
       <use x="127.001953" xlink:href="#DejaVuSans-3a"/>
       <use x="160.693359" xlink:href="#DejaVuSans-35"/>
       <use x="224.316406" xlink:href="#DejaVuSans-36"/>
       <use x="287.939453" xlink:href="#DejaVuSans-6d"/>
      </g>
     </g>
    </g>
    <g id="xtick_8">
     <g id="line2d_8">
      <g>
       <use style="stroke:#000000;stroke-width:0.8;" x="498.991377" xlink:href="#m93af8592d5" y="288.430125"/>
      </g>
     </g>
     <g id="text_8">
      <!-- 4h:26m -->
      <g transform="translate(479.72419 303.028562)scale(0.1 -0.1)">
       <use xlink:href="#DejaVuSans-34"/>
       <use x="63.623047" xlink:href="#DejaVuSans-68"/>
       <use x="127.001953" xlink:href="#DejaVuSans-3a"/>
       <use x="160.693359" xlink:href="#DejaVuSans-32"/>
       <use x="224.316406" xlink:href="#DejaVuSans-36"/>
       <use x="287.939453" xlink:href="#DejaVuSans-6d"/>
      </g>
     </g>
    </g>
    <g id="xtick_9">
     <g id="line2d_9">
      <g>
       <use style="stroke:#000000;stroke-width:0.8;" x="558.019634" xlink:href="#m93af8592d5" y="288.430125"/>
      </g>
     </g>
     <g id="text_9">
      <!-- 6h:42m -->
      <g transform="translate(538.752447 303.028562)scale(0.1 -0.1)">
       <use xlink:href="#DejaVuSans-36"/>
       <use x="63.623047" xlink:href="#DejaVuSans-68"/>
       <use x="127.001953" xlink:href="#DejaVuSans-3a"/>
       <use x="160.693359" xlink:href="#DejaVuSans-34"/>
       <use x="224.316406" xlink:href="#DejaVuSans-32"/>
       <use x="287.939453" xlink:href="#DejaVuSans-6d"/>
      </g>
     </g>
    </g>
    <g id="xtick_10">
     <g id="line2d_10">
      <g>
       <use style="stroke:#000000;stroke-width:0.8;" x="617.047891" xlink:href="#m93af8592d5" y="288.430125"/>
      </g>
     </g>
     <g id="text_10">
      <!-- 10h:6m -->
      <g transform="translate(597.780704 303.028562)scale(0.1 -0.1)">
       <defs>
        <path d="M 2034 4250 
Q 1547 4250 1301 3770 
Q 1056 3291 1056 2328 
Q 1056 1369 1301 889 
Q 1547 409 2034 409 
Q 2525 409 2770 889 
Q 3016 1369 3016 2328 
Q 3016 3291 2770 3770 
Q 2525 4250 2034 4250 
z
M 2034 4750 
Q 2819 4750 3233 4129 
Q 3647 3509 3647 2328 
Q 3647 1150 3233 529 
Q 2819 -91 2034 -91 
Q 1250 -91 836 529 
Q 422 1150 422 2328 
Q 422 3509 836 4129 
Q 1250 4750 2034 4750 
z
" id="DejaVuSans-30" transform="scale(0.015625)"/>
       </defs>
       <use xlink:href="#DejaVuSans-31"/>
       <use x="63.623047" xlink:href="#DejaVuSans-30"/>
       <use x="127.246094" xlink:href="#DejaVuSans-68"/>
       <use x="190.625" xlink:href="#DejaVuSans-3a"/>
       <use x="224.316406" xlink:href="#DejaVuSans-36"/>
       <use x="287.939453" xlink:href="#DejaVuSans-6d"/>
      </g>
     </g>
    </g>
    <g id="xtick_11">
     <g id="line2d_11">
      <g>
       <use style="stroke:#000000;stroke-width:0.8;" x="676.076148" xlink:href="#m93af8592d5" y="288.430125"/>
      </g>
     </g>
     <g id="text_11">
      <!-- 15h:14m -->
      <g transform="translate(653.62771 303.028562)scale(0.1 -0.1)">
       <use xlink:href="#DejaVuSans-31"/>
       <use x="63.623047" xlink:href="#DejaVuSans-35"/>
       <use x="127.246094" xlink:href="#DejaVuSans-68"/>
       <use x="190.625" xlink:href="#DejaVuSans-3a"/>
       <use x="224.316406" xlink:href="#DejaVuSans-31"/>
       <use x="287.939453" xlink:href="#DejaVuSans-34"/>
       <use x="351.5625" xlink:href="#DejaVuSans-6d"/>
      </g>
     </g>
    </g>
    <g id="xtick_12">
     <g id="line2d_12">
      <g>
       <use style="stroke:#000000;stroke-width:0.8;" x="735.104405" xlink:href="#m93af8592d5" y="288.430125"/>
      </g>
     </g>
     <g id="text_12">
      <!-- 23h -->
      <g transform="translate(725.573155 303.028562)scale(0.1 -0.1)">
       <use xlink:href="#DejaVuSans-32"/>
       <use x="63.623047" xlink:href="#DejaVuSans-33"/>
       <use x="127.246094" xlink:href="#DejaVuSans-68"/>
      </g>
     </g>
    </g>
    <g id="xtick_13">
     <g id="line2d_13">
      <defs>
       <path d="M 0 0 
L 0 2 
" id="mdd717d1b3d" style="stroke:#000000;stroke-width:0.6;"/>
      </defs>
      <g>
       <use style="stroke:#000000;stroke-width:0.6;" x="68.88045" xlink:href="#mdd717d1b3d" y="288.430125"/>
      </g>
     </g>
    </g>
    <g id="xtick_14">
     <g id="line2d_14">
      <g>
       <use style="stroke:#000000;stroke-width:0.6;" x="200.455797" xlink:href="#mdd717d1b3d" y="288.430125"/>
      </g>
     </g>
    </g>
    <g id="xtick_15">
     <g id="line2d_15">
      <g>
       <use style="stroke:#000000;stroke-width:0.6;" x="258.678816" xlink:href="#mdd717d1b3d" y="288.430125"/>
      </g>
     </g>
    </g>
    <g id="xtick_16">
     <g id="line2d_16">
      <g>
       <use style="stroke:#000000;stroke-width:0.6;" x="299.988705" xlink:href="#mdd717d1b3d" y="288.430125"/>
      </g>
     </g>
    </g>
    <g id="xtick_17">
     <g id="line2d_17">
      <g>
       <use style="stroke:#000000;stroke-width:0.6;" x="332.031144" xlink:href="#mdd717d1b3d" y="288.430125"/>
      </g>
     </g>
    </g>
    <g id="xtick_18">
     <g id="line2d_18">
      <g>
       <use style="stroke:#000000;stroke-width:0.6;" x="358.211724" xlink:href="#mdd717d1b3d" y="288.430125"/>
      </g>
     </g>
    </g>
    <g id="xtick_19">
     <g id="line2d_19">
      <g>
       <use style="stroke:#000000;stroke-width:0.6;" x="380.347088" xlink:href="#mdd717d1b3d" y="288.430125"/>
      </g>
     </g>
    </g>
    <g id="xtick_20">
     <g id="line2d_20">
      <g>
       <use style="stroke:#000000;stroke-width:0.6;" x="399.521613" xlink:href="#mdd717d1b3d" y="288.430125"/>
      </g>
     </g>
    </g>
    <g id="xtick_21">
     <g id="line2d_21">
      <g>
       <use style="stroke:#000000;stroke-width:0.6;" x="416.434742" xlink:href="#mdd717d1b3d" y="288.430125"/>
      </g>
     </g>
    </g>
    <g id="xtick_22">
     <g id="line2d_22">
      <g>
       <use style="stroke:#000000;stroke-width:0.6;" x="531.09696" xlink:href="#mdd717d1b3d" y="288.430125"/>
      </g>
     </g>
    </g>
    <g id="xtick_23">
     <g id="line2d_23">
      <g>
       <use style="stroke:#000000;stroke-width:0.6;" x="589.319979" xlink:href="#mdd717d1b3d" y="288.430125"/>
      </g>
     </g>
    </g>
    <g id="xtick_24">
     <g id="line2d_24">
      <g>
       <use style="stroke:#000000;stroke-width:0.6;" x="630.629868" xlink:href="#mdd717d1b3d" y="288.430125"/>
      </g>
     </g>
    </g>
    <g id="xtick_25">
     <g id="line2d_25">
      <g>
       <use style="stroke:#000000;stroke-width:0.6;" x="662.672307" xlink:href="#mdd717d1b3d" y="288.430125"/>
      </g>
     </g>
    </g>
    <g id="xtick_26">
     <g id="line2d_26">
      <g>
       <use style="stroke:#000000;stroke-width:0.6;" x="688.852887" xlink:href="#mdd717d1b3d" y="288.430125"/>
      </g>
     </g>
    </g>
    <g id="xtick_27">
     <g id="line2d_27">
      <g>
       <use style="stroke:#000000;stroke-width:0.6;" x="710.988251" xlink:href="#mdd717d1b3d" y="288.430125"/>
      </g>
     </g>
    </g>
    <g id="xtick_28">
     <g id="line2d_28">
      <g>
       <use style="stroke:#000000;stroke-width:0.6;" x="730.162776" xlink:href="#mdd717d1b3d" y="288.430125"/>
      </g>
     </g>
    </g>
    <g id="xtick_29">
     <g id="line2d_29">
      <g>
       <use style="stroke:#000000;stroke-width:0.6;" x="747.075905" xlink:href="#mdd717d1b3d" y="288.430125"/>
      </g>
     </g>
    </g>
    <g id="text_13">
     <!-- Time (hour:minute) -->
     <g transform="translate(362.041094 316.706687)scale(0.1 -0.1)">
      <defs>
       <path d="M -19 4666 
L 3928 4666 
L 3928 4134 
L 2272 4134 
L 2272 0 
L 1638 0 
L 1638 4134 
L -19 4134 
L -19 4666 
z
" id="DejaVuSans-54" transform="scale(0.015625)"/>
       <path d="M 603 3500 
L 1178 3500 
L 1178 0 
L 603 0 
L 603 3500 
z
M 603 4863 
L 1178 4863 
L 1178 4134 
L 603 4134 
L 603 4863 
z
" id="DejaVuSans-69" transform="scale(0.015625)"/>
       <path d="M 3597 1894 
L 3597 1613 
L 953 1613 
Q 991 1019 1311 708 
Q 1631 397 2203 397 
Q 2534 397 2845 478 
Q 3156 559 3463 722 
L 3463 178 
Q 3153 47 2828 -22 
Q 2503 -91 2169 -91 
Q 1331 -91 842 396 
Q 353 884 353 1716 
Q 353 2575 817 3079 
Q 1281 3584 2069 3584 
Q 2775 3584 3186 3129 
Q 3597 2675 3597 1894 
z
M 3022 2063 
Q 3016 2534 2758 2815 
Q 2500 3097 2075 3097 
Q 1594 3097 1305 2825 
Q 1016 2553 972 2059 
L 3022 2063 
z
" id="DejaVuSans-65" transform="scale(0.015625)"/>
       <path id="DejaVuSans-20" transform="scale(0.015625)"/>
       <path d="M 1984 4856 
Q 1566 4138 1362 3434 
Q 1159 2731 1159 2009 
Q 1159 1288 1364 580 
Q 1569 -128 1984 -844 
L 1484 -844 
Q 1016 -109 783 600 
Q 550 1309 550 2009 
Q 550 2706 781 3412 
Q 1013 4119 1484 4856 
L 1984 4856 
z
" id="DejaVuSans-28" transform="scale(0.015625)"/>
       <path d="M 1959 3097 
Q 1497 3097 1228 2736 
Q 959 2375 959 1747 
Q 959 1119 1226 758 
Q 1494 397 1959 397 
Q 2419 397 2687 759 
Q 2956 1122 2956 1747 
Q 2956 2369 2687 2733 
Q 2419 3097 1959 3097 
z
M 1959 3584 
Q 2709 3584 3137 3096 
Q 3566 2609 3566 1747 
Q 3566 888 3137 398 
Q 2709 -91 1959 -91 
Q 1206 -91 779 398 
Q 353 888 353 1747 
Q 353 2609 779 3096 
Q 1206 3584 1959 3584 
z
" id="DejaVuSans-6f" transform="scale(0.015625)"/>
       <path d="M 544 1381 
L 544 3500 
L 1119 3500 
L 1119 1403 
Q 1119 906 1312 657 
Q 1506 409 1894 409 
Q 2359 409 2629 706 
Q 2900 1003 2900 1516 
L 2900 3500 
L 3475 3500 
L 3475 0 
L 2900 0 
L 2900 538 
Q 2691 219 2414 64 
Q 2138 -91 1772 -91 
Q 1169 -91 856 284 
Q 544 659 544 1381 
z
M 1991 3584 
L 1991 3584 
z
" id="DejaVuSans-75" transform="scale(0.015625)"/>
       <path d="M 2631 2963 
Q 2534 3019 2420 3045 
Q 2306 3072 2169 3072 
Q 1681 3072 1420 2755 
Q 1159 2438 1159 1844 
L 1159 0 
L 581 0 
L 581 3500 
L 1159 3500 
L 1159 2956 
Q 1341 3275 1631 3429 
Q 1922 3584 2338 3584 
Q 2397 3584 2469 3576 
Q 2541 3569 2628 3553 
L 2631 2963 
z
" id="DejaVuSans-72" transform="scale(0.015625)"/>
       <path d="M 3513 2113 
L 3513 0 
L 2938 0 
L 2938 2094 
Q 2938 2591 2744 2837 
Q 2550 3084 2163 3084 
Q 1697 3084 1428 2787 
Q 1159 2491 1159 1978 
L 1159 0 
L 581 0 
L 581 3500 
L 1159 3500 
L 1159 2956 
Q 1366 3272 1645 3428 
Q 1925 3584 2291 3584 
Q 2894 3584 3203 3211 
Q 3513 2838 3513 2113 
z
" id="DejaVuSans-6e" transform="scale(0.015625)"/>
       <path d="M 1172 4494 
L 1172 3500 
L 2356 3500 
L 2356 3053 
L 1172 3053 
L 1172 1153 
Q 1172 725 1289 603 
Q 1406 481 1766 481 
L 2356 481 
L 2356 0 
L 1766 0 
Q 1100 0 847 248 
Q 594 497 594 1153 
L 594 3053 
L 172 3053 
L 172 3500 
L 594 3500 
L 594 4494 
L 1172 4494 
z
" id="DejaVuSans-74" transform="scale(0.015625)"/>
       <path d="M 513 4856 
L 1013 4856 
Q 1481 4119 1714 3412 
Q 1947 2706 1947 2009 
Q 1947 1309 1714 600 
Q 1481 -109 1013 -844 
L 513 -844 
Q 928 -128 1133 580 
Q 1338 1288 1338 2009 
Q 1338 2731 1133 3434 
Q 928 4138 513 4856 
z
" id="DejaVuSans-29" transform="scale(0.015625)"/>
      </defs>
      <use xlink:href="#DejaVuSans-54"/>
      <use x="57.958984" xlink:href="#DejaVuSans-69"/>
      <use x="85.742188" xlink:href="#DejaVuSans-6d"/>
      <use x="183.154297" xlink:href="#DejaVuSans-65"/>
      <use x="244.677734" xlink:href="#DejaVuSans-20"/>
      <use x="276.464844" xlink:href="#DejaVuSans-28"/>
      <use x="315.478516" xlink:href="#DejaVuSans-68"/>
      <use x="378.857422" xlink:href="#DejaVuSans-6f"/>
      <use x="440.039062" xlink:href="#DejaVuSans-75"/>
      <use x="503.417969" xlink:href="#DejaVuSans-72"/>
      <use x="542.78125" xlink:href="#DejaVuSans-3a"/>
      <use x="576.472656" xlink:href="#DejaVuSans-6d"/>
      <use x="673.884766" xlink:href="#DejaVuSans-69"/>
      <use x="701.667969" xlink:href="#DejaVuSans-6e"/>
      <use x="765.046875" xlink:href="#DejaVuSans-75"/>
      <use x="828.425781" xlink:href="#DejaVuSans-74"/>
      <use x="867.634766" xlink:href="#DejaVuSans-65"/>
      <use x="929.158203" xlink:href="#DejaVuSans-29"/>
     </g>
    </g>
   </g>
   <g id="matplotlib.axis_2">
    <g id="ytick_1">
     <g id="line2d_30">
      <defs>
       <path d="M 0 0 
L -3.5 0 
" id="m9454caae15" style="stroke:#000000;stroke-width:0.8;"/>
      </defs>
      <g>
       <use style="stroke:#000000;stroke-width:0.8;" x="53.328125" xlink:href="#m9454caae15" y="279.870584"/>
      </g>
     </g>
     <g id="text_14">
      <!-- 0 -->
      <g transform="translate(39.965625 283.669803)scale(0.1 -0.1)">
       <use xlink:href="#DejaVuSans-30"/>
      </g>
     </g>
    </g>
    <g id="ytick_2">
     <g id="line2d_31">
      <g>
       <use style="stroke:#000000;stroke-width:0.8;" x="53.328125" xlink:href="#m9454caae15" y="247.125592"/>
      </g>
     </g>
     <g id="text_15">
      <!-- 250 -->
      <g transform="translate(27.240625 250.924811)scale(0.1 -0.1)">
       <use xlink:href="#DejaVuSans-32"/>
       <use x="63.623047" xlink:href="#DejaVuSans-35"/>
       <use x="127.246094" xlink:href="#DejaVuSans-30"/>
      </g>
     </g>
    </g>
    <g id="ytick_3">
     <g id="line2d_32">
      <g>
       <use style="stroke:#000000;stroke-width:0.8;" x="53.328125" xlink:href="#m9454caae15" y="214.3806"/>
      </g>
     </g>
     <g id="text_16">
      <!-- 500 -->
      <g transform="translate(27.240625 218.179819)scale(0.1 -0.1)">
       <use xlink:href="#DejaVuSans-35"/>
       <use x="63.623047" xlink:href="#DejaVuSans-30"/>
       <use x="127.246094" xlink:href="#DejaVuSans-30"/>
      </g>
     </g>
    </g>
    <g id="ytick_4">
     <g id="line2d_33">
      <g>
       <use style="stroke:#000000;stroke-width:0.8;" x="53.328125" xlink:href="#m9454caae15" y="181.635608"/>
      </g>
     </g>
     <g id="text_17">
      <!-- 750 -->
      <g transform="translate(27.240625 185.434827)scale(0.1 -0.1)">
       <use xlink:href="#DejaVuSans-37"/>
       <use x="63.623047" xlink:href="#DejaVuSans-35"/>
       <use x="127.246094" xlink:href="#DejaVuSans-30"/>
      </g>
     </g>
    </g>
    <g id="ytick_5">
     <g id="line2d_34">
      <g>
       <use style="stroke:#000000;stroke-width:0.8;" x="53.328125" xlink:href="#m9454caae15" y="148.890617"/>
      </g>
     </g>
     <g id="text_18">
      <!-- 1000 -->
      <g transform="translate(20.878125 152.689835)scale(0.1 -0.1)">
       <use xlink:href="#DejaVuSans-31"/>
       <use x="63.623047" xlink:href="#DejaVuSans-30"/>
       <use x="127.246094" xlink:href="#DejaVuSans-30"/>
       <use x="190.869141" xlink:href="#DejaVuSans-30"/>
      </g>
     </g>
    </g>
    <g id="ytick_6">
     <g id="line2d_35">
      <g>
       <use style="stroke:#000000;stroke-width:0.8;" x="53.328125" xlink:href="#m9454caae15" y="116.145625"/>
      </g>
     </g>
     <g id="text_19">
      <!-- 1250 -->
      <g transform="translate(20.878125 119.944843)scale(0.1 -0.1)">
       <use xlink:href="#DejaVuSans-31"/>
       <use x="63.623047" xlink:href="#DejaVuSans-32"/>
       <use x="127.246094" xlink:href="#DejaVuSans-35"/>
       <use x="190.869141" xlink:href="#DejaVuSans-30"/>
      </g>
     </g>
    </g>
    <g id="ytick_7">
     <g id="line2d_36">
      <g>
       <use style="stroke:#000000;stroke-width:0.8;" x="53.328125" xlink:href="#m9454caae15" y="83.400633"/>
      </g>
     </g>
     <g id="text_20">
      <!-- 1500 -->
      <g transform="translate(20.878125 87.199852)scale(0.1 -0.1)">
       <use xlink:href="#DejaVuSans-31"/>
       <use x="63.623047" xlink:href="#DejaVuSans-35"/>
       <use x="127.246094" xlink:href="#DejaVuSans-30"/>
       <use x="190.869141" xlink:href="#DejaVuSans-30"/>
      </g>
     </g>
    </g>
    <g id="ytick_8">
     <g id="line2d_37">
      <g>
       <use style="stroke:#000000;stroke-width:0.8;" x="53.328125" xlink:href="#m9454caae15" y="50.655641"/>
      </g>
     </g>
     <g id="text_21">
      <!-- 1750 -->
      <g transform="translate(20.878125 54.45486)scale(0.1 -0.1)">
       <use xlink:href="#DejaVuSans-31"/>
       <use x="63.623047" xlink:href="#DejaVuSans-37"/>
       <use x="127.246094" xlink:href="#DejaVuSans-35"/>
       <use x="190.869141" xlink:href="#DejaVuSans-30"/>
      </g>
     </g>
    </g>
    <g id="text_22">
     <!-- Code region coverage -->
     <g transform="translate(14.798438 210.379594)rotate(-90)scale(0.1 -0.1)">
      <defs>
       <path d="M 4122 4306 
L 4122 3641 
Q 3803 3938 3442 4084 
Q 3081 4231 2675 4231 
Q 1875 4231 1450 3742 
Q 1025 3253 1025 2328 
Q 1025 1406 1450 917 
Q 1875 428 2675 428 
Q 3081 428 3442 575 
Q 3803 722 4122 1019 
L 4122 359 
Q 3791 134 3420 21 
Q 3050 -91 2638 -91 
Q 1578 -91 968 557 
Q 359 1206 359 2328 
Q 359 3453 968 4101 
Q 1578 4750 2638 4750 
Q 3056 4750 3426 4639 
Q 3797 4528 4122 4306 
z
" id="DejaVuSans-43" transform="scale(0.015625)"/>
       <path d="M 2906 2969 
L 2906 4863 
L 3481 4863 
L 3481 0 
L 2906 0 
L 2906 525 
Q 2725 213 2448 61 
Q 2172 -91 1784 -91 
Q 1150 -91 751 415 
Q 353 922 353 1747 
Q 353 2572 751 3078 
Q 1150 3584 1784 3584 
Q 2172 3584 2448 3432 
Q 2725 3281 2906 2969 
z
M 947 1747 
Q 947 1113 1208 752 
Q 1469 391 1925 391 
Q 2381 391 2643 752 
Q 2906 1113 2906 1747 
Q 2906 2381 2643 2742 
Q 2381 3103 1925 3103 
Q 1469 3103 1208 2742 
Q 947 2381 947 1747 
z
" id="DejaVuSans-64" transform="scale(0.015625)"/>
       <path d="M 2906 1791 
Q 2906 2416 2648 2759 
Q 2391 3103 1925 3103 
Q 1463 3103 1205 2759 
Q 947 2416 947 1791 
Q 947 1169 1205 825 
Q 1463 481 1925 481 
Q 2391 481 2648 825 
Q 2906 1169 2906 1791 
z
M 3481 434 
Q 3481 -459 3084 -895 
Q 2688 -1331 1869 -1331 
Q 1566 -1331 1297 -1286 
Q 1028 -1241 775 -1147 
L 775 -588 
Q 1028 -725 1275 -790 
Q 1522 -856 1778 -856 
Q 2344 -856 2625 -561 
Q 2906 -266 2906 331 
L 2906 616 
Q 2728 306 2450 153 
Q 2172 0 1784 0 
Q 1141 0 747 490 
Q 353 981 353 1791 
Q 353 2603 747 3093 
Q 1141 3584 1784 3584 
Q 2172 3584 2450 3431 
Q 2728 3278 2906 2969 
L 2906 3500 
L 3481 3500 
L 3481 434 
z
" id="DejaVuSans-67" transform="scale(0.015625)"/>
       <path d="M 3122 3366 
L 3122 2828 
Q 2878 2963 2633 3030 
Q 2388 3097 2138 3097 
Q 1578 3097 1268 2742 
Q 959 2388 959 1747 
Q 959 1106 1268 751 
Q 1578 397 2138 397 
Q 2388 397 2633 464 
Q 2878 531 3122 666 
L 3122 134 
Q 2881 22 2623 -34 
Q 2366 -91 2075 -91 
Q 1284 -91 818 406 
Q 353 903 353 1747 
Q 353 2603 823 3093 
Q 1294 3584 2113 3584 
Q 2378 3584 2631 3529 
Q 2884 3475 3122 3366 
z
" id="DejaVuSans-63" transform="scale(0.015625)"/>
       <path d="M 191 3500 
L 800 3500 
L 1894 563 
L 2988 3500 
L 3597 3500 
L 2284 0 
L 1503 0 
L 191 3500 
z
" id="DejaVuSans-76" transform="scale(0.015625)"/>
       <path d="M 2194 1759 
Q 1497 1759 1228 1600 
Q 959 1441 959 1056 
Q 959 750 1161 570 
Q 1363 391 1709 391 
Q 2188 391 2477 730 
Q 2766 1069 2766 1631 
L 2766 1759 
L 2194 1759 
z
M 3341 1997 
L 3341 0 
L 2766 0 
L 2766 531 
Q 2569 213 2275 61 
Q 1981 -91 1556 -91 
Q 1019 -91 701 211 
Q 384 513 384 1019 
Q 384 1609 779 1909 
Q 1175 2209 1959 2209 
L 2766 2209 
L 2766 2266 
Q 2766 2663 2505 2880 
Q 2244 3097 1772 3097 
Q 1472 3097 1187 3025 
Q 903 2953 641 2809 
L 641 3341 
Q 956 3463 1253 3523 
Q 1550 3584 1831 3584 
Q 2591 3584 2966 3190 
Q 3341 2797 3341 1997 
z
" id="DejaVuSans-61" transform="scale(0.015625)"/>
      </defs>
      <use xlink:href="#DejaVuSans-43"/>
      <use x="69.824219" xlink:href="#DejaVuSans-6f"/>
      <use x="131.005859" xlink:href="#DejaVuSans-64"/>
      <use x="194.482422" xlink:href="#DejaVuSans-65"/>
      <use x="256.005859" xlink:href="#DejaVuSans-20"/>
      <use x="287.792969" xlink:href="#DejaVuSans-72"/>
      <use x="326.65625" xlink:href="#DejaVuSans-65"/>
      <use x="388.179688" xlink:href="#DejaVuSans-67"/>
      <use x="451.65625" xlink:href="#DejaVuSans-69"/>
      <use x="479.439453" xlink:href="#DejaVuSans-6f"/>
      <use x="540.621094" xlink:href="#DejaVuSans-6e"/>
      <use x="604" xlink:href="#DejaVuSans-20"/>
      <use x="635.787109" xlink:href="#DejaVuSans-63"/>
      <use x="690.767578" xlink:href="#DejaVuSans-6f"/>
      <use x="751.949219" xlink:href="#DejaVuSans-76"/>
      <use x="811.128906" xlink:href="#DejaVuSans-65"/>
      <use x="872.652344" xlink:href="#DejaVuSans-72"/>
      <use x="913.765625" xlink:href="#DejaVuSans-61"/>
      <use x="975.044922" xlink:href="#DejaVuSans-67"/>
      <use x="1038.521484" xlink:href="#DejaVuSans-65"/>
     </g>
    </g>
   </g>
   <g id="line2d_38">
    <path clip-path="url(#pdb1eeebad5)" d="M 85.79358 58.972869 
L 185.326487 48.756431 
L 243.549506 45.088992 
L 284.859395 43.124293 
L 316.901835 42.403903 
L 343.082414 41.618023 
L 365.217778 41.225083 
L 384.392303 41.159593 
L 401.305433 40.897633 
L 416.434742 40.504693 
L 430.120868 40.373714 
L 442.615322 40.177244 
L 454.109105 39.849794 
L 464.750686 39.587834 
L 474.657761 39.522344 
L 483.925211 39.260384 
L 492.630642 38.932934 
L 500.83834 38.867444 
L 508.602157 38.867444 
L 515.96765 38.801954 
L 522.973705 38.801954 
L 529.653776 38.801954 
L 536.036855 38.670974 
L 542.14823 38.670974 
L 548.01009 38.670974 
L 553.642013 38.670974 
L 559.061359 38.670974 
L 564.283594 38.605484 
L 569.322554 38.474504 
L 574.190669 38.474504 
L 578.899144 38.409014 
L 583.458119 38.409014 
L 587.876794 38.212544 
L 592.16355 38.212544 
L 596.326033 38.212544 
L 600.371248 38.212544 
L 604.305621 37.819604 
L 608.135065 37.819604 
L 611.865031 37.754114 
L 615.500558 37.623134 
L 619.046309 37.623134 
L 622.506613 37.426664 
L 625.885489 37.426664 
L 629.186684 37.426664 
L 632.413688 37.426664 
L 635.569763 37.426664 
L 638.65796 37.426664 
L 641.681137 37.426664 
L 644.641977 37.426664 
L 647.542997 37.426664 
L 650.386568 37.426664 
L 653.174921 37.426664 
L 655.910158 37.426664 
L 658.594267 37.426664 
L 661.229123 37.426664 
L 663.816502 37.230194 
L 666.358084 37.230194 
L 668.855462 37.230194 
L 671.310148 37.230194 
L 673.723577 37.230194 
L 676.097112 37.230194 
L 678.432052 37.164704 
L 680.729631 37.164704 
L 682.991027 37.164704 
L 685.21736 37.164704 
L 687.409702 37.164704 
L 689.569076 37.099214 
L 691.696457 37.099214 
L 693.792781 36.444314 
L 695.858941 36.444314 
L 697.895793 36.444314 
L 699.904156 36.444314 
L 701.884817 36.444314 
L 703.838529 36.378825 
L 705.766016 36.378825 
L 707.667973 36.378825 
L 709.545067 36.378825 
L 711.397939 36.247845 
L 713.227208 35.658435 
L 715.033466 35.658435 
L 716.817286 35.658435 
L 718.579217 35.658435 
L 720.319792 35.658435 
L 722.03952 35.527455 
L 723.738897 35.527455 
L 725.418397 35.527455 
L 727.078481 35.527455 
L 728.719591 35.527455 
L 730.342158 35.527455 
L 731.946595 35.527455 
L 733.533304 35.527455 
L 735.10267 35.527455 
" style="fill:none;stroke:#1f77b4;stroke-linecap:square;stroke-width:1.5;"/>
    <defs>
     <path d="M 0 3 
C 0.795609 3 1.55874 2.683901 2.12132 2.12132 
C 2.683901 1.55874 3 0.795609 3 0 
C 3 -0.795609 2.683901 -1.55874 2.12132 -2.12132 
C 1.55874 -2.683901 0.795609 -3 0 -3 
C -0.795609 -3 -1.55874 -2.683901 -2.12132 -2.12132 
C -2.683901 -1.55874 -3 -0.795609 -3 0 
C -3 0.795609 -2.683901 1.55874 -2.12132 2.12132 
C -1.55874 2.683901 -0.795609 3 0 3 
z
" id="m6c7db7070a" style="stroke:#ffffff;stroke-width:0.75;"/>
    </defs>
    <g clip-path="url(#pdb1eeebad5)">
     <use style="fill:#1f77b4;stroke:#ffffff;stroke-width:0.75;" x="85.79358" xlink:href="#m6c7db7070a" y="58.972869"/>
     <use style="fill:#1f77b4;stroke:#ffffff;stroke-width:0.75;" x="185.326487" xlink:href="#m6c7db7070a" y="48.756431"/>
     <use style="fill:#1f77b4;stroke:#ffffff;stroke-width:0.75;" x="243.549506" xlink:href="#m6c7db7070a" y="45.088992"/>
     <use style="fill:#1f77b4;stroke:#ffffff;stroke-width:0.75;" x="284.859395" xlink:href="#m6c7db7070a" y="43.124293"/>
     <use style="fill:#1f77b4;stroke:#ffffff;stroke-width:0.75;" x="316.901835" xlink:href="#m6c7db7070a" y="42.403903"/>
     <use style="fill:#1f77b4;stroke:#ffffff;stroke-width:0.75;" x="343.082414" xlink:href="#m6c7db7070a" y="41.618023"/>
     <use style="fill:#1f77b4;stroke:#ffffff;stroke-width:0.75;" x="365.217778" xlink:href="#m6c7db7070a" y="41.225083"/>
     <use style="fill:#1f77b4;stroke:#ffffff;stroke-width:0.75;" x="384.392303" xlink:href="#m6c7db7070a" y="41.159593"/>
     <use style="fill:#1f77b4;stroke:#ffffff;stroke-width:0.75;" x="401.305433" xlink:href="#m6c7db7070a" y="40.897633"/>
     <use style="fill:#1f77b4;stroke:#ffffff;stroke-width:0.75;" x="416.434742" xlink:href="#m6c7db7070a" y="40.504693"/>
     <use style="fill:#1f77b4;stroke:#ffffff;stroke-width:0.75;" x="430.120868" xlink:href="#m6c7db7070a" y="40.373714"/>
     <use style="fill:#1f77b4;stroke:#ffffff;stroke-width:0.75;" x="442.615322" xlink:href="#m6c7db7070a" y="40.177244"/>
     <use style="fill:#1f77b4;stroke:#ffffff;stroke-width:0.75;" x="454.109105" xlink:href="#m6c7db7070a" y="39.849794"/>
     <use style="fill:#1f77b4;stroke:#ffffff;stroke-width:0.75;" x="464.750686" xlink:href="#m6c7db7070a" y="39.587834"/>
     <use style="fill:#1f77b4;stroke:#ffffff;stroke-width:0.75;" x="474.657761" xlink:href="#m6c7db7070a" y="39.522344"/>
     <use style="fill:#1f77b4;stroke:#ffffff;stroke-width:0.75;" x="483.925211" xlink:href="#m6c7db7070a" y="39.260384"/>
     <use style="fill:#1f77b4;stroke:#ffffff;stroke-width:0.75;" x="492.630642" xlink:href="#m6c7db7070a" y="38.932934"/>
     <use style="fill:#1f77b4;stroke:#ffffff;stroke-width:0.75;" x="500.83834" xlink:href="#m6c7db7070a" y="38.867444"/>
     <use style="fill:#1f77b4;stroke:#ffffff;stroke-width:0.75;" x="508.602157" xlink:href="#m6c7db7070a" y="38.867444"/>
     <use style="fill:#1f77b4;stroke:#ffffff;stroke-width:0.75;" x="515.96765" xlink:href="#m6c7db7070a" y="38.801954"/>
     <use style="fill:#1f77b4;stroke:#ffffff;stroke-width:0.75;" x="522.973705" xlink:href="#m6c7db7070a" y="38.801954"/>
     <use style="fill:#1f77b4;stroke:#ffffff;stroke-width:0.75;" x="529.653776" xlink:href="#m6c7db7070a" y="38.801954"/>
     <use style="fill:#1f77b4;stroke:#ffffff;stroke-width:0.75;" x="536.036855" xlink:href="#m6c7db7070a" y="38.670974"/>
     <use style="fill:#1f77b4;stroke:#ffffff;stroke-width:0.75;" x="542.14823" xlink:href="#m6c7db7070a" y="38.670974"/>
     <use style="fill:#1f77b4;stroke:#ffffff;stroke-width:0.75;" x="548.01009" xlink:href="#m6c7db7070a" y="38.670974"/>
     <use style="fill:#1f77b4;stroke:#ffffff;stroke-width:0.75;" x="553.642013" xlink:href="#m6c7db7070a" y="38.670974"/>
     <use style="fill:#1f77b4;stroke:#ffffff;stroke-width:0.75;" x="559.061359" xlink:href="#m6c7db7070a" y="38.670974"/>
     <use style="fill:#1f77b4;stroke:#ffffff;stroke-width:0.75;" x="564.283594" xlink:href="#m6c7db7070a" y="38.605484"/>
     <use style="fill:#1f77b4;stroke:#ffffff;stroke-width:0.75;" x="569.322554" xlink:href="#m6c7db7070a" y="38.474504"/>
     <use style="fill:#1f77b4;stroke:#ffffff;stroke-width:0.75;" x="574.190669" xlink:href="#m6c7db7070a" y="38.474504"/>
     <use style="fill:#1f77b4;stroke:#ffffff;stroke-width:0.75;" x="578.899144" xlink:href="#m6c7db7070a" y="38.409014"/>
     <use style="fill:#1f77b4;stroke:#ffffff;stroke-width:0.75;" x="583.458119" xlink:href="#m6c7db7070a" y="38.409014"/>
     <use style="fill:#1f77b4;stroke:#ffffff;stroke-width:0.75;" x="587.876794" xlink:href="#m6c7db7070a" y="38.212544"/>
     <use style="fill:#1f77b4;stroke:#ffffff;stroke-width:0.75;" x="592.16355" xlink:href="#m6c7db7070a" y="38.212544"/>
     <use style="fill:#1f77b4;stroke:#ffffff;stroke-width:0.75;" x="596.326033" xlink:href="#m6c7db7070a" y="38.212544"/>
     <use style="fill:#1f77b4;stroke:#ffffff;stroke-width:0.75;" x="600.371248" xlink:href="#m6c7db7070a" y="38.212544"/>
     <use style="fill:#1f77b4;stroke:#ffffff;stroke-width:0.75;" x="604.305621" xlink:href="#m6c7db7070a" y="37.819604"/>
     <use style="fill:#1f77b4;stroke:#ffffff;stroke-width:0.75;" x="608.135065" xlink:href="#m6c7db7070a" y="37.819604"/>
     <use style="fill:#1f77b4;stroke:#ffffff;stroke-width:0.75;" x="611.865031" xlink:href="#m6c7db7070a" y="37.754114"/>
     <use style="fill:#1f77b4;stroke:#ffffff;stroke-width:0.75;" x="615.500558" xlink:href="#m6c7db7070a" y="37.623134"/>
     <use style="fill:#1f77b4;stroke:#ffffff;stroke-width:0.75;" x="619.046309" xlink:href="#m6c7db7070a" y="37.623134"/>
     <use style="fill:#1f77b4;stroke:#ffffff;stroke-width:0.75;" x="622.506613" xlink:href="#m6c7db7070a" y="37.426664"/>
     <use style="fill:#1f77b4;stroke:#ffffff;stroke-width:0.75;" x="625.885489" xlink:href="#m6c7db7070a" y="37.426664"/>
     <use style="fill:#1f77b4;stroke:#ffffff;stroke-width:0.75;" x="629.186684" xlink:href="#m6c7db7070a" y="37.426664"/>
     <use style="fill:#1f77b4;stroke:#ffffff;stroke-width:0.75;" x="632.413688" xlink:href="#m6c7db7070a" y="37.426664"/>
     <use style="fill:#1f77b4;stroke:#ffffff;stroke-width:0.75;" x="635.569763" xlink:href="#m6c7db7070a" y="37.426664"/>
     <use style="fill:#1f77b4;stroke:#ffffff;stroke-width:0.75;" x="638.65796" xlink:href="#m6c7db7070a" y="37.426664"/>
     <use style="fill:#1f77b4;stroke:#ffffff;stroke-width:0.75;" x="641.681137" xlink:href="#m6c7db7070a" y="37.426664"/>
     <use style="fill:#1f77b4;stroke:#ffffff;stroke-width:0.75;" x="644.641977" xlink:href="#m6c7db7070a" y="37.426664"/>
     <use style="fill:#1f77b4;stroke:#ffffff;stroke-width:0.75;" x="647.542997" xlink:href="#m6c7db7070a" y="37.426664"/>
     <use style="fill:#1f77b4;stroke:#ffffff;stroke-width:0.75;" x="650.386568" xlink:href="#m6c7db7070a" y="37.426664"/>
     <use style="fill:#1f77b4;stroke:#ffffff;stroke-width:0.75;" x="653.174921" xlink:href="#m6c7db7070a" y="37.426664"/>
     <use style="fill:#1f77b4;stroke:#ffffff;stroke-width:0.75;" x="655.910158" xlink:href="#m6c7db7070a" y="37.426664"/>
     <use style="fill:#1f77b4;stroke:#ffffff;stroke-width:0.75;" x="658.594267" xlink:href="#m6c7db7070a" y="37.426664"/>
     <use style="fill:#1f77b4;stroke:#ffffff;stroke-width:0.75;" x="661.229123" xlink:href="#m6c7db7070a" y="37.426664"/>
     <use style="fill:#1f77b4;stroke:#ffffff;stroke-width:0.75;" x="663.816502" xlink:href="#m6c7db7070a" y="37.230194"/>
     <use style="fill:#1f77b4;stroke:#ffffff;stroke-width:0.75;" x="666.358084" xlink:href="#m6c7db7070a" y="37.230194"/>
     <use style="fill:#1f77b4;stroke:#ffffff;stroke-width:0.75;" x="668.855462" xlink:href="#m6c7db7070a" y="37.230194"/>
     <use style="fill:#1f77b4;stroke:#ffffff;stroke-width:0.75;" x="671.310148" xlink:href="#m6c7db7070a" y="37.230194"/>
     <use style="fill:#1f77b4;stroke:#ffffff;stroke-width:0.75;" x="673.723577" xlink:href="#m6c7db7070a" y="37.230194"/>
     <use style="fill:#1f77b4;stroke:#ffffff;stroke-width:0.75;" x="676.097112" xlink:href="#m6c7db7070a" y="37.230194"/>
     <use style="fill:#1f77b4;stroke:#ffffff;stroke-width:0.75;" x="678.432052" xlink:href="#m6c7db7070a" y="37.164704"/>
     <use style="fill:#1f77b4;stroke:#ffffff;stroke-width:0.75;" x="680.729631" xlink:href="#m6c7db7070a" y="37.164704"/>
     <use style="fill:#1f77b4;stroke:#ffffff;stroke-width:0.75;" x="682.991027" xlink:href="#m6c7db7070a" y="37.164704"/>
     <use style="fill:#1f77b4;stroke:#ffffff;stroke-width:0.75;" x="685.21736" xlink:href="#m6c7db7070a" y="37.164704"/>
     <use style="fill:#1f77b4;stroke:#ffffff;stroke-width:0.75;" x="687.409702" xlink:href="#m6c7db7070a" y="37.164704"/>
     <use style="fill:#1f77b4;stroke:#ffffff;stroke-width:0.75;" x="689.569076" xlink:href="#m6c7db7070a" y="37.099214"/>
     <use style="fill:#1f77b4;stroke:#ffffff;stroke-width:0.75;" x="691.696457" xlink:href="#m6c7db7070a" y="37.099214"/>
     <use style="fill:#1f77b4;stroke:#ffffff;stroke-width:0.75;" x="693.792781" xlink:href="#m6c7db7070a" y="36.444314"/>
     <use style="fill:#1f77b4;stroke:#ffffff;stroke-width:0.75;" x="695.858941" xlink:href="#m6c7db7070a" y="36.444314"/>
     <use style="fill:#1f77b4;stroke:#ffffff;stroke-width:0.75;" x="697.895793" xlink:href="#m6c7db7070a" y="36.444314"/>
     <use style="fill:#1f77b4;stroke:#ffffff;stroke-width:0.75;" x="699.904156" xlink:href="#m6c7db7070a" y="36.444314"/>
     <use style="fill:#1f77b4;stroke:#ffffff;stroke-width:0.75;" x="701.884817" xlink:href="#m6c7db7070a" y="36.444314"/>
     <use style="fill:#1f77b4;stroke:#ffffff;stroke-width:0.75;" x="703.838529" xlink:href="#m6c7db7070a" y="36.378825"/>
     <use style="fill:#1f77b4;stroke:#ffffff;stroke-width:0.75;" x="705.766016" xlink:href="#m6c7db7070a" y="36.378825"/>
     <use style="fill:#1f77b4;stroke:#ffffff;stroke-width:0.75;" x="707.667973" xlink:href="#m6c7db7070a" y="36.378825"/>
     <use style="fill:#1f77b4;stroke:#ffffff;stroke-width:0.75;" x="709.545067" xlink:href="#m6c7db7070a" y="36.378825"/>
     <use style="fill:#1f77b4;stroke:#ffffff;stroke-width:0.75;" x="711.397939" xlink:href="#m6c7db7070a" y="36.247845"/>
     <use style="fill:#1f77b4;stroke:#ffffff;stroke-width:0.75;" x="713.227208" xlink:href="#m6c7db7070a" y="35.658435"/>
     <use style="fill:#1f77b4;stroke:#ffffff;stroke-width:0.75;" x="715.033466" xlink:href="#m6c7db7070a" y="35.658435"/>
     <use style="fill:#1f77b4;stroke:#ffffff;stroke-width:0.75;" x="716.817286" xlink:href="#m6c7db7070a" y="35.658435"/>
     <use style="fill:#1f77b4;stroke:#ffffff;stroke-width:0.75;" x="718.579217" xlink:href="#m6c7db7070a" y="35.658435"/>
     <use style="fill:#1f77b4;stroke:#ffffff;stroke-width:0.75;" x="720.319792" xlink:href="#m6c7db7070a" y="35.658435"/>
     <use style="fill:#1f77b4;stroke:#ffffff;stroke-width:0.75;" x="722.03952" xlink:href="#m6c7db7070a" y="35.527455"/>
     <use style="fill:#1f77b4;stroke:#ffffff;stroke-width:0.75;" x="723.738897" xlink:href="#m6c7db7070a" y="35.527455"/>
     <use style="fill:#1f77b4;stroke:#ffffff;stroke-width:0.75;" x="725.418397" xlink:href="#m6c7db7070a" y="35.527455"/>
     <use style="fill:#1f77b4;stroke:#ffffff;stroke-width:0.75;" x="727.078481" xlink:href="#m6c7db7070a" y="35.527455"/>
     <use style="fill:#1f77b4;stroke:#ffffff;stroke-width:0.75;" x="728.719591" xlink:href="#m6c7db7070a" y="35.527455"/>
     <use style="fill:#1f77b4;stroke:#ffffff;stroke-width:0.75;" x="730.342158" xlink:href="#m6c7db7070a" y="35.527455"/>
     <use style="fill:#1f77b4;stroke:#ffffff;stroke-width:0.75;" x="731.946595" xlink:href="#m6c7db7070a" y="35.527455"/>
     <use style="fill:#1f77b4;stroke:#ffffff;stroke-width:0.75;" x="733.533304" xlink:href="#m6c7db7070a" y="35.527455"/>
     <use style="fill:#1f77b4;stroke:#ffffff;stroke-width:0.75;" x="735.10267" xlink:href="#m6c7db7070a" y="35.527455"/>
    </g>
   </g>
   <g id="line2d_39">
    <path clip-path="url(#pdb1eeebad5)" d="M 85.79358 59.889729 
L 185.326487 56.41876 
L 243.549506 49.935251 
L 284.859395 47.184672 
L 316.901835 45.743892 
L 343.082414 44.827032 
L 365.217778 44.434093 
L 384.392303 43.517233 
L 401.305433 42.796843 
L 416.434742 42.338413 
L 430.120868 41.879983 
L 442.615322 41.356063 
L 454.109105 40.897633 
L 464.750686 40.832143 
L 474.657761 40.832143 
L 483.925211 40.832143 
L 492.630642 40.832143 
L 500.83834 40.570183 
L 508.602157 40.439204 
L 515.96765 40.242734 
L 522.973705 39.915284 
L 529.653776 39.915284 
L 536.036855 39.915284 
L 542.14823 39.784304 
L 548.01009 39.587834 
L 553.642013 39.522344 
L 559.061359 39.522344 
L 564.283594 39.522344 
L 569.322554 39.522344 
L 574.190669 39.522344 
L 578.899144 39.194894 
L 583.458119 39.194894 
L 587.876794 39.063914 
L 592.16355 39.063914 
L 596.326033 39.063914 
L 600.371248 39.063914 
L 604.305621 39.063914 
L 608.135065 39.063914 
L 611.865031 38.605484 
L 615.500558 38.474504 
L 619.046309 38.474504 
L 622.506613 38.474504 
L 625.885489 38.409014 
L 629.186684 38.343524 
L 632.413688 38.278034 
L 635.569763 38.278034 
L 638.65796 38.212544 
L 641.681137 38.212544 
L 644.641977 38.212544 
L 647.542997 38.212544 
L 650.386568 37.950584 
L 653.174921 37.819604 
L 655.910158 37.688624 
L 658.594267 37.557644 
L 661.229123 37.557644 
L 663.816502 37.492154 
L 666.358084 37.492154 
L 668.855462 37.492154 
L 671.310148 37.361174 
L 673.723577 37.361174 
L 676.097112 37.361174 
L 678.432052 37.230194 
L 680.729631 37.230194 
L 682.991027 37.230194 
L 685.21736 37.230194 
L 687.409702 37.230194 
L 689.569076 37.230194 
L 691.696457 37.230194 
L 693.792781 37.230194 
L 695.858941 37.230194 
L 697.895793 36.575294 
L 699.904156 36.247845 
L 701.884817 36.247845 
L 703.838529 36.247845 
L 705.766016 36.247845 
L 707.667973 36.247845 
L 709.545067 36.247845 
L 711.397939 36.247845 
L 713.227208 36.247845 
L 715.033466 35.592945 
L 716.817286 35.592945 
L 718.579217 35.592945 
L 720.319792 35.592945 
L 722.03952 35.592945 
L 723.738897 35.592945 
L 725.418397 35.592945 
L 727.078481 35.592945 
L 728.719591 35.592945 
L 730.342158 35.592945 
L 731.946595 35.592945 
L 733.533304 35.592945 
L 735.10267 35.592945 
" style="fill:none;stroke:#98df8a;stroke-linecap:square;stroke-width:1.5;"/>
    <defs>
     <path d="M -0 3 
L 3 -3 
L -3 -3 
z
" id="mce6d19fbb2" style="stroke:#ffffff;stroke-linejoin:miter;stroke-width:0.75;"/>
    </defs>
    <g clip-path="url(#pdb1eeebad5)">
     <use style="fill:#98df8a;stroke:#ffffff;stroke-linejoin:miter;stroke-width:0.75;" x="85.79358" xlink:href="#mce6d19fbb2" y="59.889729"/>
     <use style="fill:#98df8a;stroke:#ffffff;stroke-linejoin:miter;stroke-width:0.75;" x="185.326487" xlink:href="#mce6d19fbb2" y="56.41876"/>
     <use style="fill:#98df8a;stroke:#ffffff;stroke-linejoin:miter;stroke-width:0.75;" x="243.549506" xlink:href="#mce6d19fbb2" y="49.935251"/>
     <use style="fill:#98df8a;stroke:#ffffff;stroke-linejoin:miter;stroke-width:0.75;" x="284.859395" xlink:href="#mce6d19fbb2" y="47.184672"/>
     <use style="fill:#98df8a;stroke:#ffffff;stroke-linejoin:miter;stroke-width:0.75;" x="316.901835" xlink:href="#mce6d19fbb2" y="45.743892"/>
     <use style="fill:#98df8a;stroke:#ffffff;stroke-linejoin:miter;stroke-width:0.75;" x="343.082414" xlink:href="#mce6d19fbb2" y="44.827032"/>
     <use style="fill:#98df8a;stroke:#ffffff;stroke-linejoin:miter;stroke-width:0.75;" x="365.217778" xlink:href="#mce6d19fbb2" y="44.434093"/>
     <use style="fill:#98df8a;stroke:#ffffff;stroke-linejoin:miter;stroke-width:0.75;" x="384.392303" xlink:href="#mce6d19fbb2" y="43.517233"/>
     <use style="fill:#98df8a;stroke:#ffffff;stroke-linejoin:miter;stroke-width:0.75;" x="401.305433" xlink:href="#mce6d19fbb2" y="42.796843"/>
     <use style="fill:#98df8a;stroke:#ffffff;stroke-linejoin:miter;stroke-width:0.75;" x="416.434742" xlink:href="#mce6d19fbb2" y="42.338413"/>
     <use style="fill:#98df8a;stroke:#ffffff;stroke-linejoin:miter;stroke-width:0.75;" x="430.120868" xlink:href="#mce6d19fbb2" y="41.879983"/>
     <use style="fill:#98df8a;stroke:#ffffff;stroke-linejoin:miter;stroke-width:0.75;" x="442.615322" xlink:href="#mce6d19fbb2" y="41.356063"/>
     <use style="fill:#98df8a;stroke:#ffffff;stroke-linejoin:miter;stroke-width:0.75;" x="454.109105" xlink:href="#mce6d19fbb2" y="40.897633"/>
     <use style="fill:#98df8a;stroke:#ffffff;stroke-linejoin:miter;stroke-width:0.75;" x="464.750686" xlink:href="#mce6d19fbb2" y="40.832143"/>
     <use style="fill:#98df8a;stroke:#ffffff;stroke-linejoin:miter;stroke-width:0.75;" x="474.657761" xlink:href="#mce6d19fbb2" y="40.832143"/>
     <use style="fill:#98df8a;stroke:#ffffff;stroke-linejoin:miter;stroke-width:0.75;" x="483.925211" xlink:href="#mce6d19fbb2" y="40.832143"/>
     <use style="fill:#98df8a;stroke:#ffffff;stroke-linejoin:miter;stroke-width:0.75;" x="492.630642" xlink:href="#mce6d19fbb2" y="40.832143"/>
     <use style="fill:#98df8a;stroke:#ffffff;stroke-linejoin:miter;stroke-width:0.75;" x="500.83834" xlink:href="#mce6d19fbb2" y="40.570183"/>
     <use style="fill:#98df8a;stroke:#ffffff;stroke-linejoin:miter;stroke-width:0.75;" x="508.602157" xlink:href="#mce6d19fbb2" y="40.439204"/>
     <use style="fill:#98df8a;stroke:#ffffff;stroke-linejoin:miter;stroke-width:0.75;" x="515.96765" xlink:href="#mce6d19fbb2" y="40.242734"/>
     <use style="fill:#98df8a;stroke:#ffffff;stroke-linejoin:miter;stroke-width:0.75;" x="522.973705" xlink:href="#mce6d19fbb2" y="39.915284"/>
     <use style="fill:#98df8a;stroke:#ffffff;stroke-linejoin:miter;stroke-width:0.75;" x="529.653776" xlink:href="#mce6d19fbb2" y="39.915284"/>
     <use style="fill:#98df8a;stroke:#ffffff;stroke-linejoin:miter;stroke-width:0.75;" x="536.036855" xlink:href="#mce6d19fbb2" y="39.915284"/>
     <use style="fill:#98df8a;stroke:#ffffff;stroke-linejoin:miter;stroke-width:0.75;" x="542.14823" xlink:href="#mce6d19fbb2" y="39.784304"/>
     <use style="fill:#98df8a;stroke:#ffffff;stroke-linejoin:miter;stroke-width:0.75;" x="548.01009" xlink:href="#mce6d19fbb2" y="39.587834"/>
     <use style="fill:#98df8a;stroke:#ffffff;stroke-linejoin:miter;stroke-width:0.75;" x="553.642013" xlink:href="#mce6d19fbb2" y="39.522344"/>
     <use style="fill:#98df8a;stroke:#ffffff;stroke-linejoin:miter;stroke-width:0.75;" x="559.061359" xlink:href="#mce6d19fbb2" y="39.522344"/>
     <use style="fill:#98df8a;stroke:#ffffff;stroke-linejoin:miter;stroke-width:0.75;" x="564.283594" xlink:href="#mce6d19fbb2" y="39.522344"/>
     <use style="fill:#98df8a;stroke:#ffffff;stroke-linejoin:miter;stroke-width:0.75;" x="569.322554" xlink:href="#mce6d19fbb2" y="39.522344"/>
     <use style="fill:#98df8a;stroke:#ffffff;stroke-linejoin:miter;stroke-width:0.75;" x="574.190669" xlink:href="#mce6d19fbb2" y="39.522344"/>
     <use style="fill:#98df8a;stroke:#ffffff;stroke-linejoin:miter;stroke-width:0.75;" x="578.899144" xlink:href="#mce6d19fbb2" y="39.194894"/>
     <use style="fill:#98df8a;stroke:#ffffff;stroke-linejoin:miter;stroke-width:0.75;" x="583.458119" xlink:href="#mce6d19fbb2" y="39.194894"/>
     <use style="fill:#98df8a;stroke:#ffffff;stroke-linejoin:miter;stroke-width:0.75;" x="587.876794" xlink:href="#mce6d19fbb2" y="39.063914"/>
     <use style="fill:#98df8a;stroke:#ffffff;stroke-linejoin:miter;stroke-width:0.75;" x="592.16355" xlink:href="#mce6d19fbb2" y="39.063914"/>
     <use style="fill:#98df8a;stroke:#ffffff;stroke-linejoin:miter;stroke-width:0.75;" x="596.326033" xlink:href="#mce6d19fbb2" y="39.063914"/>
     <use style="fill:#98df8a;stroke:#ffffff;stroke-linejoin:miter;stroke-width:0.75;" x="600.371248" xlink:href="#mce6d19fbb2" y="39.063914"/>
     <use style="fill:#98df8a;stroke:#ffffff;stroke-linejoin:miter;stroke-width:0.75;" x="604.305621" xlink:href="#mce6d19fbb2" y="39.063914"/>
     <use style="fill:#98df8a;stroke:#ffffff;stroke-linejoin:miter;stroke-width:0.75;" x="608.135065" xlink:href="#mce6d19fbb2" y="39.063914"/>
     <use style="fill:#98df8a;stroke:#ffffff;stroke-linejoin:miter;stroke-width:0.75;" x="611.865031" xlink:href="#mce6d19fbb2" y="38.605484"/>
     <use style="fill:#98df8a;stroke:#ffffff;stroke-linejoin:miter;stroke-width:0.75;" x="615.500558" xlink:href="#mce6d19fbb2" y="38.474504"/>
     <use style="fill:#98df8a;stroke:#ffffff;stroke-linejoin:miter;stroke-width:0.75;" x="619.046309" xlink:href="#mce6d19fbb2" y="38.474504"/>
     <use style="fill:#98df8a;stroke:#ffffff;stroke-linejoin:miter;stroke-width:0.75;" x="622.506613" xlink:href="#mce6d19fbb2" y="38.474504"/>
     <use style="fill:#98df8a;stroke:#ffffff;stroke-linejoin:miter;stroke-width:0.75;" x="625.885489" xlink:href="#mce6d19fbb2" y="38.409014"/>
     <use style="fill:#98df8a;stroke:#ffffff;stroke-linejoin:miter;stroke-width:0.75;" x="629.186684" xlink:href="#mce6d19fbb2" y="38.343524"/>
     <use style="fill:#98df8a;stroke:#ffffff;stroke-linejoin:miter;stroke-width:0.75;" x="632.413688" xlink:href="#mce6d19fbb2" y="38.278034"/>
     <use style="fill:#98df8a;stroke:#ffffff;stroke-linejoin:miter;stroke-width:0.75;" x="635.569763" xlink:href="#mce6d19fbb2" y="38.278034"/>
     <use style="fill:#98df8a;stroke:#ffffff;stroke-linejoin:miter;stroke-width:0.75;" x="638.65796" xlink:href="#mce6d19fbb2" y="38.212544"/>
     <use style="fill:#98df8a;stroke:#ffffff;stroke-linejoin:miter;stroke-width:0.75;" x="641.681137" xlink:href="#mce6d19fbb2" y="38.212544"/>
     <use style="fill:#98df8a;stroke:#ffffff;stroke-linejoin:miter;stroke-width:0.75;" x="644.641977" xlink:href="#mce6d19fbb2" y="38.212544"/>
     <use style="fill:#98df8a;stroke:#ffffff;stroke-linejoin:miter;stroke-width:0.75;" x="647.542997" xlink:href="#mce6d19fbb2" y="38.212544"/>
     <use style="fill:#98df8a;stroke:#ffffff;stroke-linejoin:miter;stroke-width:0.75;" x="650.386568" xlink:href="#mce6d19fbb2" y="37.950584"/>
     <use style="fill:#98df8a;stroke:#ffffff;stroke-linejoin:miter;stroke-width:0.75;" x="653.174921" xlink:href="#mce6d19fbb2" y="37.819604"/>
     <use style="fill:#98df8a;stroke:#ffffff;stroke-linejoin:miter;stroke-width:0.75;" x="655.910158" xlink:href="#mce6d19fbb2" y="37.688624"/>
     <use style="fill:#98df8a;stroke:#ffffff;stroke-linejoin:miter;stroke-width:0.75;" x="658.594267" xlink:href="#mce6d19fbb2" y="37.557644"/>
     <use style="fill:#98df8a;stroke:#ffffff;stroke-linejoin:miter;stroke-width:0.75;" x="661.229123" xlink:href="#mce6d19fbb2" y="37.557644"/>
     <use style="fill:#98df8a;stroke:#ffffff;stroke-linejoin:miter;stroke-width:0.75;" x="663.816502" xlink:href="#mce6d19fbb2" y="37.492154"/>
     <use style="fill:#98df8a;stroke:#ffffff;stroke-linejoin:miter;stroke-width:0.75;" x="666.358084" xlink:href="#mce6d19fbb2" y="37.492154"/>
     <use style="fill:#98df8a;stroke:#ffffff;stroke-linejoin:miter;stroke-width:0.75;" x="668.855462" xlink:href="#mce6d19fbb2" y="37.492154"/>
     <use style="fill:#98df8a;stroke:#ffffff;stroke-linejoin:miter;stroke-width:0.75;" x="671.310148" xlink:href="#mce6d19fbb2" y="37.361174"/>
     <use style="fill:#98df8a;stroke:#ffffff;stroke-linejoin:miter;stroke-width:0.75;" x="673.723577" xlink:href="#mce6d19fbb2" y="37.361174"/>
     <use style="fill:#98df8a;stroke:#ffffff;stroke-linejoin:miter;stroke-width:0.75;" x="676.097112" xlink:href="#mce6d19fbb2" y="37.361174"/>
     <use style="fill:#98df8a;stroke:#ffffff;stroke-linejoin:miter;stroke-width:0.75;" x="678.432052" xlink:href="#mce6d19fbb2" y="37.230194"/>
     <use style="fill:#98df8a;stroke:#ffffff;stroke-linejoin:miter;stroke-width:0.75;" x="680.729631" xlink:href="#mce6d19fbb2" y="37.230194"/>
     <use style="fill:#98df8a;stroke:#ffffff;stroke-linejoin:miter;stroke-width:0.75;" x="682.991027" xlink:href="#mce6d19fbb2" y="37.230194"/>
     <use style="fill:#98df8a;stroke:#ffffff;stroke-linejoin:miter;stroke-width:0.75;" x="685.21736" xlink:href="#mce6d19fbb2" y="37.230194"/>
     <use style="fill:#98df8a;stroke:#ffffff;stroke-linejoin:miter;stroke-width:0.75;" x="687.409702" xlink:href="#mce6d19fbb2" y="37.230194"/>
     <use style="fill:#98df8a;stroke:#ffffff;stroke-linejoin:miter;stroke-width:0.75;" x="689.569076" xlink:href="#mce6d19fbb2" y="37.230194"/>
     <use style="fill:#98df8a;stroke:#ffffff;stroke-linejoin:miter;stroke-width:0.75;" x="691.696457" xlink:href="#mce6d19fbb2" y="37.230194"/>
     <use style="fill:#98df8a;stroke:#ffffff;stroke-linejoin:miter;stroke-width:0.75;" x="693.792781" xlink:href="#mce6d19fbb2" y="37.230194"/>
     <use style="fill:#98df8a;stroke:#ffffff;stroke-linejoin:miter;stroke-width:0.75;" x="695.858941" xlink:href="#mce6d19fbb2" y="37.230194"/>
     <use style="fill:#98df8a;stroke:#ffffff;stroke-linejoin:miter;stroke-width:0.75;" x="697.895793" xlink:href="#mce6d19fbb2" y="36.575294"/>
     <use style="fill:#98df8a;stroke:#ffffff;stroke-linejoin:miter;stroke-width:0.75;" x="699.904156" xlink:href="#mce6d19fbb2" y="36.247845"/>
     <use style="fill:#98df8a;stroke:#ffffff;stroke-linejoin:miter;stroke-width:0.75;" x="701.884817" xlink:href="#mce6d19fbb2" y="36.247845"/>
     <use style="fill:#98df8a;stroke:#ffffff;stroke-linejoin:miter;stroke-width:0.75;" x="703.838529" xlink:href="#mce6d19fbb2" y="36.247845"/>
     <use style="fill:#98df8a;stroke:#ffffff;stroke-linejoin:miter;stroke-width:0.75;" x="705.766016" xlink:href="#mce6d19fbb2" y="36.247845"/>
     <use style="fill:#98df8a;stroke:#ffffff;stroke-linejoin:miter;stroke-width:0.75;" x="707.667973" xlink:href="#mce6d19fbb2" y="36.247845"/>
     <use style="fill:#98df8a;stroke:#ffffff;stroke-linejoin:miter;stroke-width:0.75;" x="709.545067" xlink:href="#mce6d19fbb2" y="36.247845"/>
     <use style="fill:#98df8a;stroke:#ffffff;stroke-linejoin:miter;stroke-width:0.75;" x="711.397939" xlink:href="#mce6d19fbb2" y="36.247845"/>
     <use style="fill:#98df8a;stroke:#ffffff;stroke-linejoin:miter;stroke-width:0.75;" x="713.227208" xlink:href="#mce6d19fbb2" y="36.247845"/>
     <use style="fill:#98df8a;stroke:#ffffff;stroke-linejoin:miter;stroke-width:0.75;" x="715.033466" xlink:href="#mce6d19fbb2" y="35.592945"/>
     <use style="fill:#98df8a;stroke:#ffffff;stroke-linejoin:miter;stroke-width:0.75;" x="716.817286" xlink:href="#mce6d19fbb2" y="35.592945"/>
     <use style="fill:#98df8a;stroke:#ffffff;stroke-linejoin:miter;stroke-width:0.75;" x="718.579217" xlink:href="#mce6d19fbb2" y="35.592945"/>
     <use style="fill:#98df8a;stroke:#ffffff;stroke-linejoin:miter;stroke-width:0.75;" x="720.319792" xlink:href="#mce6d19fbb2" y="35.592945"/>
     <use style="fill:#98df8a;stroke:#ffffff;stroke-linejoin:miter;stroke-width:0.75;" x="722.03952" xlink:href="#mce6d19fbb2" y="35.592945"/>
     <use style="fill:#98df8a;stroke:#ffffff;stroke-linejoin:miter;stroke-width:0.75;" x="723.738897" xlink:href="#mce6d19fbb2" y="35.592945"/>
     <use style="fill:#98df8a;stroke:#ffffff;stroke-linejoin:miter;stroke-width:0.75;" x="725.418397" xlink:href="#mce6d19fbb2" y="35.592945"/>
     <use style="fill:#98df8a;stroke:#ffffff;stroke-linejoin:miter;stroke-width:0.75;" x="727.078481" xlink:href="#mce6d19fbb2" y="35.592945"/>
     <use style="fill:#98df8a;stroke:#ffffff;stroke-linejoin:miter;stroke-width:0.75;" x="728.719591" xlink:href="#mce6d19fbb2" y="35.592945"/>
     <use style="fill:#98df8a;stroke:#ffffff;stroke-linejoin:miter;stroke-width:0.75;" x="730.342158" xlink:href="#mce6d19fbb2" y="35.592945"/>
     <use style="fill:#98df8a;stroke:#ffffff;stroke-linejoin:miter;stroke-width:0.75;" x="731.946595" xlink:href="#mce6d19fbb2" y="35.592945"/>
     <use style="fill:#98df8a;stroke:#ffffff;stroke-linejoin:miter;stroke-width:0.75;" x="733.533304" xlink:href="#mce6d19fbb2" y="35.592945"/>
     <use style="fill:#98df8a;stroke:#ffffff;stroke-linejoin:miter;stroke-width:0.75;" x="735.10267" xlink:href="#mce6d19fbb2" y="35.592945"/>
    </g>
   </g>
   <g id="line2d_40">
    <path clip-path="url(#pdb1eeebad5)" d="M 85.79358 56.41876 
L 185.326487 50.786621 
L 243.549506 45.809382 
L 284.859395 45.154482 
L 316.901835 43.779193 
L 343.082414 42.993313 
L 365.217778 42.665863 
L 384.392303 42.076453 
L 401.305433 41.683513 
L 416.434742 41.028613 
L 430.120868 40.766653 
L 442.615322 40.635673 
L 454.109105 40.111754 
L 464.750686 39.784304 
L 474.657761 39.784304 
L 483.925211 39.522344 
L 492.630642 39.522344 
L 500.83834 39.391364 
L 508.602157 39.325874 
L 515.96765 39.325874 
L 522.973705 39.194894 
L 529.653776 39.194894 
L 536.036855 39.194894 
L 542.14823 39.129404 
L 548.01009 38.932934 
L 553.642013 38.932934 
L 559.061359 38.801954 
L 564.283594 38.801954 
L 569.322554 38.801954 
L 574.190669 38.801954 
L 578.899144 38.670974 
L 583.458119 38.670974 
L 587.876794 38.670974 
L 592.16355 38.670974 
L 596.326033 38.670974 
L 600.371248 38.670974 
L 604.305621 38.670974 
L 608.135065 38.670974 
L 611.865031 38.670974 
L 615.500558 38.670974 
L 619.046309 38.147054 
L 622.506613 38.147054 
L 625.885489 38.147054 
L 629.186684 38.147054 
L 632.413688 37.819604 
L 635.569763 37.819604 
L 638.65796 37.819604 
L 641.681137 37.688624 
L 644.641977 37.688624 
L 647.542997 37.688624 
L 650.386568 37.688624 
L 653.174921 37.688624 
L 655.910158 37.688624 
L 658.594267 37.557644 
L 661.229123 37.557644 
L 663.816502 37.557644 
L 666.358084 37.557644 
L 668.855462 37.557644 
L 671.310148 37.557644 
L 673.723577 37.557644 
L 676.097112 37.492154 
L 678.432052 36.902744 
L 680.729631 36.902744 
L 682.991027 36.902744 
L 685.21736 36.902744 
L 687.409702 36.902744 
L 689.569076 36.771764 
L 691.696457 36.771764 
L 693.792781 36.771764 
L 695.858941 36.771764 
L 697.895793 36.771764 
L 699.904156 36.771764 
L 701.884817 36.640784 
L 703.838529 36.640784 
L 705.766016 36.640784 
L 707.667973 36.640784 
L 709.545067 36.640784 
L 711.397939 36.509804 
L 713.227208 36.509804 
L 715.033466 36.378825 
L 716.817286 36.378825 
L 718.579217 36.378825 
L 720.319792 35.330985 
L 722.03952 35.330985 
L 723.738897 35.330985 
L 725.418397 35.330985 
L 727.078481 35.330985 
L 728.719591 35.330985 
L 730.342158 35.330985 
L 731.946595 35.330985 
L 733.533304 35.330985 
L 735.10267 35.330985 
" style="fill:none;stroke:#d62728;stroke-linecap:square;stroke-width:1.5;"/>
    <defs>
     <path d="M 0 -3 
L -3 3 
L 3 3 
z
" id="m79a45dbf9a" style="stroke:#ffffff;stroke-linejoin:miter;stroke-width:0.75;"/>
    </defs>
    <g clip-path="url(#pdb1eeebad5)">
     <use style="fill:#d62728;stroke:#ffffff;stroke-linejoin:miter;stroke-width:0.75;" x="85.79358" xlink:href="#m79a45dbf9a" y="56.41876"/>
     <use style="fill:#d62728;stroke:#ffffff;stroke-linejoin:miter;stroke-width:0.75;" x="185.326487" xlink:href="#m79a45dbf9a" y="50.786621"/>
     <use style="fill:#d62728;stroke:#ffffff;stroke-linejoin:miter;stroke-width:0.75;" x="243.549506" xlink:href="#m79a45dbf9a" y="45.809382"/>
     <use style="fill:#d62728;stroke:#ffffff;stroke-linejoin:miter;stroke-width:0.75;" x="284.859395" xlink:href="#m79a45dbf9a" y="45.154482"/>
     <use style="fill:#d62728;stroke:#ffffff;stroke-linejoin:miter;stroke-width:0.75;" x="316.901835" xlink:href="#m79a45dbf9a" y="43.779193"/>
     <use style="fill:#d62728;stroke:#ffffff;stroke-linejoin:miter;stroke-width:0.75;" x="343.082414" xlink:href="#m79a45dbf9a" y="42.993313"/>
     <use style="fill:#d62728;stroke:#ffffff;stroke-linejoin:miter;stroke-width:0.75;" x="365.217778" xlink:href="#m79a45dbf9a" y="42.665863"/>
     <use style="fill:#d62728;stroke:#ffffff;stroke-linejoin:miter;stroke-width:0.75;" x="384.392303" xlink:href="#m79a45dbf9a" y="42.076453"/>
     <use style="fill:#d62728;stroke:#ffffff;stroke-linejoin:miter;stroke-width:0.75;" x="401.305433" xlink:href="#m79a45dbf9a" y="41.683513"/>
     <use style="fill:#d62728;stroke:#ffffff;stroke-linejoin:miter;stroke-width:0.75;" x="416.434742" xlink:href="#m79a45dbf9a" y="41.028613"/>
     <use style="fill:#d62728;stroke:#ffffff;stroke-linejoin:miter;stroke-width:0.75;" x="430.120868" xlink:href="#m79a45dbf9a" y="40.766653"/>
     <use style="fill:#d62728;stroke:#ffffff;stroke-linejoin:miter;stroke-width:0.75;" x="442.615322" xlink:href="#m79a45dbf9a" y="40.635673"/>
     <use style="fill:#d62728;stroke:#ffffff;stroke-linejoin:miter;stroke-width:0.75;" x="454.109105" xlink:href="#m79a45dbf9a" y="40.111754"/>
     <use style="fill:#d62728;stroke:#ffffff;stroke-linejoin:miter;stroke-width:0.75;" x="464.750686" xlink:href="#m79a45dbf9a" y="39.784304"/>
     <use style="fill:#d62728;stroke:#ffffff;stroke-linejoin:miter;stroke-width:0.75;" x="474.657761" xlink:href="#m79a45dbf9a" y="39.784304"/>
     <use style="fill:#d62728;stroke:#ffffff;stroke-linejoin:miter;stroke-width:0.75;" x="483.925211" xlink:href="#m79a45dbf9a" y="39.522344"/>
     <use style="fill:#d62728;stroke:#ffffff;stroke-linejoin:miter;stroke-width:0.75;" x="492.630642" xlink:href="#m79a45dbf9a" y="39.522344"/>
     <use style="fill:#d62728;stroke:#ffffff;stroke-linejoin:miter;stroke-width:0.75;" x="500.83834" xlink:href="#m79a45dbf9a" y="39.391364"/>
     <use style="fill:#d62728;stroke:#ffffff;stroke-linejoin:miter;stroke-width:0.75;" x="508.602157" xlink:href="#m79a45dbf9a" y="39.325874"/>
     <use style="fill:#d62728;stroke:#ffffff;stroke-linejoin:miter;stroke-width:0.75;" x="515.96765" xlink:href="#m79a45dbf9a" y="39.325874"/>
     <use style="fill:#d62728;stroke:#ffffff;stroke-linejoin:miter;stroke-width:0.75;" x="522.973705" xlink:href="#m79a45dbf9a" y="39.194894"/>
     <use style="fill:#d62728;stroke:#ffffff;stroke-linejoin:miter;stroke-width:0.75;" x="529.653776" xlink:href="#m79a45dbf9a" y="39.194894"/>
     <use style="fill:#d62728;stroke:#ffffff;stroke-linejoin:miter;stroke-width:0.75;" x="536.036855" xlink:href="#m79a45dbf9a" y="39.194894"/>
     <use style="fill:#d62728;stroke:#ffffff;stroke-linejoin:miter;stroke-width:0.75;" x="542.14823" xlink:href="#m79a45dbf9a" y="39.129404"/>
     <use style="fill:#d62728;stroke:#ffffff;stroke-linejoin:miter;stroke-width:0.75;" x="548.01009" xlink:href="#m79a45dbf9a" y="38.932934"/>
     <use style="fill:#d62728;stroke:#ffffff;stroke-linejoin:miter;stroke-width:0.75;" x="553.642013" xlink:href="#m79a45dbf9a" y="38.932934"/>
     <use style="fill:#d62728;stroke:#ffffff;stroke-linejoin:miter;stroke-width:0.75;" x="559.061359" xlink:href="#m79a45dbf9a" y="38.801954"/>
     <use style="fill:#d62728;stroke:#ffffff;stroke-linejoin:miter;stroke-width:0.75;" x="564.283594" xlink:href="#m79a45dbf9a" y="38.801954"/>
     <use style="fill:#d62728;stroke:#ffffff;stroke-linejoin:miter;stroke-width:0.75;" x="569.322554" xlink:href="#m79a45dbf9a" y="38.801954"/>
     <use style="fill:#d62728;stroke:#ffffff;stroke-linejoin:miter;stroke-width:0.75;" x="574.190669" xlink:href="#m79a45dbf9a" y="38.801954"/>
     <use style="fill:#d62728;stroke:#ffffff;stroke-linejoin:miter;stroke-width:0.75;" x="578.899144" xlink:href="#m79a45dbf9a" y="38.670974"/>
     <use style="fill:#d62728;stroke:#ffffff;stroke-linejoin:miter;stroke-width:0.75;" x="583.458119" xlink:href="#m79a45dbf9a" y="38.670974"/>
     <use style="fill:#d62728;stroke:#ffffff;stroke-linejoin:miter;stroke-width:0.75;" x="587.876794" xlink:href="#m79a45dbf9a" y="38.670974"/>
     <use style="fill:#d62728;stroke:#ffffff;stroke-linejoin:miter;stroke-width:0.75;" x="592.16355" xlink:href="#m79a45dbf9a" y="38.670974"/>
     <use style="fill:#d62728;stroke:#ffffff;stroke-linejoin:miter;stroke-width:0.75;" x="596.326033" xlink:href="#m79a45dbf9a" y="38.670974"/>
     <use style="fill:#d62728;stroke:#ffffff;stroke-linejoin:miter;stroke-width:0.75;" x="600.371248" xlink:href="#m79a45dbf9a" y="38.670974"/>
     <use style="fill:#d62728;stroke:#ffffff;stroke-linejoin:miter;stroke-width:0.75;" x="604.305621" xlink:href="#m79a45dbf9a" y="38.670974"/>
     <use style="fill:#d62728;stroke:#ffffff;stroke-linejoin:miter;stroke-width:0.75;" x="608.135065" xlink:href="#m79a45dbf9a" y="38.670974"/>
     <use style="fill:#d62728;stroke:#ffffff;stroke-linejoin:miter;stroke-width:0.75;" x="611.865031" xlink:href="#m79a45dbf9a" y="38.670974"/>
     <use style="fill:#d62728;stroke:#ffffff;stroke-linejoin:miter;stroke-width:0.75;" x="615.500558" xlink:href="#m79a45dbf9a" y="38.670974"/>
     <use style="fill:#d62728;stroke:#ffffff;stroke-linejoin:miter;stroke-width:0.75;" x="619.046309" xlink:href="#m79a45dbf9a" y="38.147054"/>
     <use style="fill:#d62728;stroke:#ffffff;stroke-linejoin:miter;stroke-width:0.75;" x="622.506613" xlink:href="#m79a45dbf9a" y="38.147054"/>
     <use style="fill:#d62728;stroke:#ffffff;stroke-linejoin:miter;stroke-width:0.75;" x="625.885489" xlink:href="#m79a45dbf9a" y="38.147054"/>
     <use style="fill:#d62728;stroke:#ffffff;stroke-linejoin:miter;stroke-width:0.75;" x="629.186684" xlink:href="#m79a45dbf9a" y="38.147054"/>
     <use style="fill:#d62728;stroke:#ffffff;stroke-linejoin:miter;stroke-width:0.75;" x="632.413688" xlink:href="#m79a45dbf9a" y="37.819604"/>
     <use style="fill:#d62728;stroke:#ffffff;stroke-linejoin:miter;stroke-width:0.75;" x="635.569763" xlink:href="#m79a45dbf9a" y="37.819604"/>
     <use style="fill:#d62728;stroke:#ffffff;stroke-linejoin:miter;stroke-width:0.75;" x="638.65796" xlink:href="#m79a45dbf9a" y="37.819604"/>
     <use style="fill:#d62728;stroke:#ffffff;stroke-linejoin:miter;stroke-width:0.75;" x="641.681137" xlink:href="#m79a45dbf9a" y="37.688624"/>
     <use style="fill:#d62728;stroke:#ffffff;stroke-linejoin:miter;stroke-width:0.75;" x="644.641977" xlink:href="#m79a45dbf9a" y="37.688624"/>
     <use style="fill:#d62728;stroke:#ffffff;stroke-linejoin:miter;stroke-width:0.75;" x="647.542997" xlink:href="#m79a45dbf9a" y="37.688624"/>
     <use style="fill:#d62728;stroke:#ffffff;stroke-linejoin:miter;stroke-width:0.75;" x="650.386568" xlink:href="#m79a45dbf9a" y="37.688624"/>
     <use style="fill:#d62728;stroke:#ffffff;stroke-linejoin:miter;stroke-width:0.75;" x="653.174921" xlink:href="#m79a45dbf9a" y="37.688624"/>
     <use style="fill:#d62728;stroke:#ffffff;stroke-linejoin:miter;stroke-width:0.75;" x="655.910158" xlink:href="#m79a45dbf9a" y="37.688624"/>
     <use style="fill:#d62728;stroke:#ffffff;stroke-linejoin:miter;stroke-width:0.75;" x="658.594267" xlink:href="#m79a45dbf9a" y="37.557644"/>
     <use style="fill:#d62728;stroke:#ffffff;stroke-linejoin:miter;stroke-width:0.75;" x="661.229123" xlink:href="#m79a45dbf9a" y="37.557644"/>
     <use style="fill:#d62728;stroke:#ffffff;stroke-linejoin:miter;stroke-width:0.75;" x="663.816502" xlink:href="#m79a45dbf9a" y="37.557644"/>
     <use style="fill:#d62728;stroke:#ffffff;stroke-linejoin:miter;stroke-width:0.75;" x="666.358084" xlink:href="#m79a45dbf9a" y="37.557644"/>
     <use style="fill:#d62728;stroke:#ffffff;stroke-linejoin:miter;stroke-width:0.75;" x="668.855462" xlink:href="#m79a45dbf9a" y="37.557644"/>
     <use style="fill:#d62728;stroke:#ffffff;stroke-linejoin:miter;stroke-width:0.75;" x="671.310148" xlink:href="#m79a45dbf9a" y="37.557644"/>
     <use style="fill:#d62728;stroke:#ffffff;stroke-linejoin:miter;stroke-width:0.75;" x="673.723577" xlink:href="#m79a45dbf9a" y="37.557644"/>
     <use style="fill:#d62728;stroke:#ffffff;stroke-linejoin:miter;stroke-width:0.75;" x="676.097112" xlink:href="#m79a45dbf9a" y="37.492154"/>
     <use style="fill:#d62728;stroke:#ffffff;stroke-linejoin:miter;stroke-width:0.75;" x="678.432052" xlink:href="#m79a45dbf9a" y="36.902744"/>
     <use style="fill:#d62728;stroke:#ffffff;stroke-linejoin:miter;stroke-width:0.75;" x="680.729631" xlink:href="#m79a45dbf9a" y="36.902744"/>
     <use style="fill:#d62728;stroke:#ffffff;stroke-linejoin:miter;stroke-width:0.75;" x="682.991027" xlink:href="#m79a45dbf9a" y="36.902744"/>
     <use style="fill:#d62728;stroke:#ffffff;stroke-linejoin:miter;stroke-width:0.75;" x="685.21736" xlink:href="#m79a45dbf9a" y="36.902744"/>
     <use style="fill:#d62728;stroke:#ffffff;stroke-linejoin:miter;stroke-width:0.75;" x="687.409702" xlink:href="#m79a45dbf9a" y="36.902744"/>
     <use style="fill:#d62728;stroke:#ffffff;stroke-linejoin:miter;stroke-width:0.75;" x="689.569076" xlink:href="#m79a45dbf9a" y="36.771764"/>
     <use style="fill:#d62728;stroke:#ffffff;stroke-linejoin:miter;stroke-width:0.75;" x="691.696457" xlink:href="#m79a45dbf9a" y="36.771764"/>
     <use style="fill:#d62728;stroke:#ffffff;stroke-linejoin:miter;stroke-width:0.75;" x="693.792781" xlink:href="#m79a45dbf9a" y="36.771764"/>
     <use style="fill:#d62728;stroke:#ffffff;stroke-linejoin:miter;stroke-width:0.75;" x="695.858941" xlink:href="#m79a45dbf9a" y="36.771764"/>
     <use style="fill:#d62728;stroke:#ffffff;stroke-linejoin:miter;stroke-width:0.75;" x="697.895793" xlink:href="#m79a45dbf9a" y="36.771764"/>
     <use style="fill:#d62728;stroke:#ffffff;stroke-linejoin:miter;stroke-width:0.75;" x="699.904156" xlink:href="#m79a45dbf9a" y="36.771764"/>
     <use style="fill:#d62728;stroke:#ffffff;stroke-linejoin:miter;stroke-width:0.75;" x="701.884817" xlink:href="#m79a45dbf9a" y="36.640784"/>
     <use style="fill:#d62728;stroke:#ffffff;stroke-linejoin:miter;stroke-width:0.75;" x="703.838529" xlink:href="#m79a45dbf9a" y="36.640784"/>
     <use style="fill:#d62728;stroke:#ffffff;stroke-linejoin:miter;stroke-width:0.75;" x="705.766016" xlink:href="#m79a45dbf9a" y="36.640784"/>
     <use style="fill:#d62728;stroke:#ffffff;stroke-linejoin:miter;stroke-width:0.75;" x="707.667973" xlink:href="#m79a45dbf9a" y="36.640784"/>
     <use style="fill:#d62728;stroke:#ffffff;stroke-linejoin:miter;stroke-width:0.75;" x="709.545067" xlink:href="#m79a45dbf9a" y="36.640784"/>
     <use style="fill:#d62728;stroke:#ffffff;stroke-linejoin:miter;stroke-width:0.75;" x="711.397939" xlink:href="#m79a45dbf9a" y="36.509804"/>
     <use style="fill:#d62728;stroke:#ffffff;stroke-linejoin:miter;stroke-width:0.75;" x="713.227208" xlink:href="#m79a45dbf9a" y="36.509804"/>
     <use style="fill:#d62728;stroke:#ffffff;stroke-linejoin:miter;stroke-width:0.75;" x="715.033466" xlink:href="#m79a45dbf9a" y="36.378825"/>
     <use style="fill:#d62728;stroke:#ffffff;stroke-linejoin:miter;stroke-width:0.75;" x="716.817286" xlink:href="#m79a45dbf9a" y="36.378825"/>
     <use style="fill:#d62728;stroke:#ffffff;stroke-linejoin:miter;stroke-width:0.75;" x="718.579217" xlink:href="#m79a45dbf9a" y="36.378825"/>
     <use style="fill:#d62728;stroke:#ffffff;stroke-linejoin:miter;stroke-width:0.75;" x="720.319792" xlink:href="#m79a45dbf9a" y="35.330985"/>
     <use style="fill:#d62728;stroke:#ffffff;stroke-linejoin:miter;stroke-width:0.75;" x="722.03952" xlink:href="#m79a45dbf9a" y="35.330985"/>
     <use style="fill:#d62728;stroke:#ffffff;stroke-linejoin:miter;stroke-width:0.75;" x="723.738897" xlink:href="#m79a45dbf9a" y="35.330985"/>
     <use style="fill:#d62728;stroke:#ffffff;stroke-linejoin:miter;stroke-width:0.75;" x="725.418397" xlink:href="#m79a45dbf9a" y="35.330985"/>
     <use style="fill:#d62728;stroke:#ffffff;stroke-linejoin:miter;stroke-width:0.75;" x="727.078481" xlink:href="#m79a45dbf9a" y="35.330985"/>
     <use style="fill:#d62728;stroke:#ffffff;stroke-linejoin:miter;stroke-width:0.75;" x="728.719591" xlink:href="#m79a45dbf9a" y="35.330985"/>
     <use style="fill:#d62728;stroke:#ffffff;stroke-linejoin:miter;stroke-width:0.75;" x="730.342158" xlink:href="#m79a45dbf9a" y="35.330985"/>
     <use style="fill:#d62728;stroke:#ffffff;stroke-linejoin:miter;stroke-width:0.75;" x="731.946595" xlink:href="#m79a45dbf9a" y="35.330985"/>
     <use style="fill:#d62728;stroke:#ffffff;stroke-linejoin:miter;stroke-width:0.75;" x="733.533304" xlink:href="#m79a45dbf9a" y="35.330985"/>
     <use style="fill:#d62728;stroke:#ffffff;stroke-linejoin:miter;stroke-width:0.75;" x="735.10267" xlink:href="#m79a45dbf9a" y="35.330985"/>
    </g>
   </g>
   <g id="line2d_41"/>
   <g id="line2d_42"/>
   <g id="line2d_43"/>
   <g id="line2d_44">
    <path clip-path="url(#pdb1eeebad5)" d="M 735.10267 288.430125 
L 735.10267 22.318125 
" style="fill:none;stroke:#ff0000;stroke-linecap:square;stroke-width:1.5;"/>
   </g>
   <g id="patch_3">
    <path d="M 53.328125 279.870584 
L 53.328125 50.655641 
" style="fill:none;stroke:#000000;stroke-linecap:square;stroke-linejoin:miter;stroke-width:0.8;"/>
   </g>
   <g id="patch_4">
    <path d="M 85.79358 288.430125 
L 735.104405 288.430125 
" style="fill:none;stroke:#000000;stroke-linecap:square;stroke-linejoin:miter;stroke-width:0.8;"/>
   </g>
   <g id="text_23">
    <!-- woff2-2016-05-06 (23h, 20 trials/fuzzer) -->
    <g transform="translate(290.064688 16.318125)scale(0.12 -0.12)">
     <defs>
      <path d="M 269 3500 
L 844 3500 
L 1563 769 
L 2278 3500 
L 2956 3500 
L 3675 769 
L 4391 3500 
L 4966 3500 
L 4050 0 
L 3372 0 
L 2619 2869 
L 1863 0 
L 1184 0 
L 269 3500 
z
" id="DejaVuSans-77" transform="scale(0.015625)"/>
      <path d="M 2375 4863 
L 2375 4384 
L 1825 4384 
Q 1516 4384 1395 4259 
Q 1275 4134 1275 3809 
L 1275 3500 
L 2222 3500 
L 2222 3053 
L 1275 3053 
L 1275 0 
L 697 0 
L 697 3053 
L 147 3053 
L 147 3500 
L 697 3500 
L 697 3744 
Q 697 4328 969 4595 
Q 1241 4863 1831 4863 
L 2375 4863 
z
" id="DejaVuSans-66" transform="scale(0.015625)"/>
      <path d="M 313 2009 
L 1997 2009 
L 1997 1497 
L 313 1497 
L 313 2009 
z
" id="DejaVuSans-2d" transform="scale(0.015625)"/>
      <path d="M 750 794 
L 1409 794 
L 1409 256 
L 897 -744 
L 494 -744 
L 750 256 
L 750 794 
z
" id="DejaVuSans-2c" transform="scale(0.015625)"/>
      <path d="M 603 4863 
L 1178 4863 
L 1178 0 
L 603 0 
L 603 4863 
z
" id="DejaVuSans-6c" transform="scale(0.015625)"/>
      <path d="M 2834 3397 
L 2834 2853 
Q 2591 2978 2328 3040 
Q 2066 3103 1784 3103 
Q 1356 3103 1142 2972 
Q 928 2841 928 2578 
Q 928 2378 1081 2264 
Q 1234 2150 1697 2047 
L 1894 2003 
Q 2506 1872 2764 1633 
Q 3022 1394 3022 966 
Q 3022 478 2636 193 
Q 2250 -91 1575 -91 
Q 1294 -91 989 -36 
Q 684 19 347 128 
L 347 722 
Q 666 556 975 473 
Q 1284 391 1588 391 
Q 1994 391 2212 530 
Q 2431 669 2431 922 
Q 2431 1156 2273 1281 
Q 2116 1406 1581 1522 
L 1381 1569 
Q 847 1681 609 1914 
Q 372 2147 372 2553 
Q 372 3047 722 3315 
Q 1072 3584 1716 3584 
Q 2034 3584 2315 3537 
Q 2597 3491 2834 3397 
z
" id="DejaVuSans-73" transform="scale(0.015625)"/>
      <path d="M 1625 4666 
L 2156 4666 
L 531 -594 
L 0 -594 
L 1625 4666 
z
" id="DejaVuSans-2f" transform="scale(0.015625)"/>
      <path d="M 353 3500 
L 3084 3500 
L 3084 2975 
L 922 459 
L 3084 459 
L 3084 0 
L 275 0 
L 275 525 
L 2438 3041 
L 353 3041 
L 353 3500 
z
" id="DejaVuSans-7a" transform="scale(0.015625)"/>
     </defs>
     <use xlink:href="#DejaVuSans-77"/>
     <use x="81.787109" xlink:href="#DejaVuSans-6f"/>
     <use x="142.96875" xlink:href="#DejaVuSans-66"/>
     <use x="178.173828" xlink:href="#DejaVuSans-66"/>
     <use x="213.378906" xlink:href="#DejaVuSans-32"/>
     <use x="277.001953" xlink:href="#DejaVuSans-2d"/>
     <use x="313.085938" xlink:href="#DejaVuSans-32"/>
     <use x="376.708984" xlink:href="#DejaVuSans-30"/>
     <use x="440.332031" xlink:href="#DejaVuSans-31"/>
     <use x="503.955078" xlink:href="#DejaVuSans-36"/>
     <use x="567.578125" xlink:href="#DejaVuSans-2d"/>
     <use x="603.662109" xlink:href="#DejaVuSans-30"/>
     <use x="667.285156" xlink:href="#DejaVuSans-35"/>
     <use x="730.908203" xlink:href="#DejaVuSans-2d"/>
     <use x="766.992188" xlink:href="#DejaVuSans-30"/>
     <use x="830.615234" xlink:href="#DejaVuSans-36"/>
     <use x="894.238281" xlink:href="#DejaVuSans-20"/>
     <use x="926.025391" xlink:href="#DejaVuSans-28"/>
     <use x="965.039062" xlink:href="#DejaVuSans-32"/>
     <use x="1028.662109" xlink:href="#DejaVuSans-33"/>
     <use x="1092.285156" xlink:href="#DejaVuSans-68"/>
     <use x="1155.664062" xlink:href="#DejaVuSans-2c"/>
     <use x="1187.451172" xlink:href="#DejaVuSans-20"/>
     <use x="1219.238281" xlink:href="#DejaVuSans-32"/>
     <use x="1282.861328" xlink:href="#DejaVuSans-30"/>
     <use x="1346.484375" xlink:href="#DejaVuSans-20"/>
     <use x="1378.271484" xlink:href="#DejaVuSans-74"/>
     <use x="1417.480469" xlink:href="#DejaVuSans-72"/>
     <use x="1458.59375" xlink:href="#DejaVuSans-69"/>
     <use x="1486.376953" xlink:href="#DejaVuSans-61"/>
     <use x="1547.65625" xlink:href="#DejaVuSans-6c"/>
     <use x="1575.439453" xlink:href="#DejaVuSans-73"/>
     <use x="1627.539062" xlink:href="#DejaVuSans-2f"/>
     <use x="1661.230469" xlink:href="#DejaVuSans-66"/>
     <use x="1696.435547" xlink:href="#DejaVuSans-75"/>
     <use x="1759.814453" xlink:href="#DejaVuSans-7a"/>
     <use x="1812.304688" xlink:href="#DejaVuSans-7a"/>
     <use x="1864.794922" xlink:href="#DejaVuSans-65"/>
     <use x="1926.318359" xlink:href="#DejaVuSans-72"/>
     <use x="1967.431641" xlink:href="#DejaVuSans-29"/>
    </g>
   </g>
   <g id="legend_1">
    <g id="line2d_45">
     <path d="M 771.568125 30.416562 
L 791.568125 30.416562 
" style="fill:none;stroke:#1f77b4;stroke-linecap:square;stroke-width:1.5;"/>
    </g>
    <g id="line2d_46">
     <defs>
      <path d="M 0 3 
C 0.795609 3 1.55874 2.683901 2.12132 2.12132 
C 2.683901 1.55874 3 0.795609 3 0 
C 3 -0.795609 2.683901 -1.55874 2.12132 -2.12132 
C 1.55874 -2.683901 0.795609 -3 0 -3 
C -0.795609 -3 -1.55874 -2.683901 -2.12132 -2.12132 
C -2.683901 -1.55874 -3 -0.795609 -3 0 
C -3 0.795609 -2.683901 1.55874 -2.12132 2.12132 
C -1.55874 2.683901 -0.795609 3 0 3 
z
" id="mf576e89215" style="stroke:#1f77b4;"/>
     </defs>
     <g>
      <use style="fill:#1f77b4;stroke:#1f77b4;" x="781.568125" xlink:href="#mf576e89215" y="30.416562"/>
     </g>
    </g>
    <g id="text_24">
     <!-- afl_2_52_b -->
     <g transform="translate(799.568125 33.916562)scale(0.1 -0.1)">
      <defs>
       <path d="M 3263 -1063 
L 3263 -1509 
L -63 -1509 
L -63 -1063 
L 3263 -1063 
z
" id="DejaVuSans-5f" transform="scale(0.015625)"/>
       <path d="M 3116 1747 
Q 3116 2381 2855 2742 
Q 2594 3103 2138 3103 
Q 1681 3103 1420 2742 
Q 1159 2381 1159 1747 
Q 1159 1113 1420 752 
Q 1681 391 2138 391 
Q 2594 391 2855 752 
Q 3116 1113 3116 1747 
z
M 1159 2969 
Q 1341 3281 1617 3432 
Q 1894 3584 2278 3584 
Q 2916 3584 3314 3078 
Q 3713 2572 3713 1747 
Q 3713 922 3314 415 
Q 2916 -91 2278 -91 
Q 1894 -91 1617 61 
Q 1341 213 1159 525 
L 1159 0 
L 581 0 
L 581 4863 
L 1159 4863 
L 1159 2969 
z
" id="DejaVuSans-62" transform="scale(0.015625)"/>
      </defs>
      <use xlink:href="#DejaVuSans-61"/>
      <use x="61.279297" xlink:href="#DejaVuSans-66"/>
      <use x="96.484375" xlink:href="#DejaVuSans-6c"/>
      <use x="124.267578" xlink:href="#DejaVuSans-5f"/>
      <use x="174.267578" xlink:href="#DejaVuSans-32"/>
      <use x="237.890625" xlink:href="#DejaVuSans-5f"/>
      <use x="287.890625" xlink:href="#DejaVuSans-35"/>
      <use x="351.513672" xlink:href="#DejaVuSans-32"/>
      <use x="415.136719" xlink:href="#DejaVuSans-5f"/>
      <use x="465.136719" xlink:href="#DejaVuSans-62"/>
     </g>
    </g>
    <g id="line2d_47">
     <path d="M 771.568125 45.372813 
L 791.568125 45.372813 
" style="fill:none;stroke:#98df8a;stroke-linecap:square;stroke-width:1.5;"/>
    </g>
    <g id="line2d_48">
     <defs>
      <path d="M -0 3 
L 3 -3 
L -3 -3 
z
" id="m3231637eb8" style="stroke:#98df8a;stroke-linejoin:miter;"/>
     </defs>
     <g>
      <use style="fill:#98df8a;stroke:#98df8a;stroke-linejoin:miter;" x="781.568125" xlink:href="#m3231637eb8" y="45.372813"/>
     </g>
    </g>
    <g id="text_25">
     <!-- fafuzz -->
     <g transform="translate(799.568125 48.872813)scale(0.1 -0.1)">
      <use xlink:href="#DejaVuSans-66"/>
      <use x="35.205078" xlink:href="#DejaVuSans-61"/>
      <use x="96.484375" xlink:href="#DejaVuSans-66"/>
      <use x="131.689453" xlink:href="#DejaVuSans-75"/>
      <use x="195.068359" xlink:href="#DejaVuSans-7a"/>
      <use x="247.558594" xlink:href="#DejaVuSans-7a"/>
     </g>
    </g>
    <g id="line2d_49">
     <path d="M 771.568125 60.050937 
L 791.568125 60.050937 
" style="fill:none;stroke:#d62728;stroke-linecap:square;stroke-width:1.5;"/>
    </g>
    <g id="line2d_50">
     <defs>
      <path d="M 0 -3 
L -3 3 
L 3 3 
z
" id="m53f77e1109" style="stroke:#d62728;stroke-linejoin:miter;"/>
     </defs>
     <g>
      <use style="fill:#d62728;stroke:#d62728;stroke-linejoin:miter;" x="781.568125" xlink:href="#m53f77e1109" y="60.050937"/>
     </g>
    </g>
    <g id="text_26">
     <!-- mopt -->
     <g transform="translate(799.568125 63.550937)scale(0.1 -0.1)">
      <defs>
       <path d="M 1159 525 
L 1159 -1331 
L 581 -1331 
L 581 3500 
L 1159 3500 
L 1159 2969 
Q 1341 3281 1617 3432 
Q 1894 3584 2278 3584 
Q 2916 3584 3314 3078 
Q 3713 2572 3713 1747 
Q 3713 922 3314 415 
Q 2916 -91 2278 -91 
Q 1894 -91 1617 61 
Q 1341 213 1159 525 
z
M 3116 1747 
Q 3116 2381 2855 2742 
Q 2594 3103 2138 3103 
Q 1681 3103 1420 2742 
Q 1159 2381 1159 1747 
Q 1159 1113 1420 752 
Q 1681 391 2138 391 
Q 2594 391 2855 752 
Q 3116 1113 3116 1747 
z
" id="DejaVuSans-70" transform="scale(0.015625)"/>
      </defs>
      <use xlink:href="#DejaVuSans-6d"/>
      <use x="97.412109" xlink:href="#DejaVuSans-6f"/>
      <use x="158.59375" xlink:href="#DejaVuSans-70"/>
      <use x="222.070312" xlink:href="#DejaVuSans-74"/>
     </g>
    </g>
   </g>
  </g>
 </g>
 <defs>
  <clipPath id="pdb1eeebad5">
   <rect height="266.112" width="714.24" x="53.328125" y="22.318125"/>
  </clipPath>
 </defs>
</svg>
