<?xml version="1.0" encoding="utf-8" standalone="no"?>
<!DOCTYPE svg PUBLIC "-//W3C//DTD SVG 1.1//EN"
  "http://www.w3.org/Graphics/SVG/1.1/DTD/svg11.dtd">
<svg height="340.3745pt" version="1.1" viewBox="0 0 417.8366 340.3745" width="417.8366pt" xmlns="http://www.w3.org/2000/svg" xmlns:xlink="http://www.w3.org/1999/xlink">
 <metadata>
  <rdf:RDF xmlns:cc="http://creativecommons.org/ns#" xmlns:dc="http://purl.org/dc/elements/1.1/" xmlns:rdf="http://www.w3.org/1999/02/22-rdf-syntax-ns#">
   <cc:Work>
    <dc:type rdf:resource="http://purl.org/dc/dcmitype/StillImage"/>
    <dc:date>2021-12-16T18:53:10.688994</dc:date>
    <dc:format>image/svg+xml</dc:format>
    <dc:creator>
     <cc:Agent>
      <dc:title>Matplotlib v3.4.1, https://matplotlib.org/</dc:title>
     </cc:Agent>
    </dc:creator>
   </cc:Work>
  </rdf:RDF>
 </metadata>
 <defs>
  <style type="text/css">*{stroke-linecap:butt;stroke-linejoin:round;}</style>
 </defs>
 <g id="figure_1">
  <g id="patch_1">
   <path d="M 0 340.3745 
L 417.8366 340.3745 
L 417.8366 0 
L 0 0 
z
" style="fill:#ffffff;"/>
  </g>
  <g id="axes_1">
   <g id="patch_2">
    <path d="M 67.0625 273.312 
L 333.1745 273.312 
L 333.1745 7.2 
L 67.0625 7.2 
z
" style="fill:#ffffff;"/>
   </g>
   <g id="QuadMesh_1">
    <path clip-path="url(#p60baf590e0)" d="M 67.0625 7.2 
L 155.7665 7.2 
L 155.7665 95.904 
L 67.0625 95.904 
L 67.0625 7.2 
" style="fill:none;stroke:#808080;stroke-width:0.5;"/>
    <path clip-path="url(#p60baf590e0)" d="M 155.7665 7.2 
L 244.4705 7.2 
L 244.4705 95.904 
L 155.7665 95.904 
L 155.7665 7.2 
" style="fill:#fbd7d4;stroke:#808080;stroke-width:0.5;"/>
    <path clip-path="url(#p60baf590e0)" d="M 244.4705 7.2 
L 333.1745 7.2 
L 333.1745 95.904 
L 244.4705 95.904 
L 244.4705 7.2 
" style="fill:#fbd7d4;stroke:#808080;stroke-width:0.5;"/>
    <path clip-path="url(#p60baf590e0)" d="M 67.0625 95.904 
L 155.7665 95.904 
L 155.7665 184.608 
L 67.0625 184.608 
L 67.0625 95.904 
" style="fill:#fbd7d4;stroke:#808080;stroke-width:0.5;"/>
    <path clip-path="url(#p60baf590e0)" d="M 155.7665 95.904 
L 244.4705 95.904 
L 244.4705 184.608 
L 155.7665 184.608 
L 155.7665 95.904 
" style="fill:none;stroke:#808080;stroke-width:0.5;"/>
    <path clip-path="url(#p60baf590e0)" d="M 244.4705 95.904 
L 333.1745 95.904 
L 333.1745 184.608 
L 244.4705 184.608 
L 244.4705 95.904 
" style="fill:#fbd7d4;stroke:#808080;stroke-width:0.5;"/>
    <path clip-path="url(#p60baf590e0)" d="M 67.0625 184.608 
L 155.7665 184.608 
L 155.7665 273.312 
L 67.0625 273.312 
L 67.0625 184.608 
" style="fill:#fbd7d4;stroke:#808080;stroke-width:0.5;"/>
    <path clip-path="url(#p60baf590e0)" d="M 155.7665 184.608 
L 244.4705 184.608 
L 244.4705 273.312 
L 155.7665 273.312 
L 155.7665 184.608 
" style="fill:#fbd7d4;stroke:#808080;stroke-width:0.5;"/>
    <path clip-path="url(#p60baf590e0)" d="M 244.4705 184.608 
L 333.1745 184.608 
L 333.1745 273.312 
L 244.4705 273.312 
L 244.4705 184.608 
" style="fill:none;stroke:#808080;stroke-width:0.5;"/>
   </g>
   <g id="matplotlib.axis_1">
    <g id="xtick_1">
     <g id="line2d_1">
      <defs>
       <path d="M 0 0 
L 0 3.5 
" id="me90051edda" style="stroke:#000000;stroke-width:0.8;"/>
      </defs>
      <g>
       <use style="stroke:#000000;stroke-width:0.8;" x="111.4145" xlink:href="#me90051edda" y="273.312"/>
      </g>
     </g>
     <g id="text_1">
      <!-- afl_2_52_b -->
      <g transform="translate(103.816062 280.312)rotate(-270)scale(0.1 -0.1)">
       <defs>
        <path d="M 2194 1759 
Q 1497 1759 1228 1600 
Q 959 1441 959 1056 
Q 959 750 1161 570 
Q 1363 391 1709 391 
Q 2188 391 2477 730 
Q 2766 1069 2766 1631 
L 2766 1759 
L 2194 1759 
z
M 3341 1997 
L 3341 0 
L 2766 0 
L 2766 531 
Q 2569 213 2275 61 
Q 1981 -91 1556 -91 
Q 1019 -91 701 211 
Q 384 513 384 1019 
Q 384 1609 779 1909 
Q 1175 2209 1959 2209 
L 2766 2209 
L 2766 2266 
Q 2766 2663 2505 2880 
Q 2244 3097 1772 3097 
Q 1472 3097 1187 3025 
Q 903 2953 641 2809 
L 641 3341 
Q 956 3463 1253 3523 
Q 1550 3584 1831 3584 
Q 2591 3584 2966 3190 
Q 3341 2797 3341 1997 
z
" id="DejaVuSans-61" transform="scale(0.015625)"/>
        <path d="M 2375 4863 
L 2375 4384 
L 1825 4384 
Q 1516 4384 1395 4259 
Q 1275 4134 1275 3809 
L 1275 3500 
L 2222 3500 
L 2222 3053 
L 1275 3053 
L 1275 0 
L 697 0 
L 697 3053 
L 147 3053 
L 147 3500 
L 697 3500 
L 697 3744 
Q 697 4328 969 4595 
Q 1241 4863 1831 4863 
L 2375 4863 
z
" id="DejaVuSans-66" transform="scale(0.015625)"/>
        <path d="M 603 4863 
L 1178 4863 
L 1178 0 
L 603 0 
L 603 4863 
z
" id="DejaVuSans-6c" transform="scale(0.015625)"/>
        <path d="M 3263 -1063 
L 3263 -1509 
L -63 -1509 
L -63 -1063 
L 3263 -1063 
z
" id="DejaVuSans-5f" transform="scale(0.015625)"/>
        <path d="M 1228 531 
L 3431 531 
L 3431 0 
L 469 0 
L 469 531 
Q 828 903 1448 1529 
Q 2069 2156 2228 2338 
Q 2531 2678 2651 2914 
Q 2772 3150 2772 3378 
Q 2772 3750 2511 3984 
Q 2250 4219 1831 4219 
Q 1534 4219 1204 4116 
Q 875 4013 500 3803 
L 500 4441 
Q 881 4594 1212 4672 
Q 1544 4750 1819 4750 
Q 2544 4750 2975 4387 
Q 3406 4025 3406 3419 
Q 3406 3131 3298 2873 
Q 3191 2616 2906 2266 
Q 2828 2175 2409 1742 
Q 1991 1309 1228 531 
z
" id="DejaVuSans-32" transform="scale(0.015625)"/>
        <path d="M 691 4666 
L 3169 4666 
L 3169 4134 
L 1269 4134 
L 1269 2991 
Q 1406 3038 1543 3061 
Q 1681 3084 1819 3084 
Q 2600 3084 3056 2656 
Q 3513 2228 3513 1497 
Q 3513 744 3044 326 
Q 2575 -91 1722 -91 
Q 1428 -91 1123 -41 
Q 819 9 494 109 
L 494 744 
Q 775 591 1075 516 
Q 1375 441 1709 441 
Q 2250 441 2565 725 
Q 2881 1009 2881 1497 
Q 2881 1984 2565 2268 
Q 2250 2553 1709 2553 
Q 1456 2553 1204 2497 
Q 953 2441 691 2322 
L 691 4666 
z
" id="DejaVuSans-35" transform="scale(0.015625)"/>
        <path d="M 3116 1747 
Q 3116 2381 2855 2742 
Q 2594 3103 2138 3103 
Q 1681 3103 1420 2742 
Q 1159 2381 1159 1747 
Q 1159 1113 1420 752 
Q 1681 391 2138 391 
Q 2594 391 2855 752 
Q 3116 1113 3116 1747 
z
M 1159 2969 
Q 1341 3281 1617 3432 
Q 1894 3584 2278 3584 
Q 2916 3584 3314 3078 
Q 3713 2572 3713 1747 
Q 3713 922 3314 415 
Q 2916 -91 2278 -91 
Q 1894 -91 1617 61 
Q 1341 213 1159 525 
L 1159 0 
L 581 0 
L 581 4863 
L 1159 4863 
L 1159 2969 
z
" id="DejaVuSans-62" transform="scale(0.015625)"/>
       </defs>
       <use xlink:href="#DejaVuSans-61"/>
       <use x="61.279297" xlink:href="#DejaVuSans-66"/>
       <use x="96.484375" xlink:href="#DejaVuSans-6c"/>
       <use x="124.267578" xlink:href="#DejaVuSans-5f"/>
       <use x="174.267578" xlink:href="#DejaVuSans-32"/>
       <use x="237.890625" xlink:href="#DejaVuSans-5f"/>
       <use x="287.890625" xlink:href="#DejaVuSans-35"/>
       <use x="351.513672" xlink:href="#DejaVuSans-32"/>
       <use x="415.136719" xlink:href="#DejaVuSans-5f"/>
       <use x="465.136719" xlink:href="#DejaVuSans-62"/>
      </g>
     </g>
    </g>
    <g id="xtick_2">
     <g id="line2d_2">
      <g>
       <use style="stroke:#000000;stroke-width:0.8;" x="200.1185" xlink:href="#me90051edda" y="273.312"/>
      </g>
     </g>
     <g id="text_2">
      <!-- fafuzz -->
      <g transform="translate(192.520062 280.312)rotate(-270)scale(0.1 -0.1)">
       <defs>
        <path d="M 544 1381 
L 544 3500 
L 1119 3500 
L 1119 1403 
Q 1119 906 1312 657 
Q 1506 409 1894 409 
Q 2359 409 2629 706 
Q 2900 1003 2900 1516 
L 2900 3500 
L 3475 3500 
L 3475 0 
L 2900 0 
L 2900 538 
Q 2691 219 2414 64 
Q 2138 -91 1772 -91 
Q 1169 -91 856 284 
Q 544 659 544 1381 
z
M 1991 3584 
L 1991 3584 
z
" id="DejaVuSans-75" transform="scale(0.015625)"/>
        <path d="M 353 3500 
L 3084 3500 
L 3084 2975 
L 922 459 
L 3084 459 
L 3084 0 
L 275 0 
L 275 525 
L 2438 3041 
L 353 3041 
L 353 3500 
z
" id="DejaVuSans-7a" transform="scale(0.015625)"/>
       </defs>
       <use xlink:href="#DejaVuSans-66"/>
       <use x="35.205078" xlink:href="#DejaVuSans-61"/>
       <use x="96.484375" xlink:href="#DejaVuSans-66"/>
       <use x="131.689453" xlink:href="#DejaVuSans-75"/>
       <use x="195.068359" xlink:href="#DejaVuSans-7a"/>
       <use x="247.558594" xlink:href="#DejaVuSans-7a"/>
      </g>
     </g>
    </g>
    <g id="xtick_3">
     <g id="line2d_3">
      <g>
       <use style="stroke:#000000;stroke-width:0.8;" x="288.8225" xlink:href="#me90051edda" y="273.312"/>
      </g>
     </g>
     <g id="text_3">
      <!-- mopt -->
      <g transform="translate(281.224062 280.312)rotate(-270)scale(0.1 -0.1)">
       <defs>
        <path d="M 3328 2828 
Q 3544 3216 3844 3400 
Q 4144 3584 4550 3584 
Q 5097 3584 5394 3201 
Q 5691 2819 5691 2113 
L 5691 0 
L 5113 0 
L 5113 2094 
Q 5113 2597 4934 2840 
Q 4756 3084 4391 3084 
Q 3944 3084 3684 2787 
Q 3425 2491 3425 1978 
L 3425 0 
L 2847 0 
L 2847 2094 
Q 2847 2600 2669 2842 
Q 2491 3084 2119 3084 
Q 1678 3084 1418 2786 
Q 1159 2488 1159 1978 
L 1159 0 
L 581 0 
L 581 3500 
L 1159 3500 
L 1159 2956 
Q 1356 3278 1631 3431 
Q 1906 3584 2284 3584 
Q 2666 3584 2933 3390 
Q 3200 3197 3328 2828 
z
" id="DejaVuSans-6d" transform="scale(0.015625)"/>
        <path d="M 1959 3097 
Q 1497 3097 1228 2736 
Q 959 2375 959 1747 
Q 959 1119 1226 758 
Q 1494 397 1959 397 
Q 2419 397 2687 759 
Q 2956 1122 2956 1747 
Q 2956 2369 2687 2733 
Q 2419 3097 1959 3097 
z
M 1959 3584 
Q 2709 3584 3137 3096 
Q 3566 2609 3566 1747 
Q 3566 888 3137 398 
Q 2709 -91 1959 -91 
Q 1206 -91 779 398 
Q 353 888 353 1747 
Q 353 2609 779 3096 
Q 1206 3584 1959 3584 
z
" id="DejaVuSans-6f" transform="scale(0.015625)"/>
        <path d="M 1159 525 
L 1159 -1331 
L 581 -1331 
L 581 3500 
L 1159 3500 
L 1159 2969 
Q 1341 3281 1617 3432 
Q 1894 3584 2278 3584 
Q 2916 3584 3314 3078 
Q 3713 2572 3713 1747 
Q 3713 922 3314 415 
Q 2916 -91 2278 -91 
Q 1894 -91 1617 61 
Q 1341 213 1159 525 
z
M 3116 1747 
Q 3116 2381 2855 2742 
Q 2594 3103 2138 3103 
Q 1681 3103 1420 2742 
Q 1159 2381 1159 1747 
Q 1159 1113 1420 752 
Q 1681 391 2138 391 
Q 2594 391 2855 752 
Q 3116 1113 3116 1747 
z
" id="DejaVuSans-70" transform="scale(0.015625)"/>
        <path d="M 1172 4494 
L 1172 3500 
L 2356 3500 
L 2356 3053 
L 1172 3053 
L 1172 1153 
Q 1172 725 1289 603 
Q 1406 481 1766 481 
L 2356 481 
L 2356 0 
L 1766 0 
Q 1100 0 847 248 
Q 594 497 594 1153 
L 594 3053 
L 172 3053 
L 172 3500 
L 594 3500 
L 594 4494 
L 1172 4494 
z
" id="DejaVuSans-74" transform="scale(0.015625)"/>
       </defs>
       <use xlink:href="#DejaVuSans-6d"/>
       <use x="97.412109" xlink:href="#DejaVuSans-6f"/>
       <use x="158.59375" xlink:href="#DejaVuSans-70"/>
       <use x="222.070312" xlink:href="#DejaVuSans-74"/>
      </g>
     </g>
    </g>
   </g>
   <g id="matplotlib.axis_2">
    <g id="ytick_1">
     <g id="line2d_4">
      <defs>
       <path d="M 0 0 
L -3.5 0 
" id="m715daf22d1" style="stroke:#000000;stroke-width:0.8;"/>
      </defs>
      <g>
       <use style="stroke:#000000;stroke-width:0.8;" x="67.0625" xlink:href="#m715daf22d1" y="51.552"/>
      </g>
     </g>
     <g id="text_4">
      <!-- afl_2_52_b -->
      <g transform="translate(7.2 55.351219)scale(0.1 -0.1)">
       <use xlink:href="#DejaVuSans-61"/>
       <use x="61.279297" xlink:href="#DejaVuSans-66"/>
       <use x="96.484375" xlink:href="#DejaVuSans-6c"/>
       <use x="124.267578" xlink:href="#DejaVuSans-5f"/>
       <use x="174.267578" xlink:href="#DejaVuSans-32"/>
       <use x="237.890625" xlink:href="#DejaVuSans-5f"/>
       <use x="287.890625" xlink:href="#DejaVuSans-35"/>
       <use x="351.513672" xlink:href="#DejaVuSans-32"/>
       <use x="415.136719" xlink:href="#DejaVuSans-5f"/>
       <use x="465.136719" xlink:href="#DejaVuSans-62"/>
      </g>
     </g>
    </g>
    <g id="ytick_2">
     <g id="line2d_5">
      <g>
       <use style="stroke:#000000;stroke-width:0.8;" x="67.0625" xlink:href="#m715daf22d1" y="140.256"/>
      </g>
     </g>
     <g id="text_5">
      <!-- fafuzz -->
      <g transform="translate(30.059375 144.055219)scale(0.1 -0.1)">
       <use xlink:href="#DejaVuSans-66"/>
       <use x="35.205078" xlink:href="#DejaVuSans-61"/>
       <use x="96.484375" xlink:href="#DejaVuSans-66"/>
       <use x="131.689453" xlink:href="#DejaVuSans-75"/>
       <use x="195.068359" xlink:href="#DejaVuSans-7a"/>
       <use x="247.558594" xlink:href="#DejaVuSans-7a"/>
      </g>
     </g>
    </g>
    <g id="ytick_3">
     <g id="line2d_6">
      <g>
       <use style="stroke:#000000;stroke-width:0.8;" x="67.0625" xlink:href="#m715daf22d1" y="228.96"/>
      </g>
     </g>
     <g id="text_6">
      <!-- mopt -->
      <g transform="translate(33.934375 232.759219)scale(0.1 -0.1)">
       <use xlink:href="#DejaVuSans-6d"/>
       <use x="97.412109" xlink:href="#DejaVuSans-6f"/>
       <use x="158.59375" xlink:href="#DejaVuSans-70"/>
       <use x="222.070312" xlink:href="#DejaVuSans-74"/>
      </g>
     </g>
    </g>
   </g>
  </g>
  <g id="axes_2">
   <g id="patch_3">
    <path d="M 351.0305 204.192 
L 357.4241 204.192 
L 357.4241 76.32 
L 351.0305 76.32 
z
" style="fill:#ffffff;"/>
   </g>
   <g id="patch_4">
    <path clip-path="url(#p915cd2270f)" d="M 351.0305 204.192 
L 351.0305 172.224 
L 351.0305 108.288 
L 351.0305 76.32 
L 357.4241 76.32 
L 357.4241 108.288 
L 357.4241 172.224 
L 357.4241 204.192 
L 357.4241 204.192 
z
" style="fill:#ffffff;stroke:#ffffff;stroke-linejoin:miter;stroke-width:0.01;"/>
   </g>
   <g id="QuadMesh_2">
    <path clip-path="url(#p915cd2270f)" d="M 351.0305 204.192 
L 357.4241 204.192 
L 357.4241 172.224 
L 351.0305 172.224 
L 351.0305 204.192 
" style="fill:#005a32;"/>
    <path clip-path="url(#p915cd2270f)" d="M 351.0305 172.224 
L 357.4241 172.224 
L 357.4241 140.256 
L 351.0305 140.256 
L 351.0305 172.224 
" style="fill:#238b45;"/>
    <path clip-path="url(#p915cd2270f)" d="M 351.0305 140.256 
L 357.4241 140.256 
L 357.4241 108.288 
L 351.0305 108.288 
L 351.0305 140.256 
" style="fill:#a1d99b;"/>
    <path clip-path="url(#p915cd2270f)" d="M 351.0305 108.288 
L 357.4241 108.288 
L 357.4241 76.32 
L 351.0305 76.32 
L 351.0305 108.288 
" style="fill:#fbd7d4;"/>
   </g>
   <g id="matplotlib.axis_3"/>
   <g id="matplotlib.axis_4">
    <g id="ytick_4">
     <g id="line2d_7"/>
     <g id="text_7">
      <!-- p &lt; 0.001 -->
      <g transform="translate(360.9241 192.007219)scale(0.1 -0.1)">
       <defs>
        <path id="DejaVuSans-20" transform="scale(0.015625)"/>
        <path d="M 4684 3150 
L 1459 2003 
L 4684 863 
L 4684 294 
L 678 1747 
L 678 2266 
L 4684 3719 
L 4684 3150 
z
" id="DejaVuSans-3c" transform="scale(0.015625)"/>
        <path d="M 2034 4250 
Q 1547 4250 1301 3770 
Q 1056 3291 1056 2328 
Q 1056 1369 1301 889 
Q 1547 409 2034 409 
Q 2525 409 2770 889 
Q 3016 1369 3016 2328 
Q 3016 3291 2770 3770 
Q 2525 4250 2034 4250 
z
M 2034 4750 
Q 2819 4750 3233 4129 
Q 3647 3509 3647 2328 
Q 3647 1150 3233 529 
Q 2819 -91 2034 -91 
Q 1250 -91 836 529 
Q 422 1150 422 2328 
Q 422 3509 836 4129 
Q 1250 4750 2034 4750 
z
" id="DejaVuSans-30" transform="scale(0.015625)"/>
        <path d="M 684 794 
L 1344 794 
L 1344 0 
L 684 0 
L 684 794 
z
" id="DejaVuSans-2e" transform="scale(0.015625)"/>
        <path d="M 794 531 
L 1825 531 
L 1825 4091 
L 703 3866 
L 703 4441 
L 1819 4666 
L 2450 4666 
L 2450 531 
L 3481 531 
L 3481 0 
L 794 0 
L 794 531 
z
" id="DejaVuSans-31" transform="scale(0.015625)"/>
       </defs>
       <use xlink:href="#DejaVuSans-70"/>
       <use x="63.476562" xlink:href="#DejaVuSans-20"/>
       <use x="95.263672" xlink:href="#DejaVuSans-3c"/>
       <use x="179.052734" xlink:href="#DejaVuSans-20"/>
       <use x="210.839844" xlink:href="#DejaVuSans-30"/>
       <use x="274.462891" xlink:href="#DejaVuSans-2e"/>
       <use x="306.25" xlink:href="#DejaVuSans-30"/>
       <use x="369.873047" xlink:href="#DejaVuSans-30"/>
       <use x="433.496094" xlink:href="#DejaVuSans-31"/>
      </g>
     </g>
    </g>
    <g id="ytick_5">
     <g id="line2d_8"/>
     <g id="text_8">
      <!-- p &lt; 0.01 -->
      <g transform="translate(360.9241 161.815219)scale(0.1 -0.1)">
       <use xlink:href="#DejaVuSans-70"/>
       <use x="63.476562" xlink:href="#DejaVuSans-20"/>
       <use x="95.263672" xlink:href="#DejaVuSans-3c"/>
       <use x="179.052734" xlink:href="#DejaVuSans-20"/>
       <use x="210.839844" xlink:href="#DejaVuSans-30"/>
       <use x="274.462891" xlink:href="#DejaVuSans-2e"/>
       <use x="306.25" xlink:href="#DejaVuSans-30"/>
       <use x="369.873047" xlink:href="#DejaVuSans-31"/>
      </g>
     </g>
    </g>
    <g id="ytick_6">
     <g id="line2d_9"/>
     <g id="text_9">
      <!-- p &lt; 0.05 -->
      <g transform="translate(360.9241 128.071219)scale(0.1 -0.1)">
       <use xlink:href="#DejaVuSans-70"/>
       <use x="63.476562" xlink:href="#DejaVuSans-20"/>
       <use x="95.263672" xlink:href="#DejaVuSans-3c"/>
       <use x="179.052734" xlink:href="#DejaVuSans-20"/>
       <use x="210.839844" xlink:href="#DejaVuSans-30"/>
       <use x="274.462891" xlink:href="#DejaVuSans-2e"/>
       <use x="306.25" xlink:href="#DejaVuSans-30"/>
       <use x="369.873047" xlink:href="#DejaVuSans-35"/>
      </g>
     </g>
    </g>
    <g id="ytick_7">
     <g id="line2d_10"/>
     <g id="text_10">
      <!-- NS -->
      <g transform="translate(360.9241 96.944482)scale(0.1 -0.1)">
       <defs>
        <path d="M 628 4666 
L 1478 4666 
L 3547 763 
L 3547 4666 
L 4159 4666 
L 4159 0 
L 3309 0 
L 1241 3903 
L 1241 0 
L 628 0 
L 628 4666 
z
" id="DejaVuSans-4e" transform="scale(0.015625)"/>
        <path d="M 3425 4513 
L 3425 3897 
Q 3066 4069 2747 4153 
Q 2428 4238 2131 4238 
Q 1616 4238 1336 4038 
Q 1056 3838 1056 3469 
Q 1056 3159 1242 3001 
Q 1428 2844 1947 2747 
L 2328 2669 
Q 3034 2534 3370 2195 
Q 3706 1856 3706 1288 
Q 3706 609 3251 259 
Q 2797 -91 1919 -91 
Q 1588 -91 1214 -16 
Q 841 59 441 206 
L 441 856 
Q 825 641 1194 531 
Q 1563 422 1919 422 
Q 2459 422 2753 634 
Q 3047 847 3047 1241 
Q 3047 1584 2836 1778 
Q 2625 1972 2144 2069 
L 1759 2144 
Q 1053 2284 737 2584 
Q 422 2884 422 3419 
Q 422 4038 858 4394 
Q 1294 4750 2059 4750 
Q 2388 4750 2728 4690 
Q 3069 4631 3425 4513 
z
" id="DejaVuSans-53" transform="scale(0.015625)"/>
       </defs>
       <use xlink:href="#DejaVuSans-4e"/>
       <use x="74.804688" xlink:href="#DejaVuSans-53"/>
      </g>
     </g>
    </g>
   </g>
   <g id="LineCollection_1"/>
   <g id="patch_5">
    <path d="M 351.0305 204.192 
L 351.0305 172.224 
L 351.0305 108.288 
L 351.0305 76.32 
L 357.4241 76.32 
L 357.4241 108.288 
L 357.4241 172.224 
L 357.4241 204.192 
z
" style="fill:none;stroke:#808080;stroke-linecap:square;stroke-linejoin:miter;"/>
   </g>
  </g>
 </g>
 <defs>
  <clipPath id="p60baf590e0">
   <rect height="266.112" width="266.112" x="67.0625" y="7.2"/>
  </clipPath>
  <clipPath id="p915cd2270f">
   <rect height="127.872" width="6.3936" x="351.0305" y="76.32"/>
  </clipPath>
 </defs>
</svg>
