<?xml version="1.0" encoding="utf-8" standalone="no"?>
<!DOCTYPE svg PUBLIC "-//W3C//DTD SVG 1.1//EN"
  "http://www.w3.org/Graphics/SVG/1.1/DTD/svg11.dtd">
<svg xmlns:xlink="http://www.w3.org/1999/xlink" width="389.622537pt" height="365.372937pt" viewBox="0 0 389.622537 365.372937" xmlns="http://www.w3.org/2000/svg" version="1.1">
 <metadata>
  <rdf:RDF xmlns:dc="http://purl.org/dc/elements/1.1/" xmlns:cc="http://creativecommons.org/ns#" xmlns:rdf="http://www.w3.org/1999/02/22-rdf-syntax-ns#">
   <cc:Work>
    <dc:type rdf:resource="http://purl.org/dc/dcmitype/StillImage"/>
    <dc:date>2023-08-23T12:58:52.397270</dc:date>
    <dc:format>image/svg+xml</dc:format>
    <dc:creator>
     <cc:Agent>
      <dc:title>Matplotlib v3.7.1, https://matplotlib.org/</dc:title>
     </cc:Agent>
    </dc:creator>
   </cc:Work>
  </rdf:RDF>
 </metadata>
 <defs>
  <style type="text/css">*{stroke-linejoin: round; stroke-linecap: butt}</style>
 </defs>
 <g id="figure_1">
  <g id="patch_1">
   <path d="M 0 365.372937 
L 389.622537 365.372937 
L 389.622537 0 
L 0 0 
z
" style="fill: #ffffff"/>
  </g>
  <g id="axes_1">
   <g id="patch_2">
    <path d="M 92.060938 273.312 
L 358.172937 273.312 
L 358.172937 7.2 
L 92.060938 7.2 
z
" style="fill: #ffffff"/>
   </g>
   <g id="QuadMesh_1">
    <path d="M 92.060938 7.2 
L 145.283337 7.2 
L 145.283337 60.4224 
L 92.060938 60.4224 
L 92.060938 7.2 
" clip-path="url(#p32f33bdb8e)" style="fill: none; stroke: #808080; stroke-width: 0.5"/>
    <path d="M 145.283337 7.2 
L 198.505737 7.2 
L 198.505737 60.4224 
L 145.283337 60.4224 
L 145.283337 7.2 
" clip-path="url(#p32f33bdb8e)" style="fill: #fbd7d4; stroke: #808080; stroke-width: 0.5"/>
    <path d="M 198.505737 7.2 
L 251.728137 7.2 
L 251.728137 60.4224 
L 198.505737 60.4224 
L 198.505737 7.2 
" clip-path="url(#p32f33bdb8e)" style="fill: #fbd7d4; stroke: #808080; stroke-width: 0.5"/>
    <path d="M 251.728137 7.2 
L 304.950537 7.2 
L 304.950537 60.4224 
L 251.728137 60.4224 
L 251.728137 7.2 
" clip-path="url(#p32f33bdb8e)" style="fill: #fbd7d4; stroke: #808080; stroke-width: 0.5"/>
    <path d="M 304.950537 7.2 
L 358.172937 7.2 
L 358.172937 60.4224 
L 304.950537 60.4224 
L 304.950537 7.2 
" clip-path="url(#p32f33bdb8e)" style="fill: #fbd7d4; stroke: #808080; stroke-width: 0.5"/>
    <path d="M 92.060938 60.4224 
L 145.283337 60.4224 
L 145.283337 113.6448 
L 92.060938 113.6448 
L 92.060938 60.4224 
" clip-path="url(#p32f33bdb8e)" style="fill: #fbd7d4; stroke: #808080; stroke-width: 0.5"/>
    <path d="M 145.283337 60.4224 
L 198.505737 60.4224 
L 198.505737 113.6448 
L 145.283337 113.6448 
L 145.283337 60.4224 
" clip-path="url(#p32f33bdb8e)" style="fill: none; stroke: #808080; stroke-width: 0.5"/>
    <path d="M 198.505737 60.4224 
L 251.728137 60.4224 
L 251.728137 113.6448 
L 198.505737 113.6448 
L 198.505737 60.4224 
" clip-path="url(#p32f33bdb8e)" style="fill: #fbd7d4; stroke: #808080; stroke-width: 0.5"/>
    <path d="M 251.728137 60.4224 
L 304.950537 60.4224 
L 304.950537 113.6448 
L 251.728137 113.6448 
L 251.728137 60.4224 
" clip-path="url(#p32f33bdb8e)" style="fill: #238b45; stroke: #808080; stroke-width: 0.5"/>
    <path d="M 304.950537 60.4224 
L 358.172937 60.4224 
L 358.172937 113.6448 
L 304.950537 113.6448 
L 304.950537 60.4224 
" clip-path="url(#p32f33bdb8e)" style="fill: #fbd7d4; stroke: #808080; stroke-width: 0.5"/>
    <path d="M 92.060938 113.6448 
L 145.283337 113.6448 
L 145.283337 166.8672 
L 92.060938 166.8672 
L 92.060938 113.6448 
" clip-path="url(#p32f33bdb8e)" style="fill: #fbd7d4; stroke: #808080; stroke-width: 0.5"/>
    <path d="M 145.283337 113.6448 
L 198.505737 113.6448 
L 198.505737 166.8672 
L 145.283337 166.8672 
L 145.283337 113.6448 
" clip-path="url(#p32f33bdb8e)" style="fill: #fbd7d4; stroke: #808080; stroke-width: 0.5"/>
    <path d="M 198.505737 113.6448 
L 251.728137 113.6448 
L 251.728137 166.8672 
L 198.505737 166.8672 
L 198.505737 113.6448 
" clip-path="url(#p32f33bdb8e)" style="fill: none; stroke: #808080; stroke-width: 0.5"/>
    <path d="M 251.728137 113.6448 
L 304.950537 113.6448 
L 304.950537 166.8672 
L 251.728137 166.8672 
L 251.728137 113.6448 
" clip-path="url(#p32f33bdb8e)" style="fill: #238b45; stroke: #808080; stroke-width: 0.5"/>
    <path d="M 304.950537 113.6448 
L 358.172937 113.6448 
L 358.172937 166.8672 
L 304.950537 166.8672 
L 304.950537 113.6448 
" clip-path="url(#p32f33bdb8e)" style="fill: #fbd7d4; stroke: #808080; stroke-width: 0.5"/>
    <path d="M 92.060938 166.8672 
L 145.283337 166.8672 
L 145.283337 220.0896 
L 92.060938 220.0896 
L 92.060938 166.8672 
" clip-path="url(#p32f33bdb8e)" style="fill: #fbd7d4; stroke: #808080; stroke-width: 0.5"/>
    <path d="M 145.283337 166.8672 
L 198.505737 166.8672 
L 198.505737 220.0896 
L 145.283337 220.0896 
L 145.283337 166.8672 
" clip-path="url(#p32f33bdb8e)" style="fill: #238b45; stroke: #808080; stroke-width: 0.5"/>
    <path d="M 198.505737 166.8672 
L 251.728137 166.8672 
L 251.728137 220.0896 
L 198.505737 220.0896 
L 198.505737 166.8672 
" clip-path="url(#p32f33bdb8e)" style="fill: #238b45; stroke: #808080; stroke-width: 0.5"/>
    <path d="M 251.728137 166.8672 
L 304.950537 166.8672 
L 304.950537 220.0896 
L 251.728137 220.0896 
L 251.728137 166.8672 
" clip-path="url(#p32f33bdb8e)" style="fill: none; stroke: #808080; stroke-width: 0.5"/>
    <path d="M 304.950537 166.8672 
L 358.172937 166.8672 
L 358.172937 220.0896 
L 304.950537 220.0896 
L 304.950537 166.8672 
" clip-path="url(#p32f33bdb8e)" style="fill: #fbd7d4; stroke: #808080; stroke-width: 0.5"/>
    <path d="M 92.060938 220.0896 
L 145.283337 220.0896 
L 145.283337 273.312 
L 92.060938 273.312 
L 92.060938 220.0896 
" clip-path="url(#p32f33bdb8e)" style="fill: #fbd7d4; stroke: #808080; stroke-width: 0.5"/>
    <path d="M 145.283337 220.0896 
L 198.505737 220.0896 
L 198.505737 273.312 
L 145.283337 273.312 
L 145.283337 220.0896 
" clip-path="url(#p32f33bdb8e)" style="fill: #fbd7d4; stroke: #808080; stroke-width: 0.5"/>
    <path d="M 198.505737 220.0896 
L 251.728137 220.0896 
L 251.728137 273.312 
L 198.505737 273.312 
L 198.505737 220.0896 
" clip-path="url(#p32f33bdb8e)" style="fill: #fbd7d4; stroke: #808080; stroke-width: 0.5"/>
    <path d="M 251.728137 220.0896 
L 304.950537 220.0896 
L 304.950537 273.312 
L 251.728137 273.312 
L 251.728137 220.0896 
" clip-path="url(#p32f33bdb8e)" style="fill: #fbd7d4; stroke: #808080; stroke-width: 0.5"/>
    <path d="M 304.950537 220.0896 
L 358.172937 220.0896 
L 358.172937 273.312 
L 304.950537 273.312 
L 304.950537 220.0896 
" clip-path="url(#p32f33bdb8e)" style="fill: none; stroke: #808080; stroke-width: 0.5"/>
   </g>
   <g id="matplotlib.axis_1">
    <g id="xtick_1">
     <g id="line2d_1">
      <defs>
       <path id="m72f9bdff31" d="M 0 0 
L 0 3.5 
" style="stroke: #000000; stroke-width: 0.8"/>
      </defs>
      <g>
       <use xlink:href="#m72f9bdff31" x="118.672138" y="273.312" style="stroke: #000000; stroke-width: 0.8"/>
      </g>
     </g>
     <g id="text_1">
      <!-- afl -->
      <g transform="translate(111.0737 280.312) rotate(-270) scale(0.1 -0.1)">
       <defs>
        <path id="DejaVuSans-61" d="M 2194 1759 
Q 1497 1759 1228 1600 
Q 959 1441 959 1056 
Q 959 750 1161 570 
Q 1363 391 1709 391 
Q 2188 391 2477 730 
Q 2766 1069 2766 1631 
L 2766 1759 
L 2194 1759 
z
M 3341 1997 
L 3341 0 
L 2766 0 
L 2766 531 
Q 2569 213 2275 61 
Q 1981 -91 1556 -91 
Q 1019 -91 701 211 
Q 384 513 384 1019 
Q 384 1609 779 1909 
Q 1175 2209 1959 2209 
L 2766 2209 
L 2766 2266 
Q 2766 2663 2505 2880 
Q 2244 3097 1772 3097 
Q 1472 3097 1187 3025 
Q 903 2953 641 2809 
L 641 3341 
Q 956 3463 1253 3523 
Q 1550 3584 1831 3584 
Q 2591 3584 2966 3190 
Q 3341 2797 3341 1997 
z
" transform="scale(0.015625)"/>
        <path id="DejaVuSans-66" d="M 2375 4863 
L 2375 4384 
L 1825 4384 
Q 1516 4384 1395 4259 
Q 1275 4134 1275 3809 
L 1275 3500 
L 2222 3500 
L 2222 3053 
L 1275 3053 
L 1275 0 
L 697 0 
L 697 3053 
L 147 3053 
L 147 3500 
L 697 3500 
L 697 3744 
Q 697 4328 969 4595 
Q 1241 4863 1831 4863 
L 2375 4863 
z
" transform="scale(0.015625)"/>
        <path id="DejaVuSans-6c" d="M 603 4863 
L 1178 4863 
L 1178 0 
L 603 0 
L 603 4863 
z
" transform="scale(0.015625)"/>
       </defs>
       <use xlink:href="#DejaVuSans-61"/>
       <use xlink:href="#DejaVuSans-66" x="61.279297"/>
       <use xlink:href="#DejaVuSans-6c" x="96.484375"/>
      </g>
     </g>
    </g>
    <g id="xtick_2">
     <g id="line2d_2">
      <g>
       <use xlink:href="#m72f9bdff31" x="171.894537" y="273.312" style="stroke: #000000; stroke-width: 0.8"/>
      </g>
     </g>
     <g id="text_2">
      <!-- aflplusplus_407 -->
      <g transform="translate(164.2961 280.312) rotate(-270) scale(0.1 -0.1)">
       <defs>
        <path id="DejaVuSans-70" d="M 1159 525 
L 1159 -1331 
L 581 -1331 
L 581 3500 
L 1159 3500 
L 1159 2969 
Q 1341 3281 1617 3432 
Q 1894 3584 2278 3584 
Q 2916 3584 3314 3078 
Q 3713 2572 3713 1747 
Q 3713 922 3314 415 
Q 2916 -91 2278 -91 
Q 1894 -91 1617 61 
Q 1341 213 1159 525 
z
M 3116 1747 
Q 3116 2381 2855 2742 
Q 2594 3103 2138 3103 
Q 1681 3103 1420 2742 
Q 1159 2381 1159 1747 
Q 1159 1113 1420 752 
Q 1681 391 2138 391 
Q 2594 391 2855 752 
Q 3116 1113 3116 1747 
z
" transform="scale(0.015625)"/>
        <path id="DejaVuSans-75" d="M 544 1381 
L 544 3500 
L 1119 3500 
L 1119 1403 
Q 1119 906 1312 657 
Q 1506 409 1894 409 
Q 2359 409 2629 706 
Q 2900 1003 2900 1516 
L 2900 3500 
L 3475 3500 
L 3475 0 
L 2900 0 
L 2900 538 
Q 2691 219 2414 64 
Q 2138 -91 1772 -91 
Q 1169 -91 856 284 
Q 544 659 544 1381 
z
M 1991 3584 
L 1991 3584 
z
" transform="scale(0.015625)"/>
        <path id="DejaVuSans-73" d="M 2834 3397 
L 2834 2853 
Q 2591 2978 2328 3040 
Q 2066 3103 1784 3103 
Q 1356 3103 1142 2972 
Q 928 2841 928 2578 
Q 928 2378 1081 2264 
Q 1234 2150 1697 2047 
L 1894 2003 
Q 2506 1872 2764 1633 
Q 3022 1394 3022 966 
Q 3022 478 2636 193 
Q 2250 -91 1575 -91 
Q 1294 -91 989 -36 
Q 684 19 347 128 
L 347 722 
Q 666 556 975 473 
Q 1284 391 1588 391 
Q 1994 391 2212 530 
Q 2431 669 2431 922 
Q 2431 1156 2273 1281 
Q 2116 1406 1581 1522 
L 1381 1569 
Q 847 1681 609 1914 
Q 372 2147 372 2553 
Q 372 3047 722 3315 
Q 1072 3584 1716 3584 
Q 2034 3584 2315 3537 
Q 2597 3491 2834 3397 
z
" transform="scale(0.015625)"/>
        <path id="DejaVuSans-5f" d="M 3263 -1063 
L 3263 -1509 
L -63 -1509 
L -63 -1063 
L 3263 -1063 
z
" transform="scale(0.015625)"/>
        <path id="DejaVuSans-34" d="M 2419 4116 
L 825 1625 
L 2419 1625 
L 2419 4116 
z
M 2253 4666 
L 3047 4666 
L 3047 1625 
L 3713 1625 
L 3713 1100 
L 3047 1100 
L 3047 0 
L 2419 0 
L 2419 1100 
L 313 1100 
L 313 1709 
L 2253 4666 
z
" transform="scale(0.015625)"/>
        <path id="DejaVuSans-30" d="M 2034 4250 
Q 1547 4250 1301 3770 
Q 1056 3291 1056 2328 
Q 1056 1369 1301 889 
Q 1547 409 2034 409 
Q 2525 409 2770 889 
Q 3016 1369 3016 2328 
Q 3016 3291 2770 3770 
Q 2525 4250 2034 4250 
z
M 2034 4750 
Q 2819 4750 3233 4129 
Q 3647 3509 3647 2328 
Q 3647 1150 3233 529 
Q 2819 -91 2034 -91 
Q 1250 -91 836 529 
Q 422 1150 422 2328 
Q 422 3509 836 4129 
Q 1250 4750 2034 4750 
z
" transform="scale(0.015625)"/>
        <path id="DejaVuSans-37" d="M 525 4666 
L 3525 4666 
L 3525 4397 
L 1831 0 
L 1172 0 
L 2766 4134 
L 525 4134 
L 525 4666 
z
" transform="scale(0.015625)"/>
       </defs>
       <use xlink:href="#DejaVuSans-61"/>
       <use xlink:href="#DejaVuSans-66" x="61.279297"/>
       <use xlink:href="#DejaVuSans-6c" x="96.484375"/>
       <use xlink:href="#DejaVuSans-70" x="124.267578"/>
       <use xlink:href="#DejaVuSans-6c" x="187.744141"/>
       <use xlink:href="#DejaVuSans-75" x="215.527344"/>
       <use xlink:href="#DejaVuSans-73" x="278.90625"/>
       <use xlink:href="#DejaVuSans-70" x="331.005859"/>
       <use xlink:href="#DejaVuSans-6c" x="394.482422"/>
       <use xlink:href="#DejaVuSans-75" x="422.265625"/>
       <use xlink:href="#DejaVuSans-73" x="485.644531"/>
       <use xlink:href="#DejaVuSans-5f" x="537.744141"/>
       <use xlink:href="#DejaVuSans-34" x="587.744141"/>
       <use xlink:href="#DejaVuSans-30" x="651.367188"/>
       <use xlink:href="#DejaVuSans-37" x="714.990234"/>
      </g>
     </g>
    </g>
    <g id="xtick_3">
     <g id="line2d_3">
      <g>
       <use xlink:href="#m72f9bdff31" x="225.116937" y="273.312" style="stroke: #000000; stroke-width: 0.8"/>
      </g>
     </g>
     <g id="text_3">
      <!-- aflpp_fa -->
      <g transform="translate(217.5185 280.312) rotate(-270) scale(0.1 -0.1)">
       <use xlink:href="#DejaVuSans-61"/>
       <use xlink:href="#DejaVuSans-66" x="61.279297"/>
       <use xlink:href="#DejaVuSans-6c" x="96.484375"/>
       <use xlink:href="#DejaVuSans-70" x="124.267578"/>
       <use xlink:href="#DejaVuSans-70" x="187.744141"/>
       <use xlink:href="#DejaVuSans-5f" x="251.220703"/>
       <use xlink:href="#DejaVuSans-66" x="301.220703"/>
       <use xlink:href="#DejaVuSans-61" x="336.425781"/>
      </g>
     </g>
    </g>
    <g id="xtick_4">
     <g id="line2d_4">
      <g>
       <use xlink:href="#m72f9bdff31" x="278.339337" y="273.312" style="stroke: #000000; stroke-width: 0.8"/>
      </g>
     </g>
     <g id="text_4">
      <!-- fafuzz -->
      <g transform="translate(270.7409 280.312) rotate(-270) scale(0.1 -0.1)">
       <defs>
        <path id="DejaVuSans-7a" d="M 353 3500 
L 3084 3500 
L 3084 2975 
L 922 459 
L 3084 459 
L 3084 0 
L 275 0 
L 275 525 
L 2438 3041 
L 353 3041 
L 353 3500 
z
" transform="scale(0.015625)"/>
       </defs>
       <use xlink:href="#DejaVuSans-66"/>
       <use xlink:href="#DejaVuSans-61" x="35.205078"/>
       <use xlink:href="#DejaVuSans-66" x="96.484375"/>
       <use xlink:href="#DejaVuSans-75" x="131.689453"/>
       <use xlink:href="#DejaVuSans-7a" x="195.068359"/>
       <use xlink:href="#DejaVuSans-7a" x="247.558594"/>
      </g>
     </g>
    </g>
    <g id="xtick_5">
     <g id="line2d_5">
      <g>
       <use xlink:href="#m72f9bdff31" x="331.561737" y="273.312" style="stroke: #000000; stroke-width: 0.8"/>
      </g>
     </g>
     <g id="text_5">
      <!-- mopt -->
      <g transform="translate(323.9633 280.312) rotate(-270) scale(0.1 -0.1)">
       <defs>
        <path id="DejaVuSans-6d" d="M 3328 2828 
Q 3544 3216 3844 3400 
Q 4144 3584 4550 3584 
Q 5097 3584 5394 3201 
Q 5691 2819 5691 2113 
L 5691 0 
L 5113 0 
L 5113 2094 
Q 5113 2597 4934 2840 
Q 4756 3084 4391 3084 
Q 3944 3084 3684 2787 
Q 3425 2491 3425 1978 
L 3425 0 
L 2847 0 
L 2847 2094 
Q 2847 2600 2669 2842 
Q 2491 3084 2119 3084 
Q 1678 3084 1418 2786 
Q 1159 2488 1159 1978 
L 1159 0 
L 581 0 
L 581 3500 
L 1159 3500 
L 1159 2956 
Q 1356 3278 1631 3431 
Q 1906 3584 2284 3584 
Q 2666 3584 2933 3390 
Q 3200 3197 3328 2828 
z
" transform="scale(0.015625)"/>
        <path id="DejaVuSans-6f" d="M 1959 3097 
Q 1497 3097 1228 2736 
Q 959 2375 959 1747 
Q 959 1119 1226 758 
Q 1494 397 1959 397 
Q 2419 397 2687 759 
Q 2956 1122 2956 1747 
Q 2956 2369 2687 2733 
Q 2419 3097 1959 3097 
z
M 1959 3584 
Q 2709 3584 3137 3096 
Q 3566 2609 3566 1747 
Q 3566 888 3137 398 
Q 2709 -91 1959 -91 
Q 1206 -91 779 398 
Q 353 888 353 1747 
Q 353 2609 779 3096 
Q 1206 3584 1959 3584 
z
" transform="scale(0.015625)"/>
        <path id="DejaVuSans-74" d="M 1172 4494 
L 1172 3500 
L 2356 3500 
L 2356 3053 
L 1172 3053 
L 1172 1153 
Q 1172 725 1289 603 
Q 1406 481 1766 481 
L 2356 481 
L 2356 0 
L 1766 0 
Q 1100 0 847 248 
Q 594 497 594 1153 
L 594 3053 
L 172 3053 
L 172 3500 
L 594 3500 
L 594 4494 
L 1172 4494 
z
" transform="scale(0.015625)"/>
       </defs>
       <use xlink:href="#DejaVuSans-6d"/>
       <use xlink:href="#DejaVuSans-6f" x="97.412109"/>
       <use xlink:href="#DejaVuSans-70" x="158.59375"/>
       <use xlink:href="#DejaVuSans-74" x="222.070312"/>
      </g>
     </g>
    </g>
   </g>
   <g id="matplotlib.axis_2">
    <g id="ytick_1">
     <g id="line2d_6">
      <defs>
       <path id="m8b2ab2ad37" d="M 0 0 
L -3.5 0 
" style="stroke: #000000; stroke-width: 0.8"/>
      </defs>
      <g>
       <use xlink:href="#m8b2ab2ad37" x="92.060938" y="33.8112" style="stroke: #000000; stroke-width: 0.8"/>
      </g>
     </g>
     <g id="text_6">
      <!-- afl -->
      <g transform="translate(72.634375 36.570575) scale(0.1 -0.1)">
       <use xlink:href="#DejaVuSans-61"/>
       <use xlink:href="#DejaVuSans-66" x="61.279297"/>
       <use xlink:href="#DejaVuSans-6c" x="96.484375"/>
      </g>
     </g>
    </g>
    <g id="ytick_2">
     <g id="line2d_7">
      <g>
       <use xlink:href="#m8b2ab2ad37" x="92.060938" y="87.0336" style="stroke: #000000; stroke-width: 0.8"/>
      </g>
     </g>
     <g id="text_7">
      <!-- aflplusplus_407 -->
      <g transform="translate(7.2 89.653912) scale(0.1 -0.1)">
       <use xlink:href="#DejaVuSans-61"/>
       <use xlink:href="#DejaVuSans-66" x="61.279297"/>
       <use xlink:href="#DejaVuSans-6c" x="96.484375"/>
       <use xlink:href="#DejaVuSans-70" x="124.267578"/>
       <use xlink:href="#DejaVuSans-6c" x="187.744141"/>
       <use xlink:href="#DejaVuSans-75" x="215.527344"/>
       <use xlink:href="#DejaVuSans-73" x="278.90625"/>
       <use xlink:href="#DejaVuSans-70" x="331.005859"/>
       <use xlink:href="#DejaVuSans-6c" x="394.482422"/>
       <use xlink:href="#DejaVuSans-75" x="422.265625"/>
       <use xlink:href="#DejaVuSans-73" x="485.644531"/>
       <use xlink:href="#DejaVuSans-5f" x="537.744141"/>
       <use xlink:href="#DejaVuSans-34" x="587.744141"/>
       <use xlink:href="#DejaVuSans-30" x="651.367188"/>
       <use xlink:href="#DejaVuSans-37" x="714.990234"/>
      </g>
     </g>
    </g>
    <g id="ytick_3">
     <g id="line2d_8">
      <g>
       <use xlink:href="#m8b2ab2ad37" x="92.060938" y="140.256" style="stroke: #000000; stroke-width: 0.8"/>
      </g>
     </g>
     <g id="text_8">
      <!-- aflpp_fa -->
      <g transform="translate(45.289063 142.876312) scale(0.1 -0.1)">
       <use xlink:href="#DejaVuSans-61"/>
       <use xlink:href="#DejaVuSans-66" x="61.279297"/>
       <use xlink:href="#DejaVuSans-6c" x="96.484375"/>
       <use xlink:href="#DejaVuSans-70" x="124.267578"/>
       <use xlink:href="#DejaVuSans-70" x="187.744141"/>
       <use xlink:href="#DejaVuSans-5f" x="251.220703"/>
       <use xlink:href="#DejaVuSans-66" x="301.220703"/>
       <use xlink:href="#DejaVuSans-61" x="336.425781"/>
      </g>
     </g>
    </g>
    <g id="ytick_4">
     <g id="line2d_9">
      <g>
       <use xlink:href="#m8b2ab2ad37" x="92.060938" y="193.4784" style="stroke: #000000; stroke-width: 0.8"/>
      </g>
     </g>
     <g id="text_9">
      <!-- fafuzz -->
      <g transform="translate(55.057813 196.237775) scale(0.1 -0.1)">
       <use xlink:href="#DejaVuSans-66"/>
       <use xlink:href="#DejaVuSans-61" x="35.205078"/>
       <use xlink:href="#DejaVuSans-66" x="96.484375"/>
       <use xlink:href="#DejaVuSans-75" x="131.689453"/>
       <use xlink:href="#DejaVuSans-7a" x="195.068359"/>
       <use xlink:href="#DejaVuSans-7a" x="247.558594"/>
      </g>
     </g>
    </g>
    <g id="ytick_5">
     <g id="line2d_10">
      <g>
       <use xlink:href="#m8b2ab2ad37" x="92.060938" y="246.7008" style="stroke: #000000; stroke-width: 0.8"/>
      </g>
     </g>
     <g id="text_10">
      <!-- mopt -->
      <g transform="translate(58.932813 249.460175) scale(0.1 -0.1)">
       <use xlink:href="#DejaVuSans-6d"/>
       <use xlink:href="#DejaVuSans-6f" x="97.412109"/>
       <use xlink:href="#DejaVuSans-70" x="158.59375"/>
       <use xlink:href="#DejaVuSans-74" x="222.070312"/>
      </g>
     </g>
    </g>
   </g>
  </g>
  <g id="axes_2">
   <g id="patch_3">
    <path d="M 376.028937 204.192 
L 382.422537 204.192 
L 382.422537 76.32 
L 376.028937 76.32 
z
" style="fill: #ffffff"/>
   </g>
   <g id="QuadMesh_2">
    <path d="M 376.028937 204.192 
L 382.422537 204.192 
L 382.422537 182.88 
L 376.028937 182.88 
L 376.028937 204.192 
" clip-path="url(#pe0f8118e05)" style="fill: #005a32"/>
    <path d="M 376.028937 182.88 
L 382.422537 182.88 
L 382.422537 161.568 
L 376.028937 161.568 
L 376.028937 182.88 
" clip-path="url(#pe0f8118e05)" style="fill: #238b45"/>
    <path d="M 376.028937 161.568 
L 382.422537 161.568 
L 382.422537 140.256 
L 376.028937 140.256 
L 376.028937 161.568 
" clip-path="url(#pe0f8118e05)" style="fill: #fbd7d4"/>
   </g>
   <g id="matplotlib.axis_3"/>
   <g id="matplotlib.axis_4">
    <g id="ytick_6">
     <g id="line2d_11"/>
    </g>
    <g id="ytick_7">
     <g id="line2d_12"/>
    </g>
    <g id="ytick_8">
     <g id="line2d_13"/>
    </g>
    <g id="ytick_9">
     <g id="line2d_14"/>
    </g>
    <g id="ytick_10">
     <g id="line2d_15">
      <defs>
       <path id="m68c14b121b" d="M 0 0 
L 2 0 
" style="stroke: #000000; stroke-width: 0.6"/>
      </defs>
      <g>
       <use xlink:href="#m68c14b121b" x="382.422537" y="204.192" style="stroke: #000000; stroke-width: 0.6"/>
      </g>
     </g>
    </g>
    <g id="ytick_11">
     <g id="line2d_16">
      <g>
       <use xlink:href="#m68c14b121b" x="382.422537" y="182.88" style="stroke: #000000; stroke-width: 0.6"/>
      </g>
     </g>
    </g>
    <g id="ytick_12">
     <g id="line2d_17">
      <g>
       <use xlink:href="#m68c14b121b" x="382.422537" y="161.568" style="stroke: #000000; stroke-width: 0.6"/>
      </g>
     </g>
    </g>
    <g id="ytick_13">
     <g id="line2d_18">
      <g>
       <use xlink:href="#m68c14b121b" x="382.422537" y="140.256" style="stroke: #000000; stroke-width: 0.6"/>
      </g>
     </g>
    </g>
   </g>
   <g id="LineCollection_1"/>
   <g id="patch_4">
    <path d="M 376.028937 204.192 
L 379.225737 204.192 
L 382.422537 204.192 
L 382.422537 76.32 
L 379.225737 76.32 
L 376.028937 76.32 
L 376.028937 204.192 
z
" style="fill: none; stroke: #808080; stroke-linejoin: miter; stroke-linecap: square"/>
   </g>
  </g>
 </g>
 <defs>
  <clipPath id="p32f33bdb8e">
   <rect x="92.060938" y="7.2" width="266.112" height="266.112"/>
  </clipPath>
  <clipPath id="pe0f8118e05">
   <rect x="376.028937" y="76.32" width="6.3936" height="127.872"/>
  </clipPath>
 </defs>
</svg>
